G04 #@! TF.FileFunction,Copper,L1,Top,Signal*
%FSLAX46Y46*%
G04 Gerber Fmt 4.6, Leading zero omitted, Abs format (unit mm)*
G04 Created by KiCad (PCBNEW 4.0.4-stable) date Wednesday, December 14, 2016 'PMt' 08:51:04 PM*
%MOMM*%
%LPD*%
G01*
G04 APERTURE LIST*
%ADD10C,0.100000*%
%ADD11O,3.500120X5.001260*%
%ADD12C,1.600200*%
%ADD13R,1.727200X2.032000*%
%ADD14O,1.727200X2.032000*%
%ADD15C,1.998980*%
%ADD16O,2.032000X1.727200*%
%ADD17C,2.000000*%
G04 APERTURE END LIST*
D10*
D11*
X134320280Y-150075900D03*
X124122180Y-150075900D03*
D12*
X129222500Y-145811240D03*
X131721860Y-145811240D03*
D11*
X108920280Y-150075900D03*
X98722180Y-150075900D03*
D12*
X103822500Y-145811240D03*
X106321860Y-145811240D03*
D11*
X82885280Y-150075900D03*
X72687180Y-150075900D03*
D12*
X77787500Y-145811240D03*
X80286860Y-145811240D03*
D11*
X159720280Y-150075900D03*
X149522180Y-150075900D03*
D12*
X154622500Y-145811240D03*
X157121860Y-145811240D03*
D13*
X113347500Y-95567500D03*
D14*
X115887500Y-95567500D03*
X118427500Y-95567500D03*
X120967500Y-95567500D03*
D15*
X97472500Y-103187500D03*
X97472500Y-95567500D03*
X87312500Y-108902500D03*
X87312500Y-101282500D03*
D16*
X126682500Y-118427500D03*
X131762500Y-118427500D03*
X129222500Y-118427500D03*
X129222500Y-136207500D03*
X126682500Y-136207500D03*
X131762500Y-136207500D03*
X101282500Y-118427500D03*
X106362500Y-118427500D03*
X103822500Y-118427500D03*
X103822500Y-136207500D03*
X101282500Y-136207500D03*
X106362500Y-136207500D03*
X75247500Y-118427500D03*
X80327500Y-118427500D03*
X77787500Y-118427500D03*
X77787500Y-136207500D03*
X75247500Y-136207500D03*
X80327500Y-136207500D03*
X152082500Y-118427500D03*
X157162500Y-118427500D03*
X154622500Y-118427500D03*
X154622500Y-136207500D03*
X152082500Y-136207500D03*
X157162500Y-136207500D03*
D17*
X129222500Y-113347500D03*
X129222500Y-106997500D03*
X103822500Y-113347500D03*
X103822500Y-106997500D03*
X154622500Y-113347500D03*
X154622500Y-106997500D03*
M02*
