solid OpenSCAD_Model
  facet normal 0 0 -1
    outer loop
      vertex 28.622 36.0637 -5
      vertex 29.375 44 -5
      vertex 29.375 34.5 -5
    endloop
  endfacet
  facet normal 0 0 -1
    outer loop
      vertex 28.622 36.0637 -5
      vertex 28.622 42.4363 -5
      vertex 29.375 44 -5
    endloop
  endfacet
  facet normal 0 0 -1
    outer loop
      vertex 26.93 36.4499 -5
      vertex 28.622 42.4363 -5
      vertex 28.622 36.0637 -5
    endloop
  endfacet
  facet normal 0 0 -1
    outer loop
      vertex 26.93 36.4499 -5
      vertex 26.93 42.0501 -5
      vertex 28.622 42.4363 -5
    endloop
  endfacet
  facet normal 0 0 -1
    outer loop
      vertex 25.5731 35.3678 -5
      vertex 26.93 42.0501 -5
      vertex 26.93 36.4499 -5
    endloop
  endfacet
  facet normal -0 0 -1
    outer loop
      vertex 26.93 42.0501 -5
      vertex 25.5731 35.3678 -5
      vertex 25.5731 43.1322 -5
    endloop
  endfacet
  facet normal 0 0 -1
    outer loop
      vertex 78.872 36.0637 -5
      vertex 79.625 44 -5
      vertex 79.625 34.5 -5
    endloop
  endfacet
  facet normal 0 0 -1
    outer loop
      vertex 78.872 36.0637 -5
      vertex 78.872 42.4363 -5
      vertex 79.625 44 -5
    endloop
  endfacet
  facet normal 0 0 -1
    outer loop
      vertex 77.18 36.4499 -5
      vertex 78.872 42.4363 -5
      vertex 78.872 36.0637 -5
    endloop
  endfacet
  facet normal 0 0 -1
    outer loop
      vertex 77.18 36.4499 -5
      vertex 77.18 42.0501 -5
      vertex 78.872 42.4363 -5
    endloop
  endfacet
  facet normal 0 0 -1
    outer loop
      vertex 75.8231 35.3678 -5
      vertex 77.18 42.0501 -5
      vertex 77.18 36.4499 -5
    endloop
  endfacet
  facet normal -0 0 -1
    outer loop
      vertex 77.18 42.0501 -5
      vertex 75.8231 35.3678 -5
      vertex 75.8231 43.1322 -5
    endloop
  endfacet
  facet normal 0 0 -1
    outer loop
      vertex 105 0 -5
      vertex 82.75 10 -5
      vertex 105 10 -5
    endloop
  endfacet
  facet normal 0 0 -1
    outer loop
      vertex 82.75 10 -5
      vertex 79.625 34.5 -5
      vertex 82.75 54.5 -5
    endloop
  endfacet
  facet normal 0 0 -1
    outer loop
      vertex 82.75 10 -5
      vertex 78.872 32.9363 -5
      vertex 79.625 34.5 -5
    endloop
  endfacet
  facet normal 0 0 -1
    outer loop
      vertex 72.5 20 -5
      vertex 78.872 32.9363 -5
      vertex 82.75 10 -5
    endloop
  endfacet
  facet normal 0 0 -1
    outer loop
      vertex 78.872 32.9363 -5
      vertex 72.5 20 -5
      vertex 77.18 32.5501 -5
    endloop
  endfacet
  facet normal 0 0 -1
    outer loop
      vertex 72.5 20 -5
      vertex 75.8231 35.3678 -5
      vertex 75.8231 33.6322 -5
    endloop
  endfacet
  facet normal 0 0 -1
    outer loop
      vertex 75.8231 35.3678 -5
      vertex 72.5 54.5 -5
      vertex 75.8231 43.1322 -5
    endloop
  endfacet
  facet normal -0 0 -1
    outer loop
      vertex 75.8231 35.3678 -5
      vertex 72.5 20 -5
      vertex 72.5 54.5 -5
    endloop
  endfacet
  facet normal -0 0 -1
    outer loop
      vertex 77.18 32.5501 -5
      vertex 72.5 20 -5
      vertex 75.8231 33.6322 -5
    endloop
  endfacet
  facet normal 0 0 -1
    outer loop
      vertex 82.75 10 -5
      vertex 32.5 20 -5
      vertex 72.5 20 -5
    endloop
  endfacet
  facet normal 0 0 -1
    outer loop
      vertex 22.25 10 -5
      vertex 82.75 10 -5
      vertex 105 0 -5
    endloop
  endfacet
  facet normal 0 0 -1
    outer loop
      vertex 32.5 20 -5
      vertex 29.375 34.5 -5
      vertex 32.5 54.5 -5
    endloop
  endfacet
  facet normal 0 0 -1
    outer loop
      vertex 32.5 20 -5
      vertex 28.622 32.9363 -5
      vertex 29.375 34.5 -5
    endloop
  endfacet
  facet normal 0 0 -1
    outer loop
      vertex 32.5 20 -5
      vertex 26.93 32.5501 -5
      vertex 28.622 32.9363 -5
    endloop
  endfacet
  facet normal 0 0 -1
    outer loop
      vertex 22.25 10 -5
      vertex 26.93 32.5501 -5
      vertex 32.5 20 -5
    endloop
  endfacet
  facet normal 0 0 -1
    outer loop
      vertex 22.25 54.5 -5
      vertex 25.5731 35.3678 -5
      vertex 25.5731 33.6322 -5
    endloop
  endfacet
  facet normal 0 0 -1
    outer loop
      vertex 25.5731 35.3678 -5
      vertex 22.25 54.5 -5
      vertex 25.5731 43.1322 -5
    endloop
  endfacet
  facet normal 0 0 -1
    outer loop
      vertex 22.25 54.5 -5
      vertex 25.5731 33.6322 -5
      vertex 22.25 10 -5
    endloop
  endfacet
  facet normal -0 0 -1
    outer loop
      vertex 26.93 32.5501 -5
      vertex 22.25 10 -5
      vertex 25.5731 33.6322 -5
    endloop
  endfacet
  facet normal 0 0 -1
    outer loop
      vertex 82.75 10 -5
      vertex 22.25 10 -5
      vertex 32.5 20 -5
    endloop
  endfacet
  facet normal 0 0 -1
    outer loop
      vertex 0 0 -5
      vertex 22.25 10 -5
      vertex 105 0 -5
    endloop
  endfacet
  facet normal -0 0 -1
    outer loop
      vertex 22.25 10 -5
      vertex 0 0 -5
      vertex 0 10 -5
    endloop
  endfacet
  facet normal 0 0 -1
    outer loop
      vertex 79.625 44 -5
      vertex 82.75 54.5 -5
      vertex 79.625 34.5 -5
    endloop
  endfacet
  facet normal 0 0 -1
    outer loop
      vertex 78.872 45.5637 -5
      vertex 82.75 54.5 -5
      vertex 79.625 44 -5
    endloop
  endfacet
  facet normal 0 0 -1
    outer loop
      vertex 77.18 45.9499 -5
      vertex 82.75 54.5 -5
      vertex 78.872 45.5637 -5
    endloop
  endfacet
  facet normal 0 0 -1
    outer loop
      vertex 72.5 54.5 -5
      vertex 77.18 45.9499 -5
      vertex 75.8231 44.8678 -5
    endloop
  endfacet
  facet normal 0 0 -1
    outer loop
      vertex 77.18 45.9499 -5
      vertex 72.5 54.5 -5
      vertex 82.75 54.5 -5
    endloop
  endfacet
  facet normal 0 0 -1
    outer loop
      vertex 75.8231 43.1322 -5
      vertex 72.5 54.5 -5
      vertex 75.8231 44.8678 -5
    endloop
  endfacet
  facet normal 0 0 -1
    outer loop
      vertex 29.375 44 -5
      vertex 32.5 54.5 -5
      vertex 29.375 34.5 -5
    endloop
  endfacet
  facet normal 0 0 -1
    outer loop
      vertex 28.622 45.5637 -5
      vertex 32.5 54.5 -5
      vertex 29.375 44 -5
    endloop
  endfacet
  facet normal 0 0 -1
    outer loop
      vertex 26.93 45.9499 -5
      vertex 32.5 54.5 -5
      vertex 28.622 45.5637 -5
    endloop
  endfacet
  facet normal 0 0 -1
    outer loop
      vertex 22.25 54.5 -5
      vertex 26.93 45.9499 -5
      vertex 25.5731 44.8678 -5
    endloop
  endfacet
  facet normal 0 0 -1
    outer loop
      vertex 26.93 45.9499 -5
      vertex 22.25 54.5 -5
      vertex 32.5 54.5 -5
    endloop
  endfacet
  facet normal 0 0 -1
    outer loop
      vertex 25.5731 43.1322 -5
      vertex 22.25 54.5 -5
      vertex 25.5731 44.8678 -5
    endloop
  endfacet
  facet normal -0 0 1
    outer loop
      vertex 28.622 42.4363 5
      vertex 29.375 34.5 5
      vertex 29.375 44 5
    endloop
  endfacet
  facet normal 0 0 1
    outer loop
      vertex 28.622 42.4363 5
      vertex 28.622 36.0637 5
      vertex 29.375 34.5 5
    endloop
  endfacet
  facet normal -0 0 1
    outer loop
      vertex 26.93 42.0501 5
      vertex 28.622 36.0637 5
      vertex 28.622 42.4363 5
    endloop
  endfacet
  facet normal 0 0 1
    outer loop
      vertex 26.93 42.0501 5
      vertex 26.93 36.4499 5
      vertex 28.622 36.0637 5
    endloop
  endfacet
  facet normal 0 0 1
    outer loop
      vertex 25.5731 43.1322 5
      vertex 26.93 36.4499 5
      vertex 26.93 42.0501 5
    endloop
  endfacet
  facet normal 0 0 1
    outer loop
      vertex 26.93 36.4499 5
      vertex 25.5731 43.1322 5
      vertex 25.5731 35.3678 5
    endloop
  endfacet
  facet normal 0 0 1
    outer loop
      vertex 29.375 34.5 5
      vertex 32.5 54.5 5
      vertex 29.375 44 5
    endloop
  endfacet
  facet normal 0 0 1
    outer loop
      vertex 32.5 54.5 5
      vertex 28.622 45.5637 5
      vertex 29.375 44 5
    endloop
  endfacet
  facet normal 0 0 1
    outer loop
      vertex 32.5 54.5 5
      vertex 26.93 45.9499 5
      vertex 28.622 45.5637 5
    endloop
  endfacet
  facet normal -0 0 1
    outer loop
      vertex 22.25 54.5 5
      vertex 26.93 45.9499 5
      vertex 32.5 54.5 5
    endloop
  endfacet
  facet normal 0 0 1
    outer loop
      vertex 22.25 54.5 5
      vertex 25.5731 43.1322 5
      vertex 25.5731 44.8678 5
    endloop
  endfacet
  facet normal 0 0 1
    outer loop
      vertex 25.5731 43.1322 5
      vertex 22.25 54.5 5
      vertex 25.5731 35.3678 5
    endloop
  endfacet
  facet normal 0 0 1
    outer loop
      vertex 25.5731 35.3678 5
      vertex 22.25 54.5 5
      vertex 25.5731 33.6322 5
    endloop
  endfacet
  facet normal 0 0 1
    outer loop
      vertex 26.93 45.9499 5
      vertex 22.25 54.5 5
      vertex 25.5731 44.8678 5
    endloop
  endfacet
  facet normal -0 0 1
    outer loop
      vertex 78.872 42.4363 5
      vertex 79.625 34.5 5
      vertex 79.625 44 5
    endloop
  endfacet
  facet normal 0 0 1
    outer loop
      vertex 78.872 42.4363 5
      vertex 78.872 36.0637 5
      vertex 79.625 34.5 5
    endloop
  endfacet
  facet normal -0 0 1
    outer loop
      vertex 77.18 42.0501 5
      vertex 78.872 36.0637 5
      vertex 78.872 42.4363 5
    endloop
  endfacet
  facet normal 0 0 1
    outer loop
      vertex 77.18 42.0501 5
      vertex 77.18 36.4499 5
      vertex 78.872 36.0637 5
    endloop
  endfacet
  facet normal 0 0 1
    outer loop
      vertex 75.8231 43.1322 5
      vertex 77.18 36.4499 5
      vertex 77.18 42.0501 5
    endloop
  endfacet
  facet normal 0 0 1
    outer loop
      vertex 77.18 36.4499 5
      vertex 75.8231 43.1322 5
      vertex 75.8231 35.3678 5
    endloop
  endfacet
  facet normal 0 0 1
    outer loop
      vertex 79.625 34.5 5
      vertex 82.75 54.5 5
      vertex 79.625 44 5
    endloop
  endfacet
  facet normal 0 0 1
    outer loop
      vertex 82.75 54.5 5
      vertex 78.872 45.5637 5
      vertex 79.625 44 5
    endloop
  endfacet
  facet normal 0 0 1
    outer loop
      vertex 82.75 54.5 5
      vertex 77.18 45.9499 5
      vertex 78.872 45.5637 5
    endloop
  endfacet
  facet normal -0 0 1
    outer loop
      vertex 72.5 54.5 5
      vertex 77.18 45.9499 5
      vertex 82.75 54.5 5
    endloop
  endfacet
  facet normal 0 0 1
    outer loop
      vertex 72.5 54.5 5
      vertex 75.8231 43.1322 5
      vertex 75.8231 44.8678 5
    endloop
  endfacet
  facet normal 0 0 1
    outer loop
      vertex 75.8231 43.1322 5
      vertex 72.5 54.5 5
      vertex 75.8231 35.3678 5
    endloop
  endfacet
  facet normal 0 0 1
    outer loop
      vertex 72.5 20 5
      vertex 75.8231 35.3678 5
      vertex 72.5 54.5 5
    endloop
  endfacet
  facet normal 0 0 1
    outer loop
      vertex 77.18 45.9499 5
      vertex 72.5 54.5 5
      vertex 75.8231 44.8678 5
    endloop
  endfacet
  facet normal -0 0 1
    outer loop
      vertex 82.75 10 5
      vertex 93 0 5
      vertex 93 10 5
    endloop
  endfacet
  facet normal 0 0 1
    outer loop
      vertex 82.75 54.5 5
      vertex 79.625 34.5 5
      vertex 82.75 10 5
    endloop
  endfacet
  facet normal -0 0 1
    outer loop
      vertex 78.872 32.9363 5
      vertex 82.75 10 5
      vertex 79.625 34.5 5
    endloop
  endfacet
  facet normal 0 0 1
    outer loop
      vertex 72.5 20 5
      vertex 78.872 32.9363 5
      vertex 77.18 32.5501 5
    endloop
  endfacet
  facet normal 0 0 1
    outer loop
      vertex 72.5 20 5
      vertex 77.18 32.5501 5
      vertex 75.8231 33.6322 5
    endloop
  endfacet
  facet normal 0 0 1
    outer loop
      vertex 75.8231 35.3678 5
      vertex 72.5 20 5
      vertex 75.8231 33.6322 5
    endloop
  endfacet
  facet normal 0 0 1
    outer loop
      vertex 78.872 32.9363 5
      vertex 72.5 20 5
      vertex 82.75 10 5
    endloop
  endfacet
  facet normal 0 0 1
    outer loop
      vertex 22.25 10 5
      vertex 82.75 10 5
      vertex 72.5 20 5
    endloop
  endfacet
  facet normal 0 0 1
    outer loop
      vertex 22.25 10 5
      vertex 72.5 20 5
      vertex 32.5 20 5
    endloop
  endfacet
  facet normal 0 0 1
    outer loop
      vertex 32.5 54.5 5
      vertex 29.375 34.5 5
      vertex 32.5 20 5
    endloop
  endfacet
  facet normal -0 0 1
    outer loop
      vertex 28.622 32.9363 5
      vertex 32.5 20 5
      vertex 29.375 34.5 5
    endloop
  endfacet
  facet normal -0 0 1
    outer loop
      vertex 26.93 32.5501 5
      vertex 32.5 20 5
      vertex 28.622 32.9363 5
    endloop
  endfacet
  facet normal 0 0 1
    outer loop
      vertex 22.25 10 5
      vertex 26.93 32.5501 5
      vertex 25.5731 33.6322 5
    endloop
  endfacet
  facet normal 0 0 1
    outer loop
      vertex 22.25 10 5
      vertex 25.5731 33.6322 5
      vertex 22.25 54.5 5
    endloop
  endfacet
  facet normal 0 0 1
    outer loop
      vertex 26.93 32.5501 5
      vertex 22.25 10 5
      vertex 32.5 20 5
    endloop
  endfacet
  facet normal 0 0 1
    outer loop
      vertex 82.75 10 5
      vertex 22.25 10 5
      vertex 93 0 5
    endloop
  endfacet
  facet normal 0 0 1
    outer loop
      vertex 12 0 5
      vertex 22.25 10 5
      vertex 12 10 5
    endloop
  endfacet
  facet normal 0 0 1
    outer loop
      vertex 22.25 10 5
      vertex 12 0 5
      vertex 93 0 5
    endloop
  endfacet
  facet normal 0 1 0
    outer loop
      vertex 105 10 15
      vertex 102 10 10
      vertex 93 10 15
    endloop
  endfacet
  facet normal 0 1 0
    outer loop
      vertex 105 10 15
      vertex 102 10 0
      vertex 102 10 10
    endloop
  endfacet
  facet normal 0 1 0
    outer loop
      vertex 102 10 0
      vertex 105 10 -5
      vertex 96 10 0
    endloop
  endfacet
  facet normal 0 1 -0
    outer loop
      vertex 105 10 -5
      vertex 102 10 0
      vertex 105 10 15
    endloop
  endfacet
  facet normal 0 1 -0
    outer loop
      vertex 96 10 10
      vertex 93 10 15
      vertex 102 10 10
    endloop
  endfacet
  facet normal 0 1 0
    outer loop
      vertex 96 10 10
      vertex 93 10 5
      vertex 93 10 15
    endloop
  endfacet
  facet normal 0 1 -0
    outer loop
      vertex 96 10 0
      vertex 93 10 5
      vertex 96 10 10
    endloop
  endfacet
  facet normal 0 1 0
    outer loop
      vertex 82.75 10 -5
      vertex 93 10 5
      vertex 96 10 0
    endloop
  endfacet
  facet normal 0 1 0
    outer loop
      vertex 82.75 10 -5
      vertex 96 10 0
      vertex 105 10 -5
    endloop
  endfacet
  facet normal 0 1 0
    outer loop
      vertex 93 10 5
      vertex 82.75 10 -5
      vertex 82.75 10 5
    endloop
  endfacet
  facet normal 1 -0 0
    outer loop
      vertex 82.75 10 5
      vertex 82.75 54.5 -5
      vertex 82.75 54.5 5
    endloop
  endfacet
  facet normal 1 0 0
    outer loop
      vertex 82.75 54.5 -5
      vertex 82.75 10 5
      vertex 82.75 10 -5
    endloop
  endfacet
  facet normal 0 1 -0
    outer loop
      vertex 82.75 54.5 -5
      vertex 72.5 54.5 5
      vertex 82.75 54.5 5
    endloop
  endfacet
  facet normal 0 1 0
    outer loop
      vertex 72.5 54.5 5
      vertex 82.75 54.5 -5
      vertex 72.5 54.5 -5
    endloop
  endfacet
  facet normal -1 0 0
    outer loop
      vertex 72.5 20 -5
      vertex 72.5 54.5 5
      vertex 72.5 54.5 -5
    endloop
  endfacet
  facet normal -1 -0 0
    outer loop
      vertex 72.5 54.5 5
      vertex 72.5 20 -5
      vertex 72.5 20 5
    endloop
  endfacet
  facet normal 0 1 -0
    outer loop
      vertex 72.5 20 -5
      vertex 32.5 20 5
      vertex 72.5 20 5
    endloop
  endfacet
  facet normal 0 1 0
    outer loop
      vertex 32.5 20 5
      vertex 72.5 20 -5
      vertex 32.5 20 -5
    endloop
  endfacet
  facet normal 1 -0 0
    outer loop
      vertex 32.5 20 5
      vertex 32.5 54.5 -5
      vertex 32.5 54.5 5
    endloop
  endfacet
  facet normal 1 0 0
    outer loop
      vertex 32.5 54.5 -5
      vertex 32.5 20 5
      vertex 32.5 20 -5
    endloop
  endfacet
  facet normal 0 1 -0
    outer loop
      vertex 32.5 54.5 -5
      vertex 22.25 54.5 5
      vertex 32.5 54.5 5
    endloop
  endfacet
  facet normal 0 1 0
    outer loop
      vertex 22.25 54.5 5
      vertex 32.5 54.5 -5
      vertex 22.25 54.5 -5
    endloop
  endfacet
  facet normal -1 0 0
    outer loop
      vertex 22.25 10 -5
      vertex 22.25 54.5 5
      vertex 22.25 54.5 -5
    endloop
  endfacet
  facet normal -1 -0 0
    outer loop
      vertex 22.25 54.5 5
      vertex 22.25 10 -5
      vertex 22.25 10 5
    endloop
  endfacet
  facet normal 0 1 -0
    outer loop
      vertex 22.25 10 -5
      vertex 12 10 5
      vertex 22.25 10 5
    endloop
  endfacet
  facet normal 0 1 0
    outer loop
      vertex 0 10 -5
      vertex 9 10 0
      vertex 22.25 10 -5
    endloop
  endfacet
  facet normal 0 1 0
    outer loop
      vertex 12 10 5
      vertex 22.25 10 -5
      vertex 9 10 0
    endloop
  endfacet
  facet normal 0 1 0
    outer loop
      vertex 12 10 15
      vertex 9 10 10
      vertex 0 10 15
    endloop
  endfacet
  facet normal 0 1 -0
    outer loop
      vertex 12 10 5
      vertex 9 10 10
      vertex 12 10 15
    endloop
  endfacet
  facet normal 0 1 0
    outer loop
      vertex 9 10 10
      vertex 12 10 5
      vertex 9 10 0
    endloop
  endfacet
  facet normal 0 1 -0
    outer loop
      vertex 3 10 10
      vertex 0 10 15
      vertex 9 10 10
    endloop
  endfacet
  facet normal 0 1 -0
    outer loop
      vertex 3 10 0
      vertex 0 10 15
      vertex 3 10 10
    endloop
  endfacet
  facet normal 0 1 0
    outer loop
      vertex 3 10 0
      vertex 0 10 -5
      vertex 0 10 15
    endloop
  endfacet
  facet normal 0 1 0
    outer loop
      vertex 9 10 0
      vertex 0 10 -5
      vertex 3 10 0
    endloop
  endfacet
  facet normal -1 0 0
    outer loop
      vertex 0 0 -5
      vertex 0 10 15
      vertex 0 10 -5
    endloop
  endfacet
  facet normal -1 -0 0
    outer loop
      vertex 0 10 15
      vertex 0 0 -5
      vertex 0 0 15
    endloop
  endfacet
  facet normal 0 -1 0
    outer loop
      vertex 0 0 15
      vertex 3 0 10
      vertex 12 0 15
    endloop
  endfacet
  facet normal 0 -1 0
    outer loop
      vertex 0 0 15
      vertex 3 0 0
      vertex 3 0 10
    endloop
  endfacet
  facet normal 0 -1 0
    outer loop
      vertex 0 0 -5
      vertex 9 0 0
      vertex 3 0 0
    endloop
  endfacet
  facet normal 0 -1 -0
    outer loop
      vertex 9 0 0
      vertex 0 0 -5
      vertex 96 0 0
    endloop
  endfacet
  facet normal 0 -1 0
    outer loop
      vertex 105 0 -5
      vertex 96 0 0
      vertex 0 0 -5
    endloop
  endfacet
  facet normal 0 -1 0
    outer loop
      vertex 0 0 -5
      vertex 3 0 0
      vertex 0 0 15
    endloop
  endfacet
  facet normal 0 -1 0
    outer loop
      vertex 9 0 10
      vertex 12 0 15
      vertex 3 0 10
    endloop
  endfacet
  facet normal 0 -1 0
    outer loop
      vertex 9 0 10
      vertex 12 0 5
      vertex 12 0 15
    endloop
  endfacet
  facet normal 0 -1 -0
    outer loop
      vertex 12 0 5
      vertex 9 0 0
      vertex 93 0 5
    endloop
  endfacet
  facet normal 0 -1 0
    outer loop
      vertex 9 0 0
      vertex 12 0 5
      vertex 9 0 10
    endloop
  endfacet
  facet normal 0 -1 0
    outer loop
      vertex 93 0 15
      vertex 96 0 10
      vertex 105 0 15
    endloop
  endfacet
  facet normal 0 -1 0
    outer loop
      vertex 93 0 5
      vertex 96 0 10
      vertex 93 0 15
    endloop
  endfacet
  facet normal 0 -1 0
    outer loop
      vertex 93 0 5
      vertex 96 0 0
      vertex 96 0 10
    endloop
  endfacet
  facet normal 0 -1 0
    outer loop
      vertex 96 0 0
      vertex 93 0 5
      vertex 9 0 0
    endloop
  endfacet
  facet normal 0 -1 0
    outer loop
      vertex 102 0 10
      vertex 105 0 15
      vertex 96 0 10
    endloop
  endfacet
  facet normal 0 -1 0
    outer loop
      vertex 102 0 0
      vertex 105 0 15
      vertex 102 0 10
    endloop
  endfacet
  facet normal 0 -1 0
    outer loop
      vertex 102 0 0
      vertex 105 0 -5
      vertex 105 0 15
    endloop
  endfacet
  facet normal 0 -1 0
    outer loop
      vertex 96 0 0
      vertex 105 0 -5
      vertex 102 0 0
    endloop
  endfacet
  facet normal 1 -0 0
    outer loop
      vertex 105 0 15
      vertex 105 10 -5
      vertex 105 10 15
    endloop
  endfacet
  facet normal 1 0 0
    outer loop
      vertex 105 10 -5
      vertex 105 0 15
      vertex 105 0 -5
    endloop
  endfacet
  facet normal -0 0 1
    outer loop
      vertex 0 10 15
      vertex 12 0 15
      vertex 12 10 15
    endloop
  endfacet
  facet normal 0 0 1
    outer loop
      vertex 12 0 15
      vertex 0 10 15
      vertex 0 0 15
    endloop
  endfacet
  facet normal 1 -0 0
    outer loop
      vertex 12 0 15
      vertex 12 10 5
      vertex 12 10 15
    endloop
  endfacet
  facet normal 1 0 0
    outer loop
      vertex 12 10 5
      vertex 12 0 15
      vertex 12 0 5
    endloop
  endfacet
  facet normal -1 0 0
    outer loop
      vertex 93 0 5
      vertex 93 10 15
      vertex 93 10 5
    endloop
  endfacet
  facet normal -1 -0 0
    outer loop
      vertex 93 10 15
      vertex 93 0 5
      vertex 93 0 15
    endloop
  endfacet
  facet normal -0 0 1
    outer loop
      vertex 93 10 15
      vertex 105 0 15
      vertex 105 10 15
    endloop
  endfacet
  facet normal 0 0 1
    outer loop
      vertex 105 0 15
      vertex 93 10 15
      vertex 93 0 15
    endloop
  endfacet
  facet normal -0.900969 -0.433884 0
    outer loop
      vertex 29.375 34.5 -5
      vertex 28.622 36.0637 5
      vertex 28.622 36.0637 -5
    endloop
  endfacet
  facet normal -0.900969 -0.433884 0
    outer loop
      vertex 28.622 36.0637 5
      vertex 29.375 34.5 -5
      vertex 29.375 34.5 5
    endloop
  endfacet
  facet normal 1 -0 0
    outer loop
      vertex 25.5731 33.6322 5
      vertex 25.5731 35.3678 -5
      vertex 25.5731 35.3678 5
    endloop
  endfacet
  facet normal 1 0 0
    outer loop
      vertex 25.5731 35.3678 -5
      vertex 25.5731 33.6322 5
      vertex 25.5731 33.6322 -5
    endloop
  endfacet
  facet normal -0.222521 -0.974928 0
    outer loop
      vertex 26.93 36.4499 -5
      vertex 28.622 36.0637 5
      vertex 26.93 36.4499 5
    endloop
  endfacet
  facet normal -0.222521 -0.974928 -0
    outer loop
      vertex 28.622 36.0637 5
      vertex 26.93 36.4499 -5
      vertex 28.622 36.0637 -5
    endloop
  endfacet
  facet normal 0.62349 -0.781831 0
    outer loop
      vertex 25.5731 35.3678 -5
      vertex 26.93 36.4499 5
      vertex 25.5731 35.3678 5
    endloop
  endfacet
  facet normal 0.62349 -0.781831 0
    outer loop
      vertex 26.93 36.4499 5
      vertex 25.5731 35.3678 -5
      vertex 26.93 36.4499 -5
    endloop
  endfacet
  facet normal -0.900969 0.433884 0
    outer loop
      vertex 28.622 32.9363 -5
      vertex 29.375 34.5 5
      vertex 29.375 34.5 -5
    endloop
  endfacet
  facet normal -0.900969 0.433884 0
    outer loop
      vertex 29.375 34.5 5
      vertex 28.622 32.9363 -5
      vertex 28.622 32.9363 5
    endloop
  endfacet
  facet normal -0.222521 0.974928 0
    outer loop
      vertex 28.622 32.9363 -5
      vertex 26.93 32.5501 5
      vertex 28.622 32.9363 5
    endloop
  endfacet
  facet normal -0.222521 0.974928 0
    outer loop
      vertex 26.93 32.5501 5
      vertex 28.622 32.9363 -5
      vertex 26.93 32.5501 -5
    endloop
  endfacet
  facet normal 0.62349 0.781831 -0
    outer loop
      vertex 26.93 32.5501 -5
      vertex 25.5731 33.6322 5
      vertex 26.93 32.5501 5
    endloop
  endfacet
  facet normal 0.62349 0.781831 0
    outer loop
      vertex 25.5731 33.6322 5
      vertex 26.93 32.5501 -5
      vertex 25.5731 33.6322 -5
    endloop
  endfacet
  facet normal -0.900969 -0.433884 0
    outer loop
      vertex 29.375 44 -5
      vertex 28.622 45.5637 5
      vertex 28.622 45.5637 -5
    endloop
  endfacet
  facet normal -0.900969 -0.433884 0
    outer loop
      vertex 28.622 45.5637 5
      vertex 29.375 44 -5
      vertex 29.375 44 5
    endloop
  endfacet
  facet normal 1 -0 0
    outer loop
      vertex 25.5731 43.1322 5
      vertex 25.5731 44.8678 -5
      vertex 25.5731 44.8678 5
    endloop
  endfacet
  facet normal 1 0 0
    outer loop
      vertex 25.5731 44.8678 -5
      vertex 25.5731 43.1322 5
      vertex 25.5731 43.1322 -5
    endloop
  endfacet
  facet normal -0.222521 -0.974928 0
    outer loop
      vertex 26.93 45.9499 -5
      vertex 28.622 45.5637 5
      vertex 26.93 45.9499 5
    endloop
  endfacet
  facet normal -0.222521 -0.974928 -0
    outer loop
      vertex 28.622 45.5637 5
      vertex 26.93 45.9499 -5
      vertex 28.622 45.5637 -5
    endloop
  endfacet
  facet normal 0.62349 -0.781831 0
    outer loop
      vertex 25.5731 44.8678 -5
      vertex 26.93 45.9499 5
      vertex 25.5731 44.8678 5
    endloop
  endfacet
  facet normal 0.62349 -0.781831 0
    outer loop
      vertex 26.93 45.9499 5
      vertex 25.5731 44.8678 -5
      vertex 26.93 45.9499 -5
    endloop
  endfacet
  facet normal -0.222521 0.974928 0
    outer loop
      vertex 28.622 42.4363 -5
      vertex 26.93 42.0501 5
      vertex 28.622 42.4363 5
    endloop
  endfacet
  facet normal -0.222521 0.974928 0
    outer loop
      vertex 26.93 42.0501 5
      vertex 28.622 42.4363 -5
      vertex 26.93 42.0501 -5
    endloop
  endfacet
  facet normal 0.62349 0.781831 -0
    outer loop
      vertex 26.93 42.0501 -5
      vertex 25.5731 43.1322 5
      vertex 26.93 42.0501 5
    endloop
  endfacet
  facet normal 0.62349 0.781831 0
    outer loop
      vertex 25.5731 43.1322 5
      vertex 26.93 42.0501 -5
      vertex 25.5731 43.1322 -5
    endloop
  endfacet
  facet normal -0.900969 0.433884 0
    outer loop
      vertex 28.622 42.4363 -5
      vertex 29.375 44 5
      vertex 29.375 44 -5
    endloop
  endfacet
  facet normal -0.900969 0.433884 0
    outer loop
      vertex 29.375 44 5
      vertex 28.622 42.4363 -5
      vertex 28.622 42.4363 5
    endloop
  endfacet
  facet normal -0.900969 -0.433884 0
    outer loop
      vertex 79.625 34.5 -5
      vertex 78.872 36.0637 5
      vertex 78.872 36.0637 -5
    endloop
  endfacet
  facet normal -0.900969 -0.433884 0
    outer loop
      vertex 78.872 36.0637 5
      vertex 79.625 34.5 -5
      vertex 79.625 34.5 5
    endloop
  endfacet
  facet normal 1 -0 0
    outer loop
      vertex 75.8231 33.6322 5
      vertex 75.8231 35.3678 -5
      vertex 75.8231 35.3678 5
    endloop
  endfacet
  facet normal 1 0 0
    outer loop
      vertex 75.8231 35.3678 -5
      vertex 75.8231 33.6322 5
      vertex 75.8231 33.6322 -5
    endloop
  endfacet
  facet normal -0.22252 -0.974928 0
    outer loop
      vertex 77.18 36.4499 -5
      vertex 78.872 36.0637 5
      vertex 77.18 36.4499 5
    endloop
  endfacet
  facet normal -0.22252 -0.974928 -0
    outer loop
      vertex 78.872 36.0637 5
      vertex 77.18 36.4499 -5
      vertex 78.872 36.0637 -5
    endloop
  endfacet
  facet normal 0.62349 -0.781831 0
    outer loop
      vertex 75.8231 35.3678 -5
      vertex 77.18 36.4499 5
      vertex 75.8231 35.3678 5
    endloop
  endfacet
  facet normal 0.62349 -0.781831 0
    outer loop
      vertex 77.18 36.4499 5
      vertex 75.8231 35.3678 -5
      vertex 77.18 36.4499 -5
    endloop
  endfacet
  facet normal -0.900969 0.433884 0
    outer loop
      vertex 78.872 32.9363 -5
      vertex 79.625 34.5 5
      vertex 79.625 34.5 -5
    endloop
  endfacet
  facet normal -0.900969 0.433884 0
    outer loop
      vertex 79.625 34.5 5
      vertex 78.872 32.9363 -5
      vertex 78.872 32.9363 5
    endloop
  endfacet
  facet normal -0.22252 0.974928 0
    outer loop
      vertex 78.872 32.9363 -5
      vertex 77.18 32.5501 5
      vertex 78.872 32.9363 5
    endloop
  endfacet
  facet normal -0.22252 0.974928 0
    outer loop
      vertex 77.18 32.5501 5
      vertex 78.872 32.9363 -5
      vertex 77.18 32.5501 -5
    endloop
  endfacet
  facet normal 0.62349 0.781831 -0
    outer loop
      vertex 77.18 32.5501 -5
      vertex 75.8231 33.6322 5
      vertex 77.18 32.5501 5
    endloop
  endfacet
  facet normal 0.62349 0.781831 0
    outer loop
      vertex 75.8231 33.6322 5
      vertex 77.18 32.5501 -5
      vertex 75.8231 33.6322 -5
    endloop
  endfacet
  facet normal -0.900969 -0.433884 0
    outer loop
      vertex 79.625 44 -5
      vertex 78.872 45.5637 5
      vertex 78.872 45.5637 -5
    endloop
  endfacet
  facet normal -0.900969 -0.433884 0
    outer loop
      vertex 78.872 45.5637 5
      vertex 79.625 44 -5
      vertex 79.625 44 5
    endloop
  endfacet
  facet normal 1 -0 0
    outer loop
      vertex 75.8231 43.1322 5
      vertex 75.8231 44.8678 -5
      vertex 75.8231 44.8678 5
    endloop
  endfacet
  facet normal 1 0 0
    outer loop
      vertex 75.8231 44.8678 -5
      vertex 75.8231 43.1322 5
      vertex 75.8231 43.1322 -5
    endloop
  endfacet
  facet normal -0.22252 -0.974928 0
    outer loop
      vertex 77.18 45.9499 -5
      vertex 78.872 45.5637 5
      vertex 77.18 45.9499 5
    endloop
  endfacet
  facet normal -0.22252 -0.974928 -0
    outer loop
      vertex 78.872 45.5637 5
      vertex 77.18 45.9499 -5
      vertex 78.872 45.5637 -5
    endloop
  endfacet
  facet normal 0.62349 0.781831 -0
    outer loop
      vertex 77.18 42.0501 -5
      vertex 75.8231 43.1322 5
      vertex 77.18 42.0501 5
    endloop
  endfacet
  facet normal 0.62349 0.781831 0
    outer loop
      vertex 75.8231 43.1322 5
      vertex 77.18 42.0501 -5
      vertex 75.8231 43.1322 -5
    endloop
  endfacet
  facet normal 0.62349 -0.781831 0
    outer loop
      vertex 75.8231 44.8678 -5
      vertex 77.18 45.9499 5
      vertex 75.8231 44.8678 5
    endloop
  endfacet
  facet normal 0.62349 -0.781831 0
    outer loop
      vertex 77.18 45.9499 5
      vertex 75.8231 44.8678 -5
      vertex 77.18 45.9499 -5
    endloop
  endfacet
  facet normal -0.900969 0.433884 0
    outer loop
      vertex 78.872 42.4363 -5
      vertex 79.625 44 5
      vertex 79.625 44 -5
    endloop
  endfacet
  facet normal -0.900969 0.433884 0
    outer loop
      vertex 79.625 44 5
      vertex 78.872 42.4363 -5
      vertex 78.872 42.4363 5
    endloop
  endfacet
  facet normal -0.22252 0.974928 0
    outer loop
      vertex 78.872 42.4363 -5
      vertex 77.18 42.0501 5
      vertex 78.872 42.4363 5
    endloop
  endfacet
  facet normal -0.22252 0.974928 0
    outer loop
      vertex 77.18 42.0501 5
      vertex 78.872 42.4363 -5
      vertex 77.18 42.0501 -5
    endloop
  endfacet
  facet normal 1 -0 0
    outer loop
      vertex 3 0 10
      vertex 3 10 0
      vertex 3 10 10
    endloop
  endfacet
  facet normal 1 0 0
    outer loop
      vertex 3 10 0
      vertex 3 0 10
      vertex 3 0 0
    endloop
  endfacet
  facet normal 0 0 -1
    outer loop
      vertex 3 0 10
      vertex 9 10 10
      vertex 9 0 10
    endloop
  endfacet
  facet normal -0 0 -1
    outer loop
      vertex 9 10 10
      vertex 3 0 10
      vertex 3 10 10
    endloop
  endfacet
  facet normal -1 0 0
    outer loop
      vertex 9 0 0
      vertex 9 10 10
      vertex 9 10 0
    endloop
  endfacet
  facet normal -1 -0 0
    outer loop
      vertex 9 10 10
      vertex 9 0 0
      vertex 9 0 10
    endloop
  endfacet
  facet normal -0 0 1
    outer loop
      vertex 3 10 0
      vertex 9 0 0
      vertex 9 10 0
    endloop
  endfacet
  facet normal 0 0 1
    outer loop
      vertex 9 0 0
      vertex 3 10 0
      vertex 3 0 0
    endloop
  endfacet
  facet normal 1 -0 0
    outer loop
      vertex 96 0 10
      vertex 96 10 0
      vertex 96 10 10
    endloop
  endfacet
  facet normal 1 0 0
    outer loop
      vertex 96 10 0
      vertex 96 0 10
      vertex 96 0 0
    endloop
  endfacet
  facet normal 0 0 -1
    outer loop
      vertex 96 0 10
      vertex 102 10 10
      vertex 102 0 10
    endloop
  endfacet
  facet normal -0 0 -1
    outer loop
      vertex 102 10 10
      vertex 96 0 10
      vertex 96 10 10
    endloop
  endfacet
  facet normal -1 0 0
    outer loop
      vertex 102 0 0
      vertex 102 10 10
      vertex 102 10 0
    endloop
  endfacet
  facet normal -1 -0 0
    outer loop
      vertex 102 10 10
      vertex 102 0 0
      vertex 102 0 10
    endloop
  endfacet
  facet normal -0 0 1
    outer loop
      vertex 96 10 0
      vertex 102 0 0
      vertex 102 10 0
    endloop
  endfacet
  facet normal 0 0 1
    outer loop
      vertex 102 0 0
      vertex 96 10 0
      vertex 96 0 0
    endloop
  endfacet
endsolid OpenSCAD_Model
