solid OpenSCAD_Model
  facet normal -1 0 0
    outer loop
      vertex 0 12.825 0
      vertex 0 0 0
      vertex 0 12.825 5
    endloop
  endfacet
  facet normal -1 0 0
    outer loop
      vertex 0 55.575 0
      vertex 0 29.925 0
      vertex 0 55.575 5
    endloop
  endfacet
  facet normal -1 0 0
    outer loop
      vertex 0 72.675 5
      vertex 0 85.5 0
      vertex 0 72.675 0
    endloop
  endfacet
  facet normal -1 0 0
    outer loop
      vertex 0 85.5 0
      vertex 0 72.675 5
      vertex 0 85.5 13.5
    endloop
  endfacet
  facet normal -1 0 0
    outer loop
      vertex 0 55.575 5
      vertex 0 85.5 13.5
      vertex 0 72.675 5
    endloop
  endfacet
  facet normal -1 0 0
    outer loop
      vertex 0 29.925 5
      vertex 0 55.575 5
      vertex 0 29.925 0
    endloop
  endfacet
  facet normal -1 0 0
    outer loop
      vertex 0 55.575 5
      vertex 0 29.925 5
      vertex 0 85.5 13.5
    endloop
  endfacet
  facet normal -1 0 0
    outer loop
      vertex 0 0 13.5
      vertex 0 29.925 5
      vertex 0 12.825 5
    endloop
  endfacet
  facet normal -1 0 0
    outer loop
      vertex 0 29.925 5
      vertex 0 0 13.5
      vertex 0 85.5 13.5
    endloop
  endfacet
  facet normal -1 0 0
    outer loop
      vertex 0 0 13.5
      vertex 0 12.825 5
      vertex 0 0 0
    endloop
  endfacet
  facet normal -0 0 1
    outer loop
      vertex 33.555 40.8001 13.5
      vertex 40.05 27.5 13.5
      vertex 35.247 41.1863 13.5
    endloop
  endfacet
  facet normal 0 0 1
    outer loop
      vertex 40.05 27.5 13.5
      vertex 35.247 23.5637 13.5
      vertex 36 22 13.5
    endloop
  endfacet
  facet normal 0 0 1
    outer loop
      vertex 33.555 23.9499 13.5
      vertex 40.05 27.5 13.5
      vertex 33.555 40.8001 13.5
    endloop
  endfacet
  facet normal 0 0 1
    outer loop
      vertex 40.05 27.5 13.5
      vertex 33.555 23.9499 13.5
      vertex 35.247 23.5637 13.5
    endloop
  endfacet
  facet normal 0 0 1
    outer loop
      vertex 32.1981 41.8822 13.5
      vertex 33.555 23.9499 13.5
      vertex 33.555 40.8001 13.5
    endloop
  endfacet
  facet normal 0 0 1
    outer loop
      vertex 33.555 23.9499 13.5
      vertex 32.1981 41.8822 13.5
      vertex 32.1981 22.8678 13.5
    endloop
  endfacet
  facet normal -0 0 1
    outer loop
      vertex 33.555 61.5501 13.5
      vertex 40.05 58 13.5
      vertex 35.247 61.9363 13.5
    endloop
  endfacet
  facet normal 0 0 1
    outer loop
      vertex 40.05 58 13.5
      vertex 35.247 44.3137 13.5
      vertex 36 42.75 13.5
    endloop
  endfacet
  facet normal 0 0 1
    outer loop
      vertex 33.555 44.6999 13.5
      vertex 40.05 58 13.5
      vertex 33.555 61.5501 13.5
    endloop
  endfacet
  facet normal 0 0 1
    outer loop
      vertex 40.05 58 13.5
      vertex 33.555 44.6999 13.5
      vertex 35.247 44.3137 13.5
    endloop
  endfacet
  facet normal 0 0 1
    outer loop
      vertex 32.1981 62.6322 13.5
      vertex 33.555 44.6999 13.5
      vertex 33.555 61.5501 13.5
    endloop
  endfacet
  facet normal 0 0 1
    outer loop
      vertex 33.555 44.6999 13.5
      vertex 32.1981 62.6322 13.5
      vertex 32.1981 43.6178 13.5
    endloop
  endfacet
  facet normal 0 0 1
    outer loop
      vertex 87.45 27.5 13.5
      vertex 64.997 23.5637 13.5
      vertex 65.75 22 13.5
    endloop
  endfacet
  facet normal 0 0 1
    outer loop
      vertex 87.45 27.5 13.5
      vertex 63.305 23.9499 13.5
      vertex 64.997 23.5637 13.5
    endloop
  endfacet
  facet normal 0 0 1
    outer loop
      vertex 61.9481 22.8678 13.5
      vertex 40.05 27.5 13.5
      vertex 61.9481 21.1322 13.5
    endloop
  endfacet
  facet normal 0 0 1
    outer loop
      vertex 63.305 23.9499 13.5
      vertex 40.05 27.5 13.5
      vertex 61.9481 22.8678 13.5
    endloop
  endfacet
  facet normal -0 0 1
    outer loop
      vertex 40.05 27.5 13.5
      vertex 63.305 23.9499 13.5
      vertex 87.45 27.5 13.5
    endloop
  endfacet
  facet normal -0 0 1
    outer loop
      vertex 94.747 41.1863 13.5
      vertex 95.5 22 13.5
      vertex 95.5 42.75 13.5
    endloop
  endfacet
  facet normal 0 0 1
    outer loop
      vertex 94.747 41.1863 13.5
      vertex 94.747 23.5637 13.5
      vertex 95.5 22 13.5
    endloop
  endfacet
  facet normal -0 0 1
    outer loop
      vertex 93.055 40.8001 13.5
      vertex 94.747 23.5637 13.5
      vertex 94.747 41.1863 13.5
    endloop
  endfacet
  facet normal 0 0 1
    outer loop
      vertex 93.055 40.8001 13.5
      vertex 93.055 23.9499 13.5
      vertex 94.747 23.5637 13.5
    endloop
  endfacet
  facet normal 0 0 1
    outer loop
      vertex 87.45 27.5 13.5
      vertex 93.055 40.8001 13.5
      vertex 91.6981 41.8822 13.5
    endloop
  endfacet
  facet normal 0 0 1
    outer loop
      vertex 93.055 40.8001 13.5
      vertex 87.45 27.5 13.5
      vertex 93.055 23.9499 13.5
    endloop
  endfacet
  facet normal -0 0 1
    outer loop
      vertex 94.747 61.9363 13.5
      vertex 95.5 42.75 13.5
      vertex 95.5 63.5 13.5
    endloop
  endfacet
  facet normal 0 0 1
    outer loop
      vertex 94.747 61.9363 13.5
      vertex 94.747 44.3137 13.5
      vertex 95.5 42.75 13.5
    endloop
  endfacet
  facet normal -0 0 1
    outer loop
      vertex 93.055 61.5501 13.5
      vertex 94.747 44.3137 13.5
      vertex 94.747 61.9363 13.5
    endloop
  endfacet
  facet normal 0 0 1
    outer loop
      vertex 93.055 61.5501 13.5
      vertex 93.055 44.6999 13.5
      vertex 94.747 44.3137 13.5
    endloop
  endfacet
  facet normal 0 0 1
    outer loop
      vertex 87.45 58 13.5
      vertex 93.055 61.5501 13.5
      vertex 91.6981 62.6322 13.5
    endloop
  endfacet
  facet normal 0 0 1
    outer loop
      vertex 93.055 61.5501 13.5
      vertex 87.45 58 13.5
      vertex 93.055 44.6999 13.5
    endloop
  endfacet
  facet normal 0 0 1
    outer loop
      vertex 95.5 42.75 13.5
      vertex 127.5 85.5 13.5
      vertex 95.5 63.5 13.5
    endloop
  endfacet
  facet normal 0 0 1
    outer loop
      vertex 127.5 85.5 13.5
      vertex 94.747 65.0637 13.5
      vertex 95.5 63.5 13.5
    endloop
  endfacet
  facet normal 0 0 1
    outer loop
      vertex 127.5 85.5 13.5
      vertex 93.055 65.4499 13.5
      vertex 94.747 65.0637 13.5
    endloop
  endfacet
  facet normal 0 0 1
    outer loop
      vertex 87.45 58 13.5
      vertex 91.6981 62.6322 13.5
      vertex 91.6981 64.3678 13.5
    endloop
  endfacet
  facet normal 0 0 1
    outer loop
      vertex 93.055 44.6999 13.5
      vertex 87.45 58 13.5
      vertex 91.6981 43.6178 13.5
    endloop
  endfacet
  facet normal 0 0 1
    outer loop
      vertex 91.6981 43.6178 13.5
      vertex 87.45 58 13.5
      vertex 91.6981 41.8822 13.5
    endloop
  endfacet
  facet normal 0 0 1
    outer loop
      vertex 87.45 27.5 13.5
      vertex 91.6981 41.8822 13.5
      vertex 87.45 58 13.5
    endloop
  endfacet
  facet normal 0 0 1
    outer loop
      vertex 93.055 23.9499 13.5
      vertex 87.45 27.5 13.5
      vertex 91.6981 22.8678 13.5
    endloop
  endfacet
  facet normal 0 0 1
    outer loop
      vertex 91.6981 64.3678 13.5
      vertex 65.75 63.5 13.5
      vertex 87.45 58 13.5
    endloop
  endfacet
  facet normal -0 0 1
    outer loop
      vertex 64.997 65.0637 13.5
      vertex 91.6981 64.3678 13.5
      vertex 93.055 65.4499 13.5
    endloop
  endfacet
  facet normal 0 0 1
    outer loop
      vertex 63.305 65.4499 13.5
      vertex 93.055 65.4499 13.5
      vertex 127.5 85.5 13.5
    endloop
  endfacet
  facet normal 0 0 1
    outer loop
      vertex 91.6981 64.3678 13.5
      vertex 64.997 65.0637 13.5
      vertex 65.75 63.5 13.5
    endloop
  endfacet
  facet normal 0 0 1
    outer loop
      vertex 93.055 65.4499 13.5
      vertex 63.305 65.4499 13.5
      vertex 64.997 65.0637 13.5
    endloop
  endfacet
  facet normal 0 0 1
    outer loop
      vertex 61.9481 64.3678 13.5
      vertex 40.05 58 13.5
      vertex 61.9481 62.6322 13.5
    endloop
  endfacet
  facet normal -0 0 1
    outer loop
      vertex 35.247 65.0637 13.5
      vertex 61.9481 64.3678 13.5
      vertex 63.305 65.4499 13.5
    endloop
  endfacet
  facet normal -0 0 1
    outer loop
      vertex 35.247 61.9363 13.5
      vertex 40.05 58 13.5
      vertex 36 63.5 13.5
    endloop
  endfacet
  facet normal 0 0 1
    outer loop
      vertex 61.9481 64.3678 13.5
      vertex 36 63.5 13.5
      vertex 40.05 58 13.5
    endloop
  endfacet
  facet normal -0 0 1
    outer loop
      vertex 0 85.5 13.5
      vertex 63.305 65.4499 13.5
      vertex 127.5 85.5 13.5
    endloop
  endfacet
  facet normal 0 0 1
    outer loop
      vertex 61.9481 64.3678 13.5
      vertex 35.247 65.0637 13.5
      vertex 36 63.5 13.5
    endloop
  endfacet
  facet normal 0 0 1
    outer loop
      vertex 63.305 65.4499 13.5
      vertex 0 85.5 13.5
      vertex 35.247 65.0637 13.5
    endloop
  endfacet
  facet normal 0 0 1
    outer loop
      vertex 0 85.5 13.5
      vertex 32.1981 62.6322 13.5
      vertex 32.1981 64.3678 13.5
    endloop
  endfacet
  facet normal 0 0 1
    outer loop
      vertex 32.1981 62.6322 13.5
      vertex 0 85.5 13.5
      vertex 32.1981 43.6178 13.5
    endloop
  endfacet
  facet normal 0 0 1
    outer loop
      vertex 32.1981 43.6178 13.5
      vertex 0 85.5 13.5
      vertex 32.1981 41.8822 13.5
    endloop
  endfacet
  facet normal 0 0 1
    outer loop
      vertex 0 0 13.5
      vertex 32.1981 41.8822 13.5
      vertex 0 85.5 13.5
    endloop
  endfacet
  facet normal 0 0 1
    outer loop
      vertex 32.1981 41.8822 13.5
      vertex 0 0 13.5
      vertex 32.1981 22.8678 13.5
    endloop
  endfacet
  facet normal 0 0 1
    outer loop
      vertex 33.555 65.4499 13.5
      vertex 0 85.5 13.5
      vertex 32.1981 64.3678 13.5
    endloop
  endfacet
  facet normal 0 0 1
    outer loop
      vertex 35.247 65.0637 13.5
      vertex 0 85.5 13.5
      vertex 33.555 65.4499 13.5
    endloop
  endfacet
  facet normal 0 0 1
    outer loop
      vertex 127.5 85.5 13.5
      vertex 95.5 42.75 13.5
      vertex 127.5 0 13.5
    endloop
  endfacet
  facet normal -0 0 1
    outer loop
      vertex 95.5 22 13.5
      vertex 127.5 0 13.5
      vertex 95.5 42.75 13.5
    endloop
  endfacet
  facet normal -0 0 1
    outer loop
      vertex 94.747 20.4363 13.5
      vertex 127.5 0 13.5
      vertex 95.5 22 13.5
    endloop
  endfacet
  facet normal -0 0 1
    outer loop
      vertex 93.055 20.0501 13.5
      vertex 127.5 0 13.5
      vertex 94.747 20.4363 13.5
    endloop
  endfacet
  facet normal 0 0 1
    outer loop
      vertex 91.6981 22.8678 13.5
      vertex 87.45 27.5 13.5
      vertex 91.6981 21.1322 13.5
    endloop
  endfacet
  facet normal -0 0 1
    outer loop
      vertex 65.75 22 13.5
      vertex 91.6981 21.1322 13.5
      vertex 87.45 27.5 13.5
    endloop
  endfacet
  facet normal 0 0 1
    outer loop
      vertex 64.997 20.4363 13.5
      vertex 91.6981 21.1322 13.5
      vertex 65.75 22 13.5
    endloop
  endfacet
  facet normal 0 0 1
    outer loop
      vertex 91.6981 21.1322 13.5
      vertex 64.997 20.4363 13.5
      vertex 93.055 20.0501 13.5
    endloop
  endfacet
  facet normal 0 0 1
    outer loop
      vertex 63.305 20.0501 13.5
      vertex 93.055 20.0501 13.5
      vertex 64.997 20.4363 13.5
    endloop
  endfacet
  facet normal 0 0 1
    outer loop
      vertex 93.055 20.0501 13.5
      vertex 63.305 20.0501 13.5
      vertex 127.5 0 13.5
    endloop
  endfacet
  facet normal -0 0 1
    outer loop
      vertex 36 22 13.5
      vertex 61.9481 21.1322 13.5
      vertex 40.05 27.5 13.5
    endloop
  endfacet
  facet normal 0 0 1
    outer loop
      vertex 40.05 58 13.5
      vertex 36 42.75 13.5
      vertex 40.05 27.5 13.5
    endloop
  endfacet
  facet normal -0 0 1
    outer loop
      vertex 35.247 41.1863 13.5
      vertex 40.05 27.5 13.5
      vertex 36 42.75 13.5
    endloop
  endfacet
  facet normal 0 0 1
    outer loop
      vertex 35.247 20.4363 13.5
      vertex 61.9481 21.1322 13.5
      vertex 36 22 13.5
    endloop
  endfacet
  facet normal 0 0 1
    outer loop
      vertex 61.9481 21.1322 13.5
      vertex 35.247 20.4363 13.5
      vertex 63.305 20.0501 13.5
    endloop
  endfacet
  facet normal 0 0 1
    outer loop
      vertex 0 0 13.5
      vertex 63.305 20.0501 13.5
      vertex 35.247 20.4363 13.5
    endloop
  endfacet
  facet normal 0 0 1
    outer loop
      vertex 0 0 13.5
      vertex 35.247 20.4363 13.5
      vertex 33.555 20.0501 13.5
    endloop
  endfacet
  facet normal 0 0 1
    outer loop
      vertex 63.305 20.0501 13.5
      vertex 0 0 13.5
      vertex 127.5 0 13.5
    endloop
  endfacet
  facet normal 0 0 1
    outer loop
      vertex 32.1981 21.1322 13.5
      vertex 0 0 13.5
      vertex 33.555 20.0501 13.5
    endloop
  endfacet
  facet normal 0 0 1
    outer loop
      vertex 32.1981 22.8678 13.5
      vertex 0 0 13.5
      vertex 32.1981 21.1322 13.5
    endloop
  endfacet
  facet normal -0 0 1
    outer loop
      vertex 64.997 61.9363 13.5
      vertex 87.45 58 13.5
      vertex 65.75 63.5 13.5
    endloop
  endfacet
  facet normal -0 0 1
    outer loop
      vertex 63.305 61.5501 13.5
      vertex 87.45 58 13.5
      vertex 64.997 61.9363 13.5
    endloop
  endfacet
  facet normal 0 0 1
    outer loop
      vertex 63.305 61.5501 13.5
      vertex 40.05 58 13.5
      vertex 87.45 58 13.5
    endloop
  endfacet
  facet normal 0 0 1
    outer loop
      vertex 40.05 58 13.5
      vertex 63.305 61.5501 13.5
      vertex 61.9481 62.6322 13.5
    endloop
  endfacet
  facet normal 1 0 0
    outer loop
      vertex 127.5 85.5 13.5
      vertex 127.5 72.675 5
      vertex 127.5 85.5 0
    endloop
  endfacet
  facet normal 1 0 0
    outer loop
      vertex 127.5 85.5 13.5
      vertex 127.5 55.575 5
      vertex 127.5 72.675 5
    endloop
  endfacet
  facet normal 1 0 0
    outer loop
      vertex 127.5 55.575 5
      vertex 127.5 29.925 5
      vertex 127.5 55.575 0
    endloop
  endfacet
  facet normal 1 0 0
    outer loop
      vertex 127.5 85.5 13.5
      vertex 127.5 29.925 5
      vertex 127.5 55.575 5
    endloop
  endfacet
  facet normal 1 -0 0
    outer loop
      vertex 127.5 0 13.5
      vertex 127.5 29.925 5
      vertex 127.5 85.5 13.5
    endloop
  endfacet
  facet normal 1 0 0
    outer loop
      vertex 127.5 29.925 5
      vertex 127.5 0 13.5
      vertex 127.5 12.825 5
    endloop
  endfacet
  facet normal 1 0 0
    outer loop
      vertex 127.5 0 0
      vertex 127.5 12.825 5
      vertex 127.5 0 13.5
    endloop
  endfacet
  facet normal 1 0 0
    outer loop
      vertex 127.5 12.825 5
      vertex 127.5 0 0
      vertex 127.5 12.825 0
    endloop
  endfacet
  facet normal 1 0 0
    outer loop
      vertex 127.5 85.5 0
      vertex 127.5 72.675 5
      vertex 127.5 72.675 0
    endloop
  endfacet
  facet normal 1 0 0
    outer loop
      vertex 127.5 55.575 0
      vertex 127.5 29.925 5
      vertex 127.5 29.925 0
    endloop
  endfacet
  facet normal 0 1 -0
    outer loop
      vertex 82.875 85.5 0
      vertex 44.625 85.5 5
      vertex 82.875 85.5 5
    endloop
  endfacet
  facet normal 0 1 0
    outer loop
      vertex 44.625 85.5 5
      vertex 82.875 85.5 0
      vertex 44.625 85.5 0
    endloop
  endfacet
  facet normal 0 1 0
    outer loop
      vertex 82.875 85.5 5
      vertex 127.5 85.5 13.5
      vertex 108.375 85.5 5
    endloop
  endfacet
  facet normal 0 1 -0
    outer loop
      vertex 127.5 85.5 0
      vertex 108.375 85.5 5
      vertex 127.5 85.5 13.5
    endloop
  endfacet
  facet normal 0 1 0
    outer loop
      vertex 108.375 85.5 5
      vertex 127.5 85.5 0
      vertex 108.375 85.5 0
    endloop
  endfacet
  facet normal 0 1 0
    outer loop
      vertex 127.5 85.5 13.5
      vertex 82.875 85.5 5
      vertex 0 85.5 13.5
    endloop
  endfacet
  facet normal 0 1 -0
    outer loop
      vertex 44.625 85.5 5
      vertex 0 85.5 13.5
      vertex 82.875 85.5 5
    endloop
  endfacet
  facet normal 0 1 -0
    outer loop
      vertex 19.125 85.5 5
      vertex 0 85.5 13.5
      vertex 44.625 85.5 5
    endloop
  endfacet
  facet normal 0 1 0
    outer loop
      vertex 0 85.5 0
      vertex 19.125 85.5 5
      vertex 19.125 85.5 0
    endloop
  endfacet
  facet normal 0 1 0
    outer loop
      vertex 19.125 85.5 5
      vertex 0 85.5 0
      vertex 0 85.5 13.5
    endloop
  endfacet
  facet normal 0 0 -1
    outer loop
      vertex 0 72.675 0
      vertex 19.125 85.5 0
      vertex 19.125 72.675 0
    endloop
  endfacet
  facet normal -0 0 -1
    outer loop
      vertex 19.125 85.5 0
      vertex 0 72.675 0
      vertex 0 85.5 0
    endloop
  endfacet
  facet normal 0 0 -1
    outer loop
      vertex 0 0 0
      vertex 19.125 12.825 0
      vertex 19.125 0 0
    endloop
  endfacet
  facet normal -0 0 -1
    outer loop
      vertex 19.125 12.825 0
      vertex 0 0 0
      vertex 0 12.825 0
    endloop
  endfacet
  facet normal 0 0 -1
    outer loop
      vertex 108.375 0 0
      vertex 127.5 12.825 0
      vertex 127.5 0 0
    endloop
  endfacet
  facet normal -0 0 -1
    outer loop
      vertex 127.5 12.825 0
      vertex 108.375 0 0
      vertex 108.375 12.825 0
    endloop
  endfacet
  facet normal 0 0 -1
    outer loop
      vertex 108.375 72.675 0
      vertex 127.5 85.5 0
      vertex 127.5 72.675 0
    endloop
  endfacet
  facet normal -0 0 -1
    outer loop
      vertex 127.5 85.5 0
      vertex 108.375 72.675 0
      vertex 108.375 85.5 0
    endloop
  endfacet
  facet normal 0 0 -1
    outer loop
      vertex 44.625 72.675 0
      vertex 82.875 85.5 0
      vertex 82.875 72.675 0
    endloop
  endfacet
  facet normal -0 0 -1
    outer loop
      vertex 82.875 85.5 0
      vertex 44.625 72.675 0
      vertex 44.625 85.5 0
    endloop
  endfacet
  facet normal 0 0 -1
    outer loop
      vertex 44.625 0 0
      vertex 82.875 12.825 0
      vertex 82.875 0 0
    endloop
  endfacet
  facet normal -0 0 -1
    outer loop
      vertex 82.875 12.825 0
      vertex 44.625 0 0
      vertex 44.625 12.825 0
    endloop
  endfacet
  facet normal 0 0 -1
    outer loop
      vertex 0 29.925 0
      vertex 19.125 55.575 0
      vertex 19.125 29.925 0
    endloop
  endfacet
  facet normal -0 0 -1
    outer loop
      vertex 19.125 55.575 0
      vertex 0 29.925 0
      vertex 0 55.575 0
    endloop
  endfacet
  facet normal 0 0 -1
    outer loop
      vertex 82.875 29.925 0
      vertex 82.45 32.5 0
      vertex 82.875 55.575 0
    endloop
  endfacet
  facet normal 0 0 -1
    outer loop
      vertex 82.875 29.925 0
      vertex 45.05 32.5 0
      vertex 82.45 32.5 0
    endloop
  endfacet
  facet normal -0 0 -1
    outer loop
      vertex 45.05 32.5 0
      vertex 44.625 29.925 0
      vertex 45.05 53 0
    endloop
  endfacet
  facet normal 0 0 -1
    outer loop
      vertex 44.625 29.925 0
      vertex 45.05 32.5 0
      vertex 82.875 29.925 0
    endloop
  endfacet
  facet normal 0 0 -1
    outer loop
      vertex 82.45 53 0
      vertex 82.875 55.575 0
      vertex 82.45 32.5 0
    endloop
  endfacet
  facet normal 0 0 -1
    outer loop
      vertex 45.05 53 0
      vertex 82.875 55.575 0
      vertex 82.45 53 0
    endloop
  endfacet
  facet normal 0 0 -1
    outer loop
      vertex 45.05 53 0
      vertex 44.625 55.575 0
      vertex 82.875 55.575 0
    endloop
  endfacet
  facet normal 0 0 -1
    outer loop
      vertex 44.625 55.575 0
      vertex 45.05 53 0
      vertex 44.625 29.925 0
    endloop
  endfacet
  facet normal 0 0 -1
    outer loop
      vertex 108.375 29.925 0
      vertex 127.5 55.575 0
      vertex 127.5 29.925 0
    endloop
  endfacet
  facet normal -0 0 -1
    outer loop
      vertex 127.5 55.575 0
      vertex 108.375 29.925 0
      vertex 108.375 55.575 0
    endloop
  endfacet
  facet normal 0 -1 0
    outer loop
      vertex 44.625 0 0
      vertex 82.875 0 5
      vertex 44.625 0 5
    endloop
  endfacet
  facet normal 0 -1 -0
    outer loop
      vertex 82.875 0 5
      vertex 44.625 0 0
      vertex 82.875 0 0
    endloop
  endfacet
  facet normal 0 -1 0
    outer loop
      vertex 44.625 0 5
      vertex 0 0 13.5
      vertex 19.125 0 5
    endloop
  endfacet
  facet normal 0 -1 0
    outer loop
      vertex 0 0 0
      vertex 19.125 0 5
      vertex 0 0 13.5
    endloop
  endfacet
  facet normal 0 -1 -0
    outer loop
      vertex 19.125 0 5
      vertex 0 0 0
      vertex 19.125 0 0
    endloop
  endfacet
  facet normal 0 -1 0
    outer loop
      vertex 0 0 13.5
      vertex 44.625 0 5
      vertex 127.5 0 13.5
    endloop
  endfacet
  facet normal 0 -1 0
    outer loop
      vertex 82.875 0 5
      vertex 127.5 0 13.5
      vertex 44.625 0 5
    endloop
  endfacet
  facet normal 0 -1 0
    outer loop
      vertex 108.375 0 5
      vertex 127.5 0 13.5
      vertex 82.875 0 5
    endloop
  endfacet
  facet normal 0 -1 0
    outer loop
      vertex 127.5 0 0
      vertex 108.375 0 5
      vertex 108.375 0 0
    endloop
  endfacet
  facet normal 0 -1 0
    outer loop
      vertex 108.375 0 5
      vertex 127.5 0 0
      vertex 127.5 0 13.5
    endloop
  endfacet
  facet normal 1 -0 0
    outer loop
      vertex 40.05 27.5 13.5
      vertex 40.05 58 8
      vertex 40.05 58 13.5
    endloop
  endfacet
  facet normal 1 0 0
    outer loop
      vertex 40.05 58 8
      vertex 40.05 27.5 13.5
      vertex 40.05 27.5 8
    endloop
  endfacet
  facet normal -1 0 0
    outer loop
      vertex 87.45 27.5 8
      vertex 87.45 58 13.5
      vertex 87.45 58 8
    endloop
  endfacet
  facet normal -1 -0 0
    outer loop
      vertex 87.45 58 13.5
      vertex 87.45 27.5 8
      vertex 87.45 27.5 13.5
    endloop
  endfacet
  facet normal 0 0 1
    outer loop
      vertex 87.45 58 8
      vertex 82.45 53 8
      vertex 87.45 27.5 8
    endloop
  endfacet
  facet normal 0 0 1
    outer loop
      vertex 87.45 58 8
      vertex 45.05 53 8
      vertex 82.45 53 8
    endloop
  endfacet
  facet normal 0 0 1
    outer loop
      vertex 45.05 53 8
      vertex 40.05 58 8
      vertex 45.05 32.5 8
    endloop
  endfacet
  facet normal -0 0 1
    outer loop
      vertex 40.05 58 8
      vertex 45.05 53 8
      vertex 87.45 58 8
    endloop
  endfacet
  facet normal -0 0 1
    outer loop
      vertex 82.45 32.5 8
      vertex 87.45 27.5 8
      vertex 82.45 53 8
    endloop
  endfacet
  facet normal -0 0 1
    outer loop
      vertex 45.05 32.5 8
      vertex 87.45 27.5 8
      vertex 82.45 32.5 8
    endloop
  endfacet
  facet normal 0 0 1
    outer loop
      vertex 45.05 32.5 8
      vertex 40.05 27.5 8
      vertex 87.45 27.5 8
    endloop
  endfacet
  facet normal 0 0 1
    outer loop
      vertex 40.05 27.5 8
      vertex 45.05 32.5 8
      vertex 40.05 58 8
    endloop
  endfacet
  facet normal 0 1 -0
    outer loop
      vertex 87.45 27.5 8
      vertex 40.05 27.5 13.5
      vertex 87.45 27.5 13.5
    endloop
  endfacet
  facet normal 0 1 0
    outer loop
      vertex 40.05 27.5 13.5
      vertex 87.45 27.5 8
      vertex 40.05 27.5 8
    endloop
  endfacet
  facet normal 0 -1 0
    outer loop
      vertex 40.05 58 8
      vertex 87.45 58 13.5
      vertex 40.05 58 13.5
    endloop
  endfacet
  facet normal 0 -1 -0
    outer loop
      vertex 87.45 58 13.5
      vertex 40.05 58 8
      vertex 87.45 58 8
    endloop
  endfacet
  facet normal 1 -0 0
    outer loop
      vertex 45.05 32.5 8
      vertex 45.05 53 0
      vertex 45.05 53 8
    endloop
  endfacet
  facet normal 1 0 0
    outer loop
      vertex 45.05 53 0
      vertex 45.05 32.5 8
      vertex 45.05 32.5 0
    endloop
  endfacet
  facet normal -1 0 0
    outer loop
      vertex 82.45 32.5 0
      vertex 82.45 53 8
      vertex 82.45 53 0
    endloop
  endfacet
  facet normal -1 -0 0
    outer loop
      vertex 82.45 53 8
      vertex 82.45 32.5 0
      vertex 82.45 32.5 8
    endloop
  endfacet
  facet normal 0 1 -0
    outer loop
      vertex 82.45 32.5 0
      vertex 45.05 32.5 8
      vertex 82.45 32.5 8
    endloop
  endfacet
  facet normal 0 1 0
    outer loop
      vertex 45.05 32.5 8
      vertex 82.45 32.5 0
      vertex 45.05 32.5 0
    endloop
  endfacet
  facet normal 0 -1 0
    outer loop
      vertex 45.05 53 0
      vertex 82.45 53 8
      vertex 45.05 53 8
    endloop
  endfacet
  facet normal 0 -1 -0
    outer loop
      vertex 82.45 53 8
      vertex 45.05 53 0
      vertex 82.45 53 0
    endloop
  endfacet
  facet normal 1 -0 0
    outer loop
      vertex 19.125 72.675 5
      vertex 19.125 85.5 0
      vertex 19.125 85.5 5
    endloop
  endfacet
  facet normal 1 0 0
    outer loop
      vertex 19.125 85.5 0
      vertex 19.125 72.675 5
      vertex 19.125 72.675 0
    endloop
  endfacet
  facet normal 1 -0 0
    outer loop
      vertex 19.125 0 5
      vertex 19.125 12.825 0
      vertex 19.125 12.825 5
    endloop
  endfacet
  facet normal 1 0 0
    outer loop
      vertex 19.125 12.825 0
      vertex 19.125 0 5
      vertex 19.125 0 0
    endloop
  endfacet
  facet normal 1 -0 0
    outer loop
      vertex 19.125 29.925 5
      vertex 19.125 55.575 0
      vertex 19.125 55.575 5
    endloop
  endfacet
  facet normal 1 0 0
    outer loop
      vertex 19.125 55.575 0
      vertex 19.125 29.925 5
      vertex 19.125 29.925 0
    endloop
  endfacet
  facet normal 0 0 -1
    outer loop
      vertex 0 55.575 5
      vertex 19.125 72.675 5
      vertex 19.125 55.575 5
    endloop
  endfacet
  facet normal -0 0 -1
    outer loop
      vertex 19.125 72.675 5
      vertex 0 55.575 5
      vertex 0 72.675 5
    endloop
  endfacet
  facet normal 0 0 -1
    outer loop
      vertex 0 12.825 5
      vertex 19.125 29.925 5
      vertex 19.125 12.825 5
    endloop
  endfacet
  facet normal -0 0 -1
    outer loop
      vertex 19.125 29.925 5
      vertex 0 12.825 5
      vertex 0 29.925 5
    endloop
  endfacet
  facet normal 0 0 -1
    outer loop
      vertex 33.555 44.6999 5
      vertex 44.625 55.575 5
      vertex 35.247 44.3137 5
    endloop
  endfacet
  facet normal 0 0 -1
    outer loop
      vertex 44.625 55.575 5
      vertex 35.247 61.9363 5
      vertex 36 63.5 5
    endloop
  endfacet
  facet normal 0 0 -1
    outer loop
      vertex 33.555 61.5501 5
      vertex 44.625 55.575 5
      vertex 33.555 44.6999 5
    endloop
  endfacet
  facet normal 0 0 -1
    outer loop
      vertex 44.625 55.575 5
      vertex 33.555 61.5501 5
      vertex 35.247 61.9363 5
    endloop
  endfacet
  facet normal 0 0 -1
    outer loop
      vertex 19.125 55.575 5
      vertex 33.555 44.6999 5
      vertex 32.1981 43.6178 5
    endloop
  endfacet
  facet normal 0 0 -1
    outer loop
      vertex 33.555 44.6999 5
      vertex 19.125 55.575 5
      vertex 33.555 61.5501 5
    endloop
  endfacet
  facet normal 0 0 -1
    outer loop
      vertex 33.555 23.9499 5
      vertex 44.625 29.925 5
      vertex 35.247 23.5637 5
    endloop
  endfacet
  facet normal 0 0 -1
    outer loop
      vertex 44.625 29.925 5
      vertex 35.247 41.1863 5
      vertex 36 42.75 5
    endloop
  endfacet
  facet normal 0 0 -1
    outer loop
      vertex 33.555 40.8001 5
      vertex 44.625 29.925 5
      vertex 33.555 23.9499 5
    endloop
  endfacet
  facet normal 0 0 -1
    outer loop
      vertex 44.625 29.925 5
      vertex 33.555 40.8001 5
      vertex 35.247 41.1863 5
    endloop
  endfacet
  facet normal 0 0 -1
    outer loop
      vertex 19.125 29.925 5
      vertex 33.555 23.9499 5
      vertex 32.1981 22.8678 5
    endloop
  endfacet
  facet normal 0 0 -1
    outer loop
      vertex 33.555 23.9499 5
      vertex 19.125 29.925 5
      vertex 33.555 40.8001 5
    endloop
  endfacet
  facet normal 0 0 -1
    outer loop
      vertex 33.555 20.0501 5
      vertex 44.625 12.825 5
      vertex 44.625 0 5
    endloop
  endfacet
  facet normal 0 0 -1
    outer loop
      vertex 44.625 12.825 5
      vertex 36 22 5
      vertex 44.625 29.925 5
    endloop
  endfacet
  facet normal 0 0 -1
    outer loop
      vertex 35.247 23.5637 5
      vertex 44.625 29.925 5
      vertex 36 22 5
    endloop
  endfacet
  facet normal 0 0 -1
    outer loop
      vertex 35.247 44.3137 5
      vertex 44.625 55.575 5
      vertex 36 42.75 5
    endloop
  endfacet
  facet normal 0 0 -1
    outer loop
      vertex 44.625 29.925 5
      vertex 36 42.75 5
      vertex 44.625 55.575 5
    endloop
  endfacet
  facet normal 0 0 -1
    outer loop
      vertex 44.625 12.825 5
      vertex 35.247 20.4363 5
      vertex 36 22 5
    endloop
  endfacet
  facet normal 0 0 -1
    outer loop
      vertex 44.625 12.825 5
      vertex 33.555 20.0501 5
      vertex 35.247 20.4363 5
    endloop
  endfacet
  facet normal 0 0 -1
    outer loop
      vertex 19.125 0 5
      vertex 33.555 20.0501 5
      vertex 44.625 0 5
    endloop
  endfacet
  facet normal 0 0 -1
    outer loop
      vertex 19.125 29.925 5
      vertex 32.1981 22.8678 5
      vertex 32.1981 21.1322 5
    endloop
  endfacet
  facet normal -0 0 -1
    outer loop
      vertex 33.555 40.8001 5
      vertex 19.125 29.925 5
      vertex 32.1981 41.8822 5
    endloop
  endfacet
  facet normal -0 0 -1
    outer loop
      vertex 32.1981 41.8822 5
      vertex 19.125 29.925 5
      vertex 32.1981 43.6178 5
    endloop
  endfacet
  facet normal 0 0 -1
    outer loop
      vertex 19.125 55.575 5
      vertex 32.1981 43.6178 5
      vertex 19.125 29.925 5
    endloop
  endfacet
  facet normal -0 0 -1
    outer loop
      vertex 33.555 20.0501 5
      vertex 19.125 12.825 5
      vertex 32.1981 21.1322 5
    endloop
  endfacet
  facet normal 0 0 -1
    outer loop
      vertex 33.555 20.0501 5
      vertex 19.125 0 5
      vertex 19.125 12.825 5
    endloop
  endfacet
  facet normal 0 0 -1
    outer loop
      vertex 44.625 55.575 5
      vertex 36 63.5 5
      vertex 44.625 72.675 5
    endloop
  endfacet
  facet normal 0 0 -1
    outer loop
      vertex 35.247 65.0637 5
      vertex 44.625 72.675 5
      vertex 36 63.5 5
    endloop
  endfacet
  facet normal 0 0 -1
    outer loop
      vertex 33.555 65.4499 5
      vertex 44.625 72.675 5
      vertex 35.247 65.0637 5
    endloop
  endfacet
  facet normal -0 0 -1
    outer loop
      vertex 44.625 72.675 5
      vertex 33.555 65.4499 5
      vertex 44.625 85.5 5
    endloop
  endfacet
  facet normal 0 0 -1
    outer loop
      vertex 19.125 72.675 5
      vertex 33.555 65.4499 5
      vertex 32.1981 64.3678 5
    endloop
  endfacet
  facet normal 0 0 -1
    outer loop
      vertex 19.125 29.925 5
      vertex 32.1981 21.1322 5
      vertex 19.125 12.825 5
    endloop
  endfacet
  facet normal -0 0 -1
    outer loop
      vertex 33.555 61.5501 5
      vertex 19.125 55.575 5
      vertex 32.1981 62.6322 5
    endloop
  endfacet
  facet normal -0 0 -1
    outer loop
      vertex 32.1981 62.6322 5
      vertex 19.125 55.575 5
      vertex 32.1981 64.3678 5
    endloop
  endfacet
  facet normal 0 0 -1
    outer loop
      vertex 19.125 72.675 5
      vertex 32.1981 64.3678 5
      vertex 19.125 55.575 5
    endloop
  endfacet
  facet normal 0 0 -1
    outer loop
      vertex 19.125 85.5 5
      vertex 33.555 65.4499 5
      vertex 19.125 72.675 5
    endloop
  endfacet
  facet normal 0 0 -1
    outer loop
      vertex 33.555 65.4499 5
      vertex 19.125 85.5 5
      vertex 44.625 85.5 5
    endloop
  endfacet
  facet normal 0 0 -1
    outer loop
      vertex 82.875 55.575 5
      vertex 65.75 63.5 5
      vertex 82.875 72.675 5
    endloop
  endfacet
  facet normal 0 0 -1
    outer loop
      vertex 82.875 55.575 5
      vertex 64.997 61.9363 5
      vertex 65.75 63.5 5
    endloop
  endfacet
  facet normal 0 0 -1
    outer loop
      vertex 82.875 55.575 5
      vertex 63.305 61.5501 5
      vertex 64.997 61.9363 5
    endloop
  endfacet
  facet normal -0 0 -1
    outer loop
      vertex 61.9481 62.6322 5
      vertex 44.625 55.575 5
      vertex 61.9481 64.3678 5
    endloop
  endfacet
  facet normal -0 0 -1
    outer loop
      vertex 63.305 61.5501 5
      vertex 44.625 55.575 5
      vertex 61.9481 62.6322 5
    endloop
  endfacet
  facet normal 0 0 -1
    outer loop
      vertex 44.625 55.575 5
      vertex 63.305 61.5501 5
      vertex 82.875 55.575 5
    endloop
  endfacet
  facet normal 0 0 -1
    outer loop
      vertex 82.875 12.825 5
      vertex 65.75 22 5
      vertex 82.875 29.925 5
    endloop
  endfacet
  facet normal 0 0 -1
    outer loop
      vertex 82.875 12.825 5
      vertex 64.997 20.4363 5
      vertex 65.75 22 5
    endloop
  endfacet
  facet normal 0 0 -1
    outer loop
      vertex 82.875 12.825 5
      vertex 63.305 20.0501 5
      vertex 64.997 20.4363 5
    endloop
  endfacet
  facet normal 0 0 -1
    outer loop
      vertex 44.625 29.925 5
      vertex 61.9481 21.1322 5
      vertex 44.625 12.825 5
    endloop
  endfacet
  facet normal -0 0 -1
    outer loop
      vertex 63.305 20.0501 5
      vertex 44.625 12.825 5
      vertex 61.9481 21.1322 5
    endloop
  endfacet
  facet normal 0 0 -1
    outer loop
      vertex 44.625 12.825 5
      vertex 63.305 20.0501 5
      vertex 82.875 12.825 5
    endloop
  endfacet
  facet normal 0 0 -1
    outer loop
      vertex 64.997 23.5637 5
      vertex 82.875 29.925 5
      vertex 65.75 22 5
    endloop
  endfacet
  facet normal 0 0 -1
    outer loop
      vertex 63.305 23.9499 5
      vertex 82.875 29.925 5
      vertex 64.997 23.5637 5
    endloop
  endfacet
  facet normal 0 0 -1
    outer loop
      vertex 61.9481 21.1322 5
      vertex 44.625 29.925 5
      vertex 61.9481 22.8678 5
    endloop
  endfacet
  facet normal 0 0 -1
    outer loop
      vertex 63.305 23.9499 5
      vertex 44.625 29.925 5
      vertex 82.875 29.925 5
    endloop
  endfacet
  facet normal 0 0 -1
    outer loop
      vertex 61.9481 22.8678 5
      vertex 44.625 29.925 5
      vertex 63.305 23.9499 5
    endloop
  endfacet
  facet normal 0 0 -1
    outer loop
      vertex 64.997 65.0637 5
      vertex 82.875 72.675 5
      vertex 65.75 63.5 5
    endloop
  endfacet
  facet normal 0 0 -1
    outer loop
      vertex 63.305 65.4499 5
      vertex 82.875 72.675 5
      vertex 64.997 65.0637 5
    endloop
  endfacet
  facet normal 0 0 -1
    outer loop
      vertex 44.625 72.675 5
      vertex 61.9481 64.3678 5
      vertex 44.625 55.575 5
    endloop
  endfacet
  facet normal 0 0 -1
    outer loop
      vertex 63.305 65.4499 5
      vertex 44.625 72.675 5
      vertex 82.875 72.675 5
    endloop
  endfacet
  facet normal 0 0 -1
    outer loop
      vertex 61.9481 64.3678 5
      vertex 44.625 72.675 5
      vertex 63.305 65.4499 5
    endloop
  endfacet
  facet normal 0 0 -1
    outer loop
      vertex 94.747 61.9363 5
      vertex 108.375 55.575 5
      vertex 94.747 44.3137 5
    endloop
  endfacet
  facet normal 0 0 -1
    outer loop
      vertex 108.375 55.575 5
      vertex 94.747 61.9363 5
      vertex 95.5 63.5 5
    endloop
  endfacet
  facet normal 0 0 -1
    outer loop
      vertex 93.055 44.6999 5
      vertex 94.747 61.9363 5
      vertex 94.747 44.3137 5
    endloop
  endfacet
  facet normal 0 0 -1
    outer loop
      vertex 93.055 44.6999 5
      vertex 93.055 61.5501 5
      vertex 94.747 61.9363 5
    endloop
  endfacet
  facet normal 0 0 -1
    outer loop
      vertex 82.875 55.575 5
      vertex 93.055 44.6999 5
      vertex 91.6981 43.6178 5
    endloop
  endfacet
  facet normal 0 0 -1
    outer loop
      vertex 93.055 44.6999 5
      vertex 82.875 55.575 5
      vertex 93.055 61.5501 5
    endloop
  endfacet
  facet normal 0 0 -1
    outer loop
      vertex 94.747 41.1863 5
      vertex 108.375 29.925 5
      vertex 94.747 23.5637 5
    endloop
  endfacet
  facet normal 0 0 -1
    outer loop
      vertex 108.375 29.925 5
      vertex 94.747 41.1863 5
      vertex 95.5 42.75 5
    endloop
  endfacet
  facet normal 0 0 -1
    outer loop
      vertex 93.055 23.9499 5
      vertex 94.747 41.1863 5
      vertex 94.747 23.5637 5
    endloop
  endfacet
  facet normal 0 0 -1
    outer loop
      vertex 93.055 23.9499 5
      vertex 93.055 40.8001 5
      vertex 94.747 41.1863 5
    endloop
  endfacet
  facet normal 0 0 -1
    outer loop
      vertex 82.875 29.925 5
      vertex 93.055 23.9499 5
      vertex 91.6981 22.8678 5
    endloop
  endfacet
  facet normal 0 0 -1
    outer loop
      vertex 93.055 23.9499 5
      vertex 82.875 29.925 5
      vertex 93.055 40.8001 5
    endloop
  endfacet
  facet normal 0 0 -1
    outer loop
      vertex 93.055 20.0501 5
      vertex 108.375 12.825 5
      vertex 108.375 0 5
    endloop
  endfacet
  facet normal 0 0 -1
    outer loop
      vertex 108.375 12.825 5
      vertex 95.5 22 5
      vertex 108.375 29.925 5
    endloop
  endfacet
  facet normal 0 0 -1
    outer loop
      vertex 94.747 23.5637 5
      vertex 108.375 29.925 5
      vertex 95.5 22 5
    endloop
  endfacet
  facet normal 0 0 -1
    outer loop
      vertex 94.747 44.3137 5
      vertex 108.375 55.575 5
      vertex 95.5 42.75 5
    endloop
  endfacet
  facet normal 0 0 -1
    outer loop
      vertex 108.375 29.925 5
      vertex 95.5 42.75 5
      vertex 108.375 55.575 5
    endloop
  endfacet
  facet normal 0 0 -1
    outer loop
      vertex 108.375 12.825 5
      vertex 94.747 20.4363 5
      vertex 95.5 22 5
    endloop
  endfacet
  facet normal 0 0 -1
    outer loop
      vertex 108.375 12.825 5
      vertex 93.055 20.0501 5
      vertex 94.747 20.4363 5
    endloop
  endfacet
  facet normal 0 0 -1
    outer loop
      vertex 82.875 0 5
      vertex 93.055 20.0501 5
      vertex 108.375 0 5
    endloop
  endfacet
  facet normal 0 0 -1
    outer loop
      vertex 82.875 29.925 5
      vertex 91.6981 22.8678 5
      vertex 91.6981 21.1322 5
    endloop
  endfacet
  facet normal -0 0 -1
    outer loop
      vertex 93.055 40.8001 5
      vertex 82.875 29.925 5
      vertex 91.6981 41.8822 5
    endloop
  endfacet
  facet normal -0 0 -1
    outer loop
      vertex 91.6981 41.8822 5
      vertex 82.875 29.925 5
      vertex 91.6981 43.6178 5
    endloop
  endfacet
  facet normal 0 0 -1
    outer loop
      vertex 82.875 55.575 5
      vertex 91.6981 43.6178 5
      vertex 82.875 29.925 5
    endloop
  endfacet
  facet normal -0 0 -1
    outer loop
      vertex 93.055 20.0501 5
      vertex 82.875 12.825 5
      vertex 91.6981 21.1322 5
    endloop
  endfacet
  facet normal 0 0 -1
    outer loop
      vertex 93.055 20.0501 5
      vertex 82.875 0 5
      vertex 82.875 12.825 5
    endloop
  endfacet
  facet normal 0 0 -1
    outer loop
      vertex 108.375 12.825 5
      vertex 127.5 29.925 5
      vertex 127.5 12.825 5
    endloop
  endfacet
  facet normal -0 0 -1
    outer loop
      vertex 127.5 29.925 5
      vertex 108.375 12.825 5
      vertex 108.375 29.925 5
    endloop
  endfacet
  facet normal 0 0 -1
    outer loop
      vertex 108.375 55.575 5
      vertex 127.5 72.675 5
      vertex 127.5 55.575 5
    endloop
  endfacet
  facet normal -0 0 -1
    outer loop
      vertex 127.5 72.675 5
      vertex 108.375 55.575 5
      vertex 108.375 72.675 5
    endloop
  endfacet
  facet normal 0 0 -1
    outer loop
      vertex 108.375 55.575 5
      vertex 95.5 63.5 5
      vertex 108.375 72.675 5
    endloop
  endfacet
  facet normal 0 0 -1
    outer loop
      vertex 94.747 65.0637 5
      vertex 108.375 72.675 5
      vertex 95.5 63.5 5
    endloop
  endfacet
  facet normal 0 0 -1
    outer loop
      vertex 93.055 65.4499 5
      vertex 108.375 72.675 5
      vertex 94.747 65.0637 5
    endloop
  endfacet
  facet normal -0 0 -1
    outer loop
      vertex 108.375 72.675 5
      vertex 93.055 65.4499 5
      vertex 108.375 85.5 5
    endloop
  endfacet
  facet normal 0 0 -1
    outer loop
      vertex 82.875 72.675 5
      vertex 93.055 65.4499 5
      vertex 91.6981 64.3678 5
    endloop
  endfacet
  facet normal 0 0 -1
    outer loop
      vertex 82.875 29.925 5
      vertex 91.6981 21.1322 5
      vertex 82.875 12.825 5
    endloop
  endfacet
  facet normal -0 0 -1
    outer loop
      vertex 93.055 61.5501 5
      vertex 82.875 55.575 5
      vertex 91.6981 62.6322 5
    endloop
  endfacet
  facet normal -0 0 -1
    outer loop
      vertex 91.6981 62.6322 5
      vertex 82.875 55.575 5
      vertex 91.6981 64.3678 5
    endloop
  endfacet
  facet normal 0 0 -1
    outer loop
      vertex 82.875 72.675 5
      vertex 91.6981 64.3678 5
      vertex 82.875 55.575 5
    endloop
  endfacet
  facet normal 0 0 -1
    outer loop
      vertex 82.875 85.5 5
      vertex 93.055 65.4499 5
      vertex 82.875 72.675 5
    endloop
  endfacet
  facet normal 0 0 -1
    outer loop
      vertex 93.055 65.4499 5
      vertex 82.875 85.5 5
      vertex 108.375 85.5 5
    endloop
  endfacet
  facet normal -1 0 0
    outer loop
      vertex 44.625 72.675 0
      vertex 44.625 85.5 5
      vertex 44.625 85.5 0
    endloop
  endfacet
  facet normal -1 -0 0
    outer loop
      vertex 44.625 85.5 5
      vertex 44.625 72.675 0
      vertex 44.625 72.675 5
    endloop
  endfacet
  facet normal -1 0 0
    outer loop
      vertex 44.625 0 0
      vertex 44.625 12.825 5
      vertex 44.625 12.825 0
    endloop
  endfacet
  facet normal -1 -0 0
    outer loop
      vertex 44.625 12.825 5
      vertex 44.625 0 0
      vertex 44.625 0 5
    endloop
  endfacet
  facet normal -1 0 0
    outer loop
      vertex 44.625 29.925 0
      vertex 44.625 55.575 5
      vertex 44.625 55.575 0
    endloop
  endfacet
  facet normal -1 -0 0
    outer loop
      vertex 44.625 55.575 5
      vertex 44.625 29.925 0
      vertex 44.625 29.925 5
    endloop
  endfacet
  facet normal 1 -0 0
    outer loop
      vertex 82.875 0 5
      vertex 82.875 12.825 0
      vertex 82.875 12.825 5
    endloop
  endfacet
  facet normal 1 0 0
    outer loop
      vertex 82.875 12.825 0
      vertex 82.875 0 5
      vertex 82.875 0 0
    endloop
  endfacet
  facet normal 1 -0 0
    outer loop
      vertex 82.875 72.675 5
      vertex 82.875 85.5 0
      vertex 82.875 85.5 5
    endloop
  endfacet
  facet normal 1 0 0
    outer loop
      vertex 82.875 85.5 0
      vertex 82.875 72.675 5
      vertex 82.875 72.675 0
    endloop
  endfacet
  facet normal 1 -0 0
    outer loop
      vertex 82.875 29.925 5
      vertex 82.875 55.575 0
      vertex 82.875 55.575 5
    endloop
  endfacet
  facet normal 1 0 0
    outer loop
      vertex 82.875 55.575 0
      vertex 82.875 29.925 5
      vertex 82.875 29.925 0
    endloop
  endfacet
  facet normal -1 0 0
    outer loop
      vertex 108.375 0 0
      vertex 108.375 12.825 5
      vertex 108.375 12.825 0
    endloop
  endfacet
  facet normal -1 -0 0
    outer loop
      vertex 108.375 12.825 5
      vertex 108.375 0 0
      vertex 108.375 0 5
    endloop
  endfacet
  facet normal -1 0 0
    outer loop
      vertex 108.375 72.675 0
      vertex 108.375 85.5 5
      vertex 108.375 85.5 0
    endloop
  endfacet
  facet normal -1 -0 0
    outer loop
      vertex 108.375 85.5 5
      vertex 108.375 72.675 0
      vertex 108.375 72.675 5
    endloop
  endfacet
  facet normal -1 0 0
    outer loop
      vertex 108.375 29.925 0
      vertex 108.375 55.575 5
      vertex 108.375 55.575 0
    endloop
  endfacet
  facet normal -1 -0 0
    outer loop
      vertex 108.375 55.575 5
      vertex 108.375 29.925 0
      vertex 108.375 29.925 5
    endloop
  endfacet
  facet normal 0 -1 0
    outer loop
      vertex 0 29.925 0
      vertex 19.125 29.925 5
      vertex 0 29.925 5
    endloop
  endfacet
  facet normal 0 -1 -0
    outer loop
      vertex 19.125 29.925 5
      vertex 0 29.925 0
      vertex 19.125 29.925 0
    endloop
  endfacet
  facet normal 0 -1 0
    outer loop
      vertex 44.625 29.925 0
      vertex 82.875 29.925 5
      vertex 44.625 29.925 5
    endloop
  endfacet
  facet normal 0 -1 -0
    outer loop
      vertex 82.875 29.925 5
      vertex 44.625 29.925 0
      vertex 82.875 29.925 0
    endloop
  endfacet
  facet normal 0 -1 0
    outer loop
      vertex 108.375 29.925 0
      vertex 127.5 29.925 5
      vertex 108.375 29.925 5
    endloop
  endfacet
  facet normal 0 -1 -0
    outer loop
      vertex 127.5 29.925 5
      vertex 108.375 29.925 0
      vertex 127.5 29.925 0
    endloop
  endfacet
  facet normal 0 1 -0
    outer loop
      vertex 19.125 12.825 0
      vertex 0 12.825 5
      vertex 19.125 12.825 5
    endloop
  endfacet
  facet normal 0 1 0
    outer loop
      vertex 0 12.825 5
      vertex 19.125 12.825 0
      vertex 0 12.825 0
    endloop
  endfacet
  facet normal 0 1 -0
    outer loop
      vertex 82.875 12.825 0
      vertex 44.625 12.825 5
      vertex 82.875 12.825 5
    endloop
  endfacet
  facet normal 0 1 0
    outer loop
      vertex 44.625 12.825 5
      vertex 82.875 12.825 0
      vertex 44.625 12.825 0
    endloop
  endfacet
  facet normal 0 1 -0
    outer loop
      vertex 127.5 12.825 0
      vertex 108.375 12.825 5
      vertex 127.5 12.825 5
    endloop
  endfacet
  facet normal 0 1 0
    outer loop
      vertex 108.375 12.825 5
      vertex 127.5 12.825 0
      vertex 108.375 12.825 0
    endloop
  endfacet
  facet normal 0 -1 0
    outer loop
      vertex 0 72.675 0
      vertex 19.125 72.675 5
      vertex 0 72.675 5
    endloop
  endfacet
  facet normal 0 -1 -0
    outer loop
      vertex 19.125 72.675 5
      vertex 0 72.675 0
      vertex 19.125 72.675 0
    endloop
  endfacet
  facet normal 0 -1 0
    outer loop
      vertex 44.625 72.675 0
      vertex 82.875 72.675 5
      vertex 44.625 72.675 5
    endloop
  endfacet
  facet normal 0 -1 -0
    outer loop
      vertex 82.875 72.675 5
      vertex 44.625 72.675 0
      vertex 82.875 72.675 0
    endloop
  endfacet
  facet normal 0 -1 0
    outer loop
      vertex 108.375 72.675 0
      vertex 127.5 72.675 5
      vertex 108.375 72.675 5
    endloop
  endfacet
  facet normal 0 -1 -0
    outer loop
      vertex 127.5 72.675 5
      vertex 108.375 72.675 0
      vertex 127.5 72.675 0
    endloop
  endfacet
  facet normal 0 1 -0
    outer loop
      vertex 19.125 55.575 0
      vertex 0 55.575 5
      vertex 19.125 55.575 5
    endloop
  endfacet
  facet normal 0 1 0
    outer loop
      vertex 0 55.575 5
      vertex 19.125 55.575 0
      vertex 0 55.575 0
    endloop
  endfacet
  facet normal 0 1 -0
    outer loop
      vertex 82.875 55.575 0
      vertex 44.625 55.575 5
      vertex 82.875 55.575 5
    endloop
  endfacet
  facet normal 0 1 0
    outer loop
      vertex 44.625 55.575 5
      vertex 82.875 55.575 0
      vertex 44.625 55.575 0
    endloop
  endfacet
  facet normal 0 1 -0
    outer loop
      vertex 127.5 55.575 0
      vertex 108.375 55.575 5
      vertex 127.5 55.575 5
    endloop
  endfacet
  facet normal 0 1 0
    outer loop
      vertex 108.375 55.575 5
      vertex 127.5 55.575 0
      vertex 108.375 55.575 0
    endloop
  endfacet
  facet normal -0.900969 -0.433884 0
    outer loop
      vertex 36 22 5
      vertex 35.247 23.5637 13.5
      vertex 35.247 23.5637 5
    endloop
  endfacet
  facet normal -0.900969 -0.433884 0
    outer loop
      vertex 35.247 23.5637 13.5
      vertex 36 22 5
      vertex 36 22 13.5
    endloop
  endfacet
  facet normal 1 -0 0
    outer loop
      vertex 32.1981 21.1322 13.5
      vertex 32.1981 22.8678 5
      vertex 32.1981 22.8678 13.5
    endloop
  endfacet
  facet normal 1 0 0
    outer loop
      vertex 32.1981 22.8678 5
      vertex 32.1981 21.1322 13.5
      vertex 32.1981 21.1322 5
    endloop
  endfacet
  facet normal -0.222521 -0.974928 0
    outer loop
      vertex 33.555 23.9499 5
      vertex 35.247 23.5637 13.5
      vertex 33.555 23.9499 13.5
    endloop
  endfacet
  facet normal -0.222521 -0.974928 -0
    outer loop
      vertex 35.247 23.5637 13.5
      vertex 33.555 23.9499 5
      vertex 35.247 23.5637 5
    endloop
  endfacet
  facet normal 0.62349 -0.781831 0
    outer loop
      vertex 32.1981 22.8678 5
      vertex 33.555 23.9499 13.5
      vertex 32.1981 22.8678 13.5
    endloop
  endfacet
  facet normal 0.62349 -0.781831 0
    outer loop
      vertex 33.555 23.9499 13.5
      vertex 32.1981 22.8678 5
      vertex 33.555 23.9499 5
    endloop
  endfacet
  facet normal -0.900969 0.433884 0
    outer loop
      vertex 35.247 20.4363 5
      vertex 36 22 13.5
      vertex 36 22 5
    endloop
  endfacet
  facet normal -0.900969 0.433884 0
    outer loop
      vertex 36 22 13.5
      vertex 35.247 20.4363 5
      vertex 35.247 20.4363 13.5
    endloop
  endfacet
  facet normal -0.222521 0.974928 0
    outer loop
      vertex 35.247 20.4363 5
      vertex 33.555 20.0501 13.5
      vertex 35.247 20.4363 13.5
    endloop
  endfacet
  facet normal -0.222521 0.974928 0
    outer loop
      vertex 33.555 20.0501 13.5
      vertex 35.247 20.4363 5
      vertex 33.555 20.0501 5
    endloop
  endfacet
  facet normal 0.62349 0.781831 -0
    outer loop
      vertex 33.555 20.0501 5
      vertex 32.1981 21.1322 13.5
      vertex 33.555 20.0501 13.5
    endloop
  endfacet
  facet normal 0.62349 0.781831 0
    outer loop
      vertex 32.1981 21.1322 13.5
      vertex 33.555 20.0501 5
      vertex 32.1981 21.1322 5
    endloop
  endfacet
  facet normal -0.900969 -0.433884 0
    outer loop
      vertex 95.5 22 5
      vertex 94.747 23.5637 13.5
      vertex 94.747 23.5637 5
    endloop
  endfacet
  facet normal -0.900969 -0.433884 0
    outer loop
      vertex 94.747 23.5637 13.5
      vertex 95.5 22 5
      vertex 95.5 22 13.5
    endloop
  endfacet
  facet normal 1 -0 0
    outer loop
      vertex 91.6981 21.1322 13.5
      vertex 91.6981 22.8678 5
      vertex 91.6981 22.8678 13.5
    endloop
  endfacet
  facet normal 1 0 0
    outer loop
      vertex 91.6981 22.8678 5
      vertex 91.6981 21.1322 13.5
      vertex 91.6981 21.1322 5
    endloop
  endfacet
  facet normal -0.22252 -0.974928 0
    outer loop
      vertex 93.055 23.9499 5
      vertex 94.747 23.5637 13.5
      vertex 93.055 23.9499 13.5
    endloop
  endfacet
  facet normal -0.22252 -0.974928 -0
    outer loop
      vertex 94.747 23.5637 13.5
      vertex 93.055 23.9499 5
      vertex 94.747 23.5637 5
    endloop
  endfacet
  facet normal 0.62349 0.781831 -0
    outer loop
      vertex 93.055 20.0501 5
      vertex 91.6981 21.1322 13.5
      vertex 93.055 20.0501 13.5
    endloop
  endfacet
  facet normal 0.62349 0.781831 0
    outer loop
      vertex 91.6981 21.1322 13.5
      vertex 93.055 20.0501 5
      vertex 91.6981 21.1322 5
    endloop
  endfacet
  facet normal 0.62349 -0.781831 0
    outer loop
      vertex 91.6981 22.8678 5
      vertex 93.055 23.9499 13.5
      vertex 91.6981 22.8678 13.5
    endloop
  endfacet
  facet normal 0.62349 -0.781831 0
    outer loop
      vertex 93.055 23.9499 13.5
      vertex 91.6981 22.8678 5
      vertex 93.055 23.9499 5
    endloop
  endfacet
  facet normal -0.22252 0.974928 0
    outer loop
      vertex 94.747 20.4363 5
      vertex 93.055 20.0501 13.5
      vertex 94.747 20.4363 13.5
    endloop
  endfacet
  facet normal -0.22252 0.974928 0
    outer loop
      vertex 93.055 20.0501 13.5
      vertex 94.747 20.4363 5
      vertex 93.055 20.0501 5
    endloop
  endfacet
  facet normal -0.900969 0.433884 0
    outer loop
      vertex 94.747 20.4363 5
      vertex 95.5 22 13.5
      vertex 95.5 22 5
    endloop
  endfacet
  facet normal -0.900969 0.433884 0
    outer loop
      vertex 95.5 22 13.5
      vertex 94.747 20.4363 5
      vertex 94.747 20.4363 13.5
    endloop
  endfacet
  facet normal -0.900968 -0.433885 0
    outer loop
      vertex 36 63.5 5
      vertex 35.247 65.0637 13.5
      vertex 35.247 65.0637 5
    endloop
  endfacet
  facet normal -0.900968 -0.433885 0
    outer loop
      vertex 35.247 65.0637 13.5
      vertex 36 63.5 5
      vertex 36 63.5 13.5
    endloop
  endfacet
  facet normal 1 -0 0
    outer loop
      vertex 32.1981 62.6322 13.5
      vertex 32.1981 64.3678 5
      vertex 32.1981 64.3678 13.5
    endloop
  endfacet
  facet normal 1 0 0
    outer loop
      vertex 32.1981 64.3678 5
      vertex 32.1981 62.6322 13.5
      vertex 32.1981 62.6322 5
    endloop
  endfacet
  facet normal -0.222525 -0.974927 0
    outer loop
      vertex 33.555 65.4499 5
      vertex 35.247 65.0637 13.5
      vertex 33.555 65.4499 13.5
    endloop
  endfacet
  facet normal -0.222525 -0.974927 -0
    outer loop
      vertex 35.247 65.0637 13.5
      vertex 33.555 65.4499 5
      vertex 35.247 65.0637 5
    endloop
  endfacet
  facet normal 0.623491 -0.78183 0
    outer loop
      vertex 32.1981 64.3678 5
      vertex 33.555 65.4499 13.5
      vertex 32.1981 64.3678 13.5
    endloop
  endfacet
  facet normal 0.623491 -0.78183 0
    outer loop
      vertex 33.555 65.4499 13.5
      vertex 32.1981 64.3678 5
      vertex 33.555 65.4499 5
    endloop
  endfacet
  facet normal -0.900969 0.433884 0
    outer loop
      vertex 35.247 61.9363 5
      vertex 36 63.5 13.5
      vertex 36 63.5 5
    endloop
  endfacet
  facet normal -0.900969 0.433884 0
    outer loop
      vertex 36 63.5 13.5
      vertex 35.247 61.9363 5
      vertex 35.247 61.9363 13.5
    endloop
  endfacet
  facet normal -0.222521 0.974928 0
    outer loop
      vertex 35.247 61.9363 5
      vertex 33.555 61.5501 13.5
      vertex 35.247 61.9363 13.5
    endloop
  endfacet
  facet normal -0.222521 0.974928 0
    outer loop
      vertex 33.555 61.5501 13.5
      vertex 35.247 61.9363 5
      vertex 33.555 61.5501 5
    endloop
  endfacet
  facet normal 0.62349 0.781831 -0
    outer loop
      vertex 33.555 61.5501 5
      vertex 32.1981 62.6322 13.5
      vertex 33.555 61.5501 13.5
    endloop
  endfacet
  facet normal 0.62349 0.781831 0
    outer loop
      vertex 32.1981 62.6322 13.5
      vertex 33.555 61.5501 5
      vertex 32.1981 62.6322 5
    endloop
  endfacet
  facet normal -0.900968 -0.433885 0
    outer loop
      vertex 95.5 63.5 5
      vertex 94.747 65.0637 13.5
      vertex 94.747 65.0637 5
    endloop
  endfacet
  facet normal -0.900968 -0.433885 0
    outer loop
      vertex 94.747 65.0637 13.5
      vertex 95.5 63.5 5
      vertex 95.5 63.5 13.5
    endloop
  endfacet
  facet normal 1 -0 0
    outer loop
      vertex 91.6981 62.6322 13.5
      vertex 91.6981 64.3678 5
      vertex 91.6981 64.3678 13.5
    endloop
  endfacet
  facet normal 1 0 0
    outer loop
      vertex 91.6981 64.3678 5
      vertex 91.6981 62.6322 13.5
      vertex 91.6981 62.6322 5
    endloop
  endfacet
  facet normal -0.222524 -0.974927 0
    outer loop
      vertex 93.055 65.4499 5
      vertex 94.747 65.0637 13.5
      vertex 93.055 65.4499 13.5
    endloop
  endfacet
  facet normal -0.222524 -0.974927 -0
    outer loop
      vertex 94.747 65.0637 13.5
      vertex 93.055 65.4499 5
      vertex 94.747 65.0637 5
    endloop
  endfacet
  facet normal 0.62349 0.781831 -0
    outer loop
      vertex 93.055 61.5501 5
      vertex 91.6981 62.6322 13.5
      vertex 93.055 61.5501 13.5
    endloop
  endfacet
  facet normal 0.62349 0.781831 0
    outer loop
      vertex 91.6981 62.6322 13.5
      vertex 93.055 61.5501 5
      vertex 91.6981 62.6322 5
    endloop
  endfacet
  facet normal 0.623491 -0.78183 0
    outer loop
      vertex 91.6981 64.3678 5
      vertex 93.055 65.4499 13.5
      vertex 91.6981 64.3678 13.5
    endloop
  endfacet
  facet normal 0.623491 -0.78183 0
    outer loop
      vertex 93.055 65.4499 13.5
      vertex 91.6981 64.3678 5
      vertex 93.055 65.4499 5
    endloop
  endfacet
  facet normal -0.900969 0.433884 0
    outer loop
      vertex 94.747 61.9363 5
      vertex 95.5 63.5 13.5
      vertex 95.5 63.5 5
    endloop
  endfacet
  facet normal -0.900969 0.433884 0
    outer loop
      vertex 95.5 63.5 13.5
      vertex 94.747 61.9363 5
      vertex 94.747 61.9363 13.5
    endloop
  endfacet
  facet normal -0.22252 0.974928 0
    outer loop
      vertex 94.747 61.9363 5
      vertex 93.055 61.5501 13.5
      vertex 94.747 61.9363 13.5
    endloop
  endfacet
  facet normal -0.22252 0.974928 0
    outer loop
      vertex 93.055 61.5501 13.5
      vertex 94.747 61.9363 5
      vertex 93.055 61.5501 5
    endloop
  endfacet
  facet normal -0.900969 -0.433884 0
    outer loop
      vertex 65.75 22 5
      vertex 64.997 23.5637 13.5
      vertex 64.997 23.5637 5
    endloop
  endfacet
  facet normal -0.900969 -0.433884 0
    outer loop
      vertex 64.997 23.5637 13.5
      vertex 65.75 22 5
      vertex 65.75 22 13.5
    endloop
  endfacet
  facet normal 1 -0 0
    outer loop
      vertex 61.9481 21.1322 13.5
      vertex 61.9481 22.8678 5
      vertex 61.9481 22.8678 13.5
    endloop
  endfacet
  facet normal 1 0 0
    outer loop
      vertex 61.9481 22.8678 5
      vertex 61.9481 21.1322 13.5
      vertex 61.9481 21.1322 5
    endloop
  endfacet
  facet normal -0.222521 -0.974928 0
    outer loop
      vertex 63.305 23.9499 5
      vertex 64.997 23.5637 13.5
      vertex 63.305 23.9499 13.5
    endloop
  endfacet
  facet normal -0.222521 -0.974928 -0
    outer loop
      vertex 64.997 23.5637 13.5
      vertex 63.305 23.9499 5
      vertex 64.997 23.5637 5
    endloop
  endfacet
  facet normal 0.62349 0.781831 -0
    outer loop
      vertex 63.305 20.0501 5
      vertex 61.9481 21.1322 13.5
      vertex 63.305 20.0501 13.5
    endloop
  endfacet
  facet normal 0.62349 0.781831 0
    outer loop
      vertex 61.9481 21.1322 13.5
      vertex 63.305 20.0501 5
      vertex 61.9481 21.1322 5
    endloop
  endfacet
  facet normal 0.62349 -0.781831 0
    outer loop
      vertex 61.9481 22.8678 5
      vertex 63.305 23.9499 13.5
      vertex 61.9481 22.8678 13.5
    endloop
  endfacet
  facet normal 0.62349 -0.781831 0
    outer loop
      vertex 63.305 23.9499 13.5
      vertex 61.9481 22.8678 5
      vertex 63.305 23.9499 5
    endloop
  endfacet
  facet normal -0.900969 0.433884 0
    outer loop
      vertex 64.997 20.4363 5
      vertex 65.75 22 13.5
      vertex 65.75 22 5
    endloop
  endfacet
  facet normal -0.900969 0.433884 0
    outer loop
      vertex 65.75 22 13.5
      vertex 64.997 20.4363 5
      vertex 64.997 20.4363 13.5
    endloop
  endfacet
  facet normal -0.222521 0.974928 0
    outer loop
      vertex 64.997 20.4363 5
      vertex 63.305 20.0501 13.5
      vertex 64.997 20.4363 13.5
    endloop
  endfacet
  facet normal -0.222521 0.974928 0
    outer loop
      vertex 63.305 20.0501 13.5
      vertex 64.997 20.4363 5
      vertex 63.305 20.0501 5
    endloop
  endfacet
  facet normal -0.900968 -0.433885 0
    outer loop
      vertex 65.75 63.5 5
      vertex 64.997 65.0637 13.5
      vertex 64.997 65.0637 5
    endloop
  endfacet
  facet normal -0.900968 -0.433885 0
    outer loop
      vertex 64.997 65.0637 13.5
      vertex 65.75 63.5 5
      vertex 65.75 63.5 13.5
    endloop
  endfacet
  facet normal 1 -0 0
    outer loop
      vertex 61.9481 62.6322 13.5
      vertex 61.9481 64.3678 5
      vertex 61.9481 64.3678 13.5
    endloop
  endfacet
  facet normal 1 0 0
    outer loop
      vertex 61.9481 64.3678 5
      vertex 61.9481 62.6322 13.5
      vertex 61.9481 62.6322 5
    endloop
  endfacet
  facet normal -0.222525 -0.974927 0
    outer loop
      vertex 63.305 65.4499 5
      vertex 64.997 65.0637 13.5
      vertex 63.305 65.4499 13.5
    endloop
  endfacet
  facet normal -0.222525 -0.974927 -0
    outer loop
      vertex 64.997 65.0637 13.5
      vertex 63.305 65.4499 5
      vertex 64.997 65.0637 5
    endloop
  endfacet
  facet normal 0.623491 -0.78183 0
    outer loop
      vertex 61.9481 64.3678 5
      vertex 63.305 65.4499 13.5
      vertex 61.9481 64.3678 13.5
    endloop
  endfacet
  facet normal 0.623491 -0.78183 0
    outer loop
      vertex 63.305 65.4499 13.5
      vertex 61.9481 64.3678 5
      vertex 63.305 65.4499 5
    endloop
  endfacet
  facet normal -0.900969 0.433884 0
    outer loop
      vertex 64.997 61.9363 5
      vertex 65.75 63.5 13.5
      vertex 65.75 63.5 5
    endloop
  endfacet
  facet normal -0.900969 0.433884 0
    outer loop
      vertex 65.75 63.5 13.5
      vertex 64.997 61.9363 5
      vertex 64.997 61.9363 13.5
    endloop
  endfacet
  facet normal -0.222521 0.974928 0
    outer loop
      vertex 64.997 61.9363 5
      vertex 63.305 61.5501 13.5
      vertex 64.997 61.9363 13.5
    endloop
  endfacet
  facet normal -0.222521 0.974928 0
    outer loop
      vertex 63.305 61.5501 13.5
      vertex 64.997 61.9363 5
      vertex 63.305 61.5501 5
    endloop
  endfacet
  facet normal 0.62349 0.781831 -0
    outer loop
      vertex 63.305 61.5501 5
      vertex 61.9481 62.6322 13.5
      vertex 63.305 61.5501 13.5
    endloop
  endfacet
  facet normal 0.62349 0.781831 0
    outer loop
      vertex 61.9481 62.6322 13.5
      vertex 63.305 61.5501 5
      vertex 61.9481 62.6322 5
    endloop
  endfacet
  facet normal -0.900969 -0.433884 0
    outer loop
      vertex 36 42.75 5
      vertex 35.247 44.3137 13.5
      vertex 35.247 44.3137 5
    endloop
  endfacet
  facet normal -0.900969 -0.433884 0
    outer loop
      vertex 35.247 44.3137 13.5
      vertex 36 42.75 5
      vertex 36 42.75 13.5
    endloop
  endfacet
  facet normal 1 -0 0
    outer loop
      vertex 32.1981 41.8822 13.5
      vertex 32.1981 43.6178 5
      vertex 32.1981 43.6178 13.5
    endloop
  endfacet
  facet normal 1 0 0
    outer loop
      vertex 32.1981 43.6178 5
      vertex 32.1981 41.8822 13.5
      vertex 32.1981 41.8822 5
    endloop
  endfacet
  facet normal -0.222521 -0.974928 0
    outer loop
      vertex 33.555 44.6999 5
      vertex 35.247 44.3137 13.5
      vertex 33.555 44.6999 13.5
    endloop
  endfacet
  facet normal -0.222521 -0.974928 -0
    outer loop
      vertex 35.247 44.3137 13.5
      vertex 33.555 44.6999 5
      vertex 35.247 44.3137 5
    endloop
  endfacet
  facet normal 0.62349 -0.781831 0
    outer loop
      vertex 32.1981 43.6178 5
      vertex 33.555 44.6999 13.5
      vertex 32.1981 43.6178 13.5
    endloop
  endfacet
  facet normal 0.62349 -0.781831 0
    outer loop
      vertex 33.555 44.6999 13.5
      vertex 32.1981 43.6178 5
      vertex 33.555 44.6999 5
    endloop
  endfacet
  facet normal -0.900969 0.433884 0
    outer loop
      vertex 35.247 41.1863 5
      vertex 36 42.75 13.5
      vertex 36 42.75 5
    endloop
  endfacet
  facet normal -0.900969 0.433884 0
    outer loop
      vertex 36 42.75 13.5
      vertex 35.247 41.1863 5
      vertex 35.247 41.1863 13.5
    endloop
  endfacet
  facet normal -0.222521 0.974928 0
    outer loop
      vertex 35.247 41.1863 5
      vertex 33.555 40.8001 13.5
      vertex 35.247 41.1863 13.5
    endloop
  endfacet
  facet normal -0.222521 0.974928 0
    outer loop
      vertex 33.555 40.8001 13.5
      vertex 35.247 41.1863 5
      vertex 33.555 40.8001 5
    endloop
  endfacet
  facet normal 0.62349 0.781831 -0
    outer loop
      vertex 33.555 40.8001 5
      vertex 32.1981 41.8822 13.5
      vertex 33.555 40.8001 13.5
    endloop
  endfacet
  facet normal 0.62349 0.781831 0
    outer loop
      vertex 32.1981 41.8822 13.5
      vertex 33.555 40.8001 5
      vertex 32.1981 41.8822 5
    endloop
  endfacet
  facet normal -0.900969 -0.433884 0
    outer loop
      vertex 95.5 42.75 5
      vertex 94.747 44.3137 13.5
      vertex 94.747 44.3137 5
    endloop
  endfacet
  facet normal -0.900969 -0.433884 0
    outer loop
      vertex 94.747 44.3137 13.5
      vertex 95.5 42.75 5
      vertex 95.5 42.75 13.5
    endloop
  endfacet
  facet normal 1 -0 0
    outer loop
      vertex 91.6981 41.8822 13.5
      vertex 91.6981 43.6178 5
      vertex 91.6981 43.6178 13.5
    endloop
  endfacet
  facet normal 1 0 0
    outer loop
      vertex 91.6981 43.6178 5
      vertex 91.6981 41.8822 13.5
      vertex 91.6981 41.8822 5
    endloop
  endfacet
  facet normal -0.22252 -0.974928 0
    outer loop
      vertex 93.055 44.6999 5
      vertex 94.747 44.3137 13.5
      vertex 93.055 44.6999 13.5
    endloop
  endfacet
  facet normal -0.22252 -0.974928 -0
    outer loop
      vertex 94.747 44.3137 13.5
      vertex 93.055 44.6999 5
      vertex 94.747 44.3137 5
    endloop
  endfacet
  facet normal 0.62349 -0.781831 0
    outer loop
      vertex 91.6981 43.6178 5
      vertex 93.055 44.6999 13.5
      vertex 91.6981 43.6178 13.5
    endloop
  endfacet
  facet normal 0.62349 -0.781831 0
    outer loop
      vertex 93.055 44.6999 13.5
      vertex 91.6981 43.6178 5
      vertex 93.055 44.6999 5
    endloop
  endfacet
  facet normal -0.900969 0.433884 0
    outer loop
      vertex 94.747 41.1863 5
      vertex 95.5 42.75 13.5
      vertex 95.5 42.75 5
    endloop
  endfacet
  facet normal -0.900969 0.433884 0
    outer loop
      vertex 95.5 42.75 13.5
      vertex 94.747 41.1863 5
      vertex 94.747 41.1863 13.5
    endloop
  endfacet
  facet normal -0.22252 0.974928 0
    outer loop
      vertex 94.747 41.1863 5
      vertex 93.055 40.8001 13.5
      vertex 94.747 41.1863 13.5
    endloop
  endfacet
  facet normal -0.22252 0.974928 0
    outer loop
      vertex 93.055 40.8001 13.5
      vertex 94.747 41.1863 5
      vertex 93.055 40.8001 5
    endloop
  endfacet
  facet normal 0.62349 0.781831 -0
    outer loop
      vertex 93.055 40.8001 5
      vertex 91.6981 41.8822 13.5
      vertex 93.055 40.8001 13.5
    endloop
  endfacet
  facet normal 0.62349 0.781831 0
    outer loop
      vertex 91.6981 41.8822 13.5
      vertex 93.055 40.8001 5
      vertex 91.6981 41.8822 5
    endloop
  endfacet
endsolid OpenSCAD_Model
