G04 #@! TF.FileFunction,Copper,L2,Bot,Signal*
%FSLAX46Y46*%
G04 Gerber Fmt 4.6, Leading zero omitted, Abs format (unit mm)*
G04 Created by KiCad (PCBNEW 4.0.4-stable) date Tuesday, January 31, 2017 'AMt' 11:40:29 AM*
%MOMM*%
%LPD*%
G01*
G04 APERTURE LIST*
%ADD10C,0.100000*%
%ADD11O,3.500120X5.001260*%
%ADD12C,1.600200*%
%ADD13C,1.998980*%
%ADD14O,2.032000X1.727200*%
%ADD15C,2.000000*%
%ADD16R,1.700000X1.700000*%
%ADD17O,1.700000X1.700000*%
%ADD18C,1.270000*%
%ADD19C,0.508000*%
%ADD20C,0.254000*%
G04 APERTURE END LIST*
D10*
D11*
X132097780Y-150393400D03*
X121899680Y-150393400D03*
D12*
X127000000Y-146128740D03*
X129499360Y-146128740D03*
D11*
X109237780Y-150393400D03*
X99039680Y-150393400D03*
D12*
X104140000Y-146128740D03*
X106639360Y-146128740D03*
D11*
X87647780Y-150393400D03*
X77449680Y-150393400D03*
D12*
X82550000Y-146128740D03*
X85049360Y-146128740D03*
D11*
X153687780Y-150393400D03*
X143489680Y-150393400D03*
D12*
X148590000Y-146128740D03*
X151089360Y-146128740D03*
D13*
X87630000Y-104140000D03*
X80010000Y-104140000D03*
X92710000Y-96520000D03*
X92710000Y-104140000D03*
D14*
X124460000Y-118110000D03*
X129540000Y-118110000D03*
X127000000Y-118110000D03*
X127000000Y-135890000D03*
X124460000Y-135890000D03*
X129540000Y-135890000D03*
X101600000Y-118110000D03*
X106680000Y-118110000D03*
X104140000Y-118110000D03*
X104140000Y-135890000D03*
X101600000Y-135890000D03*
X106680000Y-135890000D03*
X80010000Y-118110000D03*
X85090000Y-118110000D03*
X82550000Y-118110000D03*
X82550000Y-135890000D03*
X80010000Y-135890000D03*
X85090000Y-135890000D03*
X146050000Y-118110000D03*
X151130000Y-118110000D03*
X148590000Y-118110000D03*
X148590000Y-135890000D03*
X146050000Y-135890000D03*
X151130000Y-135890000D03*
D15*
X127000000Y-113030000D03*
X127000000Y-106680000D03*
X104140000Y-113030000D03*
X104140000Y-106680000D03*
X148590000Y-113030000D03*
X148590000Y-106680000D03*
D16*
X73660000Y-104140000D03*
D17*
X73660000Y-101600000D03*
X73660000Y-99060000D03*
X73660000Y-96520000D03*
D16*
X160020000Y-104140000D03*
D17*
X160020000Y-101600000D03*
X160020000Y-99060000D03*
X160020000Y-96520000D03*
D18*
X129499360Y-146128740D02*
X129499360Y-135930640D01*
X129499360Y-135930640D02*
X129540000Y-135890000D01*
X132097780Y-150393400D02*
X132097780Y-149877780D01*
X132097780Y-149877780D02*
X129499360Y-147279360D01*
X129499360Y-147279360D02*
X129499360Y-146128740D01*
X121899680Y-150393400D02*
X132097780Y-150393400D01*
D19*
X127000000Y-146128740D02*
X127000000Y-135890000D01*
D18*
X106639360Y-146128740D02*
X106639360Y-135930640D01*
X106639360Y-135930640D02*
X106680000Y-135890000D01*
X109237780Y-150393400D02*
X109237780Y-149877780D01*
X109237780Y-149877780D02*
X106639360Y-147279360D01*
X106639360Y-147279360D02*
X106639360Y-146128740D01*
X99039680Y-150393400D02*
X109237780Y-150393400D01*
D19*
X104140000Y-146128740D02*
X104140000Y-135890000D01*
D18*
X85049360Y-146128740D02*
X85049360Y-135930640D01*
X85049360Y-135930640D02*
X85090000Y-135890000D01*
X87647780Y-150393400D02*
X87647780Y-149877780D01*
X87647780Y-149877780D02*
X85049360Y-147279360D01*
X85049360Y-147279360D02*
X85049360Y-146128740D01*
X77449680Y-150393400D02*
X87647780Y-150393400D01*
D19*
X82550000Y-146128740D02*
X82550000Y-135890000D01*
D18*
X151089360Y-146128740D02*
X151089360Y-135930640D01*
X151089360Y-135930640D02*
X151130000Y-135890000D01*
X153687780Y-150393400D02*
X153687780Y-149877780D01*
X153687780Y-149877780D02*
X151089360Y-147279360D01*
X151089360Y-147279360D02*
X151089360Y-146128740D01*
X143489680Y-150393400D02*
X153687780Y-150393400D01*
D19*
X148590000Y-146128740D02*
X148590000Y-135890000D01*
X101600000Y-102870000D02*
X101600000Y-109220000D01*
X99060000Y-100330000D02*
X101600000Y-102870000D01*
X95250000Y-96520000D02*
X99060000Y-100330000D01*
X92710000Y-96520000D02*
X95250000Y-96520000D01*
X85090000Y-118110000D02*
X85090000Y-115570000D01*
X85090000Y-115570000D02*
X86360000Y-114300000D01*
X86360000Y-114300000D02*
X99060000Y-114300000D01*
X99060000Y-114300000D02*
X101600000Y-111760000D01*
X101600000Y-111760000D02*
X101600000Y-109220000D01*
X73660000Y-96520000D02*
X92710000Y-96520000D01*
X102870000Y-109220000D02*
X101600000Y-109220000D01*
X106680000Y-109220000D02*
X105410000Y-109220000D01*
X102870000Y-109220000D02*
X105410000Y-109220000D01*
X151130000Y-109220000D02*
X151130000Y-106680000D01*
X157480000Y-96520000D02*
X160020000Y-96520000D01*
X156210000Y-97790000D02*
X157480000Y-96520000D01*
X156210000Y-101600000D02*
X156210000Y-97790000D01*
X151130000Y-106680000D02*
X156210000Y-101600000D01*
X151130000Y-118110000D02*
X151130000Y-109220000D01*
X151130000Y-109220000D02*
X129540000Y-109220000D01*
X106680000Y-109220000D02*
X129540000Y-109220000D01*
X129540000Y-109220000D02*
X129540000Y-118110000D01*
X106680000Y-109220000D02*
X106680000Y-110490000D01*
X106680000Y-118110000D02*
X106680000Y-110490000D01*
X127000000Y-118110000D02*
X127000000Y-113030000D01*
D18*
X80010000Y-104140000D02*
X80010000Y-105410000D01*
X92710000Y-105410000D02*
X92710000Y-104140000D01*
X90170000Y-107950000D02*
X92710000Y-105410000D01*
X82550000Y-107950000D02*
X90170000Y-107950000D01*
X80010000Y-105410000D02*
X82550000Y-107950000D01*
X73660000Y-104140000D02*
X80010000Y-104140000D01*
X146050000Y-132080000D02*
X156210000Y-132080000D01*
X160020000Y-128270000D02*
X160020000Y-104140000D01*
X156210000Y-132080000D02*
X160020000Y-128270000D01*
X80010000Y-132080000D02*
X74930000Y-132080000D01*
X71120000Y-106680000D02*
X73660000Y-104140000D01*
X71120000Y-128270000D02*
X71120000Y-106680000D01*
X74930000Y-132080000D02*
X71120000Y-128270000D01*
X101600000Y-135890000D02*
X101600000Y-132080000D01*
X124460000Y-135890000D02*
X124460000Y-132080000D01*
X80010000Y-135890000D02*
X80010000Y-132080000D01*
X146050000Y-132080000D02*
X146050000Y-135890000D01*
X80010000Y-132080000D02*
X101600000Y-132080000D01*
X101600000Y-132080000D02*
X124460000Y-132080000D01*
X124460000Y-132080000D02*
X146050000Y-132080000D01*
D19*
X104140000Y-118110000D02*
X104140000Y-113030000D01*
X148590000Y-118110000D02*
X148590000Y-113030000D01*
X104140000Y-106680000D02*
X104140000Y-99060000D01*
X104140000Y-99060000D02*
X99060000Y-93980000D01*
X87630000Y-99060000D02*
X87630000Y-104140000D01*
X83820000Y-99060000D02*
X87630000Y-99060000D01*
X87630000Y-99060000D02*
X91440000Y-99060000D01*
X82550000Y-114300000D02*
X82550000Y-118110000D01*
X85090000Y-111760000D02*
X82550000Y-114300000D01*
X91440000Y-111760000D02*
X85090000Y-111760000D01*
X96520000Y-106680000D02*
X91440000Y-111760000D01*
X96520000Y-104140000D02*
X96520000Y-106680000D01*
X91440000Y-99060000D02*
X96520000Y-104140000D01*
X73660000Y-99060000D02*
X83820000Y-99060000D01*
X148590000Y-106680000D02*
X148590000Y-105410000D01*
X161290000Y-99060000D02*
X160020000Y-99060000D01*
X162560000Y-97790000D02*
X161290000Y-99060000D01*
X162560000Y-93980000D02*
X162560000Y-97790000D01*
X161290000Y-92710000D02*
X162560000Y-93980000D01*
X156210000Y-92710000D02*
X161290000Y-92710000D01*
X152400000Y-96520000D02*
X156210000Y-92710000D01*
X152400000Y-101600000D02*
X152400000Y-96520000D01*
X148590000Y-105410000D02*
X152400000Y-101600000D01*
X127000000Y-106680000D02*
X148590000Y-106680000D01*
X104140000Y-106680000D02*
X127000000Y-106680000D01*
X71120000Y-99060000D02*
X73660000Y-99060000D01*
X69850000Y-97790000D02*
X71120000Y-99060000D01*
X69850000Y-95250000D02*
X69850000Y-97790000D01*
X71120000Y-93980000D02*
X69850000Y-95250000D01*
X99060000Y-93980000D02*
X71120000Y-93980000D01*
D20*
G36*
X155042567Y-91542566D02*
X151232567Y-95352567D01*
X150874675Y-95888189D01*
X150799787Y-96264675D01*
X150749000Y-96520000D01*
X150749000Y-100916133D01*
X147422567Y-104242567D01*
X147064675Y-104778189D01*
X147064675Y-104778190D01*
X147055353Y-104825055D01*
X146851052Y-105029000D01*
X128738795Y-105029000D01*
X128359564Y-104649107D01*
X127478885Y-104283417D01*
X126525299Y-104282585D01*
X125643982Y-104646737D01*
X125261052Y-105029000D01*
X105878795Y-105029000D01*
X105791000Y-104941052D01*
X105791000Y-99060000D01*
X105665325Y-98428190D01*
X105307433Y-97892567D01*
X100227433Y-92812567D01*
X99691811Y-92454675D01*
X99060000Y-92329000D01*
X71120000Y-92329000D01*
X70593013Y-92433824D01*
X70488189Y-92454675D01*
X69952567Y-92812567D01*
X68682567Y-94082567D01*
X68324675Y-94618189D01*
X68262427Y-94931131D01*
X68199000Y-95250000D01*
X68199000Y-97790000D01*
X68324675Y-98421811D01*
X68682567Y-98957433D01*
X69952567Y-100227433D01*
X70488189Y-100585325D01*
X70593013Y-100606176D01*
X71120000Y-100711000D01*
X72120096Y-100711000D01*
X72369809Y-100877853D01*
X72218524Y-101243110D01*
X72339845Y-101473000D01*
X73533000Y-101473000D01*
X73533000Y-101453000D01*
X73787000Y-101453000D01*
X73787000Y-101473000D01*
X74980155Y-101473000D01*
X75101476Y-101243110D01*
X74950191Y-100877853D01*
X75199904Y-100711000D01*
X85979000Y-100711000D01*
X85979000Y-102401926D01*
X85599539Y-102780725D01*
X85233927Y-103661217D01*
X85233095Y-104614600D01*
X85597170Y-105495729D01*
X86018704Y-105918000D01*
X83391682Y-105918000D01*
X82314059Y-104840377D01*
X82406073Y-104618783D01*
X82406905Y-103665400D01*
X82042830Y-102784271D01*
X81369275Y-102109539D01*
X80488783Y-101743927D01*
X79535400Y-101743095D01*
X78654271Y-102107170D01*
X78653440Y-102108000D01*
X75254637Y-102108000D01*
X75086478Y-101993102D01*
X75101476Y-101956890D01*
X74980155Y-101727000D01*
X73787000Y-101727000D01*
X73787000Y-101747000D01*
X73533000Y-101747000D01*
X73533000Y-101727000D01*
X72339845Y-101727000D01*
X72218524Y-101956890D01*
X72236062Y-101999233D01*
X71816830Y-102269002D01*
X71497852Y-102735841D01*
X71385632Y-103290000D01*
X71385632Y-103540686D01*
X69683159Y-105243159D01*
X69242677Y-105902387D01*
X69088000Y-106680000D01*
X69088000Y-128270000D01*
X69242677Y-129047613D01*
X69683159Y-129706841D01*
X73493159Y-133516841D01*
X74152387Y-133957323D01*
X74930000Y-134112000D01*
X77978000Y-134112000D01*
X77978000Y-134641482D01*
X77721805Y-135024906D01*
X77549727Y-135890000D01*
X77721805Y-136755094D01*
X78211841Y-137488486D01*
X78945233Y-137978522D01*
X79810327Y-138150600D01*
X80209673Y-138150600D01*
X80899000Y-138013484D01*
X80899000Y-144672400D01*
X80688475Y-144882558D01*
X80353282Y-145689792D01*
X80352519Y-146563853D01*
X80686303Y-147371671D01*
X81303818Y-147990265D01*
X82111052Y-148325458D01*
X82985113Y-148326221D01*
X83272578Y-148207443D01*
X83375449Y-148361400D01*
X80356688Y-148361400D01*
X79674987Y-147341164D01*
X78654008Y-146658967D01*
X77449680Y-146419411D01*
X76245352Y-146658967D01*
X75224373Y-147341164D01*
X74542176Y-148362143D01*
X74302620Y-149566471D01*
X74302620Y-151220329D01*
X74542176Y-152424657D01*
X75224373Y-153445636D01*
X76245352Y-154127833D01*
X77449680Y-154367389D01*
X78654008Y-154127833D01*
X79674987Y-153445636D01*
X80356688Y-152425400D01*
X84740772Y-152425400D01*
X85422473Y-153445636D01*
X86443452Y-154127833D01*
X87647780Y-154367389D01*
X88852108Y-154127833D01*
X89873087Y-153445636D01*
X90555284Y-152424657D01*
X90794840Y-151220329D01*
X90794840Y-149566471D01*
X90555284Y-148362143D01*
X89873087Y-147341164D01*
X88852108Y-146658967D01*
X87647780Y-146419411D01*
X87246138Y-146499303D01*
X87246841Y-145693627D01*
X87081360Y-145293133D01*
X87081360Y-137199340D01*
X87378195Y-136755094D01*
X87550273Y-135890000D01*
X87378195Y-135024906D01*
X86888159Y-134291514D01*
X86619497Y-134112000D01*
X99568000Y-134112000D01*
X99568000Y-134641482D01*
X99311805Y-135024906D01*
X99139727Y-135890000D01*
X99311805Y-136755094D01*
X99801841Y-137488486D01*
X100535233Y-137978522D01*
X101400327Y-138150600D01*
X101799673Y-138150600D01*
X102489000Y-138013484D01*
X102489000Y-144672400D01*
X102278475Y-144882558D01*
X101943282Y-145689792D01*
X101942519Y-146563853D01*
X102276303Y-147371671D01*
X102893818Y-147990265D01*
X103701052Y-148325458D01*
X104575113Y-148326221D01*
X104862578Y-148207443D01*
X104965449Y-148361400D01*
X101946688Y-148361400D01*
X101264987Y-147341164D01*
X100244008Y-146658967D01*
X99039680Y-146419411D01*
X97835352Y-146658967D01*
X96814373Y-147341164D01*
X96132176Y-148362143D01*
X95892620Y-149566471D01*
X95892620Y-151220329D01*
X96132176Y-152424657D01*
X96814373Y-153445636D01*
X97835352Y-154127833D01*
X99039680Y-154367389D01*
X100244008Y-154127833D01*
X101264987Y-153445636D01*
X101946688Y-152425400D01*
X106330772Y-152425400D01*
X107012473Y-153445636D01*
X108033452Y-154127833D01*
X109237780Y-154367389D01*
X110442108Y-154127833D01*
X111463087Y-153445636D01*
X112145284Y-152424657D01*
X112384840Y-151220329D01*
X112384840Y-149566471D01*
X112145284Y-148362143D01*
X111463087Y-147341164D01*
X110442108Y-146658967D01*
X109237780Y-146419411D01*
X108836138Y-146499303D01*
X108836841Y-145693627D01*
X108671360Y-145293133D01*
X108671360Y-137199340D01*
X108968195Y-136755094D01*
X109140273Y-135890000D01*
X108968195Y-135024906D01*
X108478159Y-134291514D01*
X108209497Y-134112000D01*
X122428000Y-134112000D01*
X122428000Y-134641482D01*
X122171805Y-135024906D01*
X121999727Y-135890000D01*
X122171805Y-136755094D01*
X122661841Y-137488486D01*
X123395233Y-137978522D01*
X124260327Y-138150600D01*
X124659673Y-138150600D01*
X125349000Y-138013484D01*
X125349000Y-144672400D01*
X125138475Y-144882558D01*
X124803282Y-145689792D01*
X124802519Y-146563853D01*
X125136303Y-147371671D01*
X125753818Y-147990265D01*
X126561052Y-148325458D01*
X127435113Y-148326221D01*
X127722578Y-148207443D01*
X127825449Y-148361400D01*
X124806688Y-148361400D01*
X124124987Y-147341164D01*
X123104008Y-146658967D01*
X121899680Y-146419411D01*
X120695352Y-146658967D01*
X119674373Y-147341164D01*
X118992176Y-148362143D01*
X118752620Y-149566471D01*
X118752620Y-151220329D01*
X118992176Y-152424657D01*
X119674373Y-153445636D01*
X120695352Y-154127833D01*
X121899680Y-154367389D01*
X123104008Y-154127833D01*
X124124987Y-153445636D01*
X124806688Y-152425400D01*
X129190772Y-152425400D01*
X129872473Y-153445636D01*
X130893452Y-154127833D01*
X132097780Y-154367389D01*
X133302108Y-154127833D01*
X134323087Y-153445636D01*
X135005284Y-152424657D01*
X135244840Y-151220329D01*
X135244840Y-149566471D01*
X135005284Y-148362143D01*
X134323087Y-147341164D01*
X133302108Y-146658967D01*
X132097780Y-146419411D01*
X131696138Y-146499303D01*
X131696841Y-145693627D01*
X131531360Y-145293133D01*
X131531360Y-137199340D01*
X131828195Y-136755094D01*
X132000273Y-135890000D01*
X131828195Y-135024906D01*
X131338159Y-134291514D01*
X131069497Y-134112000D01*
X144018000Y-134112000D01*
X144018000Y-134641482D01*
X143761805Y-135024906D01*
X143589727Y-135890000D01*
X143761805Y-136755094D01*
X144251841Y-137488486D01*
X144985233Y-137978522D01*
X145850327Y-138150600D01*
X146249673Y-138150600D01*
X146939000Y-138013484D01*
X146939000Y-144672400D01*
X146728475Y-144882558D01*
X146393282Y-145689792D01*
X146392519Y-146563853D01*
X146726303Y-147371671D01*
X147343818Y-147990265D01*
X148151052Y-148325458D01*
X149025113Y-148326221D01*
X149312578Y-148207443D01*
X149415449Y-148361400D01*
X146396688Y-148361400D01*
X145714987Y-147341164D01*
X144694008Y-146658967D01*
X143489680Y-146419411D01*
X142285352Y-146658967D01*
X141264373Y-147341164D01*
X140582176Y-148362143D01*
X140342620Y-149566471D01*
X140342620Y-151220329D01*
X140582176Y-152424657D01*
X141264373Y-153445636D01*
X142285352Y-154127833D01*
X143489680Y-154367389D01*
X144694008Y-154127833D01*
X145714987Y-153445636D01*
X146396688Y-152425400D01*
X150780772Y-152425400D01*
X151462473Y-153445636D01*
X152483452Y-154127833D01*
X153687780Y-154367389D01*
X154892108Y-154127833D01*
X155913087Y-153445636D01*
X156595284Y-152424657D01*
X156834840Y-151220329D01*
X156834840Y-149566471D01*
X156595284Y-148362143D01*
X155913087Y-147341164D01*
X154892108Y-146658967D01*
X153687780Y-146419411D01*
X153286138Y-146499303D01*
X153286841Y-145693627D01*
X153121360Y-145293133D01*
X153121360Y-137199340D01*
X153418195Y-136755094D01*
X153590273Y-135890000D01*
X153418195Y-135024906D01*
X152928159Y-134291514D01*
X152659497Y-134112000D01*
X156210000Y-134112000D01*
X156987613Y-133957323D01*
X157646841Y-133516841D01*
X161456841Y-129706841D01*
X161897323Y-129047613D01*
X162052000Y-128270000D01*
X162052000Y-105734637D01*
X162182148Y-105544159D01*
X162294368Y-104990000D01*
X162294368Y-103290000D01*
X162196957Y-102772303D01*
X161890998Y-102296830D01*
X161446478Y-101993102D01*
X161461476Y-101956890D01*
X161340155Y-101727000D01*
X160147000Y-101727000D01*
X160147000Y-101747000D01*
X159893000Y-101747000D01*
X159893000Y-101727000D01*
X158699845Y-101727000D01*
X158578524Y-101956890D01*
X158596062Y-101999233D01*
X158176830Y-102269002D01*
X157857852Y-102735841D01*
X157745632Y-103290000D01*
X157745632Y-104990000D01*
X157843043Y-105507697D01*
X157988000Y-105732966D01*
X157988000Y-127428318D01*
X155368318Y-130048000D01*
X75771682Y-130048000D01*
X73152000Y-127428318D01*
X73152000Y-118469026D01*
X78402642Y-118469026D01*
X78405291Y-118484791D01*
X78659268Y-119012036D01*
X79095680Y-119401954D01*
X79648087Y-119595184D01*
X79883000Y-119450924D01*
X79883000Y-118237000D01*
X78523783Y-118237000D01*
X78402642Y-118469026D01*
X73152000Y-118469026D01*
X73152000Y-117750974D01*
X78402642Y-117750974D01*
X78523783Y-117983000D01*
X79883000Y-117983000D01*
X79883000Y-116769076D01*
X79648087Y-116624816D01*
X79095680Y-116818046D01*
X78659268Y-117207964D01*
X78405291Y-117735209D01*
X78402642Y-117750974D01*
X73152000Y-117750974D01*
X73152000Y-107521682D01*
X74259314Y-106414368D01*
X74510000Y-106414368D01*
X75027697Y-106316957D01*
X75252966Y-106172000D01*
X78129571Y-106172000D01*
X78132677Y-106187613D01*
X78573159Y-106846841D01*
X81113159Y-109386841D01*
X81772387Y-109827323D01*
X82550000Y-109982000D01*
X90170000Y-109982000D01*
X90947613Y-109827323D01*
X91219440Y-109645694D01*
X90756134Y-110109000D01*
X85090000Y-110109000D01*
X84458190Y-110234675D01*
X84458188Y-110234676D01*
X84458189Y-110234676D01*
X83922566Y-110592567D01*
X81382567Y-113132567D01*
X81024675Y-113668189D01*
X81024675Y-113668190D01*
X80899000Y-114300000D01*
X80899000Y-116413186D01*
X80751841Y-116511514D01*
X80618501Y-116711072D01*
X80371913Y-116624816D01*
X80137000Y-116769076D01*
X80137000Y-117872343D01*
X80089727Y-118110000D01*
X80137000Y-118347657D01*
X80137000Y-119450924D01*
X80371913Y-119595184D01*
X80618501Y-119508928D01*
X80751841Y-119708486D01*
X81485233Y-120198522D01*
X82350327Y-120370600D01*
X82749673Y-120370600D01*
X83614767Y-120198522D01*
X83820000Y-120061390D01*
X84025233Y-120198522D01*
X84890327Y-120370600D01*
X85289673Y-120370600D01*
X86154767Y-120198522D01*
X86888159Y-119708486D01*
X87378195Y-118975094D01*
X87478858Y-118469026D01*
X99992642Y-118469026D01*
X99995291Y-118484791D01*
X100249268Y-119012036D01*
X100685680Y-119401954D01*
X101238087Y-119595184D01*
X101473000Y-119450924D01*
X101473000Y-118237000D01*
X100113783Y-118237000D01*
X99992642Y-118469026D01*
X87478858Y-118469026D01*
X87550273Y-118110000D01*
X87478859Y-117750974D01*
X99992642Y-117750974D01*
X100113783Y-117983000D01*
X101473000Y-117983000D01*
X101473000Y-116769076D01*
X101238087Y-116624816D01*
X100685680Y-116818046D01*
X100249268Y-117207964D01*
X99995291Y-117735209D01*
X99992642Y-117750974D01*
X87478859Y-117750974D01*
X87378195Y-117244906D01*
X86888159Y-116511514D01*
X86741000Y-116413186D01*
X86741000Y-116253866D01*
X87043866Y-115951000D01*
X99060000Y-115951000D01*
X99691811Y-115825325D01*
X100227433Y-115467433D01*
X101873449Y-113821417D01*
X102106737Y-114386018D01*
X102489000Y-114768948D01*
X102489000Y-116413186D01*
X102341841Y-116511514D01*
X102208501Y-116711072D01*
X101961913Y-116624816D01*
X101727000Y-116769076D01*
X101727000Y-117872343D01*
X101679727Y-118110000D01*
X101727000Y-118347657D01*
X101727000Y-119450924D01*
X101961913Y-119595184D01*
X102208501Y-119508928D01*
X102341841Y-119708486D01*
X103075233Y-120198522D01*
X103940327Y-120370600D01*
X104339673Y-120370600D01*
X105204767Y-120198522D01*
X105410000Y-120061390D01*
X105615233Y-120198522D01*
X106480327Y-120370600D01*
X106879673Y-120370600D01*
X107744767Y-120198522D01*
X108478159Y-119708486D01*
X108968195Y-118975094D01*
X109068858Y-118469026D01*
X122852642Y-118469026D01*
X122855291Y-118484791D01*
X123109268Y-119012036D01*
X123545680Y-119401954D01*
X124098087Y-119595184D01*
X124333000Y-119450924D01*
X124333000Y-118237000D01*
X122973783Y-118237000D01*
X122852642Y-118469026D01*
X109068858Y-118469026D01*
X109140273Y-118110000D01*
X109068859Y-117750974D01*
X122852642Y-117750974D01*
X122973783Y-117983000D01*
X124333000Y-117983000D01*
X124333000Y-116769076D01*
X124098087Y-116624816D01*
X123545680Y-116818046D01*
X123109268Y-117207964D01*
X122855291Y-117735209D01*
X122852642Y-117750974D01*
X109068859Y-117750974D01*
X108968195Y-117244906D01*
X108478159Y-116511514D01*
X108331000Y-116413186D01*
X108331000Y-110871000D01*
X125948289Y-110871000D01*
X125643982Y-110996737D01*
X124969107Y-111670436D01*
X124603417Y-112551115D01*
X124602585Y-113504701D01*
X124966737Y-114386018D01*
X125349000Y-114768948D01*
X125349000Y-116413186D01*
X125201841Y-116511514D01*
X125068501Y-116711072D01*
X124821913Y-116624816D01*
X124587000Y-116769076D01*
X124587000Y-117872343D01*
X124539727Y-118110000D01*
X124587000Y-118347657D01*
X124587000Y-119450924D01*
X124821913Y-119595184D01*
X125068501Y-119508928D01*
X125201841Y-119708486D01*
X125935233Y-120198522D01*
X126800327Y-120370600D01*
X127199673Y-120370600D01*
X128064767Y-120198522D01*
X128270000Y-120061390D01*
X128475233Y-120198522D01*
X129340327Y-120370600D01*
X129739673Y-120370600D01*
X130604767Y-120198522D01*
X131338159Y-119708486D01*
X131828195Y-118975094D01*
X131928858Y-118469026D01*
X144442642Y-118469026D01*
X144445291Y-118484791D01*
X144699268Y-119012036D01*
X145135680Y-119401954D01*
X145688087Y-119595184D01*
X145923000Y-119450924D01*
X145923000Y-118237000D01*
X144563783Y-118237000D01*
X144442642Y-118469026D01*
X131928858Y-118469026D01*
X132000273Y-118110000D01*
X131928859Y-117750974D01*
X144442642Y-117750974D01*
X144563783Y-117983000D01*
X145923000Y-117983000D01*
X145923000Y-116769076D01*
X145688087Y-116624816D01*
X145135680Y-116818046D01*
X144699268Y-117207964D01*
X144445291Y-117735209D01*
X144442642Y-117750974D01*
X131928859Y-117750974D01*
X131828195Y-117244906D01*
X131338159Y-116511514D01*
X131191000Y-116413186D01*
X131191000Y-110871000D01*
X147538289Y-110871000D01*
X147233982Y-110996737D01*
X146559107Y-111670436D01*
X146193417Y-112551115D01*
X146192585Y-113504701D01*
X146556737Y-114386018D01*
X146939000Y-114768948D01*
X146939000Y-116413186D01*
X146791841Y-116511514D01*
X146658501Y-116711072D01*
X146411913Y-116624816D01*
X146177000Y-116769076D01*
X146177000Y-117872343D01*
X146129727Y-118110000D01*
X146177000Y-118347657D01*
X146177000Y-119450924D01*
X146411913Y-119595184D01*
X146658501Y-119508928D01*
X146791841Y-119708486D01*
X147525233Y-120198522D01*
X148390327Y-120370600D01*
X148789673Y-120370600D01*
X149654767Y-120198522D01*
X149860000Y-120061390D01*
X150065233Y-120198522D01*
X150930327Y-120370600D01*
X151329673Y-120370600D01*
X152194767Y-120198522D01*
X152928159Y-119708486D01*
X153418195Y-118975094D01*
X153590273Y-118110000D01*
X153418195Y-117244906D01*
X152928159Y-116511514D01*
X152781000Y-116413186D01*
X152781000Y-107363866D01*
X157377433Y-102767433D01*
X157735325Y-102231810D01*
X157861000Y-101600000D01*
X157861000Y-99723713D01*
X157900022Y-99919890D01*
X158387110Y-100648869D01*
X158729809Y-100877853D01*
X158578524Y-101243110D01*
X158699845Y-101473000D01*
X159893000Y-101473000D01*
X159893000Y-101453000D01*
X160147000Y-101453000D01*
X160147000Y-101473000D01*
X161340155Y-101473000D01*
X161461476Y-101243110D01*
X161310191Y-100877853D01*
X161652890Y-100648869D01*
X161660636Y-100637276D01*
X161921811Y-100585325D01*
X162457433Y-100227433D01*
X163727433Y-98957433D01*
X163945500Y-98631073D01*
X163945500Y-156960500D01*
X67829500Y-156960500D01*
X67829500Y-91324500D01*
X155368927Y-91324500D01*
X155042567Y-91542566D01*
X155042567Y-91542566D01*
G37*
X155042567Y-91542566D02*
X151232567Y-95352567D01*
X150874675Y-95888189D01*
X150799787Y-96264675D01*
X150749000Y-96520000D01*
X150749000Y-100916133D01*
X147422567Y-104242567D01*
X147064675Y-104778189D01*
X147064675Y-104778190D01*
X147055353Y-104825055D01*
X146851052Y-105029000D01*
X128738795Y-105029000D01*
X128359564Y-104649107D01*
X127478885Y-104283417D01*
X126525299Y-104282585D01*
X125643982Y-104646737D01*
X125261052Y-105029000D01*
X105878795Y-105029000D01*
X105791000Y-104941052D01*
X105791000Y-99060000D01*
X105665325Y-98428190D01*
X105307433Y-97892567D01*
X100227433Y-92812567D01*
X99691811Y-92454675D01*
X99060000Y-92329000D01*
X71120000Y-92329000D01*
X70593013Y-92433824D01*
X70488189Y-92454675D01*
X69952567Y-92812567D01*
X68682567Y-94082567D01*
X68324675Y-94618189D01*
X68262427Y-94931131D01*
X68199000Y-95250000D01*
X68199000Y-97790000D01*
X68324675Y-98421811D01*
X68682567Y-98957433D01*
X69952567Y-100227433D01*
X70488189Y-100585325D01*
X70593013Y-100606176D01*
X71120000Y-100711000D01*
X72120096Y-100711000D01*
X72369809Y-100877853D01*
X72218524Y-101243110D01*
X72339845Y-101473000D01*
X73533000Y-101473000D01*
X73533000Y-101453000D01*
X73787000Y-101453000D01*
X73787000Y-101473000D01*
X74980155Y-101473000D01*
X75101476Y-101243110D01*
X74950191Y-100877853D01*
X75199904Y-100711000D01*
X85979000Y-100711000D01*
X85979000Y-102401926D01*
X85599539Y-102780725D01*
X85233927Y-103661217D01*
X85233095Y-104614600D01*
X85597170Y-105495729D01*
X86018704Y-105918000D01*
X83391682Y-105918000D01*
X82314059Y-104840377D01*
X82406073Y-104618783D01*
X82406905Y-103665400D01*
X82042830Y-102784271D01*
X81369275Y-102109539D01*
X80488783Y-101743927D01*
X79535400Y-101743095D01*
X78654271Y-102107170D01*
X78653440Y-102108000D01*
X75254637Y-102108000D01*
X75086478Y-101993102D01*
X75101476Y-101956890D01*
X74980155Y-101727000D01*
X73787000Y-101727000D01*
X73787000Y-101747000D01*
X73533000Y-101747000D01*
X73533000Y-101727000D01*
X72339845Y-101727000D01*
X72218524Y-101956890D01*
X72236062Y-101999233D01*
X71816830Y-102269002D01*
X71497852Y-102735841D01*
X71385632Y-103290000D01*
X71385632Y-103540686D01*
X69683159Y-105243159D01*
X69242677Y-105902387D01*
X69088000Y-106680000D01*
X69088000Y-128270000D01*
X69242677Y-129047613D01*
X69683159Y-129706841D01*
X73493159Y-133516841D01*
X74152387Y-133957323D01*
X74930000Y-134112000D01*
X77978000Y-134112000D01*
X77978000Y-134641482D01*
X77721805Y-135024906D01*
X77549727Y-135890000D01*
X77721805Y-136755094D01*
X78211841Y-137488486D01*
X78945233Y-137978522D01*
X79810327Y-138150600D01*
X80209673Y-138150600D01*
X80899000Y-138013484D01*
X80899000Y-144672400D01*
X80688475Y-144882558D01*
X80353282Y-145689792D01*
X80352519Y-146563853D01*
X80686303Y-147371671D01*
X81303818Y-147990265D01*
X82111052Y-148325458D01*
X82985113Y-148326221D01*
X83272578Y-148207443D01*
X83375449Y-148361400D01*
X80356688Y-148361400D01*
X79674987Y-147341164D01*
X78654008Y-146658967D01*
X77449680Y-146419411D01*
X76245352Y-146658967D01*
X75224373Y-147341164D01*
X74542176Y-148362143D01*
X74302620Y-149566471D01*
X74302620Y-151220329D01*
X74542176Y-152424657D01*
X75224373Y-153445636D01*
X76245352Y-154127833D01*
X77449680Y-154367389D01*
X78654008Y-154127833D01*
X79674987Y-153445636D01*
X80356688Y-152425400D01*
X84740772Y-152425400D01*
X85422473Y-153445636D01*
X86443452Y-154127833D01*
X87647780Y-154367389D01*
X88852108Y-154127833D01*
X89873087Y-153445636D01*
X90555284Y-152424657D01*
X90794840Y-151220329D01*
X90794840Y-149566471D01*
X90555284Y-148362143D01*
X89873087Y-147341164D01*
X88852108Y-146658967D01*
X87647780Y-146419411D01*
X87246138Y-146499303D01*
X87246841Y-145693627D01*
X87081360Y-145293133D01*
X87081360Y-137199340D01*
X87378195Y-136755094D01*
X87550273Y-135890000D01*
X87378195Y-135024906D01*
X86888159Y-134291514D01*
X86619497Y-134112000D01*
X99568000Y-134112000D01*
X99568000Y-134641482D01*
X99311805Y-135024906D01*
X99139727Y-135890000D01*
X99311805Y-136755094D01*
X99801841Y-137488486D01*
X100535233Y-137978522D01*
X101400327Y-138150600D01*
X101799673Y-138150600D01*
X102489000Y-138013484D01*
X102489000Y-144672400D01*
X102278475Y-144882558D01*
X101943282Y-145689792D01*
X101942519Y-146563853D01*
X102276303Y-147371671D01*
X102893818Y-147990265D01*
X103701052Y-148325458D01*
X104575113Y-148326221D01*
X104862578Y-148207443D01*
X104965449Y-148361400D01*
X101946688Y-148361400D01*
X101264987Y-147341164D01*
X100244008Y-146658967D01*
X99039680Y-146419411D01*
X97835352Y-146658967D01*
X96814373Y-147341164D01*
X96132176Y-148362143D01*
X95892620Y-149566471D01*
X95892620Y-151220329D01*
X96132176Y-152424657D01*
X96814373Y-153445636D01*
X97835352Y-154127833D01*
X99039680Y-154367389D01*
X100244008Y-154127833D01*
X101264987Y-153445636D01*
X101946688Y-152425400D01*
X106330772Y-152425400D01*
X107012473Y-153445636D01*
X108033452Y-154127833D01*
X109237780Y-154367389D01*
X110442108Y-154127833D01*
X111463087Y-153445636D01*
X112145284Y-152424657D01*
X112384840Y-151220329D01*
X112384840Y-149566471D01*
X112145284Y-148362143D01*
X111463087Y-147341164D01*
X110442108Y-146658967D01*
X109237780Y-146419411D01*
X108836138Y-146499303D01*
X108836841Y-145693627D01*
X108671360Y-145293133D01*
X108671360Y-137199340D01*
X108968195Y-136755094D01*
X109140273Y-135890000D01*
X108968195Y-135024906D01*
X108478159Y-134291514D01*
X108209497Y-134112000D01*
X122428000Y-134112000D01*
X122428000Y-134641482D01*
X122171805Y-135024906D01*
X121999727Y-135890000D01*
X122171805Y-136755094D01*
X122661841Y-137488486D01*
X123395233Y-137978522D01*
X124260327Y-138150600D01*
X124659673Y-138150600D01*
X125349000Y-138013484D01*
X125349000Y-144672400D01*
X125138475Y-144882558D01*
X124803282Y-145689792D01*
X124802519Y-146563853D01*
X125136303Y-147371671D01*
X125753818Y-147990265D01*
X126561052Y-148325458D01*
X127435113Y-148326221D01*
X127722578Y-148207443D01*
X127825449Y-148361400D01*
X124806688Y-148361400D01*
X124124987Y-147341164D01*
X123104008Y-146658967D01*
X121899680Y-146419411D01*
X120695352Y-146658967D01*
X119674373Y-147341164D01*
X118992176Y-148362143D01*
X118752620Y-149566471D01*
X118752620Y-151220329D01*
X118992176Y-152424657D01*
X119674373Y-153445636D01*
X120695352Y-154127833D01*
X121899680Y-154367389D01*
X123104008Y-154127833D01*
X124124987Y-153445636D01*
X124806688Y-152425400D01*
X129190772Y-152425400D01*
X129872473Y-153445636D01*
X130893452Y-154127833D01*
X132097780Y-154367389D01*
X133302108Y-154127833D01*
X134323087Y-153445636D01*
X135005284Y-152424657D01*
X135244840Y-151220329D01*
X135244840Y-149566471D01*
X135005284Y-148362143D01*
X134323087Y-147341164D01*
X133302108Y-146658967D01*
X132097780Y-146419411D01*
X131696138Y-146499303D01*
X131696841Y-145693627D01*
X131531360Y-145293133D01*
X131531360Y-137199340D01*
X131828195Y-136755094D01*
X132000273Y-135890000D01*
X131828195Y-135024906D01*
X131338159Y-134291514D01*
X131069497Y-134112000D01*
X144018000Y-134112000D01*
X144018000Y-134641482D01*
X143761805Y-135024906D01*
X143589727Y-135890000D01*
X143761805Y-136755094D01*
X144251841Y-137488486D01*
X144985233Y-137978522D01*
X145850327Y-138150600D01*
X146249673Y-138150600D01*
X146939000Y-138013484D01*
X146939000Y-144672400D01*
X146728475Y-144882558D01*
X146393282Y-145689792D01*
X146392519Y-146563853D01*
X146726303Y-147371671D01*
X147343818Y-147990265D01*
X148151052Y-148325458D01*
X149025113Y-148326221D01*
X149312578Y-148207443D01*
X149415449Y-148361400D01*
X146396688Y-148361400D01*
X145714987Y-147341164D01*
X144694008Y-146658967D01*
X143489680Y-146419411D01*
X142285352Y-146658967D01*
X141264373Y-147341164D01*
X140582176Y-148362143D01*
X140342620Y-149566471D01*
X140342620Y-151220329D01*
X140582176Y-152424657D01*
X141264373Y-153445636D01*
X142285352Y-154127833D01*
X143489680Y-154367389D01*
X144694008Y-154127833D01*
X145714987Y-153445636D01*
X146396688Y-152425400D01*
X150780772Y-152425400D01*
X151462473Y-153445636D01*
X152483452Y-154127833D01*
X153687780Y-154367389D01*
X154892108Y-154127833D01*
X155913087Y-153445636D01*
X156595284Y-152424657D01*
X156834840Y-151220329D01*
X156834840Y-149566471D01*
X156595284Y-148362143D01*
X155913087Y-147341164D01*
X154892108Y-146658967D01*
X153687780Y-146419411D01*
X153286138Y-146499303D01*
X153286841Y-145693627D01*
X153121360Y-145293133D01*
X153121360Y-137199340D01*
X153418195Y-136755094D01*
X153590273Y-135890000D01*
X153418195Y-135024906D01*
X152928159Y-134291514D01*
X152659497Y-134112000D01*
X156210000Y-134112000D01*
X156987613Y-133957323D01*
X157646841Y-133516841D01*
X161456841Y-129706841D01*
X161897323Y-129047613D01*
X162052000Y-128270000D01*
X162052000Y-105734637D01*
X162182148Y-105544159D01*
X162294368Y-104990000D01*
X162294368Y-103290000D01*
X162196957Y-102772303D01*
X161890998Y-102296830D01*
X161446478Y-101993102D01*
X161461476Y-101956890D01*
X161340155Y-101727000D01*
X160147000Y-101727000D01*
X160147000Y-101747000D01*
X159893000Y-101747000D01*
X159893000Y-101727000D01*
X158699845Y-101727000D01*
X158578524Y-101956890D01*
X158596062Y-101999233D01*
X158176830Y-102269002D01*
X157857852Y-102735841D01*
X157745632Y-103290000D01*
X157745632Y-104990000D01*
X157843043Y-105507697D01*
X157988000Y-105732966D01*
X157988000Y-127428318D01*
X155368318Y-130048000D01*
X75771682Y-130048000D01*
X73152000Y-127428318D01*
X73152000Y-118469026D01*
X78402642Y-118469026D01*
X78405291Y-118484791D01*
X78659268Y-119012036D01*
X79095680Y-119401954D01*
X79648087Y-119595184D01*
X79883000Y-119450924D01*
X79883000Y-118237000D01*
X78523783Y-118237000D01*
X78402642Y-118469026D01*
X73152000Y-118469026D01*
X73152000Y-117750974D01*
X78402642Y-117750974D01*
X78523783Y-117983000D01*
X79883000Y-117983000D01*
X79883000Y-116769076D01*
X79648087Y-116624816D01*
X79095680Y-116818046D01*
X78659268Y-117207964D01*
X78405291Y-117735209D01*
X78402642Y-117750974D01*
X73152000Y-117750974D01*
X73152000Y-107521682D01*
X74259314Y-106414368D01*
X74510000Y-106414368D01*
X75027697Y-106316957D01*
X75252966Y-106172000D01*
X78129571Y-106172000D01*
X78132677Y-106187613D01*
X78573159Y-106846841D01*
X81113159Y-109386841D01*
X81772387Y-109827323D01*
X82550000Y-109982000D01*
X90170000Y-109982000D01*
X90947613Y-109827323D01*
X91219440Y-109645694D01*
X90756134Y-110109000D01*
X85090000Y-110109000D01*
X84458190Y-110234675D01*
X84458188Y-110234676D01*
X84458189Y-110234676D01*
X83922566Y-110592567D01*
X81382567Y-113132567D01*
X81024675Y-113668189D01*
X81024675Y-113668190D01*
X80899000Y-114300000D01*
X80899000Y-116413186D01*
X80751841Y-116511514D01*
X80618501Y-116711072D01*
X80371913Y-116624816D01*
X80137000Y-116769076D01*
X80137000Y-117872343D01*
X80089727Y-118110000D01*
X80137000Y-118347657D01*
X80137000Y-119450924D01*
X80371913Y-119595184D01*
X80618501Y-119508928D01*
X80751841Y-119708486D01*
X81485233Y-120198522D01*
X82350327Y-120370600D01*
X82749673Y-120370600D01*
X83614767Y-120198522D01*
X83820000Y-120061390D01*
X84025233Y-120198522D01*
X84890327Y-120370600D01*
X85289673Y-120370600D01*
X86154767Y-120198522D01*
X86888159Y-119708486D01*
X87378195Y-118975094D01*
X87478858Y-118469026D01*
X99992642Y-118469026D01*
X99995291Y-118484791D01*
X100249268Y-119012036D01*
X100685680Y-119401954D01*
X101238087Y-119595184D01*
X101473000Y-119450924D01*
X101473000Y-118237000D01*
X100113783Y-118237000D01*
X99992642Y-118469026D01*
X87478858Y-118469026D01*
X87550273Y-118110000D01*
X87478859Y-117750974D01*
X99992642Y-117750974D01*
X100113783Y-117983000D01*
X101473000Y-117983000D01*
X101473000Y-116769076D01*
X101238087Y-116624816D01*
X100685680Y-116818046D01*
X100249268Y-117207964D01*
X99995291Y-117735209D01*
X99992642Y-117750974D01*
X87478859Y-117750974D01*
X87378195Y-117244906D01*
X86888159Y-116511514D01*
X86741000Y-116413186D01*
X86741000Y-116253866D01*
X87043866Y-115951000D01*
X99060000Y-115951000D01*
X99691811Y-115825325D01*
X100227433Y-115467433D01*
X101873449Y-113821417D01*
X102106737Y-114386018D01*
X102489000Y-114768948D01*
X102489000Y-116413186D01*
X102341841Y-116511514D01*
X102208501Y-116711072D01*
X101961913Y-116624816D01*
X101727000Y-116769076D01*
X101727000Y-117872343D01*
X101679727Y-118110000D01*
X101727000Y-118347657D01*
X101727000Y-119450924D01*
X101961913Y-119595184D01*
X102208501Y-119508928D01*
X102341841Y-119708486D01*
X103075233Y-120198522D01*
X103940327Y-120370600D01*
X104339673Y-120370600D01*
X105204767Y-120198522D01*
X105410000Y-120061390D01*
X105615233Y-120198522D01*
X106480327Y-120370600D01*
X106879673Y-120370600D01*
X107744767Y-120198522D01*
X108478159Y-119708486D01*
X108968195Y-118975094D01*
X109068858Y-118469026D01*
X122852642Y-118469026D01*
X122855291Y-118484791D01*
X123109268Y-119012036D01*
X123545680Y-119401954D01*
X124098087Y-119595184D01*
X124333000Y-119450924D01*
X124333000Y-118237000D01*
X122973783Y-118237000D01*
X122852642Y-118469026D01*
X109068858Y-118469026D01*
X109140273Y-118110000D01*
X109068859Y-117750974D01*
X122852642Y-117750974D01*
X122973783Y-117983000D01*
X124333000Y-117983000D01*
X124333000Y-116769076D01*
X124098087Y-116624816D01*
X123545680Y-116818046D01*
X123109268Y-117207964D01*
X122855291Y-117735209D01*
X122852642Y-117750974D01*
X109068859Y-117750974D01*
X108968195Y-117244906D01*
X108478159Y-116511514D01*
X108331000Y-116413186D01*
X108331000Y-110871000D01*
X125948289Y-110871000D01*
X125643982Y-110996737D01*
X124969107Y-111670436D01*
X124603417Y-112551115D01*
X124602585Y-113504701D01*
X124966737Y-114386018D01*
X125349000Y-114768948D01*
X125349000Y-116413186D01*
X125201841Y-116511514D01*
X125068501Y-116711072D01*
X124821913Y-116624816D01*
X124587000Y-116769076D01*
X124587000Y-117872343D01*
X124539727Y-118110000D01*
X124587000Y-118347657D01*
X124587000Y-119450924D01*
X124821913Y-119595184D01*
X125068501Y-119508928D01*
X125201841Y-119708486D01*
X125935233Y-120198522D01*
X126800327Y-120370600D01*
X127199673Y-120370600D01*
X128064767Y-120198522D01*
X128270000Y-120061390D01*
X128475233Y-120198522D01*
X129340327Y-120370600D01*
X129739673Y-120370600D01*
X130604767Y-120198522D01*
X131338159Y-119708486D01*
X131828195Y-118975094D01*
X131928858Y-118469026D01*
X144442642Y-118469026D01*
X144445291Y-118484791D01*
X144699268Y-119012036D01*
X145135680Y-119401954D01*
X145688087Y-119595184D01*
X145923000Y-119450924D01*
X145923000Y-118237000D01*
X144563783Y-118237000D01*
X144442642Y-118469026D01*
X131928858Y-118469026D01*
X132000273Y-118110000D01*
X131928859Y-117750974D01*
X144442642Y-117750974D01*
X144563783Y-117983000D01*
X145923000Y-117983000D01*
X145923000Y-116769076D01*
X145688087Y-116624816D01*
X145135680Y-116818046D01*
X144699268Y-117207964D01*
X144445291Y-117735209D01*
X144442642Y-117750974D01*
X131928859Y-117750974D01*
X131828195Y-117244906D01*
X131338159Y-116511514D01*
X131191000Y-116413186D01*
X131191000Y-110871000D01*
X147538289Y-110871000D01*
X147233982Y-110996737D01*
X146559107Y-111670436D01*
X146193417Y-112551115D01*
X146192585Y-113504701D01*
X146556737Y-114386018D01*
X146939000Y-114768948D01*
X146939000Y-116413186D01*
X146791841Y-116511514D01*
X146658501Y-116711072D01*
X146411913Y-116624816D01*
X146177000Y-116769076D01*
X146177000Y-117872343D01*
X146129727Y-118110000D01*
X146177000Y-118347657D01*
X146177000Y-119450924D01*
X146411913Y-119595184D01*
X146658501Y-119508928D01*
X146791841Y-119708486D01*
X147525233Y-120198522D01*
X148390327Y-120370600D01*
X148789673Y-120370600D01*
X149654767Y-120198522D01*
X149860000Y-120061390D01*
X150065233Y-120198522D01*
X150930327Y-120370600D01*
X151329673Y-120370600D01*
X152194767Y-120198522D01*
X152928159Y-119708486D01*
X153418195Y-118975094D01*
X153590273Y-118110000D01*
X153418195Y-117244906D01*
X152928159Y-116511514D01*
X152781000Y-116413186D01*
X152781000Y-107363866D01*
X157377433Y-102767433D01*
X157735325Y-102231810D01*
X157861000Y-101600000D01*
X157861000Y-99723713D01*
X157900022Y-99919890D01*
X158387110Y-100648869D01*
X158729809Y-100877853D01*
X158578524Y-101243110D01*
X158699845Y-101473000D01*
X159893000Y-101473000D01*
X159893000Y-101453000D01*
X160147000Y-101453000D01*
X160147000Y-101473000D01*
X161340155Y-101473000D01*
X161461476Y-101243110D01*
X161310191Y-100877853D01*
X161652890Y-100648869D01*
X161660636Y-100637276D01*
X161921811Y-100585325D01*
X162457433Y-100227433D01*
X163727433Y-98957433D01*
X163945500Y-98631073D01*
X163945500Y-156960500D01*
X67829500Y-156960500D01*
X67829500Y-91324500D01*
X155368927Y-91324500D01*
X155042567Y-91542566D01*
M02*
