G04 #@! TF.FileFunction,Copper,L1,Top,Signal*
%FSLAX46Y46*%
G04 Gerber Fmt 4.6, Leading zero omitted, Abs format (unit mm)*
G04 Created by KiCad (PCBNEW 4.0.4-stable) date Tuesday, January 31, 2017 'AMt' 11:40:29 AM*
%MOMM*%
%LPD*%
G01*
G04 APERTURE LIST*
%ADD10C,0.100000*%
%ADD11O,3.500120X5.001260*%
%ADD12C,1.600200*%
%ADD13C,1.998980*%
%ADD14O,2.032000X1.727200*%
%ADD15C,2.000000*%
%ADD16R,1.700000X1.700000*%
%ADD17O,1.700000X1.700000*%
G04 APERTURE END LIST*
D10*
D11*
X132097780Y-150393400D03*
X121899680Y-150393400D03*
D12*
X127000000Y-146128740D03*
X129499360Y-146128740D03*
D11*
X109237780Y-150393400D03*
X99039680Y-150393400D03*
D12*
X104140000Y-146128740D03*
X106639360Y-146128740D03*
D11*
X87647780Y-150393400D03*
X77449680Y-150393400D03*
D12*
X82550000Y-146128740D03*
X85049360Y-146128740D03*
D11*
X153687780Y-150393400D03*
X143489680Y-150393400D03*
D12*
X148590000Y-146128740D03*
X151089360Y-146128740D03*
D13*
X87630000Y-104140000D03*
X80010000Y-104140000D03*
X92710000Y-96520000D03*
X92710000Y-104140000D03*
D14*
X124460000Y-118110000D03*
X129540000Y-118110000D03*
X127000000Y-118110000D03*
X127000000Y-135890000D03*
X124460000Y-135890000D03*
X129540000Y-135890000D03*
X101600000Y-118110000D03*
X106680000Y-118110000D03*
X104140000Y-118110000D03*
X104140000Y-135890000D03*
X101600000Y-135890000D03*
X106680000Y-135890000D03*
X80010000Y-118110000D03*
X85090000Y-118110000D03*
X82550000Y-118110000D03*
X82550000Y-135890000D03*
X80010000Y-135890000D03*
X85090000Y-135890000D03*
X146050000Y-118110000D03*
X151130000Y-118110000D03*
X148590000Y-118110000D03*
X148590000Y-135890000D03*
X146050000Y-135890000D03*
X151130000Y-135890000D03*
D15*
X127000000Y-113030000D03*
X127000000Y-106680000D03*
X104140000Y-113030000D03*
X104140000Y-106680000D03*
X148590000Y-113030000D03*
X148590000Y-106680000D03*
D16*
X73660000Y-104140000D03*
D17*
X73660000Y-101600000D03*
X73660000Y-99060000D03*
X73660000Y-96520000D03*
D16*
X160020000Y-104140000D03*
D17*
X160020000Y-101600000D03*
X160020000Y-99060000D03*
X160020000Y-96520000D03*
M02*
