M48
;DRILL file {KiCad 4.0.4-stable} date Wednesday, December 14, 2016 'PMt' 08:51:32 PM
;FORMAT={-:-/ absolute / inch / decimal}
FMAT,2
INCH,TZ
T1C0.039
T2C0.040
T3C0.087
%
G90
G05
M72
T1
X3.0625Y-5.7406
X3.1609Y-5.7406
X3.4375Y-3.9875
X3.4375Y-4.2875
X3.8375Y-3.7625
X3.8375Y-4.0625
X4.0875Y-4.2125
X4.0875Y-4.4625
X4.0875Y-5.7406
X4.1859Y-5.7406
X5.0875Y-4.2125
X5.0875Y-4.4625
X5.0875Y-5.7406
X5.1859Y-5.7406
X6.0875Y-4.2125
X6.0875Y-4.4625
X6.0875Y-5.7406
X6.1859Y-5.7406
T2
X2.9625Y-4.6625
X2.9625Y-5.3625
X3.0625Y-4.6625
X3.0625Y-5.3625
X3.1625Y-4.6625
X3.1625Y-5.3625
X3.9875Y-4.6625
X3.9875Y-5.3625
X4.0875Y-4.6625
X4.0875Y-5.3625
X4.1875Y-4.6625
X4.1875Y-5.3625
X4.4625Y-3.7625
X4.5625Y-3.7625
X4.6625Y-3.7625
X4.7625Y-3.7625
X4.9875Y-4.6625
X4.9875Y-5.3625
X5.0875Y-4.6625
X5.0875Y-5.3625
X5.1875Y-4.6625
X5.1875Y-5.3625
X5.9875Y-4.6625
X5.9875Y-5.3625
X6.0875Y-4.6625
X6.0875Y-5.3625
X6.1875Y-4.6625
X6.1875Y-5.3625
T3
X2.8617Y-5.9085
X3.2632Y-5.9085
X3.8867Y-5.9085
X4.2882Y-5.9085
X4.8867Y-5.9085
X5.2882Y-5.9085
X5.8867Y-5.9085
X6.2882Y-5.9085
T0
M30
