M48
;DRILL file {KiCad 4.0.4-stable} date Tuesday, January 31, 2017 'AMt' 11:41:04 AM
;FORMAT={-:-/ absolute / inch / decimal}
FMAT,2
INCH,TZ
T1C0.039
T2C0.039
T3C0.040
T4C0.087
%
G90
G05
M72
T1
X2.9Y-3.8
X2.9Y-3.9
X2.9Y-4.
X2.9Y-4.1
X6.3Y-3.8
X6.3Y-3.9
X6.3Y-4.
X6.3Y-4.1
T2
X3.15Y-4.1
X3.25Y-5.7531
X3.3484Y-5.7531
X3.45Y-4.1
X3.65Y-3.8
X3.65Y-4.1
X4.1Y-4.2
X4.1Y-4.45
X4.1Y-5.7531
X4.1984Y-5.7531
X5.Y-4.2
X5.Y-4.45
X5.Y-5.7531
X5.0984Y-5.7531
X5.85Y-4.2
X5.85Y-4.45
X5.85Y-5.7531
X5.9484Y-5.7531
T3
X3.15Y-4.65
X3.15Y-5.35
X3.25Y-4.65
X3.25Y-5.35
X3.35Y-4.65
X3.35Y-5.35
X4.Y-4.65
X4.Y-5.35
X4.1Y-4.65
X4.1Y-5.35
X4.2Y-4.65
X4.2Y-5.35
X4.9Y-4.65
X4.9Y-5.35
X5.Y-4.65
X5.Y-5.35
X5.1Y-4.65
X5.1Y-5.35
X5.75Y-4.65
X5.75Y-5.35
X5.85Y-4.65
X5.85Y-5.35
X5.95Y-4.65
X5.95Y-5.35
T4
X3.0492Y-5.921
X3.4507Y-5.921
X3.8992Y-5.921
X4.3007Y-5.921
X4.7992Y-5.921
X5.2007Y-5.921
X5.6492Y-5.921
X6.0507Y-5.921
T0
M30
