solid OpenSCAD_Model
  facet normal -1 0 0
    outer loop
      vertex -8.075 0 -8.075
      vertex -8.075 -10.53 0
      vertex -8.075 0 8.075
    endloop
  endfacet
  facet normal -1 0 0
    outer loop
      vertex -8.075 0 -8.075
      vertex -8.075 -11.2529 -1.50112
      vertex -8.075 -10.53 0
    endloop
  endfacet
  facet normal -1 0 0
    outer loop
      vertex -8.075 -15.45 -8.075
      vertex -8.075 -11.2529 -1.50112
      vertex -8.075 0 -8.075
    endloop
  endfacet
  facet normal -1 -0 0
    outer loop
      vertex -8.075 -14.1799 -0.833056
      vertex -8.075 -15.45 -8.075
      vertex -8.075 -14.1799 0.833056
    endloop
  endfacet
  facet normal -1 -0 0
    outer loop
      vertex -8.075 -12.8772 -1.87186
      vertex -8.075 -15.45 -8.075
      vertex -8.075 -14.1799 -0.833056
    endloop
  endfacet
  facet normal -1 0 0
    outer loop
      vertex -8.075 -11.2529 -1.50112
      vertex -8.075 -15.45 -8.075
      vertex -8.075 -12.8772 -1.87186
    endloop
  endfacet
  facet normal -1 0 0
    outer loop
      vertex -8.075 -11.2529 1.50112
      vertex -8.075 0 8.075
      vertex -8.075 -10.53 0
    endloop
  endfacet
  facet normal -1 0 0
    outer loop
      vertex -8.075 -15.45 8.075
      vertex -8.075 -11.2529 1.50112
      vertex -8.075 -12.8772 1.87186
    endloop
  endfacet
  facet normal -1 0 0
    outer loop
      vertex -8.075 -11.2529 1.50112
      vertex -8.075 -15.45 8.075
      vertex -8.075 0 8.075
    endloop
  endfacet
  facet normal -1 0 0
    outer loop
      vertex -8.075 -14.1799 0.833056
      vertex -8.075 -15.45 8.075
      vertex -8.075 -12.8772 1.87186
    endloop
  endfacet
  facet normal -1 0 0
    outer loop
      vertex -8.075 -15.45 8.075
      vertex -8.075 -14.1799 0.833056
      vertex -8.075 -15.45 -8.075
    endloop
  endfacet
  facet normal 0 0 1
    outer loop
      vertex -4.5 0 8.075
      vertex -6.575 -1 8.075
      vertex -4.5 -1 8.075
    endloop
  endfacet
  facet normal 0 0 1
    outer loop
      vertex -6.575 -1 8.075
      vertex -8.075 0 8.075
      vertex -6.575 -2.45 8.075
    endloop
  endfacet
  facet normal -0 0 1
    outer loop
      vertex -8.075 0 8.075
      vertex -6.575 -1 8.075
      vertex -4.5 0 8.075
    endloop
  endfacet
  facet normal 0 0 1
    outer loop
      vertex 6.575 -2.45 8.075
      vertex 8.075 0 8.075
      vertex 6.575 -1 8.075
    endloop
  endfacet
  facet normal -0 0 1
    outer loop
      vertex 4.5 0 8.075
      vertex 6.575 -1 8.075
      vertex 8.075 0 8.075
    endloop
  endfacet
  facet normal 0 0 1
    outer loop
      vertex 6.575 -1 8.075
      vertex 4.5 0 8.075
      vertex 4.5 -1 8.075
    endloop
  endfacet
  facet normal 0 0 1
    outer loop
      vertex 8.075 0 8.075
      vertex 6.575 -2.45 8.075
      vertex 8.075 -15.45 8.075
    endloop
  endfacet
  facet normal -0 0 1
    outer loop
      vertex 3 -5.45 8.075
      vertex 8.075 -15.45 8.075
      vertex 6.575 -2.45 8.075
    endloop
  endfacet
  facet normal 0 0 1
    outer loop
      vertex 8.075 -15.45 8.075
      vertex 3 -5.45 8.075
      vertex 3 -15.45 8.075
    endloop
  endfacet
  facet normal 0 0 1
    outer loop
      vertex 6.575 -2.45 8.075
      vertex -3 -5.45 8.075
      vertex 3 -5.45 8.075
    endloop
  endfacet
  facet normal -0 0 1
    outer loop
      vertex -6.575 -2.45 8.075
      vertex -3 -5.45 8.075
      vertex 6.575 -2.45 8.075
    endloop
  endfacet
  facet normal 0 0 1
    outer loop
      vertex -8.075 -15.45 8.075
      vertex -3 -5.45 8.075
      vertex -6.575 -2.45 8.075
    endloop
  endfacet
  facet normal 0 0 1
    outer loop
      vertex -8.075 -15.45 8.075
      vertex -6.575 -2.45 8.075
      vertex -8.075 0 8.075
    endloop
  endfacet
  facet normal 0 0 1
    outer loop
      vertex -3 -5.45 8.075
      vertex -8.075 -15.45 8.075
      vertex -3 -15.45 8.075
    endloop
  endfacet
  facet normal 1 0 0
    outer loop
      vertex 8.075 0 8.075
      vertex 8.075 -10.53 0
      vertex 8.075 0 -8.075
    endloop
  endfacet
  facet normal 1 0 0
    outer loop
      vertex 8.075 0 8.075
      vertex 8.075 -11.2529 1.50112
      vertex 8.075 -10.53 0
    endloop
  endfacet
  facet normal 1 -0 0
    outer loop
      vertex 8.075 -15.45 8.075
      vertex 8.075 -11.2529 1.50112
      vertex 8.075 0 8.075
    endloop
  endfacet
  facet normal 1 0 0
    outer loop
      vertex 8.075 -14.1799 0.833056
      vertex 8.075 -15.45 8.075
      vertex 8.075 -14.1799 -0.833056
    endloop
  endfacet
  facet normal 1 0 0
    outer loop
      vertex 8.075 -12.8772 1.87186
      vertex 8.075 -15.45 8.075
      vertex 8.075 -14.1799 0.833056
    endloop
  endfacet
  facet normal 1 0 0
    outer loop
      vertex 8.075 -11.2529 1.50112
      vertex 8.075 -15.45 8.075
      vertex 8.075 -12.8772 1.87186
    endloop
  endfacet
  facet normal 1 -0 0
    outer loop
      vertex 8.075 -11.2529 -1.50112
      vertex 8.075 0 -8.075
      vertex 8.075 -10.53 0
    endloop
  endfacet
  facet normal 1 0 0
    outer loop
      vertex 8.075 -15.45 -8.075
      vertex 8.075 -11.2529 -1.50112
      vertex 8.075 -12.8772 -1.87186
    endloop
  endfacet
  facet normal 1 0 0
    outer loop
      vertex 8.075 -11.2529 -1.50112
      vertex 8.075 -15.45 -8.075
      vertex 8.075 0 -8.075
    endloop
  endfacet
  facet normal 1 0 0
    outer loop
      vertex 8.075 -14.1799 -0.833056
      vertex 8.075 -15.45 -8.075
      vertex 8.075 -12.8772 -1.87186
    endloop
  endfacet
  facet normal 1 0 0
    outer loop
      vertex 8.075 -15.45 -8.075
      vertex 8.075 -14.1799 -0.833056
      vertex 8.075 -15.45 8.075
    endloop
  endfacet
  facet normal 0 1 0
    outer loop
      vertex 8.075 0 8.075
      vertex 4.5 0 0
      vertex 4.5 0 8.075
    endloop
  endfacet
  facet normal 0 1 -0
    outer loop
      vertex 8.075 0 -8.075
      vertex 4.5 0 0
      vertex 8.075 0 8.075
    endloop
  endfacet
  facet normal 0 1 0
    outer loop
      vertex 1.39058 0 -4.27975
      vertex 8.075 0 -8.075
      vertex -0.470378 0 -4.47535
    endloop
  endfacet
  facet normal 0 1 0
    outer loop
      vertex 3.01109 0 -3.34415
      vertex 8.075 0 -8.075
      vertex 1.39058 0 -4.27975
    endloop
  endfacet
  facet normal 0 1 0
    outer loop
      vertex 4.11095 0 -1.83031
      vertex 8.075 0 -8.075
      vertex 3.01109 0 -3.34415
    endloop
  endfacet
  facet normal 0 1 0
    outer loop
      vertex 4.5 0 0
      vertex 8.075 0 -8.075
      vertex 4.11095 0 -1.83031
    endloop
  endfacet
  facet normal 0 1 0
    outer loop
      vertex -4.40166 0 0
      vertex -4.40166 0 -0.935602
      vertex -4.5 0 0
    endloop
  endfacet
  facet normal 0 1 -0
    outer loop
      vertex -4.5 0 0
      vertex -8.075 0 8.075
      vertex -4.5 0 8.075
    endloop
  endfacet
  facet normal 0 1 0
    outer loop
      vertex -8.075 0 -8.075
      vertex -4.5 0 0
      vertex -4.40166 0 -0.935602
    endloop
  endfacet
  facet normal 0 1 0
    outer loop
      vertex -8.075 0 -8.075
      vertex -0.470378 0 -4.47535
      vertex 8.075 0 -8.075
    endloop
  endfacet
  facet normal 0 1 0
    outer loop
      vertex -4.5 0 0
      vertex -8.075 0 -8.075
      vertex -8.075 0 8.075
    endloop
  endfacet
  facet normal 0 1 0
    outer loop
      vertex -3.64058 0 -2.64503
      vertex -8.075 0 -8.075
      vertex -4.40166 0 -0.935602
    endloop
  endfacet
  facet normal 0 1 0
    outer loop
      vertex -2.25 0 -3.89711
      vertex -8.075 0 -8.075
      vertex -3.64058 0 -2.64503
    endloop
  endfacet
  facet normal 0 1 0
    outer loop
      vertex -0.470378 0 -4.47535
      vertex -8.075 0 -8.075
      vertex -2.25 0 -3.89711
    endloop
  endfacet
  facet normal 0 0 -1
    outer loop
      vertex -3 -15.45 -8.075
      vertex -8.075 -15.45 -8.075
      vertex -3 -5.45 -8.075
    endloop
  endfacet
  facet normal 0 0 -1
    outer loop
      vertex 3 -5.45 -8.075
      vertex 8.075 -15.45 -8.075
      vertex 3 -15.45 -8.075
    endloop
  endfacet
  facet normal 0 0 -1
    outer loop
      vertex 8.075 -15.45 -8.075
      vertex 3 -5.45 -8.075
      vertex 8.075 0 -8.075
    endloop
  endfacet
  facet normal 0 0 -1
    outer loop
      vertex -3 -5.45 -8.075
      vertex 8.075 0 -8.075
      vertex 3 -5.45 -8.075
    endloop
  endfacet
  facet normal 0 0 -1
    outer loop
      vertex -3 -5.45 -8.075
      vertex -8.075 0 -8.075
      vertex 8.075 0 -8.075
    endloop
  endfacet
  facet normal 0 0 -1
    outer loop
      vertex -8.075 0 -8.075
      vertex -3 -5.45 -8.075
      vertex -8.075 -15.45 -8.075
    endloop
  endfacet
  facet normal 0 -1 0
    outer loop
      vertex -8.075 -15.45 -8.075
      vertex -3 -15.45 8.075
      vertex -8.075 -15.45 8.075
    endloop
  endfacet
  facet normal 0 -1 -0
    outer loop
      vertex -3 -15.45 8.075
      vertex -8.075 -15.45 -8.075
      vertex -3 -15.45 -8.075
    endloop
  endfacet
  facet normal 0 -1 0
    outer loop
      vertex 3 -15.45 -8.075
      vertex 8.075 -15.45 8.075
      vertex 3 -15.45 8.075
    endloop
  endfacet
  facet normal 0 -1 -0
    outer loop
      vertex 8.075 -15.45 8.075
      vertex 3 -15.45 -8.075
      vertex 8.075 -15.45 -8.075
    endloop
  endfacet
  facet normal 1 0 0
    outer loop
      vertex -3 -5.45 8.075
      vertex -3 -10.53 0
      vertex -3 -5.45 -8.075
    endloop
  endfacet
  facet normal 1 0 0
    outer loop
      vertex -3 -5.45 8.075
      vertex -3 -11.2529 1.50112
      vertex -3 -10.53 0
    endloop
  endfacet
  facet normal 1 -0 0
    outer loop
      vertex -3 -15.45 8.075
      vertex -3 -11.2529 1.50112
      vertex -3 -5.45 8.075
    endloop
  endfacet
  facet normal 1 0 0
    outer loop
      vertex -3 -11.2529 1.50112
      vertex -3 -15.45 8.075
      vertex -3 -12.8772 1.87186
    endloop
  endfacet
  facet normal 1 0 0
    outer loop
      vertex -3 -14.1799 0.833056
      vertex -3 -15.45 8.075
      vertex -3 -14.1799 -0.833056
    endloop
  endfacet
  facet normal 1 0 0
    outer loop
      vertex -3 -12.8772 1.87186
      vertex -3 -15.45 8.075
      vertex -3 -14.1799 0.833056
    endloop
  endfacet
  facet normal 1 -0 0
    outer loop
      vertex -3 -11.2529 -1.50112
      vertex -3 -5.45 -8.075
      vertex -3 -10.53 0
    endloop
  endfacet
  facet normal 1 0 0
    outer loop
      vertex -3 -15.45 -8.075
      vertex -3 -11.2529 -1.50112
      vertex -3 -12.8772 -1.87186
    endloop
  endfacet
  facet normal 1 0 0
    outer loop
      vertex -3 -15.45 -8.075
      vertex -3 -12.8772 -1.87186
      vertex -3 -14.1799 -0.833056
    endloop
  endfacet
  facet normal 1 0 0
    outer loop
      vertex -3 -11.2529 -1.50112
      vertex -3 -15.45 -8.075
      vertex -3 -5.45 -8.075
    endloop
  endfacet
  facet normal 1 0 0
    outer loop
      vertex -3 -15.45 -8.075
      vertex -3 -14.1799 -0.833056
      vertex -3 -15.45 8.075
    endloop
  endfacet
  facet normal -1 0 0
    outer loop
      vertex 3 -5.45 -8.075
      vertex 3 -10.53 0
      vertex 3 -5.45 8.075
    endloop
  endfacet
  facet normal -1 0 0
    outer loop
      vertex 3 -5.45 -8.075
      vertex 3 -11.2529 -1.50112
      vertex 3 -10.53 0
    endloop
  endfacet
  facet normal -1 0 0
    outer loop
      vertex 3 -15.45 -8.075
      vertex 3 -11.2529 -1.50112
      vertex 3 -5.45 -8.075
    endloop
  endfacet
  facet normal -1 0 0
    outer loop
      vertex 3 -11.2529 -1.50112
      vertex 3 -15.45 -8.075
      vertex 3 -12.8772 -1.87186
    endloop
  endfacet
  facet normal -1 -0 0
    outer loop
      vertex 3 -14.1799 -0.833056
      vertex 3 -15.45 -8.075
      vertex 3 -14.1799 0.833056
    endloop
  endfacet
  facet normal -1 -0 0
    outer loop
      vertex 3 -12.8772 -1.87186
      vertex 3 -15.45 -8.075
      vertex 3 -14.1799 -0.833056
    endloop
  endfacet
  facet normal -1 0 0
    outer loop
      vertex 3 -11.2529 1.50112
      vertex 3 -5.45 8.075
      vertex 3 -10.53 0
    endloop
  endfacet
  facet normal -1 0 0
    outer loop
      vertex 3 -15.45 8.075
      vertex 3 -11.2529 1.50112
      vertex 3 -12.8772 1.87186
    endloop
  endfacet
  facet normal -1 0 0
    outer loop
      vertex 3 -15.45 8.075
      vertex 3 -12.8772 1.87186
      vertex 3 -14.1799 0.833056
    endloop
  endfacet
  facet normal -1 0 0
    outer loop
      vertex 3 -11.2529 1.50112
      vertex 3 -15.45 8.075
      vertex 3 -5.45 8.075
    endloop
  endfacet
  facet normal -1 0 0
    outer loop
      vertex 3 -15.45 8.075
      vertex 3 -14.1799 0.833056
      vertex 3 -15.45 -8.075
    endloop
  endfacet
  facet normal 0 -1 0
    outer loop
      vertex -3 -5.45 -8.075
      vertex 3 -5.45 8.075
      vertex -3 -5.45 8.075
    endloop
  endfacet
  facet normal 0 -1 -0
    outer loop
      vertex 3 -5.45 8.075
      vertex -3 -5.45 -8.075
      vertex 3 -5.45 -8.075
    endloop
  endfacet
  facet normal 0 -0.900969 -0.433884
    outer loop
      vertex -8.075 -10.53 0
      vertex -3 -11.2529 1.50112
      vertex -8.075 -11.2529 1.50112
    endloop
  endfacet
  facet normal 0 -0.900969 -0.433884
    outer loop
      vertex -3 -11.2529 1.50112
      vertex -8.075 -10.53 0
      vertex -3 -10.53 0
    endloop
  endfacet
  facet normal 0 -0.900969 -0.433884
    outer loop
      vertex 3 -10.53 0
      vertex 8.075 -11.2529 1.50112
      vertex 3 -11.2529 1.50112
    endloop
  endfacet
  facet normal 0 -0.900969 -0.433884
    outer loop
      vertex 8.075 -11.2529 1.50112
      vertex 3 -10.53 0
      vertex 8.075 -10.53 0
    endloop
  endfacet
  facet normal 0 1 -0
    outer loop
      vertex -3 -14.1799 -0.833056
      vertex -8.075 -14.1799 0.833056
      vertex -3 -14.1799 0.833056
    endloop
  endfacet
  facet normal 0 1 0
    outer loop
      vertex -8.075 -14.1799 0.833056
      vertex -3 -14.1799 -0.833056
      vertex -8.075 -14.1799 -0.833056
    endloop
  endfacet
  facet normal 0 1 -0
    outer loop
      vertex 8.075 -14.1799 -0.833056
      vertex 3 -14.1799 0.833056
      vertex 8.075 -14.1799 0.833056
    endloop
  endfacet
  facet normal 0 1 0
    outer loop
      vertex 3 -14.1799 0.833056
      vertex 8.075 -14.1799 -0.833056
      vertex 3 -14.1799 -0.833056
    endloop
  endfacet
  facet normal 0 -0.222521 -0.974928
    outer loop
      vertex -8.075 -12.8772 1.87186
      vertex -3 -11.2529 1.50112
      vertex -3 -12.8772 1.87186
    endloop
  endfacet
  facet normal -0 -0.222521 -0.974928
    outer loop
      vertex -3 -11.2529 1.50112
      vertex -8.075 -12.8772 1.87186
      vertex -8.075 -11.2529 1.50112
    endloop
  endfacet
  facet normal 0 -0.222521 -0.974928
    outer loop
      vertex 3 -12.8772 1.87186
      vertex 8.075 -11.2529 1.50112
      vertex 8.075 -12.8772 1.87186
    endloop
  endfacet
  facet normal -0 -0.222521 -0.974928
    outer loop
      vertex 8.075 -11.2529 1.50112
      vertex 3 -12.8772 1.87186
      vertex 3 -11.2529 1.50112
    endloop
  endfacet
  facet normal -0 0.62349 0.781831
    outer loop
      vertex -8.075 -12.8772 -1.87186
      vertex -3 -14.1799 -0.833056
      vertex -3 -12.8772 -1.87186
    endloop
  endfacet
  facet normal 0 0.62349 0.781831
    outer loop
      vertex -3 -14.1799 -0.833056
      vertex -8.075 -12.8772 -1.87186
      vertex -8.075 -14.1799 -0.833056
    endloop
  endfacet
  facet normal -0 0.62349 0.781831
    outer loop
      vertex 3 -12.8772 -1.87186
      vertex 8.075 -14.1799 -0.833056
      vertex 8.075 -12.8772 -1.87186
    endloop
  endfacet
  facet normal 0 0.62349 0.781831
    outer loop
      vertex 8.075 -14.1799 -0.833056
      vertex 3 -12.8772 -1.87186
      vertex 3 -14.1799 -0.833056
    endloop
  endfacet
  facet normal 0 0.62349 -0.781831
    outer loop
      vertex -8.075 -14.1799 0.833056
      vertex -3 -12.8772 1.87186
      vertex -3 -14.1799 0.833056
    endloop
  endfacet
  facet normal 0 0.62349 -0.781831
    outer loop
      vertex -3 -12.8772 1.87186
      vertex -8.075 -14.1799 0.833056
      vertex -8.075 -12.8772 1.87186
    endloop
  endfacet
  facet normal 0 0.62349 -0.781831
    outer loop
      vertex 3 -14.1799 0.833056
      vertex 8.075 -12.8772 1.87186
      vertex 8.075 -14.1799 0.833056
    endloop
  endfacet
  facet normal 0 0.62349 -0.781831
    outer loop
      vertex 8.075 -12.8772 1.87186
      vertex 3 -14.1799 0.833056
      vertex 3 -12.8772 1.87186
    endloop
  endfacet
  facet normal 0 -0.222521 0.974928
    outer loop
      vertex -8.075 -11.2529 -1.50112
      vertex -3 -12.8772 -1.87186
      vertex -3 -11.2529 -1.50112
    endloop
  endfacet
  facet normal 0 -0.222521 0.974928
    outer loop
      vertex -3 -12.8772 -1.87186
      vertex -8.075 -11.2529 -1.50112
      vertex -8.075 -12.8772 -1.87186
    endloop
  endfacet
  facet normal 0 -0.222521 0.974928
    outer loop
      vertex 3 -11.2529 -1.50112
      vertex 8.075 -12.8772 -1.87186
      vertex 8.075 -11.2529 -1.50112
    endloop
  endfacet
  facet normal 0 -0.222521 0.974928
    outer loop
      vertex 8.075 -12.8772 -1.87186
      vertex 3 -11.2529 -1.50112
      vertex 3 -12.8772 -1.87186
    endloop
  endfacet
  facet normal 0 -0.900969 0.433884
    outer loop
      vertex -8.075 -11.2529 -1.50112
      vertex -3 -10.53 0
      vertex -8.075 -10.53 0
    endloop
  endfacet
  facet normal 0 -0.900969 0.433884
    outer loop
      vertex -3 -10.53 0
      vertex -8.075 -11.2529 -1.50112
      vertex -3 -11.2529 -1.50112
    endloop
  endfacet
  facet normal 0 -0.900969 0.433884
    outer loop
      vertex 3 -11.2529 -1.50112
      vertex 8.075 -10.53 0
      vertex 3 -10.53 0
    endloop
  endfacet
  facet normal 0 -0.900969 0.433884
    outer loop
      vertex 8.075 -10.53 0
      vertex 3 -11.2529 -1.50112
      vertex 8.075 -11.2529 -1.50112
    endloop
  endfacet
  facet normal -0.988831 -0 -0.149043
    outer loop
      vertex 6.28289 -0.999999 1.93801
      vertex 6.575 -1 0
      vertex 6.28289 -1 1.93801
    endloop
  endfacet
  facet normal -9.90188e-009 -1 1.32131e-007
    outer loop
      vertex 4.5 -0.999999 0
      vertex 6.28289 -0.999999 1.93801
      vertex 4.5 -0.999999 1.80441
    endloop
  endfacet
  facet normal 2.59413e-009 -1 1.20636e-007
    outer loop
      vertex 6.28289 -0.999999 1.93801
      vertex 4.5 -0.999999 0
      vertex 4.29091 -0.999999 -0.983681
    endloop
  endfacet
  facet normal -6.73983e-009 -1 1.1144e-007
    outer loop
      vertex -1.85818 -1 -4.02442
      vertex 0.49135 -1 -6.55661
      vertex -0.470378 -1 -4.47535
    endloop
  endfacet
  facet normal -6.62919e-009 -1 1.07332e-007
    outer loop
      vertex 1.39058 -1 -4.27975
      vertex 0.49135 -1 -6.55661
      vertex 2.46766 -1 -3.6579
    endloop
  endfacet
  facet normal -1.14825e-008 -1 1.09249e-007
    outer loop
      vertex 0.49135 -1 -6.55661
      vertex 1.39058 -1 -4.27975
      vertex -0.470378 -1 -4.47535
    endloop
  endfacet
  facet normal -7.90611e-009 -1 1.055e-007
    outer loop
      vertex -6.50156 -0.999999 0.979953
      vertex -4.5 -0.999999 0
      vertex -4.5 -0.999999 1.12995
    endloop
  endfacet
  facet normal 0 -1 1.27415e-007
    outer loop
      vertex -4.5 -0.999999 0
      vertex -4.40166 -0.999999 -0.935602
      vertex -4.40166 -0.999999 0
    endloop
  endfacet
  facet normal 2.97641e-009 -1 1.27727e-007
    outer loop
      vertex -6.50156 -0.999999 0.979953
      vertex -4.40166 -0.999999 -0.935602
      vertex -4.5 -0.999999 0
    endloop
  endfacet
  facet normal -5.41775e-008 -1 6.50732e-008
    outer loop
      vertex -4.40166 -0.999999 -0.935602
      vertex -6.50156 -0.999999 0.979953
      vertex -4.10414 -0.999999 -1.60386
    endloop
  endfacet
  facet normal -0.900969 0 -0.433883
    outer loop
      vertex 6.28289 -1 1.93801
      vertex 5.43252 -0.999999 3.70383
      vertex 6.28289 -0.999999 1.93801
    endloop
  endfacet
  facet normal -0.900969 -0 -0.433883
    outer loop
      vertex 5.43252 -0.999999 3.70383
      vertex 6.28289 -1 1.93801
      vertex 5.43252 -1 3.70383
    endloop
  endfacet
  facet normal 0.955573 -0 0.294755
    outer loop
      vertex -6.50156 -2.45 -0.979953
      vertex -5.92387 -1 -2.85279
      vertex -6.50156 -1 -0.979953
    endloop
  endfacet
  facet normal 0.955573 0 0.294755
    outer loop
      vertex -5.92387 -1 -2.85279
      vertex -6.50156 -2.45 -0.979953
      vertex -5.92387 -2.45 -2.85279
    endloop
  endfacet
  facet normal 1.57749e-006 -1 4.86592e-007
    outer loop
      vertex -5.92387 -1 -2.85279
      vertex -6.50156 -0.999999 0.979953
      vertex -6.50156 -1 -0.979953
    endloop
  endfacet
  facet normal -0.222521 0 0.974928
    outer loop
      vertex 0.49135 -1 -6.55661
      vertex 2.40212 -2.45 -6.12049
      vertex 2.40212 -1 -6.12049
    endloop
  endfacet
  facet normal -0.222521 0 0.974928
    outer loop
      vertex 2.40212 -2.45 -6.12049
      vertex 0.49135 -1 -6.55661
      vertex 0.49135 -2.45 -6.55661
    endloop
  endfacet
  facet normal -2.17511e-007 -1 2.0182e-007
    outer loop
      vertex 5.43252 -1 -3.70383
      vertex 6.28289 -0.999999 1.93801
      vertex 4.09945 -1 -5.14054
    endloop
  endfacet
  facet normal 4.68538e-007 -1 3.19444e-007
    outer loop
      vertex -5.92387 -1 -2.85279
      vertex -4.81982 -1 -4.47214
      vertex -6.50156 -0.999999 0.979953
    endloop
  endfacet
  facet normal 1 0 0
    outer loop
      vertex -6.50156 -1 0
      vertex -6.50156 -0.999999 0.979953
      vertex -6.50156 -1 0.979953
    endloop
  endfacet
  facet normal 1 -0 0
    outer loop
      vertex -6.50156 -1 0
      vertex -6.50156 -1 -0.979953
      vertex -6.50156 -0.999999 0.979953
    endloop
  endfacet
  facet normal 1 -0 0
    outer loop
      vertex -6.50156 -2.45 0
      vertex -6.50156 -1 -0.979953
      vertex -6.50156 -1 0
    endloop
  endfacet
  facet normal 1 0 0
    outer loop
      vertex -6.50156 -1 -0.979953
      vertex -6.50156 -2.45 0
      vertex -6.50156 -2.45 -0.979953
    endloop
  endfacet
  facet normal -1.63239e-006 -1 2.46044e-007
    outer loop
      vertex 6.575 -1 0
      vertex 6.28289 -0.999999 1.93801
      vertex 6.28289 -1 -1.93801
    endloop
  endfacet
  facet normal 1.10824e-007 -1 4.68454e-008
    outer loop
      vertex 4.11095 -0.999999 -1.83031
      vertex 6.28289 -0.999999 1.93801
      vertex 4.29091 -0.999999 -0.983681
    endloop
  endfacet
  facet normal -8.04183e-008 -1 1.57071e-007
    outer loop
      vertex 4.11095 -0.999999 -1.83031
      vertex 2.40212 -1 -6.12049
      vertex 6.28289 -0.999999 1.93801
    endloop
  endfacet
  facet normal -2.10822e-008 -1 1.33437e-007
    outer loop
      vertex 3.01109 -1 -3.34415
      vertex 2.40212 -1 -6.12049
      vertex 4.11095 -0.999999 -1.83031
    endloop
  endfacet
  facet normal 4.04335e-008 -1 1.19944e-007
    outer loop
      vertex 2.46766 -1 -3.6579
      vertex 2.40212 -1 -6.12049
      vertex 3.01109 -1 -3.34415
    endloop
  endfacet
  facet normal -2.77908e-008 -1 1.2176e-007
    outer loop
      vertex 2.40212 -1 -6.12049
      vertex 2.46766 -1 -3.6579
      vertex 0.49135 -1 -6.55661
    endloop
  endfacet
  facet normal 0 -1 0
    outer loop
      vertex 4.5 -0.999999 1.80441
      vertex 5.43252 -0.999999 3.70383
      vertex 4.5 -0.999999 4.70885
    endloop
  endfacet
  facet normal 0 -1 -0
    outer loop
      vertex 5.43252 -0.999999 3.70383
      vertex 4.5 -0.999999 1.80441
      vertex 6.28289 -0.999999 1.93801
    endloop
  endfacet
  facet normal 0 -1 0
    outer loop
      vertex -4.5 -0.999999 1.12995
      vertex -4.81982 -0.999999 4.47214
      vertex -5.92387 -0.999999 2.85279
    endloop
  endfacet
  facet normal 0 -1 0
    outer loop
      vertex -4.81982 -0.999999 4.47214
      vertex -4.5 -0.999999 1.12995
      vertex -4.5 -0.999999 4.72718
    endloop
  endfacet
  facet normal -0 -1 0
    outer loop
      vertex -4.5 -0.999999 1.12995
      vertex -5.92387 -0.999999 2.85279
      vertex -6.50156 -0.999999 0.979953
    endloop
  endfacet
  facet normal -5.10916e-007 -1 2.46044e-007
    outer loop
      vertex 6.28289 -1 -1.93801
      vertex 6.28289 -0.999999 1.93801
      vertex 5.43252 -1 -3.70383
    endloop
  endfacet
  facet normal -9.4639e-008 -1 1.6392e-007
    outer loop
      vertex 4.09945 -1 -5.14054
      vertex 6.28289 -0.999999 1.93801
      vertex 2.40212 -1 -6.12049
    endloop
  endfacet
  facet normal 1.85001e-007 -1 2.31984e-007
    outer loop
      vertex -4.81982 -1 -4.47214
      vertex -3.2875 -1 -5.69412
      vertex -6.50156 -0.999999 0.979953
    endloop
  endfacet
  facet normal 0 1 -0
    outer loop
      vertex 6.28289 -2.45 -1.93801
      vertex -6.50156 -2.45 0
      vertex 6.575 -2.45 0
    endloop
  endfacet
  facet normal 0 1 -0
    outer loop
      vertex 5.43252 -2.45 -3.70383
      vertex -6.50156 -2.45 0
      vertex 6.28289 -2.45 -1.93801
    endloop
  endfacet
  facet normal 0 1 0
    outer loop
      vertex -6.50156 -2.45 0
      vertex -5.92387 -2.45 -2.85279
      vertex -6.50156 -2.45 -0.979953
    endloop
  endfacet
  facet normal 0 1 -0
    outer loop
      vertex 4.09945 -2.45 -5.14054
      vertex -6.50156 -2.45 0
      vertex 5.43252 -2.45 -3.70383
    endloop
  endfacet
  facet normal 0 1 0
    outer loop
      vertex -6.50156 -2.45 0
      vertex -4.81982 -2.45 -4.47214
      vertex -5.92387 -2.45 -2.85279
    endloop
  endfacet
  facet normal 0 1 -0
    outer loop
      vertex -3.2875 -2.45 -5.69412
      vertex -6.50156 -2.45 0
      vertex 4.09945 -2.45 -5.14054
    endloop
  endfacet
  facet normal 0 1 0
    outer loop
      vertex -6.50156 -2.45 0
      vertex -3.2875 -2.45 -5.69412
      vertex -4.81982 -2.45 -4.47214
    endloop
  endfacet
  facet normal 0 1 -0
    outer loop
      vertex 2.40212 -2.45 -6.12049
      vertex -3.2875 -2.45 -5.69412
      vertex 4.09945 -2.45 -5.14054
    endloop
  endfacet
  facet normal 0 1 0
    outer loop
      vertex 2.40212 -2.45 -6.12049
      vertex -1.46307 -2.45 -6.41015
      vertex -3.2875 -2.45 -5.69412
    endloop
  endfacet
  facet normal -0 1 0
    outer loop
      vertex -1.46307 -2.45 -6.41015
      vertex 2.40212 -2.45 -6.12049
      vertex 0.49135 -2.45 -6.55661
    endloop
  endfacet
  facet normal 0 1 -0
    outer loop
      vertex 6.575 -2.45 0
      vertex -6.575 -2.45 8.075
      vertex 6.575 -2.45 8.075
    endloop
  endfacet
  facet normal 0 1 -0
    outer loop
      vertex -6.50156 -2.45 0
      vertex -6.575 -2.45 8.075
      vertex 6.575 -2.45 0
    endloop
  endfacet
  facet normal 0 1 0
    outer loop
      vertex -6.575 -2.45 8.075
      vertex -6.50156 -2.45 0
      vertex -6.575 -2.45 0
    endloop
  endfacet
  facet normal 0.62349 0 -0.781831
    outer loop
      vertex -4.81982 -1 4.47214
      vertex -4.5 -0.999999 4.72718
      vertex -4.5 -1 4.72718
    endloop
  endfacet
  facet normal 0.62349 0 -0.781831
    outer loop
      vertex -4.5 -0.999999 4.72718
      vertex -4.81982 -1 4.47214
      vertex -4.81982 -0.999999 4.47214
    endloop
  endfacet
  facet normal 0.62349 0 0.781832
    outer loop
      vertex -4.81982 -1 -4.47214
      vertex -3.2875 -2.45 -5.69412
      vertex -3.2875 -1 -5.69412
    endloop
  endfacet
  facet normal 0.62349 0 0.781832
    outer loop
      vertex -3.2875 -2.45 -5.69412
      vertex -4.81982 -1 -4.47214
      vertex -4.81982 -2.45 -4.47214
    endloop
  endfacet
  facet normal 0.365341 0 0.930874
    outer loop
      vertex -3.2875 -1 -5.69412
      vertex -1.46307 -2.45 -6.41015
      vertex -1.46307 -1 -6.41015
    endloop
  endfacet
  facet normal 0.365341 0 0.930874
    outer loop
      vertex -1.46307 -2.45 -6.41015
      vertex -3.2875 -1 -5.69412
      vertex -3.2875 -2.45 -5.69412
    endloop
  endfacet
  facet normal 0.0747303 0 0.997204
    outer loop
      vertex -1.46307 -1 -6.41015
      vertex 0.49135 -2.45 -6.55661
      vertex 0.49135 -1 -6.55661
    endloop
  endfacet
  facet normal 0.0747303 0 0.997204
    outer loop
      vertex 0.49135 -2.45 -6.55661
      vertex -1.46307 -1 -6.41015
      vertex -1.46307 -2.45 -6.41015
    endloop
  endfacet
  facet normal -0.733052 0 -0.680173
    outer loop
      vertex 5.43252 -1 3.70383
      vertex 4.5 -0.999999 4.70885
      vertex 5.43252 -0.999999 3.70383
    endloop
  endfacet
  facet normal -0.733052 -0 -0.680173
    outer loop
      vertex 4.5 -0.999999 4.70885
      vertex 5.43252 -1 3.70383
      vertex 4.5 -1 4.70885
    endloop
  endfacet
  facet normal -0.900969 0 0.433883
    outer loop
      vertex 5.43252 -2.45 -3.70383
      vertex 6.28289 -1 -1.93801
      vertex 5.43252 -1 -3.70383
    endloop
  endfacet
  facet normal -0.900969 0 0.433883
    outer loop
      vertex 6.28289 -1 -1.93801
      vertex 5.43252 -2.45 -3.70383
      vertex 6.28289 -2.45 -1.93801
    endloop
  endfacet
  facet normal -0.988831 0 0.149043
    outer loop
      vertex 6.28289 -2.45 -1.93801
      vertex 6.575 -1 0
      vertex 6.28289 -1 -1.93801
    endloop
  endfacet
  facet normal -0.988831 0 0.149043
    outer loop
      vertex 6.575 -1 0
      vertex 6.28289 -2.45 -1.93801
      vertex 6.575 -2.45 0
    endloop
  endfacet
  facet normal -0.5 0 0.866025
    outer loop
      vertex 2.40212 -1 -6.12049
      vertex 4.09945 -2.45 -5.14054
      vertex 4.09945 -1 -5.14054
    endloop
  endfacet
  facet normal -0.5 0 0.866025
    outer loop
      vertex 4.09945 -2.45 -5.14054
      vertex 2.40212 -1 -6.12049
      vertex 2.40212 -2.45 -6.12049
    endloop
  endfacet
  facet normal -0.733052 0 0.680173
    outer loop
      vertex 4.09945 -2.45 -5.14054
      vertex 5.43252 -1 -3.70383
      vertex 4.09945 -1 -5.14054
    endloop
  endfacet
  facet normal -0.733052 0 0.680173
    outer loop
      vertex 5.43252 -1 -3.70383
      vertex 4.09945 -2.45 -5.14054
      vertex 5.43252 -2.45 -3.70383
    endloop
  endfacet
  facet normal 0.955573 0 -0.294755
    outer loop
      vertex -5.92387 -1 2.85279
      vertex -6.50156 -0.999999 0.979953
      vertex -5.92387 -0.999999 2.85279
    endloop
  endfacet
  facet normal 0.955573 0 -0.294755
    outer loop
      vertex -6.50156 -0.999999 0.979953
      vertex -5.92387 -1 2.85279
      vertex -6.50156 -1 0.979953
    endloop
  endfacet
  facet normal 0.826239 0 -0.56332
    outer loop
      vertex -4.81982 -1 4.47214
      vertex -5.92387 -0.999999 2.85279
      vertex -4.81982 -0.999999 4.47214
    endloop
  endfacet
  facet normal 0.826239 0 -0.56332
    outer loop
      vertex -5.92387 -0.999999 2.85279
      vertex -4.81982 -1 4.47214
      vertex -5.92387 -1 2.85279
    endloop
  endfacet
  facet normal 0.826239 -0 0.56332
    outer loop
      vertex -5.92387 -2.45 -2.85279
      vertex -4.81982 -1 -4.47214
      vertex -5.92387 -1 -2.85279
    endloop
  endfacet
  facet normal 0.826239 0 0.56332
    outer loop
      vertex -4.81982 -1 -4.47214
      vertex -5.92387 -2.45 -2.85279
      vertex -4.81982 -2.45 -4.47214
    endloop
  endfacet
  facet normal 6.9151e-008 -1 1.76194e-007
    outer loop
      vertex -3.2875 -1 -5.69412
      vertex -1.46307 -1 -6.41015
      vertex -6.50156 -0.999999 0.979953
    endloop
  endfacet
  facet normal 1.16857e-007 -1 2.2377e-007
    outer loop
      vertex -6.50156 -0.999999 0.979953
      vertex -3.64058 -1 -2.64503
      vertex -4.10414 -0.999999 -1.60386
    endloop
  endfacet
  facet normal -2.32132e-008 -1 1.13221e-007
    outer loop
      vertex -1.46307 -1 -6.41015
      vertex -3.64058 -1 -2.64503
      vertex -6.50156 -0.999999 0.979953
    endloop
  endfacet
  facet normal 5.90616e-008 -1 1.60803e-007
    outer loop
      vertex -1.46307 -1 -6.41015
      vertex -2.25 -1 -3.89711
      vertex -3.64058 -1 -2.64503
    endloop
  endfacet
  facet normal -1.17876e-007 -1 1.05398e-007
    outer loop
      vertex -1.46307 -1 -6.41015
      vertex -1.85818 -1 -4.02442
      vertex -2.25 -1 -3.89711
    endloop
  endfacet
  facet normal 9.47908e-009 -1 1.26489e-007
    outer loop
      vertex -1.85818 -1 -4.02442
      vertex -1.46307 -1 -6.41015
      vertex 0.49135 -1 -6.55661
    endloop
  endfacet
  facet normal 1 -0 0
    outer loop
      vertex -6.575 -2.45 8.075
      vertex -6.575 -1 0
      vertex -6.575 -1 8.075
    endloop
  endfacet
  facet normal 1 0 0
    outer loop
      vertex -6.575 -1 0
      vertex -6.575 -2.45 8.075
      vertex -6.575 -2.45 0
    endloop
  endfacet
  facet normal -1 0 0
    outer loop
      vertex 6.575 -2.45 0
      vertex 6.575 -1 8.075
      vertex 6.575 -1 0
    endloop
  endfacet
  facet normal -1 -0 0
    outer loop
      vertex 6.575 -1 8.075
      vertex 6.575 -2.45 0
      vertex 6.575 -2.45 8.075
    endloop
  endfacet
  facet normal 0 -1 0
    outer loop
      vertex 4.5 -1 4.70885
      vertex 6.575 -1 8.075
      vertex 4.5 -1 8.075
    endloop
  endfacet
  facet normal 0 -1 0
    outer loop
      vertex 5.43252 -1 3.70383
      vertex 6.575 -1 8.075
      vertex 4.5 -1 4.70885
    endloop
  endfacet
  facet normal 0 -1 0
    outer loop
      vertex 6.28289 -1 1.93801
      vertex 6.575 -1 8.075
      vertex 5.43252 -1 3.70383
    endloop
  endfacet
  facet normal 0 -1 -0
    outer loop
      vertex 6.575 -1 8.075
      vertex 6.28289 -1 1.93801
      vertex 6.575 -1 0
    endloop
  endfacet
  facet normal 0 -1 0
    outer loop
      vertex -6.575 -1 8.075
      vertex -4.5 -1 4.72718
      vertex -4.5 -1 8.075
    endloop
  endfacet
  facet normal 0 -1 0
    outer loop
      vertex -6.575 -1 8.075
      vertex -4.81982 -1 4.47214
      vertex -4.5 -1 4.72718
    endloop
  endfacet
  facet normal 0 -1 0
    outer loop
      vertex -6.575 -1 8.075
      vertex -5.92387 -1 2.85279
      vertex -4.81982 -1 4.47214
    endloop
  endfacet
  facet normal 0 -1 0
    outer loop
      vertex -6.575 -1 8.075
      vertex -6.50156 -1 0.979953
      vertex -5.92387 -1 2.85279
    endloop
  endfacet
  facet normal 0 -1 0
    outer loop
      vertex -6.575 -1 0
      vertex -6.50156 -1 0.979953
      vertex -6.575 -1 8.075
    endloop
  endfacet
  facet normal 0 -1 -0
    outer loop
      vertex -6.50156 -1 0.979953
      vertex -6.575 -1 0
      vertex -6.50156 -1 0
    endloop
  endfacet
  facet normal -0 0 1
    outer loop
      vertex -6.575 -1 0
      vertex -6.50156 -2.45 0
      vertex -6.50156 -1 0
    endloop
  endfacet
  facet normal 0 0 1
    outer loop
      vertex -6.50156 -2.45 0
      vertex -6.575 -1 0
      vertex -6.575 -2.45 0
    endloop
  endfacet
  facet normal 1 -0 0
    outer loop
      vertex -4.40166 -0.999999 0
      vertex -4.40166 0 -0.935602
      vertex -4.40166 0 0
    endloop
  endfacet
  facet normal 1 0 0
    outer loop
      vertex -4.40166 0 -0.935602
      vertex -4.40166 -0.999999 0
      vertex -4.40166 -0.999999 -0.935602
    endloop
  endfacet
  facet normal -0.5 0 0.866025
    outer loop
      vertex 3.01109 0 -3.34415
      vertex 2.46766 -1 -3.6579
      vertex 3.01109 -1 -3.34415
    endloop
  endfacet
  facet normal -0.5 -8.78627e-008 0.866025
    outer loop
      vertex 1.39058 0 -4.27975
      vertex 2.46766 -1 -3.6579
      vertex 3.01109 0 -3.34415
    endloop
  endfacet
  facet normal -0.5 0 0.866026
    outer loop
      vertex 2.46766 -1 -3.6579
      vertex 1.39058 0 -4.27975
      vertex 1.39058 -1 -4.27975
    endloop
  endfacet
  facet normal 0.309017 0 0.951056
    outer loop
      vertex -0.470378 0 -4.47535
      vertex -1.85818 -1 -4.02442
      vertex -0.470378 -1 -4.47535
    endloop
  endfacet
  facet normal 0.309017 1.00092e-007 0.951056
    outer loop
      vertex -2.25 0 -3.89711
      vertex -1.85818 -1 -4.02442
      vertex -0.470378 0 -4.47535
    endloop
  endfacet
  facet normal 0.309017 0 0.951057
    outer loop
      vertex -1.85818 -1 -4.02442
      vertex -2.25 0 -3.89711
      vertex -2.25 -1 -3.89711
    endloop
  endfacet
  facet normal 0.669131 0 0.743145
    outer loop
      vertex -3.64058 0 -2.64503
      vertex -2.25 -1 -3.89711
      vertex -2.25 0 -3.89711
    endloop
  endfacet
  facet normal 0.669131 0 0.743145
    outer loop
      vertex -2.25 -1 -3.89711
      vertex -3.64058 0 -2.64503
      vertex -3.64058 -1 -2.64503
    endloop
  endfacet
  facet normal 0.913545 0 0.406737
    outer loop
      vertex -4.10414 -0.999999 -1.60386
      vertex -4.40166 0 -0.935602
      vertex -4.40166 -0.999999 -0.935602
    endloop
  endfacet
  facet normal 0.913545 1.29516e-007 0.406737
    outer loop
      vertex -4.40166 0 -0.935602
      vertex -4.10414 -0.999999 -1.60386
      vertex -3.64058 0 -2.64503
    endloop
  endfacet
  facet normal 0.913546 0 0.406736
    outer loop
      vertex -3.64058 0 -2.64503
      vertex -4.10414 -0.999999 -1.60386
      vertex -3.64058 -1 -2.64503
    endloop
  endfacet
  facet normal -0.104529 0 0.994522
    outer loop
      vertex -0.470378 0 -4.47535
      vertex 1.39058 -1 -4.27975
      vertex 1.39058 0 -4.27975
    endloop
  endfacet
  facet normal -0.104529 0 0.994522
    outer loop
      vertex 1.39058 -1 -4.27975
      vertex -0.470378 0 -4.47535
      vertex -0.470378 -1 -4.47535
    endloop
  endfacet
  facet normal -0.809017 0 0.587785
    outer loop
      vertex 3.01109 0 -3.34415
      vertex 4.11095 -0.999999 -1.83031
      vertex 4.11095 0 -1.83031
    endloop
  endfacet
  facet normal -0.809017 0 0.587785
    outer loop
      vertex 4.11095 -0.999999 -1.83031
      vertex 3.01109 0 -3.34415
      vertex 3.01109 -1 -3.34415
    endloop
  endfacet
  facet normal -0.978148 -1.30866e-007 0.207912
    outer loop
      vertex 4.29091 -0.999999 -0.983681
      vertex 4.5 0 0
      vertex 4.11095 0 -1.83031
    endloop
  endfacet
  facet normal -0.978148 0 0.207912
    outer loop
      vertex 4.5 0 0
      vertex 4.29091 -0.999999 -0.983681
      vertex 4.5 -0.999999 0
    endloop
  endfacet
  facet normal -0.978148 0 0.207912
    outer loop
      vertex 4.29091 -0.999999 -0.983681
      vertex 4.11095 0 -1.83031
      vertex 4.11095 -0.999999 -1.83031
    endloop
  endfacet
  facet normal 1 0 0
    outer loop
      vertex -4.5 0 8.075
      vertex -4.5 -0.999999 4.72718
      vertex -4.5 0 0
    endloop
  endfacet
  facet normal 1 -0 0
    outer loop
      vertex -4.5 -1 8.075
      vertex -4.5 -0.999999 4.72718
      vertex -4.5 0 8.075
    endloop
  endfacet
  facet normal 1 0 0
    outer loop
      vertex -4.5 -0.999999 4.72718
      vertex -4.5 -1 8.075
      vertex -4.5 -1 4.72718
    endloop
  endfacet
  facet normal 1 -0 0
    outer loop
      vertex -4.5 -0.999999 1.12995
      vertex -4.5 0 0
      vertex -4.5 -0.999999 4.72718
    endloop
  endfacet
  facet normal 1 0 0
    outer loop
      vertex -4.5 0 0
      vertex -4.5 -0.999999 1.12995
      vertex -4.5 -0.999999 0
    endloop
  endfacet
  facet normal -1 0 0
    outer loop
      vertex 4.5 -0.999999 4.70885
      vertex 4.5 0 0
      vertex 4.5 -0.999999 1.80441
    endloop
  endfacet
  facet normal -1 0 -0
    outer loop
      vertex 4.5 -0.999999 1.80441
      vertex 4.5 0 0
      vertex 4.5 -0.999999 0
    endloop
  endfacet
  facet normal -1 0 0
    outer loop
      vertex 4.5 0 0
      vertex 4.5 -0.999999 4.70885
      vertex 4.5 0 8.075
    endloop
  endfacet
  facet normal -1 0 0
    outer loop
      vertex 4.5 -1 8.075
      vertex 4.5 -0.999999 4.70885
      vertex 4.5 -1 4.70885
    endloop
  endfacet
  facet normal -1 0 0
    outer loop
      vertex 4.5 -0.999999 4.70885
      vertex 4.5 -1 8.075
      vertex 4.5 0 8.075
    endloop
  endfacet
  facet normal -0 0 1
    outer loop
      vertex -4.5 0 0
      vertex -4.40166 -0.999999 0
      vertex -4.40166 0 0
    endloop
  endfacet
  facet normal 0 0 1
    outer loop
      vertex -4.40166 -0.999999 0
      vertex -4.5 0 0
      vertex -4.5 -0.999999 0
    endloop
  endfacet
endsolid OpenSCAD_Model
