solid OpenSCAD_Model
  facet normal -1 0 0
    outer loop
      vertex -5.3 0 -5.3
      vertex -5.3 -10.6 0
      vertex -5.3 0 5.3
    endloop
  endfacet
  facet normal -1 0 0
    outer loop
      vertex -5.3 0 -5.3
      vertex -5.3 -11.291 -0.951056
      vertex -5.3 -10.6 0
    endloop
  endfacet
  facet normal -1 0 0
    outer loop
      vertex -5.3 -14.6 -5.3
      vertex -5.3 -11.291 -0.951056
      vertex -5.3 0 -5.3
    endloop
  endfacet
  facet normal -1 -0 0
    outer loop
      vertex -5.3 -12.409 -0.587785
      vertex -5.3 -14.6 -5.3
      vertex -5.3 -12.409 0.587785
    endloop
  endfacet
  facet normal -1 -0 0
    outer loop
      vertex -5.3 -11.291 -0.951056
      vertex -5.3 -14.6 -5.3
      vertex -5.3 -12.409 -0.587785
    endloop
  endfacet
  facet normal -1 0 0
    outer loop
      vertex -5.3 -11.291 0.951056
      vertex -5.3 0 5.3
      vertex -5.3 -10.6 0
    endloop
  endfacet
  facet normal -1 0 0
    outer loop
      vertex -5.3 -14.6 5.3
      vertex -5.3 -11.291 0.951056
      vertex -5.3 -12.409 0.587785
    endloop
  endfacet
  facet normal -1 0 0
    outer loop
      vertex -5.3 -11.291 0.951056
      vertex -5.3 -14.6 5.3
      vertex -5.3 0 5.3
    endloop
  endfacet
  facet normal -1 0 0
    outer loop
      vertex -5.3 -14.6 5.3
      vertex -5.3 -12.409 0.587785
      vertex -5.3 -14.6 -5.3
    endloop
  endfacet
  facet normal 0 0 1
    outer loop
      vertex -2 0 5.3
      vertex -4.3 -1 5.3
      vertex -2 -1 5.3
    endloop
  endfacet
  facet normal 0 0 1
    outer loop
      vertex -4.3 -1 5.3
      vertex -5.3 0 5.3
      vertex -4.3 -2.6 5.3
    endloop
  endfacet
  facet normal -0 0 1
    outer loop
      vertex -5.3 0 5.3
      vertex -4.3 -1 5.3
      vertex -2 0 5.3
    endloop
  endfacet
  facet normal 0 0 1
    outer loop
      vertex 4.3 -2.6 5.3
      vertex -3 -4.6 5.3
      vertex 3 -4.6 5.3
    endloop
  endfacet
  facet normal -0 0 1
    outer loop
      vertex -4.3 -2.6 5.3
      vertex -3 -4.6 5.3
      vertex 4.3 -2.6 5.3
    endloop
  endfacet
  facet normal 0 0 1
    outer loop
      vertex -5.3 -14.6 5.3
      vertex -3 -4.6 5.3
      vertex -4.3 -2.6 5.3
    endloop
  endfacet
  facet normal 0 0 1
    outer loop
      vertex -5.3 -14.6 5.3
      vertex -4.3 -2.6 5.3
      vertex -5.3 0 5.3
    endloop
  endfacet
  facet normal 0 0 1
    outer loop
      vertex -3 -4.6 5.3
      vertex -5.3 -14.6 5.3
      vertex -3 -14.6 5.3
    endloop
  endfacet
  facet normal 0 0 1
    outer loop
      vertex 4.3 -2.6 5.3
      vertex 5.3 0 5.3
      vertex 4.3 -1 5.3
    endloop
  endfacet
  facet normal -0 0 1
    outer loop
      vertex 2 0 5.3
      vertex 4.3 -1 5.3
      vertex 5.3 0 5.3
    endloop
  endfacet
  facet normal 0 0 1
    outer loop
      vertex 4.3 -1 5.3
      vertex 2 0 5.3
      vertex 2 -1 5.3
    endloop
  endfacet
  facet normal 0 0 1
    outer loop
      vertex 5.3 0 5.3
      vertex 4.3 -2.6 5.3
      vertex 5.3 -14.6 5.3
    endloop
  endfacet
  facet normal -0 0 1
    outer loop
      vertex 3 -4.6 5.3
      vertex 5.3 -14.6 5.3
      vertex 4.3 -2.6 5.3
    endloop
  endfacet
  facet normal 0 0 1
    outer loop
      vertex 5.3 -14.6 5.3
      vertex 3 -4.6 5.3
      vertex 3 -14.6 5.3
    endloop
  endfacet
  facet normal 1 0 0
    outer loop
      vertex 5.3 0 5.3
      vertex 5.3 -10.6 0
      vertex 5.3 0 -5.3
    endloop
  endfacet
  facet normal 1 0 0
    outer loop
      vertex 5.3 0 5.3
      vertex 5.3 -11.291 0.951056
      vertex 5.3 -10.6 0
    endloop
  endfacet
  facet normal 1 -0 0
    outer loop
      vertex 5.3 -14.6 5.3
      vertex 5.3 -11.291 0.951056
      vertex 5.3 0 5.3
    endloop
  endfacet
  facet normal 1 0 0
    outer loop
      vertex 5.3 -12.409 0.587785
      vertex 5.3 -14.6 5.3
      vertex 5.3 -12.409 -0.587785
    endloop
  endfacet
  facet normal 1 0 0
    outer loop
      vertex 5.3 -11.291 0.951056
      vertex 5.3 -14.6 5.3
      vertex 5.3 -12.409 0.587785
    endloop
  endfacet
  facet normal 1 -0 0
    outer loop
      vertex 5.3 -11.291 -0.951056
      vertex 5.3 0 -5.3
      vertex 5.3 -10.6 0
    endloop
  endfacet
  facet normal 1 0 0
    outer loop
      vertex 5.3 -14.6 -5.3
      vertex 5.3 -11.291 -0.951056
      vertex 5.3 -12.409 -0.587785
    endloop
  endfacet
  facet normal 1 0 0
    outer loop
      vertex 5.3 -11.291 -0.951056
      vertex 5.3 -14.6 -5.3
      vertex 5.3 0 -5.3
    endloop
  endfacet
  facet normal 1 0 0
    outer loop
      vertex 5.3 -14.6 -5.3
      vertex 5.3 -12.409 -0.587785
      vertex 5.3 -14.6 5.3
    endloop
  endfacet
  facet normal 0 1 0
    outer loop
      vertex 5.3 0 5.3
      vertex 2 0 0
      vertex 2 0 5.3
    endloop
  endfacet
  facet normal 0 1 -0
    outer loop
      vertex 5.3 0 -5.3
      vertex 2 0 0
      vertex 5.3 0 5.3
    endloop
  endfacet
  facet normal 0 1 0
    outer loop
      vertex 1.24698 0 -1.56366
      vertex 5.3 0 -5.3
      vertex -0.445042 0 -1.94986
    endloop
  endfacet
  facet normal 0 1 0
    outer loop
      vertex 2 0 0
      vertex 5.3 0 -5.3
      vertex 1.24698 0 -1.56366
    endloop
  endfacet
  facet normal 0 1 0
    outer loop
      vertex -1.80194 0 0
      vertex -1.80194 0 -0.867767
      vertex -2 0 0
    endloop
  endfacet
  facet normal 0 1 -0
    outer loop
      vertex -2 0 0
      vertex -5.3 0 5.3
      vertex -2 0 5.3
    endloop
  endfacet
  facet normal 0 1 0
    outer loop
      vertex -5.3 0 -5.3
      vertex -2 0 0
      vertex -1.80194 0 -0.867767
    endloop
  endfacet
  facet normal 0 1 0
    outer loop
      vertex -2 0 0
      vertex -5.3 0 -5.3
      vertex -5.3 0 5.3
    endloop
  endfacet
  facet normal 0 1 0
    outer loop
      vertex -0.445042 0 -1.94986
      vertex -5.3 0 -5.3
      vertex -1.80194 0 -0.867767
    endloop
  endfacet
  facet normal 0 1 0
    outer loop
      vertex -5.3 0 -5.3
      vertex -0.445042 0 -1.94986
      vertex 5.3 0 -5.3
    endloop
  endfacet
  facet normal 0 0 -1
    outer loop
      vertex -3 -14.6 -5.3
      vertex -5.3 -14.6 -5.3
      vertex -3 -4.6 -5.3
    endloop
  endfacet
  facet normal 0 0 -1
    outer loop
      vertex 3 -4.6 -5.3
      vertex 5.3 -14.6 -5.3
      vertex 3 -14.6 -5.3
    endloop
  endfacet
  facet normal 0 0 -1
    outer loop
      vertex 5.3 -14.6 -5.3
      vertex 3 -4.6 -5.3
      vertex 5.3 0 -5.3
    endloop
  endfacet
  facet normal 0 0 -1
    outer loop
      vertex -3 -4.6 -5.3
      vertex 5.3 0 -5.3
      vertex 3 -4.6 -5.3
    endloop
  endfacet
  facet normal 0 0 -1
    outer loop
      vertex -3 -4.6 -5.3
      vertex -5.3 0 -5.3
      vertex 5.3 0 -5.3
    endloop
  endfacet
  facet normal 0 0 -1
    outer loop
      vertex -5.3 0 -5.3
      vertex -3 -4.6 -5.3
      vertex -5.3 -14.6 -5.3
    endloop
  endfacet
  facet normal 0 -1 0
    outer loop
      vertex -5.3 -14.6 -5.3
      vertex -3 -14.6 5.3
      vertex -5.3 -14.6 5.3
    endloop
  endfacet
  facet normal 0 -1 -0
    outer loop
      vertex -3 -14.6 5.3
      vertex -5.3 -14.6 -5.3
      vertex -3 -14.6 -5.3
    endloop
  endfacet
  facet normal 0 -1 0
    outer loop
      vertex 3 -14.6 -5.3
      vertex 5.3 -14.6 5.3
      vertex 3 -14.6 5.3
    endloop
  endfacet
  facet normal 0 -1 -0
    outer loop
      vertex 5.3 -14.6 5.3
      vertex 3 -14.6 -5.3
      vertex 5.3 -14.6 -5.3
    endloop
  endfacet
  facet normal 1 0 0
    outer loop
      vertex -3 -4.6 5.3
      vertex -3 -10.6 0
      vertex -3 -4.6 -5.3
    endloop
  endfacet
  facet normal 1 0 0
    outer loop
      vertex -3 -4.6 5.3
      vertex -3 -11.291 0.951056
      vertex -3 -10.6 0
    endloop
  endfacet
  facet normal 1 -0 0
    outer loop
      vertex -3 -14.6 5.3
      vertex -3 -11.291 0.951056
      vertex -3 -4.6 5.3
    endloop
  endfacet
  facet normal 1 0 0
    outer loop
      vertex -3 -12.409 0.587785
      vertex -3 -14.6 5.3
      vertex -3 -12.409 -0.587785
    endloop
  endfacet
  facet normal 1 0 0
    outer loop
      vertex -3 -11.291 0.951056
      vertex -3 -14.6 5.3
      vertex -3 -12.409 0.587785
    endloop
  endfacet
  facet normal 1 -0 0
    outer loop
      vertex -3 -11.291 -0.951056
      vertex -3 -4.6 -5.3
      vertex -3 -10.6 0
    endloop
  endfacet
  facet normal 1 0 0
    outer loop
      vertex -3 -14.6 -5.3
      vertex -3 -11.291 -0.951056
      vertex -3 -12.409 -0.587785
    endloop
  endfacet
  facet normal 1 0 0
    outer loop
      vertex -3 -11.291 -0.951056
      vertex -3 -14.6 -5.3
      vertex -3 -4.6 -5.3
    endloop
  endfacet
  facet normal 1 0 0
    outer loop
      vertex -3 -14.6 -5.3
      vertex -3 -12.409 -0.587785
      vertex -3 -14.6 5.3
    endloop
  endfacet
  facet normal -1 0 0
    outer loop
      vertex 3 -4.6 -5.3
      vertex 3 -10.6 0
      vertex 3 -4.6 5.3
    endloop
  endfacet
  facet normal -1 0 0
    outer loop
      vertex 3 -4.6 -5.3
      vertex 3 -11.291 -0.951056
      vertex 3 -10.6 0
    endloop
  endfacet
  facet normal -1 0 0
    outer loop
      vertex 3 -14.6 -5.3
      vertex 3 -11.291 -0.951056
      vertex 3 -4.6 -5.3
    endloop
  endfacet
  facet normal -1 -0 0
    outer loop
      vertex 3 -12.409 -0.587785
      vertex 3 -14.6 -5.3
      vertex 3 -12.409 0.587785
    endloop
  endfacet
  facet normal -1 -0 0
    outer loop
      vertex 3 -11.291 -0.951056
      vertex 3 -14.6 -5.3
      vertex 3 -12.409 -0.587785
    endloop
  endfacet
  facet normal -1 0 0
    outer loop
      vertex 3 -11.291 0.951056
      vertex 3 -4.6 5.3
      vertex 3 -10.6 0
    endloop
  endfacet
  facet normal -1 0 0
    outer loop
      vertex 3 -14.6 5.3
      vertex 3 -11.291 0.951056
      vertex 3 -12.409 0.587785
    endloop
  endfacet
  facet normal -1 0 0
    outer loop
      vertex 3 -11.291 0.951056
      vertex 3 -14.6 5.3
      vertex 3 -4.6 5.3
    endloop
  endfacet
  facet normal -1 0 0
    outer loop
      vertex 3 -14.6 5.3
      vertex 3 -12.409 0.587785
      vertex 3 -14.6 -5.3
    endloop
  endfacet
  facet normal 0 -1 0
    outer loop
      vertex -3 -4.6 -5.3
      vertex 3 -4.6 5.3
      vertex -3 -4.6 5.3
    endloop
  endfacet
  facet normal 0 -1 -0
    outer loop
      vertex 3 -4.6 5.3
      vertex -3 -4.6 -5.3
      vertex 3 -4.6 -5.3
    endloop
  endfacet
  facet normal 0 -0.809017 -0.587785
    outer loop
      vertex -5.3 -10.6 0
      vertex -3 -11.291 0.951056
      vertex -5.3 -11.291 0.951056
    endloop
  endfacet
  facet normal 0 -0.809017 -0.587785
    outer loop
      vertex -3 -11.291 0.951056
      vertex -5.3 -10.6 0
      vertex -3 -10.6 0
    endloop
  endfacet
  facet normal 0 -0.809017 -0.587785
    outer loop
      vertex 3 -10.6 0
      vertex 5.3 -11.291 0.951056
      vertex 3 -11.291 0.951056
    endloop
  endfacet
  facet normal 0 -0.809017 -0.587785
    outer loop
      vertex 5.3 -11.291 0.951056
      vertex 3 -10.6 0
      vertex 5.3 -10.6 0
    endloop
  endfacet
  facet normal 0 1 -0
    outer loop
      vertex -3 -12.409 -0.587785
      vertex -5.3 -12.409 0.587785
      vertex -3 -12.409 0.587785
    endloop
  endfacet
  facet normal 0 1 0
    outer loop
      vertex -5.3 -12.409 0.587785
      vertex -3 -12.409 -0.587785
      vertex -5.3 -12.409 -0.587785
    endloop
  endfacet
  facet normal 0 1 -0
    outer loop
      vertex 5.3 -12.409 -0.587785
      vertex 3 -12.409 0.587785
      vertex 5.3 -12.409 0.587785
    endloop
  endfacet
  facet normal 0 1 0
    outer loop
      vertex 3 -12.409 0.587785
      vertex 5.3 -12.409 -0.587785
      vertex 3 -12.409 -0.587785
    endloop
  endfacet
  facet normal 0 0.309017 -0.951056
    outer loop
      vertex -5.3 -12.409 0.587785
      vertex -3 -11.291 0.951056
      vertex -3 -12.409 0.587785
    endloop
  endfacet
  facet normal 0 0.309017 -0.951056
    outer loop
      vertex -3 -11.291 0.951056
      vertex -5.3 -12.409 0.587785
      vertex -5.3 -11.291 0.951056
    endloop
  endfacet
  facet normal 0 0.309017 -0.951056
    outer loop
      vertex 3 -12.409 0.587785
      vertex 5.3 -11.291 0.951056
      vertex 5.3 -12.409 0.587785
    endloop
  endfacet
  facet normal 0 0.309017 -0.951056
    outer loop
      vertex 5.3 -11.291 0.951056
      vertex 3 -12.409 0.587785
      vertex 3 -11.291 0.951056
    endloop
  endfacet
  facet normal -0 0.309017 0.951056
    outer loop
      vertex -5.3 -11.291 -0.951056
      vertex -3 -12.409 -0.587785
      vertex -3 -11.291 -0.951056
    endloop
  endfacet
  facet normal 0 0.309017 0.951056
    outer loop
      vertex -3 -12.409 -0.587785
      vertex -5.3 -11.291 -0.951056
      vertex -5.3 -12.409 -0.587785
    endloop
  endfacet
  facet normal -0 0.309017 0.951056
    outer loop
      vertex 3 -11.291 -0.951056
      vertex 5.3 -12.409 -0.587785
      vertex 5.3 -11.291 -0.951056
    endloop
  endfacet
  facet normal 0 0.309017 0.951056
    outer loop
      vertex 5.3 -12.409 -0.587785
      vertex 3 -11.291 -0.951056
      vertex 3 -12.409 -0.587785
    endloop
  endfacet
  facet normal 0 -0.809017 0.587785
    outer loop
      vertex -5.3 -11.291 -0.951056
      vertex -3 -10.6 0
      vertex -5.3 -10.6 0
    endloop
  endfacet
  facet normal 0 -0.809017 0.587785
    outer loop
      vertex -3 -10.6 0
      vertex -5.3 -11.291 -0.951056
      vertex -3 -11.291 -0.951056
    endloop
  endfacet
  facet normal 0 -0.809017 0.587785
    outer loop
      vertex 3 -11.291 -0.951056
      vertex 5.3 -10.6 0
      vertex 3 -10.6 0
    endloop
  endfacet
  facet normal 0 -0.809017 0.587785
    outer loop
      vertex 5.3 -10.6 0
      vertex 3 -11.291 -0.951056
      vertex 5.3 -11.291 -0.951056
    endloop
  endfacet
  facet normal -0.974928 -0 -0.222521
    outer loop
      vertex 3.87417 -0.999999 1.8657
      vertex 4.3 -1 0
      vertex 3.87417 -1 1.8657
    endloop
  endfacet
  facet normal 9.87035e-008 -1 2.0496e-007
    outer loop
      vertex -2.68101 -1 -3.36187
      vertex -0.95684 -1 -4.19219
      vertex -3.87417 -0.999999 1.8657
    endloop
  endfacet
  facet normal 3.20488e-007 -1 2.55581e-007
    outer loop
      vertex -2.68101 -1 -3.36187
      vertex -3.87417 -0.999999 1.8657
      vertex -3.87417 -1 -1.8657
    endloop
  endfacet
  facet normal -0.433884 0 -0.900969
    outer loop
      vertex 2 -1 3.68983
      vertex 2.68101 -0.999999 3.36187
      vertex 2.68101 -1 3.36187
    endloop
  endfacet
  facet normal -0.433884 0 -0.900969
    outer loop
      vertex 2.68101 -0.999999 3.36187
      vertex 2 -1 3.68983
      vertex 2 -0.999999 3.68983
    endloop
  endfacet
  facet normal 0.781831 -0 0.62349
    outer loop
      vertex -3.87417 -2.6 -1.8657
      vertex -2.68101 -1 -3.36187
      vertex -3.87417 -1 -1.8657
    endloop
  endfacet
  facet normal 0.781831 0 0.62349
    outer loop
      vertex -2.68101 -1 -3.36187
      vertex -3.87417 -2.6 -1.8657
      vertex -2.68101 -2.6 -3.36187
    endloop
  endfacet
  facet normal -0.433884 0 0.900969
    outer loop
      vertex 0.95684 -1 -4.19219
      vertex 2.68101 -2.6 -3.36187
      vertex 2.68101 -1 -3.36187
    endloop
  endfacet
  facet normal -0.433884 0 0.900969
    outer loop
      vertex 2.68101 -2.6 -3.36187
      vertex 0.95684 -1 -4.19219
      vertex 0.95684 -2.6 -4.19219
    endloop
  endfacet
  facet normal -3.20488e-007 -1 2.55581e-007
    outer loop
      vertex 3.87417 -1 -1.8657
      vertex 3.87417 -0.999999 1.8657
      vertex 2.68101 -1 -3.36187
    endloop
  endfacet
  facet normal 0 -1 1.59738e-007
    outer loop
      vertex -3.87417 -0.999999 1.8657
      vertex -2 -0.999999 0
      vertex -2 -0.999999 1.8657
    endloop
  endfacet
  facet normal 0 -1 1.37375e-007
    outer loop
      vertex -2 -0.999999 0
      vertex -1.80194 -0.999999 -0.867767
      vertex -1.80194 -0.999999 0
    endloop
  endfacet
  facet normal -2.88078e-008 -1 1.30799e-007
    outer loop
      vertex -3.87417 -0.999999 1.8657
      vertex -1.80194 -0.999999 -0.867767
      vertex -2 -0.999999 0
    endloop
  endfacet
  facet normal -3.88594e-009 -1 1.60376e-007
    outer loop
      vertex -1.80194 -0.999999 -0.867767
      vertex -0.95684 -1 -4.19219
      vertex -0.445042 -1 -1.94986
    endloop
  endfacet
  facet normal 1.73161e-008 -1 1.65766e-007
    outer loop
      vertex -0.95684 -1 -4.19219
      vertex -1.80194 -0.999999 -0.867767
      vertex -3.87417 -0.999999 1.8657
    endloop
  endfacet
  facet normal 0 -1 1.59738e-007
    outer loop
      vertex 2 -0.999999 0
      vertex 3.87417 -0.999999 1.8657
      vertex 2 -0.999999 1.8657
    endloop
  endfacet
  facet normal 1.38893e-008 -1 1.45786e-007
    outer loop
      vertex 1.24698 -1 -1.56366
      vertex 3.87417 -0.999999 1.8657
      vertex 2 -0.999999 0
    endloop
  endfacet
  facet normal 0 -1 1.59489e-007
    outer loop
      vertex 0.95684 -1 -4.19219
      vertex -0.445042 -1 -1.94986
      vertex -0.95684 -1 -4.19219
    endloop
  endfacet
  facet normal -3.51736e-009 -1 1.59121e-007
    outer loop
      vertex 1.24698 -1 -1.56366
      vertex 0.95684 -1 -4.19219
      vertex 3.87417 -0.999999 1.8657
    endloop
  endfacet
  facet normal -1.02872e-009 -1 1.58846e-007
    outer loop
      vertex -0.445042 -1 -1.94986
      vertex 0.95684 -1 -4.19219
      vertex 1.24698 -1 -1.56366
    endloop
  endfacet
  facet normal 0 1 -0
    outer loop
      vertex 4.3 -2.6 0
      vertex -4.3 -2.6 5.3
      vertex 4.3 -2.6 5.3
    endloop
  endfacet
  facet normal 0 1 0
    outer loop
      vertex 4.3 -2.6 0
      vertex -4.3 -2.6 0
      vertex -4.3 -2.6 5.3
    endloop
  endfacet
  facet normal 0 1 -0
    outer loop
      vertex 3.87417 -2.6 -1.8657
      vertex -4.3 -2.6 0
      vertex 4.3 -2.6 0
    endloop
  endfacet
  facet normal 0 1 0
    outer loop
      vertex 3.87417 -2.6 -1.8657
      vertex -3.87417 -2.6 -1.8657
      vertex -4.3 -2.6 0
    endloop
  endfacet
  facet normal 0 1 -0
    outer loop
      vertex 2.68101 -2.6 -3.36187
      vertex -3.87417 -2.6 -1.8657
      vertex 3.87417 -2.6 -1.8657
    endloop
  endfacet
  facet normal 0 1 0
    outer loop
      vertex 2.68101 -2.6 -3.36187
      vertex -2.68101 -2.6 -3.36187
      vertex -3.87417 -2.6 -1.8657
    endloop
  endfacet
  facet normal 0 1 -0
    outer loop
      vertex 0.95684 -2.6 -4.19219
      vertex -2.68101 -2.6 -3.36187
      vertex 2.68101 -2.6 -3.36187
    endloop
  endfacet
  facet normal 0 1 0
    outer loop
      vertex -2.68101 -2.6 -3.36187
      vertex 0.95684 -2.6 -4.19219
      vertex -0.95684 -2.6 -4.19219
    endloop
  endfacet
  facet normal -0.781831 0 -0.62349
    outer loop
      vertex 3.87417 -1 1.8657
      vertex 2.68101 -0.999999 3.36187
      vertex 3.87417 -0.999999 1.8657
    endloop
  endfacet
  facet normal -0.781831 -0 -0.62349
    outer loop
      vertex 2.68101 -0.999999 3.36187
      vertex 3.87417 -1 1.8657
      vertex 2.68101 -1 3.36187
    endloop
  endfacet
  facet normal -1.11977e-006 -1 2.55581e-007
    outer loop
      vertex 4.3 -1 0
      vertex 3.87417 -0.999999 1.8657
      vertex 3.87417 -1 -1.8657
    endloop
  endfacet
  facet normal -0 0 1
    outer loop
      vertex -0.95684 -1 -4.19219
      vertex 0.95684 -2.6 -4.19219
      vertex 0.95684 -1 -4.19219
    endloop
  endfacet
  facet normal 0 0 1
    outer loop
      vertex 0.95684 -2.6 -4.19219
      vertex -0.95684 -1 -4.19219
      vertex -0.95684 -2.6 -4.19219
    endloop
  endfacet
  facet normal -9.87035e-008 -1 2.0496e-007
    outer loop
      vertex 2.68101 -1 -3.36187
      vertex 3.87417 -0.999999 1.8657
      vertex 0.95684 -1 -4.19219
    endloop
  endfacet
  facet normal -0.974928 0 0.222521
    outer loop
      vertex 3.87417 -2.6 -1.8657
      vertex 4.3 -1 0
      vertex 3.87417 -1 -1.8657
    endloop
  endfacet
  facet normal -0.974928 0 0.222521
    outer loop
      vertex 4.3 -1 0
      vertex 3.87417 -2.6 -1.8657
      vertex 4.3 -2.6 0
    endloop
  endfacet
  facet normal 0.781831 0 -0.62349
    outer loop
      vertex -2.68101 -1 3.36187
      vertex -3.87417 -0.999999 1.8657
      vertex -2.68101 -0.999999 3.36187
    endloop
  endfacet
  facet normal 0.781831 0 -0.62349
    outer loop
      vertex -3.87417 -0.999999 1.8657
      vertex -2.68101 -1 3.36187
      vertex -3.87417 -1 1.8657
    endloop
  endfacet
  facet normal 0.433884 0 -0.900969
    outer loop
      vertex -2.68101 -1 3.36187
      vertex -2 -0.999999 3.68983
      vertex -2 -1 3.68983
    endloop
  endfacet
  facet normal 0.433884 0 -0.900969
    outer loop
      vertex -2 -0.999999 3.68983
      vertex -2.68101 -1 3.36187
      vertex -2.68101 -0.999999 3.36187
    endloop
  endfacet
  facet normal 0 -1 0
    outer loop
      vertex 2 -0.999999 1.8657
      vertex 2.68101 -0.999999 3.36187
      vertex 2 -0.999999 3.68983
    endloop
  endfacet
  facet normal 0 -1 -0
    outer loop
      vertex 2.68101 -0.999999 3.36187
      vertex 2 -0.999999 1.8657
      vertex 3.87417 -0.999999 1.8657
    endloop
  endfacet
  facet normal 0 -1 0
    outer loop
      vertex -2 -0.999999 1.8657
      vertex -2.68101 -0.999999 3.36187
      vertex -3.87417 -0.999999 1.8657
    endloop
  endfacet
  facet normal 0 -1 0
    outer loop
      vertex -2.68101 -0.999999 3.36187
      vertex -2 -0.999999 1.8657
      vertex -2 -0.999999 3.68983
    endloop
  endfacet
  facet normal 0.974928 -0 0.222521
    outer loop
      vertex -4.3 -2.6 0
      vertex -3.87417 -1 -1.8657
      vertex -4.3 -1 0
    endloop
  endfacet
  facet normal 0.974928 0 0.222521
    outer loop
      vertex -3.87417 -1 -1.8657
      vertex -4.3 -2.6 0
      vertex -3.87417 -2.6 -1.8657
    endloop
  endfacet
  facet normal 0.433884 0 0.900969
    outer loop
      vertex -2.68101 -1 -3.36187
      vertex -0.95684 -2.6 -4.19219
      vertex -0.95684 -1 -4.19219
    endloop
  endfacet
  facet normal 0.433884 0 0.900969
    outer loop
      vertex -0.95684 -2.6 -4.19219
      vertex -2.68101 -1 -3.36187
      vertex -2.68101 -2.6 -3.36187
    endloop
  endfacet
  facet normal -0.781831 0 0.62349
    outer loop
      vertex 2.68101 -2.6 -3.36187
      vertex 3.87417 -1 -1.8657
      vertex 2.68101 -1 -3.36187
    endloop
  endfacet
  facet normal -0.781831 0 0.62349
    outer loop
      vertex 3.87417 -1 -1.8657
      vertex 2.68101 -2.6 -3.36187
      vertex 3.87417 -2.6 -1.8657
    endloop
  endfacet
  facet normal 0.974928 0 -0.222521
    outer loop
      vertex -3.87417 -0.999999 1.8657
      vertex -3.87417 -1 1.8657
      vertex -4.3 -1 0
    endloop
  endfacet
  facet normal 1.11977e-006 -1 2.55581e-007
    outer loop
      vertex -3.87417 -1 -1.8657
      vertex -3.87417 -0.999999 1.8657
      vertex -4.3 -1 0
    endloop
  endfacet
  facet normal 1 -0 0
    outer loop
      vertex -4.3 -2.6 5.3
      vertex -4.3 -1 0
      vertex -4.3 -1 5.3
    endloop
  endfacet
  facet normal 1 0 0
    outer loop
      vertex -4.3 -1 0
      vertex -4.3 -2.6 5.3
      vertex -4.3 -2.6 0
    endloop
  endfacet
  facet normal -1 0 0
    outer loop
      vertex 4.3 -2.6 0
      vertex 4.3 -1 5.3
      vertex 4.3 -1 0
    endloop
  endfacet
  facet normal -1 -0 0
    outer loop
      vertex 4.3 -1 5.3
      vertex 4.3 -2.6 0
      vertex 4.3 -2.6 5.3
    endloop
  endfacet
  facet normal 0 -1 0
    outer loop
      vertex 2.68101 -1 3.36187
      vertex 2 -1 5.3
      vertex 2 -1 3.68983
    endloop
  endfacet
  facet normal 0 -1 0
    outer loop
      vertex 2 -1 5.3
      vertex 2.68101 -1 3.36187
      vertex 4.3 -1 5.3
    endloop
  endfacet
  facet normal 0 -1 0
    outer loop
      vertex 3.87417 -1 1.8657
      vertex 4.3 -1 5.3
      vertex 2.68101 -1 3.36187
    endloop
  endfacet
  facet normal 0 -1 -0
    outer loop
      vertex 4.3 -1 5.3
      vertex 3.87417 -1 1.8657
      vertex 4.3 -1 0
    endloop
  endfacet
  facet normal 0 -1 0
    outer loop
      vertex -2.68101 -1 3.36187
      vertex -2 -1 5.3
      vertex -4.3 -1 5.3
    endloop
  endfacet
  facet normal 0 -1 -0
    outer loop
      vertex -2 -1 5.3
      vertex -2.68101 -1 3.36187
      vertex -2 -1 3.68983
    endloop
  endfacet
  facet normal 0 -1 0
    outer loop
      vertex -4.3 -1 5.3
      vertex -3.87417 -1 1.8657
      vertex -2.68101 -1 3.36187
    endloop
  endfacet
  facet normal -0 -1 0
    outer loop
      vertex -3.87417 -1 1.8657
      vertex -4.3 -1 5.3
      vertex -4.3 -1 0
    endloop
  endfacet
  facet normal 0.62349 0 0.781831
    outer loop
      vertex -1.80194 0 -0.867767
      vertex -0.445042 -1 -1.94986
      vertex -0.445042 0 -1.94986
    endloop
  endfacet
  facet normal 0.62349 0 0.781831
    outer loop
      vertex -0.445042 -1 -1.94986
      vertex -1.80194 0 -0.867767
      vertex -1.80194 -0.999999 -0.867767
    endloop
  endfacet
  facet normal 1 -0 0
    outer loop
      vertex -1.80194 -0.999999 0
      vertex -1.80194 0 -0.867767
      vertex -1.80194 0 0
    endloop
  endfacet
  facet normal 1 0 0
    outer loop
      vertex -1.80194 0 -0.867767
      vertex -1.80194 -0.999999 0
      vertex -1.80194 -0.999999 -0.867767
    endloop
  endfacet
  facet normal -0.222521 0 0.974928
    outer loop
      vertex -0.445042 0 -1.94986
      vertex 1.24698 -1 -1.56366
      vertex 1.24698 0 -1.56366
    endloop
  endfacet
  facet normal -0.222521 0 0.974928
    outer loop
      vertex 1.24698 -1 -1.56366
      vertex -0.445042 0 -1.94986
      vertex -0.445042 -1 -1.94986
    endloop
  endfacet
  facet normal -0.900969 0 0.433884
    outer loop
      vertex 1.24698 0 -1.56366
      vertex 2 -0.999999 0
      vertex 2 0 0
    endloop
  endfacet
  facet normal -0.900969 0 0.433884
    outer loop
      vertex 2 -0.999999 0
      vertex 1.24698 0 -1.56366
      vertex 1.24698 -1 -1.56366
    endloop
  endfacet
  facet normal 1 0 0
    outer loop
      vertex -2 -0.999999 1.8657
      vertex -2 0 5.3
      vertex -2 -0.999999 3.68983
    endloop
  endfacet
  facet normal 1 -0 0
    outer loop
      vertex -2 -1 5.3
      vertex -2 -0.999999 3.68983
      vertex -2 0 5.3
    endloop
  endfacet
  facet normal 1 0 0
    outer loop
      vertex -2 -0.999999 3.68983
      vertex -2 -1 5.3
      vertex -2 -1 3.68983
    endloop
  endfacet
  facet normal 1 0 0
    outer loop
      vertex -2 0 5.3
      vertex -2 -0.999999 1.8657
      vertex -2 0 0
    endloop
  endfacet
  facet normal 1 0 0
    outer loop
      vertex -2 0 0
      vertex -2 -0.999999 1.8657
      vertex -2 -0.999999 0
    endloop
  endfacet
  facet normal -1 0 0
    outer loop
      vertex 2 0 0
      vertex 2 -0.999999 1.8657
      vertex 2 0 5.3
    endloop
  endfacet
  facet normal -1 0 -0
    outer loop
      vertex 2 -0.999999 1.8657
      vertex 2 0 0
      vertex 2 -0.999999 0
    endloop
  endfacet
  facet normal -1 0 0
    outer loop
      vertex 2 -0.999999 3.68983
      vertex 2 0 5.3
      vertex 2 -0.999999 1.8657
    endloop
  endfacet
  facet normal -1 0 0
    outer loop
      vertex 2 -1 5.3
      vertex 2 -0.999999 3.68983
      vertex 2 -1 3.68983
    endloop
  endfacet
  facet normal -1 0 0
    outer loop
      vertex 2 -0.999999 3.68983
      vertex 2 -1 5.3
      vertex 2 0 5.3
    endloop
  endfacet
  facet normal -0 0 1
    outer loop
      vertex -2 0 0
      vertex -1.80194 -0.999999 0
      vertex -1.80194 0 0
    endloop
  endfacet
  facet normal 0 0 1
    outer loop
      vertex -1.80194 -0.999999 0
      vertex -2 0 0
      vertex -2 -0.999999 0
    endloop
  endfacet
endsolid OpenSCAD_Model
