solid OpenSCAD_Model
  facet normal -1 0 0
    outer loop
      vertex -6.05 0 -6.05
      vertex -6.05 -10.68 0
      vertex -6.05 0 6.05
    endloop
  endfacet
  facet normal -1 0 0
    outer loop
      vertex -6.05 0 -6.05
      vertex -6.05 -11.4029 -1.50112
      vertex -6.05 -10.68 0
    endloop
  endfacet
  facet normal -1 0 0
    outer loop
      vertex -6.05 -15.6 -6.05
      vertex -6.05 -11.4029 -1.50112
      vertex -6.05 0 -6.05
    endloop
  endfacet
  facet normal -1 -0 0
    outer loop
      vertex -6.05 -14.3299 -0.833056
      vertex -6.05 -15.6 -6.05
      vertex -6.05 -14.3299 0.833056
    endloop
  endfacet
  facet normal -1 -0 0
    outer loop
      vertex -6.05 -13.0272 -1.87186
      vertex -6.05 -15.6 -6.05
      vertex -6.05 -14.3299 -0.833056
    endloop
  endfacet
  facet normal -1 0 0
    outer loop
      vertex -6.05 -11.4029 -1.50112
      vertex -6.05 -15.6 -6.05
      vertex -6.05 -13.0272 -1.87186
    endloop
  endfacet
  facet normal -1 0 0
    outer loop
      vertex -6.05 -11.4029 1.50112
      vertex -6.05 0 6.05
      vertex -6.05 -10.68 0
    endloop
  endfacet
  facet normal -1 0 0
    outer loop
      vertex -6.05 -15.6 6.05
      vertex -6.05 -11.4029 1.50112
      vertex -6.05 -13.0272 1.87186
    endloop
  endfacet
  facet normal -1 0 0
    outer loop
      vertex -6.05 -11.4029 1.50112
      vertex -6.05 -15.6 6.05
      vertex -6.05 0 6.05
    endloop
  endfacet
  facet normal -1 0 0
    outer loop
      vertex -6.05 -14.3299 0.833056
      vertex -6.05 -15.6 6.05
      vertex -6.05 -13.0272 1.87186
    endloop
  endfacet
  facet normal -1 0 0
    outer loop
      vertex -6.05 -15.6 6.05
      vertex -6.05 -14.3299 0.833056
      vertex -6.05 -15.6 -6.05
    endloop
  endfacet
  facet normal 0 0 1
    outer loop
      vertex -2 0 6.05
      vertex -4.55 -1 6.05
      vertex -2 -1 6.05
    endloop
  endfacet
  facet normal 0 0 1
    outer loop
      vertex -4.55 -1 6.05
      vertex -6.05 0 6.05
      vertex -4.55 -2.6 6.05
    endloop
  endfacet
  facet normal -0 0 1
    outer loop
      vertex -6.05 0 6.05
      vertex -4.55 -1 6.05
      vertex -2 0 6.05
    endloop
  endfacet
  facet normal 0 0 1
    outer loop
      vertex 4.55 -2.6 6.05
      vertex -3 -5.6 6.05
      vertex 3 -5.6 6.05
    endloop
  endfacet
  facet normal -0 0 1
    outer loop
      vertex -4.55 -2.6 6.05
      vertex -3 -5.6 6.05
      vertex 4.55 -2.6 6.05
    endloop
  endfacet
  facet normal 0 0 1
    outer loop
      vertex -6.05 -15.6 6.05
      vertex -3 -5.6 6.05
      vertex -4.55 -2.6 6.05
    endloop
  endfacet
  facet normal 0 0 1
    outer loop
      vertex -6.05 -15.6 6.05
      vertex -4.55 -2.6 6.05
      vertex -6.05 0 6.05
    endloop
  endfacet
  facet normal 0 0 1
    outer loop
      vertex -3 -5.6 6.05
      vertex -6.05 -15.6 6.05
      vertex -3 -15.6 6.05
    endloop
  endfacet
  facet normal 0 0 1
    outer loop
      vertex 4.55 -2.6 6.05
      vertex 6.05 0 6.05
      vertex 4.55 -1 6.05
    endloop
  endfacet
  facet normal -0 0 1
    outer loop
      vertex 2 0 6.05
      vertex 4.55 -1 6.05
      vertex 6.05 0 6.05
    endloop
  endfacet
  facet normal 0 0 1
    outer loop
      vertex 4.55 -1 6.05
      vertex 2 0 6.05
      vertex 2 -1 6.05
    endloop
  endfacet
  facet normal 0 0 1
    outer loop
      vertex 6.05 0 6.05
      vertex 4.55 -2.6 6.05
      vertex 6.05 -15.6 6.05
    endloop
  endfacet
  facet normal -0 0 1
    outer loop
      vertex 3 -5.6 6.05
      vertex 6.05 -15.6 6.05
      vertex 4.55 -2.6 6.05
    endloop
  endfacet
  facet normal 0 0 1
    outer loop
      vertex 6.05 -15.6 6.05
      vertex 3 -5.6 6.05
      vertex 3 -15.6 6.05
    endloop
  endfacet
  facet normal 1 0 0
    outer loop
      vertex 6.05 0 6.05
      vertex 6.05 -10.68 0
      vertex 6.05 0 -6.05
    endloop
  endfacet
  facet normal 1 0 0
    outer loop
      vertex 6.05 0 6.05
      vertex 6.05 -11.4029 1.50112
      vertex 6.05 -10.68 0
    endloop
  endfacet
  facet normal 1 -0 0
    outer loop
      vertex 6.05 -15.6 6.05
      vertex 6.05 -11.4029 1.50112
      vertex 6.05 0 6.05
    endloop
  endfacet
  facet normal 1 0 0
    outer loop
      vertex 6.05 -14.3299 0.833056
      vertex 6.05 -15.6 6.05
      vertex 6.05 -14.3299 -0.833056
    endloop
  endfacet
  facet normal 1 0 0
    outer loop
      vertex 6.05 -13.0272 1.87186
      vertex 6.05 -15.6 6.05
      vertex 6.05 -14.3299 0.833056
    endloop
  endfacet
  facet normal 1 0 0
    outer loop
      vertex 6.05 -11.4029 1.50112
      vertex 6.05 -15.6 6.05
      vertex 6.05 -13.0272 1.87186
    endloop
  endfacet
  facet normal 1 -0 0
    outer loop
      vertex 6.05 -11.4029 -1.50112
      vertex 6.05 0 -6.05
      vertex 6.05 -10.68 0
    endloop
  endfacet
  facet normal 1 0 0
    outer loop
      vertex 6.05 -15.6 -6.05
      vertex 6.05 -11.4029 -1.50112
      vertex 6.05 -13.0272 -1.87186
    endloop
  endfacet
  facet normal 1 0 0
    outer loop
      vertex 6.05 -11.4029 -1.50112
      vertex 6.05 -15.6 -6.05
      vertex 6.05 0 -6.05
    endloop
  endfacet
  facet normal 1 0 0
    outer loop
      vertex 6.05 -14.3299 -0.833056
      vertex 6.05 -15.6 -6.05
      vertex 6.05 -13.0272 -1.87186
    endloop
  endfacet
  facet normal 1 0 0
    outer loop
      vertex 6.05 -15.6 -6.05
      vertex 6.05 -14.3299 -0.833056
      vertex 6.05 -15.6 6.05
    endloop
  endfacet
  facet normal 0 1 0
    outer loop
      vertex 6.05 0 6.05
      vertex 2 0 0
      vertex 2 0 6.05
    endloop
  endfacet
  facet normal 0 1 -0
    outer loop
      vertex 6.05 0 -6.05
      vertex 2 0 0
      vertex 6.05 0 6.05
    endloop
  endfacet
  facet normal 0 1 0
    outer loop
      vertex 1.24698 0 -1.56366
      vertex 6.05 0 -6.05
      vertex -0.445042 0 -1.94986
    endloop
  endfacet
  facet normal 0 1 0
    outer loop
      vertex 2 0 0
      vertex 6.05 0 -6.05
      vertex 1.24698 0 -1.56366
    endloop
  endfacet
  facet normal 0 1 0
    outer loop
      vertex -1.80194 0 0
      vertex -1.80194 0 -0.867767
      vertex -2 0 0
    endloop
  endfacet
  facet normal 0 1 -0
    outer loop
      vertex -2 0 0
      vertex -6.05 0 6.05
      vertex -2 0 6.05
    endloop
  endfacet
  facet normal 0 1 0
    outer loop
      vertex -6.05 0 -6.05
      vertex -2 0 0
      vertex -1.80194 0 -0.867767
    endloop
  endfacet
  facet normal 0 1 0
    outer loop
      vertex -2 0 0
      vertex -6.05 0 -6.05
      vertex -6.05 0 6.05
    endloop
  endfacet
  facet normal 0 1 0
    outer loop
      vertex -0.445042 0 -1.94986
      vertex -6.05 0 -6.05
      vertex -1.80194 0 -0.867767
    endloop
  endfacet
  facet normal 0 1 0
    outer loop
      vertex -6.05 0 -6.05
      vertex -0.445042 0 -1.94986
      vertex 6.05 0 -6.05
    endloop
  endfacet
  facet normal 0 0 -1
    outer loop
      vertex -3 -15.6 -6.05
      vertex -6.05 -15.6 -6.05
      vertex -3 -5.6 -6.05
    endloop
  endfacet
  facet normal 0 0 -1
    outer loop
      vertex 3 -5.6 -6.05
      vertex 6.05 -15.6 -6.05
      vertex 3 -15.6 -6.05
    endloop
  endfacet
  facet normal 0 0 -1
    outer loop
      vertex 6.05 -15.6 -6.05
      vertex 3 -5.6 -6.05
      vertex 6.05 0 -6.05
    endloop
  endfacet
  facet normal 0 0 -1
    outer loop
      vertex -3 -5.6 -6.05
      vertex 6.05 0 -6.05
      vertex 3 -5.6 -6.05
    endloop
  endfacet
  facet normal 0 0 -1
    outer loop
      vertex -3 -5.6 -6.05
      vertex -6.05 0 -6.05
      vertex 6.05 0 -6.05
    endloop
  endfacet
  facet normal 0 0 -1
    outer loop
      vertex -6.05 0 -6.05
      vertex -3 -5.6 -6.05
      vertex -6.05 -15.6 -6.05
    endloop
  endfacet
  facet normal 0 -1 0
    outer loop
      vertex -6.05 -15.6 -6.05
      vertex -3 -15.6 6.05
      vertex -6.05 -15.6 6.05
    endloop
  endfacet
  facet normal 0 -1 -0
    outer loop
      vertex -3 -15.6 6.05
      vertex -6.05 -15.6 -6.05
      vertex -3 -15.6 -6.05
    endloop
  endfacet
  facet normal 0 -1 0
    outer loop
      vertex 3 -15.6 -6.05
      vertex 6.05 -15.6 6.05
      vertex 3 -15.6 6.05
    endloop
  endfacet
  facet normal 0 -1 -0
    outer loop
      vertex 6.05 -15.6 6.05
      vertex 3 -15.6 -6.05
      vertex 6.05 -15.6 -6.05
    endloop
  endfacet
  facet normal 1 0 0
    outer loop
      vertex -3 -5.6 6.05
      vertex -3 -10.68 0
      vertex -3 -5.6 -6.05
    endloop
  endfacet
  facet normal 1 0 0
    outer loop
      vertex -3 -5.6 6.05
      vertex -3 -11.4029 1.50112
      vertex -3 -10.68 0
    endloop
  endfacet
  facet normal 1 -0 0
    outer loop
      vertex -3 -15.6 6.05
      vertex -3 -11.4029 1.50112
      vertex -3 -5.6 6.05
    endloop
  endfacet
  facet normal 1 0 0
    outer loop
      vertex -3 -14.3299 0.833056
      vertex -3 -15.6 6.05
      vertex -3 -14.3299 -0.833056
    endloop
  endfacet
  facet normal 1 0 0
    outer loop
      vertex -3 -13.0272 1.87186
      vertex -3 -15.6 6.05
      vertex -3 -14.3299 0.833056
    endloop
  endfacet
  facet normal 1 0 0
    outer loop
      vertex -3 -11.4029 1.50112
      vertex -3 -15.6 6.05
      vertex -3 -13.0272 1.87186
    endloop
  endfacet
  facet normal 1 -0 0
    outer loop
      vertex -3 -11.4029 -1.50112
      vertex -3 -5.6 -6.05
      vertex -3 -10.68 0
    endloop
  endfacet
  facet normal 1 0 0
    outer loop
      vertex -3 -15.6 -6.05
      vertex -3 -11.4029 -1.50112
      vertex -3 -13.0272 -1.87186
    endloop
  endfacet
  facet normal 1 0 0
    outer loop
      vertex -3 -11.4029 -1.50112
      vertex -3 -15.6 -6.05
      vertex -3 -5.6 -6.05
    endloop
  endfacet
  facet normal 1 0 0
    outer loop
      vertex -3 -14.3299 -0.833056
      vertex -3 -15.6 -6.05
      vertex -3 -13.0272 -1.87186
    endloop
  endfacet
  facet normal 1 0 0
    outer loop
      vertex -3 -15.6 -6.05
      vertex -3 -14.3299 -0.833056
      vertex -3 -15.6 6.05
    endloop
  endfacet
  facet normal -1 0 0
    outer loop
      vertex 3 -5.6 -6.05
      vertex 3 -10.68 0
      vertex 3 -5.6 6.05
    endloop
  endfacet
  facet normal -1 0 0
    outer loop
      vertex 3 -5.6 -6.05
      vertex 3 -11.4029 -1.50112
      vertex 3 -10.68 0
    endloop
  endfacet
  facet normal -1 0 0
    outer loop
      vertex 3 -15.6 -6.05
      vertex 3 -11.4029 -1.50112
      vertex 3 -5.6 -6.05
    endloop
  endfacet
  facet normal -1 -0 0
    outer loop
      vertex 3 -14.3299 -0.833056
      vertex 3 -15.6 -6.05
      vertex 3 -14.3299 0.833056
    endloop
  endfacet
  facet normal -1 -0 0
    outer loop
      vertex 3 -13.0272 -1.87186
      vertex 3 -15.6 -6.05
      vertex 3 -14.3299 -0.833056
    endloop
  endfacet
  facet normal -1 0 0
    outer loop
      vertex 3 -11.4029 -1.50112
      vertex 3 -15.6 -6.05
      vertex 3 -13.0272 -1.87186
    endloop
  endfacet
  facet normal -1 0 0
    outer loop
      vertex 3 -11.4029 1.50112
      vertex 3 -5.6 6.05
      vertex 3 -10.68 0
    endloop
  endfacet
  facet normal -1 0 0
    outer loop
      vertex 3 -15.6 6.05
      vertex 3 -11.4029 1.50112
      vertex 3 -13.0272 1.87186
    endloop
  endfacet
  facet normal -1 0 0
    outer loop
      vertex 3 -11.4029 1.50112
      vertex 3 -15.6 6.05
      vertex 3 -5.6 6.05
    endloop
  endfacet
  facet normal -1 0 0
    outer loop
      vertex 3 -14.3299 0.833056
      vertex 3 -15.6 6.05
      vertex 3 -13.0272 1.87186
    endloop
  endfacet
  facet normal -1 0 0
    outer loop
      vertex 3 -15.6 6.05
      vertex 3 -14.3299 0.833056
      vertex 3 -15.6 -6.05
    endloop
  endfacet
  facet normal 0 -1 0
    outer loop
      vertex -3 -5.6 -6.05
      vertex 3 -5.6 6.05
      vertex -3 -5.6 6.05
    endloop
  endfacet
  facet normal 0 -1 -0
    outer loop
      vertex 3 -5.6 6.05
      vertex -3 -5.6 -6.05
      vertex 3 -5.6 -6.05
    endloop
  endfacet
  facet normal 0 -0.900969 -0.433884
    outer loop
      vertex -6.05 -10.68 0
      vertex -3 -11.4029 1.50112
      vertex -6.05 -11.4029 1.50112
    endloop
  endfacet
  facet normal 0 -0.900969 -0.433884
    outer loop
      vertex -3 -11.4029 1.50112
      vertex -6.05 -10.68 0
      vertex -3 -10.68 0
    endloop
  endfacet
  facet normal 0 -0.900969 -0.433884
    outer loop
      vertex 3 -10.68 0
      vertex 6.05 -11.4029 1.50112
      vertex 3 -11.4029 1.50112
    endloop
  endfacet
  facet normal 0 -0.900969 -0.433884
    outer loop
      vertex 6.05 -11.4029 1.50112
      vertex 3 -10.68 0
      vertex 6.05 -10.68 0
    endloop
  endfacet
  facet normal 0 1 -0
    outer loop
      vertex -3 -14.3299 -0.833056
      vertex -6.05 -14.3299 0.833056
      vertex -3 -14.3299 0.833056
    endloop
  endfacet
  facet normal 0 1 0
    outer loop
      vertex -6.05 -14.3299 0.833056
      vertex -3 -14.3299 -0.833056
      vertex -6.05 -14.3299 -0.833056
    endloop
  endfacet
  facet normal 0 1 -0
    outer loop
      vertex 6.05 -14.3299 -0.833056
      vertex 3 -14.3299 0.833056
      vertex 6.05 -14.3299 0.833056
    endloop
  endfacet
  facet normal 0 1 0
    outer loop
      vertex 3 -14.3299 0.833056
      vertex 6.05 -14.3299 -0.833056
      vertex 3 -14.3299 -0.833056
    endloop
  endfacet
  facet normal 0 -0.222521 -0.974928
    outer loop
      vertex -6.05 -13.0272 1.87186
      vertex -3 -11.4029 1.50112
      vertex -3 -13.0272 1.87186
    endloop
  endfacet
  facet normal -0 -0.222521 -0.974928
    outer loop
      vertex -3 -11.4029 1.50112
      vertex -6.05 -13.0272 1.87186
      vertex -6.05 -11.4029 1.50112
    endloop
  endfacet
  facet normal 0 -0.222521 -0.974928
    outer loop
      vertex 3 -13.0272 1.87186
      vertex 6.05 -11.4029 1.50112
      vertex 6.05 -13.0272 1.87186
    endloop
  endfacet
  facet normal -0 -0.222521 -0.974928
    outer loop
      vertex 6.05 -11.4029 1.50112
      vertex 3 -13.0272 1.87186
      vertex 3 -11.4029 1.50112
    endloop
  endfacet
  facet normal 0 0.62349 -0.781831
    outer loop
      vertex -6.05 -14.3299 0.833056
      vertex -3 -13.0272 1.87186
      vertex -3 -14.3299 0.833056
    endloop
  endfacet
  facet normal 0 0.62349 -0.781831
    outer loop
      vertex -3 -13.0272 1.87186
      vertex -6.05 -14.3299 0.833056
      vertex -6.05 -13.0272 1.87186
    endloop
  endfacet
  facet normal 0 0.62349 -0.781831
    outer loop
      vertex 3 -14.3299 0.833056
      vertex 6.05 -13.0272 1.87186
      vertex 6.05 -14.3299 0.833056
    endloop
  endfacet
  facet normal 0 0.62349 -0.781831
    outer loop
      vertex 6.05 -13.0272 1.87186
      vertex 3 -14.3299 0.833056
      vertex 3 -13.0272 1.87186
    endloop
  endfacet
  facet normal 0 -0.900969 0.433884
    outer loop
      vertex -6.05 -11.4029 -1.50112
      vertex -3 -10.68 0
      vertex -6.05 -10.68 0
    endloop
  endfacet
  facet normal 0 -0.900969 0.433884
    outer loop
      vertex -3 -10.68 0
      vertex -6.05 -11.4029 -1.50112
      vertex -3 -11.4029 -1.50112
    endloop
  endfacet
  facet normal 0 -0.900969 0.433884
    outer loop
      vertex 3 -11.4029 -1.50112
      vertex 6.05 -10.68 0
      vertex 3 -10.68 0
    endloop
  endfacet
  facet normal 0 -0.900969 0.433884
    outer loop
      vertex 6.05 -10.68 0
      vertex 3 -11.4029 -1.50112
      vertex 6.05 -11.4029 -1.50112
    endloop
  endfacet
  facet normal 0 -0.222521 0.974928
    outer loop
      vertex -6.05 -11.4029 -1.50112
      vertex -3 -13.0272 -1.87186
      vertex -3 -11.4029 -1.50112
    endloop
  endfacet
  facet normal 0 -0.222521 0.974928
    outer loop
      vertex -3 -13.0272 -1.87186
      vertex -6.05 -11.4029 -1.50112
      vertex -6.05 -13.0272 -1.87186
    endloop
  endfacet
  facet normal 0 -0.222521 0.974928
    outer loop
      vertex 3 -11.4029 -1.50112
      vertex 6.05 -13.0272 -1.87186
      vertex 6.05 -11.4029 -1.50112
    endloop
  endfacet
  facet normal 0 -0.222521 0.974928
    outer loop
      vertex 6.05 -13.0272 -1.87186
      vertex 3 -11.4029 -1.50112
      vertex 3 -13.0272 -1.87186
    endloop
  endfacet
  facet normal -0 0.62349 0.781831
    outer loop
      vertex -6.05 -13.0272 -1.87186
      vertex -3 -14.3299 -0.833056
      vertex -3 -13.0272 -1.87186
    endloop
  endfacet
  facet normal 0 0.62349 0.781831
    outer loop
      vertex -3 -14.3299 -0.833056
      vertex -6.05 -13.0272 -1.87186
      vertex -6.05 -14.3299 -0.833056
    endloop
  endfacet
  facet normal -0 0.62349 0.781831
    outer loop
      vertex 3 -13.0272 -1.87186
      vertex 6.05 -14.3299 -0.833056
      vertex 6.05 -13.0272 -1.87186
    endloop
  endfacet
  facet normal 0 0.62349 0.781831
    outer loop
      vertex 6.05 -14.3299 -0.833056
      vertex 3 -13.0272 -1.87186
      vertex 3 -14.3299 -0.833056
    endloop
  endfacet
  facet normal -0.978148 -0 -0.207912
    outer loop
      vertex 4.15663 -0.999999 1.85065
      vertex 4.55 -1 0
      vertex 4.15663 -1 1.85065
    endloop
  endfacet
  facet normal -1.70212e-008 -1 1.61946e-007
    outer loop
      vertex 1.40603 -1 -4.32731
      vertex 4.15663 -0.999999 1.85065
      vertex -0.475604 -1 -4.52507
    endloop
  endfacet
  facet normal -0.809017 0 -0.587785
    outer loop
      vertex 4.15663 -1 1.85065
      vertex 3.04454 -0.999999 3.38131
      vertex 4.15663 -0.999999 1.85065
    endloop
  endfacet
  facet normal -0.809017 -0 -0.587785
    outer loop
      vertex 3.04454 -0.999999 3.38131
      vertex 4.15663 -1 1.85065
      vertex 3.04454 -1 3.38131
    endloop
  endfacet
  facet normal 0 1 -0
    outer loop
      vertex 4.15663 -2.6 -1.85065
      vertex -4.45057 -2.6 0
      vertex 4.55 -2.6 0
    endloop
  endfacet
  facet normal 0 1 -0
    outer loop
      vertex 3.04454 -2.6 -3.38131
      vertex -4.45057 -2.6 0
      vertex 4.15663 -2.6 -1.85065
    endloop
  endfacet
  facet normal 0 1 0
    outer loop
      vertex -4.45057 -2.6 0
      vertex -3.68103 -2.6 -2.67442
      vertex -4.45057 -2.6 -0.945998
    endloop
  endfacet
  facet normal 0 1 -0
    outer loop
      vertex 1.40603 -2.6 -4.32731
      vertex -4.45057 -2.6 0
      vertex 3.04454 -2.6 -3.38131
    endloop
  endfacet
  facet normal 0 1 0
    outer loop
      vertex -4.45057 -2.6 0
      vertex -2.275 -2.6 -3.94042
      vertex -3.68103 -2.6 -2.67442
    endloop
  endfacet
  facet normal 0 1 -0
    outer loop
      vertex -0.475604 -2.6 -4.52507
      vertex -4.45057 -2.6 0
      vertex 1.40603 -2.6 -4.32731
    endloop
  endfacet
  facet normal 0 1 0
    outer loop
      vertex -4.45057 -2.6 0
      vertex -0.475604 -2.6 -4.52507
      vertex -2.275 -2.6 -3.94042
    endloop
  endfacet
  facet normal 0 1 0
    outer loop
      vertex -4.45057 -2.6 0
      vertex 4.55 -2.6 6.05
      vertex 4.55 -2.6 0
    endloop
  endfacet
  facet normal 0 1 0
    outer loop
      vertex 4.55 -2.6 6.05
      vertex -4.45057 -2.6 0
      vertex -4.55 -2.6 6.05
    endloop
  endfacet
  facet normal 0 1 0
    outer loop
      vertex -4.55 -2.6 6.05
      vertex -4.45057 -2.6 0
      vertex -4.55 -2.6 0
    endloop
  endfacet
  facet normal 0.913545 -0 0.406737
    outer loop
      vertex -4.45057 -2.6 -0.945998
      vertex -3.68103 -1 -2.67442
      vertex -4.45057 -1 -0.945998
    endloop
  endfacet
  facet normal 0.913545 0 0.406737
    outer loop
      vertex -3.68103 -1 -2.67442
      vertex -4.45057 -2.6 -0.945998
      vertex -3.68103 -2.6 -2.67442
    endloop
  endfacet
  facet normal 1.13213e-006 -1 5.04057e-007
    outer loop
      vertex -3.68103 -1 -2.67442
      vertex -4.45057 -0.999999 0.945998
      vertex -4.45057 -1 -0.945998
    endloop
  endfacet
  facet normal 0.309016 0 -0.951057
    outer loop
      vertex -2.275 -1 3.94042
      vertex -2 -0.999999 4.02977
      vertex -2 -1 4.02977
    endloop
  endfacet
  facet normal 0.309016 0 -0.951057
    outer loop
      vertex -2 -0.999999 4.02977
      vertex -2.275 -1 3.94042
      vertex -2.275 -0.999999 3.94042
    endloop
  endfacet
  facet normal 1 0 0
    outer loop
      vertex -4.45057 -1 0
      vertex -4.45057 -0.999999 0.945998
      vertex -4.45057 -1 0.945998
    endloop
  endfacet
  facet normal 1 -0 0
    outer loop
      vertex -4.45057 -1 0
      vertex -4.45057 -1 -0.945998
      vertex -4.45057 -0.999999 0.945998
    endloop
  endfacet
  facet normal 1 -0 0
    outer loop
      vertex -4.45057 -2.6 0
      vertex -4.45057 -1 -0.945998
      vertex -4.45057 -1 0
    endloop
  endfacet
  facet normal 1 0 0
    outer loop
      vertex -4.45057 -1 -0.945998
      vertex -4.45057 -2.6 0
      vertex -4.45057 -2.6 -0.945998
    endloop
  endfacet
  facet normal -0.5 0 0.866025
    outer loop
      vertex 1.40603 -1 -4.32731
      vertex 3.04454 -2.6 -3.38131
      vertex 3.04454 -1 -3.38131
    endloop
  endfacet
  facet normal -0.5 0 0.866025
    outer loop
      vertex 3.04454 -2.6 -3.38131
      vertex 1.40603 -1 -4.32731
      vertex 1.40603 -2.6 -4.32731
    endloop
  endfacet
  facet normal -3.54638e-007 -1 2.57659e-007
    outer loop
      vertex 4.15663 -1 -1.85065
      vertex 4.15663 -0.999999 1.85065
      vertex 3.04454 -1 -3.38131
    endloop
  endfacet
  facet normal 2.93318e-007 -1 3.25762e-007
    outer loop
      vertex -3.68103 -1 -2.67442
      vertex -2.275 -1 -3.94042
      vertex -4.45057 -0.999999 0.945998
    endloop
  endfacet
  facet normal -0.5 0 -0.866025
    outer loop
      vertex 2 -1 3.98438
      vertex 3.04454 -0.999999 3.38131
      vertex 3.04454 -1 3.38131
    endloop
  endfacet
  facet normal -0.5 0 -0.866025
    outer loop
      vertex 3.04454 -0.999999 3.38131
      vertex 2 -1 3.98438
      vertex 2 -0.999999 3.98438
    endloop
  endfacet
  facet normal -1.21219e-006 -1 2.57659e-007
    outer loop
      vertex 4.55 -1 0
      vertex 4.15663 -0.999999 1.85065
      vertex 4.15663 -1 -1.85065
    endloop
  endfacet
  facet normal -1.1996e-007 -1 2.07777e-007
    outer loop
      vertex 3.04454 -1 -3.38131
      vertex 4.15663 -0.999999 1.85065
      vertex 1.40603 -1 -4.32731
    endloop
  endfacet
  facet normal 0.913545 0 -0.406737
    outer loop
      vertex -3.68103 -1 2.67442
      vertex -4.45057 -0.999999 0.945998
      vertex -3.68103 -0.999999 2.67442
    endloop
  endfacet
  facet normal 0.913545 0 -0.406737
    outer loop
      vertex -4.45057 -0.999999 0.945998
      vertex -3.68103 -1 2.67442
      vertex -4.45057 -1 0.945998
    endloop
  endfacet
  facet normal 0 -1 0
    outer loop
      vertex 2 -0.999999 1.62398
      vertex 3.04454 -0.999999 3.38131
      vertex 2 -0.999999 3.98438
    endloop
  endfacet
  facet normal 0 -1 -0
    outer loop
      vertex 3.04454 -0.999999 3.38131
      vertex 2 -0.999999 1.62398
      vertex 4.15663 -0.999999 1.85065
    endloop
  endfacet
  facet normal 0 -1 0
    outer loop
      vertex -2 -0.999999 1.20356
      vertex -2.275 -0.999999 3.94042
      vertex -3.68103 -0.999999 2.67442
    endloop
  endfacet
  facet normal 0 -1 0
    outer loop
      vertex -2.275 -0.999999 3.94042
      vertex -2 -0.999999 1.20356
      vertex -2 -0.999999 4.02977
    endloop
  endfacet
  facet normal -0 -1 0
    outer loop
      vertex -2 -0.999999 1.20356
      vertex -3.68103 -0.999999 2.67442
      vertex -4.45057 -0.999999 0.945998
    endloop
  endfacet
  facet normal -0.104528 0 0.994522
    outer loop
      vertex -0.475604 -1 -4.52507
      vertex 1.40603 -2.6 -4.32731
      vertex 1.40603 -1 -4.32731
    endloop
  endfacet
  facet normal -0.104528 0 0.994522
    outer loop
      vertex 1.40603 -2.6 -4.32731
      vertex -0.475604 -1 -4.52507
      vertex -0.475604 -2.6 -4.52507
    endloop
  endfacet
  facet normal 7.41393e-008 -1 2.28178e-007
    outer loop
      vertex -2.275 -1 -3.94042
      vertex -0.475604 -1 -4.52507
      vertex -4.45057 -0.999999 0.945998
    endloop
  endfacet
  facet normal -1.56154e-008 -1 1.4857e-007
    outer loop
      vertex -4.45057 -0.999999 0.945998
      vertex -2 -0.999999 0
      vertex -2 -0.999999 1.20356
    endloop
  endfacet
  facet normal 0 -1 2.06062e-007
    outer loop
      vertex -2 -0.999999 0
      vertex -1.80194 -0.999999 -0.867767
      vertex -1.80194 -0.999999 0
    endloop
  endfacet
  facet normal 7.21383e-009 -1 2.07709e-007
    outer loop
      vertex -4.45057 -0.999999 0.945998
      vertex -1.80194 -0.999999 -0.867767
      vertex -2 -0.999999 0
    endloop
  endfacet
  facet normal -3.11578e-008 -1 1.51675e-007
    outer loop
      vertex -0.475604 -1 -4.52507
      vertex -1.80194 -0.999999 -0.867767
      vertex -4.45057 -0.999999 0.945998
    endloop
  endfacet
  facet normal -2.55216e-009 -1 1.62049e-007
    outer loop
      vertex -1.80194 -0.999999 -0.867767
      vertex -0.475604 -1 -4.52507
      vertex -0.445042 -1 -1.94986
    endloop
  endfacet
  facet normal -1.54305e-008 -1 1.46811e-007
    outer loop
      vertex 2 -0.999999 0
      vertex 4.15663 -0.999999 1.85065
      vertex 2 -0.999999 1.62398
    endloop
  endfacet
  facet normal -3.45806e-008 -1 1.69128e-007
    outer loop
      vertex 1.24698 -1 -1.56366
      vertex 4.15663 -0.999999 1.85065
      vertex 2 -0.999999 0
    endloop
  endfacet
  facet normal -7.89548e-008 -1 2.06943e-007
    outer loop
      vertex 1.24698 -1 -1.56366
      vertex -0.475604 -1 -4.52507
      vertex 4.15663 -0.999999 1.85065
    endloop
  endfacet
  facet normal -1.75754e-009 -1 1.62039e-007
    outer loop
      vertex -0.475604 -1 -4.52507
      vertex 1.24698 -1 -1.56366
      vertex -0.445042 -1 -1.94986
    endloop
  endfacet
  facet normal 0.309017 0 0.951057
    outer loop
      vertex -2.275 -1 -3.94042
      vertex -0.475604 -2.6 -4.52507
      vertex -0.475604 -1 -4.52507
    endloop
  endfacet
  facet normal 0.309017 0 0.951057
    outer loop
      vertex -0.475604 -2.6 -4.52507
      vertex -2.275 -1 -3.94042
      vertex -2.275 -2.6 -3.94042
    endloop
  endfacet
  facet normal 0.669131 0 -0.743145
    outer loop
      vertex -3.68103 -1 2.67442
      vertex -2.275 -0.999999 3.94042
      vertex -2.275 -1 3.94042
    endloop
  endfacet
  facet normal 0.669131 0 -0.743145
    outer loop
      vertex -2.275 -0.999999 3.94042
      vertex -3.68103 -1 2.67442
      vertex -3.68103 -0.999999 2.67442
    endloop
  endfacet
  facet normal -0.809017 0 0.587785
    outer loop
      vertex 3.04454 -2.6 -3.38131
      vertex 4.15663 -1 -1.85065
      vertex 3.04454 -1 -3.38131
    endloop
  endfacet
  facet normal -0.809017 0 0.587785
    outer loop
      vertex 4.15663 -1 -1.85065
      vertex 3.04454 -2.6 -3.38131
      vertex 4.15663 -2.6 -1.85065
    endloop
  endfacet
  facet normal -0.978148 0 0.207912
    outer loop
      vertex 4.15663 -2.6 -1.85065
      vertex 4.55 -1 0
      vertex 4.15663 -1 -1.85065
    endloop
  endfacet
  facet normal -0.978148 0 0.207912
    outer loop
      vertex 4.55 -1 0
      vertex 4.15663 -2.6 -1.85065
      vertex 4.55 -2.6 0
    endloop
  endfacet
  facet normal 0.669131 0 0.743145
    outer loop
      vertex -3.68103 -1 -2.67442
      vertex -2.275 -2.6 -3.94042
      vertex -2.275 -1 -3.94042
    endloop
  endfacet
  facet normal 0.669131 0 0.743145
    outer loop
      vertex -2.275 -2.6 -3.94042
      vertex -3.68103 -1 -2.67442
      vertex -3.68103 -2.6 -2.67442
    endloop
  endfacet
  facet normal 1 -0 0
    outer loop
      vertex -4.55 -2.6 6.05
      vertex -4.55 -1 0
      vertex -4.55 -1 6.05
    endloop
  endfacet
  facet normal 1 0 0
    outer loop
      vertex -4.55 -1 0
      vertex -4.55 -2.6 6.05
      vertex -4.55 -2.6 0
    endloop
  endfacet
  facet normal -1 0 0
    outer loop
      vertex 4.55 -2.6 0
      vertex 4.55 -1 6.05
      vertex 4.55 -1 0
    endloop
  endfacet
  facet normal -1 -0 0
    outer loop
      vertex 4.55 -1 6.05
      vertex 4.55 -2.6 0
      vertex 4.55 -2.6 6.05
    endloop
  endfacet
  facet normal -0 0 1
    outer loop
      vertex -4.55 -1 0
      vertex -4.45057 -2.6 0
      vertex -4.45057 -1 0
    endloop
  endfacet
  facet normal 0 0 1
    outer loop
      vertex -4.45057 -2.6 0
      vertex -4.55 -1 0
      vertex -4.55 -2.6 0
    endloop
  endfacet
  facet normal 0 -1 0
    outer loop
      vertex 2 -1 3.98438
      vertex 4.55 -1 6.05
      vertex 2 -1 6.05
    endloop
  endfacet
  facet normal 0 -1 0
    outer loop
      vertex 3.04454 -1 3.38131
      vertex 4.55 -1 6.05
      vertex 2 -1 3.98438
    endloop
  endfacet
  facet normal 0 -1 0
    outer loop
      vertex 4.15663 -1 1.85065
      vertex 4.55 -1 6.05
      vertex 3.04454 -1 3.38131
    endloop
  endfacet
  facet normal 0 -1 -0
    outer loop
      vertex 4.55 -1 6.05
      vertex 4.15663 -1 1.85065
      vertex 4.55 -1 0
    endloop
  endfacet
  facet normal 0 -1 0
    outer loop
      vertex -2.275 -1 3.94042
      vertex -2 -1 6.05
      vertex -4.55 -1 6.05
    endloop
  endfacet
  facet normal 0 -1 -0
    outer loop
      vertex -2 -1 6.05
      vertex -2.275 -1 3.94042
      vertex -2 -1 4.02977
    endloop
  endfacet
  facet normal 0 -1 0
    outer loop
      vertex -4.55 -1 6.05
      vertex -3.68103 -1 2.67442
      vertex -2.275 -1 3.94042
    endloop
  endfacet
  facet normal 0 -1 0
    outer loop
      vertex -4.55 -1 6.05
      vertex -4.45057 -1 0.945998
      vertex -3.68103 -1 2.67442
    endloop
  endfacet
  facet normal 0 -1 0
    outer loop
      vertex -4.55 -1 0
      vertex -4.45057 -1 0.945998
      vertex -4.55 -1 6.05
    endloop
  endfacet
  facet normal 0 -1 -0
    outer loop
      vertex -4.45057 -1 0.945998
      vertex -4.55 -1 0
      vertex -4.45057 -1 0
    endloop
  endfacet
  facet normal 1 -0 0
    outer loop
      vertex -1.80194 -0.999999 0
      vertex -1.80194 0 -0.867767
      vertex -1.80194 0 0
    endloop
  endfacet
  facet normal 1 0 0
    outer loop
      vertex -1.80194 0 -0.867767
      vertex -1.80194 -0.999999 0
      vertex -1.80194 -0.999999 -0.867767
    endloop
  endfacet
  facet normal 0.62349 0 0.781831
    outer loop
      vertex -1.80194 0 -0.867767
      vertex -0.445042 -1 -1.94986
      vertex -0.445042 0 -1.94986
    endloop
  endfacet
  facet normal 0.62349 0 0.781831
    outer loop
      vertex -0.445042 -1 -1.94986
      vertex -1.80194 0 -0.867767
      vertex -1.80194 -0.999999 -0.867767
    endloop
  endfacet
  facet normal -0.222521 0 0.974928
    outer loop
      vertex -0.445042 0 -1.94986
      vertex 1.24698 -1 -1.56366
      vertex 1.24698 0 -1.56366
    endloop
  endfacet
  facet normal -0.222521 0 0.974928
    outer loop
      vertex 1.24698 -1 -1.56366
      vertex -0.445042 0 -1.94986
      vertex -0.445042 -1 -1.94986
    endloop
  endfacet
  facet normal -0.900969 0 0.433884
    outer loop
      vertex 1.24698 0 -1.56366
      vertex 2 -0.999999 0
      vertex 2 0 0
    endloop
  endfacet
  facet normal -0.900969 0 0.433884
    outer loop
      vertex 2 -0.999999 0
      vertex 1.24698 0 -1.56366
      vertex 1.24698 -1 -1.56366
    endloop
  endfacet
  facet normal 1 0 0
    outer loop
      vertex -2 0 6.05
      vertex -2 -0.999999 4.02977
      vertex -2 0 0
    endloop
  endfacet
  facet normal 1 -0 0
    outer loop
      vertex -2 -1 6.05
      vertex -2 -0.999999 4.02977
      vertex -2 0 6.05
    endloop
  endfacet
  facet normal 1 0 0
    outer loop
      vertex -2 -0.999999 4.02977
      vertex -2 -1 6.05
      vertex -2 -1 4.02977
    endloop
  endfacet
  facet normal 1 -0 0
    outer loop
      vertex -2 -0.999999 1.20356
      vertex -2 0 0
      vertex -2 -0.999999 4.02977
    endloop
  endfacet
  facet normal 1 0 0
    outer loop
      vertex -2 0 0
      vertex -2 -0.999999 1.20356
      vertex -2 -0.999999 0
    endloop
  endfacet
  facet normal -1 0 0
    outer loop
      vertex 2 -0.999999 3.98438
      vertex 2 0 0
      vertex 2 -0.999999 1.62398
    endloop
  endfacet
  facet normal -1 0 -0
    outer loop
      vertex 2 -0.999999 1.62398
      vertex 2 0 0
      vertex 2 -0.999999 0
    endloop
  endfacet
  facet normal -1 0 0
    outer loop
      vertex 2 0 0
      vertex 2 -0.999999 3.98438
      vertex 2 0 6.05
    endloop
  endfacet
  facet normal -1 0 0
    outer loop
      vertex 2 -1 6.05
      vertex 2 -0.999999 3.98438
      vertex 2 -1 3.98438
    endloop
  endfacet
  facet normal -1 0 0
    outer loop
      vertex 2 -0.999999 3.98438
      vertex 2 -1 6.05
      vertex 2 0 6.05
    endloop
  endfacet
  facet normal -0 0 1
    outer loop
      vertex -2 0 0
      vertex -1.80194 -0.999999 0
      vertex -1.80194 0 0
    endloop
  endfacet
  facet normal 0 0 1
    outer loop
      vertex -1.80194 -0.999999 0
      vertex -2 0 0
      vertex -2 -0.999999 0
    endloop
  endfacet
endsolid OpenSCAD_Model
