solid OpenSCAD_Model
  facet normal -1 0 0
    outer loop
      vertex -6.15 0 -6.15
      vertex -6.15 -10.68 0
      vertex -6.15 0 6.15
    endloop
  endfacet
  facet normal -1 0 0
    outer loop
      vertex -6.15 0 -6.15
      vertex -6.15 -11.4029 -1.50112
      vertex -6.15 -10.68 0
    endloop
  endfacet
  facet normal -1 0 0
    outer loop
      vertex -6.15 -15.6 -6.15
      vertex -6.15 -11.4029 -1.50112
      vertex -6.15 0 -6.15
    endloop
  endfacet
  facet normal -1 -0 0
    outer loop
      vertex -6.15 -14.3299 -0.833056
      vertex -6.15 -15.6 -6.15
      vertex -6.15 -14.3299 0.833056
    endloop
  endfacet
  facet normal -1 -0 0
    outer loop
      vertex -6.15 -13.0272 -1.87186
      vertex -6.15 -15.6 -6.15
      vertex -6.15 -14.3299 -0.833056
    endloop
  endfacet
  facet normal -1 0 0
    outer loop
      vertex -6.15 -11.4029 -1.50112
      vertex -6.15 -15.6 -6.15
      vertex -6.15 -13.0272 -1.87186
    endloop
  endfacet
  facet normal -1 0 0
    outer loop
      vertex -6.15 -11.4029 1.50112
      vertex -6.15 0 6.15
      vertex -6.15 -10.68 0
    endloop
  endfacet
  facet normal -1 0 0
    outer loop
      vertex -6.15 -15.6 6.15
      vertex -6.15 -11.4029 1.50112
      vertex -6.15 -13.0272 1.87186
    endloop
  endfacet
  facet normal -1 0 0
    outer loop
      vertex -6.15 -11.4029 1.50112
      vertex -6.15 -15.6 6.15
      vertex -6.15 0 6.15
    endloop
  endfacet
  facet normal -1 0 0
    outer loop
      vertex -6.15 -14.3299 0.833056
      vertex -6.15 -15.6 6.15
      vertex -6.15 -13.0272 1.87186
    endloop
  endfacet
  facet normal -1 0 0
    outer loop
      vertex -6.15 -15.6 6.15
      vertex -6.15 -14.3299 0.833056
      vertex -6.15 -15.6 -6.15
    endloop
  endfacet
  facet normal 0 0 1
    outer loop
      vertex -2 0 6.15
      vertex -4.65 -1 6.15
      vertex -2 -1 6.15
    endloop
  endfacet
  facet normal 0 0 1
    outer loop
      vertex -4.65 -1 6.15
      vertex -6.15 0 6.15
      vertex -4.65 -2.6 6.15
    endloop
  endfacet
  facet normal -0 0 1
    outer loop
      vertex -6.15 0 6.15
      vertex -4.65 -1 6.15
      vertex -2 0 6.15
    endloop
  endfacet
  facet normal 0 0 1
    outer loop
      vertex 4.65 -2.6 6.15
      vertex -3 -5.6 6.15
      vertex 3 -5.6 6.15
    endloop
  endfacet
  facet normal -0 0 1
    outer loop
      vertex -4.65 -2.6 6.15
      vertex -3 -5.6 6.15
      vertex 4.65 -2.6 6.15
    endloop
  endfacet
  facet normal 0 0 1
    outer loop
      vertex -6.15 -15.6 6.15
      vertex -3 -5.6 6.15
      vertex -4.65 -2.6 6.15
    endloop
  endfacet
  facet normal 0 0 1
    outer loop
      vertex -6.15 -15.6 6.15
      vertex -4.65 -2.6 6.15
      vertex -6.15 0 6.15
    endloop
  endfacet
  facet normal 0 0 1
    outer loop
      vertex -3 -5.6 6.15
      vertex -6.15 -15.6 6.15
      vertex -3 -15.6 6.15
    endloop
  endfacet
  facet normal 0 0 1
    outer loop
      vertex 4.65 -2.6 6.15
      vertex 6.15 0 6.15
      vertex 4.65 -1 6.15
    endloop
  endfacet
  facet normal -0 0 1
    outer loop
      vertex 2 0 6.15
      vertex 4.65 -1 6.15
      vertex 6.15 0 6.15
    endloop
  endfacet
  facet normal 0 0 1
    outer loop
      vertex 4.65 -1 6.15
      vertex 2 0 6.15
      vertex 2 -1 6.15
    endloop
  endfacet
  facet normal 0 0 1
    outer loop
      vertex 6.15 0 6.15
      vertex 4.65 -2.6 6.15
      vertex 6.15 -15.6 6.15
    endloop
  endfacet
  facet normal -0 0 1
    outer loop
      vertex 3 -5.6 6.15
      vertex 6.15 -15.6 6.15
      vertex 4.65 -2.6 6.15
    endloop
  endfacet
  facet normal 0 0 1
    outer loop
      vertex 6.15 -15.6 6.15
      vertex 3 -5.6 6.15
      vertex 3 -15.6 6.15
    endloop
  endfacet
  facet normal 1 0 0
    outer loop
      vertex 6.15 0 6.15
      vertex 6.15 -10.68 0
      vertex 6.15 0 -6.15
    endloop
  endfacet
  facet normal 1 0 0
    outer loop
      vertex 6.15 0 6.15
      vertex 6.15 -11.4029 1.50112
      vertex 6.15 -10.68 0
    endloop
  endfacet
  facet normal 1 -0 0
    outer loop
      vertex 6.15 -15.6 6.15
      vertex 6.15 -11.4029 1.50112
      vertex 6.15 0 6.15
    endloop
  endfacet
  facet normal 1 0 0
    outer loop
      vertex 6.15 -14.3299 0.833056
      vertex 6.15 -15.6 6.15
      vertex 6.15 -14.3299 -0.833056
    endloop
  endfacet
  facet normal 1 0 0
    outer loop
      vertex 6.15 -13.0272 1.87186
      vertex 6.15 -15.6 6.15
      vertex 6.15 -14.3299 0.833056
    endloop
  endfacet
  facet normal 1 0 0
    outer loop
      vertex 6.15 -11.4029 1.50112
      vertex 6.15 -15.6 6.15
      vertex 6.15 -13.0272 1.87186
    endloop
  endfacet
  facet normal 1 -0 0
    outer loop
      vertex 6.15 -11.4029 -1.50112
      vertex 6.15 0 -6.15
      vertex 6.15 -10.68 0
    endloop
  endfacet
  facet normal 1 0 0
    outer loop
      vertex 6.15 -15.6 -6.15
      vertex 6.15 -11.4029 -1.50112
      vertex 6.15 -13.0272 -1.87186
    endloop
  endfacet
  facet normal 1 0 0
    outer loop
      vertex 6.15 -11.4029 -1.50112
      vertex 6.15 -15.6 -6.15
      vertex 6.15 0 -6.15
    endloop
  endfacet
  facet normal 1 0 0
    outer loop
      vertex 6.15 -14.3299 -0.833056
      vertex 6.15 -15.6 -6.15
      vertex 6.15 -13.0272 -1.87186
    endloop
  endfacet
  facet normal 1 0 0
    outer loop
      vertex 6.15 -15.6 -6.15
      vertex 6.15 -14.3299 -0.833056
      vertex 6.15 -15.6 6.15
    endloop
  endfacet
  facet normal 0 0 -1
    outer loop
      vertex -3 -15.6 -6.15
      vertex -6.15 -15.6 -6.15
      vertex -3 -5.6 -6.15
    endloop
  endfacet
  facet normal 0 0 -1
    outer loop
      vertex 3 -5.6 -6.15
      vertex 6.15 -15.6 -6.15
      vertex 3 -15.6 -6.15
    endloop
  endfacet
  facet normal 0 0 -1
    outer loop
      vertex 6.15 -15.6 -6.15
      vertex 3 -5.6 -6.15
      vertex 6.15 0 -6.15
    endloop
  endfacet
  facet normal 0 0 -1
    outer loop
      vertex -3 -5.6 -6.15
      vertex 6.15 0 -6.15
      vertex 3 -5.6 -6.15
    endloop
  endfacet
  facet normal 0 0 -1
    outer loop
      vertex -3 -5.6 -6.15
      vertex -6.15 0 -6.15
      vertex 6.15 0 -6.15
    endloop
  endfacet
  facet normal 0 0 -1
    outer loop
      vertex -6.15 0 -6.15
      vertex -3 -5.6 -6.15
      vertex -6.15 -15.6 -6.15
    endloop
  endfacet
  facet normal 0 -1 0
    outer loop
      vertex -6.15 -15.6 -6.15
      vertex -3 -15.6 6.15
      vertex -6.15 -15.6 6.15
    endloop
  endfacet
  facet normal 0 -1 -0
    outer loop
      vertex -3 -15.6 6.15
      vertex -6.15 -15.6 -6.15
      vertex -3 -15.6 -6.15
    endloop
  endfacet
  facet normal 0 -1 0
    outer loop
      vertex 3 -15.6 -6.15
      vertex 6.15 -15.6 6.15
      vertex 3 -15.6 6.15
    endloop
  endfacet
  facet normal 0 -1 -0
    outer loop
      vertex 6.15 -15.6 6.15
      vertex 3 -15.6 -6.15
      vertex 6.15 -15.6 -6.15
    endloop
  endfacet
  facet normal 0 1 0
    outer loop
      vertex 6.15 0 6.15
      vertex 2 0 0
      vertex 2 0 6.15
    endloop
  endfacet
  facet normal 0 1 -0
    outer loop
      vertex 6.15 0 -6.15
      vertex 2 0 0
      vertex 6.15 0 6.15
    endloop
  endfacet
  facet normal 0 1 0
    outer loop
      vertex 1.24698 0 -1.56366
      vertex 6.15 0 -6.15
      vertex -0.445042 0 -1.94986
    endloop
  endfacet
  facet normal 0 1 0
    outer loop
      vertex 2 0 0
      vertex 6.15 0 -6.15
      vertex 1.24698 0 -1.56366
    endloop
  endfacet
  facet normal 0 1 0
    outer loop
      vertex -1.80194 0 0
      vertex -1.80194 0 -0.867767
      vertex -2 0 0
    endloop
  endfacet
  facet normal 0 1 -0
    outer loop
      vertex -2 0 0
      vertex -6.15 0 6.15
      vertex -2 0 6.15
    endloop
  endfacet
  facet normal 0 1 0
    outer loop
      vertex -6.15 0 -6.15
      vertex -2 0 0
      vertex -1.80194 0 -0.867767
    endloop
  endfacet
  facet normal 0 1 0
    outer loop
      vertex -2 0 0
      vertex -6.15 0 -6.15
      vertex -6.15 0 6.15
    endloop
  endfacet
  facet normal 0 1 0
    outer loop
      vertex -0.445042 0 -1.94986
      vertex -6.15 0 -6.15
      vertex -1.80194 0 -0.867767
    endloop
  endfacet
  facet normal 0 1 0
    outer loop
      vertex -6.15 0 -6.15
      vertex -0.445042 0 -1.94986
      vertex 6.15 0 -6.15
    endloop
  endfacet
  facet normal 1 0 0
    outer loop
      vertex -3 -5.6 6.15
      vertex -3 -10.68 0
      vertex -3 -5.6 -6.15
    endloop
  endfacet
  facet normal 1 0 0
    outer loop
      vertex -3 -5.6 6.15
      vertex -3 -11.4029 1.50112
      vertex -3 -10.68 0
    endloop
  endfacet
  facet normal 1 -0 0
    outer loop
      vertex -3 -15.6 6.15
      vertex -3 -11.4029 1.50112
      vertex -3 -5.6 6.15
    endloop
  endfacet
  facet normal 1 0 0
    outer loop
      vertex -3 -14.3299 0.833056
      vertex -3 -15.6 6.15
      vertex -3 -14.3299 -0.833056
    endloop
  endfacet
  facet normal 1 0 0
    outer loop
      vertex -3 -13.0272 1.87186
      vertex -3 -15.6 6.15
      vertex -3 -14.3299 0.833056
    endloop
  endfacet
  facet normal 1 0 0
    outer loop
      vertex -3 -11.4029 1.50112
      vertex -3 -15.6 6.15
      vertex -3 -13.0272 1.87186
    endloop
  endfacet
  facet normal 1 -0 0
    outer loop
      vertex -3 -11.4029 -1.50112
      vertex -3 -5.6 -6.15
      vertex -3 -10.68 0
    endloop
  endfacet
  facet normal 1 0 0
    outer loop
      vertex -3 -15.6 -6.15
      vertex -3 -11.4029 -1.50112
      vertex -3 -13.0272 -1.87186
    endloop
  endfacet
  facet normal 1 0 0
    outer loop
      vertex -3 -11.4029 -1.50112
      vertex -3 -15.6 -6.15
      vertex -3 -5.6 -6.15
    endloop
  endfacet
  facet normal 1 0 0
    outer loop
      vertex -3 -14.3299 -0.833056
      vertex -3 -15.6 -6.15
      vertex -3 -13.0272 -1.87186
    endloop
  endfacet
  facet normal 1 0 0
    outer loop
      vertex -3 -15.6 -6.15
      vertex -3 -14.3299 -0.833056
      vertex -3 -15.6 6.15
    endloop
  endfacet
  facet normal -1 0 0
    outer loop
      vertex 3 -5.6 -6.15
      vertex 3 -10.68 0
      vertex 3 -5.6 6.15
    endloop
  endfacet
  facet normal -1 0 0
    outer loop
      vertex 3 -5.6 -6.15
      vertex 3 -11.4029 -1.50112
      vertex 3 -10.68 0
    endloop
  endfacet
  facet normal -1 0 0
    outer loop
      vertex 3 -15.6 -6.15
      vertex 3 -11.4029 -1.50112
      vertex 3 -5.6 -6.15
    endloop
  endfacet
  facet normal -1 -0 0
    outer loop
      vertex 3 -14.3299 -0.833056
      vertex 3 -15.6 -6.15
      vertex 3 -14.3299 0.833056
    endloop
  endfacet
  facet normal -1 -0 0
    outer loop
      vertex 3 -13.0272 -1.87186
      vertex 3 -15.6 -6.15
      vertex 3 -14.3299 -0.833056
    endloop
  endfacet
  facet normal -1 0 0
    outer loop
      vertex 3 -11.4029 -1.50112
      vertex 3 -15.6 -6.15
      vertex 3 -13.0272 -1.87186
    endloop
  endfacet
  facet normal -1 0 0
    outer loop
      vertex 3 -11.4029 1.50112
      vertex 3 -5.6 6.15
      vertex 3 -10.68 0
    endloop
  endfacet
  facet normal -1 0 0
    outer loop
      vertex 3 -15.6 6.15
      vertex 3 -11.4029 1.50112
      vertex 3 -13.0272 1.87186
    endloop
  endfacet
  facet normal -1 0 0
    outer loop
      vertex 3 -11.4029 1.50112
      vertex 3 -15.6 6.15
      vertex 3 -5.6 6.15
    endloop
  endfacet
  facet normal -1 0 0
    outer loop
      vertex 3 -14.3299 0.833056
      vertex 3 -15.6 6.15
      vertex 3 -13.0272 1.87186
    endloop
  endfacet
  facet normal -1 0 0
    outer loop
      vertex 3 -15.6 6.15
      vertex 3 -14.3299 0.833056
      vertex 3 -15.6 -6.15
    endloop
  endfacet
  facet normal 0 -1 0
    outer loop
      vertex -3 -5.6 -6.15
      vertex 3 -5.6 6.15
      vertex -3 -5.6 6.15
    endloop
  endfacet
  facet normal 0 -1 -0
    outer loop
      vertex 3 -5.6 6.15
      vertex -3 -5.6 -6.15
      vertex 3 -5.6 -6.15
    endloop
  endfacet
  facet normal 0 -0.900969 -0.433884
    outer loop
      vertex -6.15 -10.68 0
      vertex -3 -11.4029 1.50112
      vertex -6.15 -11.4029 1.50112
    endloop
  endfacet
  facet normal 0 -0.900969 -0.433884
    outer loop
      vertex -3 -11.4029 1.50112
      vertex -6.15 -10.68 0
      vertex -3 -10.68 0
    endloop
  endfacet
  facet normal 0 -0.900969 -0.433884
    outer loop
      vertex 3 -10.68 0
      vertex 6.15 -11.4029 1.50112
      vertex 3 -11.4029 1.50112
    endloop
  endfacet
  facet normal 0 -0.900969 -0.433884
    outer loop
      vertex 6.15 -11.4029 1.50112
      vertex 3 -10.68 0
      vertex 6.15 -10.68 0
    endloop
  endfacet
  facet normal 0 1 -0
    outer loop
      vertex -3 -14.3299 -0.833056
      vertex -6.15 -14.3299 0.833056
      vertex -3 -14.3299 0.833056
    endloop
  endfacet
  facet normal 0 1 0
    outer loop
      vertex -6.15 -14.3299 0.833056
      vertex -3 -14.3299 -0.833056
      vertex -6.15 -14.3299 -0.833056
    endloop
  endfacet
  facet normal 0 1 -0
    outer loop
      vertex 6.15 -14.3299 -0.833056
      vertex 3 -14.3299 0.833056
      vertex 6.15 -14.3299 0.833056
    endloop
  endfacet
  facet normal 0 1 0
    outer loop
      vertex 3 -14.3299 0.833056
      vertex 6.15 -14.3299 -0.833056
      vertex 3 -14.3299 -0.833056
    endloop
  endfacet
  facet normal 0 -0.222521 -0.974928
    outer loop
      vertex -6.15 -13.0272 1.87186
      vertex -3 -11.4029 1.50112
      vertex -3 -13.0272 1.87186
    endloop
  endfacet
  facet normal -0 -0.222521 -0.974928
    outer loop
      vertex -3 -11.4029 1.50112
      vertex -6.15 -13.0272 1.87186
      vertex -6.15 -11.4029 1.50112
    endloop
  endfacet
  facet normal 0 -0.222521 -0.974928
    outer loop
      vertex 3 -13.0272 1.87186
      vertex 6.15 -11.4029 1.50112
      vertex 6.15 -13.0272 1.87186
    endloop
  endfacet
  facet normal -0 -0.222521 -0.974928
    outer loop
      vertex 6.15 -11.4029 1.50112
      vertex 3 -13.0272 1.87186
      vertex 3 -11.4029 1.50112
    endloop
  endfacet
  facet normal -0 0.62349 0.781831
    outer loop
      vertex -6.15 -13.0272 -1.87186
      vertex -3 -14.3299 -0.833056
      vertex -3 -13.0272 -1.87186
    endloop
  endfacet
  facet normal 0 0.62349 0.781831
    outer loop
      vertex -3 -14.3299 -0.833056
      vertex -6.15 -13.0272 -1.87186
      vertex -6.15 -14.3299 -0.833056
    endloop
  endfacet
  facet normal -0 0.62349 0.781831
    outer loop
      vertex 3 -13.0272 -1.87186
      vertex 6.15 -14.3299 -0.833056
      vertex 6.15 -13.0272 -1.87186
    endloop
  endfacet
  facet normal 0 0.62349 0.781831
    outer loop
      vertex 6.15 -14.3299 -0.833056
      vertex 3 -13.0272 -1.87186
      vertex 3 -14.3299 -0.833056
    endloop
  endfacet
  facet normal 0 0.62349 -0.781831
    outer loop
      vertex -6.15 -14.3299 0.833056
      vertex -3 -13.0272 1.87186
      vertex -3 -14.3299 0.833056
    endloop
  endfacet
  facet normal 0 0.62349 -0.781831
    outer loop
      vertex -3 -13.0272 1.87186
      vertex -6.15 -14.3299 0.833056
      vertex -6.15 -13.0272 1.87186
    endloop
  endfacet
  facet normal 0 0.62349 -0.781831
    outer loop
      vertex 3 -14.3299 0.833056
      vertex 6.15 -13.0272 1.87186
      vertex 6.15 -14.3299 0.833056
    endloop
  endfacet
  facet normal 0 0.62349 -0.781831
    outer loop
      vertex 6.15 -13.0272 1.87186
      vertex 3 -14.3299 0.833056
      vertex 3 -13.0272 1.87186
    endloop
  endfacet
  facet normal 0 -0.222521 0.974928
    outer loop
      vertex -6.15 -11.4029 -1.50112
      vertex -3 -13.0272 -1.87186
      vertex -3 -11.4029 -1.50112
    endloop
  endfacet
  facet normal 0 -0.222521 0.974928
    outer loop
      vertex -3 -13.0272 -1.87186
      vertex -6.15 -11.4029 -1.50112
      vertex -6.15 -13.0272 -1.87186
    endloop
  endfacet
  facet normal 0 -0.222521 0.974928
    outer loop
      vertex 3 -11.4029 -1.50112
      vertex 6.15 -13.0272 -1.87186
      vertex 6.15 -11.4029 -1.50112
    endloop
  endfacet
  facet normal 0 -0.222521 0.974928
    outer loop
      vertex 6.15 -13.0272 -1.87186
      vertex 3 -11.4029 -1.50112
      vertex 3 -13.0272 -1.87186
    endloop
  endfacet
  facet normal 0 -0.900969 0.433884
    outer loop
      vertex -6.15 -11.4029 -1.50112
      vertex -3 -10.68 0
      vertex -6.15 -10.68 0
    endloop
  endfacet
  facet normal 0 -0.900969 0.433884
    outer loop
      vertex -3 -10.68 0
      vertex -6.15 -11.4029 -1.50112
      vertex -3 -11.4029 -1.50112
    endloop
  endfacet
  facet normal 0 -0.900969 0.433884
    outer loop
      vertex 3 -11.4029 -1.50112
      vertex 6.15 -10.68 0
      vertex 3 -10.68 0
    endloop
  endfacet
  facet normal 0 -0.900969 0.433884
    outer loop
      vertex 6.15 -10.68 0
      vertex 3 -11.4029 -1.50112
      vertex 6.15 -11.4029 -1.50112
    endloop
  endfacet
  facet normal -0.978148 -0 -0.207912
    outer loop
      vertex 4.24799 -0.999999 1.89132
      vertex 4.65 -1 0
      vertex 4.24799 -1 1.89132
    endloop
  endfacet
  facet normal 1.10778e-006 -1 4.93217e-007
    outer loop
      vertex -3.76193 -1 -2.7332
      vertex -4.54839 -0.999999 0.966789
      vertex -4.54839 -1 -0.966789
    endloop
  endfacet
  facet normal -0.809017 0 -0.587785
    outer loop
      vertex 4.24799 -1 1.89132
      vertex 3.11146 -0.999999 3.45562
      vertex 4.24799 -0.999999 1.89132
    endloop
  endfacet
  facet normal -0.809017 -0 -0.587785
    outer loop
      vertex 3.11146 -0.999999 3.45562
      vertex 4.24799 -1 1.89132
      vertex 3.11146 -1 3.45562
    endloop
  endfacet
  facet normal 0.309017 0 -0.951056
    outer loop
      vertex -2.325 -1 4.02702
      vertex -2 -0.999999 4.13262
      vertex -2 -1 4.13262
    endloop
  endfacet
  facet normal 0.309017 0 -0.951056
    outer loop
      vertex -2 -0.999999 4.13262
      vertex -2.325 -1 4.02702
      vertex -2.325 -0.999999 4.02702
    endloop
  endfacet
  facet normal -1.66551e-008 -1 1.58463e-007
    outer loop
      vertex 1.43693 -1 -4.42241
      vertex 4.24799 -0.999999 1.89132
      vertex -0.486057 -1 -4.62453
    endloop
  endfacet
  facet normal -0.5 0 0.866025
    outer loop
      vertex 1.43693 -1 -4.42241
      vertex 3.11146 -2.6 -3.45562
      vertex 3.11146 -1 -3.45562
    endloop
  endfacet
  facet normal -0.5 0 0.866025
    outer loop
      vertex 3.11146 -2.6 -3.45562
      vertex 1.43693 -1 -4.42241
      vertex 1.43693 -2.6 -4.42241
    endloop
  endfacet
  facet normal 0 1 -0
    outer loop
      vertex 4.24799 -2.6 -1.89132
      vertex -4.54839 -2.6 0
      vertex 4.65 -2.6 0
    endloop
  endfacet
  facet normal 0 1 -0
    outer loop
      vertex 3.11146 -2.6 -3.45562
      vertex -4.54839 -2.6 0
      vertex 4.24799 -2.6 -1.89132
    endloop
  endfacet
  facet normal 0 1 0
    outer loop
      vertex -4.54839 -2.6 0
      vertex -3.76193 -2.6 -2.7332
      vertex -4.54839 -2.6 -0.966789
    endloop
  endfacet
  facet normal 0 1 -0
    outer loop
      vertex 1.43693 -2.6 -4.42241
      vertex -4.54839 -2.6 0
      vertex 3.11146 -2.6 -3.45562
    endloop
  endfacet
  facet normal 0 1 0
    outer loop
      vertex -4.54839 -2.6 0
      vertex -2.325 -2.6 -4.02702
      vertex -3.76193 -2.6 -2.7332
    endloop
  endfacet
  facet normal 0 1 -0
    outer loop
      vertex -0.486057 -2.6 -4.62453
      vertex -4.54839 -2.6 0
      vertex 1.43693 -2.6 -4.42241
    endloop
  endfacet
  facet normal 0 1 0
    outer loop
      vertex -4.54839 -2.6 0
      vertex -0.486057 -2.6 -4.62453
      vertex -2.325 -2.6 -4.02702
    endloop
  endfacet
  facet normal 0 1 0
    outer loop
      vertex -4.54839 -2.6 0
      vertex 4.65 -2.6 6.15
      vertex 4.65 -2.6 0
    endloop
  endfacet
  facet normal 0 1 0
    outer loop
      vertex 4.65 -2.6 6.15
      vertex -4.54839 -2.6 0
      vertex -4.65 -2.6 6.15
    endloop
  endfacet
  facet normal 0 1 0
    outer loop
      vertex -4.65 -2.6 6.15
      vertex -4.54839 -2.6 0
      vertex -4.65 -2.6 0
    endloop
  endfacet
  facet normal 0 -1 0
    outer loop
      vertex 2 -0.999999 1.65505
      vertex 3.11146 -0.999999 3.45562
      vertex 2 -0.999999 4.09732
    endloop
  endfacet
  facet normal 0 -1 -0
    outer loop
      vertex 3.11146 -0.999999 3.45562
      vertex 2 -0.999999 1.65505
      vertex 4.24799 -0.999999 1.89132
    endloop
  endfacet
  facet normal 0 -1 0
    outer loop
      vertex -2 -0.999999 1.23464
      vertex -2.325 -0.999999 4.02702
      vertex -3.76193 -0.999999 2.7332
    endloop
  endfacet
  facet normal 0 -1 0
    outer loop
      vertex -2.325 -0.999999 4.02702
      vertex -2 -0.999999 1.23464
      vertex -2 -0.999999 4.13262
    endloop
  endfacet
  facet normal -0 -1 0
    outer loop
      vertex -2 -0.999999 1.23464
      vertex -3.76193 -0.999999 2.7332
      vertex -4.54839 -0.999999 0.966789
    endloop
  endfacet
  facet normal -0.5 0 -0.866025
    outer loop
      vertex 2 -1 4.09732
      vertex 3.11146 -0.999999 3.45562
      vertex 3.11146 -1 3.45562
    endloop
  endfacet
  facet normal -0.5 0 -0.866025
    outer loop
      vertex 3.11146 -0.999999 3.45562
      vertex 2 -1 4.09732
      vertex 2 -0.999999 4.09732
    endloop
  endfacet
  facet normal -1.18612e-006 -1 2.52118e-007
    outer loop
      vertex 4.65 -1 0
      vertex 4.24799 -0.999999 1.89132
      vertex 4.24799 -1 -1.89132
    endloop
  endfacet
  facet normal 2.87009e-007 -1 3.18756e-007
    outer loop
      vertex -3.76193 -1 -2.7332
      vertex -2.325 -1 -4.02702
      vertex -4.54839 -0.999999 0.966789
    endloop
  endfacet
  facet normal -3.47011e-007 -1 2.52118e-007
    outer loop
      vertex 4.24799 -1 -1.89132
      vertex 4.24799 -0.999999 1.89132
      vertex 3.11146 -1 -3.45562
    endloop
  endfacet
  facet normal 0.309017 0 0.951057
    outer loop
      vertex -2.325 -1 -4.02702
      vertex -0.486057 -2.6 -4.62453
      vertex -0.486057 -1 -4.62453
    endloop
  endfacet
  facet normal 0.309017 0 0.951057
    outer loop
      vertex -0.486057 -2.6 -4.62453
      vertex -2.325 -1 -4.02702
      vertex -2.325 -2.6 -4.02702
    endloop
  endfacet
  facet normal 0.669131 0 0.743145
    outer loop
      vertex -3.76193 -1 -2.7332
      vertex -2.325 -2.6 -4.02702
      vertex -2.325 -1 -4.02702
    endloop
  endfacet
  facet normal 0.669131 0 0.743145
    outer loop
      vertex -2.325 -2.6 -4.02702
      vertex -3.76193 -1 -2.7332
      vertex -3.76193 -2.6 -2.7332
    endloop
  endfacet
  facet normal 0.913545 -0 0.406737
    outer loop
      vertex -4.54839 -2.6 -0.966789
      vertex -3.76193 -1 -2.7332
      vertex -4.54839 -1 -0.966789
    endloop
  endfacet
  facet normal 0.913545 0 0.406737
    outer loop
      vertex -3.76193 -1 -2.7332
      vertex -4.54839 -2.6 -0.966789
      vertex -3.76193 -2.6 -2.7332
    endloop
  endfacet
  facet normal -0.104529 0 0.994522
    outer loop
      vertex -0.486057 -1 -4.62453
      vertex 1.43693 -2.6 -4.42241
      vertex 1.43693 -1 -4.42241
    endloop
  endfacet
  facet normal -0.104529 0 0.994522
    outer loop
      vertex 1.43693 -2.6 -4.42241
      vertex -0.486057 -1 -4.62453
      vertex -0.486057 -2.6 -4.62453
    endloop
  endfacet
  facet normal -1.1738e-007 -1 2.03309e-007
    outer loop
      vertex 3.11146 -1 -3.45562
      vertex 4.24799 -0.999999 1.89132
      vertex 1.43693 -1 -4.42241
    endloop
  endfacet
  facet normal -0.809017 0 0.587785
    outer loop
      vertex 3.11146 -2.6 -3.45562
      vertex 4.24799 -1 -1.89132
      vertex 3.11146 -1 -3.45562
    endloop
  endfacet
  facet normal -0.809017 0 0.587785
    outer loop
      vertex 4.24799 -1 -1.89132
      vertex 3.11146 -2.6 -3.45562
      vertex 4.24799 -2.6 -1.89132
    endloop
  endfacet
  facet normal -0.978148 0 0.207912
    outer loop
      vertex 4.24799 -2.6 -1.89132
      vertex 4.65 -1 0
      vertex 4.24799 -1 -1.89132
    endloop
  endfacet
  facet normal -0.978148 0 0.207912
    outer loop
      vertex 4.65 -1 0
      vertex 4.24799 -2.6 -1.89132
      vertex 4.65 -2.6 0
    endloop
  endfacet
  facet normal 0.669131 0 -0.743145
    outer loop
      vertex -3.76193 -1 2.7332
      vertex -2.325 -0.999999 4.02702
      vertex -2.325 -1 4.02702
    endloop
  endfacet
  facet normal 0.669131 0 -0.743145
    outer loop
      vertex -2.325 -0.999999 4.02702
      vertex -3.76193 -1 2.7332
      vertex -3.76193 -0.999999 2.7332
    endloop
  endfacet
  facet normal 0.913545 0 -0.406737
    outer loop
      vertex -3.76193 -1 2.7332
      vertex -4.54839 -0.999999 0.966789
      vertex -3.76193 -0.999999 2.7332
    endloop
  endfacet
  facet normal 0.913545 0 -0.406737
    outer loop
      vertex -4.54839 -0.999999 0.966789
      vertex -3.76193 -1 2.7332
      vertex -4.54839 -1 0.966789
    endloop
  endfacet
  facet normal 1 0 0
    outer loop
      vertex -4.54839 -1 0
      vertex -4.54839 -0.999999 0.966789
      vertex -4.54839 -1 0.966789
    endloop
  endfacet
  facet normal 1 -0 0
    outer loop
      vertex -4.54839 -1 0
      vertex -4.54839 -1 -0.966789
      vertex -4.54839 -0.999999 0.966789
    endloop
  endfacet
  facet normal 1 -0 0
    outer loop
      vertex -4.54839 -2.6 0
      vertex -4.54839 -1 -0.966789
      vertex -4.54839 -1 0
    endloop
  endfacet
  facet normal 1 0 0
    outer loop
      vertex -4.54839 -1 -0.966789
      vertex -4.54839 -2.6 0
      vertex -4.54839 -2.6 -0.966789
    endloop
  endfacet
  facet normal 7.2545e-008 -1 2.2327e-007
    outer loop
      vertex -2.325 -1 -4.02702
      vertex -0.486057 -1 -4.62453
      vertex -4.54839 -0.999999 0.966789
    endloop
  endfacet
  facet normal -1.52224e-008 -1 1.44831e-007
    outer loop
      vertex -4.54839 -0.999999 0.966789
      vertex -2 -0.999999 0
      vertex -2 -0.999999 1.23464
    endloop
  endfacet
  facet normal 0 -1 2.06062e-007
    outer loop
      vertex -2 -0.999999 0
      vertex -1.80194 -0.999999 -0.867767
      vertex -1.80194 -0.999999 0
    endloop
  endfacet
  facet normal 8.76594e-009 -1 2.08063e-007
    outer loop
      vertex -4.54839 -0.999999 0.966789
      vertex -1.80194 -0.999999 -0.867767
      vertex -2 -0.999999 0
    endloop
  endfacet
  facet normal -3.16359e-008 -1 1.47579e-007
    outer loop
      vertex -0.486057 -1 -4.62453
      vertex -1.80194 -0.999999 -0.867767
      vertex -4.54839 -0.999999 0.966789
    endloop
  endfacet
  facet normal -7.29137e-009 -1 1.56106e-007
    outer loop
      vertex -1.80194 -0.999999 -0.867767
      vertex -0.486057 -1 -4.62453
      vertex -0.445042 -1 -1.94986
    endloop
  endfacet
  facet normal -1.51408e-008 -1 1.44055e-007
    outer loop
      vertex 2 -0.999999 0
      vertex 4.24799 -0.999999 1.89132
      vertex 2 -0.999999 1.65505
    endloop
  endfacet
  facet normal -3.73626e-008 -1 1.70467e-007
    outer loop
      vertex 1.24698 -1 -1.56366
      vertex 4.24799 -0.999999 1.89132
      vertex 2 -0.999999 0
    endloop
  endfacet
  facet normal -5.87648e-008 -1 1.89057e-007
    outer loop
      vertex 1.24698 -1 -1.56366
      vertex -0.486057 -1 -4.62453
      vertex 4.24799 -0.999999 1.89132
    endloop
  endfacet
  facet normal -3.79094e-010 -1 1.56e-007
    outer loop
      vertex -0.486057 -1 -4.62453
      vertex 1.24698 -1 -1.56366
      vertex -0.445042 -1 -1.94986
    endloop
  endfacet
  facet normal 1 -0 0
    outer loop
      vertex -4.65 -2.6 6.15
      vertex -4.65 -1 0
      vertex -4.65 -1 6.15
    endloop
  endfacet
  facet normal 1 0 0
    outer loop
      vertex -4.65 -1 0
      vertex -4.65 -2.6 6.15
      vertex -4.65 -2.6 0
    endloop
  endfacet
  facet normal -1 0 0
    outer loop
      vertex 4.65 -2.6 0
      vertex 4.65 -1 6.15
      vertex 4.65 -1 0
    endloop
  endfacet
  facet normal -1 -0 0
    outer loop
      vertex 4.65 -1 6.15
      vertex 4.65 -2.6 0
      vertex 4.65 -2.6 6.15
    endloop
  endfacet
  facet normal -0 0 1
    outer loop
      vertex -4.65 -1 0
      vertex -4.54839 -2.6 0
      vertex -4.54839 -1 0
    endloop
  endfacet
  facet normal 0 0 1
    outer loop
      vertex -4.54839 -2.6 0
      vertex -4.65 -1 0
      vertex -4.65 -2.6 0
    endloop
  endfacet
  facet normal 0 -1 0
    outer loop
      vertex 2 -1 4.09732
      vertex 4.65 -1 6.15
      vertex 2 -1 6.15
    endloop
  endfacet
  facet normal 0 -1 0
    outer loop
      vertex 3.11146 -1 3.45562
      vertex 4.65 -1 6.15
      vertex 2 -1 4.09732
    endloop
  endfacet
  facet normal 0 -1 0
    outer loop
      vertex 4.24799 -1 1.89132
      vertex 4.65 -1 6.15
      vertex 3.11146 -1 3.45562
    endloop
  endfacet
  facet normal 0 -1 -0
    outer loop
      vertex 4.65 -1 6.15
      vertex 4.24799 -1 1.89132
      vertex 4.65 -1 0
    endloop
  endfacet
  facet normal 0 -1 0
    outer loop
      vertex -2.325 -1 4.02702
      vertex -2 -1 6.15
      vertex -4.65 -1 6.15
    endloop
  endfacet
  facet normal 0 -1 -0
    outer loop
      vertex -2 -1 6.15
      vertex -2.325 -1 4.02702
      vertex -2 -1 4.13262
    endloop
  endfacet
  facet normal 0 -1 0
    outer loop
      vertex -4.65 -1 6.15
      vertex -3.76193 -1 2.7332
      vertex -2.325 -1 4.02702
    endloop
  endfacet
  facet normal 0 -1 0
    outer loop
      vertex -4.65 -1 6.15
      vertex -4.54839 -1 0.966789
      vertex -3.76193 -1 2.7332
    endloop
  endfacet
  facet normal 0 -1 0
    outer loop
      vertex -4.65 -1 0
      vertex -4.54839 -1 0.966789
      vertex -4.65 -1 6.15
    endloop
  endfacet
  facet normal 0 -1 -0
    outer loop
      vertex -4.54839 -1 0.966789
      vertex -4.65 -1 0
      vertex -4.54839 -1 0
    endloop
  endfacet
  facet normal 0.62349 0 0.781831
    outer loop
      vertex -1.80194 0 -0.867767
      vertex -0.445042 -1 -1.94986
      vertex -0.445042 0 -1.94986
    endloop
  endfacet
  facet normal 0.62349 0 0.781831
    outer loop
      vertex -0.445042 -1 -1.94986
      vertex -1.80194 0 -0.867767
      vertex -1.80194 -0.999999 -0.867767
    endloop
  endfacet
  facet normal 1 -0 0
    outer loop
      vertex -1.80194 -0.999999 0
      vertex -1.80194 0 -0.867767
      vertex -1.80194 0 0
    endloop
  endfacet
  facet normal 1 0 0
    outer loop
      vertex -1.80194 0 -0.867767
      vertex -1.80194 -0.999999 0
      vertex -1.80194 -0.999999 -0.867767
    endloop
  endfacet
  facet normal -0.222521 0 0.974928
    outer loop
      vertex -0.445042 0 -1.94986
      vertex 1.24698 -1 -1.56366
      vertex 1.24698 0 -1.56366
    endloop
  endfacet
  facet normal -0.222521 0 0.974928
    outer loop
      vertex 1.24698 -1 -1.56366
      vertex -0.445042 0 -1.94986
      vertex -0.445042 -1 -1.94986
    endloop
  endfacet
  facet normal -0.900969 0 0.433884
    outer loop
      vertex 1.24698 0 -1.56366
      vertex 2 -0.999999 0
      vertex 2 0 0
    endloop
  endfacet
  facet normal -0.900969 0 0.433884
    outer loop
      vertex 2 -0.999999 0
      vertex 1.24698 0 -1.56366
      vertex 1.24698 -1 -1.56366
    endloop
  endfacet
  facet normal 1 0 0
    outer loop
      vertex -2 0 6.15
      vertex -2 -0.999999 4.13262
      vertex -2 0 0
    endloop
  endfacet
  facet normal 1 -0 0
    outer loop
      vertex -2 -1 6.15
      vertex -2 -0.999999 4.13262
      vertex -2 0 6.15
    endloop
  endfacet
  facet normal 1 0 0
    outer loop
      vertex -2 -0.999999 4.13262
      vertex -2 -1 6.15
      vertex -2 -1 4.13262
    endloop
  endfacet
  facet normal 1 -0 0
    outer loop
      vertex -2 -0.999999 1.23464
      vertex -2 0 0
      vertex -2 -0.999999 4.13262
    endloop
  endfacet
  facet normal 1 0 0
    outer loop
      vertex -2 0 0
      vertex -2 -0.999999 1.23464
      vertex -2 -0.999999 0
    endloop
  endfacet
  facet normal -1 0 0
    outer loop
      vertex 2 -0.999999 4.09732
      vertex 2 0 0
      vertex 2 -0.999999 1.65505
    endloop
  endfacet
  facet normal -1 0 -0
    outer loop
      vertex 2 -0.999999 1.65505
      vertex 2 0 0
      vertex 2 -0.999999 0
    endloop
  endfacet
  facet normal -1 0 0
    outer loop
      vertex 2 0 0
      vertex 2 -0.999999 4.09732
      vertex 2 0 6.15
    endloop
  endfacet
  facet normal -1 0 0
    outer loop
      vertex 2 -1 6.15
      vertex 2 -0.999999 4.09732
      vertex 2 -1 4.09732
    endloop
  endfacet
  facet normal -1 0 0
    outer loop
      vertex 2 -0.999999 4.09732
      vertex 2 -1 6.15
      vertex 2 0 6.15
    endloop
  endfacet
  facet normal -0 0 1
    outer loop
      vertex -2 0 0
      vertex -1.80194 -0.999999 0
      vertex -1.80194 0 0
    endloop
  endfacet
  facet normal 0 0 1
    outer loop
      vertex -1.80194 -0.999999 0
      vertex -2 0 0
      vertex -2 -0.999999 0
    endloop
  endfacet
endsolid OpenSCAD_Model
