solid OpenSCAD_Model
  facet normal -1 0 0
    outer loop
      vertex -9.5 0 -9.5
      vertex -9.5 -10.9 0
      vertex -9.5 0 9.5
    endloop
  endfacet
  facet normal -1 0 0
    outer loop
      vertex -9.5 0 -9.5
      vertex -9.5 -11.591 -0.951056
      vertex -9.5 -10.9 0
    endloop
  endfacet
  facet normal -1 0 0
    outer loop
      vertex -9.5 -14.9 -9.5
      vertex -9.5 -11.591 -0.951056
      vertex -9.5 0 -9.5
    endloop
  endfacet
  facet normal -1 -0 0
    outer loop
      vertex -9.5 -12.709 -0.587785
      vertex -9.5 -14.9 -9.5
      vertex -9.5 -12.709 0.587785
    endloop
  endfacet
  facet normal -1 -0 0
    outer loop
      vertex -9.5 -11.591 -0.951056
      vertex -9.5 -14.9 -9.5
      vertex -9.5 -12.709 -0.587785
    endloop
  endfacet
  facet normal -1 0 0
    outer loop
      vertex -9.5 -11.591 0.951056
      vertex -9.5 0 9.5
      vertex -9.5 -10.9 0
    endloop
  endfacet
  facet normal -1 0 0
    outer loop
      vertex -9.5 -14.9 9.5
      vertex -9.5 -11.591 0.951056
      vertex -9.5 -12.709 0.587785
    endloop
  endfacet
  facet normal -1 0 0
    outer loop
      vertex -9.5 -11.591 0.951056
      vertex -9.5 -14.9 9.5
      vertex -9.5 0 9.5
    endloop
  endfacet
  facet normal -1 0 0
    outer loop
      vertex -9.5 -14.9 9.5
      vertex -9.5 -12.709 0.587785
      vertex -9.5 -14.9 -9.5
    endloop
  endfacet
  facet normal 0 0 1
    outer loop
      vertex -5.5 0 9.5
      vertex -8.5 -1 9.5
      vertex -5.5 -1 9.5
    endloop
  endfacet
  facet normal 0 0 1
    outer loop
      vertex -8.5 -1 9.5
      vertex -9.5 0 9.5
      vertex -8.5 -2.9 9.5
    endloop
  endfacet
  facet normal -0 0 1
    outer loop
      vertex -9.5 0 9.5
      vertex -8.5 -1 9.5
      vertex -5.5 0 9.5
    endloop
  endfacet
  facet normal 0 0 1
    outer loop
      vertex 8.5 -2.9 9.5
      vertex 9.5 0 9.5
      vertex 8.5 -1 9.5
    endloop
  endfacet
  facet normal -0 0 1
    outer loop
      vertex 5.5 0 9.5
      vertex 8.5 -1 9.5
      vertex 9.5 0 9.5
    endloop
  endfacet
  facet normal 0 0 1
    outer loop
      vertex 8.5 -1 9.5
      vertex 5.5 0 9.5
      vertex 5.5 -1 9.5
    endloop
  endfacet
  facet normal 0 0 1
    outer loop
      vertex 9.5 0 9.5
      vertex 8.5 -2.9 9.5
      vertex 9.5 -14.9 9.5
    endloop
  endfacet
  facet normal -0 0 1
    outer loop
      vertex 3 -4.9 9.5
      vertex 9.5 -14.9 9.5
      vertex 8.5 -2.9 9.5
    endloop
  endfacet
  facet normal 0 0 1
    outer loop
      vertex 9.5 -14.9 9.5
      vertex 3 -4.9 9.5
      vertex 3 -14.9 9.5
    endloop
  endfacet
  facet normal 0 0 1
    outer loop
      vertex 8.5 -2.9 9.5
      vertex -3 -4.9 9.5
      vertex 3 -4.9 9.5
    endloop
  endfacet
  facet normal -0 0 1
    outer loop
      vertex -8.5 -2.9 9.5
      vertex -3 -4.9 9.5
      vertex 8.5 -2.9 9.5
    endloop
  endfacet
  facet normal 0 0 1
    outer loop
      vertex -9.5 -14.9 9.5
      vertex -3 -4.9 9.5
      vertex -8.5 -2.9 9.5
    endloop
  endfacet
  facet normal 0 0 1
    outer loop
      vertex -3 -4.9 9.5
      vertex -9.5 -14.9 9.5
      vertex -3 -14.9 9.5
    endloop
  endfacet
  facet normal 0 0 1
    outer loop
      vertex -9.5 -14.9 9.5
      vertex -8.5 -2.9 9.5
      vertex -9.5 0 9.5
    endloop
  endfacet
  facet normal 1 0 0
    outer loop
      vertex 9.5 0 9.5
      vertex 9.5 -10.9 0
      vertex 9.5 0 -9.5
    endloop
  endfacet
  facet normal 1 0 0
    outer loop
      vertex 9.5 0 9.5
      vertex 9.5 -11.591 0.951056
      vertex 9.5 -10.9 0
    endloop
  endfacet
  facet normal 1 -0 0
    outer loop
      vertex 9.5 -14.9 9.5
      vertex 9.5 -11.591 0.951056
      vertex 9.5 0 9.5
    endloop
  endfacet
  facet normal 1 0 0
    outer loop
      vertex 9.5 -12.709 0.587785
      vertex 9.5 -14.9 9.5
      vertex 9.5 -12.709 -0.587785
    endloop
  endfacet
  facet normal 1 0 0
    outer loop
      vertex 9.5 -11.591 0.951056
      vertex 9.5 -14.9 9.5
      vertex 9.5 -12.709 0.587785
    endloop
  endfacet
  facet normal 1 -0 0
    outer loop
      vertex 9.5 -11.591 -0.951056
      vertex 9.5 0 -9.5
      vertex 9.5 -10.9 0
    endloop
  endfacet
  facet normal 1 0 0
    outer loop
      vertex 9.5 -14.9 -9.5
      vertex 9.5 -11.591 -0.951056
      vertex 9.5 -12.709 -0.587785
    endloop
  endfacet
  facet normal 1 0 0
    outer loop
      vertex 9.5 -11.591 -0.951056
      vertex 9.5 -14.9 -9.5
      vertex 9.5 0 -9.5
    endloop
  endfacet
  facet normal 1 0 0
    outer loop
      vertex 9.5 -14.9 -9.5
      vertex 9.5 -12.709 -0.587785
      vertex 9.5 -14.9 9.5
    endloop
  endfacet
  facet normal 0 0 -1
    outer loop
      vertex -3 -14.9 -9.5
      vertex -9.5 -14.9 -9.5
      vertex -3 -4.9 -9.5
    endloop
  endfacet
  facet normal 0 0 -1
    outer loop
      vertex 3 -4.9 -9.5
      vertex 9.5 -14.9 -9.5
      vertex 3 -14.9 -9.5
    endloop
  endfacet
  facet normal 0 0 -1
    outer loop
      vertex 9.5 -14.9 -9.5
      vertex 3 -4.9 -9.5
      vertex 9.5 0 -9.5
    endloop
  endfacet
  facet normal 0 0 -1
    outer loop
      vertex -3 -4.9 -9.5
      vertex 9.5 0 -9.5
      vertex 3 -4.9 -9.5
    endloop
  endfacet
  facet normal 0 0 -1
    outer loop
      vertex -3 -4.9 -9.5
      vertex -9.5 0 -9.5
      vertex 9.5 0 -9.5
    endloop
  endfacet
  facet normal 0 0 -1
    outer loop
      vertex -9.5 0 -9.5
      vertex -3 -4.9 -9.5
      vertex -9.5 -14.9 -9.5
    endloop
  endfacet
  facet normal 0 -1 0
    outer loop
      vertex -9.5 -14.9 -9.5
      vertex -3 -14.9 9.5
      vertex -9.5 -14.9 9.5
    endloop
  endfacet
  facet normal 0 -1 -0
    outer loop
      vertex -3 -14.9 9.5
      vertex -9.5 -14.9 -9.5
      vertex -3 -14.9 -9.5
    endloop
  endfacet
  facet normal 0 -1 0
    outer loop
      vertex 3 -14.9 -9.5
      vertex 9.5 -14.9 9.5
      vertex 3 -14.9 9.5
    endloop
  endfacet
  facet normal 0 -1 -0
    outer loop
      vertex 9.5 -14.9 9.5
      vertex 3 -14.9 -9.5
      vertex 9.5 -14.9 -9.5
    endloop
  endfacet
  facet normal 0 1 0
    outer loop
      vertex 9.5 0 9.5
      vertex 5.5 0 0
      vertex 5.5 0 9.5
    endloop
  endfacet
  facet normal 0 1 -0
    outer loop
      vertex 9.5 0 -9.5
      vertex 5.5 0 0
      vertex 9.5 0 9.5
    endloop
  endfacet
  facet normal 0 1 0
    outer loop
      vertex 0.955065 0 -5.41644
      vertex 9.5 0 -9.5
      vertex -0.955065 0 -5.41644
    endloop
  endfacet
  facet normal 0 1 0
    outer loop
      vertex 2.75 0 -4.76314
      vertex 9.5 0 -9.5
      vertex 0.955065 0 -5.41644
    endloop
  endfacet
  facet normal 0 1 0
    outer loop
      vertex 4.21324 0 -3.53533
      vertex 9.5 0 -9.5
      vertex 2.75 0 -4.76314
    endloop
  endfacet
  facet normal 0 1 0
    outer loop
      vertex 5.16831 0 -1.88111
      vertex 9.5 0 -9.5
      vertex 4.21324 0 -3.53533
    endloop
  endfacet
  facet normal 0 1 0
    outer loop
      vertex 5.5 0 0
      vertex 9.5 0 -9.5
      vertex 5.16831 0 -1.88111
    endloop
  endfacet
  facet normal 0 1 -0
    outer loop
      vertex -5.5 0 0
      vertex -9.5 0 9.5
      vertex -5.5 0 9.5
    endloop
  endfacet
  facet normal 0 1 0
    outer loop
      vertex -9.5 0 -9.5
      vertex -5.5 0 0
      vertex -5.16831 0 -1.88111
    endloop
  endfacet
  facet normal 0 1 0
    outer loop
      vertex -9.5 0 -9.5
      vertex -0.955065 0 -5.41644
      vertex 9.5 0 -9.5
    endloop
  endfacet
  facet normal 0 1 0
    outer loop
      vertex -5.5 0 0
      vertex -9.5 0 -9.5
      vertex -9.5 0 9.5
    endloop
  endfacet
  facet normal 0 1 0
    outer loop
      vertex -4.21324 0 -3.53533
      vertex -9.5 0 -9.5
      vertex -5.16831 0 -1.88111
    endloop
  endfacet
  facet normal 0 1 0
    outer loop
      vertex -2.75 0 -4.76314
      vertex -9.5 0 -9.5
      vertex -4.21324 0 -3.53533
    endloop
  endfacet
  facet normal 0 1 0
    outer loop
      vertex -0.955065 0 -5.41644
      vertex -9.5 0 -9.5
      vertex -2.75 0 -4.76314
    endloop
  endfacet
  facet normal 1 0 0
    outer loop
      vertex -3 -4.9 9.5
      vertex -3 -10.9 0
      vertex -3 -4.9 -9.5
    endloop
  endfacet
  facet normal 1 0 0
    outer loop
      vertex -3 -4.9 9.5
      vertex -3 -11.591 0.951056
      vertex -3 -10.9 0
    endloop
  endfacet
  facet normal 1 -0 0
    outer loop
      vertex -3 -14.9 9.5
      vertex -3 -11.591 0.951056
      vertex -3 -4.9 9.5
    endloop
  endfacet
  facet normal 1 0 0
    outer loop
      vertex -3 -12.709 0.587785
      vertex -3 -14.9 9.5
      vertex -3 -12.709 -0.587785
    endloop
  endfacet
  facet normal 1 0 0
    outer loop
      vertex -3 -11.591 0.951056
      vertex -3 -14.9 9.5
      vertex -3 -12.709 0.587785
    endloop
  endfacet
  facet normal 1 -0 0
    outer loop
      vertex -3 -11.591 -0.951056
      vertex -3 -4.9 -9.5
      vertex -3 -10.9 0
    endloop
  endfacet
  facet normal 1 0 0
    outer loop
      vertex -3 -14.9 -9.5
      vertex -3 -11.591 -0.951056
      vertex -3 -12.709 -0.587785
    endloop
  endfacet
  facet normal 1 0 0
    outer loop
      vertex -3 -11.591 -0.951056
      vertex -3 -14.9 -9.5
      vertex -3 -4.9 -9.5
    endloop
  endfacet
  facet normal 1 0 0
    outer loop
      vertex -3 -14.9 -9.5
      vertex -3 -12.709 -0.587785
      vertex -3 -14.9 9.5
    endloop
  endfacet
  facet normal -1 0 0
    outer loop
      vertex 3 -4.9 -9.5
      vertex 3 -10.9 0
      vertex 3 -4.9 9.5
    endloop
  endfacet
  facet normal -1 0 0
    outer loop
      vertex 3 -4.9 -9.5
      vertex 3 -11.591 -0.951056
      vertex 3 -10.9 0
    endloop
  endfacet
  facet normal -1 0 0
    outer loop
      vertex 3 -14.9 -9.5
      vertex 3 -11.591 -0.951056
      vertex 3 -4.9 -9.5
    endloop
  endfacet
  facet normal -1 -0 0
    outer loop
      vertex 3 -12.709 -0.587785
      vertex 3 -14.9 -9.5
      vertex 3 -12.709 0.587785
    endloop
  endfacet
  facet normal -1 -0 0
    outer loop
      vertex 3 -11.591 -0.951056
      vertex 3 -14.9 -9.5
      vertex 3 -12.709 -0.587785
    endloop
  endfacet
  facet normal -1 0 0
    outer loop
      vertex 3 -11.591 0.951056
      vertex 3 -4.9 9.5
      vertex 3 -10.9 0
    endloop
  endfacet
  facet normal -1 0 0
    outer loop
      vertex 3 -14.9 9.5
      vertex 3 -11.591 0.951056
      vertex 3 -12.709 0.587785
    endloop
  endfacet
  facet normal -1 0 0
    outer loop
      vertex 3 -11.591 0.951056
      vertex 3 -14.9 9.5
      vertex 3 -4.9 9.5
    endloop
  endfacet
  facet normal -1 0 0
    outer loop
      vertex 3 -14.9 9.5
      vertex 3 -12.709 0.587785
      vertex 3 -14.9 -9.5
    endloop
  endfacet
  facet normal 0 -1 0
    outer loop
      vertex -3 -4.9 -9.5
      vertex 3 -4.9 9.5
      vertex -3 -4.9 9.5
    endloop
  endfacet
  facet normal 0 -1 -0
    outer loop
      vertex 3 -4.9 9.5
      vertex -3 -4.9 -9.5
      vertex 3 -4.9 -9.5
    endloop
  endfacet
  facet normal 0 -0.809017 -0.587785
    outer loop
      vertex -9.5 -10.9 0
      vertex -3 -11.591 0.951056
      vertex -9.5 -11.591 0.951056
    endloop
  endfacet
  facet normal 0 -0.809017 -0.587785
    outer loop
      vertex -3 -11.591 0.951056
      vertex -9.5 -10.9 0
      vertex -3 -10.9 0
    endloop
  endfacet
  facet normal 0 -0.809017 -0.587785
    outer loop
      vertex 3 -10.9 0
      vertex 9.5 -11.591 0.951056
      vertex 3 -11.591 0.951056
    endloop
  endfacet
  facet normal 0 -0.809017 -0.587785
    outer loop
      vertex 9.5 -11.591 0.951056
      vertex 3 -10.9 0
      vertex 9.5 -10.9 0
    endloop
  endfacet
  facet normal 0 1 -0
    outer loop
      vertex -3 -12.709 -0.587785
      vertex -9.5 -12.709 0.587785
      vertex -3 -12.709 0.587785
    endloop
  endfacet
  facet normal 0 1 0
    outer loop
      vertex -9.5 -12.709 0.587785
      vertex -3 -12.709 -0.587785
      vertex -9.5 -12.709 -0.587785
    endloop
  endfacet
  facet normal 0 1 -0
    outer loop
      vertex 9.5 -12.709 -0.587785
      vertex 3 -12.709 0.587785
      vertex 9.5 -12.709 0.587785
    endloop
  endfacet
  facet normal 0 1 0
    outer loop
      vertex 3 -12.709 0.587785
      vertex 9.5 -12.709 -0.587785
      vertex 3 -12.709 -0.587785
    endloop
  endfacet
  facet normal 0 0.309017 -0.951056
    outer loop
      vertex -9.5 -12.709 0.587785
      vertex -3 -11.591 0.951056
      vertex -3 -12.709 0.587785
    endloop
  endfacet
  facet normal 0 0.309017 -0.951056
    outer loop
      vertex -3 -11.591 0.951056
      vertex -9.5 -12.709 0.587785
      vertex -9.5 -11.591 0.951056
    endloop
  endfacet
  facet normal 0 0.309017 -0.951056
    outer loop
      vertex 3 -12.709 0.587785
      vertex 9.5 -11.591 0.951056
      vertex 9.5 -12.709 0.587785
    endloop
  endfacet
  facet normal 0 0.309017 -0.951056
    outer loop
      vertex 9.5 -11.591 0.951056
      vertex 3 -12.709 0.587785
      vertex 3 -11.591 0.951056
    endloop
  endfacet
  facet normal -0 0.309017 0.951056
    outer loop
      vertex -9.5 -11.591 -0.951056
      vertex -3 -12.709 -0.587785
      vertex -3 -11.591 -0.951056
    endloop
  endfacet
  facet normal 0 0.309017 0.951056
    outer loop
      vertex -3 -12.709 -0.587785
      vertex -9.5 -11.591 -0.951056
      vertex -9.5 -12.709 -0.587785
    endloop
  endfacet
  facet normal -0 0.309017 0.951056
    outer loop
      vertex 3 -11.591 -0.951056
      vertex 9.5 -12.709 -0.587785
      vertex 9.5 -11.591 -0.951056
    endloop
  endfacet
  facet normal 0 0.309017 0.951056
    outer loop
      vertex 9.5 -12.709 -0.587785
      vertex 3 -11.591 -0.951056
      vertex 3 -12.709 -0.587785
    endloop
  endfacet
  facet normal 0 -0.809017 0.587785
    outer loop
      vertex -9.5 -11.591 -0.951056
      vertex -3 -10.9 0
      vertex -9.5 -10.9 0
    endloop
  endfacet
  facet normal 0 -0.809017 0.587785
    outer loop
      vertex -3 -10.9 0
      vertex -9.5 -11.591 -0.951056
      vertex -3 -11.591 -0.951056
    endloop
  endfacet
  facet normal 0 -0.809017 0.587785
    outer loop
      vertex 3 -11.591 -0.951056
      vertex 9.5 -10.9 0
      vertex 3 -10.9 0
    endloop
  endfacet
  facet normal 0 -0.809017 0.587785
    outer loop
      vertex 9.5 -10.9 0
      vertex 3 -11.591 -0.951056
      vertex 9.5 -11.591 -0.951056
    endloop
  endfacet
  facet normal -0.993238 -0 -0.116093
    outer loop
      vertex 8.27088 -0.999999 1.96023
      vertex 8.5 -1 0
      vertex 8.27088 -1 1.96023
    endloop
  endfacet
  facet normal 0 -1 1.00874e-007
    outer loop
      vertex -0.955065 -1 -5.41644
      vertex 1.47601 -1 -8.37087
      vertex 0.955065 -1 -5.41644
    endloop
  endfacet
  facet normal -2.22022e-008 -1 8.26042e-008
    outer loop
      vertex 1.47601 -1 -8.37087
      vertex -0.955065 -1 -5.41644
      vertex -2.09544 -1 -5.00138
    endloop
  endfacet
  facet normal -5.78966e-009 -1 9.94046e-008
    outer loop
      vertex 5.5 -0.999999 0
      vertex 8.27088 -0.999999 1.96023
      vertex 5.5 -0.999999 1.79885
    endloop
  endfacet
  facet normal -3.1013e-009 -1 9.56045e-008
    outer loop
      vertex 5.16831 -0.999999 -1.88111
      vertex 8.27088 -0.999999 1.96023
      vertex 5.5 -0.999999 0
    endloop
  endfacet
  facet normal 9.13305e-008 -1 1.93339e-008
    outer loop
      vertex 4.21324 -1 -3.53533
      vertex 8.27088 -0.999999 1.96023
      vertex 5.16831 -0.999999 -1.88111
    endloop
  endfacet
  facet normal -6.8745e-008 -1 1.37525e-007
    outer loop
      vertex 4.21324 -1 -3.53533
      vertex 1.47601 -1 -8.37087
      vertex 8.27088 -0.999999 1.96023
    endloop
  endfacet
  facet normal -2.42907e-009 -1 9.99861e-008
    outer loop
      vertex 2.75 -1 -4.76314
      vertex 1.47601 -1 -8.37087
      vertex 4.21324 -1 -3.53533
    endloop
  endfacet
  facet normal -3.2963e-009 -1 1.00292e-007
    outer loop
      vertex 1.47601 -1 -8.37087
      vertex 2.75 -1 -4.76314
      vertex 0.955065 -1 -5.41644
    endloop
  endfacet
  facet normal -5.99492e-009 -1 1.02929e-007
    outer loop
      vertex -8.44253 -0.999999 0.98679
      vertex -5.5 -0.999999 0
      vertex -5.5 -0.999999 1.15817
    endloop
  endfacet
  facet normal -9.17721e-009 -1 9.34395e-008
    outer loop
      vertex -8.44253 -0.999999 0.98679
      vertex -5.16831 -0.999999 -1.88111
      vertex -5.5 -0.999999 0
    endloop
  endfacet
  facet normal 3.32922e-008 -1 1.41926e-007
    outer loop
      vertex -5.16831 -0.999999 -1.88111
      vertex -8.44253 -0.999999 0.98679
      vertex -4.88786 -0.999999 -2.36687
    endloop
  endfacet
  facet normal -2.08117e-006 -1 2.43255e-007
    outer loop
      vertex 8.5 -1 0
      vertex 8.27088 -0.999999 1.96023
      vertex 8.27088 -1 -1.96023
    endloop
  endfacet
  facet normal 2.08351e-008 -1 1.18162e-007
    outer loop
      vertex -2.43783 -1 -8.14291
      vertex -0.49423 -1 -8.48562
      vertex -8.44253 -0.999999 0.98679
    endloop
  endfacet
  facet normal 1 0 0
    outer loop
      vertex -8.44253 -1 0
      vertex -8.44253 -0.999999 0.98679
      vertex -8.44253 -1 0.98679
    endloop
  endfacet
  facet normal 1 -0 0
    outer loop
      vertex -8.44253 -1 0
      vertex -8.44253 -1 -0.98679
      vertex -8.44253 -0.999999 0.98679
    endloop
  endfacet
  facet normal 1 -0 0
    outer loop
      vertex -8.44253 -2.9 0
      vertex -8.44253 -1 -0.98679
      vertex -8.44253 -1 0
    endloop
  endfacet
  facet normal 1 0 0
    outer loop
      vertex -8.44253 -1 -0.98679
      vertex -8.44253 -2.9 0
      vertex -8.44253 -2.9 -0.98679
    endloop
  endfacet
  facet normal 0 -1 0
    outer loop
      vertex 5.5 -0.999999 1.79885
      vertex 6.51138 -0.999999 5.46369
      vertex 5.5 -0.999999 6.41788
    endloop
  endfacet
  facet normal 0 -1 -0
    outer loop
      vertex 6.51138 -0.999999 5.46369
      vertex 5.5 -0.999999 1.79885
      vertex 7.59588 -0.999999 3.81479
    endloop
  endfacet
  facet normal 0 -1 -0
    outer loop
      vertex 7.59588 -0.999999 3.81479
      vertex 5.5 -0.999999 1.79885
      vertex 8.27088 -0.999999 1.96023
    endloop
  endfacet
  facet normal 0 -1 0
    outer loop
      vertex -5.5 -0.999999 1.15817
      vertex -5.83305 -0.999999 6.18268
      vertex -7.10165 -0.999999 4.67083
    endloop
  endfacet
  facet normal 0 -1 0
    outer loop
      vertex -5.5 -0.999999 1.15817
      vertex -7.10165 -0.999999 4.67083
      vertex -7.98739 -0.999999 2.90717
    endloop
  endfacet
  facet normal 0 -1 0
    outer loop
      vertex -5.83305 -0.999999 6.18268
      vertex -5.5 -0.999999 1.15817
      vertex -5.5 -0.999999 6.43062
    endloop
  endfacet
  facet normal -0 -1 0
    outer loop
      vertex -5.5 -0.999999 1.15817
      vertex -7.98739 -0.999999 2.90717
      vertex -8.44253 -0.999999 0.98679
    endloop
  endfacet
  facet normal 0.766045 0 -0.642787
    outer loop
      vertex -5.83305 -1 6.18268
      vertex -7.10165 -0.999999 4.67083
      vertex -5.83305 -0.999999 6.18268
    endloop
  endfacet
  facet normal 0.766045 0 -0.642787
    outer loop
      vertex -7.10165 -0.999999 4.67083
      vertex -5.83305 -1 6.18268
      vertex -7.10165 -1 4.67083
    endloop
  endfacet
  facet normal -1.56099e-007 -1 1.65456e-007
    outer loop
      vertex 6.51138 -1 -5.46369
      vertex 8.27088 -0.999999 1.96023
      vertex 5.07585 -1 -6.81805
    endloop
  endfacet
  facet normal -0.993238 0 0.116093
    outer loop
      vertex 8.27088 -2.9 -1.96023
      vertex 8.5 -1 0
      vertex 8.27088 -1 -1.96023
    endloop
  endfacet
  facet normal -0.993238 0 0.116093
    outer loop
      vertex 8.5 -1 0
      vertex 8.27088 -2.9 -1.96023
      vertex 8.5 -2.9 0
    endloop
  endfacet
  facet normal 1.35836e-007 -1 1.82459e-007
    outer loop
      vertex -5.83305 -1 -6.18268
      vertex -4.25 -1 -7.36122
      vertex -8.44253 -0.999999 0.98679
    endloop
  endfacet
  facet normal 2.79964e-007 -1 2.34917e-007
    outer loop
      vertex -7.10165 -1 -4.67083
      vertex -5.83305 -1 -6.18268
      vertex -8.44253 -0.999999 0.98679
    endloop
  endfacet
  facet normal -0.686242 0 -0.727374
    outer loop
      vertex 5.5 -1 6.41788
      vertex 6.51138 -0.999999 5.46369
      vertex 6.51138 -1 5.46369
    endloop
  endfacet
  facet normal -0.686242 0 -0.727374
    outer loop
      vertex 6.51138 -0.999999 5.46369
      vertex 5.5 -1 6.41788
      vertex 5.5 -0.999999 6.41788
    endloop
  endfacet
  facet normal -0.686242 0 0.727374
    outer loop
      vertex 5.07585 -1 -6.81805
      vertex 6.51138 -2.9 -5.46369
      vertex 6.51138 -1 -5.46369
    endloop
  endfacet
  facet normal -0.686242 0 0.727374
    outer loop
      vertex 6.51138 -2.9 -5.46369
      vertex 5.07585 -1 -6.81805
      vertex 5.07585 -2.9 -6.81805
    endloop
  endfacet
  facet normal -0.286804 0 0.957989
    outer loop
      vertex 1.47601 -1 -8.37087
      vertex 3.36668 -2.9 -7.80484
      vertex 3.36668 -1 -7.80484
    endloop
  endfacet
  facet normal -0.286804 0 0.957989
    outer loop
      vertex 3.36668 -2.9 -7.80484
      vertex 1.47601 -1 -8.37087
      vertex 1.47601 -2.9 -8.37087
    endloop
  endfacet
  facet normal 0.396079 0 0.918216
    outer loop
      vertex -4.25 -1 -7.36122
      vertex -2.43783 -2.9 -8.14291
      vertex -2.43783 -1 -8.14291
    endloop
  endfacet
  facet normal 0.396079 0 0.918216
    outer loop
      vertex -2.43783 -2.9 -8.14291
      vertex -4.25 -1 -7.36122
      vertex -4.25 -2.9 -7.36122
    endloop
  endfacet
  facet normal 0.973045 -0 0.230616
    outer loop
      vertex -8.44253 -2.9 -0.98679
      vertex -7.98739 -1 -2.90717
      vertex -8.44253 -1 -0.98679
    endloop
  endfacet
  facet normal 0.973045 0 0.230616
    outer loop
      vertex -7.98739 -1 -2.90717
      vertex -8.44253 -2.9 -0.98679
      vertex -7.98739 -2.9 -2.90717
    endloop
  endfacet
  facet normal 6.29059e-008 -1 1.45832e-007
    outer loop
      vertex -4.25 -1 -7.36122
      vertex -2.43783 -1 -8.14291
      vertex -8.44253 -0.999999 0.98679
    endloop
  endfacet
  facet normal -9.56504e-009 -1 9.64998e-008
    outer loop
      vertex -8.44253 -0.999999 0.98679
      vertex -4.21324 -1 -3.53533
      vertex -4.88786 -0.999999 -2.36687
    endloop
  endfacet
  facet normal 4.48624e-008 -1 1.23258e-007
    outer loop
      vertex -0.49423 -1 -8.48562
      vertex -2.09544 -1 -5.00138
      vertex -2.75 -1 -4.76314
    endloop
  endfacet
  facet normal -1.73916e-009 -1 9.50186e-008
    outer loop
      vertex -0.49423 -1 -8.48562
      vertex -2.75 -1 -4.76314
      vertex -4.21324 -1 -3.53533
    endloop
  endfacet
  facet normal -5.82232e-009 -1 9.99659e-008
    outer loop
      vertex -2.09544 -1 -5.00138
      vertex -0.49423 -1 -8.48562
      vertex 1.47601 -1 -8.37087
    endloop
  endfacet
  facet normal -4.95747e-008 -1 5.9081e-008
    outer loop
      vertex -0.49423 -1 -8.48562
      vertex -4.21324 -1 -3.53533
      vertex -8.44253 -0.999999 0.98679
    endloop
  endfacet
  facet normal -0.835488 0 -0.549509
    outer loop
      vertex 7.59588 -1 3.81479
      vertex 6.51138 -0.999999 5.46369
      vertex 7.59588 -0.999999 3.81479
    endloop
  endfacet
  facet normal -0.835488 -0 -0.549509
    outer loop
      vertex 6.51138 -0.999999 5.46369
      vertex 7.59588 -1 3.81479
      vertex 6.51138 -1 5.46369
    endloop
  endfacet
  facet normal 0.973045 0 -0.230616
    outer loop
      vertex -7.98739 -1 2.90717
      vertex -8.44253 -0.999999 0.98679
      vertex -7.98739 -0.999999 2.90717
    endloop
  endfacet
  facet normal 0.973045 0 -0.230616
    outer loop
      vertex -8.44253 -0.999999 0.98679
      vertex -7.98739 -1 2.90717
      vertex -8.44253 -1 0.98679
    endloop
  endfacet
  facet normal 0.597158 0 -0.802123
    outer loop
      vertex -5.83305 -1 6.18268
      vertex -5.5 -0.999999 6.43062
      vertex -5.5 -1 6.43062
    endloop
  endfacet
  facet normal 0.597158 0 -0.802123
    outer loop
      vertex -5.5 -0.999999 6.43062
      vertex -5.83305 -1 6.18268
      vertex -5.83305 -0.999999 6.18268
    endloop
  endfacet
  facet normal -3.44121e-008 -1 1.14944e-007
    outer loop
      vertex 3.36668 -1 -7.80484
      vertex 8.27088 -0.999999 1.96023
      vertex 1.47601 -1 -8.37087
    endloop
  endfacet
  facet normal -7.94107e-008 -1 1.37543e-007
    outer loop
      vertex 5.07585 -1 -6.81805
      vertex 8.27088 -0.999999 1.96023
      vertex 3.36668 -1 -7.80484
    endloop
  endfacet
  facet normal -0.835488 0 0.549509
    outer loop
      vertex 6.51138 -2.9 -5.46369
      vertex 7.59588 -1 -3.81479
      vertex 6.51138 -1 -5.46369
    endloop
  endfacet
  facet normal -0.835488 0 0.549509
    outer loop
      vertex 7.59588 -1 -3.81479
      vertex 6.51138 -2.9 -5.46369
      vertex 7.59588 -2.9 -3.81479
    endloop
  endfacet
  facet normal -0.5 0 0.866025
    outer loop
      vertex 3.36668 -1 -7.80484
      vertex 5.07585 -2.9 -6.81805
      vertex 5.07585 -1 -6.81805
    endloop
  endfacet
  facet normal -0.5 0 0.866025
    outer loop
      vertex 5.07585 -2.9 -6.81805
      vertex 3.36668 -1 -7.80484
      vertex 3.36668 -2.9 -7.80484
    endloop
  endfacet
  facet normal 2.03887e-006 -1 4.83221e-007
    outer loop
      vertex -7.98739 -1 -2.90717
      vertex -8.44253 -0.999999 0.98679
      vertex -8.44253 -1 -0.98679
    endloop
  endfacet
  facet normal 6.35579e-007 -1 3.192e-007
    outer loop
      vertex -7.98739 -1 -2.90717
      vertex -7.10165 -1 -4.67083
      vertex -8.44253 -0.999999 0.98679
    endloop
  endfacet
  facet normal -0.0581445 0 0.998308
    outer loop
      vertex -0.49423 -1 -8.48562
      vertex 1.47601 -2.9 -8.37087
      vertex 1.47601 -1 -8.37087
    endloop
  endfacet
  facet normal -0.0581445 0 0.998308
    outer loop
      vertex 1.47601 -2.9 -8.37087
      vertex -0.49423 -1 -8.48562
      vertex -0.49423 -2.9 -8.48562
    endloop
  endfacet
  facet normal 0.893633 -0 0.448799
    outer loop
      vertex -7.98739 -2.9 -2.90717
      vertex -7.10165 -1 -4.67083
      vertex -7.98739 -1 -2.90717
    endloop
  endfacet
  facet normal 0.893633 0 0.448799
    outer loop
      vertex -7.10165 -1 -4.67083
      vertex -7.98739 -2.9 -2.90717
      vertex -7.10165 -2.9 -4.67083
    endloop
  endfacet
  facet normal -0.939693 0 -0.34202
    outer loop
      vertex 8.27088 -1 1.96023
      vertex 7.59588 -0.999999 3.81479
      vertex 8.27088 -0.999999 1.96023
    endloop
  endfacet
  facet normal -0.939693 -0 -0.34202
    outer loop
      vertex 7.59588 -0.999999 3.81479
      vertex 8.27088 -1 1.96023
      vertex 7.59588 -1 3.81479
    endloop
  endfacet
  facet normal 0 1 -0
    outer loop
      vertex 8.27088 -2.9 -1.96023
      vertex -8.44253 -2.9 0
      vertex 8.5 -2.9 0
    endloop
  endfacet
  facet normal 0 1 -0
    outer loop
      vertex 7.59588 -2.9 -3.81479
      vertex -8.44253 -2.9 0
      vertex 8.27088 -2.9 -1.96023
    endloop
  endfacet
  facet normal 0 1 0
    outer loop
      vertex -8.44253 -2.9 0
      vertex -7.98739 -2.9 -2.90717
      vertex -8.44253 -2.9 -0.98679
    endloop
  endfacet
  facet normal 0 1 -0
    outer loop
      vertex 6.51138 -2.9 -5.46369
      vertex -8.44253 -2.9 0
      vertex 7.59588 -2.9 -3.81479
    endloop
  endfacet
  facet normal 0 1 0
    outer loop
      vertex -8.44253 -2.9 0
      vertex -7.10165 -2.9 -4.67083
      vertex -7.98739 -2.9 -2.90717
    endloop
  endfacet
  facet normal 0 1 -0
    outer loop
      vertex -5.83305 -2.9 -6.18268
      vertex -8.44253 -2.9 0
      vertex 6.51138 -2.9 -5.46369
    endloop
  endfacet
  facet normal 0 1 0
    outer loop
      vertex -8.44253 -2.9 0
      vertex -5.83305 -2.9 -6.18268
      vertex -7.10165 -2.9 -4.67083
    endloop
  endfacet
  facet normal 0 1 -0
    outer loop
      vertex 5.07585 -2.9 -6.81805
      vertex -5.83305 -2.9 -6.18268
      vertex 6.51138 -2.9 -5.46369
    endloop
  endfacet
  facet normal 0 1 0
    outer loop
      vertex 5.07585 -2.9 -6.81805
      vertex -4.25 -2.9 -7.36122
      vertex -5.83305 -2.9 -6.18268
    endloop
  endfacet
  facet normal 0 1 -0
    outer loop
      vertex 3.36668 -2.9 -7.80484
      vertex -4.25 -2.9 -7.36122
      vertex 5.07585 -2.9 -6.81805
    endloop
  endfacet
  facet normal 0 1 0
    outer loop
      vertex 3.36668 -2.9 -7.80484
      vertex -2.43783 -2.9 -8.14291
      vertex -4.25 -2.9 -7.36122
    endloop
  endfacet
  facet normal 0 1 -0
    outer loop
      vertex 1.47601 -2.9 -8.37087
      vertex -2.43783 -2.9 -8.14291
      vertex 3.36668 -2.9 -7.80484
    endloop
  endfacet
  facet normal 0 1 0
    outer loop
      vertex -2.43783 -2.9 -8.14291
      vertex 1.47601 -2.9 -8.37087
      vertex -0.49423 -2.9 -8.48562
    endloop
  endfacet
  facet normal 0 1 -0
    outer loop
      vertex 8.5 -2.9 0
      vertex -8.5 -2.9 9.5
      vertex 8.5 -2.9 9.5
    endloop
  endfacet
  facet normal 0 1 -0
    outer loop
      vertex -8.44253 -2.9 0
      vertex -8.5 -2.9 9.5
      vertex 8.5 -2.9 0
    endloop
  endfacet
  facet normal 0 1 0
    outer loop
      vertex -8.5 -2.9 9.5
      vertex -8.44253 -2.9 0
      vertex -8.5 -2.9 0
    endloop
  endfacet
  facet normal -0.939693 0 0.34202
    outer loop
      vertex 7.59588 -2.9 -3.81479
      vertex 8.27088 -1 -1.96023
      vertex 7.59588 -1 -3.81479
    endloop
  endfacet
  facet normal -0.939693 0 0.34202
    outer loop
      vertex 8.27088 -1 -1.96023
      vertex 7.59588 -2.9 -3.81479
      vertex 8.27088 -2.9 -1.96023
    endloop
  endfacet
  facet normal -3.05343e-007 -1 2.00827e-007
    outer loop
      vertex 7.59588 -1 -3.81479
      vertex 8.27088 -0.999999 1.96023
      vertex 6.51138 -1 -5.46369
    endloop
  endfacet
  facet normal -6.68338e-007 -1 2.43255e-007
    outer loop
      vertex 8.27088 -1 -1.96023
      vertex 8.27088 -0.999999 1.96023
      vertex 7.59588 -1 -3.81479
    endloop
  endfacet
  facet normal 0.173648 0 0.984808
    outer loop
      vertex -2.43783 -1 -8.14291
      vertex -0.49423 -2.9 -8.48562
      vertex -0.49423 -1 -8.48562
    endloop
  endfacet
  facet normal 0.173648 0 0.984808
    outer loop
      vertex -0.49423 -2.9 -8.48562
      vertex -2.43783 -1 -8.14291
      vertex -2.43783 -2.9 -8.14291
    endloop
  endfacet
  facet normal 0.766045 -0 0.642787
    outer loop
      vertex -7.10165 -2.9 -4.67083
      vertex -5.83305 -1 -6.18268
      vertex -7.10165 -1 -4.67083
    endloop
  endfacet
  facet normal 0.766045 0 0.642787
    outer loop
      vertex -5.83305 -1 -6.18268
      vertex -7.10165 -2.9 -4.67083
      vertex -5.83305 -2.9 -6.18268
    endloop
  endfacet
  facet normal 0.597159 0 0.802123
    outer loop
      vertex -5.83305 -1 -6.18268
      vertex -4.25 -2.9 -7.36122
      vertex -4.25 -1 -7.36122
    endloop
  endfacet
  facet normal 0.597159 0 0.802123
    outer loop
      vertex -4.25 -2.9 -7.36122
      vertex -5.83305 -1 -6.18268
      vertex -5.83305 -2.9 -6.18268
    endloop
  endfacet
  facet normal 0.893633 0 -0.448799
    outer loop
      vertex -7.10165 -1 4.67083
      vertex -7.98739 -0.999999 2.90717
      vertex -7.10165 -0.999999 4.67083
    endloop
  endfacet
  facet normal 0.893633 0 -0.448799
    outer loop
      vertex -7.98739 -0.999999 2.90717
      vertex -7.10165 -1 4.67083
      vertex -7.98739 -1 2.90717
    endloop
  endfacet
  facet normal 1 -0 0
    outer loop
      vertex -8.5 -2.9 9.5
      vertex -8.5 -1 0
      vertex -8.5 -1 9.5
    endloop
  endfacet
  facet normal 1 0 0
    outer loop
      vertex -8.5 -1 0
      vertex -8.5 -2.9 9.5
      vertex -8.5 -2.9 0
    endloop
  endfacet
  facet normal -1 0 0
    outer loop
      vertex 8.5 -2.9 0
      vertex 8.5 -1 9.5
      vertex 8.5 -1 0
    endloop
  endfacet
  facet normal -1 -0 0
    outer loop
      vertex 8.5 -1 9.5
      vertex 8.5 -2.9 0
      vertex 8.5 -2.9 9.5
    endloop
  endfacet
  facet normal -0 0 1
    outer loop
      vertex -8.5 -1 0
      vertex -8.44253 -2.9 0
      vertex -8.44253 -1 0
    endloop
  endfacet
  facet normal 0 0 1
    outer loop
      vertex -8.44253 -2.9 0
      vertex -8.5 -1 0
      vertex -8.5 -2.9 0
    endloop
  endfacet
  facet normal 0 -1 0
    outer loop
      vertex 5.5 -1 6.41788
      vertex 8.5 -1 9.5
      vertex 5.5 -1 9.5
    endloop
  endfacet
  facet normal 0 -1 0
    outer loop
      vertex 6.51138 -1 5.46369
      vertex 8.5 -1 9.5
      vertex 5.5 -1 6.41788
    endloop
  endfacet
  facet normal 0 -1 0
    outer loop
      vertex 7.59588 -1 3.81479
      vertex 8.5 -1 9.5
      vertex 6.51138 -1 5.46369
    endloop
  endfacet
  facet normal 0 -1 0
    outer loop
      vertex 8.27088 -1 1.96023
      vertex 8.5 -1 9.5
      vertex 7.59588 -1 3.81479
    endloop
  endfacet
  facet normal 0 -1 -0
    outer loop
      vertex 8.5 -1 9.5
      vertex 8.27088 -1 1.96023
      vertex 8.5 -1 0
    endloop
  endfacet
  facet normal 0 -1 0
    outer loop
      vertex -5.83305 -1 6.18268
      vertex -5.5 -1 9.5
      vertex -8.5 -1 9.5
    endloop
  endfacet
  facet normal 0 -1 -0
    outer loop
      vertex -5.5 -1 9.5
      vertex -5.83305 -1 6.18268
      vertex -5.5 -1 6.43062
    endloop
  endfacet
  facet normal 0 -1 0
    outer loop
      vertex -8.5 -1 9.5
      vertex -7.10165 -1 4.67083
      vertex -5.83305 -1 6.18268
    endloop
  endfacet
  facet normal 0 -1 0
    outer loop
      vertex -8.5 -1 9.5
      vertex -7.98739 -1 2.90717
      vertex -7.10165 -1 4.67083
    endloop
  endfacet
  facet normal 0 -1 0
    outer loop
      vertex -8.5 -1 9.5
      vertex -8.44253 -1 0.98679
      vertex -7.98739 -1 2.90717
    endloop
  endfacet
  facet normal 0 -1 0
    outer loop
      vertex -8.5 -1 0
      vertex -8.44253 -1 0.98679
      vertex -8.5 -1 9.5
    endloop
  endfacet
  facet normal 0 -1 -0
    outer loop
      vertex -8.44253 -1 0.98679
      vertex -8.5 -1 0
      vertex -8.44253 -1 0
    endloop
  endfacet
  facet normal 0.984808 -0 0.173648
    outer loop
      vertex -5.5 -0.999999 0
      vertex -5.16831 0 -1.88111
      vertex -5.5 0 0
    endloop
  endfacet
  facet normal 0.984808 0 0.173648
    outer loop
      vertex -5.16831 0 -1.88111
      vertex -5.5 -0.999999 0
      vertex -5.16831 -0.999999 -1.88111
    endloop
  endfacet
  facet normal -0.34202 0 0.939693
    outer loop
      vertex 0.955065 0 -5.41644
      vertex 2.75 -1 -4.76314
      vertex 2.75 0 -4.76314
    endloop
  endfacet
  facet normal -0.34202 0 0.939693
    outer loop
      vertex 2.75 -1 -4.76314
      vertex 0.955065 0 -5.41644
      vertex 0.955065 -1 -5.41644
    endloop
  endfacet
  facet normal -0.866025 0 0.5
    outer loop
      vertex 4.21324 0 -3.53533
      vertex 5.16831 -0.999999 -1.88111
      vertex 5.16831 0 -1.88111
    endloop
  endfacet
  facet normal -0.866025 0 0.5
    outer loop
      vertex 5.16831 -0.999999 -1.88111
      vertex 4.21324 0 -3.53533
      vertex 4.21324 -1 -3.53533
    endloop
  endfacet
  facet normal -0 0 1
    outer loop
      vertex -0.955065 0 -5.41644
      vertex 0.955065 -1 -5.41644
      vertex 0.955065 0 -5.41644
    endloop
  endfacet
  facet normal 0 0 1
    outer loop
      vertex 0.955065 -1 -5.41644
      vertex -0.955065 0 -5.41644
      vertex -0.955065 -1 -5.41644
    endloop
  endfacet
  facet normal -0.984808 0 0.173648
    outer loop
      vertex 5.16831 0 -1.88111
      vertex 5.5 -0.999999 0
      vertex 5.5 0 0
    endloop
  endfacet
  facet normal -0.984808 0 0.173648
    outer loop
      vertex 5.5 -0.999999 0
      vertex 5.16831 0 -1.88111
      vertex 5.16831 -0.999999 -1.88111
    endloop
  endfacet
  facet normal 0.642788 0 0.766044
    outer loop
      vertex -4.21324 0 -3.53533
      vertex -2.75 -1 -4.76314
      vertex -2.75 0 -4.76314
    endloop
  endfacet
  facet normal 0.642788 0 0.766044
    outer loop
      vertex -2.75 -1 -4.76314
      vertex -4.21324 0 -3.53533
      vertex -4.21324 -1 -3.53533
    endloop
  endfacet
  facet normal 0.866025 0 0.5
    outer loop
      vertex -4.88786 -0.999999 -2.36687
      vertex -5.16831 0 -1.88111
      vertex -5.16831 -0.999999 -1.88111
    endloop
  endfacet
  facet normal 0.866025 -2.29468e-008 0.5
    outer loop
      vertex -5.16831 0 -1.88111
      vertex -4.88786 -0.999999 -2.36687
      vertex -4.21324 0 -3.53533
    endloop
  endfacet
  facet normal 0.866025 0 0.5
    outer loop
      vertex -4.21324 0 -3.53533
      vertex -4.88786 -0.999999 -2.36687
      vertex -4.21324 -1 -3.53533
    endloop
  endfacet
  facet normal -0.642787 0 0.766045
    outer loop
      vertex 2.75 0 -4.76314
      vertex 4.21324 -1 -3.53533
      vertex 4.21324 0 -3.53533
    endloop
  endfacet
  facet normal -0.642787 0 0.766045
    outer loop
      vertex 4.21324 -1 -3.53533
      vertex 2.75 0 -4.76314
      vertex 2.75 -1 -4.76314
    endloop
  endfacet
  facet normal 0.34202 0 0.939693
    outer loop
      vertex -0.955065 0 -5.41644
      vertex -2.09544 -1 -5.00138
      vertex -0.955065 -1 -5.41644
    endloop
  endfacet
  facet normal 0.34202 6.89424e-008 0.939693
    outer loop
      vertex -2.75 0 -4.76314
      vertex -2.09544 -1 -5.00138
      vertex -0.955065 0 -5.41644
    endloop
  endfacet
  facet normal 0.34202 0 0.939693
    outer loop
      vertex -2.09544 -1 -5.00138
      vertex -2.75 0 -4.76314
      vertex -2.75 -1 -4.76314
    endloop
  endfacet
  facet normal 1 0 0
    outer loop
      vertex -5.5 0 9.5
      vertex -5.5 -0.999999 6.43062
      vertex -5.5 0 0
    endloop
  endfacet
  facet normal 1 -0 0
    outer loop
      vertex -5.5 -1 9.5
      vertex -5.5 -0.999999 6.43062
      vertex -5.5 0 9.5
    endloop
  endfacet
  facet normal 1 0 0
    outer loop
      vertex -5.5 -0.999999 6.43062
      vertex -5.5 -1 9.5
      vertex -5.5 -1 6.43062
    endloop
  endfacet
  facet normal 1 -0 0
    outer loop
      vertex -5.5 -0.999999 1.15817
      vertex -5.5 0 0
      vertex -5.5 -0.999999 6.43062
    endloop
  endfacet
  facet normal 1 0 0
    outer loop
      vertex -5.5 0 0
      vertex -5.5 -0.999999 1.15817
      vertex -5.5 -0.999999 0
    endloop
  endfacet
  facet normal -1 0 0
    outer loop
      vertex 5.5 -0.999999 6.41788
      vertex 5.5 0 0
      vertex 5.5 -0.999999 1.79885
    endloop
  endfacet
  facet normal -1 0 -0
    outer loop
      vertex 5.5 -0.999999 1.79885
      vertex 5.5 0 0
      vertex 5.5 -0.999999 0
    endloop
  endfacet
  facet normal -1 0 0
    outer loop
      vertex 5.5 0 0
      vertex 5.5 -0.999999 6.41788
      vertex 5.5 0 9.5
    endloop
  endfacet
  facet normal -1 0 0
    outer loop
      vertex 5.5 -1 9.5
      vertex 5.5 -0.999999 6.41788
      vertex 5.5 -1 6.41788
    endloop
  endfacet
  facet normal -1 0 0
    outer loop
      vertex 5.5 -0.999999 6.41788
      vertex 5.5 -1 9.5
      vertex 5.5 0 9.5
    endloop
  endfacet
endsolid OpenSCAD_Model
