solid OpenSCAD_Model
  facet normal -1 0 0
    outer loop
      vertex -6.55 0 -6.55
      vertex -6.55 -11.28 0
      vertex -6.55 0 6.55
    endloop
  endfacet
  facet normal -1 0 0
    outer loop
      vertex -6.55 0 -6.55
      vertex -6.55 -12.3303 -1.44561
      vertex -6.55 -11.28 0
    endloop
  endfacet
  facet normal -1 0 0
    outer loop
      vertex -6.55 -15.8 -6.55
      vertex -6.55 -12.3303 -1.44561
      vertex -6.55 0 -6.55
    endloop
  endfacet
  facet normal -1 -0 0
    outer loop
      vertex -6.55 -14.0297 -0.893434
      vertex -6.55 -15.8 -6.55
      vertex -6.55 -14.0297 0.893434
    endloop
  endfacet
  facet normal -1 -0 0
    outer loop
      vertex -6.55 -12.3303 -1.44561
      vertex -6.55 -15.8 -6.55
      vertex -6.55 -14.0297 -0.893434
    endloop
  endfacet
  facet normal -1 0 0
    outer loop
      vertex -6.55 -12.3303 1.44561
      vertex -6.55 0 6.55
      vertex -6.55 -11.28 0
    endloop
  endfacet
  facet normal -1 0 0
    outer loop
      vertex -6.55 -15.8 6.55
      vertex -6.55 -12.3303 1.44561
      vertex -6.55 -14.0297 0.893434
    endloop
  endfacet
  facet normal -1 0 0
    outer loop
      vertex -6.55 -12.3303 1.44561
      vertex -6.55 -15.8 6.55
      vertex -6.55 0 6.55
    endloop
  endfacet
  facet normal -1 0 0
    outer loop
      vertex -6.55 -15.8 6.55
      vertex -6.55 -14.0297 0.893434
      vertex -6.55 -15.8 -6.55
    endloop
  endfacet
  facet normal 0 0 1
    outer loop
      vertex -2 0 6.55
      vertex -5.05 -0.999999 6.55
      vertex -2 -0.999999 6.55
    endloop
  endfacet
  facet normal 0 0 1
    outer loop
      vertex -5.05 -0.999999 6.55
      vertex -6.55 0 6.55
      vertex -5.05 -2.8 6.55
    endloop
  endfacet
  facet normal -0 0 1
    outer loop
      vertex -6.55 0 6.55
      vertex -5.05 -0.999999 6.55
      vertex -2 0 6.55
    endloop
  endfacet
  facet normal 0 0 1
    outer loop
      vertex 5.05 -2.8 6.55
      vertex -3 -5.8 6.55
      vertex 3 -5.8 6.55
    endloop
  endfacet
  facet normal -0 0 1
    outer loop
      vertex -5.05 -2.8 6.55
      vertex -3 -5.8 6.55
      vertex 5.05 -2.8 6.55
    endloop
  endfacet
  facet normal 0 0 1
    outer loop
      vertex -6.55 -15.8 6.55
      vertex -3 -5.8 6.55
      vertex -5.05 -2.8 6.55
    endloop
  endfacet
  facet normal 0 0 1
    outer loop
      vertex -6.55 -15.8 6.55
      vertex -5.05 -2.8 6.55
      vertex -6.55 0 6.55
    endloop
  endfacet
  facet normal 0 0 1
    outer loop
      vertex -3 -5.8 6.55
      vertex -6.55 -15.8 6.55
      vertex -3 -15.8 6.55
    endloop
  endfacet
  facet normal 0 0 1
    outer loop
      vertex 5.05 -2.8 6.55
      vertex 6.55 0 6.55
      vertex 5.05 -0.999999 6.55
    endloop
  endfacet
  facet normal -0 0 1
    outer loop
      vertex 2 0 6.55
      vertex 5.05 -0.999999 6.55
      vertex 6.55 0 6.55
    endloop
  endfacet
  facet normal 0 0 1
    outer loop
      vertex 5.05 -0.999999 6.55
      vertex 2 0 6.55
      vertex 2 -0.999999 6.55
    endloop
  endfacet
  facet normal 0 0 1
    outer loop
      vertex 6.55 0 6.55
      vertex 5.05 -2.8 6.55
      vertex 6.55 -15.8 6.55
    endloop
  endfacet
  facet normal -0 0 1
    outer loop
      vertex 3 -5.8 6.55
      vertex 6.55 -15.8 6.55
      vertex 5.05 -2.8 6.55
    endloop
  endfacet
  facet normal 0 0 1
    outer loop
      vertex 6.55 -15.8 6.55
      vertex 3 -5.8 6.55
      vertex 3 -15.8 6.55
    endloop
  endfacet
  facet normal 1 0 0
    outer loop
      vertex 6.55 0 6.55
      vertex 6.55 -11.28 0
      vertex 6.55 0 -6.55
    endloop
  endfacet
  facet normal 1 0 0
    outer loop
      vertex 6.55 0 6.55
      vertex 6.55 -12.3303 1.44561
      vertex 6.55 -11.28 0
    endloop
  endfacet
  facet normal 1 -0 0
    outer loop
      vertex 6.55 -15.8 6.55
      vertex 6.55 -12.3303 1.44561
      vertex 6.55 0 6.55
    endloop
  endfacet
  facet normal 1 0 0
    outer loop
      vertex 6.55 -14.0297 0.893434
      vertex 6.55 -15.8 6.55
      vertex 6.55 -14.0297 -0.893434
    endloop
  endfacet
  facet normal 1 0 0
    outer loop
      vertex 6.55 -12.3303 1.44561
      vertex 6.55 -15.8 6.55
      vertex 6.55 -14.0297 0.893434
    endloop
  endfacet
  facet normal 1 -0 0
    outer loop
      vertex 6.55 -12.3303 -1.44561
      vertex 6.55 0 -6.55
      vertex 6.55 -11.28 0
    endloop
  endfacet
  facet normal 1 0 0
    outer loop
      vertex 6.55 -15.8 -6.55
      vertex 6.55 -12.3303 -1.44561
      vertex 6.55 -14.0297 -0.893434
    endloop
  endfacet
  facet normal 1 0 0
    outer loop
      vertex 6.55 -12.3303 -1.44561
      vertex 6.55 -15.8 -6.55
      vertex 6.55 0 -6.55
    endloop
  endfacet
  facet normal 1 0 0
    outer loop
      vertex 6.55 -15.8 -6.55
      vertex 6.55 -14.0297 -0.893434
      vertex 6.55 -15.8 6.55
    endloop
  endfacet
  facet normal 0 0 -1
    outer loop
      vertex -3 -15.8 -6.55
      vertex -6.55 -15.8 -6.55
      vertex -3 -5.8 -6.55
    endloop
  endfacet
  facet normal 0 0 -1
    outer loop
      vertex 3 -5.8 -6.55
      vertex 6.55 -15.8 -6.55
      vertex 3 -15.8 -6.55
    endloop
  endfacet
  facet normal 0 0 -1
    outer loop
      vertex 6.55 -15.8 -6.55
      vertex 3 -5.8 -6.55
      vertex 6.55 0 -6.55
    endloop
  endfacet
  facet normal 0 0 -1
    outer loop
      vertex -3 -5.8 -6.55
      vertex 6.55 0 -6.55
      vertex 3 -5.8 -6.55
    endloop
  endfacet
  facet normal 0 0 -1
    outer loop
      vertex -3 -5.8 -6.55
      vertex -6.55 0 -6.55
      vertex 6.55 0 -6.55
    endloop
  endfacet
  facet normal 0 0 -1
    outer loop
      vertex -6.55 0 -6.55
      vertex -3 -5.8 -6.55
      vertex -6.55 -15.8 -6.55
    endloop
  endfacet
  facet normal 0 -1 0
    outer loop
      vertex -6.55 -15.8 -6.55
      vertex -3 -15.8 6.55
      vertex -6.55 -15.8 6.55
    endloop
  endfacet
  facet normal 0 -1 -0
    outer loop
      vertex -3 -15.8 6.55
      vertex -6.55 -15.8 -6.55
      vertex -3 -15.8 -6.55
    endloop
  endfacet
  facet normal 0 -1 0
    outer loop
      vertex 3 -15.8 -6.55
      vertex 6.55 -15.8 6.55
      vertex 3 -15.8 6.55
    endloop
  endfacet
  facet normal 0 -1 -0
    outer loop
      vertex 6.55 -15.8 6.55
      vertex 3 -15.8 -6.55
      vertex 6.55 -15.8 -6.55
    endloop
  endfacet
  facet normal 0 1 0
    outer loop
      vertex 6.55 0 6.55
      vertex 2 0 0
      vertex 2 0 6.55
    endloop
  endfacet
  facet normal 0 1 -0
    outer loop
      vertex 6.55 0 -6.55
      vertex 2 0 0
      vertex 6.55 0 6.55
    endloop
  endfacet
  facet normal 0 1 0
    outer loop
      vertex 1.24698 0 -1.56366
      vertex 6.55 0 -6.55
      vertex -0.445042 0 -1.94986
    endloop
  endfacet
  facet normal 0 1 0
    outer loop
      vertex 2 0 0
      vertex 6.55 0 -6.55
      vertex 1.24698 0 -1.56366
    endloop
  endfacet
  facet normal 0 1 0
    outer loop
      vertex -1.80194 0 0
      vertex -1.80194 0 -0.867767
      vertex -2 0 0
    endloop
  endfacet
  facet normal 0 1 -0
    outer loop
      vertex -2 0 0
      vertex -6.55 0 6.55
      vertex -2 0 6.55
    endloop
  endfacet
  facet normal 0 1 0
    outer loop
      vertex -6.55 0 -6.55
      vertex -2 0 0
      vertex -1.80194 0 -0.867767
    endloop
  endfacet
  facet normal 0 1 0
    outer loop
      vertex -2 0 0
      vertex -6.55 0 -6.55
      vertex -6.55 0 6.55
    endloop
  endfacet
  facet normal 0 1 0
    outer loop
      vertex -0.445042 0 -1.94986
      vertex -6.55 0 -6.55
      vertex -1.80194 0 -0.867767
    endloop
  endfacet
  facet normal 0 1 0
    outer loop
      vertex -6.55 0 -6.55
      vertex -0.445042 0 -1.94986
      vertex 6.55 0 -6.55
    endloop
  endfacet
  facet normal 1 0 0
    outer loop
      vertex -3 -5.8 6.55
      vertex -3 -11.28 0
      vertex -3 -5.8 -6.55
    endloop
  endfacet
  facet normal 1 0 0
    outer loop
      vertex -3 -5.8 6.55
      vertex -3 -12.3303 1.44561
      vertex -3 -11.28 0
    endloop
  endfacet
  facet normal 1 -0 0
    outer loop
      vertex -3 -15.8 6.55
      vertex -3 -12.3303 1.44561
      vertex -3 -5.8 6.55
    endloop
  endfacet
  facet normal 1 0 0
    outer loop
      vertex -3 -14.0297 0.893434
      vertex -3 -15.8 6.55
      vertex -3 -14.0297 -0.893434
    endloop
  endfacet
  facet normal 1 0 0
    outer loop
      vertex -3 -12.3303 1.44561
      vertex -3 -15.8 6.55
      vertex -3 -14.0297 0.893434
    endloop
  endfacet
  facet normal 1 -0 0
    outer loop
      vertex -3 -12.3303 -1.44561
      vertex -3 -5.8 -6.55
      vertex -3 -11.28 0
    endloop
  endfacet
  facet normal 1 0 0
    outer loop
      vertex -3 -15.8 -6.55
      vertex -3 -12.3303 -1.44561
      vertex -3 -14.0297 -0.893434
    endloop
  endfacet
  facet normal 1 0 0
    outer loop
      vertex -3 -12.3303 -1.44561
      vertex -3 -15.8 -6.55
      vertex -3 -5.8 -6.55
    endloop
  endfacet
  facet normal 1 0 0
    outer loop
      vertex -3 -15.8 -6.55
      vertex -3 -14.0297 -0.893434
      vertex -3 -15.8 6.55
    endloop
  endfacet
  facet normal -1 0 0
    outer loop
      vertex 3 -5.8 -6.55
      vertex 3 -11.28 0
      vertex 3 -5.8 6.55
    endloop
  endfacet
  facet normal -1 0 0
    outer loop
      vertex 3 -5.8 -6.55
      vertex 3 -12.3303 -1.44561
      vertex 3 -11.28 0
    endloop
  endfacet
  facet normal -1 0 0
    outer loop
      vertex 3 -15.8 -6.55
      vertex 3 -12.3303 -1.44561
      vertex 3 -5.8 -6.55
    endloop
  endfacet
  facet normal -1 -0 0
    outer loop
      vertex 3 -14.0297 -0.893434
      vertex 3 -15.8 -6.55
      vertex 3 -14.0297 0.893434
    endloop
  endfacet
  facet normal -1 -0 0
    outer loop
      vertex 3 -12.3303 -1.44561
      vertex 3 -15.8 -6.55
      vertex 3 -14.0297 -0.893434
    endloop
  endfacet
  facet normal -1 0 0
    outer loop
      vertex 3 -12.3303 1.44561
      vertex 3 -5.8 6.55
      vertex 3 -11.28 0
    endloop
  endfacet
  facet normal -1 0 0
    outer loop
      vertex 3 -15.8 6.55
      vertex 3 -12.3303 1.44561
      vertex 3 -14.0297 0.893434
    endloop
  endfacet
  facet normal -1 0 0
    outer loop
      vertex 3 -12.3303 1.44561
      vertex 3 -15.8 6.55
      vertex 3 -5.8 6.55
    endloop
  endfacet
  facet normal -1 0 0
    outer loop
      vertex 3 -15.8 6.55
      vertex 3 -14.0297 0.893434
      vertex 3 -15.8 -6.55
    endloop
  endfacet
  facet normal 0 -1 0
    outer loop
      vertex -3 -5.8 -6.55
      vertex 3 -5.8 6.55
      vertex -3 -5.8 6.55
    endloop
  endfacet
  facet normal 0 -1 -0
    outer loop
      vertex 3 -5.8 6.55
      vertex -3 -5.8 -6.55
      vertex 3 -5.8 -6.55
    endloop
  endfacet
  facet normal 0 -0.809017 -0.587785
    outer loop
      vertex -6.55 -11.28 0
      vertex -3 -12.3303 1.44561
      vertex -6.55 -12.3303 1.44561
    endloop
  endfacet
  facet normal 0 -0.809017 -0.587785
    outer loop
      vertex -3 -12.3303 1.44561
      vertex -6.55 -11.28 0
      vertex -3 -11.28 0
    endloop
  endfacet
  facet normal 0 -0.809017 -0.587785
    outer loop
      vertex 3 -11.28 0
      vertex 6.55 -12.3303 1.44561
      vertex 3 -12.3303 1.44561
    endloop
  endfacet
  facet normal 0 -0.809017 -0.587785
    outer loop
      vertex 6.55 -12.3303 1.44561
      vertex 3 -11.28 0
      vertex 6.55 -11.28 0
    endloop
  endfacet
  facet normal 0 1 -0
    outer loop
      vertex -3 -14.0297 -0.893434
      vertex -6.55 -14.0297 0.893434
      vertex -3 -14.0297 0.893434
    endloop
  endfacet
  facet normal 0 1 0
    outer loop
      vertex -6.55 -14.0297 0.893434
      vertex -3 -14.0297 -0.893434
      vertex -6.55 -14.0297 -0.893434
    endloop
  endfacet
  facet normal 0 1 -0
    outer loop
      vertex 6.55 -14.0297 -0.893434
      vertex 3 -14.0297 0.893434
      vertex 6.55 -14.0297 0.893434
    endloop
  endfacet
  facet normal 0 1 0
    outer loop
      vertex 3 -14.0297 0.893434
      vertex 6.55 -14.0297 -0.893434
      vertex 3 -14.0297 -0.893434
    endloop
  endfacet
  facet normal 0 0.309017 -0.951057
    outer loop
      vertex -6.55 -14.0297 0.893434
      vertex -3 -12.3303 1.44561
      vertex -3 -14.0297 0.893434
    endloop
  endfacet
  facet normal 0 0.309017 -0.951057
    outer loop
      vertex -3 -12.3303 1.44561
      vertex -6.55 -14.0297 0.893434
      vertex -6.55 -12.3303 1.44561
    endloop
  endfacet
  facet normal 0 0.309017 -0.951057
    outer loop
      vertex 3 -14.0297 0.893434
      vertex 6.55 -12.3303 1.44561
      vertex 6.55 -14.0297 0.893434
    endloop
  endfacet
  facet normal 0 0.309017 -0.951057
    outer loop
      vertex 6.55 -12.3303 1.44561
      vertex 3 -14.0297 0.893434
      vertex 3 -12.3303 1.44561
    endloop
  endfacet
  facet normal -0 0.309017 0.951057
    outer loop
      vertex -6.55 -12.3303 -1.44561
      vertex -3 -14.0297 -0.893434
      vertex -3 -12.3303 -1.44561
    endloop
  endfacet
  facet normal 0 0.309017 0.951057
    outer loop
      vertex -3 -14.0297 -0.893434
      vertex -6.55 -12.3303 -1.44561
      vertex -6.55 -14.0297 -0.893434
    endloop
  endfacet
  facet normal -0 0.309017 0.951057
    outer loop
      vertex 3 -12.3303 -1.44561
      vertex 6.55 -14.0297 -0.893434
      vertex 6.55 -12.3303 -1.44561
    endloop
  endfacet
  facet normal 0 0.309017 0.951057
    outer loop
      vertex 6.55 -14.0297 -0.893434
      vertex 3 -12.3303 -1.44561
      vertex 3 -14.0297 -0.893434
    endloop
  endfacet
  facet normal 0 -0.809017 0.587785
    outer loop
      vertex -6.55 -12.3303 -1.44561
      vertex -3 -11.28 0
      vertex -6.55 -11.28 0
    endloop
  endfacet
  facet normal 0 -0.809017 0.587785
    outer loop
      vertex -3 -11.28 0
      vertex -6.55 -12.3303 -1.44561
      vertex -3 -12.3303 -1.44561
    endloop
  endfacet
  facet normal 0 -0.809017 0.587785
    outer loop
      vertex 3 -12.3303 -1.44561
      vertex 6.55 -11.28 0
      vertex 3 -11.28 0
    endloop
  endfacet
  facet normal 0 -0.809017 0.587785
    outer loop
      vertex 6.55 -11.28 0
      vertex 3 -12.3303 -1.44561
      vertex 6.55 -12.3303 -1.44561
    endloop
  endfacet
  facet normal 0.980785 -0 0.19509
    outer loop
      vertex -5.05 -2.8 0
      vertex -4.66559 -1 -1.93255
      vertex -5.05 -1 0
    endloop
  endfacet
  facet normal 0.980785 0 0.19509
    outer loop
      vertex -4.66559 -1 -1.93255
      vertex -5.05 -2.8 0
      vertex -4.66559 -2.8 -1.93255
    endloop
  endfacet
  facet normal -0.980785 0 0.19509
    outer loop
      vertex 4.66559 -2.8 -1.93255
      vertex 5.05 -1 0
      vertex 4.66559 -1 -1.93255
    endloop
  endfacet
  facet normal -0.980785 0 0.19509
    outer loop
      vertex 5.05 -1 0
      vertex 4.66559 -2.8 -1.93255
      vertex 5.05 -2.8 0
    endloop
  endfacet
  facet normal -3.10111e-007 -1 2.4674e-007
    outer loop
      vertex 4.28118 -0.999999 0
      vertex 4.66559 -1 -1.93255
      vertex 4.66559 -1 0
    endloop
  endfacet
  facet normal -3.557e-007 -1 2.37672e-007
    outer loop
      vertex 4.66559 -1 -1.93255
      vertex 4.28118 -0.999999 0
      vertex 3.57089 -1 -3.57089
    endloop
  endfacet
  facet normal 0.83147 -0 0.55557
    outer loop
      vertex -4.66559 -2.8 -1.93255
      vertex -3.57089 -1 -3.57089
      vertex -4.66559 -1 -1.93255
    endloop
  endfacet
  facet normal 0.83147 0 0.55557
    outer loop
      vertex -3.57089 -1 -3.57089
      vertex -4.66559 -2.8 -1.93255
      vertex -3.57089 -2.8 -3.57089
    endloop
  endfacet
  facet normal 1.24045e-006 -1 2.4674e-007
    outer loop
      vertex -4.66559 -1 -1.93255
      vertex -4.66559 -1 0
      vertex -5.05 -1 0
    endloop
  endfacet
  facet normal -1.24045e-006 -1 2.4674e-007
    outer loop
      vertex 5.05 -1 0
      vertex 4.66559 -1 0
      vertex 4.66559 -1 -1.93255
    endloop
  endfacet
  facet normal 0.19509 0 0.980785
    outer loop
      vertex -1.93255 -1 -4.66559
      vertex 0 -2.8 -5.05
      vertex 0 -1 -5.05
    endloop
  endfacet
  facet normal 0.19509 0 0.980785
    outer loop
      vertex 0 -2.8 -5.05
      vertex -1.93255 -1 -4.66559
      vertex -1.93255 -2.8 -4.66559
    endloop
  endfacet
  facet normal -1.43253e-007 -1 1.95413e-007
    outer loop
      vertex 3.8651 -0.999999 0
      vertex 3.57089 -1 -3.57089
      vertex 4.28118 -0.999999 0
    endloop
  endfacet
  facet normal -1.29832e-007 -1 1.94307e-007
    outer loop
      vertex 3.57089 -1 -3.57089
      vertex 3.8651 -0.999999 0
      vertex 1.93255 -1 -4.66559
    endloop
  endfacet
  facet normal -0.83147 0 0.55557
    outer loop
      vertex 3.57089 -2.8 -3.57089
      vertex 4.66559 -1 -1.93255
      vertex 3.57089 -1 -3.57089
    endloop
  endfacet
  facet normal -0.83147 0 0.55557
    outer loop
      vertex 4.66559 -1 -1.93255
      vertex 3.57089 -2.8 -3.57089
      vertex 4.66559 -2.8 -1.93255
    endloop
  endfacet
  facet normal 1.21444e-007 -1 1.90833e-007
    outer loop
      vertex -1.93255 -1 -4.66559
      vertex -3.3743 -0.999999 0
      vertex -3.8651 -0.999999 0
    endloop
  endfacet
  facet normal 3.24913e-008 -1 1.63345e-007
    outer loop
      vertex -3.3743 -0.999999 0
      vertex -1.93255 -1 -4.66559
      vertex 0 -1 -5.05
    endloop
  endfacet
  facet normal 0 -1 1.37375e-007
    outer loop
      vertex -3.3743 -0.999999 0
      vertex -1.80194 -0.999999 -0.867767
      vertex -1.80194 -0.999999 0
    endloop
  endfacet
  facet normal 3.72456e-009 -1 1.44123e-007
    outer loop
      vertex 0 -1 -5.05
      vertex -1.80194 -0.999999 -0.867767
      vertex -3.3743 -0.999999 0
    endloop
  endfacet
  facet normal -2.76152e-008 -1 1.30621e-007
    outer loop
      vertex -1.80194 -0.999999 -0.867767
      vertex 0 -1 -5.05
      vertex -0.445042 -1 -1.94986
    endloop
  endfacet
  facet normal 0 -1 1.52474e-007
    outer loop
      vertex 1.24698 -1 -1.56366
      vertex 3.3743 -0.999999 0
      vertex 2 -0.999999 0
    endloop
  endfacet
  facet normal 1.56575e-008 -1 1.31173e-007
    outer loop
      vertex 1.24698 -1 -1.56366
      vertex 0 -1 -5.05
      vertex 3.3743 -0.999999 0
    endloop
  endfacet
  facet normal 4.36568e-009 -1 1.35212e-007
    outer loop
      vertex 0 -1 -5.05
      vertex 1.24698 -1 -1.56366
      vertex -0.445042 -1 -1.94986
    endloop
  endfacet
  facet normal 0 -1 0
    outer loop
      vertex 2 -0.999999 0
      vertex 5.05 -0.999999 6.55
      vertex 2 -0.999999 6.55
    endloop
  endfacet
  facet normal 0 -1 -0
    outer loop
      vertex 5.05 -0.999999 6.55
      vertex 2 -0.999999 0
      vertex 5.05 -0.999999 0
    endloop
  endfacet
  facet normal 0 -1 0
    outer loop
      vertex -5.05 -0.999999 0
      vertex -2 -0.999999 6.55
      vertex -5.05 -0.999999 6.55
    endloop
  endfacet
  facet normal 0 -1 -0
    outer loop
      vertex -2 -0.999999 6.55
      vertex -5.05 -0.999999 0
      vertex -2 -0.999999 0
    endloop
  endfacet
  facet normal -1.21444e-007 -1 1.90833e-007
    outer loop
      vertex 3.3743 -0.999999 0
      vertex 1.93255 -1 -4.66559
      vertex 3.8651 -0.999999 0
    endloop
  endfacet
  facet normal -3.24913e-008 -1 1.63345e-007
    outer loop
      vertex 1.93255 -1 -4.66559
      vertex 3.3743 -0.999999 0
      vertex 0 -1 -5.05
    endloop
  endfacet
  facet normal 0 1 -0
    outer loop
      vertex 5.05 -2.8 0
      vertex -5.05 -2.8 6.55
      vertex 5.05 -2.8 6.55
    endloop
  endfacet
  facet normal 0 1 0
    outer loop
      vertex 5.05 -2.8 0
      vertex -5.05 -2.8 0
      vertex -5.05 -2.8 6.55
    endloop
  endfacet
  facet normal 0 1 -0
    outer loop
      vertex 4.66559 -2.8 -1.93255
      vertex -5.05 -2.8 0
      vertex 5.05 -2.8 0
    endloop
  endfacet
  facet normal 0 1 0
    outer loop
      vertex 4.66559 -2.8 -1.93255
      vertex -4.66559 -2.8 -1.93255
      vertex -5.05 -2.8 0
    endloop
  endfacet
  facet normal 0 1 -0
    outer loop
      vertex 3.57089 -2.8 -3.57089
      vertex -4.66559 -2.8 -1.93255
      vertex 4.66559 -2.8 -1.93255
    endloop
  endfacet
  facet normal 0 1 0
    outer loop
      vertex 3.57089 -2.8 -3.57089
      vertex -3.57089 -2.8 -3.57089
      vertex -4.66559 -2.8 -1.93255
    endloop
  endfacet
  facet normal 0 1 -0
    outer loop
      vertex 1.93255 -2.8 -4.66559
      vertex -3.57089 -2.8 -3.57089
      vertex 3.57089 -2.8 -3.57089
    endloop
  endfacet
  facet normal 0 1 0
    outer loop
      vertex 1.93255 -2.8 -4.66559
      vertex -1.93255 -2.8 -4.66559
      vertex -3.57089 -2.8 -3.57089
    endloop
  endfacet
  facet normal -0 1 0
    outer loop
      vertex -1.93255 -2.8 -4.66559
      vertex 1.93255 -2.8 -4.66559
      vertex 0 -2.8 -5.05
    endloop
  endfacet
  facet normal 0.55557 0 0.83147
    outer loop
      vertex -3.57089 -1 -3.57089
      vertex -1.93255 -2.8 -4.66559
      vertex -1.93255 -1 -4.66559
    endloop
  endfacet
  facet normal 0.55557 0 0.83147
    outer loop
      vertex -1.93255 -2.8 -4.66559
      vertex -3.57089 -1 -3.57089
      vertex -3.57089 -2.8 -3.57089
    endloop
  endfacet
  facet normal -0.19509 0 0.980785
    outer loop
      vertex 0 -1 -5.05
      vertex 1.93255 -2.8 -4.66559
      vertex 1.93255 -1 -4.66559
    endloop
  endfacet
  facet normal -0.19509 0 0.980785
    outer loop
      vertex 1.93255 -2.8 -4.66559
      vertex 0 -1 -5.05
      vertex 0 -2.8 -5.05
    endloop
  endfacet
  facet normal -0.55557 0 0.83147
    outer loop
      vertex 1.93255 -1 -4.66559
      vertex 3.57089 -2.8 -3.57089
      vertex 3.57089 -1 -3.57089
    endloop
  endfacet
  facet normal -0.55557 0 0.83147
    outer loop
      vertex 3.57089 -2.8 -3.57089
      vertex 1.93255 -1 -4.66559
      vertex 1.93255 -2.8 -4.66559
    endloop
  endfacet
  facet normal 3.10111e-007 -1 2.4674e-007
    outer loop
      vertex -4.66559 -1 -1.93255
      vertex -4.28118 -0.999999 0
      vertex -4.66559 -1 0
    endloop
  endfacet
  facet normal 3.557e-007 -1 2.37672e-007
    outer loop
      vertex -4.28118 -0.999999 0
      vertex -4.66559 -1 -1.93255
      vertex -3.57089 -1 -3.57089
    endloop
  endfacet
  facet normal 1.43253e-007 -1 1.95413e-007
    outer loop
      vertex -3.57089 -1 -3.57089
      vertex -3.8651 -0.999999 0
      vertex -4.28118 -0.999999 0
    endloop
  endfacet
  facet normal 1.29832e-007 -1 1.94307e-007
    outer loop
      vertex -3.8651 -0.999999 0
      vertex -3.57089 -1 -3.57089
      vertex -1.93255 -1 -4.66559
    endloop
  endfacet
  facet normal 1 0 0
    outer loop
      vertex -5.05 -0.999999 6.55
      vertex -5.05 -1 0
      vertex -5.05 -0.999999 0
    endloop
  endfacet
  facet normal 1 -0 0
    outer loop
      vertex -5.05 -2.8 6.55
      vertex -5.05 -1 0
      vertex -5.05 -0.999999 6.55
    endloop
  endfacet
  facet normal 1 0 0
    outer loop
      vertex -5.05 -1 0
      vertex -5.05 -2.8 6.55
      vertex -5.05 -2.8 0
    endloop
  endfacet
  facet normal -1 0 0
    outer loop
      vertex 5.05 -1 0
      vertex 5.05 -0.999999 6.55
      vertex 5.05 -0.999999 0
    endloop
  endfacet
  facet normal -1 0 0
    outer loop
      vertex 5.05 -2.8 0
      vertex 5.05 -0.999999 6.55
      vertex 5.05 -1 0
    endloop
  endfacet
  facet normal -1 -0 0
    outer loop
      vertex 5.05 -0.999999 6.55
      vertex 5.05 -2.8 0
      vertex 5.05 -2.8 6.55
    endloop
  endfacet
  facet normal 0 0 1
    outer loop
      vertex 5.05 -0.999999 0
      vertex 4.66559 -1 0
      vertex 5.05 -1 0
    endloop
  endfacet
  facet normal 0 0 1
    outer loop
      vertex 5.05 -0.999999 0
      vertex 4.28118 -0.999999 0
      vertex 4.66559 -1 0
    endloop
  endfacet
  facet normal 0 0 1
    outer loop
      vertex 5.05 -0.999999 0
      vertex 3.8651 -0.999999 0
      vertex 4.28118 -0.999999 0
    endloop
  endfacet
  facet normal 0 0 1
    outer loop
      vertex 5.05 -0.999999 0
      vertex 3.3743 -0.999999 0
      vertex 3.8651 -0.999999 0
    endloop
  endfacet
  facet normal -0 0 1
    outer loop
      vertex 2 -0.999999 0
      vertex 3.3743 -0.999999 0
      vertex 5.05 -0.999999 0
    endloop
  endfacet
  facet normal -0 0 1
    outer loop
      vertex -2 0 0
      vertex -1.80194 -0.999999 0
      vertex -1.80194 0 0
    endloop
  endfacet
  facet normal -0 0 1
    outer loop
      vertex -2 -0.999999 0
      vertex -1.80194 -0.999999 0
      vertex -2 0 0
    endloop
  endfacet
  facet normal 0 0 1
    outer loop
      vertex -2 -0.999999 0
      vertex -3.3743 -0.999999 0
      vertex -1.80194 -0.999999 0
    endloop
  endfacet
  facet normal 0 0 1
    outer loop
      vertex -2 -0.999999 0
      vertex -3.8651 -0.999999 0
      vertex -3.3743 -0.999999 0
    endloop
  endfacet
  facet normal 0 0 1
    outer loop
      vertex -2 -0.999999 0
      vertex -4.28118 -0.999999 0
      vertex -3.8651 -0.999999 0
    endloop
  endfacet
  facet normal -0 0 1
    outer loop
      vertex -5.05 -0.999999 0
      vertex -4.28118 -0.999999 0
      vertex -2 -0.999999 0
    endloop
  endfacet
  facet normal 0 0 1
    outer loop
      vertex -5.05 -0.999999 0
      vertex -4.66559 -1 0
      vertex -4.28118 -0.999999 0
    endloop
  endfacet
  facet normal 0 0 1
    outer loop
      vertex -4.66559 -1 0
      vertex -5.05 -0.999999 0
      vertex -5.05 -1 0
    endloop
  endfacet
  facet normal 0.62349 0 0.781831
    outer loop
      vertex -1.80194 0 -0.867767
      vertex -0.445042 -1 -1.94986
      vertex -0.445042 0 -1.94986
    endloop
  endfacet
  facet normal 0.62349 0 0.781831
    outer loop
      vertex -0.445042 -1 -1.94986
      vertex -1.80194 0 -0.867767
      vertex -1.80194 -0.999999 -0.867767
    endloop
  endfacet
  facet normal 1 -0 0
    outer loop
      vertex -1.80194 -0.999999 0
      vertex -1.80194 0 -0.867767
      vertex -1.80194 0 0
    endloop
  endfacet
  facet normal 1 0 0
    outer loop
      vertex -1.80194 0 -0.867767
      vertex -1.80194 -0.999999 0
      vertex -1.80194 -0.999999 -0.867767
    endloop
  endfacet
  facet normal -0.222521 0 0.974928
    outer loop
      vertex -0.445042 0 -1.94986
      vertex 1.24698 -1 -1.56366
      vertex 1.24698 0 -1.56366
    endloop
  endfacet
  facet normal -0.222521 0 0.974928
    outer loop
      vertex 1.24698 -1 -1.56366
      vertex -0.445042 0 -1.94986
      vertex -0.445042 -1 -1.94986
    endloop
  endfacet
  facet normal -0.900969 0 0.433884
    outer loop
      vertex 1.24698 0 -1.56366
      vertex 2 -0.999999 0
      vertex 2 0 0
    endloop
  endfacet
  facet normal -0.900969 0 0.433884
    outer loop
      vertex 1.24698 -1 -1.56366
      vertex 2 -0.999999 0
      vertex 1.24698 0 -1.56366
    endloop
  endfacet
  facet normal 1 -0 0
    outer loop
      vertex -2 -0.999999 6.55
      vertex -2 0 0
      vertex -2 0 6.55
    endloop
  endfacet
  facet normal 1 0 0
    outer loop
      vertex -2 0 0
      vertex -2 -0.999999 6.55
      vertex -2 -0.999999 0
    endloop
  endfacet
  facet normal -1 0 0
    outer loop
      vertex 2 -0.999999 0
      vertex 2 0 6.55
      vertex 2 0 0
    endloop
  endfacet
  facet normal -1 -0 0
    outer loop
      vertex 2 0 6.55
      vertex 2 -0.999999 0
      vertex 2 -0.999999 6.55
    endloop
  endfacet
endsolid OpenSCAD_Model
