solid OpenSCAD_Model
  facet normal -1 0 0
    outer loop
      vertex -10.075 0 -10.075
      vertex -10.075 -10.93 0
      vertex -10.075 0 10.075
    endloop
  endfacet
  facet normal -1 0 0
    outer loop
      vertex -10.075 0 -10.075
      vertex -10.075 -11.6529 -1.50112
      vertex -10.075 -10.93 0
    endloop
  endfacet
  facet normal -1 0 0
    outer loop
      vertex -10.075 -15.85 -10.075
      vertex -10.075 -11.6529 -1.50112
      vertex -10.075 0 -10.075
    endloop
  endfacet
  facet normal -1 -0 0
    outer loop
      vertex -10.075 -14.5799 -0.833056
      vertex -10.075 -15.85 -10.075
      vertex -10.075 -14.5799 0.833056
    endloop
  endfacet
  facet normal -1 -0 0
    outer loop
      vertex -10.075 -13.2772 -1.87186
      vertex -10.075 -15.85 -10.075
      vertex -10.075 -14.5799 -0.833056
    endloop
  endfacet
  facet normal -1 0 0
    outer loop
      vertex -10.075 -11.6529 -1.50112
      vertex -10.075 -15.85 -10.075
      vertex -10.075 -13.2772 -1.87186
    endloop
  endfacet
  facet normal -1 0 0
    outer loop
      vertex -10.075 -11.6529 1.50112
      vertex -10.075 0 10.075
      vertex -10.075 -10.93 0
    endloop
  endfacet
  facet normal -1 0 0
    outer loop
      vertex -10.075 -15.85 10.075
      vertex -10.075 -11.6529 1.50112
      vertex -10.075 -13.2772 1.87186
    endloop
  endfacet
  facet normal -1 0 0
    outer loop
      vertex -10.075 -11.6529 1.50112
      vertex -10.075 -15.85 10.075
      vertex -10.075 0 10.075
    endloop
  endfacet
  facet normal -1 0 0
    outer loop
      vertex -10.075 -14.5799 0.833056
      vertex -10.075 -15.85 10.075
      vertex -10.075 -13.2772 1.87186
    endloop
  endfacet
  facet normal -1 0 0
    outer loop
      vertex -10.075 -15.85 10.075
      vertex -10.075 -14.5799 0.833056
      vertex -10.075 -15.85 -10.075
    endloop
  endfacet
  facet normal 0 0 1
    outer loop
      vertex -5.5 0 10.075
      vertex -8.575 -1 10.075
      vertex -5.5 -1 10.075
    endloop
  endfacet
  facet normal 0 0 1
    outer loop
      vertex -8.575 -1 10.075
      vertex -10.075 0 10.075
      vertex -8.575 -2.85 10.075
    endloop
  endfacet
  facet normal -0 0 1
    outer loop
      vertex -10.075 0 10.075
      vertex -8.575 -1 10.075
      vertex -5.5 0 10.075
    endloop
  endfacet
  facet normal 0 0 1
    outer loop
      vertex 8.575 -2.85 10.075
      vertex 10.075 0 10.075
      vertex 8.575 -1 10.075
    endloop
  endfacet
  facet normal -0 0 1
    outer loop
      vertex 5.5 0 10.075
      vertex 8.575 -1 10.075
      vertex 10.075 0 10.075
    endloop
  endfacet
  facet normal 0 0 1
    outer loop
      vertex 8.575 -1 10.075
      vertex 5.5 0 10.075
      vertex 5.5 -1 10.075
    endloop
  endfacet
  facet normal 0 0 1
    outer loop
      vertex 10.075 0 10.075
      vertex 8.575 -2.85 10.075
      vertex 10.075 -15.85 10.075
    endloop
  endfacet
  facet normal -0 0 1
    outer loop
      vertex 3 -5.85 10.075
      vertex 10.075 -15.85 10.075
      vertex 8.575 -2.85 10.075
    endloop
  endfacet
  facet normal 0 0 1
    outer loop
      vertex 10.075 -15.85 10.075
      vertex 3 -5.85 10.075
      vertex 3 -15.85 10.075
    endloop
  endfacet
  facet normal 0 0 1
    outer loop
      vertex 8.575 -2.85 10.075
      vertex -3 -5.85 10.075
      vertex 3 -5.85 10.075
    endloop
  endfacet
  facet normal -0 0 1
    outer loop
      vertex -8.575 -2.85 10.075
      vertex -3 -5.85 10.075
      vertex 8.575 -2.85 10.075
    endloop
  endfacet
  facet normal 0 0 1
    outer loop
      vertex -10.075 -15.85 10.075
      vertex -3 -5.85 10.075
      vertex -8.575 -2.85 10.075
    endloop
  endfacet
  facet normal 0 0 1
    outer loop
      vertex -10.075 -15.85 10.075
      vertex -8.575 -2.85 10.075
      vertex -10.075 0 10.075
    endloop
  endfacet
  facet normal 0 0 1
    outer loop
      vertex -3 -5.85 10.075
      vertex -10.075 -15.85 10.075
      vertex -3 -15.85 10.075
    endloop
  endfacet
  facet normal 1 0 0
    outer loop
      vertex 10.075 0 10.075
      vertex 10.075 -10.93 0
      vertex 10.075 0 -10.075
    endloop
  endfacet
  facet normal 1 0 0
    outer loop
      vertex 10.075 0 10.075
      vertex 10.075 -11.6529 1.50112
      vertex 10.075 -10.93 0
    endloop
  endfacet
  facet normal 1 -0 0
    outer loop
      vertex 10.075 -15.85 10.075
      vertex 10.075 -11.6529 1.50112
      vertex 10.075 0 10.075
    endloop
  endfacet
  facet normal 1 0 0
    outer loop
      vertex 10.075 -14.5799 0.833056
      vertex 10.075 -15.85 10.075
      vertex 10.075 -14.5799 -0.833056
    endloop
  endfacet
  facet normal 1 0 0
    outer loop
      vertex 10.075 -13.2772 1.87186
      vertex 10.075 -15.85 10.075
      vertex 10.075 -14.5799 0.833056
    endloop
  endfacet
  facet normal 1 0 0
    outer loop
      vertex 10.075 -11.6529 1.50112
      vertex 10.075 -15.85 10.075
      vertex 10.075 -13.2772 1.87186
    endloop
  endfacet
  facet normal 1 -0 0
    outer loop
      vertex 10.075 -11.6529 -1.50112
      vertex 10.075 0 -10.075
      vertex 10.075 -10.93 0
    endloop
  endfacet
  facet normal 1 0 0
    outer loop
      vertex 10.075 -15.85 -10.075
      vertex 10.075 -11.6529 -1.50112
      vertex 10.075 -13.2772 -1.87186
    endloop
  endfacet
  facet normal 1 0 0
    outer loop
      vertex 10.075 -11.6529 -1.50112
      vertex 10.075 -15.85 -10.075
      vertex 10.075 0 -10.075
    endloop
  endfacet
  facet normal 1 0 0
    outer loop
      vertex 10.075 -14.5799 -0.833056
      vertex 10.075 -15.85 -10.075
      vertex 10.075 -13.2772 -1.87186
    endloop
  endfacet
  facet normal 1 0 0
    outer loop
      vertex 10.075 -15.85 -10.075
      vertex 10.075 -14.5799 -0.833056
      vertex 10.075 -15.85 10.075
    endloop
  endfacet
  facet normal 0 0 -1
    outer loop
      vertex -3 -15.85 -10.075
      vertex -10.075 -15.85 -10.075
      vertex -3 -5.85 -10.075
    endloop
  endfacet
  facet normal 0 0 -1
    outer loop
      vertex 3 -5.85 -10.075
      vertex 10.075 -15.85 -10.075
      vertex 3 -15.85 -10.075
    endloop
  endfacet
  facet normal 0 0 -1
    outer loop
      vertex 10.075 -15.85 -10.075
      vertex 3 -5.85 -10.075
      vertex 10.075 0 -10.075
    endloop
  endfacet
  facet normal 0 0 -1
    outer loop
      vertex -3 -5.85 -10.075
      vertex 10.075 0 -10.075
      vertex 3 -5.85 -10.075
    endloop
  endfacet
  facet normal 0 0 -1
    outer loop
      vertex -3 -5.85 -10.075
      vertex -10.075 0 -10.075
      vertex 10.075 0 -10.075
    endloop
  endfacet
  facet normal 0 0 -1
    outer loop
      vertex -10.075 0 -10.075
      vertex -3 -5.85 -10.075
      vertex -10.075 -15.85 -10.075
    endloop
  endfacet
  facet normal 0 -1 0
    outer loop
      vertex -10.075 -15.85 -10.075
      vertex -3 -15.85 10.075
      vertex -10.075 -15.85 10.075
    endloop
  endfacet
  facet normal 0 -1 -0
    outer loop
      vertex -3 -15.85 10.075
      vertex -10.075 -15.85 -10.075
      vertex -3 -15.85 -10.075
    endloop
  endfacet
  facet normal 0 -1 0
    outer loop
      vertex 3 -15.85 -10.075
      vertex 10.075 -15.85 10.075
      vertex 3 -15.85 10.075
    endloop
  endfacet
  facet normal 0 -1 -0
    outer loop
      vertex 10.075 -15.85 10.075
      vertex 3 -15.85 -10.075
      vertex 10.075 -15.85 -10.075
    endloop
  endfacet
  facet normal 0 1 0
    outer loop
      vertex 10.075 0 10.075
      vertex 5.5 0 0
      vertex 5.5 0 10.075
    endloop
  endfacet
  facet normal 0 1 -0
    outer loop
      vertex 10.075 0 -10.075
      vertex 5.5 0 0
      vertex 10.075 0 10.075
    endloop
  endfacet
  facet normal 0 1 0
    outer loop
      vertex 0.955065 0 -5.41644
      vertex 10.075 0 -10.075
      vertex -0.955065 0 -5.41644
    endloop
  endfacet
  facet normal 0 1 0
    outer loop
      vertex 2.75 0 -4.76314
      vertex 10.075 0 -10.075
      vertex 0.955065 0 -5.41644
    endloop
  endfacet
  facet normal 0 1 0
    outer loop
      vertex 4.21324 0 -3.53533
      vertex 10.075 0 -10.075
      vertex 2.75 0 -4.76314
    endloop
  endfacet
  facet normal 0 1 0
    outer loop
      vertex 5.16831 0 -1.88111
      vertex 10.075 0 -10.075
      vertex 4.21324 0 -3.53533
    endloop
  endfacet
  facet normal 0 1 0
    outer loop
      vertex 5.5 0 0
      vertex 10.075 0 -10.075
      vertex 5.16831 0 -1.88111
    endloop
  endfacet
  facet normal 0 1 -0
    outer loop
      vertex -5.5 0 0
      vertex -10.075 0 10.075
      vertex -5.5 0 10.075
    endloop
  endfacet
  facet normal 0 1 0
    outer loop
      vertex -10.075 0 -10.075
      vertex -5.5 0 0
      vertex -5.16831 0 -1.88111
    endloop
  endfacet
  facet normal 0 1 0
    outer loop
      vertex -10.075 0 -10.075
      vertex -0.955065 0 -5.41644
      vertex 10.075 0 -10.075
    endloop
  endfacet
  facet normal 0 1 0
    outer loop
      vertex -5.5 0 0
      vertex -10.075 0 -10.075
      vertex -10.075 0 10.075
    endloop
  endfacet
  facet normal 0 1 0
    outer loop
      vertex -4.21324 0 -3.53533
      vertex -10.075 0 -10.075
      vertex -5.16831 0 -1.88111
    endloop
  endfacet
  facet normal 0 1 0
    outer loop
      vertex -2.75 0 -4.76314
      vertex -10.075 0 -10.075
      vertex -4.21324 0 -3.53533
    endloop
  endfacet
  facet normal 0 1 0
    outer loop
      vertex -0.955065 0 -5.41644
      vertex -10.075 0 -10.075
      vertex -2.75 0 -4.76314
    endloop
  endfacet
  facet normal 1 0 0
    outer loop
      vertex -3 -5.85 10.075
      vertex -3 -10.93 0
      vertex -3 -5.85 -10.075
    endloop
  endfacet
  facet normal 1 0 0
    outer loop
      vertex -3 -5.85 10.075
      vertex -3 -11.6529 1.50112
      vertex -3 -10.93 0
    endloop
  endfacet
  facet normal 1 -0 0
    outer loop
      vertex -3 -15.85 10.075
      vertex -3 -11.6529 1.50112
      vertex -3 -5.85 10.075
    endloop
  endfacet
  facet normal 1 0 0
    outer loop
      vertex -3 -11.6529 1.50112
      vertex -3 -15.85 10.075
      vertex -3 -13.2772 1.87186
    endloop
  endfacet
  facet normal 1 0 0
    outer loop
      vertex -3 -14.5799 0.833056
      vertex -3 -15.85 10.075
      vertex -3 -14.5799 -0.833056
    endloop
  endfacet
  facet normal 1 0 0
    outer loop
      vertex -3 -13.2772 1.87186
      vertex -3 -15.85 10.075
      vertex -3 -14.5799 0.833056
    endloop
  endfacet
  facet normal 1 -0 0
    outer loop
      vertex -3 -11.6529 -1.50112
      vertex -3 -5.85 -10.075
      vertex -3 -10.93 0
    endloop
  endfacet
  facet normal 1 0 0
    outer loop
      vertex -3 -15.85 -10.075
      vertex -3 -11.6529 -1.50112
      vertex -3 -13.2772 -1.87186
    endloop
  endfacet
  facet normal 1 0 0
    outer loop
      vertex -3 -15.85 -10.075
      vertex -3 -13.2772 -1.87186
      vertex -3 -14.5799 -0.833056
    endloop
  endfacet
  facet normal 1 0 0
    outer loop
      vertex -3 -11.6529 -1.50112
      vertex -3 -15.85 -10.075
      vertex -3 -5.85 -10.075
    endloop
  endfacet
  facet normal 1 0 0
    outer loop
      vertex -3 -15.85 -10.075
      vertex -3 -14.5799 -0.833056
      vertex -3 -15.85 10.075
    endloop
  endfacet
  facet normal -1 0 0
    outer loop
      vertex 3 -5.85 -10.075
      vertex 3 -10.93 0
      vertex 3 -5.85 10.075
    endloop
  endfacet
  facet normal -1 0 0
    outer loop
      vertex 3 -5.85 -10.075
      vertex 3 -11.6529 -1.50112
      vertex 3 -10.93 0
    endloop
  endfacet
  facet normal -1 0 0
    outer loop
      vertex 3 -15.85 -10.075
      vertex 3 -11.6529 -1.50112
      vertex 3 -5.85 -10.075
    endloop
  endfacet
  facet normal -1 0 0
    outer loop
      vertex 3 -11.6529 -1.50112
      vertex 3 -15.85 -10.075
      vertex 3 -13.2772 -1.87186
    endloop
  endfacet
  facet normal -1 -0 0
    outer loop
      vertex 3 -14.5799 -0.833056
      vertex 3 -15.85 -10.075
      vertex 3 -14.5799 0.833056
    endloop
  endfacet
  facet normal -1 -0 0
    outer loop
      vertex 3 -13.2772 -1.87186
      vertex 3 -15.85 -10.075
      vertex 3 -14.5799 -0.833056
    endloop
  endfacet
  facet normal -1 0 0
    outer loop
      vertex 3 -11.6529 1.50112
      vertex 3 -5.85 10.075
      vertex 3 -10.93 0
    endloop
  endfacet
  facet normal -1 0 0
    outer loop
      vertex 3 -15.85 10.075
      vertex 3 -11.6529 1.50112
      vertex 3 -13.2772 1.87186
    endloop
  endfacet
  facet normal -1 0 0
    outer loop
      vertex 3 -15.85 10.075
      vertex 3 -13.2772 1.87186
      vertex 3 -14.5799 0.833056
    endloop
  endfacet
  facet normal -1 0 0
    outer loop
      vertex 3 -11.6529 1.50112
      vertex 3 -15.85 10.075
      vertex 3 -5.85 10.075
    endloop
  endfacet
  facet normal -1 0 0
    outer loop
      vertex 3 -15.85 10.075
      vertex 3 -14.5799 0.833056
      vertex 3 -15.85 -10.075
    endloop
  endfacet
  facet normal 0 -1 0
    outer loop
      vertex -3 -5.85 -10.075
      vertex 3 -5.85 10.075
      vertex -3 -5.85 10.075
    endloop
  endfacet
  facet normal 0 -1 -0
    outer loop
      vertex 3 -5.85 10.075
      vertex -3 -5.85 -10.075
      vertex 3 -5.85 -10.075
    endloop
  endfacet
  facet normal 0 -0.900969 -0.433884
    outer loop
      vertex -10.075 -10.93 0
      vertex -3 -11.6529 1.50112
      vertex -10.075 -11.6529 1.50112
    endloop
  endfacet
  facet normal 0 -0.900969 -0.433884
    outer loop
      vertex -3 -11.6529 1.50112
      vertex -10.075 -10.93 0
      vertex -3 -10.93 0
    endloop
  endfacet
  facet normal 0 -0.900969 -0.433884
    outer loop
      vertex 3 -10.93 0
      vertex 10.075 -11.6529 1.50112
      vertex 3 -11.6529 1.50112
    endloop
  endfacet
  facet normal 0 -0.900969 -0.433884
    outer loop
      vertex 10.075 -11.6529 1.50112
      vertex 3 -10.93 0
      vertex 10.075 -10.93 0
    endloop
  endfacet
  facet normal 0 1 -0
    outer loop
      vertex -3 -14.5799 -0.833056
      vertex -10.075 -14.5799 0.833056
      vertex -3 -14.5799 0.833056
    endloop
  endfacet
  facet normal 0 1 0
    outer loop
      vertex -10.075 -14.5799 0.833056
      vertex -3 -14.5799 -0.833056
      vertex -10.075 -14.5799 -0.833056
    endloop
  endfacet
  facet normal 0 1 -0
    outer loop
      vertex 10.075 -14.5799 -0.833056
      vertex 3 -14.5799 0.833056
      vertex 10.075 -14.5799 0.833056
    endloop
  endfacet
  facet normal 0 1 0
    outer loop
      vertex 3 -14.5799 0.833056
      vertex 10.075 -14.5799 -0.833056
      vertex 3 -14.5799 -0.833056
    endloop
  endfacet
  facet normal 0 -0.222521 -0.974928
    outer loop
      vertex -10.075 -13.2772 1.87186
      vertex -3 -11.6529 1.50112
      vertex -3 -13.2772 1.87186
    endloop
  endfacet
  facet normal -0 -0.222521 -0.974928
    outer loop
      vertex -3 -11.6529 1.50112
      vertex -10.075 -13.2772 1.87186
      vertex -10.075 -11.6529 1.50112
    endloop
  endfacet
  facet normal 0 -0.222521 -0.974928
    outer loop
      vertex 3 -13.2772 1.87186
      vertex 10.075 -11.6529 1.50112
      vertex 10.075 -13.2772 1.87186
    endloop
  endfacet
  facet normal -0 -0.222521 -0.974928
    outer loop
      vertex 10.075 -11.6529 1.50112
      vertex 3 -13.2772 1.87186
      vertex 3 -11.6529 1.50112
    endloop
  endfacet
  facet normal 0 0.62349 -0.781831
    outer loop
      vertex -10.075 -14.5799 0.833056
      vertex -3 -13.2772 1.87186
      vertex -3 -14.5799 0.833056
    endloop
  endfacet
  facet normal 0 0.62349 -0.781831
    outer loop
      vertex -3 -13.2772 1.87186
      vertex -10.075 -14.5799 0.833056
      vertex -10.075 -13.2772 1.87186
    endloop
  endfacet
  facet normal 0 0.62349 -0.781831
    outer loop
      vertex 3 -14.5799 0.833056
      vertex 10.075 -13.2772 1.87186
      vertex 10.075 -14.5799 0.833056
    endloop
  endfacet
  facet normal 0 0.62349 -0.781831
    outer loop
      vertex 10.075 -13.2772 1.87186
      vertex 3 -14.5799 0.833056
      vertex 3 -13.2772 1.87186
    endloop
  endfacet
  facet normal 0 -0.900969 0.433884
    outer loop
      vertex -10.075 -11.6529 -1.50112
      vertex -3 -10.93 0
      vertex -10.075 -10.93 0
    endloop
  endfacet
  facet normal 0 -0.900969 0.433884
    outer loop
      vertex -3 -10.93 0
      vertex -10.075 -11.6529 -1.50112
      vertex -3 -11.6529 -1.50112
    endloop
  endfacet
  facet normal 0 -0.900969 0.433884
    outer loop
      vertex 3 -11.6529 -1.50112
      vertex 10.075 -10.93 0
      vertex 3 -10.93 0
    endloop
  endfacet
  facet normal 0 -0.900969 0.433884
    outer loop
      vertex 10.075 -10.93 0
      vertex 3 -11.6529 -1.50112
      vertex 10.075 -11.6529 -1.50112
    endloop
  endfacet
  facet normal 0 -0.222521 0.974928
    outer loop
      vertex -10.075 -11.6529 -1.50112
      vertex -3 -13.2772 -1.87186
      vertex -3 -11.6529 -1.50112
    endloop
  endfacet
  facet normal 0 -0.222521 0.974928
    outer loop
      vertex -3 -13.2772 -1.87186
      vertex -10.075 -11.6529 -1.50112
      vertex -10.075 -13.2772 -1.87186
    endloop
  endfacet
  facet normal 0 -0.222521 0.974928
    outer loop
      vertex 3 -11.6529 -1.50112
      vertex 10.075 -13.2772 -1.87186
      vertex 10.075 -11.6529 -1.50112
    endloop
  endfacet
  facet normal 0 -0.222521 0.974928
    outer loop
      vertex 10.075 -13.2772 -1.87186
      vertex 3 -11.6529 -1.50112
      vertex 3 -13.2772 -1.87186
    endloop
  endfacet
  facet normal -0 0.62349 0.781831
    outer loop
      vertex -10.075 -13.2772 -1.87186
      vertex -3 -14.5799 -0.833056
      vertex -3 -13.2772 -1.87186
    endloop
  endfacet
  facet normal 0 0.62349 0.781831
    outer loop
      vertex -3 -14.5799 -0.833056
      vertex -10.075 -13.2772 -1.87186
      vertex -10.075 -14.5799 -0.833056
    endloop
  endfacet
  facet normal -0 0.62349 0.781831
    outer loop
      vertex 3 -13.2772 -1.87186
      vertex 10.075 -14.5799 -0.833056
      vertex 10.075 -13.2772 -1.87186
    endloop
  endfacet
  facet normal 0 0.62349 0.781831
    outer loop
      vertex 10.075 -14.5799 -0.833056
      vertex 3 -13.2772 -1.87186
      vertex 3 -14.5799 -0.833056
    endloop
  endfacet
  facet normal -0.993238 -0 -0.116093
    outer loop
      vertex 8.34386 -0.999999 1.97753
      vertex 8.575 -1 0
      vertex 8.34386 -1 1.97753
    endloop
  endfacet
  facet normal 0 -1 9.84132e-008
    outer loop
      vertex -0.955065 -1 -5.41644
      vertex 1.48903 -1 -8.44473
      vertex 0.955065 -1 -5.41644
    endloop
  endfacet
  facet normal -1.69817e-008 -1 8.47075e-008
    outer loop
      vertex 1.48903 -1 -8.44473
      vertex -0.955065 -1 -5.41644
      vertex -2.20169 -1 -4.96271
    endloop
  endfacet
  facet normal -5.74798e-009 -1 9.86889e-008
    outer loop
      vertex 5.5 -0.999999 0
      vertex 8.34386 -0.999999 1.97753
      vertex 5.5 -0.999999 1.81189
    endloop
  endfacet
  facet normal -3.6733e-009 -1 9.57054e-008
    outer loop
      vertex 5.16831 -0.999999 -1.88111
      vertex 8.34386 -0.999999 1.97753
      vertex 5.5 -0.999999 0
    endloop
  endfacet
  facet normal 8.39451e-008 -1 2.35979e-008
    outer loop
      vertex 4.21324 -1 -3.53533
      vertex 8.34386 -0.999999 1.97753
      vertex 5.16831 -0.999999 -1.88111
    endloop
  endfacet
  facet normal -5.47e-008 -1 1.2748e-007
    outer loop
      vertex 4.21324 -1 -3.53533
      vertex 1.48903 -1 -8.44473
      vertex 8.34386 -0.999999 1.97753
    endloop
  endfacet
  facet normal -5.69495e-011 -1 9.71591e-008
    outer loop
      vertex 2.75 -1 -4.76314
      vertex 1.48903 -1 -8.44473
      vertex 4.21324 -1 -3.53533
    endloop
  endfacet
  facet normal -2.45482e-009 -1 9.79804e-008
    outer loop
      vertex 1.48903 -1 -8.44473
      vertex 2.75 -1 -4.76314
      vertex 0.955065 -1 -5.41644
    endloop
  endfacet
  facet normal -5.92815e-009 -1 1.01782e-007
    outer loop
      vertex -8.51702 -0.999999 0.995496
      vertex -5.5 -0.999999 0
      vertex -5.5 -0.999999 1.17122
    endloop
  endfacet
  facet normal -8.65033e-009 -1 9.35324e-008
    outer loop
      vertex -8.51702 -0.999999 0.995496
      vertex -5.16831 -0.999999 -1.88111
      vertex -5.5 -0.999999 0
    endloop
  endfacet
  facet normal -1.29864e-008 -1 8.84847e-008
    outer loop
      vertex -5.16831 -0.999999 -1.88111
      vertex -8.51702 -0.999999 0.995496
      vertex -4.80978 -0.999999 -2.50211
    endloop
  endfacet
  facet normal -0.939693 0 -0.34202
    outer loop
      vertex 8.34386 -1 1.97753
      vertex 7.6629 -0.999999 3.84845
      vertex 8.34386 -0.999999 1.97753
    endloop
  endfacet
  facet normal -0.939693 -0 -0.34202
    outer loop
      vertex 7.6629 -0.999999 3.84845
      vertex 8.34386 -1 1.97753
      vertex 7.6629 -1 3.84845
    endloop
  endfacet
  facet normal 2.02104e-006 -1 4.78995e-007
    outer loop
      vertex -8.05786 -1 -2.93282
      vertex -8.51702 -0.999999 0.995496
      vertex -8.51702 -1 -0.995496
    endloop
  endfacet
  facet normal -0.286803 0 0.95799
    outer loop
      vertex 1.48903 -1 -8.44473
      vertex 3.39638 -2.85 -7.8737
      vertex 3.39638 -1 -7.8737
    endloop
  endfacet
  facet normal -0.286803 0 0.95799
    outer loop
      vertex 3.39638 -2.85 -7.8737
      vertex 1.48903 -1 -8.44473
      vertex 1.48903 -2.85 -8.44473
    endloop
  endfacet
  facet normal -1.54734e-007 -1 1.64009e-007
    outer loop
      vertex 6.56883 -1 -5.5119
      vertex 8.34386 -0.999999 1.97753
      vertex 5.12063 -1 -6.87821
    endloop
  endfacet
  facet normal 0.973045 -0 0.230616
    outer loop
      vertex -8.51702 -2.85 -0.995496
      vertex -8.05786 -1 -2.93282
      vertex -8.51702 -1 -0.995496
    endloop
  endfacet
  facet normal 0.973045 0 0.230616
    outer loop
      vertex -8.05786 -1 -2.93282
      vertex -8.51702 -2.85 -0.995496
      vertex -8.05786 -2.85 -2.93282
    endloop
  endfacet
  facet normal -0.686242 0 -0.727374
    outer loop
      vertex 5.5 -1 6.52029
      vertex 6.56883 -0.999999 5.5119
      vertex 6.56883 -1 5.5119
    endloop
  endfacet
  facet normal -0.686242 0 -0.727374
    outer loop
      vertex 6.56883 -0.999999 5.5119
      vertex 5.5 -1 6.52029
      vertex 5.5 -0.999999 6.52029
    endloop
  endfacet
  facet normal 1 0 0
    outer loop
      vertex -8.51702 -1 0
      vertex -8.51702 -0.999999 0.995496
      vertex -8.51702 -1 0.995496
    endloop
  endfacet
  facet normal 1 -0 0
    outer loop
      vertex -8.51702 -1 0
      vertex -8.51702 -1 -0.995496
      vertex -8.51702 -0.999999 0.995496
    endloop
  endfacet
  facet normal 1 -0 0
    outer loop
      vertex -8.51702 -2.85 0
      vertex -8.51702 -1 -0.995496
      vertex -8.51702 -1 0
    endloop
  endfacet
  facet normal 1 0 0
    outer loop
      vertex -8.51702 -1 -0.995496
      vertex -8.51702 -2.85 0
      vertex -8.51702 -2.85 -0.995496
    endloop
  endfacet
  facet normal -7.87161e-008 -1 1.3634e-007
    outer loop
      vertex 5.12063 -1 -6.87821
      vertex 8.34386 -0.999999 1.97753
      vertex 3.39638 -1 -7.8737
    endloop
  endfacet
  facet normal -0.835488 0 0.549509
    outer loop
      vertex 6.56883 -2.85 -5.5119
      vertex 7.6629 -1 -3.84845
      vertex 6.56883 -1 -5.5119
    endloop
  endfacet
  facet normal -0.835488 0 0.549509
    outer loop
      vertex 7.6629 -1 -3.84845
      vertex 6.56883 -2.85 -5.5119
      vertex 7.6629 -2.85 -3.84845
    endloop
  endfacet
  facet normal 0 -1 0
    outer loop
      vertex 5.5 -0.999999 1.81189
      vertex 6.56883 -0.999999 5.5119
      vertex 5.5 -0.999999 6.52029
    endloop
  endfacet
  facet normal 0 -1 -0
    outer loop
      vertex 6.56883 -0.999999 5.5119
      vertex 5.5 -0.999999 1.81189
      vertex 7.6629 -0.999999 3.84845
    endloop
  endfacet
  facet normal 0 -1 -0
    outer loop
      vertex 7.6629 -0.999999 3.84845
      vertex 5.5 -0.999999 1.81189
      vertex 8.34386 -0.999999 1.97753
    endloop
  endfacet
  facet normal 0 -1 0
    outer loop
      vertex -5.5 -0.999999 1.17122
      vertex -5.88452 -0.999999 6.23723
      vertex -7.16431 -0.999999 4.71204
    endloop
  endfacet
  facet normal 0 -1 0
    outer loop
      vertex -5.5 -0.999999 1.17122
      vertex -7.16431 -0.999999 4.71204
      vertex -8.05786 -0.999999 2.93282
    endloop
  endfacet
  facet normal 0 -1 0
    outer loop
      vertex -5.88452 -0.999999 6.23723
      vertex -5.5 -0.999999 1.17122
      vertex -5.5 -0.999999 6.52349
    endloop
  endfacet
  facet normal -0 -1 0
    outer loop
      vertex -5.5 -0.999999 1.17122
      vertex -8.05786 -0.999999 2.93282
      vertex -8.51702 -0.999999 0.995496
    endloop
  endfacet
  facet normal 6.30019e-007 -1 3.16408e-007
    outer loop
      vertex -8.05786 -1 -2.93282
      vertex -7.16431 -1 -4.71204
      vertex -8.51702 -0.999999 0.995496
    endloop
  endfacet
  facet normal -0.835488 0 -0.549509
    outer loop
      vertex 7.6629 -1 3.84845
      vertex 6.56883 -0.999999 5.5119
      vertex 7.6629 -0.999999 3.84845
    endloop
  endfacet
  facet normal -0.835488 -0 -0.549509
    outer loop
      vertex 6.56883 -0.999999 5.5119
      vertex 7.6629 -1 3.84845
      vertex 6.56883 -1 5.5119
    endloop
  endfacet
  facet normal -2.06298e-006 -1 2.41128e-007
    outer loop
      vertex 8.575 -1 0
      vertex 8.34386 -0.999999 1.97753
      vertex 8.34386 -1 -1.97753
    endloop
  endfacet
  facet normal -3.4111e-008 -1 1.13939e-007
    outer loop
      vertex 3.39638 -1 -7.8737
      vertex 8.34386 -0.999999 1.97753
      vertex 1.48903 -1 -8.44473
    endloop
  endfacet
  facet normal -0.686242 0 0.727373
    outer loop
      vertex 5.12063 -1 -6.87821
      vertex 6.56883 -2.85 -5.5119
      vertex 6.56883 -1 -5.5119
    endloop
  endfacet
  facet normal -0.686242 0 0.727373
    outer loop
      vertex 6.56883 -2.85 -5.5119
      vertex 5.12063 -1 -6.87821
      vertex 5.12063 -2.85 -6.87821
    endloop
  endfacet
  facet normal -6.62492e-007 -1 2.41128e-007
    outer loop
      vertex 8.34386 -1 -1.97753
      vertex 8.34386 -0.999999 1.97753
      vertex 7.6629 -1 -3.84845
    endloop
  endfacet
  facet normal 6.23558e-008 -1 1.44557e-007
    outer loop
      vertex -4.2875 -1 -7.42617
      vertex -2.45934 -1 -8.21476
      vertex -8.51702 -0.999999 0.995496
    endloop
  endfacet
  facet normal 0 1 -0
    outer loop
      vertex 8.34386 -2.85 -1.97753
      vertex -8.51702 -2.85 0
      vertex 8.575 -2.85 0
    endloop
  endfacet
  facet normal 0 1 -0
    outer loop
      vertex 7.6629 -2.85 -3.84845
      vertex -8.51702 -2.85 0
      vertex 8.34386 -2.85 -1.97753
    endloop
  endfacet
  facet normal 0 1 0
    outer loop
      vertex -8.51702 -2.85 0
      vertex -8.05786 -2.85 -2.93282
      vertex -8.51702 -2.85 -0.995496
    endloop
  endfacet
  facet normal 0 1 -0
    outer loop
      vertex 6.56883 -2.85 -5.5119
      vertex -8.51702 -2.85 0
      vertex 7.6629 -2.85 -3.84845
    endloop
  endfacet
  facet normal 0 1 0
    outer loop
      vertex -8.51702 -2.85 0
      vertex -7.16431 -2.85 -4.71204
      vertex -8.05786 -2.85 -2.93282
    endloop
  endfacet
  facet normal 0 1 -0
    outer loop
      vertex -5.88452 -2.85 -6.23723
      vertex -8.51702 -2.85 0
      vertex 6.56883 -2.85 -5.5119
    endloop
  endfacet
  facet normal 0 1 0
    outer loop
      vertex -8.51702 -2.85 0
      vertex -5.88452 -2.85 -6.23723
      vertex -7.16431 -2.85 -4.71204
    endloop
  endfacet
  facet normal 0 1 -0
    outer loop
      vertex 5.12063 -2.85 -6.87821
      vertex -5.88452 -2.85 -6.23723
      vertex 6.56883 -2.85 -5.5119
    endloop
  endfacet
  facet normal 0 1 0
    outer loop
      vertex 5.12063 -2.85 -6.87821
      vertex -4.2875 -2.85 -7.42617
      vertex -5.88452 -2.85 -6.23723
    endloop
  endfacet
  facet normal 0 1 -0
    outer loop
      vertex 3.39638 -2.85 -7.8737
      vertex -4.2875 -2.85 -7.42617
      vertex 5.12063 -2.85 -6.87821
    endloop
  endfacet
  facet normal 0 1 0
    outer loop
      vertex 3.39638 -2.85 -7.8737
      vertex -2.45934 -2.85 -8.21476
      vertex -4.2875 -2.85 -7.42617
    endloop
  endfacet
  facet normal 0 1 -0
    outer loop
      vertex 1.48903 -2.85 -8.44473
      vertex -2.45934 -2.85 -8.21476
      vertex 3.39638 -2.85 -7.8737
    endloop
  endfacet
  facet normal 0 1 0
    outer loop
      vertex -2.45934 -2.85 -8.21476
      vertex 1.48903 -2.85 -8.44473
      vertex -0.498591 -2.85 -8.56049
    endloop
  endfacet
  facet normal 0 1 -0
    outer loop
      vertex 8.575 -2.85 0
      vertex -8.575 -2.85 10.075
      vertex 8.575 -2.85 10.075
    endloop
  endfacet
  facet normal 0 1 -0
    outer loop
      vertex -8.51702 -2.85 0
      vertex -8.575 -2.85 10.075
      vertex 8.575 -2.85 0
    endloop
  endfacet
  facet normal 0 1 0
    outer loop
      vertex -8.575 -2.85 10.075
      vertex -8.51702 -2.85 0
      vertex -8.575 -2.85 0
    endloop
  endfacet
  facet normal 0.766044 0 -0.642788
    outer loop
      vertex -5.88452 -1 6.23723
      vertex -7.16431 -0.999999 4.71204
      vertex -5.88452 -0.999999 6.23723
    endloop
  endfacet
  facet normal 0.766044 0 -0.642788
    outer loop
      vertex -7.16431 -0.999999 4.71204
      vertex -5.88452 -1 6.23723
      vertex -7.16431 -1 4.71204
    endloop
  endfacet
  facet normal 0.173648 0 0.984808
    outer loop
      vertex -2.45934 -1 -8.21476
      vertex -0.498591 -2.85 -8.56049
      vertex -0.498591 -1 -8.56049
    endloop
  endfacet
  facet normal 0.173648 0 0.984808
    outer loop
      vertex -0.498591 -2.85 -8.56049
      vertex -2.45934 -1 -8.21476
      vertex -2.45934 -2.85 -8.21476
    endloop
  endfacet
  facet normal -0.0581447 0 0.998308
    outer loop
      vertex -0.498591 -1 -8.56049
      vertex 1.48903 -2.85 -8.44473
      vertex 1.48903 -1 -8.44473
    endloop
  endfacet
  facet normal -0.0581447 0 0.998308
    outer loop
      vertex 1.48903 -2.85 -8.44473
      vertex -0.498591 -1 -8.56049
      vertex -0.498591 -2.85 -8.56049
    endloop
  endfacet
  facet normal 0.597159 0 0.802123
    outer loop
      vertex -5.88452 -1 -6.23723
      vertex -4.2875 -2.85 -7.42617
      vertex -4.2875 -1 -7.42617
    endloop
  endfacet
  facet normal 0.597159 0 0.802123
    outer loop
      vertex -4.2875 -2.85 -7.42617
      vertex -5.88452 -1 -6.23723
      vertex -5.88452 -2.85 -6.23723
    endloop
  endfacet
  facet normal 2.77515e-007 -1 2.32863e-007
    outer loop
      vertex -7.16431 -1 -4.71204
      vertex -5.88452 -1 -6.23723
      vertex -8.51702 -0.999999 0.995496
    endloop
  endfacet
  facet normal 1.34648e-007 -1 1.80863e-007
    outer loop
      vertex -5.88452 -1 -6.23723
      vertex -4.2875 -1 -7.42617
      vertex -8.51702 -0.999999 0.995496
    endloop
  endfacet
  facet normal -0.5 0 0.866025
    outer loop
      vertex 3.39638 -1 -7.8737
      vertex 5.12063 -2.85 -6.87821
      vertex 5.12063 -1 -6.87821
    endloop
  endfacet
  facet normal -0.5 0 0.866025
    outer loop
      vertex 5.12063 -2.85 -6.87821
      vertex 3.39638 -1 -7.8737
      vertex 3.39638 -2.85 -7.8737
    endloop
  endfacet
  facet normal -3.02672e-007 -1 1.99071e-007
    outer loop
      vertex 7.6629 -1 -3.84845
      vertex 8.34386 -0.999999 1.97753
      vertex 6.56883 -1 -5.5119
    endloop
  endfacet
  facet normal -0.939693 0 0.34202
    outer loop
      vertex 7.6629 -2.85 -3.84845
      vertex 8.34386 -1 -1.97753
      vertex 7.6629 -1 -3.84845
    endloop
  endfacet
  facet normal -0.939693 0 0.34202
    outer loop
      vertex 8.34386 -1 -1.97753
      vertex 7.6629 -2.85 -3.84845
      vertex 8.34386 -2.85 -1.97753
    endloop
  endfacet
  facet normal -0.993238 0 0.116093
    outer loop
      vertex 8.34386 -2.85 -1.97753
      vertex 8.575 -1 0
      vertex 8.34386 -1 -1.97753
    endloop
  endfacet
  facet normal -0.993238 0 0.116093
    outer loop
      vertex 8.575 -1 0
      vertex 8.34386 -2.85 -1.97753
      vertex 8.575 -2.85 0
    endloop
  endfacet
  facet normal 0.973045 0 -0.230616
    outer loop
      vertex -8.05786 -1 2.93282
      vertex -8.51702 -0.999999 0.995496
      vertex -8.05786 -0.999999 2.93282
    endloop
  endfacet
  facet normal 0.973045 0 -0.230616
    outer loop
      vertex -8.51702 -0.999999 0.995496
      vertex -8.05786 -1 2.93282
      vertex -8.51702 -1 0.995496
    endloop
  endfacet
  facet normal 0.893633 0 -0.448799
    outer loop
      vertex -7.16431 -1 4.71204
      vertex -8.05786 -0.999999 2.93282
      vertex -7.16431 -0.999999 4.71204
    endloop
  endfacet
  facet normal 0.893633 0 -0.448799
    outer loop
      vertex -8.05786 -0.999999 2.93282
      vertex -7.16431 -1 4.71204
      vertex -8.05786 -1 2.93282
    endloop
  endfacet
  facet normal 2.06529e-008 -1 1.17128e-007
    outer loop
      vertex -2.45934 -1 -8.21476
      vertex -0.498591 -1 -8.56049
      vertex -8.51702 -0.999999 0.995496
    endloop
  endfacet
  facet normal 2.71999e-008 -1 1.3108e-007
    outer loop
      vertex -8.51702 -0.999999 0.995496
      vertex -4.21324 -1 -3.53533
      vertex -4.80978 -0.999999 -2.50211
    endloop
  endfacet
  facet normal 4.37106e-008 -1 1.20094e-007
    outer loop
      vertex -0.498591 -1 -8.56049
      vertex -2.20169 -1 -4.96271
      vertex -2.75 -1 -4.76314
    endloop
  endfacet
  facet normal -4.86424e-009 -1 9.12943e-008
    outer loop
      vertex -0.498591 -1 -8.56049
      vertex -2.75 -1 -4.76314
      vertex -4.21324 -1 -3.53533
    endloop
  endfacet
  facet normal -5.63416e-009 -1 9.67352e-008
    outer loop
      vertex -2.20169 -1 -4.96271
      vertex -0.498591 -1 -8.56049
      vertex 1.48903 -1 -8.44473
    endloop
  endfacet
  facet normal -4.91412e-008 -1 5.85642e-008
    outer loop
      vertex -0.498591 -1 -8.56049
      vertex -4.21324 -1 -3.53533
      vertex -8.51702 -0.999999 0.995496
    endloop
  endfacet
  facet normal 0.39608 0 0.918216
    outer loop
      vertex -4.2875 -1 -7.42617
      vertex -2.45934 -2.85 -8.21476
      vertex -2.45934 -1 -8.21476
    endloop
  endfacet
  facet normal 0.39608 0 0.918216
    outer loop
      vertex -2.45934 -2.85 -8.21476
      vertex -4.2875 -1 -7.42617
      vertex -4.2875 -2.85 -7.42617
    endloop
  endfacet
  facet normal 0.597159 0 -0.802123
    outer loop
      vertex -5.88452 -1 6.23723
      vertex -5.5 -0.999999 6.52349
      vertex -5.5 -1 6.52349
    endloop
  endfacet
  facet normal 0.597159 0 -0.802123
    outer loop
      vertex -5.5 -0.999999 6.52349
      vertex -5.88452 -1 6.23723
      vertex -5.88452 -0.999999 6.23723
    endloop
  endfacet
  facet normal 0.893633 -0 0.448799
    outer loop
      vertex -8.05786 -2.85 -2.93282
      vertex -7.16431 -1 -4.71204
      vertex -8.05786 -1 -2.93282
    endloop
  endfacet
  facet normal 0.893633 0 0.448799
    outer loop
      vertex -7.16431 -1 -4.71204
      vertex -8.05786 -2.85 -2.93282
      vertex -7.16431 -2.85 -4.71204
    endloop
  endfacet
  facet normal 0.766044 -0 0.642788
    outer loop
      vertex -7.16431 -2.85 -4.71204
      vertex -5.88452 -1 -6.23723
      vertex -7.16431 -1 -4.71204
    endloop
  endfacet
  facet normal 0.766044 0 0.642788
    outer loop
      vertex -5.88452 -1 -6.23723
      vertex -7.16431 -2.85 -4.71204
      vertex -5.88452 -2.85 -6.23723
    endloop
  endfacet
  facet normal 1 -0 0
    outer loop
      vertex -8.575 -2.85 10.075
      vertex -8.575 -1 0
      vertex -8.575 -1 10.075
    endloop
  endfacet
  facet normal 1 0 0
    outer loop
      vertex -8.575 -1 0
      vertex -8.575 -2.85 10.075
      vertex -8.575 -2.85 0
    endloop
  endfacet
  facet normal -1 0 0
    outer loop
      vertex 8.575 -2.85 0
      vertex 8.575 -1 10.075
      vertex 8.575 -1 0
    endloop
  endfacet
  facet normal -1 -0 0
    outer loop
      vertex 8.575 -1 10.075
      vertex 8.575 -2.85 0
      vertex 8.575 -2.85 10.075
    endloop
  endfacet
  facet normal -0 0 1
    outer loop
      vertex -8.575 -1 0
      vertex -8.51702 -2.85 0
      vertex -8.51702 -1 0
    endloop
  endfacet
  facet normal 0 0 1
    outer loop
      vertex -8.51702 -2.85 0
      vertex -8.575 -1 0
      vertex -8.575 -2.85 0
    endloop
  endfacet
  facet normal 0 -1 0
    outer loop
      vertex 5.5 -1 6.52029
      vertex 8.575 -1 10.075
      vertex 5.5 -1 10.075
    endloop
  endfacet
  facet normal 0 -1 0
    outer loop
      vertex 6.56883 -1 5.5119
      vertex 8.575 -1 10.075
      vertex 5.5 -1 6.52029
    endloop
  endfacet
  facet normal 0 -1 0
    outer loop
      vertex 7.6629 -1 3.84845
      vertex 8.575 -1 10.075
      vertex 6.56883 -1 5.5119
    endloop
  endfacet
  facet normal 0 -1 0
    outer loop
      vertex 8.34386 -1 1.97753
      vertex 8.575 -1 10.075
      vertex 7.6629 -1 3.84845
    endloop
  endfacet
  facet normal 0 -1 -0
    outer loop
      vertex 8.575 -1 10.075
      vertex 8.34386 -1 1.97753
      vertex 8.575 -1 0
    endloop
  endfacet
  facet normal 0 -1 0
    outer loop
      vertex -8.575 -1 10.075
      vertex -5.5 -1 6.52349
      vertex -5.5 -1 10.075
    endloop
  endfacet
  facet normal 0 -1 0
    outer loop
      vertex -8.575 -1 10.075
      vertex -5.88452 -1 6.23723
      vertex -5.5 -1 6.52349
    endloop
  endfacet
  facet normal 0 -1 0
    outer loop
      vertex -8.575 -1 10.075
      vertex -7.16431 -1 4.71204
      vertex -5.88452 -1 6.23723
    endloop
  endfacet
  facet normal 0 -1 0
    outer loop
      vertex -8.575 -1 10.075
      vertex -8.05786 -1 2.93282
      vertex -7.16431 -1 4.71204
    endloop
  endfacet
  facet normal 0 -1 0
    outer loop
      vertex -8.575 -1 10.075
      vertex -8.51702 -1 0.995496
      vertex -8.05786 -1 2.93282
    endloop
  endfacet
  facet normal 0 -1 0
    outer loop
      vertex -8.575 -1 0
      vertex -8.51702 -1 0.995496
      vertex -8.575 -1 10.075
    endloop
  endfacet
  facet normal 0 -1 -0
    outer loop
      vertex -8.51702 -1 0.995496
      vertex -8.575 -1 0
      vertex -8.51702 -1 0
    endloop
  endfacet
  facet normal -0 0 1
    outer loop
      vertex -0.955065 0 -5.41644
      vertex 0.955065 -1 -5.41644
      vertex 0.955065 0 -5.41644
    endloop
  endfacet
  facet normal 0 0 1
    outer loop
      vertex 0.955065 -1 -5.41644
      vertex -0.955065 0 -5.41644
      vertex -0.955065 -1 -5.41644
    endloop
  endfacet
  facet normal -0.642787 0 0.766045
    outer loop
      vertex 2.75 0 -4.76314
      vertex 4.21324 -1 -3.53533
      vertex 4.21324 0 -3.53533
    endloop
  endfacet
  facet normal -0.642787 0 0.766045
    outer loop
      vertex 4.21324 -1 -3.53533
      vertex 2.75 0 -4.76314
      vertex 2.75 -1 -4.76314
    endloop
  endfacet
  facet normal -0.866025 0 0.5
    outer loop
      vertex 4.21324 0 -3.53533
      vertex 5.16831 -0.999999 -1.88111
      vertex 5.16831 0 -1.88111
    endloop
  endfacet
  facet normal -0.866025 0 0.5
    outer loop
      vertex 5.16831 -0.999999 -1.88111
      vertex 4.21324 0 -3.53533
      vertex 4.21324 -1 -3.53533
    endloop
  endfacet
  facet normal -0.984808 0 0.173648
    outer loop
      vertex 5.16831 0 -1.88111
      vertex 5.5 -0.999999 0
      vertex 5.5 0 0
    endloop
  endfacet
  facet normal -0.984808 0 0.173648
    outer loop
      vertex 5.5 -0.999999 0
      vertex 5.16831 0 -1.88111
      vertex 5.16831 -0.999999 -1.88111
    endloop
  endfacet
  facet normal 0.984808 -0 0.173648
    outer loop
      vertex -5.5 -0.999999 0
      vertex -5.16831 0 -1.88111
      vertex -5.5 0 0
    endloop
  endfacet
  facet normal 0.984808 0 0.173648
    outer loop
      vertex -5.16831 0 -1.88111
      vertex -5.5 -0.999999 0
      vertex -5.16831 -0.999999 -1.88111
    endloop
  endfacet
  facet normal -0.34202 0 0.939693
    outer loop
      vertex 0.955065 0 -5.41644
      vertex 2.75 -1 -4.76314
      vertex 2.75 0 -4.76314
    endloop
  endfacet
  facet normal -0.34202 0 0.939693
    outer loop
      vertex 2.75 -1 -4.76314
      vertex 0.955065 0 -5.41644
      vertex 0.955065 -1 -5.41644
    endloop
  endfacet
  facet normal 0.642788 0 0.766044
    outer loop
      vertex -4.21324 0 -3.53533
      vertex -2.75 -1 -4.76314
      vertex -2.75 0 -4.76314
    endloop
  endfacet
  facet normal 0.642788 0 0.766044
    outer loop
      vertex -2.75 -1 -4.76314
      vertex -4.21324 0 -3.53533
      vertex -4.21324 -1 -3.53533
    endloop
  endfacet
  facet normal 0.34202 0 0.939693
    outer loop
      vertex -0.955065 0 -5.41644
      vertex -2.20169 -1 -4.96271
      vertex -0.955065 -1 -5.41644
    endloop
  endfacet
  facet normal 0.34202 -1.58658e-007 0.939693
    outer loop
      vertex -2.75 0 -4.76314
      vertex -2.20169 -1 -4.96271
      vertex -0.955065 0 -5.41644
    endloop
  endfacet
  facet normal 0.34202 0 0.939693
    outer loop
      vertex -2.20169 -1 -4.96271
      vertex -2.75 0 -4.76314
      vertex -2.75 -1 -4.76314
    endloop
  endfacet
  facet normal 0.866025 0 0.5
    outer loop
      vertex -4.80978 -0.999999 -2.50211
      vertex -5.16831 0 -1.88111
      vertex -5.16831 -0.999999 -1.88111
    endloop
  endfacet
  facet normal 0.866025 -1.38035e-007 0.5
    outer loop
      vertex -5.16831 0 -1.88111
      vertex -4.80978 -0.999999 -2.50211
      vertex -4.21324 0 -3.53533
    endloop
  endfacet
  facet normal 0.866025 0 0.5
    outer loop
      vertex -4.21324 0 -3.53533
      vertex -4.80978 -0.999999 -2.50211
      vertex -4.21324 -1 -3.53533
    endloop
  endfacet
  facet normal 1 0 0
    outer loop
      vertex -5.5 0 10.075
      vertex -5.5 -0.999999 6.52349
      vertex -5.5 0 0
    endloop
  endfacet
  facet normal 1 -0 0
    outer loop
      vertex -5.5 -1 10.075
      vertex -5.5 -0.999999 6.52349
      vertex -5.5 0 10.075
    endloop
  endfacet
  facet normal 1 0 0
    outer loop
      vertex -5.5 -0.999999 6.52349
      vertex -5.5 -1 10.075
      vertex -5.5 -1 6.52349
    endloop
  endfacet
  facet normal 1 -0 0
    outer loop
      vertex -5.5 -0.999999 1.17122
      vertex -5.5 0 0
      vertex -5.5 -0.999999 6.52349
    endloop
  endfacet
  facet normal 1 0 0
    outer loop
      vertex -5.5 0 0
      vertex -5.5 -0.999999 1.17122
      vertex -5.5 -0.999999 0
    endloop
  endfacet
  facet normal -1 0 0
    outer loop
      vertex 5.5 -0.999999 6.52029
      vertex 5.5 0 0
      vertex 5.5 -0.999999 1.81189
    endloop
  endfacet
  facet normal -1 0 -0
    outer loop
      vertex 5.5 -0.999999 1.81189
      vertex 5.5 0 0
      vertex 5.5 -0.999999 0
    endloop
  endfacet
  facet normal -1 0 0
    outer loop
      vertex 5.5 0 0
      vertex 5.5 -0.999999 6.52029
      vertex 5.5 0 10.075
    endloop
  endfacet
  facet normal -1 0 0
    outer loop
      vertex 5.5 -1 10.075
      vertex 5.5 -0.999999 6.52029
      vertex 5.5 -1 6.52029
    endloop
  endfacet
  facet normal -1 0 0
    outer loop
      vertex 5.5 -0.999999 6.52029
      vertex 5.5 -1 10.075
      vertex 5.5 0 10.075
    endloop
  endfacet
endsolid OpenSCAD_Model
