solid OpenSCAD_Model
  facet normal 0 0 -1
    outer loop
      vertex 90 0 0
      vertex 86 2.5 0
      vertex 90 20 0
    endloop
  endfacet
  facet normal 0 0 -1
    outer loop
      vertex 90 0 0
      vertex 82 2.5 0
      vertex 86 2.5 0
    endloop
  endfacet
  facet normal -0 0 -1
    outer loop
      vertex 82 2.5 0
      vertex 58.875 0 0
      vertex 82 17.5 0
    endloop
  endfacet
  facet normal 0 0 -1
    outer loop
      vertex 58.875 0 0
      vertex 82 2.5 0
      vertex 90 0 0
    endloop
  endfacet
  facet normal 0 0 -1
    outer loop
      vertex 86 17.5 0
      vertex 90 20 0
      vertex 86 2.5 0
    endloop
  endfacet
  facet normal 0 0 -1
    outer loop
      vertex 82 17.5 0
      vertex 90 20 0
      vertex 86 17.5 0
    endloop
  endfacet
  facet normal 0 0 -1
    outer loop
      vertex 82 17.5 0
      vertex 58.875 20 0
      vertex 90 20 0
    endloop
  endfacet
  facet normal 0 0 -1
    outer loop
      vertex 58.875 20 0
      vertex 82 17.5 0
      vertex 58.875 0 0
    endloop
  endfacet
  facet normal 0 0 -1
    outer loop
      vertex 31.125 0 0
      vertex 8 2.5 0
      vertex 31.125 20 0
    endloop
  endfacet
  facet normal 0 0 -1
    outer loop
      vertex 0 0 0
      vertex 8 2.5 0
      vertex 31.125 0 0
    endloop
  endfacet
  facet normal -0 0 -1
    outer loop
      vertex 4 2.5 0
      vertex 0 0 0
      vertex 4 17.5 0
    endloop
  endfacet
  facet normal -0 0 -1
    outer loop
      vertex 8 2.5 0
      vertex 0 0 0
      vertex 4 2.5 0
    endloop
  endfacet
  facet normal 0 0 -1
    outer loop
      vertex 8 17.5 0
      vertex 31.125 20 0
      vertex 8 2.5 0
    endloop
  endfacet
  facet normal 0 0 -1
    outer loop
      vertex 0 20 0
      vertex 8 17.5 0
      vertex 4 17.5 0
    endloop
  endfacet
  facet normal 0 0 -1
    outer loop
      vertex 8 17.5 0
      vertex 0 20 0
      vertex 31.125 20 0
    endloop
  endfacet
  facet normal 0 0 -1
    outer loop
      vertex 0 20 0
      vertex 4 17.5 0
      vertex 0 0 0
    endloop
  endfacet
  facet normal 1 -0 0
    outer loop
      vertex 90 0 10
      vertex 90 20 0
      vertex 90 20 10
    endloop
  endfacet
  facet normal 1 0 0
    outer loop
      vertex 90 20 0
      vertex 90 0 10
      vertex 90 0 0
    endloop
  endfacet
  facet normal -1 0 0
    outer loop
      vertex 0 0 0
      vertex 0 20 10
      vertex 0 20 0
    endloop
  endfacet
  facet normal -1 -0 0
    outer loop
      vertex 0 20 10
      vertex 0 0 0
      vertex 0 0 10
    endloop
  endfacet
  facet normal 0 -1 0
    outer loop
      vertex 0 0 10
      vertex 0 0 0
      vertex 17.25 0 10
    endloop
  endfacet
  facet normal 0 -1 0
    outer loop
      vertex 56.2251 0 24.0305
      vertex 64.9822 0 20.6428
      vertex 66.75 0 21.375
    endloop
  endfacet
  facet normal 0 -1 0
    outer loop
      vertex 58.5718 0 18.7598
      vertex 64.9822 0 20.6428
      vertex 57.6754 0 21.5185
    endloop
  endfacet
  facet normal 0 -1 0
    outer loop
      vertex 64.9822 0 20.6428
      vertex 58.5718 0 18.7598
      vertex 64.25 0 18.875
    endloop
  endfacet
  facet normal 0 -1 0
    outer loop
      vertex 58.875 0 15.875
      vertex 64.25 0 18.875
      vertex 58.5718 0 18.7598
    endloop
  endfacet
  facet normal 0 -1 -0
    outer loop
      vertex 64.25 0 18.875
      vertex 58.875 0 15.875
      vertex 64.9822 0 17.1072
    endloop
  endfacet
  facet normal 0 -1 -0
    outer loop
      vertex 64.9822 0 17.1072
      vertex 58.875 0 15.875
      vertex 66.75 0 16.375
    endloop
  endfacet
  facet normal 0 -1 0
    outer loop
      vertex 17.25 0 40
      vertex 43.5497 0 29.674
      vertex 72.75 0 40
    endloop
  endfacet
  facet normal 0 -1 0
    outer loop
      vertex 17.25 0 40
      vertex 40.7124 0 29.0709
      vertex 43.5497 0 29.674
    endloop
  endfacet
  facet normal 0 -1 0
    outer loop
      vertex 17.25 0 40
      vertex 38.0625 0 27.8911
      vertex 40.7124 0 29.0709
    endloop
  endfacet
  facet normal 0 -1 0
    outer loop
      vertex 17.25 0 40
      vertex 35.7158 0 26.1861
      vertex 38.0625 0 27.8911
    endloop
  endfacet
  facet normal 0 -1 0
    outer loop
      vertex 17.25 0 40
      vertex 33.7749 0 24.0305
      vertex 35.7158 0 26.1861
    endloop
  endfacet
  facet normal 0 -1 0
    outer loop
      vertex 23.25 0 21.375
      vertex 33.7749 0 24.0305
      vertex 17.25 0 40
    endloop
  endfacet
  facet normal 0 -1 0
    outer loop
      vertex 25.0178 0 20.6428
      vertex 33.7749 0 24.0305
      vertex 23.25 0 21.375
    endloop
  endfacet
  facet normal 0 -1 0
    outer loop
      vertex 17.25 0 40
      vertex 21.4822 0 20.6428
      vertex 23.25 0 21.375
    endloop
  endfacet
  facet normal 0 -1 0
    outer loop
      vertex 17.25 0 40
      vertex 20.75 0 18.875
      vertex 21.4822 0 20.6428
    endloop
  endfacet
  facet normal 0 -1 0
    outer loop
      vertex 17.25 0 10
      vertex 20.75 0 18.875
      vertex 17.25 0 40
    endloop
  endfacet
  facet normal 0 -1 0
    outer loop
      vertex 17.25 0 10
      vertex 21.4822 0 17.1072
      vertex 20.75 0 18.875
    endloop
  endfacet
  facet normal 0 -1 0
    outer loop
      vertex 17.25 0 10
      vertex 23.25 0 16.375
      vertex 21.4822 0 17.1072
    endloop
  endfacet
  facet normal 0 -1 0
    outer loop
      vertex 31.125 0 0
      vertex 23.25 0 16.375
      vertex 17.25 0 10
    endloop
  endfacet
  facet normal 0 -1 0
    outer loop
      vertex 31.125 0 0
      vertex 17.25 0 10
      vertex 0 0 0
    endloop
  endfacet
  facet normal 0 -1 0
    outer loop
      vertex 23.25 0 16.375
      vertex 31.125 0 0
      vertex 31.125 0 15.875
    endloop
  endfacet
  facet normal 0 -1 0
    outer loop
      vertex 46.4503 0 29.674
      vertex 72.75 0 40
      vertex 43.5497 0 29.674
    endloop
  endfacet
  facet normal 0 -1 0
    outer loop
      vertex 49.2876 0 29.0709
      vertex 72.75 0 40
      vertex 46.4503 0 29.674
    endloop
  endfacet
  facet normal 0 -1 0
    outer loop
      vertex 51.9375 0 27.8911
      vertex 72.75 0 40
      vertex 49.2876 0 29.0709
    endloop
  endfacet
  facet normal 0 -1 0
    outer loop
      vertex 54.2842 0 26.1861
      vertex 72.75 0 40
      vertex 51.9375 0 27.8911
    endloop
  endfacet
  facet normal 0 -1 0
    outer loop
      vertex 56.2251 0 24.0305
      vertex 72.75 0 40
      vertex 54.2842 0 26.1861
    endloop
  endfacet
  facet normal 0 -1 0
    outer loop
      vertex 64.9822 0 20.6428
      vertex 56.2251 0 24.0305
      vertex 57.6754 0 21.5185
    endloop
  endfacet
  facet normal 0 -1 0
    outer loop
      vertex 56.2251 0 24.0305
      vertex 66.75 0 21.375
      vertex 72.75 0 40
    endloop
  endfacet
  facet normal 0 -1 0
    outer loop
      vertex 68.5178 0 20.6428
      vertex 72.75 0 40
      vertex 66.75 0 21.375
    endloop
  endfacet
  facet normal 0 -1 0
    outer loop
      vertex 69.25 0 18.875
      vertex 72.75 0 40
      vertex 68.5178 0 20.6428
    endloop
  endfacet
  facet normal 0 -1 0
    outer loop
      vertex 69.25 0 18.875
      vertex 72.75 0 10
      vertex 72.75 0 40
    endloop
  endfacet
  facet normal 0 -1 0
    outer loop
      vertex 68.5178 0 17.1072
      vertex 72.75 0 10
      vertex 69.25 0 18.875
    endloop
  endfacet
  facet normal 0 -1 0
    outer loop
      vertex 66.75 0 16.375
      vertex 72.75 0 10
      vertex 68.5178 0 17.1072
    endloop
  endfacet
  facet normal 0 -1 0
    outer loop
      vertex 58.875 0 0
      vertex 66.75 0 16.375
      vertex 58.875 0 15.875
    endloop
  endfacet
  facet normal 0 -1 -0
    outer loop
      vertex 66.75 0 16.375
      vertex 58.875 0 0
      vertex 72.75 0 10
    endloop
  endfacet
  facet normal 0 -1 0
    outer loop
      vertex 90 0 0
      vertex 72.75 0 10
      vertex 58.875 0 0
    endloop
  endfacet
  facet normal 0 -1 0
    outer loop
      vertex 72.75 0 10
      vertex 90 0 0
      vertex 90 0 10
    endloop
  endfacet
  facet normal 0 -1 0
    outer loop
      vertex 33.7749 0 24.0305
      vertex 25.0178 0 20.6428
      vertex 32.3246 0 21.5185
    endloop
  endfacet
  facet normal 0 -1 0
    outer loop
      vertex 31.4282 0 18.7598
      vertex 25.0178 0 20.6428
      vertex 25.75 0 18.875
    endloop
  endfacet
  facet normal 0 -1 0
    outer loop
      vertex 25.0178 0 20.6428
      vertex 31.4282 0 18.7598
      vertex 32.3246 0 21.5185
    endloop
  endfacet
  facet normal 0 -1 0
    outer loop
      vertex 31.125 0 15.875
      vertex 25.75 0 18.875
      vertex 25.0178 0 17.1072
    endloop
  endfacet
  facet normal 0 -1 0
    outer loop
      vertex 31.125 0 15.875
      vertex 25.0178 0 17.1072
      vertex 23.25 0 16.375
    endloop
  endfacet
  facet normal 0 -1 0
    outer loop
      vertex 25.75 0 18.875
      vertex 31.125 0 15.875
      vertex 31.4282 0 18.7598
    endloop
  endfacet
  facet normal 0 1 0
    outer loop
      vertex 90 20 10
      vertex 90 20 0
      vertex 72.75 20 10
    endloop
  endfacet
  facet normal 0 1 0
    outer loop
      vertex 33.7749 20 24.0305
      vertex 25.0178 20 20.6428
      vertex 23.25 20 21.375
    endloop
  endfacet
  facet normal 0 1 -0
    outer loop
      vertex 31.4282 20 18.7598
      vertex 25.0178 20 20.6428
      vertex 32.3246 20 21.5185
    endloop
  endfacet
  facet normal 0 1 0
    outer loop
      vertex 25.0178 20 20.6428
      vertex 31.4282 20 18.7598
      vertex 25.75 20 18.875
    endloop
  endfacet
  facet normal 0 1 -0
    outer loop
      vertex 31.125 20 15.875
      vertex 25.75 20 18.875
      vertex 31.4282 20 18.7598
    endloop
  endfacet
  facet normal 0 1 0
    outer loop
      vertex 25.75 20 18.875
      vertex 31.125 20 15.875
      vertex 25.0178 20 17.1072
    endloop
  endfacet
  facet normal 0 1 0
    outer loop
      vertex 25.0178 20 17.1072
      vertex 31.125 20 15.875
      vertex 23.25 20 16.375
    endloop
  endfacet
  facet normal 0 1 0
    outer loop
      vertex 72.75 20 40
      vertex 46.4503 20 29.674
      vertex 17.25 20 40
    endloop
  endfacet
  facet normal 0 1 0
    outer loop
      vertex 72.75 20 40
      vertex 49.2876 20 29.0709
      vertex 46.4503 20 29.674
    endloop
  endfacet
  facet normal 0 1 0
    outer loop
      vertex 72.75 20 40
      vertex 51.9375 20 27.8911
      vertex 49.2876 20 29.0709
    endloop
  endfacet
  facet normal 0 1 0
    outer loop
      vertex 72.75 20 40
      vertex 54.2842 20 26.1861
      vertex 51.9375 20 27.8911
    endloop
  endfacet
  facet normal 0 1 0
    outer loop
      vertex 72.75 20 40
      vertex 56.2251 20 24.0305
      vertex 54.2842 20 26.1861
    endloop
  endfacet
  facet normal 0 1 -0
    outer loop
      vertex 66.75 20 21.375
      vertex 56.2251 20 24.0305
      vertex 72.75 20 40
    endloop
  endfacet
  facet normal 0 1 -0
    outer loop
      vertex 64.9822 20 20.6428
      vertex 56.2251 20 24.0305
      vertex 66.75 20 21.375
    endloop
  endfacet
  facet normal 0 1 0
    outer loop
      vertex 72.75 20 40
      vertex 68.5178 20 20.6428
      vertex 66.75 20 21.375
    endloop
  endfacet
  facet normal 0 1 0
    outer loop
      vertex 72.75 20 40
      vertex 69.25 20 18.875
      vertex 68.5178 20 20.6428
    endloop
  endfacet
  facet normal 0 1 -0
    outer loop
      vertex 72.75 20 10
      vertex 69.25 20 18.875
      vertex 72.75 20 40
    endloop
  endfacet
  facet normal 0 1 0
    outer loop
      vertex 72.75 20 10
      vertex 68.5178 20 17.1072
      vertex 69.25 20 18.875
    endloop
  endfacet
  facet normal 0 1 0
    outer loop
      vertex 72.75 20 10
      vertex 66.75 20 16.375
      vertex 68.5178 20 17.1072
    endloop
  endfacet
  facet normal 0 1 0
    outer loop
      vertex 58.875 20 0
      vertex 66.75 20 16.375
      vertex 72.75 20 10
    endloop
  endfacet
  facet normal 0 1 0
    outer loop
      vertex 58.875 20 0
      vertex 72.75 20 10
      vertex 90 20 0
    endloop
  endfacet
  facet normal 0 1 0
    outer loop
      vertex 66.75 20 16.375
      vertex 58.875 20 0
      vertex 58.875 20 15.875
    endloop
  endfacet
  facet normal 0 1 -0
    outer loop
      vertex 43.5497 20 29.674
      vertex 17.25 20 40
      vertex 46.4503 20 29.674
    endloop
  endfacet
  facet normal 0 1 -0
    outer loop
      vertex 40.7124 20 29.0709
      vertex 17.25 20 40
      vertex 43.5497 20 29.674
    endloop
  endfacet
  facet normal 0 1 -0
    outer loop
      vertex 38.0625 20 27.8911
      vertex 17.25 20 40
      vertex 40.7124 20 29.0709
    endloop
  endfacet
  facet normal 0 1 -0
    outer loop
      vertex 35.7158 20 26.1861
      vertex 17.25 20 40
      vertex 38.0625 20 27.8911
    endloop
  endfacet
  facet normal 0 1 -0
    outer loop
      vertex 33.7749 20 24.0305
      vertex 17.25 20 40
      vertex 35.7158 20 26.1861
    endloop
  endfacet
  facet normal 0 1 0
    outer loop
      vertex 25.0178 20 20.6428
      vertex 33.7749 20 24.0305
      vertex 32.3246 20 21.5185
    endloop
  endfacet
  facet normal 0 1 0
    outer loop
      vertex 33.7749 20 24.0305
      vertex 23.25 20 21.375
      vertex 17.25 20 40
    endloop
  endfacet
  facet normal 0 1 -0
    outer loop
      vertex 21.4822 20 20.6428
      vertex 17.25 20 40
      vertex 23.25 20 21.375
    endloop
  endfacet
  facet normal 0 1 -0
    outer loop
      vertex 20.75 20 18.875
      vertex 17.25 20 40
      vertex 21.4822 20 20.6428
    endloop
  endfacet
  facet normal 0 1 0
    outer loop
      vertex 20.75 20 18.875
      vertex 17.25 20 10
      vertex 17.25 20 40
    endloop
  endfacet
  facet normal 0 1 0
    outer loop
      vertex 21.4822 20 17.1072
      vertex 17.25 20 10
      vertex 20.75 20 18.875
    endloop
  endfacet
  facet normal 0 1 0
    outer loop
      vertex 23.25 20 16.375
      vertex 17.25 20 10
      vertex 21.4822 20 17.1072
    endloop
  endfacet
  facet normal 0 1 -0
    outer loop
      vertex 31.125 20 0
      vertex 23.25 20 16.375
      vertex 31.125 20 15.875
    endloop
  endfacet
  facet normal 0 1 0
    outer loop
      vertex 23.25 20 16.375
      vertex 31.125 20 0
      vertex 17.25 20 10
    endloop
  endfacet
  facet normal 0 1 0
    outer loop
      vertex 0 20 0
      vertex 17.25 20 10
      vertex 31.125 20 0
    endloop
  endfacet
  facet normal 0 1 0
    outer loop
      vertex 17.25 20 10
      vertex 0 20 0
      vertex 0 20 10
    endloop
  endfacet
  facet normal 0 1 0
    outer loop
      vertex 56.2251 20 24.0305
      vertex 64.9822 20 20.6428
      vertex 57.6754 20 21.5185
    endloop
  endfacet
  facet normal 0 1 0
    outer loop
      vertex 58.5718 20 18.7598
      vertex 64.9822 20 20.6428
      vertex 64.25 20 18.875
    endloop
  endfacet
  facet normal 0 1 0
    outer loop
      vertex 64.9822 20 20.6428
      vertex 58.5718 20 18.7598
      vertex 57.6754 20 21.5185
    endloop
  endfacet
  facet normal 0 1 0
    outer loop
      vertex 58.875 20 15.875
      vertex 64.25 20 18.875
      vertex 64.9822 20 17.1072
    endloop
  endfacet
  facet normal 0 1 0
    outer loop
      vertex 58.875 20 15.875
      vertex 64.9822 20 17.1072
      vertex 66.75 20 16.375
    endloop
  endfacet
  facet normal 0 1 0
    outer loop
      vertex 64.25 20 18.875
      vertex 58.875 20 15.875
      vertex 58.5718 20 18.7598
    endloop
  endfacet
  facet normal -0 0 1
    outer loop
      vertex 17.25 20 40
      vertex 72.75 0 40
      vertex 72.75 20 40
    endloop
  endfacet
  facet normal 0 0 1
    outer loop
      vertex 72.75 0 40
      vertex 17.25 20 40
      vertex 17.25 0 40
    endloop
  endfacet
  facet normal 0 0 1
    outer loop
      vertex 17.25 20 10
      vertex 8 17.5 10
      vertex 17.25 0 10
    endloop
  endfacet
  facet normal -0 0 1
    outer loop
      vertex 0 20 10
      vertex 8 17.5 10
      vertex 17.25 20 10
    endloop
  endfacet
  facet normal 0 0 1
    outer loop
      vertex 4 17.5 10
      vertex 0 20 10
      vertex 4 2.5 10
    endloop
  endfacet
  facet normal 0 0 1
    outer loop
      vertex 8 17.5 10
      vertex 0 20 10
      vertex 4 17.5 10
    endloop
  endfacet
  facet normal -0 0 1
    outer loop
      vertex 8 2.5 10
      vertex 17.25 0 10
      vertex 8 17.5 10
    endloop
  endfacet
  facet normal 0 0 1
    outer loop
      vertex 0 0 10
      vertex 8 2.5 10
      vertex 4 2.5 10
    endloop
  endfacet
  facet normal 0 0 1
    outer loop
      vertex 8 2.5 10
      vertex 0 0 10
      vertex 17.25 0 10
    endloop
  endfacet
  facet normal 0 0 1
    outer loop
      vertex 0 0 10
      vertex 4 2.5 10
      vertex 0 20 10
    endloop
  endfacet
  facet normal -1 0 0
    outer loop
      vertex 17.25 0 10
      vertex 17.25 20 40
      vertex 17.25 20 10
    endloop
  endfacet
  facet normal -1 -0 0
    outer loop
      vertex 17.25 20 40
      vertex 17.25 0 10
      vertex 17.25 0 40
    endloop
  endfacet
  facet normal 0 0 1
    outer loop
      vertex 90 20 10
      vertex 86 17.5 10
      vertex 90 0 10
    endloop
  endfacet
  facet normal 0 0 1
    outer loop
      vertex 90 20 10
      vertex 82 17.5 10
      vertex 86 17.5 10
    endloop
  endfacet
  facet normal 0 0 1
    outer loop
      vertex 82 17.5 10
      vertex 72.75 20 10
      vertex 82 2.5 10
    endloop
  endfacet
  facet normal -0 0 1
    outer loop
      vertex 72.75 20 10
      vertex 82 17.5 10
      vertex 90 20 10
    endloop
  endfacet
  facet normal -0 0 1
    outer loop
      vertex 86 2.5 10
      vertex 90 0 10
      vertex 86 17.5 10
    endloop
  endfacet
  facet normal -0 0 1
    outer loop
      vertex 82 2.5 10
      vertex 90 0 10
      vertex 86 2.5 10
    endloop
  endfacet
  facet normal 0 0 1
    outer loop
      vertex 82 2.5 10
      vertex 72.75 0 10
      vertex 90 0 10
    endloop
  endfacet
  facet normal 0 0 1
    outer loop
      vertex 72.75 0 10
      vertex 82 2.5 10
      vertex 72.75 20 10
    endloop
  endfacet
  facet normal 1 -0 0
    outer loop
      vertex 72.75 0 40
      vertex 72.75 20 10
      vertex 72.75 20 40
    endloop
  endfacet
  facet normal 1 0 0
    outer loop
      vertex 72.75 20 10
      vertex 72.75 0 40
      vertex 72.75 0 10
    endloop
  endfacet
  facet normal 1 -0 0
    outer loop
      vertex 4 2.5 10
      vertex 4 17.5 0
      vertex 4 17.5 10
    endloop
  endfacet
  facet normal 1 0 0
    outer loop
      vertex 4 17.5 0
      vertex 4 2.5 10
      vertex 4 2.5 0
    endloop
  endfacet
  facet normal -1 0 0
    outer loop
      vertex 8 2.5 0
      vertex 8 17.5 10
      vertex 8 17.5 0
    endloop
  endfacet
  facet normal -1 -0 0
    outer loop
      vertex 8 17.5 10
      vertex 8 2.5 0
      vertex 8 2.5 10
    endloop
  endfacet
  facet normal 0 -1 0
    outer loop
      vertex 4 17.5 0
      vertex 8 17.5 10
      vertex 4 17.5 10
    endloop
  endfacet
  facet normal 0 -1 -0
    outer loop
      vertex 8 17.5 10
      vertex 4 17.5 0
      vertex 8 17.5 0
    endloop
  endfacet
  facet normal 0 1 -0
    outer loop
      vertex 8 2.5 0
      vertex 4 2.5 10
      vertex 8 2.5 10
    endloop
  endfacet
  facet normal 0 1 0
    outer loop
      vertex 4 2.5 10
      vertex 8 2.5 0
      vertex 4 2.5 0
    endloop
  endfacet
  facet normal 1 -0 0
    outer loop
      vertex 82 2.5 10
      vertex 82 17.5 0
      vertex 82 17.5 10
    endloop
  endfacet
  facet normal 1 0 0
    outer loop
      vertex 82 17.5 0
      vertex 82 2.5 10
      vertex 82 2.5 0
    endloop
  endfacet
  facet normal -1 0 0
    outer loop
      vertex 86 2.5 0
      vertex 86 17.5 10
      vertex 86 17.5 0
    endloop
  endfacet
  facet normal -1 -0 0
    outer loop
      vertex 86 17.5 10
      vertex 86 2.5 0
      vertex 86 2.5 10
    endloop
  endfacet
  facet normal 0 -1 0
    outer loop
      vertex 82 17.5 0
      vertex 86 17.5 10
      vertex 82 17.5 10
    endloop
  endfacet
  facet normal 0 -1 -0
    outer loop
      vertex 86 17.5 10
      vertex 82 17.5 0
      vertex 86 17.5 0
    endloop
  endfacet
  facet normal 0 1 -0
    outer loop
      vertex 86 2.5 0
      vertex 82 2.5 10
      vertex 86 2.5 10
    endloop
  endfacet
  facet normal 0 1 0
    outer loop
      vertex 82 2.5 10
      vertex 86 2.5 0
      vertex 82 2.5 0
    endloop
  endfacet
  facet normal -0.92388 0 -0.382683
    outer loop
      vertex 25.75 0 18.875
      vertex 25.0178 20 20.6428
      vertex 25.75 20 18.875
    endloop
  endfacet
  facet normal -0.92388 -0 -0.382683
    outer loop
      vertex 25.0178 20 20.6428
      vertex 25.75 0 18.875
      vertex 25.0178 0 20.6428
    endloop
  endfacet
  facet normal -0.382683 0 -0.92388
    outer loop
      vertex 23.25 0 21.375
      vertex 25.0178 20 20.6428
      vertex 25.0178 0 20.6428
    endloop
  endfacet
  facet normal -0.382683 0 -0.92388
    outer loop
      vertex 25.0178 20 20.6428
      vertex 23.25 0 21.375
      vertex 23.25 20 21.375
    endloop
  endfacet
  facet normal 0.382683 0 -0.92388
    outer loop
      vertex 21.4822 0 20.6428
      vertex 23.25 20 21.375
      vertex 23.25 0 21.375
    endloop
  endfacet
  facet normal 0.382683 0 -0.92388
    outer loop
      vertex 23.25 20 21.375
      vertex 21.4822 0 20.6428
      vertex 21.4822 20 20.6428
    endloop
  endfacet
  facet normal -0.92388 0 0.382683
    outer loop
      vertex 25.0178 0 17.1072
      vertex 25.75 20 18.875
      vertex 25.0178 20 17.1072
    endloop
  endfacet
  facet normal -0.92388 0 0.382683
    outer loop
      vertex 25.75 20 18.875
      vertex 25.0178 0 17.1072
      vertex 25.75 0 18.875
    endloop
  endfacet
  facet normal 0.382682 0 0.92388
    outer loop
      vertex 21.4822 20 17.1072
      vertex 23.25 0 16.375
      vertex 23.25 20 16.375
    endloop
  endfacet
  facet normal 0.382682 0 0.92388
    outer loop
      vertex 23.25 0 16.375
      vertex 21.4822 20 17.1072
      vertex 21.4822 0 17.1072
    endloop
  endfacet
  facet normal 0.92388 0 -0.382683
    outer loop
      vertex 21.4822 0 20.6428
      vertex 20.75 20 18.875
      vertex 21.4822 20 20.6428
    endloop
  endfacet
  facet normal 0.92388 0 -0.382683
    outer loop
      vertex 20.75 20 18.875
      vertex 21.4822 0 20.6428
      vertex 20.75 0 18.875
    endloop
  endfacet
  facet normal 0.92388 -0 0.382682
    outer loop
      vertex 20.75 0 18.875
      vertex 21.4822 20 17.1072
      vertex 20.75 20 18.875
    endloop
  endfacet
  facet normal 0.92388 0 0.382682
    outer loop
      vertex 21.4822 20 17.1072
      vertex 20.75 0 18.875
      vertex 21.4822 0 17.1072
    endloop
  endfacet
  facet normal -0.382683 0 0.92388
    outer loop
      vertex 23.25 20 16.375
      vertex 25.0178 0 17.1072
      vertex 25.0178 20 17.1072
    endloop
  endfacet
  facet normal -0.382683 0 0.92388
    outer loop
      vertex 25.0178 0 17.1072
      vertex 23.25 20 16.375
      vertex 23.25 0 16.375
    endloop
  endfacet
  facet normal -0.92388 0 -0.382683
    outer loop
      vertex 69.25 0 18.875
      vertex 68.5178 20 20.6428
      vertex 69.25 20 18.875
    endloop
  endfacet
  facet normal -0.92388 -0 -0.382683
    outer loop
      vertex 68.5178 20 20.6428
      vertex 69.25 0 18.875
      vertex 68.5178 0 20.6428
    endloop
  endfacet
  facet normal -0.382683 0 -0.92388
    outer loop
      vertex 66.75 0 21.375
      vertex 68.5178 20 20.6428
      vertex 68.5178 0 20.6428
    endloop
  endfacet
  facet normal -0.382683 0 -0.92388
    outer loop
      vertex 68.5178 20 20.6428
      vertex 66.75 0 21.375
      vertex 66.75 20 21.375
    endloop
  endfacet
  facet normal 0.382683 0 -0.92388
    outer loop
      vertex 64.9822 0 20.6428
      vertex 66.75 20 21.375
      vertex 66.75 0 21.375
    endloop
  endfacet
  facet normal 0.382683 0 -0.92388
    outer loop
      vertex 66.75 20 21.375
      vertex 64.9822 0 20.6428
      vertex 64.9822 20 20.6428
    endloop
  endfacet
  facet normal -0.92388 0 0.382682
    outer loop
      vertex 68.5178 0 17.1072
      vertex 69.25 20 18.875
      vertex 68.5178 20 17.1072
    endloop
  endfacet
  facet normal -0.92388 0 0.382682
    outer loop
      vertex 69.25 20 18.875
      vertex 68.5178 0 17.1072
      vertex 69.25 0 18.875
    endloop
  endfacet
  facet normal 0.382682 0 0.92388
    outer loop
      vertex 64.9822 20 17.1072
      vertex 66.75 0 16.375
      vertex 66.75 20 16.375
    endloop
  endfacet
  facet normal 0.382682 0 0.92388
    outer loop
      vertex 66.75 0 16.375
      vertex 64.9822 20 17.1072
      vertex 64.9822 0 17.1072
    endloop
  endfacet
  facet normal 0.92388 0 -0.382683
    outer loop
      vertex 64.9822 0 20.6428
      vertex 64.25 20 18.875
      vertex 64.9822 20 20.6428
    endloop
  endfacet
  facet normal 0.92388 0 -0.382683
    outer loop
      vertex 64.25 20 18.875
      vertex 64.9822 0 20.6428
      vertex 64.25 0 18.875
    endloop
  endfacet
  facet normal 0.92388 -0 0.382682
    outer loop
      vertex 64.25 0 18.875
      vertex 64.9822 20 17.1072
      vertex 64.25 20 18.875
    endloop
  endfacet
  facet normal 0.92388 0 0.382682
    outer loop
      vertex 64.9822 20 17.1072
      vertex 64.25 0 18.875
      vertex 64.9822 0 17.1072
    endloop
  endfacet
  facet normal -0.382682 0 0.92388
    outer loop
      vertex 66.75 20 16.375
      vertex 68.5178 0 17.1072
      vertex 68.5178 20 17.1072
    endloop
  endfacet
  facet normal -0.382682 0 0.92388
    outer loop
      vertex 68.5178 0 17.1072
      vertex 66.75 20 16.375
      vertex 66.75 0 16.375
    endloop
  endfacet
  facet normal -0.994522 0 -0.104529
    outer loop
      vertex 58.875 0 15.875
      vertex 58.5718 20 18.7598
      vertex 58.875 20 15.875
    endloop
  endfacet
  facet normal -0.994522 -0 -0.104529
    outer loop
      vertex 58.5718 20 18.7598
      vertex 58.875 0 15.875
      vertex 58.5718 0 18.7598
    endloop
  endfacet
  facet normal 0 0 -1
    outer loop
      vertex 43.5497 0 29.674
      vertex 46.4503 20 29.674
      vertex 46.4503 0 29.674
    endloop
  endfacet
  facet normal -0 0 -1
    outer loop
      vertex 46.4503 20 29.674
      vertex 43.5497 0 29.674
      vertex 43.5497 20 29.674
    endloop
  endfacet
  facet normal 0.743145 0 -0.669131
    outer loop
      vertex 35.7158 0 26.1861
      vertex 33.7749 20 24.0305
      vertex 35.7158 20 26.1861
    endloop
  endfacet
  facet normal 0.743145 0 -0.669131
    outer loop
      vertex 33.7749 20 24.0305
      vertex 35.7158 0 26.1861
      vertex 33.7749 0 24.0305
    endloop
  endfacet
  facet normal -1 0 0
    outer loop
      vertex 58.875 0 0
      vertex 58.875 20 15.875
      vertex 58.875 20 0
    endloop
  endfacet
  facet normal -1 -0 0
    outer loop
      vertex 58.875 20 15.875
      vertex 58.875 0 0
      vertex 58.875 0 15.875
    endloop
  endfacet
  facet normal 0.951057 0 -0.309016
    outer loop
      vertex 32.3246 0 21.5185
      vertex 31.4282 20 18.7598
      vertex 32.3246 20 21.5185
    endloop
  endfacet
  facet normal 0.951057 0 -0.309016
    outer loop
      vertex 31.4282 20 18.7598
      vertex 32.3246 0 21.5185
      vertex 31.4282 0 18.7598
    endloop
  endfacet
  facet normal -0.406736 0 -0.913546
    outer loop
      vertex 49.2876 0 29.0709
      vertex 51.9375 20 27.8911
      vertex 51.9375 0 27.8911
    endloop
  endfacet
  facet normal -0.406736 0 -0.913546
    outer loop
      vertex 51.9375 20 27.8911
      vertex 49.2876 0 29.0709
      vertex 49.2876 20 29.0709
    endloop
  endfacet
  facet normal -0.743145 0 -0.66913
    outer loop
      vertex 56.2251 0 24.0305
      vertex 54.2842 20 26.1861
      vertex 56.2251 20 24.0305
    endloop
  endfacet
  facet normal -0.743145 -0 -0.66913
    outer loop
      vertex 54.2842 20 26.1861
      vertex 56.2251 0 24.0305
      vertex 54.2842 0 26.1861
    endloop
  endfacet
  facet normal 1 -0 0
    outer loop
      vertex 31.125 0 15.875
      vertex 31.125 20 0
      vertex 31.125 20 15.875
    endloop
  endfacet
  facet normal 1 0 0
    outer loop
      vertex 31.125 20 0
      vertex 31.125 0 15.875
      vertex 31.125 0 0
    endloop
  endfacet
  facet normal 0.866025 0 -0.5
    outer loop
      vertex 33.7749 0 24.0305
      vertex 32.3246 20 21.5185
      vertex 33.7749 20 24.0305
    endloop
  endfacet
  facet normal 0.866025 0 -0.5
    outer loop
      vertex 32.3246 20 21.5185
      vertex 33.7749 0 24.0305
      vertex 32.3246 0 21.5185
    endloop
  endfacet
  facet normal 0.587785 0 -0.809017
    outer loop
      vertex 35.7158 0 26.1861
      vertex 38.0625 20 27.8911
      vertex 38.0625 0 27.8911
    endloop
  endfacet
  facet normal 0.587785 0 -0.809017
    outer loop
      vertex 38.0625 20 27.8911
      vertex 35.7158 0 26.1861
      vertex 35.7158 20 26.1861
    endloop
  endfacet
  facet normal 0.207912 0 -0.978147
    outer loop
      vertex 40.7124 0 29.0709
      vertex 43.5497 20 29.674
      vertex 43.5497 0 29.674
    endloop
  endfacet
  facet normal 0.207912 0 -0.978147
    outer loop
      vertex 43.5497 20 29.674
      vertex 40.7124 0 29.0709
      vertex 40.7124 20 29.0709
    endloop
  endfacet
  facet normal -0.207913 0 -0.978147
    outer loop
      vertex 46.4503 0 29.674
      vertex 49.2876 20 29.0709
      vertex 49.2876 0 29.0709
    endloop
  endfacet
  facet normal -0.207913 0 -0.978147
    outer loop
      vertex 49.2876 20 29.0709
      vertex 46.4503 0 29.674
      vertex 46.4503 20 29.674
    endloop
  endfacet
  facet normal -0.587785 0 -0.809017
    outer loop
      vertex 51.9375 0 27.8911
      vertex 54.2842 20 26.1861
      vertex 54.2842 0 26.1861
    endloop
  endfacet
  facet normal -0.587785 0 -0.809017
    outer loop
      vertex 54.2842 20 26.1861
      vertex 51.9375 0 27.8911
      vertex 51.9375 20 27.8911
    endloop
  endfacet
  facet normal -0.951057 0 -0.309017
    outer loop
      vertex 58.5718 0 18.7598
      vertex 57.6754 20 21.5185
      vertex 58.5718 20 18.7598
    endloop
  endfacet
  facet normal -0.951057 -0 -0.309017
    outer loop
      vertex 57.6754 20 21.5185
      vertex 58.5718 0 18.7598
      vertex 57.6754 0 21.5185
    endloop
  endfacet
  facet normal 0.994522 0 -0.104528
    outer loop
      vertex 31.4282 0 18.7598
      vertex 31.125 20 15.875
      vertex 31.4282 20 18.7598
    endloop
  endfacet
  facet normal 0.994522 0 -0.104528
    outer loop
      vertex 31.125 20 15.875
      vertex 31.4282 0 18.7598
      vertex 31.125 0 15.875
    endloop
  endfacet
  facet normal 0.406737 0 -0.913545
    outer loop
      vertex 38.0625 0 27.8911
      vertex 40.7124 20 29.0709
      vertex 40.7124 0 29.0709
    endloop
  endfacet
  facet normal 0.406737 0 -0.913545
    outer loop
      vertex 40.7124 20 29.0709
      vertex 38.0625 0 27.8911
      vertex 38.0625 20 27.8911
    endloop
  endfacet
  facet normal -0.866025 0 -0.5
    outer loop
      vertex 57.6754 0 21.5185
      vertex 56.2251 20 24.0305
      vertex 57.6754 20 21.5185
    endloop
  endfacet
  facet normal -0.866025 -0 -0.5
    outer loop
      vertex 56.2251 20 24.0305
      vertex 57.6754 0 21.5185
      vertex 56.2251 0 24.0305
    endloop
  endfacet
endsolid OpenSCAD_Model
