solid OpenSCAD_Model
  facet normal -1 0 0
    outer loop
      vertex -60.96 -11.43 0
      vertex -60.96 11.43 5
      vertex -60.96 11.43 0
    endloop
  endfacet
  facet normal -1 -0 0
    outer loop
      vertex -60.96 11.43 5
      vertex -60.96 -11.43 0
      vertex -60.96 -11.43 5
    endloop
  endfacet
  facet normal -0 0 1
    outer loop
      vertex -50.84 5.715 5
      vertex -45.72 5 5
      vertex -45.72 11.43 5
    endloop
  endfacet
  facet normal 0 0 1
    outer loop
      vertex -45.72 5 5
      vertex -50.84 5.715 5
      vertex -45.72 -5 5
    endloop
  endfacet
  facet normal 0 0 1
    outer loop
      vertex -50.84 -5.715 5
      vertex -45.72 -5 5
      vertex -50.84 5.715 5
    endloop
  endfacet
  facet normal 0 0 1
    outer loop
      vertex -45.72 11.43 5
      vertex -55.84 5.715 5
      vertex -50.84 5.715 5
    endloop
  endfacet
  facet normal 0 0 1
    outer loop
      vertex -55.84 5.715 5
      vertex -60.96 11.43 5
      vertex -55.84 -5.715 5
    endloop
  endfacet
  facet normal -0 0 1
    outer loop
      vertex -60.96 11.43 5
      vertex -55.84 5.715 5
      vertex -45.72 11.43 5
    endloop
  endfacet
  facet normal -0 0 1
    outer loop
      vertex -45.72 5 5
      vertex -45 -5 5
      vertex -45 5 5
    endloop
  endfacet
  facet normal 0 0 1
    outer loop
      vertex -45 -5 5
      vertex -45.72 5 5
      vertex -45.72 -5 5
    endloop
  endfacet
  facet normal 0 0 1
    outer loop
      vertex -45.72 -5 5
      vertex -50.84 -5.715 5
      vertex -45.72 -11.43 5
    endloop
  endfacet
  facet normal -0 0 1
    outer loop
      vertex -55.84 -5.715 5
      vertex -45.72 -11.43 5
      vertex -50.84 -5.715 5
    endloop
  endfacet
  facet normal 0 0 1
    outer loop
      vertex -55.84 -5.715 5
      vertex -60.96 -11.43 5
      vertex -45.72 -11.43 5
    endloop
  endfacet
  facet normal 0 0 1
    outer loop
      vertex -60.96 -11.43 5
      vertex -55.84 -5.715 5
      vertex -60.96 11.43 5
    endloop
  endfacet
  facet normal -0 0 1
    outer loop
      vertex 45 5 5
      vertex 45.72 -5 5
      vertex 45.72 5 5
    endloop
  endfacet
  facet normal 0 0 1
    outer loop
      vertex 45.72 -5 5
      vertex 45 5 5
      vertex 45 -5 5
    endloop
  endfacet
  facet normal 0 0 1
    outer loop
      vertex 60.96 11.43 5
      vertex 55.84 5.715 5
      vertex 60.96 -11.43 5
    endloop
  endfacet
  facet normal 0 0 1
    outer loop
      vertex 60.96 11.43 5
      vertex 50.84 5.715 5
      vertex 55.84 5.715 5
    endloop
  endfacet
  facet normal 0 0 1
    outer loop
      vertex 45.72 5 5
      vertex 50.84 5.715 5
      vertex 45.72 11.43 5
    endloop
  endfacet
  facet normal -0 0 1
    outer loop
      vertex 45.72 11.43 5
      vertex 50.84 5.715 5
      vertex 60.96 11.43 5
    endloop
  endfacet
  facet normal -0 0 1
    outer loop
      vertex 55.84 -5.715 5
      vertex 60.96 -11.43 5
      vertex 55.84 5.715 5
    endloop
  endfacet
  facet normal -0 0 1
    outer loop
      vertex 50.84 -5.715 5
      vertex 60.96 -11.43 5
      vertex 55.84 -5.715 5
    endloop
  endfacet
  facet normal 0 0 1
    outer loop
      vertex 50.84 5.715 5
      vertex 45.72 5 5
      vertex 50.84 -5.715 5
    endloop
  endfacet
  facet normal -0 0 1
    outer loop
      vertex 45.72 -5 5
      vertex 50.84 -5.715 5
      vertex 45.72 5 5
    endloop
  endfacet
  facet normal 0 0 1
    outer loop
      vertex 45.72 -11.43 5
      vertex 50.84 -5.715 5
      vertex 45.72 -5 5
    endloop
  endfacet
  facet normal 0 0 1
    outer loop
      vertex 50.84 -5.715 5
      vertex 45.72 -11.43 5
      vertex 60.96 -11.43 5
    endloop
  endfacet
  facet normal 1 -0 0
    outer loop
      vertex 60.96 -11.43 5
      vertex 60.96 11.43 0
      vertex 60.96 11.43 5
    endloop
  endfacet
  facet normal 1 0 0
    outer loop
      vertex 60.96 11.43 0
      vertex 60.96 -11.43 5
      vertex 60.96 -11.43 0
    endloop
  endfacet
  facet normal 0 0 -1
    outer loop
      vertex -50.84 -5.715 0
      vertex -45.72 -5 0
      vertex -45.72 -11.43 0
    endloop
  endfacet
  facet normal -0 0 -1
    outer loop
      vertex -45.72 -5 0
      vertex -50.84 -5.715 0
      vertex -45.72 5 0
    endloop
  endfacet
  facet normal 0 0 -1
    outer loop
      vertex -50.84 5.715 0
      vertex -45.72 5 0
      vertex -50.84 -5.715 0
    endloop
  endfacet
  facet normal 0 0 -1
    outer loop
      vertex -45.72 -11.43 0
      vertex -55.84 -5.715 0
      vertex -50.84 -5.715 0
    endloop
  endfacet
  facet normal -0 0 -1
    outer loop
      vertex -55.84 -5.715 0
      vertex -60.96 -11.43 0
      vertex -55.84 5.715 0
    endloop
  endfacet
  facet normal 0 0 -1
    outer loop
      vertex -60.96 -11.43 0
      vertex -55.84 -5.715 0
      vertex -45.72 -11.43 0
    endloop
  endfacet
  facet normal 0 0 -1
    outer loop
      vertex -45.72 -5 0
      vertex 45.72 5 0
      vertex 45.72 -5 0
    endloop
  endfacet
  facet normal -0 0 -1
    outer loop
      vertex 45.72 5 0
      vertex -45.72 -5 0
      vertex -45.72 5 0
    endloop
  endfacet
  facet normal 0 0 -1
    outer loop
      vertex -45.72 5 0
      vertex -50.84 5.715 0
      vertex -45.72 11.43 0
    endloop
  endfacet
  facet normal 0 0 -1
    outer loop
      vertex -55.84 5.715 0
      vertex -45.72 11.43 0
      vertex -50.84 5.715 0
    endloop
  endfacet
  facet normal 0 0 -1
    outer loop
      vertex -55.84 5.715 0
      vertex -60.96 11.43 0
      vertex -45.72 11.43 0
    endloop
  endfacet
  facet normal 0 0 -1
    outer loop
      vertex -60.96 11.43 0
      vertex -55.84 5.715 0
      vertex -60.96 -11.43 0
    endloop
  endfacet
  facet normal 0 0 -1
    outer loop
      vertex 60.96 -11.43 0
      vertex 55.84 -5.715 0
      vertex 60.96 11.43 0
    endloop
  endfacet
  facet normal 0 0 -1
    outer loop
      vertex 60.96 -11.43 0
      vertex 50.84 -5.715 0
      vertex 55.84 -5.715 0
    endloop
  endfacet
  facet normal 0 0 -1
    outer loop
      vertex 45.72 -5 0
      vertex 50.84 -5.715 0
      vertex 45.72 -11.43 0
    endloop
  endfacet
  facet normal 0 0 -1
    outer loop
      vertex 45.72 -11.43 0
      vertex 50.84 -5.715 0
      vertex 60.96 -11.43 0
    endloop
  endfacet
  facet normal 0 0 -1
    outer loop
      vertex 55.84 5.715 0
      vertex 60.96 11.43 0
      vertex 55.84 -5.715 0
    endloop
  endfacet
  facet normal 0 0 -1
    outer loop
      vertex 50.84 5.715 0
      vertex 60.96 11.43 0
      vertex 55.84 5.715 0
    endloop
  endfacet
  facet normal 0 0 -1
    outer loop
      vertex 50.84 -5.715 0
      vertex 45.72 -5 0
      vertex 50.84 5.715 0
    endloop
  endfacet
  facet normal 0 0 -1
    outer loop
      vertex 45.72 5 0
      vertex 50.84 5.715 0
      vertex 45.72 -5 0
    endloop
  endfacet
  facet normal 0 0 -1
    outer loop
      vertex 45.72 11.43 0
      vertex 50.84 5.715 0
      vertex 45.72 5 0
    endloop
  endfacet
  facet normal 0 0 -1
    outer loop
      vertex 50.84 5.715 0
      vertex 45.72 11.43 0
      vertex 60.96 11.43 0
    endloop
  endfacet
  facet normal 0 -1 0
    outer loop
      vertex -45 -5 45
      vertex -39.9271 -5 41.8532
      vertex -33 -5 45
    endloop
  endfacet
  facet normal 0 -1 0
    outer loop
      vertex -45 -5 45
      vertex -41.4271 -5 40.7634
      vertex -39.9271 -5 41.8532
    endloop
  endfacet
  facet normal 0 -1 0
    outer loop
      vertex -45 -5 45
      vertex -42 -5 39
      vertex -41.4271 -5 40.7634
    endloop
  endfacet
  facet normal 0 -1 0
    outer loop
      vertex -45 -5 45
      vertex -41.4271 -5 37.2366
      vertex -42 -5 39
    endloop
  endfacet
  facet normal 0 -1 0
    outer loop
      vertex -39.9271 -5 36.1468
      vertex -39.9271 -5 23.8532
      vertex -38.0729 -5 36.1468
    endloop
  endfacet
  facet normal 0 -1 0
    outer loop
      vertex -41.4271 -5 37.2366
      vertex -39.9271 -5 23.8532
      vertex -39.9271 -5 36.1468
    endloop
  endfacet
  facet normal 0 -1 0
    outer loop
      vertex -41.4271 -5 22.7634
      vertex -41.4271 -5 37.2366
      vertex -45 -5 45
    endloop
  endfacet
  facet normal 0 -1 0
    outer loop
      vertex -41.4271 -5 37.2366
      vertex -41.4271 -5 22.7634
      vertex -39.9271 -5 23.8532
    endloop
  endfacet
  facet normal 0 -1 0
    outer loop
      vertex -45 -5 45
      vertex -42 -5 21
      vertex -41.4271 -5 22.7634
    endloop
  endfacet
  facet normal 0 -1 0
    outer loop
      vertex -39.9271 -5 18.1468
      vertex -33 -5 15
      vertex -38.0729 -5 18.1468
    endloop
  endfacet
  facet normal 0 -1 -0
    outer loop
      vertex -33 -5 15
      vertex -45 -5 5
      vertex 33 -5 15
    endloop
  endfacet
  facet normal 0 -1 -0
    outer loop
      vertex -39.9271 -5 18.1468
      vertex -45 -5 5
      vertex -33 -5 15
    endloop
  endfacet
  facet normal 0 -1 -0
    outer loop
      vertex -41.4271 -5 19.2366
      vertex -45 -5 5
      vertex -39.9271 -5 18.1468
    endloop
  endfacet
  facet normal 0 -1 -0
    outer loop
      vertex -42 -5 21
      vertex -45 -5 5
      vertex -41.4271 -5 19.2366
    endloop
  endfacet
  facet normal 0 -1 0
    outer loop
      vertex -45 -5 5
      vertex -42 -5 21
      vertex -45 -5 45
    endloop
  endfacet
  facet normal 0 -1 0
    outer loop
      vertex -38.0729 -5 41.8532
      vertex -33 -5 45
      vertex -39.9271 -5 41.8532
    endloop
  endfacet
  facet normal 0 -1 0
    outer loop
      vertex -36.5729 -5 40.7634
      vertex -33 -5 45
      vertex -38.0729 -5 41.8532
    endloop
  endfacet
  facet normal 0 -1 0
    outer loop
      vertex -36 -5 39
      vertex -33 -5 45
      vertex -36.5729 -5 40.7634
    endloop
  endfacet
  facet normal 0 -1 0
    outer loop
      vertex -36.5729 -5 37.2366
      vertex -33 -5 45
      vertex -36 -5 39
    endloop
  endfacet
  facet normal 0 -1 0
    outer loop
      vertex -38.0729 -5 23.8532
      vertex -38.0729 -5 36.1468
      vertex -39.9271 -5 23.8532
    endloop
  endfacet
  facet normal 0 -1 0
    outer loop
      vertex -38.0729 -5 36.1468
      vertex -38.0729 -5 23.8532
      vertex -36.5729 -5 37.2366
    endloop
  endfacet
  facet normal 0 -1 0
    outer loop
      vertex -36.5729 -5 22.7634
      vertex -36.5729 -5 37.2366
      vertex -38.0729 -5 23.8532
    endloop
  endfacet
  facet normal 0 -1 0
    outer loop
      vertex -36.5729 -5 37.2366
      vertex -36.5729 -5 22.7634
      vertex -33 -5 45
    endloop
  endfacet
  facet normal 0 -1 0
    outer loop
      vertex -36 -5 21
      vertex -33 -5 45
      vertex -36.5729 -5 22.7634
    endloop
  endfacet
  facet normal 0 -1 0
    outer loop
      vertex -36 -5 21
      vertex -33 -5 15
      vertex -33 -5 45
    endloop
  endfacet
  facet normal 0 -1 0
    outer loop
      vertex -36.5729 -5 19.2366
      vertex -33 -5 15
      vertex -36 -5 21
    endloop
  endfacet
  facet normal 0 -1 0
    outer loop
      vertex -33 -5 15
      vertex -36.5729 -5 19.2366
      vertex -38.0729 -5 18.1468
    endloop
  endfacet
  facet normal 0 -1 0
    outer loop
      vertex -45.72 -5 0
      vertex -45 -5 5
      vertex -45.72 -5 5
    endloop
  endfacet
  facet normal 0 -1 -0
    outer loop
      vertex -45 -5 5
      vertex -45.72 -5 0
      vertex 45 -5 5
    endloop
  endfacet
  facet normal 0 -1 0
    outer loop
      vertex 45.72 -5 0
      vertex 45 -5 5
      vertex -45.72 -5 0
    endloop
  endfacet
  facet normal 0 -1 0
    outer loop
      vertex 45 -5 5
      vertex 45.72 -5 0
      vertex 45.72 -5 5
    endloop
  endfacet
  facet normal 0 -1 0
    outer loop
      vertex 33 -5 45
      vertex 38.0729 -5 41.8532
      vertex 45 -5 45
    endloop
  endfacet
  facet normal 0 -1 0
    outer loop
      vertex 33 -5 45
      vertex 36.5729 -5 40.7634
      vertex 38.0729 -5 41.8532
    endloop
  endfacet
  facet normal 0 -1 0
    outer loop
      vertex 33 -5 45
      vertex 36 -5 39
      vertex 36.5729 -5 40.7634
    endloop
  endfacet
  facet normal 0 -1 0
    outer loop
      vertex 33 -5 45
      vertex 36.5729 -5 37.2366
      vertex 36 -5 39
    endloop
  endfacet
  facet normal 0 -1 0
    outer loop
      vertex 38.0729 -5 36.1468
      vertex 38.0729 -5 23.8532
      vertex 39.9271 -5 36.1468
    endloop
  endfacet
  facet normal 0 -1 0
    outer loop
      vertex 36.5729 -5 37.2366
      vertex 38.0729 -5 23.8532
      vertex 38.0729 -5 36.1468
    endloop
  endfacet
  facet normal 0 -1 0
    outer loop
      vertex 36.5729 -5 22.7634
      vertex 36.5729 -5 37.2366
      vertex 33 -5 45
    endloop
  endfacet
  facet normal 0 -1 0
    outer loop
      vertex 36.5729 -5 37.2366
      vertex 36.5729 -5 22.7634
      vertex 38.0729 -5 23.8532
    endloop
  endfacet
  facet normal 0 -1 0
    outer loop
      vertex 33 -5 45
      vertex 36 -5 21
      vertex 36.5729 -5 22.7634
    endloop
  endfacet
  facet normal 0 -1 -0
    outer loop
      vertex 38.0729 -5 18.1468
      vertex 33 -5 15
      vertex 39.9271 -5 18.1468
    endloop
  endfacet
  facet normal 0 -1 -0
    outer loop
      vertex 36.5729 -5 19.2366
      vertex 33 -5 15
      vertex 38.0729 -5 18.1468
    endloop
  endfacet
  facet normal 0 -1 -0
    outer loop
      vertex 36 -5 21
      vertex 33 -5 15
      vertex 36.5729 -5 19.2366
    endloop
  endfacet
  facet normal 0 -1 0
    outer loop
      vertex 33 -5 15
      vertex 36 -5 21
      vertex 33 -5 45
    endloop
  endfacet
  facet normal 0 -1 0
    outer loop
      vertex 39.9271 -5 41.8532
      vertex 45 -5 45
      vertex 38.0729 -5 41.8532
    endloop
  endfacet
  facet normal 0 -1 0
    outer loop
      vertex 41.4271 -5 40.7634
      vertex 45 -5 45
      vertex 39.9271 -5 41.8532
    endloop
  endfacet
  facet normal 0 -1 0
    outer loop
      vertex 42 -5 39
      vertex 45 -5 45
      vertex 41.4271 -5 40.7634
    endloop
  endfacet
  facet normal 0 -1 0
    outer loop
      vertex 41.4271 -5 37.2366
      vertex 45 -5 45
      vertex 42 -5 39
    endloop
  endfacet
  facet normal 0 -1 0
    outer loop
      vertex 39.9271 -5 23.8532
      vertex 39.9271 -5 36.1468
      vertex 38.0729 -5 23.8532
    endloop
  endfacet
  facet normal 0 -1 0
    outer loop
      vertex 39.9271 -5 36.1468
      vertex 39.9271 -5 23.8532
      vertex 41.4271 -5 37.2366
    endloop
  endfacet
  facet normal 0 -1 0
    outer loop
      vertex 41.4271 -5 22.7634
      vertex 41.4271 -5 37.2366
      vertex 39.9271 -5 23.8532
    endloop
  endfacet
  facet normal 0 -1 0
    outer loop
      vertex 41.4271 -5 37.2366
      vertex 41.4271 -5 22.7634
      vertex 45 -5 45
    endloop
  endfacet
  facet normal 0 -1 0
    outer loop
      vertex 42 -5 21
      vertex 45 -5 45
      vertex 41.4271 -5 22.7634
    endloop
  endfacet
  facet normal 0 -1 0
    outer loop
      vertex 42 -5 21
      vertex 45 -5 5
      vertex 45 -5 45
    endloop
  endfacet
  facet normal 0 -1 0
    outer loop
      vertex 41.4271 -5 19.2366
      vertex 45 -5 5
      vertex 42 -5 21
    endloop
  endfacet
  facet normal 0 -1 0
    outer loop
      vertex 39.9271 -5 18.1468
      vertex 45 -5 5
      vertex 41.4271 -5 19.2366
    endloop
  endfacet
  facet normal 0 -1 0
    outer loop
      vertex 33 -5 15
      vertex 45 -5 5
      vertex 39.9271 -5 18.1468
    endloop
  endfacet
  facet normal 0 -1 0
    outer loop
      vertex 45 -5 5
      vertex 33 -5 15
      vertex -45 -5 5
    endloop
  endfacet
  facet normal 0 1 0
    outer loop
      vertex 45 5 45
      vertex 39.9271 5 41.8532
      vertex 33 5 45
    endloop
  endfacet
  facet normal 0 1 0
    outer loop
      vertex 45 5 45
      vertex 41.4271 5 40.7634
      vertex 39.9271 5 41.8532
    endloop
  endfacet
  facet normal 0 1 0
    outer loop
      vertex 45 5 45
      vertex 42 5 39
      vertex 41.4271 5 40.7634
    endloop
  endfacet
  facet normal 0 1 0
    outer loop
      vertex 45 5 45
      vertex 41.4271 5 37.2366
      vertex 42 5 39
    endloop
  endfacet
  facet normal 0 1 0
    outer loop
      vertex 39.9271 5 36.1468
      vertex 39.9271 5 23.8532
      vertex 38.0729 5 36.1468
    endloop
  endfacet
  facet normal 0 1 0
    outer loop
      vertex 41.4271 5 37.2366
      vertex 39.9271 5 23.8532
      vertex 39.9271 5 36.1468
    endloop
  endfacet
  facet normal 0 1 0
    outer loop
      vertex 41.4271 5 22.7634
      vertex 41.4271 5 37.2366
      vertex 45 5 45
    endloop
  endfacet
  facet normal 0 1 0
    outer loop
      vertex 41.4271 5 37.2366
      vertex 41.4271 5 22.7634
      vertex 39.9271 5 23.8532
    endloop
  endfacet
  facet normal 0 1 0
    outer loop
      vertex 45 5 45
      vertex 42 5 21
      vertex 41.4271 5 22.7634
    endloop
  endfacet
  facet normal 0 1 0
    outer loop
      vertex 39.9271 5 18.1468
      vertex 33 5 15
      vertex 38.0729 5 18.1468
    endloop
  endfacet
  facet normal 0 1 0
    outer loop
      vertex 33 5 15
      vertex 45 5 5
      vertex -33 5 15
    endloop
  endfacet
  facet normal 0 1 0
    outer loop
      vertex 39.9271 5 18.1468
      vertex 45 5 5
      vertex 33 5 15
    endloop
  endfacet
  facet normal 0 1 0
    outer loop
      vertex 41.4271 5 19.2366
      vertex 45 5 5
      vertex 39.9271 5 18.1468
    endloop
  endfacet
  facet normal 0 1 0
    outer loop
      vertex 42 5 21
      vertex 45 5 5
      vertex 41.4271 5 19.2366
    endloop
  endfacet
  facet normal 0 1 -0
    outer loop
      vertex 45 5 5
      vertex 42 5 21
      vertex 45 5 45
    endloop
  endfacet
  facet normal 0 1 -0
    outer loop
      vertex 38.0729 5 41.8532
      vertex 33 5 45
      vertex 39.9271 5 41.8532
    endloop
  endfacet
  facet normal 0 1 -0
    outer loop
      vertex 36.5729 5 40.7634
      vertex 33 5 45
      vertex 38.0729 5 41.8532
    endloop
  endfacet
  facet normal 0 1 -0
    outer loop
      vertex 36 5 39
      vertex 33 5 45
      vertex 36.5729 5 40.7634
    endloop
  endfacet
  facet normal 0 1 0
    outer loop
      vertex 36.5729 5 37.2366
      vertex 33 5 45
      vertex 36 5 39
    endloop
  endfacet
  facet normal 0 1 0
    outer loop
      vertex 38.0729 5 23.8532
      vertex 38.0729 5 36.1468
      vertex 39.9271 5 23.8532
    endloop
  endfacet
  facet normal 0 1 0
    outer loop
      vertex 38.0729 5 36.1468
      vertex 38.0729 5 23.8532
      vertex 36.5729 5 37.2366
    endloop
  endfacet
  facet normal 0 1 0
    outer loop
      vertex 36.5729 5 22.7634
      vertex 36.5729 5 37.2366
      vertex 38.0729 5 23.8532
    endloop
  endfacet
  facet normal 0 1 0
    outer loop
      vertex 36.5729 5 37.2366
      vertex 36.5729 5 22.7634
      vertex 33 5 45
    endloop
  endfacet
  facet normal 0 1 -0
    outer loop
      vertex 36 5 21
      vertex 33 5 45
      vertex 36.5729 5 22.7634
    endloop
  endfacet
  facet normal 0 1 0
    outer loop
      vertex 36 5 21
      vertex 33 5 15
      vertex 33 5 45
    endloop
  endfacet
  facet normal 0 1 0
    outer loop
      vertex 36.5729 5 19.2366
      vertex 33 5 15
      vertex 36 5 21
    endloop
  endfacet
  facet normal 0 1 0
    outer loop
      vertex 33 5 15
      vertex 36.5729 5 19.2366
      vertex 38.0729 5 18.1468
    endloop
  endfacet
  facet normal 0 1 -0
    outer loop
      vertex 45.72 5 0
      vertex 45 5 5
      vertex 45.72 5 5
    endloop
  endfacet
  facet normal 0 1 0
    outer loop
      vertex 45 5 5
      vertex 45.72 5 0
      vertex -45 5 5
    endloop
  endfacet
  facet normal 0 1 0
    outer loop
      vertex -45.72 5 0
      vertex -45 5 5
      vertex 45.72 5 0
    endloop
  endfacet
  facet normal 0 1 0
    outer loop
      vertex -45 5 5
      vertex -45.72 5 0
      vertex -45.72 5 5
    endloop
  endfacet
  facet normal 0 1 0
    outer loop
      vertex -33 5 45
      vertex -38.0729 5 41.8532
      vertex -45 5 45
    endloop
  endfacet
  facet normal 0 1 0
    outer loop
      vertex -33 5 45
      vertex -36.5729 5 40.7634
      vertex -38.0729 5 41.8532
    endloop
  endfacet
  facet normal 0 1 0
    outer loop
      vertex -33 5 45
      vertex -36 5 39
      vertex -36.5729 5 40.7634
    endloop
  endfacet
  facet normal 0 1 0
    outer loop
      vertex -33 5 45
      vertex -36.5729 5 37.2366
      vertex -36 5 39
    endloop
  endfacet
  facet normal 0 1 0
    outer loop
      vertex -38.0729 5 36.1468
      vertex -38.0729 5 23.8532
      vertex -39.9271 5 36.1468
    endloop
  endfacet
  facet normal 0 1 0
    outer loop
      vertex -36.5729 5 37.2366
      vertex -38.0729 5 23.8532
      vertex -38.0729 5 36.1468
    endloop
  endfacet
  facet normal 0 1 0
    outer loop
      vertex -36.5729 5 22.7634
      vertex -36.5729 5 37.2366
      vertex -33 5 45
    endloop
  endfacet
  facet normal 0 1 0
    outer loop
      vertex -36.5729 5 37.2366
      vertex -36.5729 5 22.7634
      vertex -38.0729 5 23.8532
    endloop
  endfacet
  facet normal 0 1 0
    outer loop
      vertex -33 5 45
      vertex -36 5 21
      vertex -36.5729 5 22.7634
    endloop
  endfacet
  facet normal 0 1 0
    outer loop
      vertex -38.0729 5 18.1468
      vertex -33 5 15
      vertex -39.9271 5 18.1468
    endloop
  endfacet
  facet normal 0 1 0
    outer loop
      vertex -36.5729 5 19.2366
      vertex -33 5 15
      vertex -38.0729 5 18.1468
    endloop
  endfacet
  facet normal 0 1 0
    outer loop
      vertex -36 5 21
      vertex -33 5 15
      vertex -36.5729 5 19.2366
    endloop
  endfacet
  facet normal 0 1 -0
    outer loop
      vertex -33 5 15
      vertex -36 5 21
      vertex -33 5 45
    endloop
  endfacet
  facet normal 0 1 -0
    outer loop
      vertex -39.9271 5 41.8532
      vertex -45 5 45
      vertex -38.0729 5 41.8532
    endloop
  endfacet
  facet normal 0 1 -0
    outer loop
      vertex -41.4271 5 40.7634
      vertex -45 5 45
      vertex -39.9271 5 41.8532
    endloop
  endfacet
  facet normal 0 1 -0
    outer loop
      vertex -42 5 39
      vertex -45 5 45
      vertex -41.4271 5 40.7634
    endloop
  endfacet
  facet normal 0 1 0
    outer loop
      vertex -41.4271 5 37.2366
      vertex -45 5 45
      vertex -42 5 39
    endloop
  endfacet
  facet normal 0 1 0
    outer loop
      vertex -39.9271 5 23.8532
      vertex -39.9271 5 36.1468
      vertex -38.0729 5 23.8532
    endloop
  endfacet
  facet normal 0 1 0
    outer loop
      vertex -39.9271 5 36.1468
      vertex -39.9271 5 23.8532
      vertex -41.4271 5 37.2366
    endloop
  endfacet
  facet normal 0 1 0
    outer loop
      vertex -41.4271 5 22.7634
      vertex -41.4271 5 37.2366
      vertex -39.9271 5 23.8532
    endloop
  endfacet
  facet normal 0 1 0
    outer loop
      vertex -41.4271 5 37.2366
      vertex -41.4271 5 22.7634
      vertex -45 5 45
    endloop
  endfacet
  facet normal 0 1 -0
    outer loop
      vertex -42 5 21
      vertex -45 5 45
      vertex -41.4271 5 22.7634
    endloop
  endfacet
  facet normal 0 1 0
    outer loop
      vertex -42 5 21
      vertex -45 5 5
      vertex -45 5 45
    endloop
  endfacet
  facet normal 0 1 0
    outer loop
      vertex -41.4271 5 19.2366
      vertex -45 5 5
      vertex -42 5 21
    endloop
  endfacet
  facet normal 0 1 0
    outer loop
      vertex -39.9271 5 18.1468
      vertex -45 5 5
      vertex -41.4271 5 19.2366
    endloop
  endfacet
  facet normal 0 1 0
    outer loop
      vertex -33 5 15
      vertex -45 5 5
      vertex -39.9271 5 18.1468
    endloop
  endfacet
  facet normal 0 1 0
    outer loop
      vertex -45 5 5
      vertex -33 5 15
      vertex 45 5 5
    endloop
  endfacet
  facet normal -1 0 0
    outer loop
      vertex -45 -5 5
      vertex -45 5 45
      vertex -45 5 5
    endloop
  endfacet
  facet normal -1 -0 0
    outer loop
      vertex -45 5 45
      vertex -45 -5 5
      vertex -45 -5 45
    endloop
  endfacet
  facet normal -0 0 1
    outer loop
      vertex -45 5 45
      vertex -33 -5 45
      vertex -33 5 45
    endloop
  endfacet
  facet normal 0 0 1
    outer loop
      vertex -33 -5 45
      vertex -45 5 45
      vertex -45 -5 45
    endloop
  endfacet
  facet normal -0 0 1
    outer loop
      vertex 33 5 45
      vertex 45 -5 45
      vertex 45 5 45
    endloop
  endfacet
  facet normal 0 0 1
    outer loop
      vertex 45 -5 45
      vertex 33 5 45
      vertex 33 -5 45
    endloop
  endfacet
  facet normal 1 -0 0
    outer loop
      vertex 45 -5 45
      vertex 45 5 5
      vertex 45 5 45
    endloop
  endfacet
  facet normal 1 0 0
    outer loop
      vertex 45 5 5
      vertex 45 -5 45
      vertex 45 -5 5
    endloop
  endfacet
  facet normal -1 0 0
    outer loop
      vertex 45.72 -11.43 0
      vertex 45.72 -5 5
      vertex 45.72 -5 0
    endloop
  endfacet
  facet normal -1 -0 0
    outer loop
      vertex 45.72 -5 5
      vertex 45.72 -11.43 0
      vertex 45.72 -11.43 5
    endloop
  endfacet
  facet normal -1 0 0
    outer loop
      vertex 45.72 5 0
      vertex 45.72 11.43 5
      vertex 45.72 11.43 0
    endloop
  endfacet
  facet normal -1 -0 0
    outer loop
      vertex 45.72 11.43 5
      vertex 45.72 5 0
      vertex 45.72 5 5
    endloop
  endfacet
  facet normal 0 1 -0
    outer loop
      vertex 60.96 11.43 0
      vertex 45.72 11.43 5
      vertex 60.96 11.43 5
    endloop
  endfacet
  facet normal 0 1 0
    outer loop
      vertex 45.72 11.43 5
      vertex 60.96 11.43 0
      vertex 45.72 11.43 0
    endloop
  endfacet
  facet normal 0 -1 0
    outer loop
      vertex 45.72 -11.43 0
      vertex 60.96 -11.43 5
      vertex 45.72 -11.43 5
    endloop
  endfacet
  facet normal 0 -1 -0
    outer loop
      vertex 60.96 -11.43 5
      vertex 45.72 -11.43 0
      vertex 60.96 -11.43 0
    endloop
  endfacet
  facet normal 1 -0 0
    outer loop
      vertex -45.72 -11.43 5
      vertex -45.72 -5 0
      vertex -45.72 -5 5
    endloop
  endfacet
  facet normal 1 0 0
    outer loop
      vertex -45.72 -5 0
      vertex -45.72 -11.43 5
      vertex -45.72 -11.43 0
    endloop
  endfacet
  facet normal 1 -0 0
    outer loop
      vertex -45.72 5 5
      vertex -45.72 11.43 0
      vertex -45.72 11.43 5
    endloop
  endfacet
  facet normal 1 0 0
    outer loop
      vertex -45.72 11.43 0
      vertex -45.72 5 5
      vertex -45.72 5 0
    endloop
  endfacet
  facet normal 0 -1 0
    outer loop
      vertex -60.96 -11.43 0
      vertex -45.72 -11.43 5
      vertex -60.96 -11.43 5
    endloop
  endfacet
  facet normal 0 -1 -0
    outer loop
      vertex -45.72 -11.43 5
      vertex -60.96 -11.43 0
      vertex -45.72 -11.43 0
    endloop
  endfacet
  facet normal 0 1 -0
    outer loop
      vertex -45.72 11.43 0
      vertex -60.96 11.43 5
      vertex -45.72 11.43 5
    endloop
  endfacet
  facet normal 0 1 0
    outer loop
      vertex -60.96 11.43 5
      vertex -45.72 11.43 0
      vertex -60.96 11.43 0
    endloop
  endfacet
  facet normal 1 -0 0
    outer loop
      vertex -33 -5 45
      vertex -33 5 15
      vertex -33 5 45
    endloop
  endfacet
  facet normal 1 0 0
    outer loop
      vertex -33 5 15
      vertex -33 -5 45
      vertex -33 -5 15
    endloop
  endfacet
  facet normal -1 0 0
    outer loop
      vertex 33 -5 15
      vertex 33 5 45
      vertex 33 5 15
    endloop
  endfacet
  facet normal -1 -0 0
    outer loop
      vertex 33 5 45
      vertex 33 -5 15
      vertex 33 -5 45
    endloop
  endfacet
  facet normal -0 0 1
    outer loop
      vertex -33 5 15
      vertex 33 -5 15
      vertex 33 5 15
    endloop
  endfacet
  facet normal 0 0 1
    outer loop
      vertex 33 -5 15
      vertex -33 5 15
      vertex -33 -5 15
    endloop
  endfacet
  facet normal -0.951057 0 -0.309017
    outer loop
      vertex -36 -5 39
      vertex -36.5729 5 40.7634
      vertex -36 5 39
    endloop
  endfacet
  facet normal -0.951057 -0 -0.309017
    outer loop
      vertex -36.5729 5 40.7634
      vertex -36 -5 39
      vertex -36.5729 -5 40.7634
    endloop
  endfacet
  facet normal -0.587785 0 -0.809017
    outer loop
      vertex -38.0729 -5 41.8532
      vertex -36.5729 5 40.7634
      vertex -36.5729 -5 40.7634
    endloop
  endfacet
  facet normal -0.587785 0 -0.809017
    outer loop
      vertex -36.5729 5 40.7634
      vertex -38.0729 -5 41.8532
      vertex -38.0729 5 41.8532
    endloop
  endfacet
  facet normal 0.951057 0 -0.309017
    outer loop
      vertex -41.4271 -5 40.7634
      vertex -42 5 39
      vertex -41.4271 5 40.7634
    endloop
  endfacet
  facet normal 0.951057 0 -0.309017
    outer loop
      vertex -42 5 39
      vertex -41.4271 -5 40.7634
      vertex -42 -5 39
    endloop
  endfacet
  facet normal 0 0 -1
    outer loop
      vertex -39.9271 -5 41.8532
      vertex -38.0729 5 41.8532
      vertex -38.0729 -5 41.8532
    endloop
  endfacet
  facet normal -0 0 -1
    outer loop
      vertex -38.0729 5 41.8532
      vertex -39.9271 -5 41.8532
      vertex -39.9271 5 41.8532
    endloop
  endfacet
  facet normal -0 0 1
    outer loop
      vertex -39.9271 5 36.1468
      vertex -38.0729 -5 36.1468
      vertex -38.0729 5 36.1468
    endloop
  endfacet
  facet normal 0 0 1
    outer loop
      vertex -38.0729 -5 36.1468
      vertex -39.9271 5 36.1468
      vertex -39.9271 -5 36.1468
    endloop
  endfacet
  facet normal 0.587785 0 -0.809017
    outer loop
      vertex -41.4271 -5 40.7634
      vertex -39.9271 5 41.8532
      vertex -39.9271 -5 41.8532
    endloop
  endfacet
  facet normal 0.587785 0 -0.809017
    outer loop
      vertex -39.9271 5 41.8532
      vertex -41.4271 -5 40.7634
      vertex -41.4271 5 40.7634
    endloop
  endfacet
  facet normal 0.951057 -0 0.309017
    outer loop
      vertex -42 -5 39
      vertex -41.4271 5 37.2366
      vertex -42 5 39
    endloop
  endfacet
  facet normal 0.951057 0 0.309017
    outer loop
      vertex -41.4271 5 37.2366
      vertex -42 -5 39
      vertex -41.4271 -5 37.2366
    endloop
  endfacet
  facet normal 0.587786 0 0.809016
    outer loop
      vertex -41.4271 5 37.2366
      vertex -39.9271 -5 36.1468
      vertex -39.9271 5 36.1468
    endloop
  endfacet
  facet normal 0.587786 0 0.809016
    outer loop
      vertex -39.9271 -5 36.1468
      vertex -41.4271 5 37.2366
      vertex -41.4271 -5 37.2366
    endloop
  endfacet
  facet normal -0.587786 0 0.809016
    outer loop
      vertex -38.0729 5 36.1468
      vertex -36.5729 -5 37.2366
      vertex -36.5729 5 37.2366
    endloop
  endfacet
  facet normal -0.587786 0 0.809016
    outer loop
      vertex -36.5729 -5 37.2366
      vertex -38.0729 5 36.1468
      vertex -38.0729 -5 36.1468
    endloop
  endfacet
  facet normal -0.951057 0 0.309017
    outer loop
      vertex -36.5729 -5 37.2366
      vertex -36 5 39
      vertex -36.5729 5 37.2366
    endloop
  endfacet
  facet normal -0.951057 0 0.309017
    outer loop
      vertex -36 5 39
      vertex -36.5729 -5 37.2366
      vertex -36 -5 39
    endloop
  endfacet
  facet normal -0.951057 0 -0.309017
    outer loop
      vertex -36 -5 21
      vertex -36.5729 5 22.7634
      vertex -36 5 21
    endloop
  endfacet
  facet normal -0.951057 -0 -0.309017
    outer loop
      vertex -36.5729 5 22.7634
      vertex -36 -5 21
      vertex -36.5729 -5 22.7634
    endloop
  endfacet
  facet normal -0.587785 0 -0.809017
    outer loop
      vertex -38.0729 -5 23.8532
      vertex -36.5729 5 22.7634
      vertex -36.5729 -5 22.7634
    endloop
  endfacet
  facet normal -0.587785 0 -0.809017
    outer loop
      vertex -36.5729 5 22.7634
      vertex -38.0729 -5 23.8532
      vertex -38.0729 5 23.8532
    endloop
  endfacet
  facet normal 0.951057 0 -0.309017
    outer loop
      vertex -41.4271 -5 22.7634
      vertex -42 5 21
      vertex -41.4271 5 22.7634
    endloop
  endfacet
  facet normal 0.951057 0 -0.309017
    outer loop
      vertex -42 5 21
      vertex -41.4271 -5 22.7634
      vertex -42 -5 21
    endloop
  endfacet
  facet normal 0 0 -1
    outer loop
      vertex -39.9271 -5 23.8532
      vertex -38.0729 5 23.8532
      vertex -38.0729 -5 23.8532
    endloop
  endfacet
  facet normal -0 0 -1
    outer loop
      vertex -38.0729 5 23.8532
      vertex -39.9271 -5 23.8532
      vertex -39.9271 5 23.8532
    endloop
  endfacet
  facet normal -0 0 1
    outer loop
      vertex -39.9271 5 18.1468
      vertex -38.0729 -5 18.1468
      vertex -38.0729 5 18.1468
    endloop
  endfacet
  facet normal 0 0 1
    outer loop
      vertex -38.0729 -5 18.1468
      vertex -39.9271 5 18.1468
      vertex -39.9271 -5 18.1468
    endloop
  endfacet
  facet normal 0.587785 0 -0.809017
    outer loop
      vertex -41.4271 -5 22.7634
      vertex -39.9271 5 23.8532
      vertex -39.9271 -5 23.8532
    endloop
  endfacet
  facet normal 0.587785 0 -0.809017
    outer loop
      vertex -39.9271 5 23.8532
      vertex -41.4271 -5 22.7634
      vertex -41.4271 5 22.7634
    endloop
  endfacet
  facet normal 0.951057 -0 0.309017
    outer loop
      vertex -42 -5 21
      vertex -41.4271 5 19.2366
      vertex -42 5 21
    endloop
  endfacet
  facet normal 0.951057 0 0.309017
    outer loop
      vertex -41.4271 5 19.2366
      vertex -42 -5 21
      vertex -41.4271 -5 19.2366
    endloop
  endfacet
  facet normal -0.587786 0 0.809017
    outer loop
      vertex -38.0729 5 18.1468
      vertex -36.5729 -5 19.2366
      vertex -36.5729 5 19.2366
    endloop
  endfacet
  facet normal -0.587786 0 0.809017
    outer loop
      vertex -36.5729 -5 19.2366
      vertex -38.0729 5 18.1468
      vertex -38.0729 -5 18.1468
    endloop
  endfacet
  facet normal 0.587786 0 0.809017
    outer loop
      vertex -41.4271 5 19.2366
      vertex -39.9271 -5 18.1468
      vertex -39.9271 5 18.1468
    endloop
  endfacet
  facet normal 0.587786 0 0.809017
    outer loop
      vertex -39.9271 -5 18.1468
      vertex -41.4271 5 19.2366
      vertex -41.4271 -5 19.2366
    endloop
  endfacet
  facet normal -0.951057 0 0.309017
    outer loop
      vertex -36.5729 -5 19.2366
      vertex -36 5 21
      vertex -36.5729 5 19.2366
    endloop
  endfacet
  facet normal -0.951057 0 0.309017
    outer loop
      vertex -36 5 21
      vertex -36.5729 -5 19.2366
      vertex -36 -5 21
    endloop
  endfacet
  facet normal -0.951057 0 -0.309017
    outer loop
      vertex 42 -5 39
      vertex 41.4271 5 40.7634
      vertex 42 5 39
    endloop
  endfacet
  facet normal -0.951057 -0 -0.309017
    outer loop
      vertex 41.4271 5 40.7634
      vertex 42 -5 39
      vertex 41.4271 -5 40.7634
    endloop
  endfacet
  facet normal -0.587785 0 -0.809017
    outer loop
      vertex 39.9271 -5 41.8532
      vertex 41.4271 5 40.7634
      vertex 41.4271 -5 40.7634
    endloop
  endfacet
  facet normal -0.587785 0 -0.809017
    outer loop
      vertex 41.4271 5 40.7634
      vertex 39.9271 -5 41.8532
      vertex 39.9271 5 41.8532
    endloop
  endfacet
  facet normal 0 0 -1
    outer loop
      vertex 38.0729 -5 41.8532
      vertex 39.9271 5 41.8532
      vertex 39.9271 -5 41.8532
    endloop
  endfacet
  facet normal -0 0 -1
    outer loop
      vertex 39.9271 5 41.8532
      vertex 38.0729 -5 41.8532
      vertex 38.0729 5 41.8532
    endloop
  endfacet
  facet normal 0.951057 -0 0.309017
    outer loop
      vertex 36 -5 39
      vertex 36.5729 5 37.2366
      vertex 36 5 39
    endloop
  endfacet
  facet normal 0.951057 0 0.309017
    outer loop
      vertex 36.5729 5 37.2366
      vertex 36 -5 39
      vertex 36.5729 -5 37.2366
    endloop
  endfacet
  facet normal -0.951057 0 0.309017
    outer loop
      vertex 41.4271 -5 37.2366
      vertex 42 5 39
      vertex 41.4271 5 37.2366
    endloop
  endfacet
  facet normal -0.951057 0 0.309017
    outer loop
      vertex 42 5 39
      vertex 41.4271 -5 37.2366
      vertex 42 -5 39
    endloop
  endfacet
  facet normal 0.587786 0 0.809016
    outer loop
      vertex 36.5729 5 37.2366
      vertex 38.0729 -5 36.1468
      vertex 38.0729 5 36.1468
    endloop
  endfacet
  facet normal 0.587786 0 0.809016
    outer loop
      vertex 38.0729 -5 36.1468
      vertex 36.5729 5 37.2366
      vertex 36.5729 -5 37.2366
    endloop
  endfacet
  facet normal 0.587785 0 -0.809017
    outer loop
      vertex 36.5729 -5 40.7634
      vertex 38.0729 5 41.8532
      vertex 38.0729 -5 41.8532
    endloop
  endfacet
  facet normal 0.587785 0 -0.809017
    outer loop
      vertex 38.0729 5 41.8532
      vertex 36.5729 -5 40.7634
      vertex 36.5729 5 40.7634
    endloop
  endfacet
  facet normal -0 0 1
    outer loop
      vertex 38.0729 5 36.1468
      vertex 39.9271 -5 36.1468
      vertex 39.9271 5 36.1468
    endloop
  endfacet
  facet normal 0 0 1
    outer loop
      vertex 39.9271 -5 36.1468
      vertex 38.0729 5 36.1468
      vertex 38.0729 -5 36.1468
    endloop
  endfacet
  facet normal 0.951057 0 -0.309017
    outer loop
      vertex 36.5729 -5 40.7634
      vertex 36 5 39
      vertex 36.5729 5 40.7634
    endloop
  endfacet
  facet normal 0.951057 0 -0.309017
    outer loop
      vertex 36 5 39
      vertex 36.5729 -5 40.7634
      vertex 36 -5 39
    endloop
  endfacet
  facet normal -0.587786 0 0.809016
    outer loop
      vertex 39.9271 5 36.1468
      vertex 41.4271 -5 37.2366
      vertex 41.4271 5 37.2366
    endloop
  endfacet
  facet normal -0.587786 0 0.809016
    outer loop
      vertex 41.4271 -5 37.2366
      vertex 39.9271 5 36.1468
      vertex 39.9271 -5 36.1468
    endloop
  endfacet
  facet normal -0.951057 0 -0.309017
    outer loop
      vertex 42 -5 21
      vertex 41.4271 5 22.7634
      vertex 42 5 21
    endloop
  endfacet
  facet normal -0.951057 -0 -0.309017
    outer loop
      vertex 41.4271 5 22.7634
      vertex 42 -5 21
      vertex 41.4271 -5 22.7634
    endloop
  endfacet
  facet normal -0.587785 0 -0.809017
    outer loop
      vertex 39.9271 -5 23.8532
      vertex 41.4271 5 22.7634
      vertex 41.4271 -5 22.7634
    endloop
  endfacet
  facet normal -0.587785 0 -0.809017
    outer loop
      vertex 41.4271 5 22.7634
      vertex 39.9271 -5 23.8532
      vertex 39.9271 5 23.8532
    endloop
  endfacet
  facet normal 0 0 -1
    outer loop
      vertex 38.0729 -5 23.8532
      vertex 39.9271 5 23.8532
      vertex 39.9271 -5 23.8532
    endloop
  endfacet
  facet normal -0 0 -1
    outer loop
      vertex 39.9271 5 23.8532
      vertex 38.0729 -5 23.8532
      vertex 38.0729 5 23.8532
    endloop
  endfacet
  facet normal 0.951057 -0 0.309017
    outer loop
      vertex 36 -5 21
      vertex 36.5729 5 19.2366
      vertex 36 5 21
    endloop
  endfacet
  facet normal 0.951057 0 0.309017
    outer loop
      vertex 36.5729 5 19.2366
      vertex 36 -5 21
      vertex 36.5729 -5 19.2366
    endloop
  endfacet
  facet normal -0.951057 0 0.309017
    outer loop
      vertex 41.4271 -5 19.2366
      vertex 42 5 21
      vertex 41.4271 5 19.2366
    endloop
  endfacet
  facet normal -0.951057 0 0.309017
    outer loop
      vertex 42 5 21
      vertex 41.4271 -5 19.2366
      vertex 42 -5 21
    endloop
  endfacet
  facet normal 0.587786 0 0.809017
    outer loop
      vertex 36.5729 5 19.2366
      vertex 38.0729 -5 18.1468
      vertex 38.0729 5 18.1468
    endloop
  endfacet
  facet normal 0.587786 0 0.809017
    outer loop
      vertex 38.0729 -5 18.1468
      vertex 36.5729 5 19.2366
      vertex 36.5729 -5 19.2366
    endloop
  endfacet
  facet normal 0.587785 0 -0.809017
    outer loop
      vertex 36.5729 -5 22.7634
      vertex 38.0729 5 23.8532
      vertex 38.0729 -5 23.8532
    endloop
  endfacet
  facet normal 0.587785 0 -0.809017
    outer loop
      vertex 38.0729 5 23.8532
      vertex 36.5729 -5 22.7634
      vertex 36.5729 5 22.7634
    endloop
  endfacet
  facet normal -0 0 1
    outer loop
      vertex 38.0729 5 18.1468
      vertex 39.9271 -5 18.1468
      vertex 39.9271 5 18.1468
    endloop
  endfacet
  facet normal 0 0 1
    outer loop
      vertex 39.9271 -5 18.1468
      vertex 38.0729 5 18.1468
      vertex 38.0729 -5 18.1468
    endloop
  endfacet
  facet normal 0.951057 0 -0.309017
    outer loop
      vertex 36.5729 -5 22.7634
      vertex 36 5 21
      vertex 36.5729 5 22.7634
    endloop
  endfacet
  facet normal 0.951057 0 -0.309017
    outer loop
      vertex 36 5 21
      vertex 36.5729 -5 22.7634
      vertex 36 -5 21
    endloop
  endfacet
  facet normal -0.587786 0 0.809017
    outer loop
      vertex 39.9271 5 18.1468
      vertex 41.4271 -5 19.2366
      vertex 41.4271 5 19.2366
    endloop
  endfacet
  facet normal -0.587786 0 0.809017
    outer loop
      vertex 41.4271 -5 19.2366
      vertex 39.9271 5 18.1468
      vertex 39.9271 -5 18.1468
    endloop
  endfacet
  facet normal 1 -0 0
    outer loop
      vertex 50.84 -5.715 5
      vertex 50.84 5.715 0
      vertex 50.84 5.715 5
    endloop
  endfacet
  facet normal 1 0 0
    outer loop
      vertex 50.84 5.715 0
      vertex 50.84 -5.715 5
      vertex 50.84 -5.715 0
    endloop
  endfacet
  facet normal -1 0 0
    outer loop
      vertex 55.84 -5.715 0
      vertex 55.84 5.715 5
      vertex 55.84 5.715 0
    endloop
  endfacet
  facet normal -1 -0 0
    outer loop
      vertex 55.84 5.715 5
      vertex 55.84 -5.715 0
      vertex 55.84 -5.715 5
    endloop
  endfacet
  facet normal 0 -1 0
    outer loop
      vertex 50.84 5.715 0
      vertex 55.84 5.715 5
      vertex 50.84 5.715 5
    endloop
  endfacet
  facet normal 0 -1 -0
    outer loop
      vertex 55.84 5.715 5
      vertex 50.84 5.715 0
      vertex 55.84 5.715 0
    endloop
  endfacet
  facet normal 0 1 -0
    outer loop
      vertex 55.84 -5.715 0
      vertex 50.84 -5.715 5
      vertex 55.84 -5.715 5
    endloop
  endfacet
  facet normal 0 1 0
    outer loop
      vertex 50.84 -5.715 5
      vertex 55.84 -5.715 0
      vertex 50.84 -5.715 0
    endloop
  endfacet
  facet normal 1 -0 0
    outer loop
      vertex -55.84 -5.715 5
      vertex -55.84 5.715 0
      vertex -55.84 5.715 5
    endloop
  endfacet
  facet normal 1 0 0
    outer loop
      vertex -55.84 5.715 0
      vertex -55.84 -5.715 5
      vertex -55.84 -5.715 0
    endloop
  endfacet
  facet normal -1 0 0
    outer loop
      vertex -50.84 -5.715 0
      vertex -50.84 5.715 5
      vertex -50.84 5.715 0
    endloop
  endfacet
  facet normal -1 -0 0
    outer loop
      vertex -50.84 5.715 5
      vertex -50.84 -5.715 0
      vertex -50.84 -5.715 5
    endloop
  endfacet
  facet normal 0 1 -0
    outer loop
      vertex -50.84 -5.715 0
      vertex -55.84 -5.715 5
      vertex -50.84 -5.715 5
    endloop
  endfacet
  facet normal 0 1 0
    outer loop
      vertex -55.84 -5.715 5
      vertex -50.84 -5.715 0
      vertex -55.84 -5.715 0
    endloop
  endfacet
  facet normal 0 -1 0
    outer loop
      vertex -55.84 5.715 0
      vertex -50.84 5.715 5
      vertex -55.84 5.715 5
    endloop
  endfacet
  facet normal 0 -1 -0
    outer loop
      vertex -50.84 5.715 5
      vertex -55.84 5.715 0
      vertex -50.84 5.715 0
    endloop
  endfacet
endsolid OpenSCAD_Model
