solid OpenSCAD_Model
  facet normal -1 0 0
    outer loop
      vertex -10.25 0 -10.25
      vertex -10.25 -10.98 0
      vertex -10.25 0 10.25
    endloop
  endfacet
  facet normal -1 0 0
    outer loop
      vertex -10.25 0 -10.25
      vertex -10.25 -11.7029 -1.50112
      vertex -10.25 -10.98 0
    endloop
  endfacet
  facet normal -1 0 0
    outer loop
      vertex -10.25 -15.9 -10.25
      vertex -10.25 -11.7029 -1.50112
      vertex -10.25 0 -10.25
    endloop
  endfacet
  facet normal -1 -0 0
    outer loop
      vertex -10.25 -14.6299 -0.833056
      vertex -10.25 -15.9 -10.25
      vertex -10.25 -14.6299 0.833056
    endloop
  endfacet
  facet normal -1 -0 0
    outer loop
      vertex -10.25 -13.3272 -1.87186
      vertex -10.25 -15.9 -10.25
      vertex -10.25 -14.6299 -0.833056
    endloop
  endfacet
  facet normal -1 0 0
    outer loop
      vertex -10.25 -11.7029 -1.50112
      vertex -10.25 -15.9 -10.25
      vertex -10.25 -13.3272 -1.87186
    endloop
  endfacet
  facet normal -1 0 0
    outer loop
      vertex -10.25 -11.7029 1.50112
      vertex -10.25 0 10.25
      vertex -10.25 -10.98 0
    endloop
  endfacet
  facet normal -1 0 0
    outer loop
      vertex -10.25 -15.9 10.25
      vertex -10.25 -11.7029 1.50112
      vertex -10.25 -13.3272 1.87186
    endloop
  endfacet
  facet normal -1 0 0
    outer loop
      vertex -10.25 -11.7029 1.50112
      vertex -10.25 -15.9 10.25
      vertex -10.25 0 10.25
    endloop
  endfacet
  facet normal -1 0 0
    outer loop
      vertex -10.25 -14.6299 0.833056
      vertex -10.25 -15.9 10.25
      vertex -10.25 -13.3272 1.87186
    endloop
  endfacet
  facet normal -1 0 0
    outer loop
      vertex -10.25 -15.9 10.25
      vertex -10.25 -14.6299 0.833056
      vertex -10.25 -15.9 -10.25
    endloop
  endfacet
  facet normal 0 0 1
    outer loop
      vertex -5.5 0 10.25
      vertex -8.75 -1 10.25
      vertex -5.5 -1 10.25
    endloop
  endfacet
  facet normal 0 0 1
    outer loop
      vertex -8.75 -1 10.25
      vertex -10.25 0 10.25
      vertex -8.75 -2.9 10.25
    endloop
  endfacet
  facet normal -0 0 1
    outer loop
      vertex -10.25 0 10.25
      vertex -8.75 -1 10.25
      vertex -5.5 0 10.25
    endloop
  endfacet
  facet normal 0 0 1
    outer loop
      vertex 8.75 -2.9 10.25
      vertex 10.25 0 10.25
      vertex 8.75 -1 10.25
    endloop
  endfacet
  facet normal -0 0 1
    outer loop
      vertex 5.5 0 10.25
      vertex 8.75 -1 10.25
      vertex 10.25 0 10.25
    endloop
  endfacet
  facet normal 0 0 1
    outer loop
      vertex 8.75 -1 10.25
      vertex 5.5 0 10.25
      vertex 5.5 -1 10.25
    endloop
  endfacet
  facet normal 0 0 1
    outer loop
      vertex 10.25 0 10.25
      vertex 8.75 -2.9 10.25
      vertex 10.25 -15.9 10.25
    endloop
  endfacet
  facet normal -0 0 1
    outer loop
      vertex 3 -5.9 10.25
      vertex 10.25 -15.9 10.25
      vertex 8.75 -2.9 10.25
    endloop
  endfacet
  facet normal 0 0 1
    outer loop
      vertex 10.25 -15.9 10.25
      vertex 3 -5.9 10.25
      vertex 3 -15.9 10.25
    endloop
  endfacet
  facet normal 0 0 1
    outer loop
      vertex 8.75 -2.9 10.25
      vertex -3 -5.9 10.25
      vertex 3 -5.9 10.25
    endloop
  endfacet
  facet normal -0 0 1
    outer loop
      vertex -8.75 -2.9 10.25
      vertex -3 -5.9 10.25
      vertex 8.75 -2.9 10.25
    endloop
  endfacet
  facet normal 0 0 1
    outer loop
      vertex -10.25 -15.9 10.25
      vertex -3 -5.9 10.25
      vertex -8.75 -2.9 10.25
    endloop
  endfacet
  facet normal 0 0 1
    outer loop
      vertex -10.25 -15.9 10.25
      vertex -8.75 -2.9 10.25
      vertex -10.25 0 10.25
    endloop
  endfacet
  facet normal 0 0 1
    outer loop
      vertex -3 -5.9 10.25
      vertex -10.25 -15.9 10.25
      vertex -3 -15.9 10.25
    endloop
  endfacet
  facet normal 1 0 0
    outer loop
      vertex 10.25 0 10.25
      vertex 10.25 -10.98 0
      vertex 10.25 0 -10.25
    endloop
  endfacet
  facet normal 1 0 0
    outer loop
      vertex 10.25 0 10.25
      vertex 10.25 -11.7029 1.50112
      vertex 10.25 -10.98 0
    endloop
  endfacet
  facet normal 1 -0 0
    outer loop
      vertex 10.25 -15.9 10.25
      vertex 10.25 -11.7029 1.50112
      vertex 10.25 0 10.25
    endloop
  endfacet
  facet normal 1 0 0
    outer loop
      vertex 10.25 -14.6299 0.833056
      vertex 10.25 -15.9 10.25
      vertex 10.25 -14.6299 -0.833056
    endloop
  endfacet
  facet normal 1 0 0
    outer loop
      vertex 10.25 -13.3272 1.87186
      vertex 10.25 -15.9 10.25
      vertex 10.25 -14.6299 0.833056
    endloop
  endfacet
  facet normal 1 0 0
    outer loop
      vertex 10.25 -11.7029 1.50112
      vertex 10.25 -15.9 10.25
      vertex 10.25 -13.3272 1.87186
    endloop
  endfacet
  facet normal 1 -0 0
    outer loop
      vertex 10.25 -11.7029 -1.50112
      vertex 10.25 0 -10.25
      vertex 10.25 -10.98 0
    endloop
  endfacet
  facet normal 1 0 0
    outer loop
      vertex 10.25 -15.9 -10.25
      vertex 10.25 -11.7029 -1.50112
      vertex 10.25 -13.3272 -1.87186
    endloop
  endfacet
  facet normal 1 0 0
    outer loop
      vertex 10.25 -11.7029 -1.50112
      vertex 10.25 -15.9 -10.25
      vertex 10.25 0 -10.25
    endloop
  endfacet
  facet normal 1 0 0
    outer loop
      vertex 10.25 -14.6299 -0.833056
      vertex 10.25 -15.9 -10.25
      vertex 10.25 -13.3272 -1.87186
    endloop
  endfacet
  facet normal 1 0 0
    outer loop
      vertex 10.25 -15.9 -10.25
      vertex 10.25 -14.6299 -0.833056
      vertex 10.25 -15.9 10.25
    endloop
  endfacet
  facet normal 0 1 0
    outer loop
      vertex 10.25 0 10.25
      vertex 5.5 0 0
      vertex 5.5 0 10.25
    endloop
  endfacet
  facet normal 0 1 -0
    outer loop
      vertex 10.25 0 -10.25
      vertex 5.5 0 0
      vertex 10.25 0 10.25
    endloop
  endfacet
  facet normal 0 1 0
    outer loop
      vertex 0.955065 0 -5.41644
      vertex 10.25 0 -10.25
      vertex -0.955065 0 -5.41644
    endloop
  endfacet
  facet normal 0 1 0
    outer loop
      vertex 2.75 0 -4.76314
      vertex 10.25 0 -10.25
      vertex 0.955065 0 -5.41644
    endloop
  endfacet
  facet normal 0 1 0
    outer loop
      vertex 4.21324 0 -3.53533
      vertex 10.25 0 -10.25
      vertex 2.75 0 -4.76314
    endloop
  endfacet
  facet normal 0 1 0
    outer loop
      vertex 5.16831 0 -1.88111
      vertex 10.25 0 -10.25
      vertex 4.21324 0 -3.53533
    endloop
  endfacet
  facet normal 0 1 0
    outer loop
      vertex 5.5 0 0
      vertex 10.25 0 -10.25
      vertex 5.16831 0 -1.88111
    endloop
  endfacet
  facet normal 0 1 -0
    outer loop
      vertex -5.5 0 0
      vertex -10.25 0 10.25
      vertex -5.5 0 10.25
    endloop
  endfacet
  facet normal 0 1 0
    outer loop
      vertex -10.25 0 -10.25
      vertex -5.5 0 0
      vertex -5.16831 0 -1.88111
    endloop
  endfacet
  facet normal 0 1 0
    outer loop
      vertex -10.25 0 -10.25
      vertex -0.955065 0 -5.41644
      vertex 10.25 0 -10.25
    endloop
  endfacet
  facet normal 0 1 0
    outer loop
      vertex -5.5 0 0
      vertex -10.25 0 -10.25
      vertex -10.25 0 10.25
    endloop
  endfacet
  facet normal 0 1 0
    outer loop
      vertex -4.21324 0 -3.53533
      vertex -10.25 0 -10.25
      vertex -5.16831 0 -1.88111
    endloop
  endfacet
  facet normal 0 1 0
    outer loop
      vertex -2.75 0 -4.76314
      vertex -10.25 0 -10.25
      vertex -4.21324 0 -3.53533
    endloop
  endfacet
  facet normal 0 1 0
    outer loop
      vertex -0.955065 0 -5.41644
      vertex -10.25 0 -10.25
      vertex -2.75 0 -4.76314
    endloop
  endfacet
  facet normal 0 0 -1
    outer loop
      vertex -3 -15.9 -10.25
      vertex -10.25 -15.9 -10.25
      vertex -3 -5.9 -10.25
    endloop
  endfacet
  facet normal 0 0 -1
    outer loop
      vertex 3 -5.9 -10.25
      vertex 10.25 -15.9 -10.25
      vertex 3 -15.9 -10.25
    endloop
  endfacet
  facet normal 0 0 -1
    outer loop
      vertex 10.25 -15.9 -10.25
      vertex 3 -5.9 -10.25
      vertex 10.25 0 -10.25
    endloop
  endfacet
  facet normal 0 0 -1
    outer loop
      vertex -3 -5.9 -10.25
      vertex 10.25 0 -10.25
      vertex 3 -5.9 -10.25
    endloop
  endfacet
  facet normal 0 0 -1
    outer loop
      vertex -3 -5.9 -10.25
      vertex -10.25 0 -10.25
      vertex 10.25 0 -10.25
    endloop
  endfacet
  facet normal 0 0 -1
    outer loop
      vertex -10.25 0 -10.25
      vertex -3 -5.9 -10.25
      vertex -10.25 -15.9 -10.25
    endloop
  endfacet
  facet normal 0 -1 0
    outer loop
      vertex -10.25 -15.9 -10.25
      vertex -3 -15.9 10.25
      vertex -10.25 -15.9 10.25
    endloop
  endfacet
  facet normal 0 -1 -0
    outer loop
      vertex -3 -15.9 10.25
      vertex -10.25 -15.9 -10.25
      vertex -3 -15.9 -10.25
    endloop
  endfacet
  facet normal 0 -1 0
    outer loop
      vertex 3 -15.9 -10.25
      vertex 10.25 -15.9 10.25
      vertex 3 -15.9 10.25
    endloop
  endfacet
  facet normal 0 -1 -0
    outer loop
      vertex 10.25 -15.9 10.25
      vertex 3 -15.9 -10.25
      vertex 10.25 -15.9 -10.25
    endloop
  endfacet
  facet normal 1 0 0
    outer loop
      vertex -3 -5.9 10.25
      vertex -3 -10.98 0
      vertex -3 -5.9 -10.25
    endloop
  endfacet
  facet normal 1 0 0
    outer loop
      vertex -3 -5.9 10.25
      vertex -3 -11.7029 1.50112
      vertex -3 -10.98 0
    endloop
  endfacet
  facet normal 1 -0 0
    outer loop
      vertex -3 -15.9 10.25
      vertex -3 -11.7029 1.50112
      vertex -3 -5.9 10.25
    endloop
  endfacet
  facet normal 1 0 0
    outer loop
      vertex -3 -11.7029 1.50112
      vertex -3 -15.9 10.25
      vertex -3 -13.3272 1.87186
    endloop
  endfacet
  facet normal 1 0 0
    outer loop
      vertex -3 -14.6299 0.833056
      vertex -3 -15.9 10.25
      vertex -3 -14.6299 -0.833056
    endloop
  endfacet
  facet normal 1 0 0
    outer loop
      vertex -3 -13.3272 1.87186
      vertex -3 -15.9 10.25
      vertex -3 -14.6299 0.833056
    endloop
  endfacet
  facet normal 1 -0 0
    outer loop
      vertex -3 -11.7029 -1.50112
      vertex -3 -5.9 -10.25
      vertex -3 -10.98 0
    endloop
  endfacet
  facet normal 1 0 0
    outer loop
      vertex -3 -15.9 -10.25
      vertex -3 -11.7029 -1.50112
      vertex -3 -13.3272 -1.87186
    endloop
  endfacet
  facet normal 1 0 0
    outer loop
      vertex -3 -15.9 -10.25
      vertex -3 -13.3272 -1.87186
      vertex -3 -14.6299 -0.833056
    endloop
  endfacet
  facet normal 1 0 0
    outer loop
      vertex -3 -11.7029 -1.50112
      vertex -3 -15.9 -10.25
      vertex -3 -5.9 -10.25
    endloop
  endfacet
  facet normal 1 0 0
    outer loop
      vertex -3 -15.9 -10.25
      vertex -3 -14.6299 -0.833056
      vertex -3 -15.9 10.25
    endloop
  endfacet
  facet normal -1 0 0
    outer loop
      vertex 3 -5.9 -10.25
      vertex 3 -10.98 0
      vertex 3 -5.9 10.25
    endloop
  endfacet
  facet normal -1 0 0
    outer loop
      vertex 3 -5.9 -10.25
      vertex 3 -11.7029 -1.50112
      vertex 3 -10.98 0
    endloop
  endfacet
  facet normal -1 0 0
    outer loop
      vertex 3 -15.9 -10.25
      vertex 3 -11.7029 -1.50112
      vertex 3 -5.9 -10.25
    endloop
  endfacet
  facet normal -1 0 0
    outer loop
      vertex 3 -11.7029 -1.50112
      vertex 3 -15.9 -10.25
      vertex 3 -13.3272 -1.87186
    endloop
  endfacet
  facet normal -1 -0 0
    outer loop
      vertex 3 -14.6299 -0.833056
      vertex 3 -15.9 -10.25
      vertex 3 -14.6299 0.833056
    endloop
  endfacet
  facet normal -1 -0 0
    outer loop
      vertex 3 -13.3272 -1.87186
      vertex 3 -15.9 -10.25
      vertex 3 -14.6299 -0.833056
    endloop
  endfacet
  facet normal -1 0 0
    outer loop
      vertex 3 -11.7029 1.50112
      vertex 3 -5.9 10.25
      vertex 3 -10.98 0
    endloop
  endfacet
  facet normal -1 0 0
    outer loop
      vertex 3 -15.9 10.25
      vertex 3 -11.7029 1.50112
      vertex 3 -13.3272 1.87186
    endloop
  endfacet
  facet normal -1 0 0
    outer loop
      vertex 3 -15.9 10.25
      vertex 3 -13.3272 1.87186
      vertex 3 -14.6299 0.833056
    endloop
  endfacet
  facet normal -1 0 0
    outer loop
      vertex 3 -11.7029 1.50112
      vertex 3 -15.9 10.25
      vertex 3 -5.9 10.25
    endloop
  endfacet
  facet normal -1 0 0
    outer loop
      vertex 3 -15.9 10.25
      vertex 3 -14.6299 0.833056
      vertex 3 -15.9 -10.25
    endloop
  endfacet
  facet normal 0 -1 0
    outer loop
      vertex -3 -5.9 -10.25
      vertex 3 -5.9 10.25
      vertex -3 -5.9 10.25
    endloop
  endfacet
  facet normal 0 -1 -0
    outer loop
      vertex 3 -5.9 10.25
      vertex -3 -5.9 -10.25
      vertex 3 -5.9 -10.25
    endloop
  endfacet
  facet normal 0 -0.900969 -0.433884
    outer loop
      vertex -10.25 -10.98 0
      vertex -3 -11.7029 1.50112
      vertex -10.25 -11.7029 1.50112
    endloop
  endfacet
  facet normal 0 -0.900969 -0.433884
    outer loop
      vertex -3 -11.7029 1.50112
      vertex -10.25 -10.98 0
      vertex -3 -10.98 0
    endloop
  endfacet
  facet normal 0 -0.900969 -0.433884
    outer loop
      vertex 3 -10.98 0
      vertex 10.25 -11.7029 1.50112
      vertex 3 -11.7029 1.50112
    endloop
  endfacet
  facet normal 0 -0.900969 -0.433884
    outer loop
      vertex 10.25 -11.7029 1.50112
      vertex 3 -10.98 0
      vertex 10.25 -10.98 0
    endloop
  endfacet
  facet normal 0 1 -0
    outer loop
      vertex -3 -14.6299 -0.833056
      vertex -10.25 -14.6299 0.833056
      vertex -3 -14.6299 0.833056
    endloop
  endfacet
  facet normal 0 1 0
    outer loop
      vertex -10.25 -14.6299 0.833056
      vertex -3 -14.6299 -0.833056
      vertex -10.25 -14.6299 -0.833056
    endloop
  endfacet
  facet normal 0 1 -0
    outer loop
      vertex 10.25 -14.6299 -0.833056
      vertex 3 -14.6299 0.833056
      vertex 10.25 -14.6299 0.833056
    endloop
  endfacet
  facet normal 0 1 0
    outer loop
      vertex 3 -14.6299 0.833056
      vertex 10.25 -14.6299 -0.833056
      vertex 3 -14.6299 -0.833056
    endloop
  endfacet
  facet normal 0 -0.222521 -0.974928
    outer loop
      vertex -10.25 -13.3272 1.87186
      vertex -3 -11.7029 1.50112
      vertex -3 -13.3272 1.87186
    endloop
  endfacet
  facet normal -0 -0.222521 -0.974928
    outer loop
      vertex -3 -11.7029 1.50112
      vertex -10.25 -13.3272 1.87186
      vertex -10.25 -11.7029 1.50112
    endloop
  endfacet
  facet normal 0 -0.222521 -0.974928
    outer loop
      vertex 3 -13.3272 1.87186
      vertex 10.25 -11.7029 1.50112
      vertex 10.25 -13.3272 1.87186
    endloop
  endfacet
  facet normal -0 -0.222521 -0.974928
    outer loop
      vertex 10.25 -11.7029 1.50112
      vertex 3 -13.3272 1.87186
      vertex 3 -11.7029 1.50112
    endloop
  endfacet
  facet normal 0 0.62349 -0.781831
    outer loop
      vertex -10.25 -14.6299 0.833056
      vertex -3 -13.3272 1.87186
      vertex -3 -14.6299 0.833056
    endloop
  endfacet
  facet normal 0 0.62349 -0.781831
    outer loop
      vertex -3 -13.3272 1.87186
      vertex -10.25 -14.6299 0.833056
      vertex -10.25 -13.3272 1.87186
    endloop
  endfacet
  facet normal 0 0.62349 -0.781831
    outer loop
      vertex 3 -14.6299 0.833056
      vertex 10.25 -13.3272 1.87186
      vertex 10.25 -14.6299 0.833056
    endloop
  endfacet
  facet normal 0 0.62349 -0.781831
    outer loop
      vertex 10.25 -13.3272 1.87186
      vertex 3 -14.6299 0.833056
      vertex 3 -13.3272 1.87186
    endloop
  endfacet
  facet normal 0 -0.900969 0.433884
    outer loop
      vertex -10.25 -11.7029 -1.50112
      vertex -3 -10.98 0
      vertex -10.25 -10.98 0
    endloop
  endfacet
  facet normal 0 -0.900969 0.433884
    outer loop
      vertex -3 -10.98 0
      vertex -10.25 -11.7029 -1.50112
      vertex -3 -11.7029 -1.50112
    endloop
  endfacet
  facet normal 0 -0.900969 0.433884
    outer loop
      vertex 3 -11.7029 -1.50112
      vertex 10.25 -10.98 0
      vertex 3 -10.98 0
    endloop
  endfacet
  facet normal 0 -0.900969 0.433884
    outer loop
      vertex 10.25 -10.98 0
      vertex 3 -11.7029 -1.50112
      vertex 10.25 -11.7029 -1.50112
    endloop
  endfacet
  facet normal 0 -0.222521 0.974928
    outer loop
      vertex -10.25 -11.7029 -1.50112
      vertex -3 -13.3272 -1.87186
      vertex -3 -11.7029 -1.50112
    endloop
  endfacet
  facet normal 0 -0.222521 0.974928
    outer loop
      vertex -3 -13.3272 -1.87186
      vertex -10.25 -11.7029 -1.50112
      vertex -10.25 -13.3272 -1.87186
    endloop
  endfacet
  facet normal 0 -0.222521 0.974928
    outer loop
      vertex 3 -11.7029 -1.50112
      vertex 10.25 -13.3272 -1.87186
      vertex 10.25 -11.7029 -1.50112
    endloop
  endfacet
  facet normal 0 -0.222521 0.974928
    outer loop
      vertex 10.25 -13.3272 -1.87186
      vertex 3 -11.7029 -1.50112
      vertex 3 -13.3272 -1.87186
    endloop
  endfacet
  facet normal -0 0.62349 0.781831
    outer loop
      vertex -10.25 -13.3272 -1.87186
      vertex -3 -14.6299 -0.833056
      vertex -3 -13.3272 -1.87186
    endloop
  endfacet
  facet normal 0 0.62349 0.781831
    outer loop
      vertex -3 -14.6299 -0.833056
      vertex -10.25 -13.3272 -1.87186
      vertex -10.25 -14.6299 -0.833056
    endloop
  endfacet
  facet normal -0 0.62349 0.781831
    outer loop
      vertex 3 -13.3272 -1.87186
      vertex 10.25 -14.6299 -0.833056
      vertex 10.25 -13.3272 -1.87186
    endloop
  endfacet
  facet normal 0 0.62349 0.781831
    outer loop
      vertex 10.25 -14.6299 -0.833056
      vertex 3 -13.3272 -1.87186
      vertex 3 -14.6299 -0.833056
    endloop
  endfacet
  facet normal -0.993712 -0 -0.111965
    outer loop
      vertex 8.53062 -0.999999 1.94706
      vertex 8.75 -1 0
      vertex 8.53062 -1 1.94706
    endloop
  endfacet
  facet normal 3.21995e-007 -1 2.02323e-007
    outer loop
      vertex -7.88348 -1 -3.79648
      vertex -6.84103 -1 -5.45553
      vertex -8.53062 -0.999999 1.94706
    endloop
  endfacet
  facet normal 0 -1 9.1838e-008
    outer loop
      vertex 5.5 -0.999999 0
      vertex 8.53062 -0.999999 1.94706
      vertex 5.5 -0.999999 1.94706
    endloop
  endfacet
  facet normal -2.33276e-009 -1 9.5469e-008
    outer loop
      vertex 5.16831 -0.999999 -1.88111
      vertex 8.53062 -0.999999 1.94706
      vertex 5.5 -0.999999 0
    endloop
  endfacet
  facet normal 2.86473e-008 -1 6.8259e-008
    outer loop
      vertex 8.53062 -0.999999 1.94706
      vertex 5.16831 -0.999999 -1.88111
      vertex 4.35667 -1 -3.2869
    endloop
  endfacet
  facet normal 0 -1 9.1838e-008
    outer loop
      vertex -8.53062 -0.999999 1.94706
      vertex -5.5 -0.999999 0
      vertex -5.5 -0.999999 1.94706
    endloop
  endfacet
  facet normal 2.33276e-009 -1 9.5469e-008
    outer loop
      vertex -8.53062 -0.999999 1.94706
      vertex -5.16831 -0.999999 -1.88111
      vertex -5.5 -0.999999 0
    endloop
  endfacet
  facet normal -2.86473e-008 -1 6.8259e-008
    outer loop
      vertex -5.16831 -0.999999 -1.88111
      vertex -8.53062 -0.999999 1.94706
      vertex -4.35667 -1 -3.2869
    endloop
  endfacet
  facet normal 0 -1 8.94009e-008
    outer loop
      vertex -0.955065 -1 -5.41644
      vertex 0 -1 -8.75
      vertex 0.955065 -1 -5.41644
    endloop
  endfacet
  facet normal -7.45588e-010 -1 8.91873e-008
    outer loop
      vertex -2.75 -1 -4.76314
      vertex 0 -1 -8.75
      vertex -0.955065 -1 -5.41644
    endloop
  endfacet
  facet normal -3.93512e-008 -1 6.25585e-008
    outer loop
      vertex 0 -1 -8.75
      vertex -2.75 -1 -4.76314
      vertex -4.04795 -1 -3.67403
    endloop
  endfacet
  facet normal 3.9351e-008 -1 6.25586e-008
    outer loop
      vertex 2.75 -1 -4.76314
      vertex 0 -1 -8.75
      vertex 4.04795 -1 -3.67403
    endloop
  endfacet
  facet normal 7.45589e-010 -1 8.91873e-008
    outer loop
      vertex 0 -1 -8.75
      vertex 2.75 -1 -4.76314
      vertex 0.955065 -1 -5.41644
    endloop
  endfacet
  facet normal -0.707107 0 -0.707107
    outer loop
      vertex 6.84103 -1 5.45553
      vertex 5.5 -0.999999 6.79656
      vertex 6.84103 -0.999999 5.45553
    endloop
  endfacet
  facet normal -0.707107 -0 -0.707107
    outer loop
      vertex 5.5 -0.999999 6.79656
      vertex 6.84103 -1 5.45553
      vertex 5.5 -1 6.79656
    endloop
  endfacet
  facet normal -0.111965 0 0.993712
    outer loop
      vertex 0 -1 -8.75
      vertex 1.94706 -2.9 -8.53062
      vertex 1.94706 -1 -8.53062
    endloop
  endfacet
  facet normal -0.111965 0 0.993712
    outer loop
      vertex 1.94706 -2.9 -8.53062
      vertex 0 -1 -8.75
      vertex 0 -2.9 -8.75
    endloop
  endfacet
  facet normal -1.66931e-007 -1 1.66931e-007
    outer loop
      vertex 6.84103 -1 -5.45553
      vertex 8.53062 -0.999999 1.94706
      vertex 5.45553 -1 -6.84103
    endloop
  endfacet
  facet normal -0.846724 0 -0.532032
    outer loop
      vertex 7.88348 -1 3.79648
      vertex 6.84103 -0.999999 5.45553
      vertex 7.88348 -0.999999 3.79648
    endloop
  endfacet
  facet normal -0.846724 -0 -0.532032
    outer loop
      vertex 6.84103 -0.999999 5.45553
      vertex 7.88348 -1 3.79648
      vertex 6.84103 -1 5.45553
    endloop
  endfacet
  facet normal 0.111965 0 0.993712
    outer loop
      vertex -1.94706 -1 -8.53062
      vertex 0 -2.9 -8.75
      vertex 0 -1 -8.75
    endloop
  endfacet
  facet normal 0.111965 0 0.993712
    outer loop
      vertex 0 -2.9 -8.75
      vertex -1.94706 -1 -8.53062
      vertex -1.94706 -2.9 -8.53062
    endloop
  endfacet
  facet normal -4.08252e-008 -1 1.16672e-007
    outer loop
      vertex 3.79648 -1 -7.88348
      vertex 8.53062 -0.999999 1.94706
      vertex 1.94706 -1 -8.53062
    endloop
  endfacet
  facet normal -0.846724 0 0.532032
    outer loop
      vertex 6.84103 -2.9 -5.45553
      vertex 7.88348 -1 -3.79648
      vertex 6.84103 -1 -5.45553
    endloop
  endfacet
  facet normal -0.846724 0 0.532032
    outer loop
      vertex 7.88348 -1 -3.79648
      vertex 6.84103 -2.9 -5.45553
      vertex 7.88348 -2.9 -3.79648
    endloop
  endfacet
  facet normal 2.17355e-006 -1 2.44901e-007
    outer loop
      vertex -8.53062 -1 -1.94706
      vertex -8.53062 -0.999999 1.94706
      vertex -8.75 -1 0
    endloop
  endfacet
  facet normal -0.943883 0 -0.330279
    outer loop
      vertex 8.53062 -1 1.94706
      vertex 7.88348 -0.999999 3.79648
      vertex 8.53062 -0.999999 1.94706
    endloop
  endfacet
  facet normal -0.943883 -0 -0.330279
    outer loop
      vertex 7.88348 -0.999999 3.79648
      vertex 8.53062 -1 1.94706
      vertex 7.88348 -1 3.79648
    endloop
  endfacet
  facet normal -2.17355e-006 -1 2.44901e-007
    outer loop
      vertex 8.75 -1 0
      vertex 8.53062 -0.999999 1.94706
      vertex 8.53062 -1 -1.94706
    endloop
  endfacet
  facet normal 0.330279 0 0.943883
    outer loop
      vertex -3.79648 -1 -7.88348
      vertex -1.94706 -2.9 -8.53062
      vertex -1.94706 -1 -8.53062
    endloop
  endfacet
  facet normal 0.330279 0 0.943883
    outer loop
      vertex -1.94706 -2.9 -8.53062
      vertex -3.79648 -1 -7.88348
      vertex -3.79648 -2.9 -7.88348
    endloop
  endfacet
  facet normal -8.74043e-008 -1 1.39103e-007
    outer loop
      vertex 5.45553 -1 -6.84103
      vertex 8.53062 -0.999999 1.94706
      vertex 3.79648 -1 -7.88348
    endloop
  endfacet
  facet normal 4.13879e-007 -1 -2.38953e-007
    outer loop
      vertex 4.21324 -1 -3.53533
      vertex 8.53062 -0.999999 1.94706
      vertex 4.35667 -1 -3.2869
    endloop
  endfacet
  facet normal -2.54056e-008 -1 1.06983e-007
    outer loop
      vertex 4.21324 -1 -3.53533
      vertex 1.94706 -1 -8.53062
      vertex 8.53062 -0.999999 1.94706
    endloop
  endfacet
  facet normal -1.29331e-007 -1 1.5413e-007
    outer loop
      vertex 4.04795 -1 -3.67403
      vertex 1.94706 -1 -8.53062
      vertex 4.21324 -1 -3.53533
    endloop
  endfacet
  facet normal -1.16295e-008 -1 1.03214e-007
    outer loop
      vertex 1.94706 -1 -8.53062
      vertex 4.04795 -1 -3.67403
      vertex 0 -1 -8.75
    endloop
  endfacet
  facet normal -6.99888e-007 -1 2.44901e-007
    outer loop
      vertex 8.53062 -1 -1.94706
      vertex 8.53062 -0.999999 1.94706
      vertex 7.88348 -1 -3.79648
    endloop
  endfacet
  facet normal 0.707107 0 -0.707107
    outer loop
      vertex -5.5 -1 6.79656
      vertex -6.84103 -0.999999 5.45553
      vertex -5.5 -0.999999 6.79656
    endloop
  endfacet
  facet normal 0.707107 0 -0.707107
    outer loop
      vertex -6.84103 -0.999999 5.45553
      vertex -5.5 -1 6.79656
      vertex -6.84103 -1 5.45553
    endloop
  endfacet
  facet normal 0 1 -0
    outer loop
      vertex 8.75 -2.9 0
      vertex -8.75 -2.9 10.25
      vertex 8.75 -2.9 10.25
    endloop
  endfacet
  facet normal 0 1 0
    outer loop
      vertex 8.75 -2.9 0
      vertex -8.75 -2.9 0
      vertex -8.75 -2.9 10.25
    endloop
  endfacet
  facet normal 0 1 -0
    outer loop
      vertex 8.53062 -2.9 -1.94706
      vertex -8.75 -2.9 0
      vertex 8.75 -2.9 0
    endloop
  endfacet
  facet normal 0 1 0
    outer loop
      vertex 8.53062 -2.9 -1.94706
      vertex -8.53062 -2.9 -1.94706
      vertex -8.75 -2.9 0
    endloop
  endfacet
  facet normal 0 1 -0
    outer loop
      vertex 7.88348 -2.9 -3.79648
      vertex -8.53062 -2.9 -1.94706
      vertex 8.53062 -2.9 -1.94706
    endloop
  endfacet
  facet normal 0 1 0
    outer loop
      vertex 7.88348 -2.9 -3.79648
      vertex -7.88348 -2.9 -3.79648
      vertex -8.53062 -2.9 -1.94706
    endloop
  endfacet
  facet normal 0 1 -0
    outer loop
      vertex 6.84103 -2.9 -5.45553
      vertex -7.88348 -2.9 -3.79648
      vertex 7.88348 -2.9 -3.79648
    endloop
  endfacet
  facet normal 0 1 0
    outer loop
      vertex 6.84103 -2.9 -5.45553
      vertex -6.84103 -2.9 -5.45553
      vertex -7.88348 -2.9 -3.79648
    endloop
  endfacet
  facet normal 0 1 -0
    outer loop
      vertex 5.45553 -2.9 -6.84103
      vertex -6.84103 -2.9 -5.45553
      vertex 6.84103 -2.9 -5.45553
    endloop
  endfacet
  facet normal 0 1 0
    outer loop
      vertex 5.45553 -2.9 -6.84103
      vertex -5.45553 -2.9 -6.84103
      vertex -6.84103 -2.9 -5.45553
    endloop
  endfacet
  facet normal 0 1 -0
    outer loop
      vertex 3.79648 -2.9 -7.88348
      vertex -5.45553 -2.9 -6.84103
      vertex 5.45553 -2.9 -6.84103
    endloop
  endfacet
  facet normal 0 1 0
    outer loop
      vertex 3.79648 -2.9 -7.88348
      vertex -3.79648 -2.9 -7.88348
      vertex -5.45553 -2.9 -6.84103
    endloop
  endfacet
  facet normal 0 1 -0
    outer loop
      vertex 1.94706 -2.9 -8.53062
      vertex -3.79648 -2.9 -7.88348
      vertex 3.79648 -2.9 -7.88348
    endloop
  endfacet
  facet normal 0 1 0
    outer loop
      vertex 1.94706 -2.9 -8.53062
      vertex -1.94706 -2.9 -8.53062
      vertex -3.79648 -2.9 -7.88348
    endloop
  endfacet
  facet normal -0 1 0
    outer loop
      vertex -1.94706 -2.9 -8.53062
      vertex 1.94706 -2.9 -8.53062
      vertex 0 -2.9 -8.75
    endloop
  endfacet
  facet normal 0.707107 -0 0.707107
    outer loop
      vertex -6.84103 -2.9 -5.45553
      vertex -5.45553 -1 -6.84103
      vertex -6.84103 -1 -5.45553
    endloop
  endfacet
  facet normal 0.707107 0 0.707107
    outer loop
      vertex -5.45553 -1 -6.84103
      vertex -6.84103 -2.9 -5.45553
      vertex -5.45553 -2.9 -6.84103
    endloop
  endfacet
  facet normal 0.943883 -0 0.330279
    outer loop
      vertex -8.53062 -2.9 -1.94706
      vertex -7.88348 -1 -3.79648
      vertex -8.53062 -1 -1.94706
    endloop
  endfacet
  facet normal 0.943883 0 0.330279
    outer loop
      vertex -7.88348 -1 -3.79648
      vertex -8.53062 -2.9 -1.94706
      vertex -7.88348 -2.9 -3.79648
    endloop
  endfacet
  facet normal 0.532032 0 0.846724
    outer loop
      vertex -5.45553 -1 -6.84103
      vertex -3.79648 -2.9 -7.88348
      vertex -3.79648 -1 -7.88348
    endloop
  endfacet
  facet normal 0.532032 0 0.846724
    outer loop
      vertex -3.79648 -2.9 -7.88348
      vertex -5.45553 -1 -6.84103
      vertex -5.45553 -2.9 -6.84103
    endloop
  endfacet
  facet normal -0.330279 0 0.943883
    outer loop
      vertex 1.94706 -1 -8.53062
      vertex 3.79648 -2.9 -7.88348
      vertex 3.79648 -1 -7.88348
    endloop
  endfacet
  facet normal -0.330279 0 0.943883
    outer loop
      vertex 3.79648 -2.9 -7.88348
      vertex 1.94706 -1 -8.53062
      vertex 1.94706 -2.9 -8.53062
    endloop
  endfacet
  facet normal -0.532032 0 0.846724
    outer loop
      vertex 3.79648 -1 -7.88348
      vertex 5.45553 -2.9 -6.84103
      vertex 5.45553 -1 -6.84103
    endloop
  endfacet
  facet normal -0.532032 0 0.846724
    outer loop
      vertex 5.45553 -2.9 -6.84103
      vertex 3.79648 -1 -7.88348
      vertex 3.79648 -2.9 -7.88348
    endloop
  endfacet
  facet normal -0.707107 0 0.707107
    outer loop
      vertex 5.45553 -2.9 -6.84103
      vertex 6.84103 -1 -5.45553
      vertex 5.45553 -1 -6.84103
    endloop
  endfacet
  facet normal -0.707107 0 0.707107
    outer loop
      vertex 6.84103 -1 -5.45553
      vertex 5.45553 -2.9 -6.84103
      vertex 6.84103 -2.9 -5.45553
    endloop
  endfacet
  facet normal -3.21995e-007 -1 2.02323e-007
    outer loop
      vertex 7.88348 -1 -3.79648
      vertex 8.53062 -0.999999 1.94706
      vertex 6.84103 -1 -5.45553
    endloop
  endfacet
  facet normal -0.943883 0 0.330279
    outer loop
      vertex 7.88348 -2.9 -3.79648
      vertex 8.53062 -1 -1.94706
      vertex 7.88348 -1 -3.79648
    endloop
  endfacet
  facet normal -0.943883 0 0.330279
    outer loop
      vertex 8.53062 -1 -1.94706
      vertex 7.88348 -2.9 -3.79648
      vertex 8.53062 -2.9 -1.94706
    endloop
  endfacet
  facet normal -0.993712 0 0.111965
    outer loop
      vertex 8.53062 -2.9 -1.94706
      vertex 8.75 -1 0
      vertex 8.53062 -1 -1.94706
    endloop
  endfacet
  facet normal -0.993712 0 0.111965
    outer loop
      vertex 8.75 -1 0
      vertex 8.53062 -2.9 -1.94706
      vertex 8.75 -2.9 0
    endloop
  endfacet
  facet normal 0 -1 0
    outer loop
      vertex 5.5 -0.999999 1.94706
      vertex 6.84103 -0.999999 5.45553
      vertex 5.5 -0.999999 6.79656
    endloop
  endfacet
  facet normal 0 -1 -0
    outer loop
      vertex 6.84103 -0.999999 5.45553
      vertex 5.5 -0.999999 1.94706
      vertex 7.88348 -0.999999 3.79648
    endloop
  endfacet
  facet normal 0 -1 -0
    outer loop
      vertex 7.88348 -0.999999 3.79648
      vertex 5.5 -0.999999 1.94706
      vertex 8.53062 -0.999999 1.94706
    endloop
  endfacet
  facet normal 0 -1 0
    outer loop
      vertex -5.5 -0.999999 1.94706
      vertex -6.84103 -0.999999 5.45553
      vertex -7.88348 -0.999999 3.79648
    endloop
  endfacet
  facet normal 0 -1 0
    outer loop
      vertex -5.5 -0.999999 1.94706
      vertex -7.88348 -0.999999 3.79648
      vertex -8.53062 -0.999999 1.94706
    endloop
  endfacet
  facet normal 0 -1 0
    outer loop
      vertex -6.84103 -0.999999 5.45553
      vertex -5.5 -0.999999 1.94706
      vertex -5.5 -0.999999 6.79656
    endloop
  endfacet
  facet normal 0.993712 0 -0.111965
    outer loop
      vertex -8.53062 -0.999999 1.94706
      vertex -8.53062 -1 1.94706
      vertex -8.75 -1 0
    endloop
  endfacet
  facet normal 0.993712 -0 0.111965
    outer loop
      vertex -8.75 -2.9 0
      vertex -8.53062 -1 -1.94706
      vertex -8.75 -1 0
    endloop
  endfacet
  facet normal 0.993712 0 0.111965
    outer loop
      vertex -8.53062 -1 -1.94706
      vertex -8.75 -2.9 0
      vertex -8.53062 -2.9 -1.94706
    endloop
  endfacet
  facet normal 6.99888e-007 -1 2.44901e-007
    outer loop
      vertex -7.88348 -1 -3.79648
      vertex -8.53062 -0.999999 1.94706
      vertex -8.53062 -1 -1.94706
    endloop
  endfacet
  facet normal 0.846724 -0 0.532032
    outer loop
      vertex -7.88348 -2.9 -3.79648
      vertex -6.84103 -1 -5.45553
      vertex -7.88348 -1 -3.79648
    endloop
  endfacet
  facet normal 0.846724 0 0.532032
    outer loop
      vertex -6.84103 -1 -5.45553
      vertex -7.88348 -2.9 -3.79648
      vertex -6.84103 -2.9 -5.45553
    endloop
  endfacet
  facet normal 1.66931e-007 -1 1.66931e-007
    outer loop
      vertex -6.84103 -1 -5.45553
      vertex -5.45553 -1 -6.84103
      vertex -8.53062 -0.999999 1.94706
    endloop
  endfacet
  facet normal 0.943883 0 -0.330279
    outer loop
      vertex -7.88348 -1 3.79648
      vertex -8.53062 -0.999999 1.94706
      vertex -7.88348 -0.999999 3.79648
    endloop
  endfacet
  facet normal 0.943883 0 -0.330279
    outer loop
      vertex -8.53062 -0.999999 1.94706
      vertex -7.88348 -1 3.79648
      vertex -8.53062 -1 1.94706
    endloop
  endfacet
  facet normal 0.846724 0 -0.532032
    outer loop
      vertex -6.84103 -1 5.45553
      vertex -7.88348 -0.999999 3.79648
      vertex -6.84103 -0.999999 5.45553
    endloop
  endfacet
  facet normal 0.846724 0 -0.532032
    outer loop
      vertex -7.88348 -0.999999 3.79648
      vertex -6.84103 -1 5.45553
      vertex -7.88348 -1 3.79648
    endloop
  endfacet
  facet normal 4.08252e-008 -1 1.16672e-007
    outer loop
      vertex -3.79648 -1 -7.88348
      vertex -1.94706 -1 -8.53062
      vertex -8.53062 -0.999999 1.94706
    endloop
  endfacet
  facet normal -4.13879e-007 -1 -2.38953e-007
    outer loop
      vertex -8.53062 -0.999999 1.94706
      vertex -4.21324 -1 -3.53533
      vertex -4.35667 -1 -3.2869
    endloop
  endfacet
  facet normal 2.54056e-008 -1 1.06983e-007
    outer loop
      vertex -1.94706 -1 -8.53062
      vertex -4.21324 -1 -3.53533
      vertex -8.53062 -0.999999 1.94706
    endloop
  endfacet
  facet normal 1.29331e-007 -1 1.5413e-007
    outer loop
      vertex -1.94706 -1 -8.53062
      vertex -4.04795 -1 -3.67403
      vertex -4.21324 -1 -3.53533
    endloop
  endfacet
  facet normal 1.16295e-008 -1 1.03214e-007
    outer loop
      vertex -4.04795 -1 -3.67403
      vertex -1.94706 -1 -8.53062
      vertex 0 -1 -8.75
    endloop
  endfacet
  facet normal 8.74043e-008 -1 1.39103e-007
    outer loop
      vertex -5.45553 -1 -6.84103
      vertex -3.79648 -1 -7.88348
      vertex -8.53062 -0.999999 1.94706
    endloop
  endfacet
  facet normal 1 -0 0
    outer loop
      vertex -8.75 -2.9 10.25
      vertex -8.75 -1 0
      vertex -8.75 -1 10.25
    endloop
  endfacet
  facet normal 1 0 0
    outer loop
      vertex -8.75 -1 0
      vertex -8.75 -2.9 10.25
      vertex -8.75 -2.9 0
    endloop
  endfacet
  facet normal -1 0 0
    outer loop
      vertex 8.75 -2.9 0
      vertex 8.75 -1 10.25
      vertex 8.75 -1 0
    endloop
  endfacet
  facet normal -1 -0 0
    outer loop
      vertex 8.75 -1 10.25
      vertex 8.75 -2.9 0
      vertex 8.75 -2.9 10.25
    endloop
  endfacet
  facet normal 0 -1 0
    outer loop
      vertex 5.5 -1 6.79656
      vertex 8.75 -1 10.25
      vertex 5.5 -1 10.25
    endloop
  endfacet
  facet normal 0 -1 0
    outer loop
      vertex 6.84103 -1 5.45553
      vertex 8.75 -1 10.25
      vertex 5.5 -1 6.79656
    endloop
  endfacet
  facet normal 0 -1 0
    outer loop
      vertex 7.88348 -1 3.79648
      vertex 8.75 -1 10.25
      vertex 6.84103 -1 5.45553
    endloop
  endfacet
  facet normal 0 -1 0
    outer loop
      vertex 8.53062 -1 1.94706
      vertex 8.75 -1 10.25
      vertex 7.88348 -1 3.79648
    endloop
  endfacet
  facet normal 0 -1 -0
    outer loop
      vertex 8.75 -1 10.25
      vertex 8.53062 -1 1.94706
      vertex 8.75 -1 0
    endloop
  endfacet
  facet normal 0 -1 0
    outer loop
      vertex -8.75 -1 10.25
      vertex -5.5 -1 6.79656
      vertex -5.5 -1 10.25
    endloop
  endfacet
  facet normal 0 -1 0
    outer loop
      vertex -8.75 -1 10.25
      vertex -6.84103 -1 5.45553
      vertex -5.5 -1 6.79656
    endloop
  endfacet
  facet normal 0 -1 0
    outer loop
      vertex -8.75 -1 10.25
      vertex -7.88348 -1 3.79648
      vertex -6.84103 -1 5.45553
    endloop
  endfacet
  facet normal 0 -1 0
    outer loop
      vertex -8.75 -1 10.25
      vertex -8.53062 -1 1.94706
      vertex -7.88348 -1 3.79648
    endloop
  endfacet
  facet normal -0 -1 0
    outer loop
      vertex -8.53062 -1 1.94706
      vertex -8.75 -1 10.25
      vertex -8.75 -1 0
    endloop
  endfacet
  facet normal -0 0 1
    outer loop
      vertex -0.955065 0 -5.41644
      vertex 0.955065 -1 -5.41644
      vertex 0.955065 0 -5.41644
    endloop
  endfacet
  facet normal 0 0 1
    outer loop
      vertex 0.955065 -1 -5.41644
      vertex -0.955065 0 -5.41644
      vertex -0.955065 -1 -5.41644
    endloop
  endfacet
  facet normal -0.642788 0 0.766044
    outer loop
      vertex 4.21324 0 -3.53533
      vertex 4.04795 -1 -3.67403
      vertex 4.21324 -1 -3.53533
    endloop
  endfacet
  facet normal -0.642787 -2.02843e-007 0.766045
    outer loop
      vertex 2.75 0 -4.76314
      vertex 4.04795 -1 -3.67403
      vertex 4.21324 0 -3.53533
    endloop
  endfacet
  facet normal -0.642787 0 0.766045
    outer loop
      vertex 4.04795 -1 -3.67403
      vertex 2.75 0 -4.76314
      vertex 2.75 -1 -4.76314
    endloop
  endfacet
  facet normal -0.866025 1.19843e-007 0.5
    outer loop
      vertex 4.35667 -1 -3.2869
      vertex 5.16831 0 -1.88111
      vertex 4.21324 0 -3.53533
    endloop
  endfacet
  facet normal -0.866026 0 0.5
    outer loop
      vertex 4.35667 -1 -3.2869
      vertex 4.21324 0 -3.53533
      vertex 4.21324 -1 -3.53533
    endloop
  endfacet
  facet normal -0.866025 0 0.5
    outer loop
      vertex 5.16831 0 -1.88111
      vertex 4.35667 -1 -3.2869
      vertex 5.16831 -0.999999 -1.88111
    endloop
  endfacet
  facet normal -0.984808 0 0.173648
    outer loop
      vertex 5.16831 0 -1.88111
      vertex 5.5 -0.999999 0
      vertex 5.5 0 0
    endloop
  endfacet
  facet normal -0.984808 0 0.173648
    outer loop
      vertex 5.5 -0.999999 0
      vertex 5.16831 0 -1.88111
      vertex 5.16831 -0.999999 -1.88111
    endloop
  endfacet
  facet normal 0.984808 -0 0.173648
    outer loop
      vertex -5.5 -0.999999 0
      vertex -5.16831 0 -1.88111
      vertex -5.5 0 0
    endloop
  endfacet
  facet normal 0.984808 0 0.173648
    outer loop
      vertex -5.16831 0 -1.88111
      vertex -5.5 -0.999999 0
      vertex -5.16831 -0.999999 -1.88111
    endloop
  endfacet
  facet normal -0.34202 0 0.939693
    outer loop
      vertex 0.955065 0 -5.41644
      vertex 2.75 -1 -4.76314
      vertex 2.75 0 -4.76314
    endloop
  endfacet
  facet normal -0.34202 0 0.939693
    outer loop
      vertex 2.75 -1 -4.76314
      vertex 0.955065 0 -5.41644
      vertex 0.955065 -1 -5.41644
    endloop
  endfacet
  facet normal 0.34202 0 0.939693
    outer loop
      vertex -2.75 0 -4.76314
      vertex -0.955065 -1 -5.41644
      vertex -0.955065 0 -5.41644
    endloop
  endfacet
  facet normal 0.34202 0 0.939693
    outer loop
      vertex -0.955065 -1 -5.41644
      vertex -2.75 0 -4.76314
      vertex -2.75 -1 -4.76314
    endloop
  endfacet
  facet normal 0.866025 0 0.5
    outer loop
      vertex -4.35667 -1 -3.2869
      vertex -5.16831 0 -1.88111
      vertex -5.16831 -0.999999 -1.88111
    endloop
  endfacet
  facet normal 0.866025 1.19843e-007 0.5
    outer loop
      vertex -5.16831 0 -1.88111
      vertex -4.35667 -1 -3.2869
      vertex -4.21324 0 -3.53533
    endloop
  endfacet
  facet normal 0.866026 0 0.5
    outer loop
      vertex -4.21324 0 -3.53533
      vertex -4.35667 -1 -3.2869
      vertex -4.21324 -1 -3.53533
    endloop
  endfacet
  facet normal 0.642788 0 0.766044
    outer loop
      vertex -2.75 0 -4.76314
      vertex -4.04795 -1 -3.67403
      vertex -2.75 -1 -4.76314
    endloop
  endfacet
  facet normal 0.642788 -9.7307e-009 0.766044
    outer loop
      vertex -4.21324 0 -3.53533
      vertex -4.04795 -1 -3.67403
      vertex -2.75 0 -4.76314
    endloop
  endfacet
  facet normal 0.642788 0 0.766044
    outer loop
      vertex -4.04795 -1 -3.67403
      vertex -4.21324 0 -3.53533
      vertex -4.21324 -1 -3.53533
    endloop
  endfacet
  facet normal 1 0 0
    outer loop
      vertex -5.5 0 10.25
      vertex -5.5 -0.999999 6.79656
      vertex -5.5 0 0
    endloop
  endfacet
  facet normal 1 -0 0
    outer loop
      vertex -5.5 -1 10.25
      vertex -5.5 -0.999999 6.79656
      vertex -5.5 0 10.25
    endloop
  endfacet
  facet normal 1 0 0
    outer loop
      vertex -5.5 -0.999999 6.79656
      vertex -5.5 -1 10.25
      vertex -5.5 -1 6.79656
    endloop
  endfacet
  facet normal 1 -0 0
    outer loop
      vertex -5.5 -0.999999 1.94706
      vertex -5.5 0 0
      vertex -5.5 -0.999999 6.79656
    endloop
  endfacet
  facet normal 1 0 0
    outer loop
      vertex -5.5 0 0
      vertex -5.5 -0.999999 1.94706
      vertex -5.5 -0.999999 0
    endloop
  endfacet
  facet normal -1 0 0
    outer loop
      vertex 5.5 -0.999999 6.79656
      vertex 5.5 0 0
      vertex 5.5 -0.999999 1.94706
    endloop
  endfacet
  facet normal -1 0 -0
    outer loop
      vertex 5.5 -0.999999 1.94706
      vertex 5.5 0 0
      vertex 5.5 -0.999999 0
    endloop
  endfacet
  facet normal -1 0 0
    outer loop
      vertex 5.5 0 0
      vertex 5.5 -0.999999 6.79656
      vertex 5.5 0 10.25
    endloop
  endfacet
  facet normal -1 0 0
    outer loop
      vertex 5.5 -1 10.25
      vertex 5.5 -0.999999 6.79656
      vertex 5.5 -1 6.79656
    endloop
  endfacet
  facet normal -1 0 0
    outer loop
      vertex 5.5 -0.999999 6.79656
      vertex 5.5 -1 10.25
      vertex 5.5 0 10.25
    endloop
  endfacet
endsolid OpenSCAD_Model
