solid OpenSCAD_Model
  facet normal -1 0 0
    outer loop
      vertex -25 30.48 0
      vertex -25 8 5
      vertex -25 30.48 5
    endloop
  endfacet
  facet normal -1 0 0
    outer loop
      vertex -25 8 5
      vertex -25 0.9 17.5
      vertex -25 8 34.125
    endloop
  endfacet
  facet normal -1 0 0
    outer loop
      vertex -25 8 5
      vertex -25 -0.9 17.5
      vertex -25 0.9 17.5
    endloop
  endfacet
  facet normal -1 0 0
    outer loop
      vertex -25 -8 34.125
      vertex -25 -0.9 17.5
      vertex -25 -8 5
    endloop
  endfacet
  facet normal -1 0 0
    outer loop
      vertex -25 8 5
      vertex -25 -8 5
      vertex -25 -0.9 17.5
    endloop
  endfacet
  facet normal -1 0 0
    outer loop
      vertex -25 30.48 0
      vertex -25 -8 5
      vertex -25 8 5
    endloop
  endfacet
  facet normal -1 0 0
    outer loop
      vertex -25 -30.48 0
      vertex -25 -8 5
      vertex -25 30.48 0
    endloop
  endfacet
  facet normal -1 -0 0
    outer loop
      vertex -25 -8 5
      vertex -25 -30.48 0
      vertex -25 -30.48 5
    endloop
  endfacet
  facet normal -1 -0 0
    outer loop
      vertex -25 8 34.125
      vertex -25 0.9 17.5
      vertex -25 0.9 34.125
    endloop
  endfacet
  facet normal -1 0 0
    outer loop
      vertex -25 -0.9 17.5
      vertex -25 -8 34.125
      vertex -25 -0.9 34.125
    endloop
  endfacet
  facet normal 0 0 1
    outer loop
      vertex 25 -8 5
      vertex 2.5 -22.86 5
      vertex 25 -30.48 5
    endloop
  endfacet
  facet normal 0 0 1
    outer loop
      vertex 25 -8 5
      vertex 1.76777 -21.0922 5
      vertex 2.5 -22.86 5
    endloop
  endfacet
  facet normal 0 0 1
    outer loop
      vertex 25 -8 5
      vertex 0 -20.36 5
      vertex 1.76777 -21.0922 5
    endloop
  endfacet
  facet normal -0 0 1
    outer loop
      vertex -25 -8 5
      vertex 0 -20.36 5
      vertex 25 -8 5
    endloop
  endfacet
  facet normal 0 0 1
    outer loop
      vertex -1.76777 -21.0922 5
      vertex -25 -8 5
      vertex -2.5 -22.86 5
    endloop
  endfacet
  facet normal 0 0 1
    outer loop
      vertex 0 -20.36 5
      vertex -25 -8 5
      vertex -1.76777 -21.0922 5
    endloop
  endfacet
  facet normal -0 0 1
    outer loop
      vertex 1.76777 -24.6278 5
      vertex 25 -30.48 5
      vertex 2.5 -22.86 5
    endloop
  endfacet
  facet normal -0 0 1
    outer loop
      vertex 0 -25.36 5
      vertex 25 -30.48 5
      vertex 1.76777 -24.6278 5
    endloop
  endfacet
  facet normal 0 0 1
    outer loop
      vertex -25 -30.48 5
      vertex -2.5 -22.86 5
      vertex -25 -8 5
    endloop
  endfacet
  facet normal 0 0 1
    outer loop
      vertex 0 -25.36 5
      vertex -25 -30.48 5
      vertex 25 -30.48 5
    endloop
  endfacet
  facet normal 0 0 1
    outer loop
      vertex -1.76777 -24.6278 5
      vertex -25 -30.48 5
      vertex 0 -25.36 5
    endloop
  endfacet
  facet normal 0 0 1
    outer loop
      vertex -2.5 -22.86 5
      vertex -25 -30.48 5
      vertex -1.76777 -24.6278 5
    endloop
  endfacet
  facet normal 0 0 1
    outer loop
      vertex 25 30.48 5
      vertex 2.5 22.86 5
      vertex 25 8 5
    endloop
  endfacet
  facet normal 0 0 1
    outer loop
      vertex 25 30.48 5
      vertex 1.76777 24.6278 5
      vertex 2.5 22.86 5
    endloop
  endfacet
  facet normal 0 0 1
    outer loop
      vertex 25 30.48 5
      vertex 0 25.36 5
      vertex 1.76777 24.6278 5
    endloop
  endfacet
  facet normal 0 0 1
    outer loop
      vertex -1.76777 24.6278 5
      vertex -25 30.48 5
      vertex -2.5 22.86 5
    endloop
  endfacet
  facet normal 0 0 1
    outer loop
      vertex 0 25.36 5
      vertex -25 30.48 5
      vertex -1.76777 24.6278 5
    endloop
  endfacet
  facet normal -0 0 1
    outer loop
      vertex -25 30.48 5
      vertex 0 25.36 5
      vertex 25 30.48 5
    endloop
  endfacet
  facet normal -0 0 1
    outer loop
      vertex 1.76777 21.0922 5
      vertex 25 8 5
      vertex 2.5 22.86 5
    endloop
  endfacet
  facet normal -0 0 1
    outer loop
      vertex 0 20.36 5
      vertex 25 8 5
      vertex 1.76777 21.0922 5
    endloop
  endfacet
  facet normal 0 0 1
    outer loop
      vertex -25 8 5
      vertex 0 20.36 5
      vertex -1.76777 21.0922 5
    endloop
  endfacet
  facet normal 0 0 1
    outer loop
      vertex -25 8 5
      vertex -2.5 22.86 5
      vertex -25 30.48 5
    endloop
  endfacet
  facet normal 0 0 1
    outer loop
      vertex -2.5 22.86 5
      vertex -25 8 5
      vertex -1.76777 21.0922 5
    endloop
  endfacet
  facet normal 0 0 1
    outer loop
      vertex 0 20.36 5
      vertex -25 8 5
      vertex 25 8 5
    endloop
  endfacet
  facet normal 1 0 0
    outer loop
      vertex 25 -0.9 34.125
      vertex 25 -8 34.125
      vertex 25 -0.9 17.5
    endloop
  endfacet
  facet normal 1 0 0
    outer loop
      vertex 25 0.9 17.5
      vertex 25 8 34.125
      vertex 25 0.9 34.125
    endloop
  endfacet
  facet normal 1 -0 0
    outer loop
      vertex 25 8 5
      vertex 25 30.48 0
      vertex 25 30.48 5
    endloop
  endfacet
  facet normal 1 0 0
    outer loop
      vertex 25 8 34.125
      vertex 25 0.9 17.5
      vertex 25 8 5
    endloop
  endfacet
  facet normal 1 -0 0
    outer loop
      vertex 25 -0.9 17.5
      vertex 25 8 5
      vertex 25 0.9 17.5
    endloop
  endfacet
  facet normal 1 0 0
    outer loop
      vertex 25 -8 5
      vertex 25 -0.9 17.5
      vertex 25 -8 34.125
    endloop
  endfacet
  facet normal 1 0 0
    outer loop
      vertex 25 -8 5
      vertex 25 8 5
      vertex 25 -0.9 17.5
    endloop
  endfacet
  facet normal 1 -0 0
    outer loop
      vertex 25 -8 5
      vertex 25 30.48 0
      vertex 25 8 5
    endloop
  endfacet
  facet normal 1 0 0
    outer loop
      vertex 25 -30.48 0
      vertex 25 -8 5
      vertex 25 -30.48 5
    endloop
  endfacet
  facet normal 1 0 0
    outer loop
      vertex 25 -8 5
      vertex 25 -30.48 0
      vertex 25 30.48 0
    endloop
  endfacet
  facet normal 0 1 -0
    outer loop
      vertex 25 30.48 0
      vertex -25 30.48 5
      vertex 25 30.48 5
    endloop
  endfacet
  facet normal 0 1 0
    outer loop
      vertex -25 30.48 5
      vertex 25 30.48 0
      vertex -25 30.48 0
    endloop
  endfacet
  facet normal 0 0 -1
    outer loop
      vertex 1.76777 21.0922 0
      vertex 25 30.48 0
      vertex 1.76777 -21.0922 0
    endloop
  endfacet
  facet normal 0 0 -1
    outer loop
      vertex 25 30.48 0
      vertex 1.76777 21.0922 0
      vertex 2.5 22.86 0
    endloop
  endfacet
  facet normal 0 0 -1
    outer loop
      vertex 0 -20.36 0
      vertex 1.76777 21.0922 0
      vertex 1.76777 -21.0922 0
    endloop
  endfacet
  facet normal 0 0 -1
    outer loop
      vertex 0 -20.36 0
      vertex 0 20.36 0
      vertex 1.76777 21.0922 0
    endloop
  endfacet
  facet normal 0 0 -1
    outer loop
      vertex -1.76777 -21.0922 0
      vertex 0 20.36 0
      vertex 0 -20.36 0
    endloop
  endfacet
  facet normal 0 0 -1
    outer loop
      vertex -1.76777 -21.0922 0
      vertex -1.76777 21.0922 0
      vertex 0 20.36 0
    endloop
  endfacet
  facet normal 0 0 -1
    outer loop
      vertex -25 -30.48 0
      vertex -1.76777 -21.0922 0
      vertex -2.5 -22.86 0
    endloop
  endfacet
  facet normal -0 0 -1
    outer loop
      vertex -1.76777 -21.0922 0
      vertex -25 -30.48 0
      vertex -1.76777 21.0922 0
    endloop
  endfacet
  facet normal 0 0 -1
    outer loop
      vertex 1.76777 -21.0922 0
      vertex 25 -30.48 0
      vertex 2.5 -22.86 0
    endloop
  endfacet
  facet normal 0 0 -1
    outer loop
      vertex 25 -30.48 0
      vertex 1.76777 -24.6278 0
      vertex 2.5 -22.86 0
    endloop
  endfacet
  facet normal 0 0 -1
    outer loop
      vertex 25 -30.48 0
      vertex 0 -25.36 0
      vertex 1.76777 -24.6278 0
    endloop
  endfacet
  facet normal 0 0 -1
    outer loop
      vertex -25 30.48 0
      vertex -1.76777 21.0922 0
      vertex -25 -30.48 0
    endloop
  endfacet
  facet normal -0 0 -1
    outer loop
      vertex -1.76777 -24.6278 0
      vertex -25 -30.48 0
      vertex -2.5 -22.86 0
    endloop
  endfacet
  facet normal -0 0 -1
    outer loop
      vertex 0 -25.36 0
      vertex -25 -30.48 0
      vertex -1.76777 -24.6278 0
    endloop
  endfacet
  facet normal 0 0 -1
    outer loop
      vertex -25 -30.48 0
      vertex 0 -25.36 0
      vertex 25 -30.48 0
    endloop
  endfacet
  facet normal 0 0 -1
    outer loop
      vertex 25 -30.48 0
      vertex 1.76777 -21.0922 0
      vertex 25 30.48 0
    endloop
  endfacet
  facet normal 0 0 -1
    outer loop
      vertex 1.76777 24.6278 0
      vertex 25 30.48 0
      vertex 2.5 22.86 0
    endloop
  endfacet
  facet normal 0 0 -1
    outer loop
      vertex 0 25.36 0
      vertex 25 30.48 0
      vertex 1.76777 24.6278 0
    endloop
  endfacet
  facet normal 0 0 -1
    outer loop
      vertex -1.76777 21.0922 0
      vertex -25 30.48 0
      vertex -2.5 22.86 0
    endloop
  endfacet
  facet normal 0 0 -1
    outer loop
      vertex 0 25.36 0
      vertex -25 30.48 0
      vertex 25 30.48 0
    endloop
  endfacet
  facet normal 0 0 -1
    outer loop
      vertex -1.76777 24.6278 0
      vertex -25 30.48 0
      vertex 0 25.36 0
    endloop
  endfacet
  facet normal 0 0 -1
    outer loop
      vertex -2.5 22.86 0
      vertex -25 30.48 0
      vertex -1.76777 24.6278 0
    endloop
  endfacet
  facet normal 0 -1 0
    outer loop
      vertex -25 -30.48 0
      vertex 25 -30.48 5
      vertex -25 -30.48 5
    endloop
  endfacet
  facet normal 0 -1 -0
    outer loop
      vertex 25 -30.48 5
      vertex -25 -30.48 0
      vertex 25 -30.48 0
    endloop
  endfacet
  facet normal -0 0 1
    outer loop
      vertex -25 -0.9 34.125
      vertex -8.25 -8 34.125
      vertex -8.25 -0.9 34.125
    endloop
  endfacet
  facet normal 0 0 1
    outer loop
      vertex -8.25 -8 34.125
      vertex -25 -0.9 34.125
      vertex -25 -8 34.125
    endloop
  endfacet
  facet normal -0 0 1
    outer loop
      vertex 8.25 -0.9 34.125
      vertex 25 -8 34.125
      vertex 25 -0.9 34.125
    endloop
  endfacet
  facet normal 0 0 1
    outer loop
      vertex 25 -8 34.125
      vertex 8.25 -0.9 34.125
      vertex 8.25 -8 34.125
    endloop
  endfacet
  facet normal -0 0 1
    outer loop
      vertex 8.25 8 34.125
      vertex 25 0.9 34.125
      vertex 25 8 34.125
    endloop
  endfacet
  facet normal 0 0 1
    outer loop
      vertex 25 0.9 34.125
      vertex 8.25 8 34.125
      vertex 8.25 0.9 34.125
    endloop
  endfacet
  facet normal -0 0 1
    outer loop
      vertex -25 8 34.125
      vertex -8.25 0.9 34.125
      vertex -8.25 8 34.125
    endloop
  endfacet
  facet normal 0 0 1
    outer loop
      vertex -8.25 0.9 34.125
      vertex -25 8 34.125
      vertex -25 0.9 34.125
    endloop
  endfacet
  facet normal 0 1 0
    outer loop
      vertex 25 8 34.125
      vertex 8.25 8 30
      vertex 8.25 8 34.125
    endloop
  endfacet
  facet normal 0 1 0
    outer loop
      vertex 25 8 34.125
      vertex 8.01027 8 28.0256
      vertex 8.25 8 30
    endloop
  endfacet
  facet normal 0 1 0
    outer loop
      vertex 25 8 34.125
      vertex 7.30501 8 26.166
      vertex 8.01027 8 28.0256
    endloop
  endfacet
  facet normal 0 1 -0
    outer loop
      vertex 25 8 5
      vertex 7.30501 8 26.166
      vertex 25 8 34.125
    endloop
  endfacet
  facet normal 0 1 0
    outer loop
      vertex 7.30501 8 26.166
      vertex 25 8 5
      vertex 6.17521 8 24.5292
    endloop
  endfacet
  facet normal 0 1 0
    outer loop
      vertex 0.994427 8 21.8102
      vertex 25 8 5
      vertex -0.994427 8 21.8102
    endloop
  endfacet
  facet normal 0 1 0
    outer loop
      vertex 2.92549 8 22.2861
      vertex 25 8 5
      vertex 0.994427 8 21.8102
    endloop
  endfacet
  facet normal 0 1 0
    outer loop
      vertex 4.68653 8 23.2104
      vertex 25 8 5
      vertex 2.92549 8 22.2861
    endloop
  endfacet
  facet normal 0 1 0
    outer loop
      vertex 6.17521 8 24.5292
      vertex 25 8 5
      vertex 4.68653 8 23.2104
    endloop
  endfacet
  facet normal 0 1 -0
    outer loop
      vertex -8.25 8 30
      vertex -25 8 34.125
      vertex -8.25 8 34.125
    endloop
  endfacet
  facet normal 0 1 0
    outer loop
      vertex -8.01027 8 28.0256
      vertex -25 8 34.125
      vertex -8.25 8 30
    endloop
  endfacet
  facet normal 0 1 0
    outer loop
      vertex -7.30501 8 26.166
      vertex -25 8 34.125
      vertex -8.01027 8 28.0256
    endloop
  endfacet
  facet normal 0 1 0
    outer loop
      vertex -25 8 5
      vertex -7.30501 8 26.166
      vertex -6.17521 8 24.5292
    endloop
  endfacet
  facet normal 0 1 0
    outer loop
      vertex -25 8 5
      vertex -6.17521 8 24.5292
      vertex -4.68653 8 23.2104
    endloop
  endfacet
  facet normal 0 1 0
    outer loop
      vertex -25 8 5
      vertex -0.994427 8 21.8102
      vertex 25 8 5
    endloop
  endfacet
  facet normal 0 1 0
    outer loop
      vertex -0.994427 8 21.8102
      vertex -25 8 5
      vertex -2.92549 8 22.2861
    endloop
  endfacet
  facet normal 0 1 0
    outer loop
      vertex -2.92549 8 22.2861
      vertex -25 8 5
      vertex -4.68653 8 23.2104
    endloop
  endfacet
  facet normal 0 1 0
    outer loop
      vertex -7.30501 8 26.166
      vertex -25 8 5
      vertex -25 8 34.125
    endloop
  endfacet
  facet normal 0 -1 0
    outer loop
      vertex -25 -8 34.125
      vertex -8.25 -8 30
      vertex -8.25 -8 34.125
    endloop
  endfacet
  facet normal 0 -1 0
    outer loop
      vertex -25 -8 34.125
      vertex -8.24361 -8 29.9473
      vertex -8.25 -8 30
    endloop
  endfacet
  facet normal 0 -1 0
    outer loop
      vertex -25 -8 34.125
      vertex -8.01027 -8 28.0256
      vertex -8.24361 -8 29.9473
    endloop
  endfacet
  facet normal 0 -1 0
    outer loop
      vertex -25 -8 34.125
      vertex -7.30501 -8 26.166
      vertex -8.01027 -8 28.0256
    endloop
  endfacet
  facet normal 0 -1 0
    outer loop
      vertex -25 -8 5
      vertex -7.30501 -8 26.166
      vertex -25 -8 34.125
    endloop
  endfacet
  facet normal 0 -1 -0
    outer loop
      vertex -7.30501 -8 26.166
      vertex -25 -8 5
      vertex -6.17521 -8 24.5292
    endloop
  endfacet
  facet normal 0 -1 -0
    outer loop
      vertex -0.994427 -8 21.8102
      vertex -25 -8 5
      vertex 0.994427 -8 21.8102
    endloop
  endfacet
  facet normal 0 -1 -0
    outer loop
      vertex -2.92549 -8 22.2861
      vertex -25 -8 5
      vertex -0.994427 -8 21.8102
    endloop
  endfacet
  facet normal 0 -1 -0
    outer loop
      vertex -4.68653 -8 23.2104
      vertex -25 -8 5
      vertex -2.92549 -8 22.2861
    endloop
  endfacet
  facet normal 0 -1 -0
    outer loop
      vertex -6.17521 -8 24.5292
      vertex -25 -8 5
      vertex -4.68653 -8 23.2104
    endloop
  endfacet
  facet normal 0 -1 0
    outer loop
      vertex 8.25 -8 30
      vertex 25 -8 34.125
      vertex 8.25 -8 34.125
    endloop
  endfacet
  facet normal 0 -1 0
    outer loop
      vertex 8.01027 -8 28.0256
      vertex 25 -8 34.125
      vertex 8.25 -8 30
    endloop
  endfacet
  facet normal 0 -1 0
    outer loop
      vertex 7.30501 -8 26.166
      vertex 25 -8 34.125
      vertex 8.01027 -8 28.0256
    endloop
  endfacet
  facet normal 0 -1 0
    outer loop
      vertex 25 -8 5
      vertex 7.30501 -8 26.166
      vertex 6.17521 -8 24.5292
    endloop
  endfacet
  facet normal 0 -1 0
    outer loop
      vertex 25 -8 5
      vertex 6.17521 -8 24.5292
      vertex 4.68653 -8 23.2104
    endloop
  endfacet
  facet normal 0 -1 0
    outer loop
      vertex 25 -8 5
      vertex 0.994427 -8 21.8102
      vertex -25 -8 5
    endloop
  endfacet
  facet normal 0 -1 0
    outer loop
      vertex 0.994427 -8 21.8102
      vertex 25 -8 5
      vertex 2.92549 -8 22.2861
    endloop
  endfacet
  facet normal 0 -1 0
    outer loop
      vertex 2.92549 -8 22.2861
      vertex 25 -8 5
      vertex 4.68653 -8 23.2104
    endloop
  endfacet
  facet normal 0 -1 0
    outer loop
      vertex 7.30501 -8 26.166
      vertex 25 -8 5
      vertex 25 -8 34.125
    endloop
  endfacet
  facet normal -0.923879 -0.382684 0
    outer loop
      vertex 2.5 22.86 0
      vertex 1.76777 24.6278 5
      vertex 1.76777 24.6278 0
    endloop
  endfacet
  facet normal -0.923879 -0.382684 0
    outer loop
      vertex 1.76777 24.6278 5
      vertex 2.5 22.86 0
      vertex 2.5 22.86 5
    endloop
  endfacet
  facet normal 0.923879 -0.382684 0
    outer loop
      vertex -2.5 22.86 5
      vertex -1.76777 24.6278 0
      vertex -1.76777 24.6278 5
    endloop
  endfacet
  facet normal 0.923879 -0.382684 0
    outer loop
      vertex -1.76777 24.6278 0
      vertex -2.5 22.86 5
      vertex -2.5 22.86 0
    endloop
  endfacet
  facet normal -0.382684 -0.923879 0
    outer loop
      vertex 0 25.36 0
      vertex 1.76777 24.6278 5
      vertex 0 25.36 5
    endloop
  endfacet
  facet normal -0.382684 -0.923879 -0
    outer loop
      vertex 1.76777 24.6278 5
      vertex 0 25.36 0
      vertex 1.76777 24.6278 0
    endloop
  endfacet
  facet normal 0.382684 -0.923879 0
    outer loop
      vertex -1.76777 24.6278 0
      vertex 0 25.36 5
      vertex -1.76777 24.6278 5
    endloop
  endfacet
  facet normal 0.382684 -0.923879 0
    outer loop
      vertex 0 25.36 5
      vertex -1.76777 24.6278 0
      vertex 0 25.36 0
    endloop
  endfacet
  facet normal -0.382683 0.92388 0
    outer loop
      vertex 1.76777 21.0922 0
      vertex 0 20.36 5
      vertex 1.76777 21.0922 5
    endloop
  endfacet
  facet normal -0.382683 0.92388 0
    outer loop
      vertex 0 20.36 5
      vertex 1.76777 21.0922 0
      vertex 0 20.36 0
    endloop
  endfacet
  facet normal 0.92388 0.382683 0
    outer loop
      vertex -1.76777 21.0922 5
      vertex -2.5 22.86 0
      vertex -2.5 22.86 5
    endloop
  endfacet
  facet normal 0.92388 0.382683 0
    outer loop
      vertex -2.5 22.86 0
      vertex -1.76777 21.0922 5
      vertex -1.76777 21.0922 0
    endloop
  endfacet
  facet normal -0.92388 0.382683 0
    outer loop
      vertex 1.76777 21.0922 0
      vertex 2.5 22.86 5
      vertex 2.5 22.86 0
    endloop
  endfacet
  facet normal -0.92388 0.382683 0
    outer loop
      vertex 2.5 22.86 5
      vertex 1.76777 21.0922 0
      vertex 1.76777 21.0922 5
    endloop
  endfacet
  facet normal 0.382683 0.92388 -0
    outer loop
      vertex 0 20.36 0
      vertex -1.76777 21.0922 5
      vertex 0 20.36 5
    endloop
  endfacet
  facet normal 0.382683 0.92388 0
    outer loop
      vertex -1.76777 21.0922 5
      vertex 0 20.36 0
      vertex -1.76777 21.0922 0
    endloop
  endfacet
  facet normal -0.92388 -0.382683 0
    outer loop
      vertex 2.5 -22.86 0
      vertex 1.76777 -21.0922 5
      vertex 1.76777 -21.0922 0
    endloop
  endfacet
  facet normal -0.92388 -0.382683 0
    outer loop
      vertex 1.76777 -21.0922 5
      vertex 2.5 -22.86 0
      vertex 2.5 -22.86 5
    endloop
  endfacet
  facet normal 0.92388 -0.382683 0
    outer loop
      vertex -2.5 -22.86 5
      vertex -1.76777 -21.0922 0
      vertex -1.76777 -21.0922 5
    endloop
  endfacet
  facet normal 0.92388 -0.382683 0
    outer loop
      vertex -1.76777 -21.0922 0
      vertex -2.5 -22.86 5
      vertex -2.5 -22.86 0
    endloop
  endfacet
  facet normal -0.382683 -0.92388 0
    outer loop
      vertex 0 -20.36 0
      vertex 1.76777 -21.0922 5
      vertex 0 -20.36 5
    endloop
  endfacet
  facet normal -0.382683 -0.92388 -0
    outer loop
      vertex 1.76777 -21.0922 5
      vertex 0 -20.36 0
      vertex 1.76777 -21.0922 0
    endloop
  endfacet
  facet normal 0.382683 -0.92388 0
    outer loop
      vertex -1.76777 -21.0922 0
      vertex 0 -20.36 5
      vertex -1.76777 -21.0922 5
    endloop
  endfacet
  facet normal 0.382683 -0.92388 0
    outer loop
      vertex 0 -20.36 5
      vertex -1.76777 -21.0922 0
      vertex 0 -20.36 0
    endloop
  endfacet
  facet normal -0.382684 0.923879 0
    outer loop
      vertex 1.76777 -24.6278 0
      vertex 0 -25.36 5
      vertex 1.76777 -24.6278 5
    endloop
  endfacet
  facet normal -0.382684 0.923879 0
    outer loop
      vertex 0 -25.36 5
      vertex 1.76777 -24.6278 0
      vertex 0 -25.36 0
    endloop
  endfacet
  facet normal 0.923879 0.382684 0
    outer loop
      vertex -1.76777 -24.6278 5
      vertex -2.5 -22.86 0
      vertex -2.5 -22.86 5
    endloop
  endfacet
  facet normal 0.923879 0.382684 0
    outer loop
      vertex -2.5 -22.86 0
      vertex -1.76777 -24.6278 5
      vertex -1.76777 -24.6278 0
    endloop
  endfacet
  facet normal 0.382684 0.923879 -0
    outer loop
      vertex 0 -25.36 0
      vertex -1.76777 -24.6278 5
      vertex 0 -25.36 5
    endloop
  endfacet
  facet normal 0.382684 0.923879 0
    outer loop
      vertex -1.76777 -24.6278 5
      vertex 0 -25.36 0
      vertex -1.76777 -24.6278 0
    endloop
  endfacet
  facet normal -0.923879 0.382684 0
    outer loop
      vertex 1.76777 -24.6278 0
      vertex 2.5 -22.86 5
      vertex 2.5 -22.86 0
    endloop
  endfacet
  facet normal -0.923879 0.382684 0
    outer loop
      vertex 2.5 -22.86 5
      vertex 1.76777 -24.6278 0
      vertex 1.76777 -24.6278 5
    endloop
  endfacet
  facet normal 0 -1 0
    outer loop
      vertex -25 0.9 34.125
      vertex -8.25 0.9 30
      vertex -8.25 0.9 34.125
    endloop
  endfacet
  facet normal 0 -1 0
    outer loop
      vertex -25 0.9 34.125
      vertex -8.01027 0.9 28.0256
      vertex -8.25 0.9 30
    endloop
  endfacet
  facet normal 0 -1 0
    outer loop
      vertex -25 0.9 17.5
      vertex -8.01027 0.9 28.0256
      vertex -25 0.9 34.125
    endloop
  endfacet
  facet normal 0 -1 -0
    outer loop
      vertex -8.01027 0.9 28.0256
      vertex -25 0.9 17.5
      vertex -7.30501 0.9 26.166
    endloop
  endfacet
  facet normal 0 -1 -0
    outer loop
      vertex -7.30501 0.9 26.166
      vertex -25 0.9 17.5
      vertex -6.17521 0.9 24.5292
    endloop
  endfacet
  facet normal 0 -1 -0
    outer loop
      vertex -0.994427 0.9 21.8102
      vertex -25 0.9 17.5
      vertex 0.994427 0.9 21.8102
    endloop
  endfacet
  facet normal 0 -1 -0
    outer loop
      vertex -2.92549 0.9 22.2861
      vertex -25 0.9 17.5
      vertex -0.994427 0.9 21.8102
    endloop
  endfacet
  facet normal 0 -1 -0
    outer loop
      vertex -4.68653 0.9 23.2104
      vertex -25 0.9 17.5
      vertex -2.92549 0.9 22.2861
    endloop
  endfacet
  facet normal 0 -1 -0
    outer loop
      vertex -6.17521 0.9 24.5292
      vertex -25 0.9 17.5
      vertex -4.68653 0.9 23.2104
    endloop
  endfacet
  facet normal 0 -1 0
    outer loop
      vertex 8.25 0.9 30
      vertex 25 0.9 34.125
      vertex 8.25 0.9 34.125
    endloop
  endfacet
  facet normal 0 -1 0
    outer loop
      vertex 8.01027 0.9 28.0256
      vertex 25 0.9 34.125
      vertex 8.25 0.9 30
    endloop
  endfacet
  facet normal 0 -1 0
    outer loop
      vertex 25 0.9 17.5
      vertex 8.01027 0.9 28.0256
      vertex 7.30501 0.9 26.166
    endloop
  endfacet
  facet normal 0 -1 0
    outer loop
      vertex 25 0.9 17.5
      vertex 7.30501 0.9 26.166
      vertex 6.17521 0.9 24.5292
    endloop
  endfacet
  facet normal 0 -1 0
    outer loop
      vertex 25 0.9 17.5
      vertex 6.17521 0.9 24.5292
      vertex 4.68653 0.9 23.2104
    endloop
  endfacet
  facet normal 0 -1 0
    outer loop
      vertex 8.01027 0.9 28.0256
      vertex 25 0.9 17.5
      vertex 25 0.9 34.125
    endloop
  endfacet
  facet normal 0 -1 0
    outer loop
      vertex 2.92549 0.9 22.2861
      vertex 25 0.9 17.5
      vertex 4.68653 0.9 23.2104
    endloop
  endfacet
  facet normal 0 -1 0
    outer loop
      vertex 0.994427 0.9 21.8102
      vertex 25 0.9 17.5
      vertex 2.92549 0.9 22.2861
    endloop
  endfacet
  facet normal 0 -1 0
    outer loop
      vertex 25 0.9 17.5
      vertex 0.994427 0.9 21.8102
      vertex -25 0.9 17.5
    endloop
  endfacet
  facet normal -0 0 1
    outer loop
      vertex -25 0.9 17.5
      vertex 25 -0.9 17.5
      vertex 25 0.9 17.5
    endloop
  endfacet
  facet normal 0 0 1
    outer loop
      vertex 25 -0.9 17.5
      vertex -25 0.9 17.5
      vertex -25 -0.9 17.5
    endloop
  endfacet
  facet normal 0 1 0
    outer loop
      vertex 25 -0.9 34.125
      vertex 8.25 -0.9 30
      vertex 8.25 -0.9 34.125
    endloop
  endfacet
  facet normal 0 1 0
    outer loop
      vertex 25 -0.9 34.125
      vertex 8.01027 -0.9 28.0256
      vertex 8.25 -0.9 30
    endloop
  endfacet
  facet normal 0 1 -0
    outer loop
      vertex 25 -0.9 17.5
      vertex 8.01027 -0.9 28.0256
      vertex 25 -0.9 34.125
    endloop
  endfacet
  facet normal 0 1 0
    outer loop
      vertex 8.01027 -0.9 28.0256
      vertex 25 -0.9 17.5
      vertex 7.30501 -0.9 26.166
    endloop
  endfacet
  facet normal 0 1 0
    outer loop
      vertex 7.30501 -0.9 26.166
      vertex 25 -0.9 17.5
      vertex 6.17521 -0.9 24.5292
    endloop
  endfacet
  facet normal 0 1 0
    outer loop
      vertex 0.994427 -0.9 21.8102
      vertex 25 -0.9 17.5
      vertex -0.994427 -0.9 21.8102
    endloop
  endfacet
  facet normal 0 1 0
    outer loop
      vertex 2.92549 -0.9 22.2861
      vertex 25 -0.9 17.5
      vertex 0.994427 -0.9 21.8102
    endloop
  endfacet
  facet normal 0 1 0
    outer loop
      vertex 4.68653 -0.9 23.2104
      vertex 25 -0.9 17.5
      vertex 2.92549 -0.9 22.2861
    endloop
  endfacet
  facet normal 0 1 0
    outer loop
      vertex 6.17521 -0.9 24.5292
      vertex 25 -0.9 17.5
      vertex 4.68653 -0.9 23.2104
    endloop
  endfacet
  facet normal 0 1 -0
    outer loop
      vertex -8.25 -0.9 30
      vertex -25 -0.9 34.125
      vertex -8.25 -0.9 34.125
    endloop
  endfacet
  facet normal 0 1 0
    outer loop
      vertex -8.24928 -0.9 29.9941
      vertex -25 -0.9 34.125
      vertex -8.25 -0.9 30
    endloop
  endfacet
  facet normal 0 1 0
    outer loop
      vertex -8.01027 -0.9 28.0256
      vertex -25 -0.9 34.125
      vertex -8.24928 -0.9 29.9941
    endloop
  endfacet
  facet normal 0 1 0
    outer loop
      vertex -25 -0.9 17.5
      vertex -8.01027 -0.9 28.0256
      vertex -7.30501 -0.9 26.166
    endloop
  endfacet
  facet normal 0 1 0
    outer loop
      vertex -25 -0.9 17.5
      vertex -7.30501 -0.9 26.166
      vertex -6.17521 -0.9 24.5292
    endloop
  endfacet
  facet normal 0 1 0
    outer loop
      vertex -25 -0.9 17.5
      vertex -6.17521 -0.9 24.5292
      vertex -4.68653 -0.9 23.2104
    endloop
  endfacet
  facet normal 0 1 0
    outer loop
      vertex -8.01027 -0.9 28.0256
      vertex -25 -0.9 17.5
      vertex -25 -0.9 34.125
    endloop
  endfacet
  facet normal 0 1 0
    outer loop
      vertex -2.92549 -0.9 22.2861
      vertex -25 -0.9 17.5
      vertex -4.68653 -0.9 23.2104
    endloop
  endfacet
  facet normal 0 1 0
    outer loop
      vertex -0.994427 -0.9 21.8102
      vertex -25 -0.9 17.5
      vertex -2.92549 -0.9 22.2861
    endloop
  endfacet
  facet normal 0 1 0
    outer loop
      vertex -25 -0.9 17.5
      vertex -0.994427 -0.9 21.8102
      vertex 25 -0.9 17.5
    endloop
  endfacet
  facet normal 0.992714 -0 0.120494
    outer loop
      vertex -8.25 -8 30
      vertex -8.24928 -0.9 29.9941
      vertex -8.25 -0.9 30
    endloop
  endfacet
  facet normal 0.99271 2.94757e-008 0.120528
    outer loop
      vertex -8.24928 -0.9 29.9941
      vertex -8.25 -8 30
      vertex -8.24361 -8 29.9473
    endloop
  endfacet
  facet normal -0.822984 0 0.568065
    outer loop
      vertex 6.17521 -8 24.5292
      vertex 7.30501 -0.9 26.166
      vertex 6.17521 -0.9 24.5292
    endloop
  endfacet
  facet normal -0.822984 0 0.568065
    outer loop
      vertex 7.30501 -0.9 26.166
      vertex 6.17521 -8 24.5292
      vertex 7.30501 -8 26.166
    endloop
  endfacet
  facet normal -0.239316 0 0.970942
    outer loop
      vertex 0.994427 -0.9 21.8102
      vertex 2.92549 -8 22.2861
      vertex 2.92549 -0.9 22.2861
    endloop
  endfacet
  facet normal -0.239316 0 0.970942
    outer loop
      vertex 2.92549 -8 22.2861
      vertex 0.994427 -0.9 21.8102
      vertex 0.994427 -8 21.8102
    endloop
  endfacet
  facet normal 0.935016 -0 0.354605
    outer loop
      vertex -8.01027 -8 28.0256
      vertex -7.30501 -0.9 26.166
      vertex -8.01027 -0.9 28.0256
    endloop
  endfacet
  facet normal 0.935016 0 0.354605
    outer loop
      vertex -7.30501 -0.9 26.166
      vertex -8.01027 -8 28.0256
      vertex -7.30501 -8 26.166
    endloop
  endfacet
  facet normal 0.464723 0 0.885456
    outer loop
      vertex -4.68653 -0.9 23.2104
      vertex -2.92549 -8 22.2861
      vertex -2.92549 -0.9 22.2861
    endloop
  endfacet
  facet normal 0.464723 0 0.885456
    outer loop
      vertex -2.92549 -8 22.2861
      vertex -4.68653 -0.9 23.2104
      vertex -4.68653 -8 23.2104
    endloop
  endfacet
  facet normal -0 0 1
    outer loop
      vertex -0.994427 -0.9 21.8102
      vertex 0.994427 -8 21.8102
      vertex 0.994427 -0.9 21.8102
    endloop
  endfacet
  facet normal 0 0 1
    outer loop
      vertex 0.994427 -8 21.8102
      vertex -0.994427 -0.9 21.8102
      vertex -0.994427 -8 21.8102
    endloop
  endfacet
  facet normal 0.992709 -2.93266e-008 0.120537
    outer loop
      vertex -8.24361 -8 29.9473
      vertex -8.01027 -0.9 28.0256
      vertex -8.24928 -0.9 29.9941
    endloop
  endfacet
  facet normal 0.992709 0 0.120537
    outer loop
      vertex -8.01027 -0.9 28.0256
      vertex -8.24361 -8 29.9473
      vertex -8.01027 -8 28.0256
    endloop
  endfacet
  facet normal -0.663123 0 0.748511
    outer loop
      vertex 4.68653 -0.9 23.2104
      vertex 6.17521 -8 24.5292
      vertex 6.17521 -0.9 24.5292
    endloop
  endfacet
  facet normal -0.663123 0 0.748511
    outer loop
      vertex 6.17521 -8 24.5292
      vertex 4.68653 -0.9 23.2104
      vertex 4.68653 -8 23.2104
    endloop
  endfacet
  facet normal 0.239316 0 0.970942
    outer loop
      vertex -2.92549 -0.9 22.2861
      vertex -0.994427 -8 21.8102
      vertex -0.994427 -0.9 21.8102
    endloop
  endfacet
  facet normal 0.239316 0 0.970942
    outer loop
      vertex -0.994427 -8 21.8102
      vertex -2.92549 -0.9 22.2861
      vertex -2.92549 -8 22.2861
    endloop
  endfacet
  facet normal 0.822984 -0 0.568065
    outer loop
      vertex -7.30501 -8 26.166
      vertex -6.17521 -0.9 24.5292
      vertex -7.30501 -0.9 26.166
    endloop
  endfacet
  facet normal 0.822984 0 0.568065
    outer loop
      vertex -6.17521 -0.9 24.5292
      vertex -7.30501 -8 26.166
      vertex -6.17521 -8 24.5292
    endloop
  endfacet
  facet normal 0.663123 0 0.748511
    outer loop
      vertex -6.17521 -0.9 24.5292
      vertex -4.68653 -8 23.2104
      vertex -4.68653 -0.9 23.2104
    endloop
  endfacet
  facet normal 0.663123 0 0.748511
    outer loop
      vertex -4.68653 -8 23.2104
      vertex -6.17521 -0.9 24.5292
      vertex -6.17521 -8 24.5292
    endloop
  endfacet
  facet normal -0.464723 0 0.885456
    outer loop
      vertex 2.92549 -0.9 22.2861
      vertex 4.68653 -8 23.2104
      vertex 4.68653 -0.9 23.2104
    endloop
  endfacet
  facet normal -0.464723 0 0.885456
    outer loop
      vertex 4.68653 -8 23.2104
      vertex 2.92549 -0.9 22.2861
      vertex 2.92549 -8 22.2861
    endloop
  endfacet
  facet normal -0.935016 0 0.354605
    outer loop
      vertex 7.30501 -8 26.166
      vertex 8.01027 -0.9 28.0256
      vertex 7.30501 -0.9 26.166
    endloop
  endfacet
  facet normal -0.935016 0 0.354605
    outer loop
      vertex 8.01027 -0.9 28.0256
      vertex 7.30501 -8 26.166
      vertex 8.01027 -8 28.0256
    endloop
  endfacet
  facet normal -0.992709 0 0.120537
    outer loop
      vertex 8.01027 -8 28.0256
      vertex 8.25 -0.9 30
      vertex 8.01027 -0.9 28.0256
    endloop
  endfacet
  facet normal -0.992709 0 0.120537
    outer loop
      vertex 8.25 -0.9 30
      vertex 8.01027 -8 28.0256
      vertex 8.25 -8 30
    endloop
  endfacet
  facet normal -0.992709 0 0.120537
    outer loop
      vertex 8.01027 0.9 28.0256
      vertex 8.25 8 30
      vertex 8.01027 8 28.0256
    endloop
  endfacet
  facet normal -0.992709 0 0.120537
    outer loop
      vertex 8.25 8 30
      vertex 8.01027 0.9 28.0256
      vertex 8.25 0.9 30
    endloop
  endfacet
  facet normal 0.992709 -0 0.120537
    outer loop
      vertex -8.25 0.9 30
      vertex -8.01027 8 28.0256
      vertex -8.25 8 30
    endloop
  endfacet
  facet normal 0.992709 0 0.120537
    outer loop
      vertex -8.01027 8 28.0256
      vertex -8.25 0.9 30
      vertex -8.01027 0.9 28.0256
    endloop
  endfacet
  facet normal -0 0 1
    outer loop
      vertex -0.994427 8 21.8102
      vertex 0.994427 0.9 21.8102
      vertex 0.994427 8 21.8102
    endloop
  endfacet
  facet normal 0 0 1
    outer loop
      vertex 0.994427 0.9 21.8102
      vertex -0.994427 8 21.8102
      vertex -0.994427 0.9 21.8102
    endloop
  endfacet
  facet normal -0.663123 0 0.748511
    outer loop
      vertex 4.68653 8 23.2104
      vertex 6.17521 0.9 24.5292
      vertex 6.17521 8 24.5292
    endloop
  endfacet
  facet normal -0.663123 0 0.748511
    outer loop
      vertex 6.17521 0.9 24.5292
      vertex 4.68653 8 23.2104
      vertex 4.68653 0.9 23.2104
    endloop
  endfacet
  facet normal -0.935016 0 0.354605
    outer loop
      vertex 7.30501 0.9 26.166
      vertex 8.01027 8 28.0256
      vertex 7.30501 8 26.166
    endloop
  endfacet
  facet normal -0.935016 0 0.354605
    outer loop
      vertex 8.01027 8 28.0256
      vertex 7.30501 0.9 26.166
      vertex 8.01027 0.9 28.0256
    endloop
  endfacet
  facet normal 0.663123 0 0.748511
    outer loop
      vertex -6.17521 8 24.5292
      vertex -4.68653 0.9 23.2104
      vertex -4.68653 8 23.2104
    endloop
  endfacet
  facet normal 0.663123 0 0.748511
    outer loop
      vertex -4.68653 0.9 23.2104
      vertex -6.17521 8 24.5292
      vertex -6.17521 0.9 24.5292
    endloop
  endfacet
  facet normal 0.822984 -0 0.568065
    outer loop
      vertex -7.30501 0.9 26.166
      vertex -6.17521 8 24.5292
      vertex -7.30501 8 26.166
    endloop
  endfacet
  facet normal 0.822984 0 0.568065
    outer loop
      vertex -6.17521 8 24.5292
      vertex -7.30501 0.9 26.166
      vertex -6.17521 0.9 24.5292
    endloop
  endfacet
  facet normal 0.464723 0 0.885456
    outer loop
      vertex -4.68653 8 23.2104
      vertex -2.92549 0.9 22.2861
      vertex -2.92549 8 22.2861
    endloop
  endfacet
  facet normal 0.464723 0 0.885456
    outer loop
      vertex -2.92549 0.9 22.2861
      vertex -4.68653 8 23.2104
      vertex -4.68653 0.9 23.2104
    endloop
  endfacet
  facet normal -0.822984 0 0.568065
    outer loop
      vertex 6.17521 0.9 24.5292
      vertex 7.30501 8 26.166
      vertex 6.17521 8 24.5292
    endloop
  endfacet
  facet normal -0.822984 0 0.568065
    outer loop
      vertex 7.30501 8 26.166
      vertex 6.17521 0.9 24.5292
      vertex 7.30501 0.9 26.166
    endloop
  endfacet
  facet normal -0.239316 0 0.970942
    outer loop
      vertex 0.994427 8 21.8102
      vertex 2.92549 0.9 22.2861
      vertex 2.92549 8 22.2861
    endloop
  endfacet
  facet normal -0.239316 0 0.970942
    outer loop
      vertex 2.92549 0.9 22.2861
      vertex 0.994427 8 21.8102
      vertex 0.994427 0.9 21.8102
    endloop
  endfacet
  facet normal -0.464723 0 0.885456
    outer loop
      vertex 2.92549 8 22.2861
      vertex 4.68653 0.9 23.2104
      vertex 4.68653 8 23.2104
    endloop
  endfacet
  facet normal -0.464723 0 0.885456
    outer loop
      vertex 4.68653 0.9 23.2104
      vertex 2.92549 8 22.2861
      vertex 2.92549 0.9 22.2861
    endloop
  endfacet
  facet normal 0.935016 -0 0.354605
    outer loop
      vertex -8.01027 0.9 28.0256
      vertex -7.30501 8 26.166
      vertex -8.01027 8 28.0256
    endloop
  endfacet
  facet normal 0.935016 0 0.354605
    outer loop
      vertex -7.30501 8 26.166
      vertex -8.01027 0.9 28.0256
      vertex -7.30501 0.9 26.166
    endloop
  endfacet
  facet normal 0.239316 0 0.970942
    outer loop
      vertex -2.92549 8 22.2861
      vertex -0.994427 0.9 21.8102
      vertex -0.994427 8 21.8102
    endloop
  endfacet
  facet normal 0.239316 0 0.970942
    outer loop
      vertex -0.994427 0.9 21.8102
      vertex -2.92549 8 22.2861
      vertex -2.92549 0.9 22.2861
    endloop
  endfacet
  facet normal 1 -0 0
    outer loop
      vertex -8.25 0.9 34.125
      vertex -8.25 8 30
      vertex -8.25 8 34.125
    endloop
  endfacet
  facet normal 1 0 0
    outer loop
      vertex -8.25 8 30
      vertex -8.25 0.9 34.125
      vertex -8.25 0.9 30
    endloop
  endfacet
  facet normal 1 -0 0
    outer loop
      vertex -8.25 -8 34.125
      vertex -8.25 -0.9 30
      vertex -8.25 -0.9 34.125
    endloop
  endfacet
  facet normal 1 0 0
    outer loop
      vertex -8.25 -0.9 30
      vertex -8.25 -8 34.125
      vertex -8.25 -8 30
    endloop
  endfacet
  facet normal -1 0 0
    outer loop
      vertex 8.25 -8 30
      vertex 8.25 -0.9 34.125
      vertex 8.25 -0.9 30
    endloop
  endfacet
  facet normal -1 -0 0
    outer loop
      vertex 8.25 -0.9 34.125
      vertex 8.25 -8 30
      vertex 8.25 -8 34.125
    endloop
  endfacet
  facet normal -1 0 0
    outer loop
      vertex 8.25 0.9 30
      vertex 8.25 8 34.125
      vertex 8.25 8 30
    endloop
  endfacet
  facet normal -1 -0 0
    outer loop
      vertex 8.25 8 34.125
      vertex 8.25 0.9 30
      vertex 8.25 0.9 34.125
    endloop
  endfacet
endsolid OpenSCAD_Model
