solid OpenSCAD_Model
  facet normal -1 0 0
    outer loop
      vertex -17.1 0 -17.1
      vertex -17.1 -11.68 0
      vertex -17.1 0 17.1
    endloop
  endfacet
  facet normal -1 0 0
    outer loop
      vertex -17.1 0 -17.1
      vertex -17.1 -12.4029 -1.50112
      vertex -17.1 -11.68 0
    endloop
  endfacet
  facet normal -1 0 0
    outer loop
      vertex -17.1 -16.6 -17.1
      vertex -17.1 -12.4029 -1.50112
      vertex -17.1 0 -17.1
    endloop
  endfacet
  facet normal -1 0 0
    outer loop
      vertex -17.1 -12.4029 -1.50112
      vertex -17.1 -16.6 -17.1
      vertex -17.1 -14.0272 -1.87186
    endloop
  endfacet
  facet normal -1 -0 0
    outer loop
      vertex -17.1 -15.3299 -0.833056
      vertex -17.1 -16.6 -17.1
      vertex -17.1 -15.3299 0.833056
    endloop
  endfacet
  facet normal -1 -0 0
    outer loop
      vertex -17.1 -14.0272 -1.87186
      vertex -17.1 -16.6 -17.1
      vertex -17.1 -15.3299 -0.833056
    endloop
  endfacet
  facet normal -1 0 0
    outer loop
      vertex -17.1 -12.4029 1.50112
      vertex -17.1 0 17.1
      vertex -17.1 -11.68 0
    endloop
  endfacet
  facet normal -1 0 0
    outer loop
      vertex -17.1 -16.6 17.1
      vertex -17.1 -12.4029 1.50112
      vertex -17.1 -14.0272 1.87186
    endloop
  endfacet
  facet normal -1 0 0
    outer loop
      vertex -17.1 -16.6 17.1
      vertex -17.1 -14.0272 1.87186
      vertex -17.1 -15.3299 0.833056
    endloop
  endfacet
  facet normal -1 0 0
    outer loop
      vertex -17.1 -12.4029 1.50112
      vertex -17.1 -16.6 17.1
      vertex -17.1 0 17.1
    endloop
  endfacet
  facet normal -1 0 0
    outer loop
      vertex -17.1 -16.6 17.1
      vertex -17.1 -15.3299 0.833056
      vertex -17.1 -16.6 -17.1
    endloop
  endfacet
  facet normal 0 0 1
    outer loop
      vertex -9.5 0 17.1
      vertex -15.6 -1 17.1
      vertex -9.5 -1 17.1
    endloop
  endfacet
  facet normal 0 0 1
    outer loop
      vertex -15.6 -1 17.1
      vertex -17.1 0 17.1
      vertex -15.6 -3.6 17.1
    endloop
  endfacet
  facet normal -0 0 1
    outer loop
      vertex -17.1 0 17.1
      vertex -15.6 -1 17.1
      vertex -9.5 0 17.1
    endloop
  endfacet
  facet normal 0 0 1
    outer loop
      vertex 15.6 -3.6 17.1
      vertex 17.1 0 17.1
      vertex 15.6 -1 17.1
    endloop
  endfacet
  facet normal -0 0 1
    outer loop
      vertex 9.5 0 17.1
      vertex 15.6 -1 17.1
      vertex 17.1 0 17.1
    endloop
  endfacet
  facet normal 0 0 1
    outer loop
      vertex 15.6 -1 17.1
      vertex 9.5 0 17.1
      vertex 9.5 -1 17.1
    endloop
  endfacet
  facet normal 0 0 1
    outer loop
      vertex 17.1 0 17.1
      vertex 15.6 -3.6 17.1
      vertex 17.1 -16.6 17.1
    endloop
  endfacet
  facet normal -0 0 1
    outer loop
      vertex 3 -6.6 17.1
      vertex 17.1 -16.6 17.1
      vertex 15.6 -3.6 17.1
    endloop
  endfacet
  facet normal 0 0 1
    outer loop
      vertex 17.1 -16.6 17.1
      vertex 3 -6.6 17.1
      vertex 3 -16.6 17.1
    endloop
  endfacet
  facet normal 0 0 1
    outer loop
      vertex 15.6 -3.6 17.1
      vertex -3 -6.6 17.1
      vertex 3 -6.6 17.1
    endloop
  endfacet
  facet normal -0 0 1
    outer loop
      vertex -15.6 -3.6 17.1
      vertex -3 -6.6 17.1
      vertex 15.6 -3.6 17.1
    endloop
  endfacet
  facet normal 0 0 1
    outer loop
      vertex -17.1 -16.6 17.1
      vertex -3 -6.6 17.1
      vertex -15.6 -3.6 17.1
    endloop
  endfacet
  facet normal 0 0 1
    outer loop
      vertex -3 -6.6 17.1
      vertex -17.1 -16.6 17.1
      vertex -3 -16.6 17.1
    endloop
  endfacet
  facet normal 0 0 1
    outer loop
      vertex -17.1 -16.6 17.1
      vertex -15.6 -3.6 17.1
      vertex -17.1 0 17.1
    endloop
  endfacet
  facet normal 1 0 0
    outer loop
      vertex 17.1 0 17.1
      vertex 17.1 -11.68 0
      vertex 17.1 0 -17.1
    endloop
  endfacet
  facet normal 1 0 0
    outer loop
      vertex 17.1 0 17.1
      vertex 17.1 -12.4029 1.50112
      vertex 17.1 -11.68 0
    endloop
  endfacet
  facet normal 1 -0 0
    outer loop
      vertex 17.1 -16.6 17.1
      vertex 17.1 -12.4029 1.50112
      vertex 17.1 0 17.1
    endloop
  endfacet
  facet normal 1 0 0
    outer loop
      vertex 17.1 -12.4029 1.50112
      vertex 17.1 -16.6 17.1
      vertex 17.1 -14.0272 1.87186
    endloop
  endfacet
  facet normal 1 0 0
    outer loop
      vertex 17.1 -15.3299 0.833056
      vertex 17.1 -16.6 17.1
      vertex 17.1 -15.3299 -0.833056
    endloop
  endfacet
  facet normal 1 0 0
    outer loop
      vertex 17.1 -14.0272 1.87186
      vertex 17.1 -16.6 17.1
      vertex 17.1 -15.3299 0.833056
    endloop
  endfacet
  facet normal 1 -0 0
    outer loop
      vertex 17.1 -12.4029 -1.50112
      vertex 17.1 0 -17.1
      vertex 17.1 -11.68 0
    endloop
  endfacet
  facet normal 1 0 0
    outer loop
      vertex 17.1 -16.6 -17.1
      vertex 17.1 -12.4029 -1.50112
      vertex 17.1 -14.0272 -1.87186
    endloop
  endfacet
  facet normal 1 0 0
    outer loop
      vertex 17.1 -16.6 -17.1
      vertex 17.1 -14.0272 -1.87186
      vertex 17.1 -15.3299 -0.833056
    endloop
  endfacet
  facet normal 1 0 0
    outer loop
      vertex 17.1 -12.4029 -1.50112
      vertex 17.1 -16.6 -17.1
      vertex 17.1 0 -17.1
    endloop
  endfacet
  facet normal 1 0 0
    outer loop
      vertex 17.1 -16.6 -17.1
      vertex 17.1 -15.3299 -0.833056
      vertex 17.1 -16.6 17.1
    endloop
  endfacet
  facet normal 0 1 0
    outer loop
      vertex 17.1 0 17.1
      vertex 9.5 0 0
      vertex 9.5 0 17.1
    endloop
  endfacet
  facet normal 0 1 -0
    outer loop
      vertex 17.1 0 -17.1
      vertex 9.5 0 0
      vertex 17.1 0 17.1
    endloop
  endfacet
  facet normal 0 1 0
    outer loop
      vertex 9.5 0 0
      vertex 17.1 0 -17.1
      vertex 9.2924 0 -1.97516
    endloop
  endfacet
  facet normal 0 1 0
    outer loop
      vertex 0.99302 0 -9.44796
      vertex 17.1 0 -17.1
      vertex -0.99302 0 -9.44796
    endloop
  endfacet
  facet normal 0 1 0
    outer loop
      vertex 2.93566 0 -9.03504
      vertex 17.1 0 -17.1
      vertex 0.99302 0 -9.44796
    endloop
  endfacet
  facet normal 0 1 0
    outer loop
      vertex 4.75 0 -8.22724
      vertex 17.1 0 -17.1
      vertex 2.93566 0 -9.03504
    endloop
  endfacet
  facet normal 0 1 0
    outer loop
      vertex 6.35674 0 -7.05988
      vertex 17.1 0 -17.1
      vertex 4.75 0 -8.22724
    endloop
  endfacet
  facet normal 0 1 0
    outer loop
      vertex 7.68566 0 -5.58396
      vertex 17.1 0 -17.1
      vertex 6.35674 0 -7.05988
    endloop
  endfacet
  facet normal 0 1 0
    outer loop
      vertex 8.67868 0 -3.864
      vertex 17.1 0 -17.1
      vertex 7.68566 0 -5.58396
    endloop
  endfacet
  facet normal 0 1 0
    outer loop
      vertex 9.2924 0 -1.97516
      vertex 17.1 0 -17.1
      vertex 8.67868 0 -3.864
    endloop
  endfacet
  facet normal 0 1 -0
    outer loop
      vertex -9.5 0 0
      vertex -17.1 0 17.1
      vertex -9.5 0 17.1
    endloop
  endfacet
  facet normal 0 1 0
    outer loop
      vertex -17.1 0 -17.1
      vertex -9.5 0 0
      vertex -9.2924 0 -1.97516
    endloop
  endfacet
  facet normal 0 1 0
    outer loop
      vertex -17.1 0 -17.1
      vertex -9.2924 0 -1.97516
      vertex -8.67868 0 -3.864
    endloop
  endfacet
  facet normal 0 1 0
    outer loop
      vertex -17.1 0 -17.1
      vertex -0.99302 0 -9.44796
      vertex 17.1 0 -17.1
    endloop
  endfacet
  facet normal 0 1 0
    outer loop
      vertex -9.5 0 0
      vertex -17.1 0 -17.1
      vertex -17.1 0 17.1
    endloop
  endfacet
  facet normal 0 1 0
    outer loop
      vertex -7.68566 0 -5.58396
      vertex -17.1 0 -17.1
      vertex -8.67868 0 -3.864
    endloop
  endfacet
  facet normal 0 1 0
    outer loop
      vertex -6.35674 0 -7.05988
      vertex -17.1 0 -17.1
      vertex -7.68566 0 -5.58396
    endloop
  endfacet
  facet normal 0 1 0
    outer loop
      vertex -4.75 0 -8.22724
      vertex -17.1 0 -17.1
      vertex -6.35674 0 -7.05988
    endloop
  endfacet
  facet normal 0 1 0
    outer loop
      vertex -2.93566 0 -9.03504
      vertex -17.1 0 -17.1
      vertex -4.75 0 -8.22724
    endloop
  endfacet
  facet normal 0 1 0
    outer loop
      vertex -0.99302 0 -9.44796
      vertex -17.1 0 -17.1
      vertex -2.93566 0 -9.03504
    endloop
  endfacet
  facet normal 0 0 -1
    outer loop
      vertex -3 -16.6 -17.1
      vertex -17.1 -16.6 -17.1
      vertex -3 -6.6 -17.1
    endloop
  endfacet
  facet normal 0 0 -1
    outer loop
      vertex 3 -6.6 -17.1
      vertex 17.1 -16.6 -17.1
      vertex 3 -16.6 -17.1
    endloop
  endfacet
  facet normal 0 0 -1
    outer loop
      vertex 17.1 -16.6 -17.1
      vertex 3 -6.6 -17.1
      vertex 17.1 0 -17.1
    endloop
  endfacet
  facet normal 0 0 -1
    outer loop
      vertex -3 -6.6 -17.1
      vertex 17.1 0 -17.1
      vertex 3 -6.6 -17.1
    endloop
  endfacet
  facet normal 0 0 -1
    outer loop
      vertex -3 -6.6 -17.1
      vertex -17.1 0 -17.1
      vertex 17.1 0 -17.1
    endloop
  endfacet
  facet normal 0 0 -1
    outer loop
      vertex -17.1 0 -17.1
      vertex -3 -6.6 -17.1
      vertex -17.1 -16.6 -17.1
    endloop
  endfacet
  facet normal 0 -1 0
    outer loop
      vertex -17.1 -16.6 -17.1
      vertex -3 -16.6 17.1
      vertex -17.1 -16.6 17.1
    endloop
  endfacet
  facet normal 0 -1 -0
    outer loop
      vertex -3 -16.6 17.1
      vertex -17.1 -16.6 -17.1
      vertex -3 -16.6 -17.1
    endloop
  endfacet
  facet normal 0 -1 0
    outer loop
      vertex 3 -16.6 -17.1
      vertex 17.1 -16.6 17.1
      vertex 3 -16.6 17.1
    endloop
  endfacet
  facet normal 0 -1 -0
    outer loop
      vertex 17.1 -16.6 17.1
      vertex 3 -16.6 -17.1
      vertex 17.1 -16.6 -17.1
    endloop
  endfacet
  facet normal 1 0 0
    outer loop
      vertex -3 -6.6 17.1
      vertex -3 -11.68 0
      vertex -3 -6.6 -17.1
    endloop
  endfacet
  facet normal 1 0 0
    outer loop
      vertex -3 -6.6 17.1
      vertex -3 -12.4029 1.50112
      vertex -3 -11.68 0
    endloop
  endfacet
  facet normal 1 0 0
    outer loop
      vertex -3 -6.6 17.1
      vertex -3 -14.0272 1.87186
      vertex -3 -12.4029 1.50112
    endloop
  endfacet
  facet normal 1 -0 0
    outer loop
      vertex -3 -16.6 17.1
      vertex -3 -14.0272 1.87186
      vertex -3 -6.6 17.1
    endloop
  endfacet
  facet normal 1 0 0
    outer loop
      vertex -3 -15.3299 0.833056
      vertex -3 -16.6 17.1
      vertex -3 -15.3299 -0.833056
    endloop
  endfacet
  facet normal 1 0 0
    outer loop
      vertex -3 -14.0272 1.87186
      vertex -3 -16.6 17.1
      vertex -3 -15.3299 0.833056
    endloop
  endfacet
  facet normal 1 -0 0
    outer loop
      vertex -3 -12.4029 -1.50112
      vertex -3 -6.6 -17.1
      vertex -3 -11.68 0
    endloop
  endfacet
  facet normal 1 -0 0
    outer loop
      vertex -3 -14.0272 -1.87186
      vertex -3 -6.6 -17.1
      vertex -3 -12.4029 -1.50112
    endloop
  endfacet
  facet normal 1 0 0
    outer loop
      vertex -3 -16.6 -17.1
      vertex -3 -14.0272 -1.87186
      vertex -3 -15.3299 -0.833056
    endloop
  endfacet
  facet normal 1 0 0
    outer loop
      vertex -3 -14.0272 -1.87186
      vertex -3 -16.6 -17.1
      vertex -3 -6.6 -17.1
    endloop
  endfacet
  facet normal 1 0 0
    outer loop
      vertex -3 -16.6 -17.1
      vertex -3 -15.3299 -0.833056
      vertex -3 -16.6 17.1
    endloop
  endfacet
  facet normal -1 0 0
    outer loop
      vertex 3 -6.6 -17.1
      vertex 3 -11.68 0
      vertex 3 -6.6 17.1
    endloop
  endfacet
  facet normal -1 0 0
    outer loop
      vertex 3 -6.6 -17.1
      vertex 3 -12.4029 -1.50112
      vertex 3 -11.68 0
    endloop
  endfacet
  facet normal -1 0 0
    outer loop
      vertex 3 -6.6 -17.1
      vertex 3 -14.0272 -1.87186
      vertex 3 -12.4029 -1.50112
    endloop
  endfacet
  facet normal -1 0 0
    outer loop
      vertex 3 -16.6 -17.1
      vertex 3 -14.0272 -1.87186
      vertex 3 -6.6 -17.1
    endloop
  endfacet
  facet normal -1 -0 0
    outer loop
      vertex 3 -15.3299 -0.833056
      vertex 3 -16.6 -17.1
      vertex 3 -15.3299 0.833056
    endloop
  endfacet
  facet normal -1 -0 0
    outer loop
      vertex 3 -14.0272 -1.87186
      vertex 3 -16.6 -17.1
      vertex 3 -15.3299 -0.833056
    endloop
  endfacet
  facet normal -1 0 0
    outer loop
      vertex 3 -12.4029 1.50112
      vertex 3 -6.6 17.1
      vertex 3 -11.68 0
    endloop
  endfacet
  facet normal -1 0 0
    outer loop
      vertex 3 -14.0272 1.87186
      vertex 3 -6.6 17.1
      vertex 3 -12.4029 1.50112
    endloop
  endfacet
  facet normal -1 0 0
    outer loop
      vertex 3 -16.6 17.1
      vertex 3 -14.0272 1.87186
      vertex 3 -15.3299 0.833056
    endloop
  endfacet
  facet normal -1 0 0
    outer loop
      vertex 3 -14.0272 1.87186
      vertex 3 -16.6 17.1
      vertex 3 -6.6 17.1
    endloop
  endfacet
  facet normal -1 0 0
    outer loop
      vertex 3 -16.6 17.1
      vertex 3 -15.3299 0.833056
      vertex 3 -16.6 -17.1
    endloop
  endfacet
  facet normal 0 -1 0
    outer loop
      vertex -3 -6.6 -17.1
      vertex 3 -6.6 17.1
      vertex -3 -6.6 17.1
    endloop
  endfacet
  facet normal 0 -1 -0
    outer loop
      vertex 3 -6.6 17.1
      vertex -3 -6.6 -17.1
      vertex 3 -6.6 -17.1
    endloop
  endfacet
  facet normal 0 -0.900969 -0.433884
    outer loop
      vertex -17.1 -11.68 0
      vertex -3 -12.4029 1.50112
      vertex -17.1 -12.4029 1.50112
    endloop
  endfacet
  facet normal 0 -0.900969 -0.433884
    outer loop
      vertex -3 -12.4029 1.50112
      vertex -17.1 -11.68 0
      vertex -3 -11.68 0
    endloop
  endfacet
  facet normal 0 -0.900969 -0.433884
    outer loop
      vertex 3 -11.68 0
      vertex 17.1 -12.4029 1.50112
      vertex 3 -12.4029 1.50112
    endloop
  endfacet
  facet normal 0 -0.900969 -0.433884
    outer loop
      vertex 17.1 -12.4029 1.50112
      vertex 3 -11.68 0
      vertex 17.1 -11.68 0
    endloop
  endfacet
  facet normal 0 1 -0
    outer loop
      vertex -3 -15.3299 -0.833056
      vertex -17.1 -15.3299 0.833056
      vertex -3 -15.3299 0.833056
    endloop
  endfacet
  facet normal 0 1 0
    outer loop
      vertex -17.1 -15.3299 0.833056
      vertex -3 -15.3299 -0.833056
      vertex -17.1 -15.3299 -0.833056
    endloop
  endfacet
  facet normal 0 1 -0
    outer loop
      vertex 17.1 -15.3299 -0.833056
      vertex 3 -15.3299 0.833056
      vertex 17.1 -15.3299 0.833056
    endloop
  endfacet
  facet normal 0 1 0
    outer loop
      vertex 3 -15.3299 0.833056
      vertex 17.1 -15.3299 -0.833056
      vertex 3 -15.3299 -0.833056
    endloop
  endfacet
  facet normal 0 -0.222521 -0.974928
    outer loop
      vertex -17.1 -14.0272 1.87186
      vertex -3 -12.4029 1.50112
      vertex -3 -14.0272 1.87186
    endloop
  endfacet
  facet normal -0 -0.222521 -0.974928
    outer loop
      vertex -3 -12.4029 1.50112
      vertex -17.1 -14.0272 1.87186
      vertex -17.1 -12.4029 1.50112
    endloop
  endfacet
  facet normal 0 -0.222521 -0.974928
    outer loop
      vertex 3 -14.0272 1.87186
      vertex 17.1 -12.4029 1.50112
      vertex 17.1 -14.0272 1.87186
    endloop
  endfacet
  facet normal -0 -0.222521 -0.974928
    outer loop
      vertex 17.1 -12.4029 1.50112
      vertex 3 -14.0272 1.87186
      vertex 3 -12.4029 1.50112
    endloop
  endfacet
  facet normal 0 0.62349 -0.781831
    outer loop
      vertex -17.1 -15.3299 0.833056
      vertex -3 -14.0272 1.87186
      vertex -3 -15.3299 0.833056
    endloop
  endfacet
  facet normal 0 0.62349 -0.781831
    outer loop
      vertex -3 -14.0272 1.87186
      vertex -17.1 -15.3299 0.833056
      vertex -17.1 -14.0272 1.87186
    endloop
  endfacet
  facet normal 0 0.62349 -0.781831
    outer loop
      vertex 3 -15.3299 0.833056
      vertex 17.1 -14.0272 1.87186
      vertex 17.1 -15.3299 0.833056
    endloop
  endfacet
  facet normal 0 0.62349 -0.781831
    outer loop
      vertex 17.1 -14.0272 1.87186
      vertex 3 -15.3299 0.833056
      vertex 3 -14.0272 1.87186
    endloop
  endfacet
  facet normal 0 -0.222521 0.974928
    outer loop
      vertex -17.1 -12.4029 -1.50112
      vertex -3 -14.0272 -1.87186
      vertex -3 -12.4029 -1.50112
    endloop
  endfacet
  facet normal 0 -0.222521 0.974928
    outer loop
      vertex -3 -14.0272 -1.87186
      vertex -17.1 -12.4029 -1.50112
      vertex -17.1 -14.0272 -1.87186
    endloop
  endfacet
  facet normal 0 -0.222521 0.974928
    outer loop
      vertex 3 -12.4029 -1.50112
      vertex 17.1 -14.0272 -1.87186
      vertex 17.1 -12.4029 -1.50112
    endloop
  endfacet
  facet normal 0 -0.222521 0.974928
    outer loop
      vertex 17.1 -14.0272 -1.87186
      vertex 3 -12.4029 -1.50112
      vertex 3 -14.0272 -1.87186
    endloop
  endfacet
  facet normal -0 0.62349 0.781831
    outer loop
      vertex -17.1 -14.0272 -1.87186
      vertex -3 -15.3299 -0.833056
      vertex -3 -14.0272 -1.87186
    endloop
  endfacet
  facet normal 0 0.62349 0.781831
    outer loop
      vertex -3 -15.3299 -0.833056
      vertex -17.1 -14.0272 -1.87186
      vertex -17.1 -15.3299 -0.833056
    endloop
  endfacet
  facet normal -0 0.62349 0.781831
    outer loop
      vertex 3 -14.0272 -1.87186
      vertex 17.1 -15.3299 -0.833056
      vertex 17.1 -14.0272 -1.87186
    endloop
  endfacet
  facet normal 0 0.62349 0.781831
    outer loop
      vertex 17.1 -15.3299 -0.833056
      vertex 3 -14.0272 -1.87186
      vertex 3 -15.3299 -0.833056
    endloop
  endfacet
  facet normal 0 -0.900969 0.433884
    outer loop
      vertex -17.1 -12.4029 -1.50112
      vertex -3 -11.68 0
      vertex -17.1 -11.68 0
    endloop
  endfacet
  facet normal 0 -0.900969 0.433884
    outer loop
      vertex -3 -11.68 0
      vertex -17.1 -12.4029 -1.50112
      vertex -3 -12.4029 -1.50112
    endloop
  endfacet
  facet normal 0 -0.900969 0.433884
    outer loop
      vertex 3 -12.4029 -1.50112
      vertex 17.1 -11.68 0
      vertex 3 -11.68 0
    endloop
  endfacet
  facet normal 0 -0.900969 0.433884
    outer loop
      vertex 17.1 -11.68 0
      vertex 3 -12.4029 -1.50112
      vertex 17.1 -12.4029 -1.50112
    endloop
  endfacet
  facet normal -0.994522 -0 -0.104529
    outer loop
      vertex 15.2591 -0.999999 3.24342
      vertex 15.6 -1 0
      vertex 15.2591 -1 3.24342
    endloop
  endfacet
  facet normal 4.52471e-007 -1 1.47017e-007
    outer loop
      vertex -14.2513 -1 -6.34509
      vertex -15.2591 -0.999999 3.24342
      vertex -15.2591 -1 -3.24342
    endloop
  endfacet
  facet normal 0.951057 -0 0.309017
    outer loop
      vertex -15.2591 -3.6 -3.24342
      vertex -14.2513 -1 -6.34509
      vertex -15.2591 -1 -3.24342
    endloop
  endfacet
  facet normal 0.951057 0 0.309017
    outer loop
      vertex -14.2513 -1 -6.34509
      vertex -15.2591 -3.6 -3.24342
      vertex -14.2513 -3.6 -6.34509
    endloop
  endfacet
  facet normal -0.207912 0 0.978148
    outer loop
      vertex 1.63064 -1 -15.5145
      vertex 4.82066 -3.6 -14.8365
      vertex 4.82066 -1 -14.8365
    endloop
  endfacet
  facet normal -0.207912 0 0.978148
    outer loop
      vertex 4.82066 -3.6 -14.8365
      vertex 1.63064 -1 -15.5145
      vertex 1.63064 -3.6 -15.5145
    endloop
  endfacet
  facet normal -1.11695e-007 -1 1.00571e-007
    outer loop
      vertex 12.6207 -1 -9.16945
      vertex 15.2591 -0.999999 3.24342
      vertex 10.4384 -1 -11.5931
    endloop
  endfacet
  facet normal 0 -1 5.51313e-008
    outer loop
      vertex -15.2591 -0.999999 3.24342
      vertex -9.5 -0.999999 0
      vertex -9.5 -0.999999 3.24342
    endloop
  endfacet
  facet normal -1.49379e-008 -1 2.86071e-008
    outer loop
      vertex -15.2591 -0.999999 3.24342
      vertex -9.2924 -0.999999 -1.97516
      vertex -9.5 -0.999999 0
    endloop
  endfacet
  facet normal 2.12919e-008 -1 7.00307e-008
    outer loop
      vertex -15.2591 -0.999999 3.24342
      vertex -8.67868 -0.999999 -3.864
      vertex -9.2924 -0.999999 -1.97516
    endloop
  endfacet
  facet normal 5.44952e-008 -1 1.00772e-007
    outer loop
      vertex -15.2591 -0.999999 3.24342
      vertex -7.68566 -1 -5.58396
      vertex -8.67868 -0.999999 -3.864
    endloop
  endfacet
  facet normal 0 -1 4.91254e-008
    outer loop
      vertex -0.99302 -1 -9.44796
      vertex -1.63064 -1 -15.5145
      vertex 0.99302 -1 -9.44796
    endloop
  endfacet
  facet normal -1.9798e-008 -1 5.12062e-008
    outer loop
      vertex -2.93566 -1 -9.03504
      vertex -1.63064 -1 -15.5145
      vertex -0.99302 -1 -9.44796
    endloop
  endfacet
  facet normal 2.69945e-008 -1 6.06306e-008
    outer loop
      vertex -4.75 -1 -8.22724
      vertex -1.63064 -1 -15.5145
      vertex -2.93566 -1 -9.03504
    endloop
  endfacet
  facet normal -2.09172e-009 -1 4.81801e-008
    outer loop
      vertex -6.35674 -1 -7.05988
      vertex -1.63064 -1 -15.5145
      vertex -4.75 -1 -8.22724
    endloop
  endfacet
  facet normal 2.62572e-008 -1 6.4027e-008
    outer loop
      vertex -7.68566 -1 -5.58396
      vertex -1.63064 -1 -15.5145
      vertex -6.35674 -1 -7.05988
    endloop
  endfacet
  facet normal -2.41764e-008 -1 3.32759e-008
    outer loop
      vertex -1.63064 -1 -15.5145
      vertex -7.68566 -1 -5.58396
      vertex -15.2591 -0.999999 3.24342
    endloop
  endfacet
  facet normal 0 -1 5.51313e-008
    outer loop
      vertex 9.5 -0.999999 0
      vertex 15.2591 -0.999999 3.24342
      vertex 9.5 -0.999999 3.24342
    endloop
  endfacet
  facet normal 1.49379e-008 -1 2.86071e-008
    outer loop
      vertex 9.2924 -0.999999 -1.97516
      vertex 15.2591 -0.999999 3.24342
      vertex 9.5 -0.999999 0
    endloop
  endfacet
  facet normal -2.12919e-008 -1 7.00307e-008
    outer loop
      vertex 8.67868 -0.999999 -3.864
      vertex 15.2591 -0.999999 3.24342
      vertex 9.2924 -0.999999 -1.97516
    endloop
  endfacet
  facet normal -5.44952e-008 -1 1.00772e-007
    outer loop
      vertex 7.68566 -1 -5.58396
      vertex 15.2591 -0.999999 3.24342
      vertex 8.67868 -0.999999 -3.864
    endloop
  endfacet
  facet normal 0 -1 4.91254e-008
    outer loop
      vertex 1.63064 -1 -15.5145
      vertex 0.99302 -1 -9.44796
      vertex -1.63064 -1 -15.5145
    endloop
  endfacet
  facet normal 1.9798e-008 -1 5.12062e-008
    outer loop
      vertex 0.99302 -1 -9.44796
      vertex 1.63064 -1 -15.5145
      vertex 2.93566 -1 -9.03504
    endloop
  endfacet
  facet normal -2.69945e-008 -1 6.06306e-008
    outer loop
      vertex 2.93566 -1 -9.03504
      vertex 1.63064 -1 -15.5145
      vertex 4.75 -1 -8.22724
    endloop
  endfacet
  facet normal 2.41764e-008 -1 3.32759e-008
    outer loop
      vertex 7.68566 -1 -5.58396
      vertex 1.63064 -1 -15.5145
      vertex 15.2591 -0.999999 3.24342
    endloop
  endfacet
  facet normal -2.62572e-008 -1 6.4027e-008
    outer loop
      vertex 6.35674 -1 -7.05988
      vertex 1.63064 -1 -15.5145
      vertex 7.68566 -1 -5.58396
    endloop
  endfacet
  facet normal 2.09172e-009 -1 4.81801e-008
    outer loop
      vertex 4.75 -1 -8.22724
      vertex 1.63064 -1 -15.5145
      vertex 6.35674 -1 -7.05988
    endloop
  endfacet
  facet normal -0.866025 0 -0.5
    outer loop
      vertex 14.2513 -1 6.34509
      vertex 12.6207 -0.999999 9.16945
      vertex 14.2513 -0.999999 6.34509
    endloop
  endfacet
  facet normal -0.866025 -0 -0.5
    outer loop
      vertex 12.6207 -0.999999 9.16945
      vertex 14.2513 -1 6.34509
      vertex 12.6207 -1 9.16945
    endloop
  endfacet
  facet normal -0 0 1
    outer loop
      vertex -1.63064 -1 -15.5145
      vertex 1.63064 -3.6 -15.5145
      vertex 1.63064 -1 -15.5145
    endloop
  endfacet
  facet normal 0 0 1
    outer loop
      vertex 1.63064 -3.6 -15.5145
      vertex -1.63064 -1 -15.5145
      vertex -1.63064 -3.6 -15.5145
    endloop
  endfacet
  facet normal -3.16104e-008 -1 7.0998e-008
    outer loop
      vertex 7.8 -1 -13.51
      vertex 15.2591 -0.999999 3.24342
      vertex 4.82066 -1 -14.8365
    endloop
  endfacet
  facet normal -0.866025 0 0.5
    outer loop
      vertex 12.6207 -3.6 -9.16945
      vertex 14.2513 -1 -6.34509
      vertex 12.6207 -1 -9.16945
    endloop
  endfacet
  facet normal -0.866025 0 0.5
    outer loop
      vertex 14.2513 -1 -6.34509
      vertex 12.6207 -3.6 -9.16945
      vertex 14.2513 -3.6 -6.34509
    endloop
  endfacet
  facet normal 0.866025 0 -0.5
    outer loop
      vertex -12.6207 -1 9.16945
      vertex -14.2513 -0.999999 6.34509
      vertex -12.6207 -0.999999 9.16945
    endloop
  endfacet
  facet normal 0.866025 0 -0.5
    outer loop
      vertex -14.2513 -0.999999 6.34509
      vertex -12.6207 -1 9.16945
      vertex -14.2513 -1 6.34509
    endloop
  endfacet
  facet normal 0 1 -0
    outer loop
      vertex 15.6 -3.6 0
      vertex -15.6 -3.6 17.1
      vertex 15.6 -3.6 17.1
    endloop
  endfacet
  facet normal 0 1 0
    outer loop
      vertex 15.6 -3.6 0
      vertex -15.6 -3.6 0
      vertex -15.6 -3.6 17.1
    endloop
  endfacet
  facet normal 0 1 -0
    outer loop
      vertex 15.2591 -3.6 -3.24342
      vertex -15.6 -3.6 0
      vertex 15.6 -3.6 0
    endloop
  endfacet
  facet normal 0 1 0
    outer loop
      vertex 15.2591 -3.6 -3.24342
      vertex -15.2591 -3.6 -3.24342
      vertex -15.6 -3.6 0
    endloop
  endfacet
  facet normal 0 1 -0
    outer loop
      vertex 14.2513 -3.6 -6.34509
      vertex -15.2591 -3.6 -3.24342
      vertex 15.2591 -3.6 -3.24342
    endloop
  endfacet
  facet normal 0 1 0
    outer loop
      vertex 14.2513 -3.6 -6.34509
      vertex -14.2513 -3.6 -6.34509
      vertex -15.2591 -3.6 -3.24342
    endloop
  endfacet
  facet normal 0 1 -0
    outer loop
      vertex 12.6207 -3.6 -9.16945
      vertex -14.2513 -3.6 -6.34509
      vertex 14.2513 -3.6 -6.34509
    endloop
  endfacet
  facet normal 0 1 0
    outer loop
      vertex 12.6207 -3.6 -9.16945
      vertex -12.6207 -3.6 -9.16945
      vertex -14.2513 -3.6 -6.34509
    endloop
  endfacet
  facet normal 0 1 -0
    outer loop
      vertex 10.4384 -3.6 -11.5931
      vertex -12.6207 -3.6 -9.16945
      vertex 12.6207 -3.6 -9.16945
    endloop
  endfacet
  facet normal 0 1 0
    outer loop
      vertex 10.4384 -3.6 -11.5931
      vertex -10.4384 -3.6 -11.5931
      vertex -12.6207 -3.6 -9.16945
    endloop
  endfacet
  facet normal 0 1 -0
    outer loop
      vertex 7.8 -3.6 -13.51
      vertex -10.4384 -3.6 -11.5931
      vertex 10.4384 -3.6 -11.5931
    endloop
  endfacet
  facet normal 0 1 0
    outer loop
      vertex 7.8 -3.6 -13.51
      vertex -7.8 -3.6 -13.51
      vertex -10.4384 -3.6 -11.5931
    endloop
  endfacet
  facet normal 0 1 -0
    outer loop
      vertex 4.82066 -3.6 -14.8365
      vertex -7.8 -3.6 -13.51
      vertex 7.8 -3.6 -13.51
    endloop
  endfacet
  facet normal 0 1 0
    outer loop
      vertex 4.82066 -3.6 -14.8365
      vertex -4.82066 -3.6 -14.8365
      vertex -7.8 -3.6 -13.51
    endloop
  endfacet
  facet normal 0 1 -0
    outer loop
      vertex 1.63064 -3.6 -15.5145
      vertex -4.82066 -3.6 -14.8365
      vertex 4.82066 -3.6 -14.8365
    endloop
  endfacet
  facet normal 0 1 0
    outer loop
      vertex -4.82066 -3.6 -14.8365
      vertex 1.63064 -3.6 -15.5145
      vertex -1.63064 -3.6 -15.5145
    endloop
  endfacet
  facet normal -0.951057 0 -0.309017
    outer loop
      vertex 15.2591 -1 3.24342
      vertex 14.2513 -0.999999 6.34509
      vertex 15.2591 -0.999999 3.24342
    endloop
  endfacet
  facet normal -0.951057 -0 -0.309017
    outer loop
      vertex 14.2513 -0.999999 6.34509
      vertex 15.2591 -1 3.24342
      vertex 14.2513 -1 6.34509
    endloop
  endfacet
  facet normal -1.39877e-006 -1 1.47017e-007
    outer loop
      vertex 15.6 -1 0
      vertex 15.2591 -0.999999 3.24342
      vertex 15.2591 -1 -3.24342
    endloop
  endfacet
  facet normal 0.743145 -0 0.669131
    outer loop
      vertex -12.6207 -3.6 -9.16945
      vertex -10.4384 -1 -11.5931
      vertex -12.6207 -1 -9.16945
    endloop
  endfacet
  facet normal 0.743145 0 0.669131
    outer loop
      vertex -10.4384 -1 -11.5931
      vertex -12.6207 -3.6 -9.16945
      vertex -10.4384 -3.6 -11.5931
    endloop
  endfacet
  facet normal 0.587785 0 0.809017
    outer loop
      vertex -10.4384 -1 -11.5931
      vertex -7.8 -3.6 -13.51
      vertex -7.8 -1 -13.51
    endloop
  endfacet
  facet normal 0.587785 0 0.809017
    outer loop
      vertex -7.8 -3.6 -13.51
      vertex -10.4384 -1 -11.5931
      vertex -10.4384 -3.6 -11.5931
    endloop
  endfacet
  facet normal 0.207912 0 0.978148
    outer loop
      vertex -4.82066 -1 -14.8365
      vertex -1.63064 -3.6 -15.5145
      vertex -1.63064 -1 -15.5145
    endloop
  endfacet
  facet normal 0.207912 0 0.978148
    outer loop
      vertex -1.63064 -3.6 -15.5145
      vertex -4.82066 -1 -14.8365
      vertex -4.82066 -3.6 -14.8365
    endloop
  endfacet
  facet normal -6.1133e-008 -1 8.41423e-008
    outer loop
      vertex 10.4384 -1 -11.5931
      vertex 15.2591 -0.999999 3.24342
      vertex 7.8 -1 -13.51
    endloop
  endfacet
  facet normal -1.27803e-008 -1 6.01264e-008
    outer loop
      vertex 4.82066 -1 -14.8365
      vertex 15.2591 -0.999999 3.24342
      vertex 1.63064 -1 -15.5145
    endloop
  endfacet
  facet normal -4.52471e-007 -1 1.47017e-007
    outer loop
      vertex 15.2591 -1 -3.24342
      vertex 15.2591 -0.999999 3.24342
      vertex 14.2513 -1 -6.34509
    endloop
  endfacet
  facet normal 0 -1 0
    outer loop
      vertex 9.5 -0.999999 3.24342
      vertex 10.4384 -0.999999 11.5931
      vertex 9.5 -0.999999 12.2749
    endloop
  endfacet
  facet normal 0 -1 -0
    outer loop
      vertex 10.4384 -0.999999 11.5931
      vertex 9.5 -0.999999 3.24342
      vertex 12.6207 -0.999999 9.16945
    endloop
  endfacet
  facet normal 0 -1 -0
    outer loop
      vertex 12.6207 -0.999999 9.16945
      vertex 9.5 -0.999999 3.24342
      vertex 14.2513 -0.999999 6.34509
    endloop
  endfacet
  facet normal 0 -1 -0
    outer loop
      vertex 14.2513 -0.999999 6.34509
      vertex 9.5 -0.999999 3.24342
      vertex 15.2591 -0.999999 3.24342
    endloop
  endfacet
  facet normal 0 -1 0
    outer loop
      vertex -9.5 -0.999999 3.24342
      vertex -10.4384 -0.999999 11.5931
      vertex -12.6207 -0.999999 9.16945
    endloop
  endfacet
  facet normal 0 -1 0
    outer loop
      vertex -9.5 -0.999999 3.24342
      vertex -12.6207 -0.999999 9.16945
      vertex -14.2513 -0.999999 6.34509
    endloop
  endfacet
  facet normal 0 -1 0
    outer loop
      vertex -9.5 -0.999999 3.24342
      vertex -14.2513 -0.999999 6.34509
      vertex -15.2591 -0.999999 3.24342
    endloop
  endfacet
  facet normal 0 -1 0
    outer loop
      vertex -10.4384 -0.999999 11.5931
      vertex -9.5 -0.999999 3.24342
      vertex -9.5 -0.999999 12.2749
    endloop
  endfacet
  facet normal 0.743145 0 -0.669131
    outer loop
      vertex -10.4384 -1 11.5931
      vertex -12.6207 -0.999999 9.16945
      vertex -10.4384 -0.999999 11.5931
    endloop
  endfacet
  facet normal 0.743145 0 -0.669131
    outer loop
      vertex -12.6207 -0.999999 9.16945
      vertex -10.4384 -1 11.5931
      vertex -12.6207 -1 9.16945
    endloop
  endfacet
  facet normal 0.951057 0 -0.309017
    outer loop
      vertex -14.2513 -1 6.34509
      vertex -15.2591 -0.999999 3.24342
      vertex -14.2513 -0.999999 6.34509
    endloop
  endfacet
  facet normal 0.951057 0 -0.309017
    outer loop
      vertex -15.2591 -0.999999 3.24342
      vertex -14.2513 -1 6.34509
      vertex -15.2591 -1 3.24342
    endloop
  endfacet
  facet normal 0.994522 -0 0.104529
    outer loop
      vertex -15.6 -3.6 0
      vertex -15.2591 -1 -3.24342
      vertex -15.6 -1 0
    endloop
  endfacet
  facet normal 0.994522 0 0.104529
    outer loop
      vertex -15.2591 -1 -3.24342
      vertex -15.6 -3.6 0
      vertex -15.2591 -3.6 -3.24342
    endloop
  endfacet
  facet normal -0.743145 0 -0.669131
    outer loop
      vertex 12.6207 -1 9.16945
      vertex 10.4384 -0.999999 11.5931
      vertex 12.6207 -0.999999 9.16945
    endloop
  endfacet
  facet normal -0.743145 -0 -0.669131
    outer loop
      vertex 10.4384 -0.999999 11.5931
      vertex 12.6207 -1 9.16945
      vertex 10.4384 -1 11.5931
    endloop
  endfacet
  facet normal -0.587785 0 -0.809017
    outer loop
      vertex 9.5 -1 12.2749
      vertex 10.4384 -0.999999 11.5931
      vertex 10.4384 -1 11.5931
    endloop
  endfacet
  facet normal -0.587785 0 -0.809017
    outer loop
      vertex 10.4384 -0.999999 11.5931
      vertex 9.5 -1 12.2749
      vertex 9.5 -0.999999 12.2749
    endloop
  endfacet
  facet normal 1.11695e-007 -1 1.00571e-007
    outer loop
      vertex -12.6207 -1 -9.16945
      vertex -10.4384 -1 -11.5931
      vertex -15.2591 -0.999999 3.24342
    endloop
  endfacet
  facet normal 0.866025 -0 0.5
    outer loop
      vertex -14.2513 -3.6 -6.34509
      vertex -12.6207 -1 -9.16945
      vertex -14.2513 -1 -6.34509
    endloop
  endfacet
  facet normal 0.866025 0 0.5
    outer loop
      vertex -12.6207 -1 -9.16945
      vertex -14.2513 -3.6 -6.34509
      vertex -12.6207 -3.6 -9.16945
    endloop
  endfacet
  facet normal 2.10611e-007 -1 1.21596e-007
    outer loop
      vertex -14.2513 -1 -6.34509
      vertex -12.6207 -1 -9.16945
      vertex -15.2591 -0.999999 3.24342
    endloop
  endfacet
  facet normal 0.406737 0 0.913545
    outer loop
      vertex -7.8 -1 -13.51
      vertex -4.82066 -3.6 -14.8365
      vertex -4.82066 -1 -14.8365
    endloop
  endfacet
  facet normal 0.406737 0 0.913545
    outer loop
      vertex -4.82066 -3.6 -14.8365
      vertex -7.8 -1 -13.51
      vertex -7.8 -3.6 -13.51
    endloop
  endfacet
  facet normal 6.1133e-008 -1 8.41423e-008
    outer loop
      vertex -10.4384 -1 -11.5931
      vertex -7.8 -1 -13.51
      vertex -15.2591 -0.999999 3.24342
    endloop
  endfacet
  facet normal -0.406737 0 0.913545
    outer loop
      vertex 4.82066 -1 -14.8365
      vertex 7.8 -3.6 -13.51
      vertex 7.8 -1 -13.51
    endloop
  endfacet
  facet normal -0.406737 0 0.913545
    outer loop
      vertex 7.8 -3.6 -13.51
      vertex 4.82066 -1 -14.8365
      vertex 4.82066 -3.6 -14.8365
    endloop
  endfacet
  facet normal -0.587785 0 0.809017
    outer loop
      vertex 7.8 -1 -13.51
      vertex 10.4384 -3.6 -11.5931
      vertex 10.4384 -1 -11.5931
    endloop
  endfacet
  facet normal -0.587785 0 0.809017
    outer loop
      vertex 10.4384 -3.6 -11.5931
      vertex 7.8 -1 -13.51
      vertex 7.8 -3.6 -13.51
    endloop
  endfacet
  facet normal -0.743145 0 0.669131
    outer loop
      vertex 10.4384 -3.6 -11.5931
      vertex 12.6207 -1 -9.16945
      vertex 10.4384 -1 -11.5931
    endloop
  endfacet
  facet normal -0.743145 0 0.669131
    outer loop
      vertex 12.6207 -1 -9.16945
      vertex 10.4384 -3.6 -11.5931
      vertex 12.6207 -3.6 -9.16945
    endloop
  endfacet
  facet normal -2.10611e-007 -1 1.21596e-007
    outer loop
      vertex 14.2513 -1 -6.34509
      vertex 15.2591 -0.999999 3.24342
      vertex 12.6207 -1 -9.16945
    endloop
  endfacet
  facet normal -0.951057 0 0.309017
    outer loop
      vertex 14.2513 -3.6 -6.34509
      vertex 15.2591 -1 -3.24342
      vertex 14.2513 -1 -6.34509
    endloop
  endfacet
  facet normal -0.951057 0 0.309017
    outer loop
      vertex 15.2591 -1 -3.24342
      vertex 14.2513 -3.6 -6.34509
      vertex 15.2591 -3.6 -3.24342
    endloop
  endfacet
  facet normal -0.994522 0 0.104529
    outer loop
      vertex 15.2591 -3.6 -3.24342
      vertex 15.6 -1 0
      vertex 15.2591 -1 -3.24342
    endloop
  endfacet
  facet normal -0.994522 0 0.104529
    outer loop
      vertex 15.6 -1 0
      vertex 15.2591 -3.6 -3.24342
      vertex 15.6 -3.6 0
    endloop
  endfacet
  facet normal 3.16104e-008 -1 7.0998e-008
    outer loop
      vertex -7.8 -1 -13.51
      vertex -4.82066 -1 -14.8365
      vertex -15.2591 -0.999999 3.24342
    endloop
  endfacet
  facet normal 0.587785 0 -0.809017
    outer loop
      vertex -10.4384 -1 11.5931
      vertex -9.5 -0.999999 12.2749
      vertex -9.5 -1 12.2749
    endloop
  endfacet
  facet normal 0.587785 0 -0.809017
    outer loop
      vertex -9.5 -0.999999 12.2749
      vertex -10.4384 -1 11.5931
      vertex -10.4384 -0.999999 11.5931
    endloop
  endfacet
  facet normal 0.994522 0 -0.104529
    outer loop
      vertex -15.2591 -0.999999 3.24342
      vertex -15.2591 -1 3.24342
      vertex -15.6 -1 0
    endloop
  endfacet
  facet normal 1.39877e-006 -1 1.47017e-007
    outer loop
      vertex -15.2591 -1 -3.24342
      vertex -15.2591 -0.999999 3.24342
      vertex -15.6 -1 0
    endloop
  endfacet
  facet normal 1.27803e-008 -1 6.01264e-008
    outer loop
      vertex -4.82066 -1 -14.8365
      vertex -1.63064 -1 -15.5145
      vertex -15.2591 -0.999999 3.24342
    endloop
  endfacet
  facet normal 1 -0 0
    outer loop
      vertex -15.6 -3.6 17.1
      vertex -15.6 -1 0
      vertex -15.6 -1 17.1
    endloop
  endfacet
  facet normal 1 0 0
    outer loop
      vertex -15.6 -1 0
      vertex -15.6 -3.6 17.1
      vertex -15.6 -3.6 0
    endloop
  endfacet
  facet normal -1 0 0
    outer loop
      vertex 15.6 -3.6 0
      vertex 15.6 -1 17.1
      vertex 15.6 -1 0
    endloop
  endfacet
  facet normal -1 -0 0
    outer loop
      vertex 15.6 -1 17.1
      vertex 15.6 -3.6 0
      vertex 15.6 -3.6 17.1
    endloop
  endfacet
  facet normal 0 -1 0
    outer loop
      vertex 10.4384 -1 11.5931
      vertex 9.5 -1 17.1
      vertex 9.5 -1 12.2749
    endloop
  endfacet
  facet normal 0 -1 0
    outer loop
      vertex 9.5 -1 17.1
      vertex 10.4384 -1 11.5931
      vertex 15.6 -1 17.1
    endloop
  endfacet
  facet normal 0 -1 0
    outer loop
      vertex 12.6207 -1 9.16945
      vertex 15.6 -1 17.1
      vertex 10.4384 -1 11.5931
    endloop
  endfacet
  facet normal 0 -1 0
    outer loop
      vertex 14.2513 -1 6.34509
      vertex 15.6 -1 17.1
      vertex 12.6207 -1 9.16945
    endloop
  endfacet
  facet normal 0 -1 0
    outer loop
      vertex 15.2591 -1 3.24342
      vertex 15.6 -1 17.1
      vertex 14.2513 -1 6.34509
    endloop
  endfacet
  facet normal 0 -1 -0
    outer loop
      vertex 15.6 -1 17.1
      vertex 15.2591 -1 3.24342
      vertex 15.6 -1 0
    endloop
  endfacet
  facet normal 0 -1 0
    outer loop
      vertex -10.4384 -1 11.5931
      vertex -9.5 -1 17.1
      vertex -15.6 -1 17.1
    endloop
  endfacet
  facet normal 0 -1 -0
    outer loop
      vertex -9.5 -1 17.1
      vertex -10.4384 -1 11.5931
      vertex -9.5 -1 12.2749
    endloop
  endfacet
  facet normal 0 -1 0
    outer loop
      vertex -15.6 -1 17.1
      vertex -12.6207 -1 9.16945
      vertex -10.4384 -1 11.5931
    endloop
  endfacet
  facet normal 0 -1 0
    outer loop
      vertex -15.6 -1 17.1
      vertex -14.2513 -1 6.34509
      vertex -12.6207 -1 9.16945
    endloop
  endfacet
  facet normal 0 -1 0
    outer loop
      vertex -15.6 -1 17.1
      vertex -15.2591 -1 3.24342
      vertex -14.2513 -1 6.34509
    endloop
  endfacet
  facet normal -0 -1 0
    outer loop
      vertex -15.2591 -1 3.24342
      vertex -15.6 -1 17.1
      vertex -15.6 -1 0
    endloop
  endfacet
  facet normal -0.994522 0 0.104529
    outer loop
      vertex 9.2924 0 -1.97516
      vertex 9.5 -0.999999 0
      vertex 9.5 0 0
    endloop
  endfacet
  facet normal -0.994522 0 0.104529
    outer loop
      vertex 9.5 -0.999999 0
      vertex 9.2924 0 -1.97516
      vertex 9.2924 -0.999999 -1.97516
    endloop
  endfacet
  facet normal -0 0 1
    outer loop
      vertex -0.99302 0 -9.44796
      vertex 0.99302 -1 -9.44796
      vertex 0.99302 0 -9.44796
    endloop
  endfacet
  facet normal 0 0 1
    outer loop
      vertex 0.99302 -1 -9.44796
      vertex -0.99302 0 -9.44796
      vertex -0.99302 -1 -9.44796
    endloop
  endfacet
  facet normal -0.406737 0 0.913545
    outer loop
      vertex 2.93566 0 -9.03504
      vertex 4.75 -1 -8.22724
      vertex 4.75 0 -8.22724
    endloop
  endfacet
  facet normal -0.406737 0 0.913545
    outer loop
      vertex 4.75 -1 -8.22724
      vertex 2.93566 0 -9.03504
      vertex 2.93566 -1 -9.03504
    endloop
  endfacet
  facet normal -0.743145 0 0.669131
    outer loop
      vertex 6.35674 0 -7.05988
      vertex 7.68566 -1 -5.58396
      vertex 7.68566 0 -5.58396
    endloop
  endfacet
  facet normal -0.743145 0 0.669131
    outer loop
      vertex 7.68566 -1 -5.58396
      vertex 6.35674 0 -7.05988
      vertex 6.35674 -1 -7.05988
    endloop
  endfacet
  facet normal -0.951057 0 0.309017
    outer loop
      vertex 8.67868 0 -3.864
      vertex 9.2924 -0.999999 -1.97516
      vertex 9.2924 0 -1.97516
    endloop
  endfacet
  facet normal -0.951057 0 0.309017
    outer loop
      vertex 9.2924 -0.999999 -1.97516
      vertex 8.67868 0 -3.864
      vertex 8.67868 -0.999999 -3.864
    endloop
  endfacet
  facet normal -0.866026 0 0.5
    outer loop
      vertex 7.68566 0 -5.58396
      vertex 8.67868 -0.999999 -3.864
      vertex 8.67868 0 -3.864
    endloop
  endfacet
  facet normal -0.866026 0 0.5
    outer loop
      vertex 8.67868 -0.999999 -3.864
      vertex 7.68566 0 -5.58396
      vertex 7.68566 -1 -5.58396
    endloop
  endfacet
  facet normal 0.866026 -0 0.5
    outer loop
      vertex -8.67868 -0.999999 -3.864
      vertex -7.68566 0 -5.58396
      vertex -8.67868 0 -3.864
    endloop
  endfacet
  facet normal 0.866026 0 0.5
    outer loop
      vertex -7.68566 0 -5.58396
      vertex -8.67868 -0.999999 -3.864
      vertex -7.68566 -1 -5.58396
    endloop
  endfacet
  facet normal 0.951057 -0 0.309017
    outer loop
      vertex -9.2924 -0.999999 -1.97516
      vertex -8.67868 0 -3.864
      vertex -9.2924 0 -1.97516
    endloop
  endfacet
  facet normal 0.951057 0 0.309017
    outer loop
      vertex -8.67868 0 -3.864
      vertex -9.2924 -0.999999 -1.97516
      vertex -8.67868 -0.999999 -3.864
    endloop
  endfacet
  facet normal 0.994522 -0 0.104529
    outer loop
      vertex -9.5 -0.999999 0
      vertex -9.2924 0 -1.97516
      vertex -9.5 0 0
    endloop
  endfacet
  facet normal 0.994522 0 0.104529
    outer loop
      vertex -9.2924 0 -1.97516
      vertex -9.5 -0.999999 0
      vertex -9.2924 -0.999999 -1.97516
    endloop
  endfacet
  facet normal -0.207912 0 0.978148
    outer loop
      vertex 0.99302 0 -9.44796
      vertex 2.93566 -1 -9.03504
      vertex 2.93566 0 -9.03504
    endloop
  endfacet
  facet normal -0.207912 0 0.978148
    outer loop
      vertex 2.93566 -1 -9.03504
      vertex 0.99302 0 -9.44796
      vertex 0.99302 -1 -9.44796
    endloop
  endfacet
  facet normal 0.743145 -0 0.669131
    outer loop
      vertex -7.68566 -1 -5.58396
      vertex -6.35674 0 -7.05988
      vertex -7.68566 0 -5.58396
    endloop
  endfacet
  facet normal 0.743145 0 0.669131
    outer loop
      vertex -6.35674 0 -7.05988
      vertex -7.68566 -1 -5.58396
      vertex -6.35674 -1 -7.05988
    endloop
  endfacet
  facet normal 0.587785 0 0.809017
    outer loop
      vertex -6.35674 0 -7.05988
      vertex -4.75 -1 -8.22724
      vertex -4.75 0 -8.22724
    endloop
  endfacet
  facet normal 0.587785 0 0.809017
    outer loop
      vertex -4.75 -1 -8.22724
      vertex -6.35674 0 -7.05988
      vertex -6.35674 -1 -7.05988
    endloop
  endfacet
  facet normal 0.406737 0 0.913545
    outer loop
      vertex -4.75 0 -8.22724
      vertex -2.93566 -1 -9.03504
      vertex -2.93566 0 -9.03504
    endloop
  endfacet
  facet normal 0.406737 0 0.913545
    outer loop
      vertex -2.93566 -1 -9.03504
      vertex -4.75 0 -8.22724
      vertex -4.75 -1 -8.22724
    endloop
  endfacet
  facet normal 0.207912 0 0.978148
    outer loop
      vertex -2.93566 0 -9.03504
      vertex -0.99302 -1 -9.44796
      vertex -0.99302 0 -9.44796
    endloop
  endfacet
  facet normal 0.207912 0 0.978148
    outer loop
      vertex -0.99302 -1 -9.44796
      vertex -2.93566 0 -9.03504
      vertex -2.93566 -1 -9.03504
    endloop
  endfacet
  facet normal -0.587785 0 0.809017
    outer loop
      vertex 4.75 0 -8.22724
      vertex 6.35674 -1 -7.05988
      vertex 6.35674 0 -7.05988
    endloop
  endfacet
  facet normal -0.587785 0 0.809017
    outer loop
      vertex 6.35674 -1 -7.05988
      vertex 4.75 0 -8.22724
      vertex 4.75 -1 -8.22724
    endloop
  endfacet
  facet normal 1 0 0
    outer loop
      vertex -9.5 0 17.1
      vertex -9.5 -0.999999 12.2749
      vertex -9.5 0 0
    endloop
  endfacet
  facet normal 1 -0 0
    outer loop
      vertex -9.5 -1 17.1
      vertex -9.5 -0.999999 12.2749
      vertex -9.5 0 17.1
    endloop
  endfacet
  facet normal 1 0 0
    outer loop
      vertex -9.5 -0.999999 12.2749
      vertex -9.5 -1 17.1
      vertex -9.5 -1 12.2749
    endloop
  endfacet
  facet normal 1 -0 0
    outer loop
      vertex -9.5 -0.999999 3.24342
      vertex -9.5 0 0
      vertex -9.5 -0.999999 12.2749
    endloop
  endfacet
  facet normal 1 0 0
    outer loop
      vertex -9.5 0 0
      vertex -9.5 -0.999999 3.24342
      vertex -9.5 -0.999999 0
    endloop
  endfacet
  facet normal -1 0 0
    outer loop
      vertex 9.5 -0.999999 12.2749
      vertex 9.5 0 0
      vertex 9.5 -0.999999 3.24342
    endloop
  endfacet
  facet normal -1 0 -0
    outer loop
      vertex 9.5 -0.999999 3.24342
      vertex 9.5 0 0
      vertex 9.5 -0.999999 0
    endloop
  endfacet
  facet normal -1 0 0
    outer loop
      vertex 9.5 0 0
      vertex 9.5 -0.999999 12.2749
      vertex 9.5 0 17.1
    endloop
  endfacet
  facet normal -1 0 0
    outer loop
      vertex 9.5 -1 17.1
      vertex 9.5 -0.999999 12.2749
      vertex 9.5 -1 12.2749
    endloop
  endfacet
  facet normal -1 0 0
    outer loop
      vertex 9.5 -0.999999 12.2749
      vertex 9.5 -1 17.1
      vertex 9.5 0 17.1
    endloop
  endfacet
endsolid OpenSCAD_Model
