solid OpenSCAD_Model
  facet normal -1 0 0
    outer loop
      vertex -25 30 0
      vertex -25 10 5
      vertex -25 30 5
    endloop
  endfacet
  facet normal -1 0 0
    outer loop
      vertex -25 10 5
      vertex -25 0.9 17.35
      vertex -25 10 34.175
    endloop
  endfacet
  facet normal -1 0 0
    outer loop
      vertex -25 10 5
      vertex -25 -0.9 17.35
      vertex -25 0.9 17.35
    endloop
  endfacet
  facet normal -1 0 0
    outer loop
      vertex -25 -10 34.175
      vertex -25 -0.9 17.35
      vertex -25 -10 5
    endloop
  endfacet
  facet normal -1 0 0
    outer loop
      vertex -25 10 5
      vertex -25 -10 5
      vertex -25 -0.9 17.35
    endloop
  endfacet
  facet normal -1 0 0
    outer loop
      vertex -25 30 0
      vertex -25 -10 5
      vertex -25 10 5
    endloop
  endfacet
  facet normal -1 0 0
    outer loop
      vertex -25 -30 0
      vertex -25 -10 5
      vertex -25 30 0
    endloop
  endfacet
  facet normal -1 -0 0
    outer loop
      vertex -25 -10 5
      vertex -25 -30 0
      vertex -25 -30 5
    endloop
  endfacet
  facet normal -1 -0 0
    outer loop
      vertex -25 10 34.175
      vertex -25 0.9 17.35
      vertex -25 0.9 34.175
    endloop
  endfacet
  facet normal -1 0 0
    outer loop
      vertex -25 -0.9 17.35
      vertex -25 -10 34.175
      vertex -25 -0.9 34.175
    endloop
  endfacet
  facet normal 0 0 1
    outer loop
      vertex 25 -10 5
      vertex 2.5 -21 5
      vertex 25 -30 5
    endloop
  endfacet
  facet normal 0 0 1
    outer loop
      vertex 25 -10 5
      vertex 1.76777 -19.2322 5
      vertex 2.5 -21 5
    endloop
  endfacet
  facet normal 0 0 1
    outer loop
      vertex 25 -10 5
      vertex 0 -18.5 5
      vertex 1.76777 -19.2322 5
    endloop
  endfacet
  facet normal 0 0 1
    outer loop
      vertex -1.76777 -19.2322 5
      vertex -25 -10 5
      vertex -2.5 -21 5
    endloop
  endfacet
  facet normal 0 0 1
    outer loop
      vertex 0 -18.5 5
      vertex -25 -10 5
      vertex -1.76777 -19.2322 5
    endloop
  endfacet
  facet normal -0 0 1
    outer loop
      vertex -25 -10 5
      vertex 0 -18.5 5
      vertex 25 -10 5
    endloop
  endfacet
  facet normal -0 0 1
    outer loop
      vertex 1.76777 -22.7678 5
      vertex 25 -30 5
      vertex 2.5 -21 5
    endloop
  endfacet
  facet normal -0 0 1
    outer loop
      vertex 0 -23.5 5
      vertex 25 -30 5
      vertex 1.76777 -22.7678 5
    endloop
  endfacet
  facet normal 0 0 1
    outer loop
      vertex -25 -30 5
      vertex -2.5 -21 5
      vertex -25 -10 5
    endloop
  endfacet
  facet normal 0 0 1
    outer loop
      vertex 0 -23.5 5
      vertex -25 -30 5
      vertex 25 -30 5
    endloop
  endfacet
  facet normal 0 0 1
    outer loop
      vertex -1.76777 -22.7678 5
      vertex -25 -30 5
      vertex 0 -23.5 5
    endloop
  endfacet
  facet normal 0 0 1
    outer loop
      vertex -2.5 -21 5
      vertex -25 -30 5
      vertex -1.76777 -22.7678 5
    endloop
  endfacet
  facet normal 0 0 1
    outer loop
      vertex 25 30 5
      vertex 2.5 21 5
      vertex 25 10 5
    endloop
  endfacet
  facet normal 0 0 1
    outer loop
      vertex 25 30 5
      vertex 1.76777 22.7678 5
      vertex 2.5 21 5
    endloop
  endfacet
  facet normal 0 0 1
    outer loop
      vertex 25 30 5
      vertex 0 23.5 5
      vertex 1.76777 22.7678 5
    endloop
  endfacet
  facet normal 0 0 1
    outer loop
      vertex -1.76777 22.7678 5
      vertex -25 30 5
      vertex -2.5 21 5
    endloop
  endfacet
  facet normal 0 0 1
    outer loop
      vertex 0 23.5 5
      vertex -25 30 5
      vertex -1.76777 22.7678 5
    endloop
  endfacet
  facet normal -0 0 1
    outer loop
      vertex -25 30 5
      vertex 0 23.5 5
      vertex 25 30 5
    endloop
  endfacet
  facet normal -0 0 1
    outer loop
      vertex 1.76777 19.2322 5
      vertex 25 10 5
      vertex 2.5 21 5
    endloop
  endfacet
  facet normal -0 0 1
    outer loop
      vertex 0 18.5 5
      vertex 25 10 5
      vertex 1.76777 19.2322 5
    endloop
  endfacet
  facet normal 0 0 1
    outer loop
      vertex -25 10 5
      vertex -2.5 21 5
      vertex -25 30 5
    endloop
  endfacet
  facet normal 0 0 1
    outer loop
      vertex 0 18.5 5
      vertex -25 10 5
      vertex 25 10 5
    endloop
  endfacet
  facet normal 0 0 1
    outer loop
      vertex -1.76777 19.2322 5
      vertex -25 10 5
      vertex 0 18.5 5
    endloop
  endfacet
  facet normal 0 0 1
    outer loop
      vertex -2.5 21 5
      vertex -25 10 5
      vertex -1.76777 19.2322 5
    endloop
  endfacet
  facet normal 1 0 0
    outer loop
      vertex 25 -0.9 34.175
      vertex 25 -10 34.175
      vertex 25 -0.9 17.35
    endloop
  endfacet
  facet normal 1 0 0
    outer loop
      vertex 25 0.9 17.35
      vertex 25 10 34.175
      vertex 25 0.9 34.175
    endloop
  endfacet
  facet normal 1 -0 0
    outer loop
      vertex 25 10 5
      vertex 25 30 0
      vertex 25 30 5
    endloop
  endfacet
  facet normal 1 0 0
    outer loop
      vertex 25 10 34.175
      vertex 25 0.9 17.35
      vertex 25 10 5
    endloop
  endfacet
  facet normal 1 -0 0
    outer loop
      vertex 25 -0.9 17.35
      vertex 25 10 5
      vertex 25 0.9 17.35
    endloop
  endfacet
  facet normal 1 0 0
    outer loop
      vertex 25 -10 5
      vertex 25 -0.9 17.35
      vertex 25 -10 34.175
    endloop
  endfacet
  facet normal 1 0 0
    outer loop
      vertex 25 -10 5
      vertex 25 10 5
      vertex 25 -0.9 17.35
    endloop
  endfacet
  facet normal 1 -0 0
    outer loop
      vertex 25 -10 5
      vertex 25 30 0
      vertex 25 10 5
    endloop
  endfacet
  facet normal 1 0 0
    outer loop
      vertex 25 -30 0
      vertex 25 -10 5
      vertex 25 -30 5
    endloop
  endfacet
  facet normal 1 0 0
    outer loop
      vertex 25 -10 5
      vertex 25 -30 0
      vertex 25 30 0
    endloop
  endfacet
  facet normal 0 1 -0
    outer loop
      vertex 25 30 0
      vertex -25 30 5
      vertex 25 30 5
    endloop
  endfacet
  facet normal 0 1 0
    outer loop
      vertex -25 30 5
      vertex 25 30 0
      vertex -25 30 0
    endloop
  endfacet
  facet normal 0 0 -1
    outer loop
      vertex 1.76777 19.2322 0
      vertex 25 30 0
      vertex 1.76777 -19.2322 0
    endloop
  endfacet
  facet normal 0 0 -1
    outer loop
      vertex 25 30 0
      vertex 1.76777 19.2322 0
      vertex 2.5 21 0
    endloop
  endfacet
  facet normal 0 0 -1
    outer loop
      vertex 0 -18.5 0
      vertex 1.76777 19.2322 0
      vertex 1.76777 -19.2322 0
    endloop
  endfacet
  facet normal 0 0 -1
    outer loop
      vertex 0 -18.5 0
      vertex 0 18.5 0
      vertex 1.76777 19.2322 0
    endloop
  endfacet
  facet normal 0 0 -1
    outer loop
      vertex -1.76777 -19.2322 0
      vertex 0 18.5 0
      vertex 0 -18.5 0
    endloop
  endfacet
  facet normal 0 0 -1
    outer loop
      vertex -1.76777 -19.2322 0
      vertex -1.76777 19.2322 0
      vertex 0 18.5 0
    endloop
  endfacet
  facet normal 0 0 -1
    outer loop
      vertex -25 -30 0
      vertex -1.76777 -19.2322 0
      vertex -2.5 -21 0
    endloop
  endfacet
  facet normal -0 0 -1
    outer loop
      vertex -1.76777 -19.2322 0
      vertex -25 -30 0
      vertex -1.76777 19.2322 0
    endloop
  endfacet
  facet normal 0 0 -1
    outer loop
      vertex 1.76777 -19.2322 0
      vertex 25 -30 0
      vertex 2.5 -21 0
    endloop
  endfacet
  facet normal 0 0 -1
    outer loop
      vertex 25 -30 0
      vertex 1.76777 -22.7678 0
      vertex 2.5 -21 0
    endloop
  endfacet
  facet normal 0 0 -1
    outer loop
      vertex 25 -30 0
      vertex 0 -23.5 0
      vertex 1.76777 -22.7678 0
    endloop
  endfacet
  facet normal 0 0 -1
    outer loop
      vertex -25 30 0
      vertex -1.76777 19.2322 0
      vertex -25 -30 0
    endloop
  endfacet
  facet normal -0 0 -1
    outer loop
      vertex -1.76777 -22.7678 0
      vertex -25 -30 0
      vertex -2.5 -21 0
    endloop
  endfacet
  facet normal -0 0 -1
    outer loop
      vertex 0 -23.5 0
      vertex -25 -30 0
      vertex -1.76777 -22.7678 0
    endloop
  endfacet
  facet normal 0 0 -1
    outer loop
      vertex -25 -30 0
      vertex 0 -23.5 0
      vertex 25 -30 0
    endloop
  endfacet
  facet normal 0 0 -1
    outer loop
      vertex 25 -30 0
      vertex 1.76777 -19.2322 0
      vertex 25 30 0
    endloop
  endfacet
  facet normal 0 0 -1
    outer loop
      vertex 1.76777 22.7678 0
      vertex 25 30 0
      vertex 2.5 21 0
    endloop
  endfacet
  facet normal 0 0 -1
    outer loop
      vertex 0 23.5 0
      vertex 25 30 0
      vertex 1.76777 22.7678 0
    endloop
  endfacet
  facet normal 0 0 -1
    outer loop
      vertex -1.76777 19.2322 0
      vertex -25 30 0
      vertex -2.5 21 0
    endloop
  endfacet
  facet normal 0 0 -1
    outer loop
      vertex 0 23.5 0
      vertex -25 30 0
      vertex 25 30 0
    endloop
  endfacet
  facet normal 0 0 -1
    outer loop
      vertex -1.76777 22.7678 0
      vertex -25 30 0
      vertex 0 23.5 0
    endloop
  endfacet
  facet normal 0 0 -1
    outer loop
      vertex -2.5 21 0
      vertex -25 30 0
      vertex -1.76777 22.7678 0
    endloop
  endfacet
  facet normal 0 -1 0
    outer loop
      vertex -25 -30 0
      vertex 25 -30 5
      vertex -25 -30 5
    endloop
  endfacet
  facet normal 0 -1 -0
    outer loop
      vertex 25 -30 5
      vertex -25 -30 0
      vertex 25 -30 0
    endloop
  endfacet
  facet normal -0 0 1
    outer loop
      vertex -25 -0.9 34.175
      vertex -8.35 -10 34.175
      vertex -8.35 -0.9 34.175
    endloop
  endfacet
  facet normal 0 0 1
    outer loop
      vertex -8.35 -10 34.175
      vertex -25 -0.9 34.175
      vertex -25 -10 34.175
    endloop
  endfacet
  facet normal -0 0 1
    outer loop
      vertex 8.35 -0.9 34.175
      vertex 25 -10 34.175
      vertex 25 -0.9 34.175
    endloop
  endfacet
  facet normal 0 0 1
    outer loop
      vertex 25 -10 34.175
      vertex 8.35 -0.9 34.175
      vertex 8.35 -10 34.175
    endloop
  endfacet
  facet normal -0 0 1
    outer loop
      vertex 8.35 10 34.175
      vertex 25 0.9 34.175
      vertex 25 10 34.175
    endloop
  endfacet
  facet normal 0 0 1
    outer loop
      vertex 25 0.9 34.175
      vertex 8.35 10 34.175
      vertex 8.35 0.9 34.175
    endloop
  endfacet
  facet normal -0 0 1
    outer loop
      vertex -25 10 34.175
      vertex -8.35 0.9 34.175
      vertex -8.35 10 34.175
    endloop
  endfacet
  facet normal 0 0 1
    outer loop
      vertex -8.35 0.9 34.175
      vertex -25 10 34.175
      vertex -25 0.9 34.175
    endloop
  endfacet
  facet normal 0 -1 0
    outer loop
      vertex -25 -10 34.175
      vertex -8.35 -10 30
      vertex -8.35 -10 34.175
    endloop
  endfacet
  facet normal 0 -1 0
    outer loop
      vertex -8.35 -10 30
      vertex -8.29354 -10 29.0306
      vertex -8.29354 -10 30
    endloop
  endfacet
  facet normal 0 -1 0
    outer loop
      vertex -25 -10 34.175
      vertex -8.29354 -10 29.0306
      vertex -8.35 -10 30
    endloop
  endfacet
  facet normal 0 -1 0
    outer loop
      vertex -25 -10 34.175
      vertex -7.84643 -10 27.1441
      vertex -8.29354 -10 29.0306
    endloop
  endfacet
  facet normal 0 -1 0
    outer loop
      vertex -25 -10 34.175
      vertex -6.97632 -10 25.4116
      vertex -7.84643 -10 27.1441
    endloop
  endfacet
  facet normal 0 -1 0
    outer loop
      vertex -25 -10 5
      vertex -6.97632 -10 25.4116
      vertex -25 -10 34.175
    endloop
  endfacet
  facet normal 0 -1 -0
    outer loop
      vertex -6.97632 -10 25.4116
      vertex -25 -10 5
      vertex -5.73012 -10 23.9264
    endloop
  endfacet
  facet normal 0 -1 -0
    outer loop
      vertex -2.39481 -10 22.0008
      vertex -25 -10 5
      vertex -0.485509 -10 21.6641
    endloop
  endfacet
  facet normal 0 -1 -0
    outer loop
      vertex -4.175 -10 22.7687
      vertex -25 -10 5
      vertex -2.39481 -10 22.0008
    endloop
  endfacet
  facet normal 0 -1 -0
    outer loop
      vertex -5.73012 -10 23.9264
      vertex -25 -10 5
      vertex -4.175 -10 22.7687
    endloop
  endfacet
  facet normal 0 -1 0
    outer loop
      vertex 8.35 -10 30
      vertex 25 -10 34.175
      vertex 8.35 -10 34.175
    endloop
  endfacet
  facet normal 0 -1 0
    outer loop
      vertex 8.3425 -10 29.9358
      vertex 25 -10 34.175
      vertex 8.35 -10 30
    endloop
  endfacet
  facet normal 0 -1 0
    outer loop
      vertex 8.12492 -10 28.0744
      vertex 25 -10 34.175
      vertex 8.3425 -10 29.9358
    endloop
  endfacet
  facet normal 0 -1 0
    outer loop
      vertex 7.46183 -10 26.2525
      vertex 25 -10 34.175
      vertex 8.12492 -10 28.0744
    endloop
  endfacet
  facet normal 0 -1 0
    outer loop
      vertex 25 -10 5
      vertex 7.46183 -10 26.2525
      vertex 6.39647 -10 24.6327
    endloop
  endfacet
  facet normal 0 -1 0
    outer loop
      vertex 25 -10 5
      vertex 6.39647 -10 24.6327
      vertex 4.98627 -10 23.3023
    endloop
  endfacet
  facet normal 0 -1 0
    outer loop
      vertex 25 -10 5
      vertex 4.98627 -10 23.3023
      vertex 3.30727 -10 22.3329
    endloop
  endfacet
  facet normal 0 -1 0
    outer loop
      vertex 25 -10 5
      vertex -0.485509 -10 21.6641
      vertex -25 -10 5
    endloop
  endfacet
  facet normal 0 -1 0
    outer loop
      vertex -0.485509 -10 21.6641
      vertex 25 -10 5
      vertex 1.44996 -10 21.7769
    endloop
  endfacet
  facet normal 0 -1 0
    outer loop
      vertex 1.44996 -10 21.7769
      vertex 25 -10 5
      vertex 3.30727 -10 22.3329
    endloop
  endfacet
  facet normal 0 -1 0
    outer loop
      vertex 7.46183 -10 26.2525
      vertex 25 -10 5
      vertex 25 -10 34.175
    endloop
  endfacet
  facet normal 0 1 0
    outer loop
      vertex 25 10 34.175
      vertex 8.35 10 30
      vertex 8.35 10 34.175
    endloop
  endfacet
  facet normal 0 1 0
    outer loop
      vertex 25 10 34.175
      vertex 8.3425 10 29.9358
      vertex 8.35 10 30
    endloop
  endfacet
  facet normal 0 1 0
    outer loop
      vertex 25 10 34.175
      vertex 8.12492 10 28.0744
      vertex 8.3425 10 29.9358
    endloop
  endfacet
  facet normal 0 1 0
    outer loop
      vertex 25 10 34.175
      vertex 7.46183 10 26.2525
      vertex 8.12492 10 28.0744
    endloop
  endfacet
  facet normal 0 1 -0
    outer loop
      vertex 25 10 5
      vertex 7.46183 10 26.2525
      vertex 25 10 34.175
    endloop
  endfacet
  facet normal 0 1 0
    outer loop
      vertex 7.46183 10 26.2525
      vertex 25 10 5
      vertex 6.39647 10 24.6327
    endloop
  endfacet
  facet normal 0 1 0
    outer loop
      vertex 6.39647 10 24.6327
      vertex 25 10 5
      vertex 4.98627 10 23.3023
    endloop
  endfacet
  facet normal 0 1 0
    outer loop
      vertex 1.44996 10 21.7769
      vertex 25 10 5
      vertex -0.485509 10 21.6641
    endloop
  endfacet
  facet normal 0 1 0
    outer loop
      vertex 3.30727 10 22.3329
      vertex 25 10 5
      vertex 1.44996 10 21.7769
    endloop
  endfacet
  facet normal 0 1 0
    outer loop
      vertex 4.98627 10 23.3023
      vertex 25 10 5
      vertex 3.30727 10 22.3329
    endloop
  endfacet
  facet normal 0 1 0
    outer loop
      vertex -8.29354 10 30
      vertex -8.29354 10 29.0306
      vertex -8.35 10 30
    endloop
  endfacet
  facet normal 0 1 -0
    outer loop
      vertex -8.35 10 30
      vertex -25 10 34.175
      vertex -8.35 10 34.175
    endloop
  endfacet
  facet normal 0 1 0
    outer loop
      vertex -8.29354 10 29.0306
      vertex -25 10 34.175
      vertex -8.35 10 30
    endloop
  endfacet
  facet normal 0 1 0
    outer loop
      vertex -7.84643 10 27.1441
      vertex -25 10 34.175
      vertex -8.29354 10 29.0306
    endloop
  endfacet
  facet normal 0 1 0
    outer loop
      vertex -6.97632 10 25.4116
      vertex -25 10 34.175
      vertex -7.84643 10 27.1441
    endloop
  endfacet
  facet normal 0 1 0
    outer loop
      vertex -25 10 5
      vertex -6.97632 10 25.4116
      vertex -5.73012 10 23.9264
    endloop
  endfacet
  facet normal 0 1 0
    outer loop
      vertex -25 10 5
      vertex -5.73012 10 23.9264
      vertex -4.175 10 22.7687
    endloop
  endfacet
  facet normal 0 1 0
    outer loop
      vertex -25 10 5
      vertex -0.485509 10 21.6641
      vertex 25 10 5
    endloop
  endfacet
  facet normal 0 1 0
    outer loop
      vertex -0.485509 10 21.6641
      vertex -25 10 5
      vertex -2.39481 10 22.0008
    endloop
  endfacet
  facet normal 0 1 0
    outer loop
      vertex -2.39481 10 22.0008
      vertex -25 10 5
      vertex -4.175 10 22.7687
    endloop
  endfacet
  facet normal 0 1 0
    outer loop
      vertex -6.97632 10 25.4116
      vertex -25 10 5
      vertex -25 10 34.175
    endloop
  endfacet
  facet normal -0.92388 -0.382683 0
    outer loop
      vertex 2.5 21 0
      vertex 1.76777 22.7678 5
      vertex 1.76777 22.7678 0
    endloop
  endfacet
  facet normal -0.92388 -0.382683 0
    outer loop
      vertex 1.76777 22.7678 5
      vertex 2.5 21 0
      vertex 2.5 21 5
    endloop
  endfacet
  facet normal 0.382683 -0.92388 0
    outer loop
      vertex -1.76777 22.7678 0
      vertex 0 23.5 5
      vertex -1.76777 22.7678 5
    endloop
  endfacet
  facet normal 0.382683 -0.92388 0
    outer loop
      vertex 0 23.5 5
      vertex -1.76777 22.7678 0
      vertex 0 23.5 0
    endloop
  endfacet
  facet normal -0.382683 -0.92388 0
    outer loop
      vertex 0 23.5 0
      vertex 1.76777 22.7678 5
      vertex 0 23.5 5
    endloop
  endfacet
  facet normal -0.382683 -0.92388 -0
    outer loop
      vertex 1.76777 22.7678 5
      vertex 0 23.5 0
      vertex 1.76777 22.7678 0
    endloop
  endfacet
  facet normal 0.92388 -0.382683 0
    outer loop
      vertex -2.5 21 5
      vertex -1.76777 22.7678 0
      vertex -1.76777 22.7678 5
    endloop
  endfacet
  facet normal 0.92388 -0.382683 0
    outer loop
      vertex -1.76777 22.7678 0
      vertex -2.5 21 5
      vertex -2.5 21 0
    endloop
  endfacet
  facet normal -0.92388 0.382683 0
    outer loop
      vertex 1.76777 19.2322 0
      vertex 2.5 21 5
      vertex 2.5 21 0
    endloop
  endfacet
  facet normal -0.92388 0.382683 0
    outer loop
      vertex 2.5 21 5
      vertex 1.76777 19.2322 0
      vertex 1.76777 19.2322 5
    endloop
  endfacet
  facet normal 0.382683 0.92388 -0
    outer loop
      vertex 0 18.5 0
      vertex -1.76777 19.2322 5
      vertex 0 18.5 5
    endloop
  endfacet
  facet normal 0.382683 0.92388 0
    outer loop
      vertex -1.76777 19.2322 5
      vertex 0 18.5 0
      vertex -1.76777 19.2322 0
    endloop
  endfacet
  facet normal 0.92388 0.382683 0
    outer loop
      vertex -1.76777 19.2322 5
      vertex -2.5 21 0
      vertex -2.5 21 5
    endloop
  endfacet
  facet normal 0.92388 0.382683 0
    outer loop
      vertex -2.5 21 0
      vertex -1.76777 19.2322 5
      vertex -1.76777 19.2322 0
    endloop
  endfacet
  facet normal -0.382683 0.92388 0
    outer loop
      vertex 1.76777 19.2322 0
      vertex 0 18.5 5
      vertex 1.76777 19.2322 5
    endloop
  endfacet
  facet normal -0.382683 0.92388 0
    outer loop
      vertex 0 18.5 5
      vertex 1.76777 19.2322 0
      vertex 0 18.5 0
    endloop
  endfacet
  facet normal -0.92388 -0.382683 0
    outer loop
      vertex 2.5 -21 0
      vertex 1.76777 -19.2322 5
      vertex 1.76777 -19.2322 0
    endloop
  endfacet
  facet normal -0.92388 -0.382683 0
    outer loop
      vertex 1.76777 -19.2322 5
      vertex 2.5 -21 0
      vertex 2.5 -21 5
    endloop
  endfacet
  facet normal 0.92388 -0.382683 0
    outer loop
      vertex -2.5 -21 5
      vertex -1.76777 -19.2322 0
      vertex -1.76777 -19.2322 5
    endloop
  endfacet
  facet normal 0.92388 -0.382683 0
    outer loop
      vertex -1.76777 -19.2322 0
      vertex -2.5 -21 5
      vertex -2.5 -21 0
    endloop
  endfacet
  facet normal -0.382683 0.92388 0
    outer loop
      vertex 1.76777 -22.7678 0
      vertex 0 -23.5 5
      vertex 1.76777 -22.7678 5
    endloop
  endfacet
  facet normal -0.382683 0.92388 0
    outer loop
      vertex 0 -23.5 5
      vertex 1.76777 -22.7678 0
      vertex 0 -23.5 0
    endloop
  endfacet
  facet normal 0.382683 -0.92388 0
    outer loop
      vertex -1.76777 -19.2322 0
      vertex 0 -18.5 5
      vertex -1.76777 -19.2322 5
    endloop
  endfacet
  facet normal 0.382683 -0.92388 0
    outer loop
      vertex 0 -18.5 5
      vertex -1.76777 -19.2322 0
      vertex 0 -18.5 0
    endloop
  endfacet
  facet normal -0.382683 -0.92388 0
    outer loop
      vertex 0 -18.5 0
      vertex 1.76777 -19.2322 5
      vertex 0 -18.5 5
    endloop
  endfacet
  facet normal -0.382683 -0.92388 -0
    outer loop
      vertex 1.76777 -19.2322 5
      vertex 0 -18.5 0
      vertex 1.76777 -19.2322 0
    endloop
  endfacet
  facet normal -0.92388 0.382683 0
    outer loop
      vertex 1.76777 -22.7678 0
      vertex 2.5 -21 5
      vertex 2.5 -21 0
    endloop
  endfacet
  facet normal -0.92388 0.382683 0
    outer loop
      vertex 2.5 -21 5
      vertex 1.76777 -22.7678 0
      vertex 1.76777 -22.7678 5
    endloop
  endfacet
  facet normal 0.92388 0.382683 0
    outer loop
      vertex -1.76777 -22.7678 5
      vertex -2.5 -21 0
      vertex -2.5 -21 5
    endloop
  endfacet
  facet normal 0.92388 0.382683 0
    outer loop
      vertex -2.5 -21 0
      vertex -1.76777 -22.7678 5
      vertex -1.76777 -22.7678 0
    endloop
  endfacet
  facet normal 0.382683 0.92388 -0
    outer loop
      vertex 0 -23.5 0
      vertex -1.76777 -22.7678 5
      vertex 0 -23.5 5
    endloop
  endfacet
  facet normal 0.382683 0.92388 0
    outer loop
      vertex -1.76777 -22.7678 5
      vertex 0 -23.5 0
      vertex -1.76777 -22.7678 0
    endloop
  endfacet
  facet normal 0 -1 0
    outer loop
      vertex -25 0.9 34.175
      vertex -8.35 0.9 30
      vertex -8.35 0.9 34.175
    endloop
  endfacet
  facet normal 0 -1 0
    outer loop
      vertex -8.35 0.9 30
      vertex -8.29354 0.9 29.0306
      vertex -8.29354 0.9 30
    endloop
  endfacet
  facet normal 0 -1 0
    outer loop
      vertex -25 0.9 34.175
      vertex -8.29354 0.9 29.0306
      vertex -8.35 0.9 30
    endloop
  endfacet
  facet normal 0 -1 0
    outer loop
      vertex -25 0.9 17.35
      vertex -8.29354 0.9 29.0306
      vertex -25 0.9 34.175
    endloop
  endfacet
  facet normal 0 -1 -0
    outer loop
      vertex -8.29354 0.9 29.0306
      vertex -25 0.9 17.35
      vertex -7.84643 0.9 27.1441
    endloop
  endfacet
  facet normal 0 -1 -0
    outer loop
      vertex -7.84643 0.9 27.1441
      vertex -25 0.9 17.35
      vertex -6.97632 0.9 25.4116
    endloop
  endfacet
  facet normal 0 -1 -0
    outer loop
      vertex -6.97632 0.9 25.4116
      vertex -25 0.9 17.35
      vertex -5.73012 0.9 23.9264
    endloop
  endfacet
  facet normal 0 -1 -0
    outer loop
      vertex -2.39481 0.9 22.0008
      vertex -25 0.9 17.35
      vertex -0.485509 0.9 21.6641
    endloop
  endfacet
  facet normal 0 -1 -0
    outer loop
      vertex -4.175 0.9 22.7687
      vertex -25 0.9 17.35
      vertex -2.39481 0.9 22.0008
    endloop
  endfacet
  facet normal 0 -1 -0
    outer loop
      vertex -5.73012 0.9 23.9264
      vertex -25 0.9 17.35
      vertex -4.175 0.9 22.7687
    endloop
  endfacet
  facet normal 0 -1 0
    outer loop
      vertex 8.35 0.9 30
      vertex 25 0.9 34.175
      vertex 8.35 0.9 34.175
    endloop
  endfacet
  facet normal 0 -1 0
    outer loop
      vertex 8.34932 0.9 29.9942
      vertex 25 0.9 34.175
      vertex 8.35 0.9 30
    endloop
  endfacet
  facet normal 0 -1 0
    outer loop
      vertex 8.12492 0.9 28.0744
      vertex 25 0.9 34.175
      vertex 8.34932 0.9 29.9942
    endloop
  endfacet
  facet normal 0 -1 0
    outer loop
      vertex 25 0.9 17.35
      vertex 8.12492 0.9 28.0744
      vertex 7.46183 0.9 26.2525
    endloop
  endfacet
  facet normal 0 -1 0
    outer loop
      vertex 25 0.9 17.35
      vertex 7.46183 0.9 26.2525
      vertex 6.39647 0.9 24.6327
    endloop
  endfacet
  facet normal 0 -1 0
    outer loop
      vertex 25 0.9 17.35
      vertex 6.39647 0.9 24.6327
      vertex 4.98627 0.9 23.3023
    endloop
  endfacet
  facet normal 0 -1 0
    outer loop
      vertex 25 0.9 17.35
      vertex 4.98627 0.9 23.3023
      vertex 3.30727 0.9 22.3329
    endloop
  endfacet
  facet normal 0 -1 0
    outer loop
      vertex 25 0.9 17.35
      vertex -0.485509 0.9 21.6641
      vertex -25 0.9 17.35
    endloop
  endfacet
  facet normal 0 -1 0
    outer loop
      vertex 8.12492 0.9 28.0744
      vertex 25 0.9 17.35
      vertex 25 0.9 34.175
    endloop
  endfacet
  facet normal 0 -1 0
    outer loop
      vertex 1.44996 0.9 21.7769
      vertex 25 0.9 17.35
      vertex 3.30727 0.9 22.3329
    endloop
  endfacet
  facet normal 0 -1 0
    outer loop
      vertex -0.485509 0.9 21.6641
      vertex 25 0.9 17.35
      vertex 1.44996 0.9 21.7769
    endloop
  endfacet
  facet normal -0 0 1
    outer loop
      vertex -25 0.9 17.35
      vertex 25 -0.9 17.35
      vertex 25 0.9 17.35
    endloop
  endfacet
  facet normal 0 0 1
    outer loop
      vertex 25 -0.9 17.35
      vertex -25 0.9 17.35
      vertex -25 -0.9 17.35
    endloop
  endfacet
  facet normal 0 1 0
    outer loop
      vertex 25 -0.9 34.175
      vertex 8.35 -0.9 30
      vertex 8.35 -0.9 34.175
    endloop
  endfacet
  facet normal 0 1 0
    outer loop
      vertex 25 -0.9 34.175
      vertex 8.34932 -0.9 29.9942
      vertex 8.35 -0.9 30
    endloop
  endfacet
  facet normal 0 1 0
    outer loop
      vertex 25 -0.9 34.175
      vertex 8.12492 -0.9 28.0744
      vertex 8.34932 -0.9 29.9942
    endloop
  endfacet
  facet normal 0 1 -0
    outer loop
      vertex 25 -0.9 17.35
      vertex 8.12492 -0.9 28.0744
      vertex 25 -0.9 34.175
    endloop
  endfacet
  facet normal 0 1 0
    outer loop
      vertex 8.12492 -0.9 28.0744
      vertex 25 -0.9 17.35
      vertex 7.46183 -0.9 26.2525
    endloop
  endfacet
  facet normal 0 1 0
    outer loop
      vertex 7.46183 -0.9 26.2525
      vertex 25 -0.9 17.35
      vertex 6.39647 -0.9 24.6327
    endloop
  endfacet
  facet normal 0 1 0
    outer loop
      vertex 6.39647 -0.9 24.6327
      vertex 25 -0.9 17.35
      vertex 4.98627 -0.9 23.3023
    endloop
  endfacet
  facet normal 0 1 0
    outer loop
      vertex 1.44996 -0.9 21.7769
      vertex 25 -0.9 17.35
      vertex -0.485509 -0.9 21.6641
    endloop
  endfacet
  facet normal 0 1 0
    outer loop
      vertex 3.30727 -0.9 22.3329
      vertex 25 -0.9 17.35
      vertex 1.44996 -0.9 21.7769
    endloop
  endfacet
  facet normal 0 1 0
    outer loop
      vertex 4.98627 -0.9 23.3023
      vertex 25 -0.9 17.35
      vertex 3.30727 -0.9 22.3329
    endloop
  endfacet
  facet normal 0 1 0
    outer loop
      vertex -8.29354 -0.9 30
      vertex -8.29354 -0.9 29.0306
      vertex -8.35 -0.9 30
    endloop
  endfacet
  facet normal 0 1 -0
    outer loop
      vertex -8.35 -0.9 30
      vertex -25 -0.9 34.175
      vertex -8.35 -0.9 34.175
    endloop
  endfacet
  facet normal 0 1 0
    outer loop
      vertex -8.29354 -0.9 29.0306
      vertex -25 -0.9 34.175
      vertex -8.35 -0.9 30
    endloop
  endfacet
  facet normal 0 1 0
    outer loop
      vertex -25 -0.9 17.35
      vertex -8.29354 -0.9 29.0306
      vertex -7.84643 -0.9 27.1441
    endloop
  endfacet
  facet normal 0 1 0
    outer loop
      vertex -25 -0.9 17.35
      vertex -7.84643 -0.9 27.1441
      vertex -6.97632 -0.9 25.4116
    endloop
  endfacet
  facet normal 0 1 0
    outer loop
      vertex -25 -0.9 17.35
      vertex -6.97632 -0.9 25.4116
      vertex -5.73012 -0.9 23.9264
    endloop
  endfacet
  facet normal 0 1 0
    outer loop
      vertex -25 -0.9 17.35
      vertex -5.73012 -0.9 23.9264
      vertex -4.175 -0.9 22.7687
    endloop
  endfacet
  facet normal 0 1 0
    outer loop
      vertex -8.29354 -0.9 29.0306
      vertex -25 -0.9 17.35
      vertex -25 -0.9 34.175
    endloop
  endfacet
  facet normal 0 1 0
    outer loop
      vertex -2.39481 -0.9 22.0008
      vertex -25 -0.9 17.35
      vertex -4.175 -0.9 22.7687
    endloop
  endfacet
  facet normal 0 1 0
    outer loop
      vertex -0.485509 -0.9 21.6641
      vertex -25 -0.9 17.35
      vertex -2.39481 -0.9 22.0008
    endloop
  endfacet
  facet normal 0 1 0
    outer loop
      vertex -25 -0.9 17.35
      vertex -0.485509 -0.9 21.6641
      vertex 25 -0.9 17.35
    endloop
  endfacet
  facet normal 1 -0 0
    outer loop
      vertex -8.29354 -10 30
      vertex -8.29354 -0.9 29.0306
      vertex -8.29354 -0.9 30
    endloop
  endfacet
  facet normal 1 0 0
    outer loop
      vertex -8.29354 -0.9 29.0306
      vertex -8.29354 -10 30
      vertex -8.29354 -10 29.0306
    endloop
  endfacet
  facet normal -0.286803 0 0.95799
    outer loop
      vertex 1.44996 -0.9 21.7769
      vertex 3.30727 -10 22.3329
      vertex 3.30727 -0.9 22.3329
    endloop
  endfacet
  facet normal -0.286803 0 0.95799
    outer loop
      vertex 3.30727 -10 22.3329
      vertex 1.44996 -0.9 21.7769
      vertex 1.44996 -10 21.7769
    endloop
  endfacet
  facet normal -0.686241 0 0.727374
    outer loop
      vertex 4.98627 -0.9 23.3023
      vertex 6.39647 -10 24.6327
      vertex 6.39647 -0.9 24.6327
    endloop
  endfacet
  facet normal -0.686241 0 0.727374
    outer loop
      vertex 6.39647 -10 24.6327
      vertex 4.98627 -0.9 23.3023
      vertex 4.98627 -10 23.3023
    endloop
  endfacet
  facet normal -0.835488 0 0.549509
    outer loop
      vertex 6.39647 -10 24.6327
      vertex 7.46183 -0.9 26.2525
      vertex 6.39647 -0.9 24.6327
    endloop
  endfacet
  facet normal -0.835488 0 0.549509
    outer loop
      vertex 7.46183 -0.9 26.2525
      vertex 6.39647 -10 24.6327
      vertex 7.46183 -10 26.2525
    endloop
  endfacet
  facet normal -0.993238 0 0.116093
    outer loop
      vertex 8.12492 -10 28.0744
      vertex 8.34932 -0.9 29.9942
      vertex 8.12492 -0.9 28.0744
    endloop
  endfacet
  facet normal -0.993238 -8.31744e-009 0.116093
    outer loop
      vertex 8.34932 -0.9 29.9942
      vertex 8.12492 -10 28.0744
      vertex 8.3425 -10 29.9358
    endloop
  endfacet
  facet normal -0.99324 7.2544e-008 0.11608
    outer loop
      vertex 8.3425 -10 29.9358
      vertex 8.35 -0.9 30
      vertex 8.34932 -0.9 29.9942
    endloop
  endfacet
  facet normal -0.993239 0 0.11609
    outer loop
      vertex 8.35 -0.9 30
      vertex 8.3425 -10 29.9358
      vertex 8.35 -10 30
    endloop
  endfacet
  facet normal 0.396081 0 0.918216
    outer loop
      vertex -4.175 -0.9 22.7687
      vertex -2.39481 -10 22.0008
      vertex -2.39481 -0.9 22.0008
    endloop
  endfacet
  facet normal 0.396081 0 0.918216
    outer loop
      vertex -2.39481 -10 22.0008
      vertex -4.175 -0.9 22.7687
      vertex -4.175 -10 22.7687
    endloop
  endfacet
  facet normal 0.973045 -0 0.230616
    outer loop
      vertex -8.29354 -10 29.0306
      vertex -7.84643 -0.9 27.1441
      vertex -8.29354 -0.9 29.0306
    endloop
  endfacet
  facet normal 0.973045 0 0.230616
    outer loop
      vertex -7.84643 -0.9 27.1441
      vertex -8.29354 -10 29.0306
      vertex -7.84643 -10 27.1441
    endloop
  endfacet
  facet normal -0.5 0 0.866025
    outer loop
      vertex 3.30727 -0.9 22.3329
      vertex 4.98627 -10 23.3023
      vertex 4.98627 -0.9 23.3023
    endloop
  endfacet
  facet normal -0.5 0 0.866025
    outer loop
      vertex 4.98627 -10 23.3023
      vertex 3.30727 -0.9 22.3329
      vertex 3.30727 -10 22.3329
    endloop
  endfacet
  facet normal -0.939693 0 0.34202
    outer loop
      vertex 7.46183 -10 26.2525
      vertex 8.12492 -0.9 28.0744
      vertex 7.46183 -0.9 26.2525
    endloop
  endfacet
  facet normal -0.939693 0 0.34202
    outer loop
      vertex 8.12492 -0.9 28.0744
      vertex 7.46183 -10 26.2525
      vertex 8.12492 -10 28.0744
    endloop
  endfacet
  facet normal 0.173647 0 0.984808
    outer loop
      vertex -2.39481 -0.9 22.0008
      vertex -0.485509 -10 21.6641
      vertex -0.485509 -0.9 21.6641
    endloop
  endfacet
  facet normal 0.173647 0 0.984808
    outer loop
      vertex -0.485509 -10 21.6641
      vertex -2.39481 -0.9 22.0008
      vertex -2.39481 -10 22.0008
    endloop
  endfacet
  facet normal -0.0581447 0 0.998308
    outer loop
      vertex -0.485509 -0.9 21.6641
      vertex 1.44996 -10 21.7769
      vertex 1.44996 -0.9 21.7769
    endloop
  endfacet
  facet normal -0.0581447 0 0.998308
    outer loop
      vertex 1.44996 -10 21.7769
      vertex -0.485509 -0.9 21.6641
      vertex -0.485509 -10 21.6641
    endloop
  endfacet
  facet normal 0.766044 -0 0.642788
    outer loop
      vertex -6.97632 -10 25.4116
      vertex -5.73012 -0.9 23.9264
      vertex -6.97632 -0.9 25.4116
    endloop
  endfacet
  facet normal 0.766044 0 0.642788
    outer loop
      vertex -5.73012 -0.9 23.9264
      vertex -6.97632 -10 25.4116
      vertex -5.73012 -10 23.9264
    endloop
  endfacet
  facet normal 0.597158 0 0.802123
    outer loop
      vertex -5.73012 -0.9 23.9264
      vertex -4.175 -10 22.7687
      vertex -4.175 -0.9 22.7687
    endloop
  endfacet
  facet normal 0.597158 0 0.802123
    outer loop
      vertex -4.175 -10 22.7687
      vertex -5.73012 -0.9 23.9264
      vertex -5.73012 -10 23.9264
    endloop
  endfacet
  facet normal 0.893633 -0 0.448799
    outer loop
      vertex -7.84643 -10 27.1441
      vertex -6.97632 -0.9 25.4116
      vertex -7.84643 -0.9 27.1441
    endloop
  endfacet
  facet normal 0.893633 0 0.448799
    outer loop
      vertex -6.97632 -0.9 25.4116
      vertex -7.84643 -10 27.1441
      vertex -6.97632 -10 25.4116
    endloop
  endfacet
  facet normal -0.993238 0 0.116093
    outer loop
      vertex 8.12492 0.9 28.0744
      vertex 8.3425 10 29.9358
      vertex 8.12492 10 28.0744
    endloop
  endfacet
  facet normal -0.993238 8.06438e-009 0.116093
    outer loop
      vertex 8.3425 10 29.9358
      vertex 8.12492 0.9 28.0744
      vertex 8.34932 0.9 29.9942
    endloop
  endfacet
  facet normal -0.993239 -6.52926e-009 0.11609
    outer loop
      vertex 8.34932 0.9 29.9942
      vertex 8.35 10 30
      vertex 8.3425 10 29.9358
    endloop
  endfacet
  facet normal -0.99324 0 0.11608
    outer loop
      vertex 8.35 10 30
      vertex 8.34932 0.9 29.9942
      vertex 8.35 0.9 30
    endloop
  endfacet
  facet normal 0.173647 0 0.984808
    outer loop
      vertex -2.39481 10 22.0008
      vertex -0.485509 0.9 21.6641
      vertex -0.485509 10 21.6641
    endloop
  endfacet
  facet normal 0.173647 0 0.984808
    outer loop
      vertex -0.485509 0.9 21.6641
      vertex -2.39481 10 22.0008
      vertex -2.39481 0.9 22.0008
    endloop
  endfacet
  facet normal -0.686241 0 0.727374
    outer loop
      vertex 4.98627 10 23.3023
      vertex 6.39647 0.9 24.6327
      vertex 6.39647 10 24.6327
    endloop
  endfacet
  facet normal -0.686241 0 0.727374
    outer loop
      vertex 6.39647 0.9 24.6327
      vertex 4.98627 10 23.3023
      vertex 4.98627 0.9 23.3023
    endloop
  endfacet
  facet normal 0.766044 -0 0.642788
    outer loop
      vertex -6.97632 0.9 25.4116
      vertex -5.73012 10 23.9264
      vertex -6.97632 10 25.4116
    endloop
  endfacet
  facet normal 0.766044 0 0.642788
    outer loop
      vertex -5.73012 10 23.9264
      vertex -6.97632 0.9 25.4116
      vertex -5.73012 0.9 23.9264
    endloop
  endfacet
  facet normal 0.396081 0 0.918216
    outer loop
      vertex -4.175 10 22.7687
      vertex -2.39481 0.9 22.0008
      vertex -2.39481 10 22.0008
    endloop
  endfacet
  facet normal 0.396081 0 0.918216
    outer loop
      vertex -2.39481 0.9 22.0008
      vertex -4.175 10 22.7687
      vertex -4.175 0.9 22.7687
    endloop
  endfacet
  facet normal -0.835488 0 0.549509
    outer loop
      vertex 6.39647 0.9 24.6327
      vertex 7.46183 10 26.2525
      vertex 6.39647 10 24.6327
    endloop
  endfacet
  facet normal -0.835488 0 0.549509
    outer loop
      vertex 7.46183 10 26.2525
      vertex 6.39647 0.9 24.6327
      vertex 7.46183 0.9 26.2525
    endloop
  endfacet
  facet normal -0.939693 0 0.34202
    outer loop
      vertex 7.46183 0.9 26.2525
      vertex 8.12492 10 28.0744
      vertex 7.46183 10 26.2525
    endloop
  endfacet
  facet normal -0.939693 0 0.34202
    outer loop
      vertex 8.12492 10 28.0744
      vertex 7.46183 0.9 26.2525
      vertex 8.12492 0.9 28.0744
    endloop
  endfacet
  facet normal -0.286803 0 0.95799
    outer loop
      vertex 1.44996 10 21.7769
      vertex 3.30727 0.9 22.3329
      vertex 3.30727 10 22.3329
    endloop
  endfacet
  facet normal -0.286803 0 0.95799
    outer loop
      vertex 3.30727 0.9 22.3329
      vertex 1.44996 10 21.7769
      vertex 1.44996 0.9 21.7769
    endloop
  endfacet
  facet normal -0.0581447 0 0.998308
    outer loop
      vertex -0.485509 10 21.6641
      vertex 1.44996 0.9 21.7769
      vertex 1.44996 10 21.7769
    endloop
  endfacet
  facet normal -0.0581447 0 0.998308
    outer loop
      vertex 1.44996 0.9 21.7769
      vertex -0.485509 10 21.6641
      vertex -0.485509 0.9 21.6641
    endloop
  endfacet
  facet normal -0.5 0 0.866025
    outer loop
      vertex 3.30727 10 22.3329
      vertex 4.98627 0.9 23.3023
      vertex 4.98627 10 23.3023
    endloop
  endfacet
  facet normal -0.5 0 0.866025
    outer loop
      vertex 4.98627 0.9 23.3023
      vertex 3.30727 10 22.3329
      vertex 3.30727 0.9 22.3329
    endloop
  endfacet
  facet normal 0.893633 -0 0.448799
    outer loop
      vertex -7.84643 0.9 27.1441
      vertex -6.97632 10 25.4116
      vertex -7.84643 10 27.1441
    endloop
  endfacet
  facet normal 0.893633 0 0.448799
    outer loop
      vertex -6.97632 10 25.4116
      vertex -7.84643 0.9 27.1441
      vertex -6.97632 0.9 25.4116
    endloop
  endfacet
  facet normal 0.973045 -0 0.230616
    outer loop
      vertex -8.29354 0.9 29.0306
      vertex -7.84643 10 27.1441
      vertex -8.29354 10 29.0306
    endloop
  endfacet
  facet normal 0.973045 0 0.230616
    outer loop
      vertex -7.84643 10 27.1441
      vertex -8.29354 0.9 29.0306
      vertex -7.84643 0.9 27.1441
    endloop
  endfacet
  facet normal 1 -0 0
    outer loop
      vertex -8.29354 0.9 30
      vertex -8.29354 10 29.0306
      vertex -8.29354 10 30
    endloop
  endfacet
  facet normal 1 0 0
    outer loop
      vertex -8.29354 10 29.0306
      vertex -8.29354 0.9 30
      vertex -8.29354 0.9 29.0306
    endloop
  endfacet
  facet normal 0.597158 0 0.802123
    outer loop
      vertex -5.73012 10 23.9264
      vertex -4.175 0.9 22.7687
      vertex -4.175 10 22.7687
    endloop
  endfacet
  facet normal 0.597158 0 0.802123
    outer loop
      vertex -4.175 0.9 22.7687
      vertex -5.73012 10 23.9264
      vertex -5.73012 0.9 23.9264
    endloop
  endfacet
  facet normal 1 -0 0
    outer loop
      vertex -8.35 0.9 34.175
      vertex -8.35 10 30
      vertex -8.35 10 34.175
    endloop
  endfacet
  facet normal 1 0 0
    outer loop
      vertex -8.35 10 30
      vertex -8.35 0.9 34.175
      vertex -8.35 0.9 30
    endloop
  endfacet
  facet normal 1 -0 0
    outer loop
      vertex -8.35 -10 34.175
      vertex -8.35 -0.9 30
      vertex -8.35 -0.9 34.175
    endloop
  endfacet
  facet normal 1 0 0
    outer loop
      vertex -8.35 -0.9 30
      vertex -8.35 -10 34.175
      vertex -8.35 -10 30
    endloop
  endfacet
  facet normal -1 0 0
    outer loop
      vertex 8.35 0.9 30
      vertex 8.35 10 34.175
      vertex 8.35 10 30
    endloop
  endfacet
  facet normal -1 -0 0
    outer loop
      vertex 8.35 10 34.175
      vertex 8.35 0.9 30
      vertex 8.35 0.9 34.175
    endloop
  endfacet
  facet normal -1 0 0
    outer loop
      vertex 8.35 -10 30
      vertex 8.35 -0.9 34.175
      vertex 8.35 -0.9 30
    endloop
  endfacet
  facet normal -1 -0 0
    outer loop
      vertex 8.35 -0.9 34.175
      vertex 8.35 -10 30
      vertex 8.35 -10 34.175
    endloop
  endfacet
  facet normal -0 0 1
    outer loop
      vertex -8.35 -0.9 30
      vertex -8.29354 -10 30
      vertex -8.29354 -0.9 30
    endloop
  endfacet
  facet normal 0 0 1
    outer loop
      vertex -8.29354 -10 30
      vertex -8.35 -0.9 30
      vertex -8.35 -10 30
    endloop
  endfacet
  facet normal -0 0 1
    outer loop
      vertex -8.35 10 30
      vertex -8.29354 0.9 30
      vertex -8.29354 10 30
    endloop
  endfacet
  facet normal 0 0 1
    outer loop
      vertex -8.29354 0.9 30
      vertex -8.35 10 30
      vertex -8.35 0.9 30
    endloop
  endfacet
endsolid OpenSCAD_Model
