solid OpenSCAD_Model
  facet normal -1 0 0
    outer loop
      vertex -16.35 0 -16.35
      vertex -16.35 -11.6 0
      vertex -16.35 0 16.35
    endloop
  endfacet
  facet normal -1 0 0
    outer loop
      vertex -16.35 0 -16.35
      vertex -16.35 -12.291 -0.951056
      vertex -16.35 -11.6 0
    endloop
  endfacet
  facet normal -1 0 0
    outer loop
      vertex -16.35 -15.6 -16.35
      vertex -16.35 -12.291 -0.951056
      vertex -16.35 0 -16.35
    endloop
  endfacet
  facet normal -1 -0 0
    outer loop
      vertex -16.35 -13.409 -0.587785
      vertex -16.35 -15.6 -16.35
      vertex -16.35 -13.409 0.587785
    endloop
  endfacet
  facet normal -1 -0 0
    outer loop
      vertex -16.35 -12.291 -0.951056
      vertex -16.35 -15.6 -16.35
      vertex -16.35 -13.409 -0.587785
    endloop
  endfacet
  facet normal -1 0 0
    outer loop
      vertex -16.35 -12.291 0.951056
      vertex -16.35 0 16.35
      vertex -16.35 -11.6 0
    endloop
  endfacet
  facet normal -1 0 0
    outer loop
      vertex -16.35 -15.6 16.35
      vertex -16.35 -12.291 0.951056
      vertex -16.35 -13.409 0.587785
    endloop
  endfacet
  facet normal -1 0 0
    outer loop
      vertex -16.35 -12.291 0.951056
      vertex -16.35 -15.6 16.35
      vertex -16.35 0 16.35
    endloop
  endfacet
  facet normal -1 0 0
    outer loop
      vertex -16.35 -15.6 16.35
      vertex -16.35 -13.409 0.587785
      vertex -16.35 -15.6 -16.35
    endloop
  endfacet
  facet normal 0 0 1
    outer loop
      vertex -9.5 0 16.35
      vertex -15.35 -1 16.35
      vertex -9.5 -1 16.35
    endloop
  endfacet
  facet normal 0 0 1
    outer loop
      vertex -15.35 -1 16.35
      vertex -16.35 0 16.35
      vertex -15.35 -3.6 16.35
    endloop
  endfacet
  facet normal -0 0 1
    outer loop
      vertex -16.35 0 16.35
      vertex -15.35 -1 16.35
      vertex -9.5 0 16.35
    endloop
  endfacet
  facet normal 0 0 1
    outer loop
      vertex 15.35 -3.6 16.35
      vertex 16.35 0 16.35
      vertex 15.35 -1 16.35
    endloop
  endfacet
  facet normal -0 0 1
    outer loop
      vertex 9.5 0 16.35
      vertex 15.35 -1 16.35
      vertex 16.35 0 16.35
    endloop
  endfacet
  facet normal 0 0 1
    outer loop
      vertex 15.35 -1 16.35
      vertex 9.5 0 16.35
      vertex 9.5 -1 16.35
    endloop
  endfacet
  facet normal 0 0 1
    outer loop
      vertex 16.35 0 16.35
      vertex 15.35 -3.6 16.35
      vertex 16.35 -15.6 16.35
    endloop
  endfacet
  facet normal -0 0 1
    outer loop
      vertex 3 -5.6 16.35
      vertex 16.35 -15.6 16.35
      vertex 15.35 -3.6 16.35
    endloop
  endfacet
  facet normal 0 0 1
    outer loop
      vertex 16.35 -15.6 16.35
      vertex 3 -5.6 16.35
      vertex 3 -15.6 16.35
    endloop
  endfacet
  facet normal 0 0 1
    outer loop
      vertex 15.35 -3.6 16.35
      vertex -3 -5.6 16.35
      vertex 3 -5.6 16.35
    endloop
  endfacet
  facet normal -0 0 1
    outer loop
      vertex -15.35 -3.6 16.35
      vertex -3 -5.6 16.35
      vertex 15.35 -3.6 16.35
    endloop
  endfacet
  facet normal 0 0 1
    outer loop
      vertex -16.35 -15.6 16.35
      vertex -3 -5.6 16.35
      vertex -15.35 -3.6 16.35
    endloop
  endfacet
  facet normal 0 0 1
    outer loop
      vertex -3 -5.6 16.35
      vertex -16.35 -15.6 16.35
      vertex -3 -15.6 16.35
    endloop
  endfacet
  facet normal 0 0 1
    outer loop
      vertex -16.35 -15.6 16.35
      vertex -15.35 -3.6 16.35
      vertex -16.35 0 16.35
    endloop
  endfacet
  facet normal 1 0 0
    outer loop
      vertex 16.35 0 16.35
      vertex 16.35 -11.6 0
      vertex 16.35 0 -16.35
    endloop
  endfacet
  facet normal 1 0 0
    outer loop
      vertex 16.35 0 16.35
      vertex 16.35 -12.291 0.951056
      vertex 16.35 -11.6 0
    endloop
  endfacet
  facet normal 1 -0 0
    outer loop
      vertex 16.35 -15.6 16.35
      vertex 16.35 -12.291 0.951056
      vertex 16.35 0 16.35
    endloop
  endfacet
  facet normal 1 0 0
    outer loop
      vertex 16.35 -13.409 0.587785
      vertex 16.35 -15.6 16.35
      vertex 16.35 -13.409 -0.587785
    endloop
  endfacet
  facet normal 1 0 0
    outer loop
      vertex 16.35 -12.291 0.951056
      vertex 16.35 -15.6 16.35
      vertex 16.35 -13.409 0.587785
    endloop
  endfacet
  facet normal 1 -0 0
    outer loop
      vertex 16.35 -12.291 -0.951056
      vertex 16.35 0 -16.35
      vertex 16.35 -11.6 0
    endloop
  endfacet
  facet normal 1 0 0
    outer loop
      vertex 16.35 -15.6 -16.35
      vertex 16.35 -12.291 -0.951056
      vertex 16.35 -13.409 -0.587785
    endloop
  endfacet
  facet normal 1 0 0
    outer loop
      vertex 16.35 -12.291 -0.951056
      vertex 16.35 -15.6 -16.35
      vertex 16.35 0 -16.35
    endloop
  endfacet
  facet normal 1 0 0
    outer loop
      vertex 16.35 -15.6 -16.35
      vertex 16.35 -13.409 -0.587785
      vertex 16.35 -15.6 16.35
    endloop
  endfacet
  facet normal 0 0 -1
    outer loop
      vertex -3 -15.6 -16.35
      vertex -16.35 -15.6 -16.35
      vertex -3 -5.6 -16.35
    endloop
  endfacet
  facet normal 0 0 -1
    outer loop
      vertex 3 -5.6 -16.35
      vertex 16.35 -15.6 -16.35
      vertex 3 -15.6 -16.35
    endloop
  endfacet
  facet normal 0 0 -1
    outer loop
      vertex 16.35 -15.6 -16.35
      vertex 3 -5.6 -16.35
      vertex 16.35 0 -16.35
    endloop
  endfacet
  facet normal 0 0 -1
    outer loop
      vertex -3 -5.6 -16.35
      vertex 16.35 0 -16.35
      vertex 3 -5.6 -16.35
    endloop
  endfacet
  facet normal 0 0 -1
    outer loop
      vertex -3 -5.6 -16.35
      vertex -16.35 0 -16.35
      vertex 16.35 0 -16.35
    endloop
  endfacet
  facet normal 0 0 -1
    outer loop
      vertex -16.35 0 -16.35
      vertex -3 -5.6 -16.35
      vertex -16.35 -15.6 -16.35
    endloop
  endfacet
  facet normal 0 -1 0
    outer loop
      vertex -16.35 -15.6 -16.35
      vertex -3 -15.6 16.35
      vertex -16.35 -15.6 16.35
    endloop
  endfacet
  facet normal 0 -1 -0
    outer loop
      vertex -3 -15.6 16.35
      vertex -16.35 -15.6 -16.35
      vertex -3 -15.6 -16.35
    endloop
  endfacet
  facet normal 0 -1 0
    outer loop
      vertex 3 -15.6 -16.35
      vertex 16.35 -15.6 16.35
      vertex 3 -15.6 16.35
    endloop
  endfacet
  facet normal 0 -1 -0
    outer loop
      vertex 16.35 -15.6 16.35
      vertex 3 -15.6 -16.35
      vertex 16.35 -15.6 -16.35
    endloop
  endfacet
  facet normal 0 1 0
    outer loop
      vertex 16.35 0 16.35
      vertex 9.5 0 0
      vertex 9.5 0 16.35
    endloop
  endfacet
  facet normal 0 1 -0
    outer loop
      vertex 16.35 0 -16.35
      vertex 9.5 0 0
      vertex 16.35 0 16.35
    endloop
  endfacet
  facet normal 0 1 0
    outer loop
      vertex 9.5 0 0
      vertex 16.35 0 -16.35
      vertex 9.2924 0 -1.97516
    endloop
  endfacet
  facet normal 0 1 0
    outer loop
      vertex 0.99302 0 -9.44796
      vertex 16.35 0 -16.35
      vertex -0.99302 0 -9.44796
    endloop
  endfacet
  facet normal 0 1 0
    outer loop
      vertex 2.93566 0 -9.03504
      vertex 16.35 0 -16.35
      vertex 0.99302 0 -9.44796
    endloop
  endfacet
  facet normal 0 1 0
    outer loop
      vertex 4.75 0 -8.22724
      vertex 16.35 0 -16.35
      vertex 2.93566 0 -9.03504
    endloop
  endfacet
  facet normal 0 1 0
    outer loop
      vertex 6.35674 0 -7.05988
      vertex 16.35 0 -16.35
      vertex 4.75 0 -8.22724
    endloop
  endfacet
  facet normal 0 1 0
    outer loop
      vertex 7.68566 0 -5.58396
      vertex 16.35 0 -16.35
      vertex 6.35674 0 -7.05988
    endloop
  endfacet
  facet normal 0 1 0
    outer loop
      vertex 8.67868 0 -3.864
      vertex 16.35 0 -16.35
      vertex 7.68566 0 -5.58396
    endloop
  endfacet
  facet normal 0 1 0
    outer loop
      vertex 9.2924 0 -1.97516
      vertex 16.35 0 -16.35
      vertex 8.67868 0 -3.864
    endloop
  endfacet
  facet normal 0 1 -0
    outer loop
      vertex -9.5 0 0
      vertex -16.35 0 16.35
      vertex -9.5 0 16.35
    endloop
  endfacet
  facet normal 0 1 0
    outer loop
      vertex -16.35 0 -16.35
      vertex -9.5 0 0
      vertex -9.2924 0 -1.97516
    endloop
  endfacet
  facet normal 0 1 0
    outer loop
      vertex -16.35 0 -16.35
      vertex -9.2924 0 -1.97516
      vertex -8.67868 0 -3.864
    endloop
  endfacet
  facet normal 0 1 0
    outer loop
      vertex -16.35 0 -16.35
      vertex -0.99302 0 -9.44796
      vertex 16.35 0 -16.35
    endloop
  endfacet
  facet normal 0 1 0
    outer loop
      vertex -9.5 0 0
      vertex -16.35 0 -16.35
      vertex -16.35 0 16.35
    endloop
  endfacet
  facet normal 0 1 0
    outer loop
      vertex -7.68566 0 -5.58396
      vertex -16.35 0 -16.35
      vertex -8.67868 0 -3.864
    endloop
  endfacet
  facet normal 0 1 0
    outer loop
      vertex -6.35674 0 -7.05988
      vertex -16.35 0 -16.35
      vertex -7.68566 0 -5.58396
    endloop
  endfacet
  facet normal 0 1 0
    outer loop
      vertex -4.75 0 -8.22724
      vertex -16.35 0 -16.35
      vertex -6.35674 0 -7.05988
    endloop
  endfacet
  facet normal 0 1 0
    outer loop
      vertex -2.93566 0 -9.03504
      vertex -16.35 0 -16.35
      vertex -4.75 0 -8.22724
    endloop
  endfacet
  facet normal 0 1 0
    outer loop
      vertex -0.99302 0 -9.44796
      vertex -16.35 0 -16.35
      vertex -2.93566 0 -9.03504
    endloop
  endfacet
  facet normal 1 0 0
    outer loop
      vertex -3 -5.6 16.35
      vertex -3 -11.6 0
      vertex -3 -5.6 -16.35
    endloop
  endfacet
  facet normal 1 0 0
    outer loop
      vertex -3 -5.6 16.35
      vertex -3 -12.291 0.951056
      vertex -3 -11.6 0
    endloop
  endfacet
  facet normal 1 -0 0
    outer loop
      vertex -3 -15.6 16.35
      vertex -3 -12.291 0.951056
      vertex -3 -5.6 16.35
    endloop
  endfacet
  facet normal 1 0 0
    outer loop
      vertex -3 -13.409 0.587785
      vertex -3 -15.6 16.35
      vertex -3 -13.409 -0.587785
    endloop
  endfacet
  facet normal 1 0 0
    outer loop
      vertex -3 -12.291 0.951056
      vertex -3 -15.6 16.35
      vertex -3 -13.409 0.587785
    endloop
  endfacet
  facet normal 1 -0 0
    outer loop
      vertex -3 -12.291 -0.951056
      vertex -3 -5.6 -16.35
      vertex -3 -11.6 0
    endloop
  endfacet
  facet normal 1 0 0
    outer loop
      vertex -3 -15.6 -16.35
      vertex -3 -12.291 -0.951056
      vertex -3 -13.409 -0.587785
    endloop
  endfacet
  facet normal 1 0 0
    outer loop
      vertex -3 -12.291 -0.951056
      vertex -3 -15.6 -16.35
      vertex -3 -5.6 -16.35
    endloop
  endfacet
  facet normal 1 0 0
    outer loop
      vertex -3 -15.6 -16.35
      vertex -3 -13.409 -0.587785
      vertex -3 -15.6 16.35
    endloop
  endfacet
  facet normal -1 0 0
    outer loop
      vertex 3 -5.6 -16.35
      vertex 3 -11.6 0
      vertex 3 -5.6 16.35
    endloop
  endfacet
  facet normal -1 0 0
    outer loop
      vertex 3 -5.6 -16.35
      vertex 3 -12.291 -0.951056
      vertex 3 -11.6 0
    endloop
  endfacet
  facet normal -1 0 0
    outer loop
      vertex 3 -15.6 -16.35
      vertex 3 -12.291 -0.951056
      vertex 3 -5.6 -16.35
    endloop
  endfacet
  facet normal -1 -0 0
    outer loop
      vertex 3 -13.409 -0.587785
      vertex 3 -15.6 -16.35
      vertex 3 -13.409 0.587785
    endloop
  endfacet
  facet normal -1 -0 0
    outer loop
      vertex 3 -12.291 -0.951056
      vertex 3 -15.6 -16.35
      vertex 3 -13.409 -0.587785
    endloop
  endfacet
  facet normal -1 0 0
    outer loop
      vertex 3 -12.291 0.951056
      vertex 3 -5.6 16.35
      vertex 3 -11.6 0
    endloop
  endfacet
  facet normal -1 0 0
    outer loop
      vertex 3 -15.6 16.35
      vertex 3 -12.291 0.951056
      vertex 3 -13.409 0.587785
    endloop
  endfacet
  facet normal -1 0 0
    outer loop
      vertex 3 -12.291 0.951056
      vertex 3 -15.6 16.35
      vertex 3 -5.6 16.35
    endloop
  endfacet
  facet normal -1 0 0
    outer loop
      vertex 3 -15.6 16.35
      vertex 3 -13.409 0.587785
      vertex 3 -15.6 -16.35
    endloop
  endfacet
  facet normal 0 -1 0
    outer loop
      vertex -3 -5.6 -16.35
      vertex 3 -5.6 16.35
      vertex -3 -5.6 16.35
    endloop
  endfacet
  facet normal 0 -1 -0
    outer loop
      vertex 3 -5.6 16.35
      vertex -3 -5.6 -16.35
      vertex 3 -5.6 -16.35
    endloop
  endfacet
  facet normal 0 -0.809017 -0.587785
    outer loop
      vertex -16.35 -11.6 0
      vertex -3 -12.291 0.951056
      vertex -16.35 -12.291 0.951056
    endloop
  endfacet
  facet normal 0 -0.809017 -0.587785
    outer loop
      vertex -3 -12.291 0.951056
      vertex -16.35 -11.6 0
      vertex -3 -11.6 0
    endloop
  endfacet
  facet normal 0 -0.809017 -0.587785
    outer loop
      vertex 3 -11.6 0
      vertex 16.35 -12.291 0.951056
      vertex 3 -12.291 0.951056
    endloop
  endfacet
  facet normal 0 -0.809017 -0.587785
    outer loop
      vertex 16.35 -12.291 0.951056
      vertex 3 -11.6 0
      vertex 16.35 -11.6 0
    endloop
  endfacet
  facet normal 0 1 -0
    outer loop
      vertex -3 -13.409 -0.587785
      vertex -16.35 -13.409 0.587785
      vertex -3 -13.409 0.587785
    endloop
  endfacet
  facet normal 0 1 0
    outer loop
      vertex -16.35 -13.409 0.587785
      vertex -3 -13.409 -0.587785
      vertex -16.35 -13.409 -0.587785
    endloop
  endfacet
  facet normal 0 1 -0
    outer loop
      vertex 16.35 -13.409 -0.587785
      vertex 3 -13.409 0.587785
      vertex 16.35 -13.409 0.587785
    endloop
  endfacet
  facet normal 0 1 0
    outer loop
      vertex 3 -13.409 0.587785
      vertex 16.35 -13.409 -0.587785
      vertex 3 -13.409 -0.587785
    endloop
  endfacet
  facet normal 0 0.309017 -0.951056
    outer loop
      vertex -16.35 -13.409 0.587785
      vertex -3 -12.291 0.951056
      vertex -3 -13.409 0.587785
    endloop
  endfacet
  facet normal 0 0.309017 -0.951056
    outer loop
      vertex -3 -12.291 0.951056
      vertex -16.35 -13.409 0.587785
      vertex -16.35 -12.291 0.951056
    endloop
  endfacet
  facet normal 0 0.309017 -0.951056
    outer loop
      vertex 3 -13.409 0.587785
      vertex 16.35 -12.291 0.951056
      vertex 16.35 -13.409 0.587785
    endloop
  endfacet
  facet normal 0 0.309017 -0.951056
    outer loop
      vertex 16.35 -12.291 0.951056
      vertex 3 -13.409 0.587785
      vertex 3 -12.291 0.951056
    endloop
  endfacet
  facet normal -0 0.309017 0.951056
    outer loop
      vertex -16.35 -12.291 -0.951056
      vertex -3 -13.409 -0.587785
      vertex -3 -12.291 -0.951056
    endloop
  endfacet
  facet normal 0 0.309017 0.951056
    outer loop
      vertex -3 -13.409 -0.587785
      vertex -16.35 -12.291 -0.951056
      vertex -16.35 -13.409 -0.587785
    endloop
  endfacet
  facet normal -0 0.309017 0.951056
    outer loop
      vertex 3 -12.291 -0.951056
      vertex 16.35 -13.409 -0.587785
      vertex 16.35 -12.291 -0.951056
    endloop
  endfacet
  facet normal 0 0.309017 0.951056
    outer loop
      vertex 16.35 -13.409 -0.587785
      vertex 3 -12.291 -0.951056
      vertex 3 -13.409 -0.587785
    endloop
  endfacet
  facet normal 0 -0.809017 0.587785
    outer loop
      vertex -16.35 -12.291 -0.951056
      vertex -3 -11.6 0
      vertex -16.35 -11.6 0
    endloop
  endfacet
  facet normal 0 -0.809017 0.587785
    outer loop
      vertex -3 -11.6 0
      vertex -16.35 -12.291 -0.951056
      vertex -3 -12.291 -0.951056
    endloop
  endfacet
  facet normal 0 -0.809017 0.587785
    outer loop
      vertex 3 -12.291 -0.951056
      vertex 16.35 -11.6 0
      vertex 3 -11.6 0
    endloop
  endfacet
  facet normal 0 -0.809017 0.587785
    outer loop
      vertex 16.35 -11.6 0
      vertex 3 -12.291 -0.951056
      vertex 16.35 -12.291 -0.951056
    endloop
  endfacet
  facet normal -0.994522 -0 -0.104528
    outer loop
      vertex 15.0146 -0.999999 3.19144
      vertex 15.35 -1 0
      vertex 15.0146 -1 3.19144
    endloop
  endfacet
  facet normal 4.5984e-007 -1 1.49411e-007
    outer loop
      vertex -14.0229 -1 -6.24341
      vertex -15.0146 -0.999999 3.19144
      vertex -15.0146 -1 -3.19144
    endloop
  endfacet
  facet normal -0.587785 0 -0.809017
    outer loop
      vertex 9.5 -1 11.9675
      vertex 10.2712 -0.999999 11.4073
      vertex 10.2712 -1 11.4073
    endloop
  endfacet
  facet normal -0.587785 0 -0.809017
    outer loop
      vertex 10.2712 -0.999999 11.4073
      vertex 9.5 -1 11.9675
      vertex 9.5 -0.999999 11.9675
    endloop
  endfacet
  facet normal 0.951057 -0 0.309017
    outer loop
      vertex -15.0146 -3.6 -3.19144
      vertex -14.0229 -1 -6.24341
      vertex -15.0146 -1 -3.19144
    endloop
  endfacet
  facet normal 0.951057 0 0.309017
    outer loop
      vertex -14.0229 -1 -6.24341
      vertex -15.0146 -3.6 -3.19144
      vertex -14.0229 -3.6 -6.24341
    endloop
  endfacet
  facet normal -0.207912 0 0.978148
    outer loop
      vertex 1.60451 -1 -15.2659
      vertex 4.74341 -3.6 -14.5987
      vertex 4.74341 -1 -14.5987
    endloop
  endfacet
  facet normal -0.207912 0 0.978148
    outer loop
      vertex 4.74341 -3.6 -14.5987
      vertex 1.60451 -1 -15.2659
      vertex 1.60451 -3.6 -15.2659
    endloop
  endfacet
  facet normal -1.13515e-007 -1 1.02209e-007
    outer loop
      vertex 12.4184 -1 -9.0225
      vertex 15.0146 -0.999999 3.19144
      vertex 10.2712 -1 -11.4073
    endloop
  endfacet
  facet normal 0 -1 5.60292e-008
    outer loop
      vertex -15.0146 -0.999999 3.19144
      vertex -9.5 -0.999999 0
      vertex -9.5 -0.999999 3.19144
    endloop
  endfacet
  facet normal -1.59304e-008 -1 2.85028e-008
    outer loop
      vertex -15.0146 -0.999999 3.19144
      vertex -9.2924 -0.999999 -1.97516
      vertex -9.5 -0.999999 0
    endloop
  endfacet
  facet normal 2.16793e-008 -1 7.01566e-008
    outer loop
      vertex -15.0146 -0.999999 3.19144
      vertex -8.67868 -0.999999 -3.864
      vertex -9.2924 -0.999999 -1.97516
    endloop
  endfacet
  facet normal 5.80702e-008 -1 1.02836e-007
    outer loop
      vertex -15.0146 -0.999999 3.19144
      vertex -7.68566 -1 -5.58396
      vertex -8.67868 -0.999999 -3.864
    endloop
  endfacet
  facet normal 0 -1 5.12248e-008
    outer loop
      vertex -0.99302 -1 -9.44796
      vertex -1.60451 -1 -15.2659
      vertex 0.99302 -1 -9.44796
    endloop
  endfacet
  facet normal 1.06502e-008 -1 5.01054e-008
    outer loop
      vertex -2.93566 -1 -9.03504
      vertex -1.60451 -1 -15.2659
      vertex -0.99302 -1 -9.44796
    endloop
  endfacet
  facet normal -1.27715e-008 -1 4.51016e-008
    outer loop
      vertex -4.75 -1 -8.22724
      vertex -1.60451 -1 -15.2659
      vertex -2.93566 -1 -9.03504
    endloop
  endfacet
  facet normal -2.69087e-010 -1 5.06888e-008
    outer loop
      vertex -6.35674 -1 -7.05988
      vertex -1.60451 -1 -15.2659
      vertex -4.75 -1 -8.22724
    endloop
  endfacet
  facet normal 3.25554e-008 -1 6.96979e-008
    outer loop
      vertex -7.68566 -1 -5.58396
      vertex -1.60451 -1 -15.2659
      vertex -6.35674 -1 -7.05988
    endloop
  endfacet
  facet normal -2.45701e-008 -1 3.38178e-008
    outer loop
      vertex -1.60451 -1 -15.2659
      vertex -7.68566 -1 -5.58396
      vertex -15.0146 -0.999999 3.19144
    endloop
  endfacet
  facet normal 0 -1 5.60292e-008
    outer loop
      vertex 9.5 -0.999999 0
      vertex 15.0146 -0.999999 3.19144
      vertex 9.5 -0.999999 3.19144
    endloop
  endfacet
  facet normal 1.59304e-008 -1 2.85028e-008
    outer loop
      vertex 9.2924 -0.999999 -1.97516
      vertex 15.0146 -0.999999 3.19144
      vertex 9.5 -0.999999 0
    endloop
  endfacet
  facet normal -2.16793e-008 -1 7.01566e-008
    outer loop
      vertex 8.67868 -0.999999 -3.864
      vertex 15.0146 -0.999999 3.19144
      vertex 9.2924 -0.999999 -1.97516
    endloop
  endfacet
  facet normal -5.80702e-008 -1 1.02836e-007
    outer loop
      vertex 7.68566 -1 -5.58396
      vertex 15.0146 -0.999999 3.19144
      vertex 8.67868 -0.999999 -3.864
    endloop
  endfacet
  facet normal 0 -1 5.12248e-008
    outer loop
      vertex 1.60451 -1 -15.2659
      vertex 0.99302 -1 -9.44796
      vertex -1.60451 -1 -15.2659
    endloop
  endfacet
  facet normal -1.06502e-008 -1 5.01054e-008
    outer loop
      vertex 0.99302 -1 -9.44796
      vertex 1.60451 -1 -15.2659
      vertex 2.93566 -1 -9.03504
    endloop
  endfacet
  facet normal 1.27715e-008 -1 4.51016e-008
    outer loop
      vertex 2.93566 -1 -9.03504
      vertex 1.60451 -1 -15.2659
      vertex 4.75 -1 -8.22724
    endloop
  endfacet
  facet normal 2.45701e-008 -1 3.38178e-008
    outer loop
      vertex 7.68566 -1 -5.58396
      vertex 1.60451 -1 -15.2659
      vertex 15.0146 -0.999999 3.19144
    endloop
  endfacet
  facet normal -3.25554e-008 -1 6.96979e-008
    outer loop
      vertex 6.35674 -1 -7.05988
      vertex 1.60451 -1 -15.2659
      vertex 7.68566 -1 -5.58396
    endloop
  endfacet
  facet normal 2.69087e-010 -1 5.06888e-008
    outer loop
      vertex 4.75 -1 -8.22724
      vertex 1.60451 -1 -15.2659
      vertex 6.35674 -1 -7.05988
    endloop
  endfacet
  facet normal -0.866025 0 -0.5
    outer loop
      vertex 14.0229 -1 6.24341
      vertex 12.4184 -0.999999 9.0225
      vertex 14.0229 -0.999999 6.24341
    endloop
  endfacet
  facet normal -0.866025 -0 -0.5
    outer loop
      vertex 12.4184 -0.999999 9.0225
      vertex 14.0229 -1 6.24341
      vertex 12.4184 -1 9.0225
    endloop
  endfacet
  facet normal -0.866025 0 0.5
    outer loop
      vertex 12.4184 -3.6 -9.0225
      vertex 14.0229 -1 -6.24341
      vertex 12.4184 -1 -9.0225
    endloop
  endfacet
  facet normal -0.866025 0 0.5
    outer loop
      vertex 14.0229 -1 -6.24341
      vertex 12.4184 -3.6 -9.0225
      vertex 14.0229 -3.6 -6.24341
    endloop
  endfacet
  facet normal -0 0 1
    outer loop
      vertex -1.60451 -1 -15.2659
      vertex 1.60451 -3.6 -15.2659
      vertex 1.60451 -1 -15.2659
    endloop
  endfacet
  facet normal 0 0 1
    outer loop
      vertex 1.60451 -3.6 -15.2659
      vertex -1.60451 -1 -15.2659
      vertex -1.60451 -3.6 -15.2659
    endloop
  endfacet
  facet normal -3.21252e-008 -1 7.21543e-008
    outer loop
      vertex 7.675 -1 -13.2935
      vertex 15.0146 -0.999999 3.19144
      vertex 4.74341 -1 -14.5987
    endloop
  endfacet
  facet normal -4.5984e-007 -1 1.49411e-007
    outer loop
      vertex 15.0146 -1 -3.19144
      vertex 15.0146 -0.999999 3.19144
      vertex 14.0229 -1 -6.24341
    endloop
  endfacet
  facet normal 0.587785 0 0.809017
    outer loop
      vertex -10.2712 -1 -11.4073
      vertex -7.675 -3.6 -13.2935
      vertex -7.675 -1 -13.2935
    endloop
  endfacet
  facet normal 0.587785 0 0.809017
    outer loop
      vertex -7.675 -3.6 -13.2935
      vertex -10.2712 -1 -11.4073
      vertex -10.2712 -3.6 -11.4073
    endloop
  endfacet
  facet normal 0 1 -0
    outer loop
      vertex 15.35 -3.6 0
      vertex -15.35 -3.6 16.35
      vertex 15.35 -3.6 16.35
    endloop
  endfacet
  facet normal 0 1 0
    outer loop
      vertex 15.35 -3.6 0
      vertex -15.35 -3.6 0
      vertex -15.35 -3.6 16.35
    endloop
  endfacet
  facet normal 0 1 -0
    outer loop
      vertex 15.0146 -3.6 -3.19144
      vertex -15.35 -3.6 0
      vertex 15.35 -3.6 0
    endloop
  endfacet
  facet normal 0 1 0
    outer loop
      vertex 15.0146 -3.6 -3.19144
      vertex -15.0146 -3.6 -3.19144
      vertex -15.35 -3.6 0
    endloop
  endfacet
  facet normal 0 1 -0
    outer loop
      vertex 14.0229 -3.6 -6.24341
      vertex -15.0146 -3.6 -3.19144
      vertex 15.0146 -3.6 -3.19144
    endloop
  endfacet
  facet normal 0 1 0
    outer loop
      vertex 14.0229 -3.6 -6.24341
      vertex -14.0229 -3.6 -6.24341
      vertex -15.0146 -3.6 -3.19144
    endloop
  endfacet
  facet normal 0 1 -0
    outer loop
      vertex 12.4184 -3.6 -9.0225
      vertex -14.0229 -3.6 -6.24341
      vertex 14.0229 -3.6 -6.24341
    endloop
  endfacet
  facet normal 0 1 0
    outer loop
      vertex 12.4184 -3.6 -9.0225
      vertex -12.4184 -3.6 -9.0225
      vertex -14.0229 -3.6 -6.24341
    endloop
  endfacet
  facet normal 0 1 -0
    outer loop
      vertex 10.2712 -3.6 -11.4073
      vertex -12.4184 -3.6 -9.0225
      vertex 12.4184 -3.6 -9.0225
    endloop
  endfacet
  facet normal 0 1 0
    outer loop
      vertex 10.2712 -3.6 -11.4073
      vertex -10.2712 -3.6 -11.4073
      vertex -12.4184 -3.6 -9.0225
    endloop
  endfacet
  facet normal 0 1 -0
    outer loop
      vertex 7.675 -3.6 -13.2935
      vertex -10.2712 -3.6 -11.4073
      vertex 10.2712 -3.6 -11.4073
    endloop
  endfacet
  facet normal 0 1 0
    outer loop
      vertex 7.675 -3.6 -13.2935
      vertex -7.675 -3.6 -13.2935
      vertex -10.2712 -3.6 -11.4073
    endloop
  endfacet
  facet normal 0 1 -0
    outer loop
      vertex 4.74341 -3.6 -14.5987
      vertex -7.675 -3.6 -13.2935
      vertex 7.675 -3.6 -13.2935
    endloop
  endfacet
  facet normal 0 1 0
    outer loop
      vertex 4.74341 -3.6 -14.5987
      vertex -4.74341 -3.6 -14.5987
      vertex -7.675 -3.6 -13.2935
    endloop
  endfacet
  facet normal 0 1 -0
    outer loop
      vertex 1.60451 -3.6 -15.2659
      vertex -4.74341 -3.6 -14.5987
      vertex 4.74341 -3.6 -14.5987
    endloop
  endfacet
  facet normal 0 1 0
    outer loop
      vertex -4.74341 -3.6 -14.5987
      vertex 1.60451 -3.6 -15.2659
      vertex -1.60451 -3.6 -15.2659
    endloop
  endfacet
  facet normal -0.951057 0 -0.309017
    outer loop
      vertex 15.0146 -1 3.19144
      vertex 14.0229 -0.999999 6.24341
      vertex 15.0146 -0.999999 3.19144
    endloop
  endfacet
  facet normal -0.951057 -0 -0.309017
    outer loop
      vertex 14.0229 -0.999999 6.24341
      vertex 15.0146 -1 3.19144
      vertex 14.0229 -1 6.24341
    endloop
  endfacet
  facet normal -1.42155e-006 -1 1.49411e-007
    outer loop
      vertex 15.35 -1 0
      vertex 15.0146 -0.999999 3.19144
      vertex 15.0146 -1 -3.19144
    endloop
  endfacet
  facet normal 6.21286e-008 -1 8.55127e-008
    outer loop
      vertex -10.2712 -1 -11.4073
      vertex -7.675 -1 -13.2935
      vertex -15.0146 -0.999999 3.19144
    endloop
  endfacet
  facet normal 0.406737 0 0.913545
    outer loop
      vertex -7.675 -1 -13.2935
      vertex -4.74341 -3.6 -14.5987
      vertex -4.74341 -1 -14.5987
    endloop
  endfacet
  facet normal 0.406737 0 0.913545
    outer loop
      vertex -4.74341 -3.6 -14.5987
      vertex -7.675 -1 -13.2935
      vertex -7.675 -3.6 -13.2935
    endloop
  endfacet
  facet normal 0.207912 0 0.978148
    outer loop
      vertex -4.74341 -1 -14.5987
      vertex -1.60451 -3.6 -15.2659
      vertex -1.60451 -1 -15.2659
    endloop
  endfacet
  facet normal 0.207912 0 0.978148
    outer loop
      vertex -1.60451 -3.6 -15.2659
      vertex -4.74341 -1 -14.5987
      vertex -4.74341 -3.6 -14.5987
    endloop
  endfacet
  facet normal -6.21286e-008 -1 8.55127e-008
    outer loop
      vertex 10.2712 -1 -11.4073
      vertex 15.0146 -0.999999 3.19144
      vertex 7.675 -1 -13.2935
    endloop
  endfacet
  facet normal -1.29884e-008 -1 6.11057e-008
    outer loop
      vertex 4.74341 -1 -14.5987
      vertex 15.0146 -0.999999 3.19144
      vertex 1.60451 -1 -15.2659
    endloop
  endfacet
  facet normal -2.14041e-007 -1 1.23577e-007
    outer loop
      vertex 14.0229 -1 -6.24341
      vertex 15.0146 -0.999999 3.19144
      vertex 12.4184 -1 -9.0225
    endloop
  endfacet
  facet normal -0.994522 0 0.104528
    outer loop
      vertex 15.0146 -3.6 -3.19144
      vertex 15.35 -1 0
      vertex 15.0146 -1 -3.19144
    endloop
  endfacet
  facet normal -0.994522 0 0.104528
    outer loop
      vertex 15.35 -1 0
      vertex 15.0146 -3.6 -3.19144
      vertex 15.35 -3.6 0
    endloop
  endfacet
  facet normal 0.951057 0 -0.309017
    outer loop
      vertex -14.0229 -1 6.24341
      vertex -15.0146 -0.999999 3.19144
      vertex -14.0229 -0.999999 6.24341
    endloop
  endfacet
  facet normal 0.951057 0 -0.309017
    outer loop
      vertex -15.0146 -0.999999 3.19144
      vertex -14.0229 -1 6.24341
      vertex -15.0146 -1 3.19144
    endloop
  endfacet
  facet normal 0 -1 0
    outer loop
      vertex 9.5 -0.999999 3.19144
      vertex 10.2712 -0.999999 11.4073
      vertex 9.5 -0.999999 11.9675
    endloop
  endfacet
  facet normal 0 -1 -0
    outer loop
      vertex 10.2712 -0.999999 11.4073
      vertex 9.5 -0.999999 3.19144
      vertex 12.4184 -0.999999 9.0225
    endloop
  endfacet
  facet normal 0 -1 -0
    outer loop
      vertex 12.4184 -0.999999 9.0225
      vertex 9.5 -0.999999 3.19144
      vertex 14.0229 -0.999999 6.24341
    endloop
  endfacet
  facet normal 0 -1 -0
    outer loop
      vertex 14.0229 -0.999999 6.24341
      vertex 9.5 -0.999999 3.19144
      vertex 15.0146 -0.999999 3.19144
    endloop
  endfacet
  facet normal 0 -1 0
    outer loop
      vertex -9.5 -0.999999 3.19144
      vertex -10.2712 -0.999999 11.4073
      vertex -12.4184 -0.999999 9.0225
    endloop
  endfacet
  facet normal 0 -1 0
    outer loop
      vertex -9.5 -0.999999 3.19144
      vertex -12.4184 -0.999999 9.0225
      vertex -14.0229 -0.999999 6.24341
    endloop
  endfacet
  facet normal 0 -1 0
    outer loop
      vertex -9.5 -0.999999 3.19144
      vertex -14.0229 -0.999999 6.24341
      vertex -15.0146 -0.999999 3.19144
    endloop
  endfacet
  facet normal 0 -1 0
    outer loop
      vertex -10.2712 -0.999999 11.4073
      vertex -9.5 -0.999999 3.19144
      vertex -9.5 -0.999999 11.9675
    endloop
  endfacet
  facet normal 0.866025 0 -0.5
    outer loop
      vertex -12.4184 -1 9.0225
      vertex -14.0229 -0.999999 6.24341
      vertex -12.4184 -0.999999 9.0225
    endloop
  endfacet
  facet normal 0.866025 0 -0.5
    outer loop
      vertex -14.0229 -0.999999 6.24341
      vertex -12.4184 -1 9.0225
      vertex -14.0229 -1 6.24341
    endloop
  endfacet
  facet normal 0.587785 0 -0.809017
    outer loop
      vertex -10.2712 -1 11.4073
      vertex -9.5 -0.999999 11.9675
      vertex -9.5 -1 11.9675
    endloop
  endfacet
  facet normal 0.587785 0 -0.809017
    outer loop
      vertex -9.5 -0.999999 11.9675
      vertex -10.2712 -1 11.4073
      vertex -10.2712 -0.999999 11.4073
    endloop
  endfacet
  facet normal 0.994522 -0 0.104528
    outer loop
      vertex -15.35 -3.6 0
      vertex -15.0146 -1 -3.19144
      vertex -15.35 -1 0
    endloop
  endfacet
  facet normal 0.994522 0 0.104528
    outer loop
      vertex -15.0146 -1 -3.19144
      vertex -15.35 -3.6 0
      vertex -15.0146 -3.6 -3.19144
    endloop
  endfacet
  facet normal -0.743145 0 -0.669131
    outer loop
      vertex 12.4184 -1 9.0225
      vertex 10.2712 -0.999999 11.4073
      vertex 12.4184 -0.999999 9.0225
    endloop
  endfacet
  facet normal -0.743145 -0 -0.669131
    outer loop
      vertex 10.2712 -0.999999 11.4073
      vertex 12.4184 -1 9.0225
      vertex 10.2712 -1 11.4073
    endloop
  endfacet
  facet normal 1.13515e-007 -1 1.02209e-007
    outer loop
      vertex -12.4184 -1 -9.0225
      vertex -10.2712 -1 -11.4073
      vertex -15.0146 -0.999999 3.19144
    endloop
  endfacet
  facet normal 0.866025 -0 0.5
    outer loop
      vertex -14.0229 -3.6 -6.24341
      vertex -12.4184 -1 -9.0225
      vertex -14.0229 -1 -6.24341
    endloop
  endfacet
  facet normal 0.866025 0 0.5
    outer loop
      vertex -12.4184 -1 -9.0225
      vertex -14.0229 -3.6 -6.24341
      vertex -12.4184 -3.6 -9.0225
    endloop
  endfacet
  facet normal 2.14041e-007 -1 1.23577e-007
    outer loop
      vertex -14.0229 -1 -6.24341
      vertex -12.4184 -1 -9.0225
      vertex -15.0146 -0.999999 3.19144
    endloop
  endfacet
  facet normal 0.743145 -0 0.669131
    outer loop
      vertex -12.4184 -3.6 -9.0225
      vertex -10.2712 -1 -11.4073
      vertex -12.4184 -1 -9.0225
    endloop
  endfacet
  facet normal 0.743145 0 0.669131
    outer loop
      vertex -10.2712 -1 -11.4073
      vertex -12.4184 -3.6 -9.0225
      vertex -10.2712 -3.6 -11.4073
    endloop
  endfacet
  facet normal -0.406737 0 0.913545
    outer loop
      vertex 4.74341 -1 -14.5987
      vertex 7.675 -3.6 -13.2935
      vertex 7.675 -1 -13.2935
    endloop
  endfacet
  facet normal -0.406737 0 0.913545
    outer loop
      vertex 7.675 -3.6 -13.2935
      vertex 4.74341 -1 -14.5987
      vertex 4.74341 -3.6 -14.5987
    endloop
  endfacet
  facet normal -0.587785 0 0.809017
    outer loop
      vertex 7.675 -1 -13.2935
      vertex 10.2712 -3.6 -11.4073
      vertex 10.2712 -1 -11.4073
    endloop
  endfacet
  facet normal -0.587785 0 0.809017
    outer loop
      vertex 10.2712 -3.6 -11.4073
      vertex 7.675 -1 -13.2935
      vertex 7.675 -3.6 -13.2935
    endloop
  endfacet
  facet normal -0.743145 0 0.669131
    outer loop
      vertex 10.2712 -3.6 -11.4073
      vertex 12.4184 -1 -9.0225
      vertex 10.2712 -1 -11.4073
    endloop
  endfacet
  facet normal -0.743145 0 0.669131
    outer loop
      vertex 12.4184 -1 -9.0225
      vertex 10.2712 -3.6 -11.4073
      vertex 12.4184 -3.6 -9.0225
    endloop
  endfacet
  facet normal -0.951057 0 0.309017
    outer loop
      vertex 14.0229 -3.6 -6.24341
      vertex 15.0146 -1 -3.19144
      vertex 14.0229 -1 -6.24341
    endloop
  endfacet
  facet normal -0.951057 0 0.309017
    outer loop
      vertex 15.0146 -1 -3.19144
      vertex 14.0229 -3.6 -6.24341
      vertex 15.0146 -3.6 -3.19144
    endloop
  endfacet
  facet normal 3.21252e-008 -1 7.21543e-008
    outer loop
      vertex -7.675 -1 -13.2935
      vertex -4.74341 -1 -14.5987
      vertex -15.0146 -0.999999 3.19144
    endloop
  endfacet
  facet normal 0.743145 0 -0.669131
    outer loop
      vertex -10.2712 -1 11.4073
      vertex -12.4184 -0.999999 9.0225
      vertex -10.2712 -0.999999 11.4073
    endloop
  endfacet
  facet normal 0.743145 0 -0.669131
    outer loop
      vertex -12.4184 -0.999999 9.0225
      vertex -10.2712 -1 11.4073
      vertex -12.4184 -1 9.0225
    endloop
  endfacet
  facet normal 0.994522 0 -0.104528
    outer loop
      vertex -15.0146 -0.999999 3.19144
      vertex -15.0146 -1 3.19144
      vertex -15.35 -1 0
    endloop
  endfacet
  facet normal 1.42155e-006 -1 1.49411e-007
    outer loop
      vertex -15.0146 -1 -3.19144
      vertex -15.0146 -0.999999 3.19144
      vertex -15.35 -1 0
    endloop
  endfacet
  facet normal 1.29884e-008 -1 6.11057e-008
    outer loop
      vertex -4.74341 -1 -14.5987
      vertex -1.60451 -1 -15.2659
      vertex -15.0146 -0.999999 3.19144
    endloop
  endfacet
  facet normal 1 -0 0
    outer loop
      vertex -15.35 -3.6 16.35
      vertex -15.35 -1 0
      vertex -15.35 -1 16.35
    endloop
  endfacet
  facet normal 1 0 0
    outer loop
      vertex -15.35 -1 0
      vertex -15.35 -3.6 16.35
      vertex -15.35 -3.6 0
    endloop
  endfacet
  facet normal -1 0 0
    outer loop
      vertex 15.35 -3.6 0
      vertex 15.35 -1 16.35
      vertex 15.35 -1 0
    endloop
  endfacet
  facet normal -1 -0 0
    outer loop
      vertex 15.35 -1 16.35
      vertex 15.35 -3.6 0
      vertex 15.35 -3.6 16.35
    endloop
  endfacet
  facet normal 0 -1 0
    outer loop
      vertex 10.2712 -1 11.4073
      vertex 9.5 -1 16.35
      vertex 9.5 -1 11.9675
    endloop
  endfacet
  facet normal 0 -1 0
    outer loop
      vertex 9.5 -1 16.35
      vertex 10.2712 -1 11.4073
      vertex 15.35 -1 16.35
    endloop
  endfacet
  facet normal 0 -1 0
    outer loop
      vertex 12.4184 -1 9.0225
      vertex 15.35 -1 16.35
      vertex 10.2712 -1 11.4073
    endloop
  endfacet
  facet normal 0 -1 0
    outer loop
      vertex 14.0229 -1 6.24341
      vertex 15.35 -1 16.35
      vertex 12.4184 -1 9.0225
    endloop
  endfacet
  facet normal 0 -1 0
    outer loop
      vertex 15.0146 -1 3.19144
      vertex 15.35 -1 16.35
      vertex 14.0229 -1 6.24341
    endloop
  endfacet
  facet normal 0 -1 -0
    outer loop
      vertex 15.35 -1 16.35
      vertex 15.0146 -1 3.19144
      vertex 15.35 -1 0
    endloop
  endfacet
  facet normal 0 -1 0
    outer loop
      vertex -10.2712 -1 11.4073
      vertex -9.5 -1 16.35
      vertex -15.35 -1 16.35
    endloop
  endfacet
  facet normal 0 -1 -0
    outer loop
      vertex -9.5 -1 16.35
      vertex -10.2712 -1 11.4073
      vertex -9.5 -1 11.9675
    endloop
  endfacet
  facet normal 0 -1 0
    outer loop
      vertex -15.35 -1 16.35
      vertex -12.4184 -1 9.0225
      vertex -10.2712 -1 11.4073
    endloop
  endfacet
  facet normal 0 -1 0
    outer loop
      vertex -15.35 -1 16.35
      vertex -14.0229 -1 6.24341
      vertex -12.4184 -1 9.0225
    endloop
  endfacet
  facet normal 0 -1 0
    outer loop
      vertex -15.35 -1 16.35
      vertex -15.0146 -1 3.19144
      vertex -14.0229 -1 6.24341
    endloop
  endfacet
  facet normal -0 -1 0
    outer loop
      vertex -15.0146 -1 3.19144
      vertex -15.35 -1 16.35
      vertex -15.35 -1 0
    endloop
  endfacet
  facet normal -0.994522 0 0.104529
    outer loop
      vertex 9.2924 0 -1.97516
      vertex 9.5 -0.999999 0
      vertex 9.5 0 0
    endloop
  endfacet
  facet normal -0.994522 0 0.104529
    outer loop
      vertex 9.5 -0.999999 0
      vertex 9.2924 0 -1.97516
      vertex 9.2924 -0.999999 -1.97516
    endloop
  endfacet
  facet normal -0 0 1
    outer loop
      vertex -0.99302 0 -9.44796
      vertex 0.99302 -1 -9.44796
      vertex 0.99302 0 -9.44796
    endloop
  endfacet
  facet normal 0 0 1
    outer loop
      vertex 0.99302 -1 -9.44796
      vertex -0.99302 0 -9.44796
      vertex -0.99302 -1 -9.44796
    endloop
  endfacet
  facet normal -0.406737 0 0.913545
    outer loop
      vertex 2.93566 0 -9.03504
      vertex 4.75 -1 -8.22724
      vertex 4.75 0 -8.22724
    endloop
  endfacet
  facet normal -0.406737 0 0.913545
    outer loop
      vertex 4.75 -1 -8.22724
      vertex 2.93566 0 -9.03504
      vertex 2.93566 -1 -9.03504
    endloop
  endfacet
  facet normal -0.743145 0 0.669131
    outer loop
      vertex 6.35674 0 -7.05988
      vertex 7.68566 -1 -5.58396
      vertex 7.68566 0 -5.58396
    endloop
  endfacet
  facet normal -0.743145 0 0.669131
    outer loop
      vertex 7.68566 -1 -5.58396
      vertex 6.35674 0 -7.05988
      vertex 6.35674 -1 -7.05988
    endloop
  endfacet
  facet normal -0.951057 0 0.309017
    outer loop
      vertex 8.67868 0 -3.864
      vertex 9.2924 -0.999999 -1.97516
      vertex 9.2924 0 -1.97516
    endloop
  endfacet
  facet normal -0.951057 0 0.309017
    outer loop
      vertex 9.2924 -0.999999 -1.97516
      vertex 8.67868 0 -3.864
      vertex 8.67868 -0.999999 -3.864
    endloop
  endfacet
  facet normal 0.866026 -0 0.5
    outer loop
      vertex -8.67868 -0.999999 -3.864
      vertex -7.68566 0 -5.58396
      vertex -8.67868 0 -3.864
    endloop
  endfacet
  facet normal 0.866026 0 0.5
    outer loop
      vertex -7.68566 0 -5.58396
      vertex -8.67868 -0.999999 -3.864
      vertex -7.68566 -1 -5.58396
    endloop
  endfacet
  facet normal 0.951057 -0 0.309017
    outer loop
      vertex -9.2924 -0.999999 -1.97516
      vertex -8.67868 0 -3.864
      vertex -9.2924 0 -1.97516
    endloop
  endfacet
  facet normal 0.951057 0 0.309017
    outer loop
      vertex -8.67868 0 -3.864
      vertex -9.2924 -0.999999 -1.97516
      vertex -8.67868 -0.999999 -3.864
    endloop
  endfacet
  facet normal 0.994522 -0 0.104529
    outer loop
      vertex -9.5 -0.999999 0
      vertex -9.2924 0 -1.97516
      vertex -9.5 0 0
    endloop
  endfacet
  facet normal 0.994522 0 0.104529
    outer loop
      vertex -9.2924 0 -1.97516
      vertex -9.5 -0.999999 0
      vertex -9.2924 -0.999999 -1.97516
    endloop
  endfacet
  facet normal -0.207912 0 0.978148
    outer loop
      vertex 0.99302 0 -9.44796
      vertex 2.93566 -1 -9.03504
      vertex 2.93566 0 -9.03504
    endloop
  endfacet
  facet normal -0.207912 0 0.978148
    outer loop
      vertex 2.93566 -1 -9.03504
      vertex 0.99302 0 -9.44796
      vertex 0.99302 -1 -9.44796
    endloop
  endfacet
  facet normal -0.587785 0 0.809017
    outer loop
      vertex 4.75 0 -8.22724
      vertex 6.35674 -1 -7.05988
      vertex 6.35674 0 -7.05988
    endloop
  endfacet
  facet normal -0.587785 0 0.809017
    outer loop
      vertex 6.35674 -1 -7.05988
      vertex 4.75 0 -8.22724
      vertex 4.75 -1 -8.22724
    endloop
  endfacet
  facet normal -0.866026 0 0.5
    outer loop
      vertex 7.68566 0 -5.58396
      vertex 8.67868 -0.999999 -3.864
      vertex 8.67868 0 -3.864
    endloop
  endfacet
  facet normal -0.866026 0 0.5
    outer loop
      vertex 8.67868 -0.999999 -3.864
      vertex 7.68566 0 -5.58396
      vertex 7.68566 -1 -5.58396
    endloop
  endfacet
  facet normal 0.743145 -0 0.669131
    outer loop
      vertex -7.68566 -1 -5.58396
      vertex -6.35674 0 -7.05988
      vertex -7.68566 0 -5.58396
    endloop
  endfacet
  facet normal 0.743145 0 0.669131
    outer loop
      vertex -6.35674 0 -7.05988
      vertex -7.68566 -1 -5.58396
      vertex -6.35674 -1 -7.05988
    endloop
  endfacet
  facet normal 0.587785 0 0.809017
    outer loop
      vertex -6.35674 0 -7.05988
      vertex -4.75 -1 -8.22724
      vertex -4.75 0 -8.22724
    endloop
  endfacet
  facet normal 0.587785 0 0.809017
    outer loop
      vertex -4.75 -1 -8.22724
      vertex -6.35674 0 -7.05988
      vertex -6.35674 -1 -7.05988
    endloop
  endfacet
  facet normal 0.406737 0 0.913545
    outer loop
      vertex -4.75 0 -8.22724
      vertex -2.93566 -1 -9.03504
      vertex -2.93566 0 -9.03504
    endloop
  endfacet
  facet normal 0.406737 0 0.913545
    outer loop
      vertex -2.93566 -1 -9.03504
      vertex -4.75 0 -8.22724
      vertex -4.75 -1 -8.22724
    endloop
  endfacet
  facet normal 0.207912 0 0.978148
    outer loop
      vertex -2.93566 0 -9.03504
      vertex -0.99302 -1 -9.44796
      vertex -0.99302 0 -9.44796
    endloop
  endfacet
  facet normal 0.207912 0 0.978148
    outer loop
      vertex -0.99302 -1 -9.44796
      vertex -2.93566 0 -9.03504
      vertex -2.93566 -1 -9.03504
    endloop
  endfacet
  facet normal 1 0 0
    outer loop
      vertex -9.5 0 16.35
      vertex -9.5 -0.999999 11.9675
      vertex -9.5 0 0
    endloop
  endfacet
  facet normal 1 -0 0
    outer loop
      vertex -9.5 -1 16.35
      vertex -9.5 -0.999999 11.9675
      vertex -9.5 0 16.35
    endloop
  endfacet
  facet normal 1 0 0
    outer loop
      vertex -9.5 -0.999999 11.9675
      vertex -9.5 -1 16.35
      vertex -9.5 -1 11.9675
    endloop
  endfacet
  facet normal 1 -0 0
    outer loop
      vertex -9.5 -0.999999 3.19144
      vertex -9.5 0 0
      vertex -9.5 -0.999999 11.9675
    endloop
  endfacet
  facet normal 1 0 0
    outer loop
      vertex -9.5 0 0
      vertex -9.5 -0.999999 3.19144
      vertex -9.5 -0.999999 0
    endloop
  endfacet
  facet normal -1 0 0
    outer loop
      vertex 9.5 -0.999999 11.9675
      vertex 9.5 0 0
      vertex 9.5 -0.999999 3.19144
    endloop
  endfacet
  facet normal -1 0 -0
    outer loop
      vertex 9.5 -0.999999 3.19144
      vertex 9.5 0 0
      vertex 9.5 -0.999999 0
    endloop
  endfacet
  facet normal -1 0 0
    outer loop
      vertex 9.5 0 0
      vertex 9.5 -0.999999 11.9675
      vertex 9.5 0 16.35
    endloop
  endfacet
  facet normal -1 0 0
    outer loop
      vertex 9.5 -1 16.35
      vertex 9.5 -0.999999 11.9675
      vertex 9.5 -1 11.9675
    endloop
  endfacet
  facet normal -1 0 0
    outer loop
      vertex 9.5 -0.999999 11.9675
      vertex 9.5 -1 16.35
      vertex 9.5 0 16.35
    endloop
  endfacet
endsolid OpenSCAD_Model
