solid OpenSCAD_Model
  facet normal 0 0 -1
    outer loop
      vertex 90 0 0
      vertex 87 7.5 0
      vertex 90 15 0
    endloop
  endfacet
  facet normal 0 0 -1
    outer loop
      vertex 90 0 0
      vertex 86.427 5.73664 0
      vertex 87 7.5 0
    endloop
  endfacet
  facet normal 0 0 -1
    outer loop
      vertex 90 0 0
      vertex 84.927 4.64683 0
      vertex 86.427 5.73664 0
    endloop
  endfacet
  facet normal 0 0 -1
    outer loop
      vertex 90 0 0
      vertex 83.073 4.64683 0
      vertex 84.927 4.64683 0
    endloop
  endfacet
  facet normal -0 0 -1
    outer loop
      vertex 81.573 5.73664 0
      vertex 60.45 0 0
      vertex 81 7.5 0
    endloop
  endfacet
  facet normal -0 0 -1
    outer loop
      vertex 83.073 4.64683 0
      vertex 60.45 0 0
      vertex 81.573 5.73664 0
    endloop
  endfacet
  facet normal 0 0 -1
    outer loop
      vertex 60.45 0 0
      vertex 83.073 4.64683 0
      vertex 90 0 0
    endloop
  endfacet
  facet normal 0 0 -1
    outer loop
      vertex 86.427 9.26336 0
      vertex 90 15 0
      vertex 87 7.5 0
    endloop
  endfacet
  facet normal 0 0 -1
    outer loop
      vertex 84.927 10.3532 0
      vertex 90 15 0
      vertex 86.427 9.26336 0
    endloop
  endfacet
  facet normal 0 0 -1
    outer loop
      vertex 83.073 10.3532 0
      vertex 90 15 0
      vertex 84.927 10.3532 0
    endloop
  endfacet
  facet normal 0 0 -1
    outer loop
      vertex 60.45 15 0
      vertex 81 7.5 0
      vertex 60.45 0 0
    endloop
  endfacet
  facet normal 0 0 -1
    outer loop
      vertex 81 7.5 0
      vertex 60.45 15 0
      vertex 81.573 9.26336 0
    endloop
  endfacet
  facet normal 0 0 -1
    outer loop
      vertex 81.573 9.26336 0
      vertex 60.45 15 0
      vertex 83.073 10.3532 0
    endloop
  endfacet
  facet normal 0 0 -1
    outer loop
      vertex 83.073 10.3532 0
      vertex 60.45 15 0
      vertex 90 15 0
    endloop
  endfacet
  facet normal 0 0 -1
    outer loop
      vertex 29.55 0 0
      vertex 9 7.5 0
      vertex 29.55 15 0
    endloop
  endfacet
  facet normal 0 0 -1
    outer loop
      vertex 29.55 0 0
      vertex 8.42705 5.73664 0
      vertex 9 7.5 0
    endloop
  endfacet
  facet normal 0 0 -1
    outer loop
      vertex 29.55 0 0
      vertex 6.92705 4.64683 0
      vertex 8.42705 5.73664 0
    endloop
  endfacet
  facet normal 0 0 -1
    outer loop
      vertex 0 0 0
      vertex 6.92705 4.64683 0
      vertex 29.55 0 0
    endloop
  endfacet
  facet normal -0 0 -1
    outer loop
      vertex 3.57295 5.73664 0
      vertex 0 0 0
      vertex 3 7.5 0
    endloop
  endfacet
  facet normal -0 0 -1
    outer loop
      vertex 5.07295 4.64683 0
      vertex 0 0 0
      vertex 3.57295 5.73664 0
    endloop
  endfacet
  facet normal -0 0 -1
    outer loop
      vertex 6.92705 4.64683 0
      vertex 0 0 0
      vertex 5.07295 4.64683 0
    endloop
  endfacet
  facet normal 0 0 -1
    outer loop
      vertex 8.42705 9.26336 0
      vertex 29.55 15 0
      vertex 9 7.5 0
    endloop
  endfacet
  facet normal 0 0 -1
    outer loop
      vertex 6.92705 10.3532 0
      vertex 29.55 15 0
      vertex 8.42705 9.26336 0
    endloop
  endfacet
  facet normal 0 0 -1
    outer loop
      vertex 0 15 0
      vertex 6.92705 10.3532 0
      vertex 5.07295 10.3532 0
    endloop
  endfacet
  facet normal 0 0 -1
    outer loop
      vertex 0 15 0
      vertex 3 7.5 0
      vertex 0 0 0
    endloop
  endfacet
  facet normal 0 0 -1
    outer loop
      vertex 6.92705 10.3532 0
      vertex 0 15 0
      vertex 29.55 15 0
    endloop
  endfacet
  facet normal 0 0 -1
    outer loop
      vertex 3.57295 9.26336 0
      vertex 0 15 0
      vertex 5.07295 10.3532 0
    endloop
  endfacet
  facet normal 0 0 -1
    outer loop
      vertex 3 7.5 0
      vertex 0 15 0
      vertex 3.57295 9.26336 0
    endloop
  endfacet
  facet normal 1 -0 0
    outer loop
      vertex 90 0 10
      vertex 90 15 0
      vertex 90 15 10
    endloop
  endfacet
  facet normal 1 0 0
    outer loop
      vertex 90 15 0
      vertex 90 0 10
      vertex 90 0 0
    endloop
  endfacet
  facet normal -1 0 0
    outer loop
      vertex 0 0 0
      vertex 0 15 10
      vertex 0 15 0
    endloop
  endfacet
  facet normal -1 -0 0
    outer loop
      vertex 0 15 10
      vertex 0 0 0
      vertex 0 0 10
    endloop
  endfacet
  facet normal 0 -1 0
    outer loop
      vertex 0 0 10
      vertex 0 0 0
      vertex 15 0 10
    endloop
  endfacet
  facet normal 0 -1 0
    outer loop
      vertex 43.385 0 30.3154
      vertex 22.9271 0 34.8532
      vertex 24.4271 0 33.7634
    endloop
  endfacet
  facet normal 0 -1 0
    outer loop
      vertex 22.9271 0 34.8532
      vertex 43.385 0 30.3154
      vertex 67.073 0 34.8532
    endloop
  endfacet
  facet normal 0 -1 0
    outer loop
      vertex 37.275 0 28.3301
      vertex 24.4271 0 33.7634
      vertex 25 0 32
    endloop
  endfacet
  facet normal 0 -1 0
    outer loop
      vertex 46.615 0 30.3154
      vertex 67.073 0 34.8532
      vertex 43.385 0 30.3154
    endloop
  endfacet
  facet normal 0 -1 0
    outer loop
      vertex 67.073 0 34.8532
      vertex 46.615 0 30.3154
      vertex 65.573 0 33.7634
    endloop
  endfacet
  facet normal 0 -1 0
    outer loop
      vertex 34.6619 0 26.4316
      vertex 25 0 32
      vertex 24.4271 0 30.2366
    endloop
  endfacet
  facet normal 0 -1 0
    outer loop
      vertex 24.4271 0 33.7634
      vertex 40.2257 0 29.6438
      vertex 43.385 0 30.3154
    endloop
  endfacet
  facet normal 0 -1 0
    outer loop
      vertex 30.8857 0 21.2341
      vertex 24.4271 0 30.2366
      vertex 22.9271 0 29.1468
    endloop
  endfacet
  facet normal 0 -1 0
    outer loop
      vertex 24.4271 0 33.7634
      vertex 37.275 0 28.3301
      vertex 40.2257 0 29.6438
    endloop
  endfacet
  facet normal 0 -1 0
    outer loop
      vertex 22.9271 0 34.8532
      vertex 15 0 40
      vertex 21.0729 0 34.8532
    endloop
  endfacet
  facet normal 0 -1 0
    outer loop
      vertex 15 0 40
      vertex 19.5729 0 33.7634
      vertex 21.0729 0 34.8532
    endloop
  endfacet
  facet normal 0 -1 0
    outer loop
      vertex 15 0 40
      vertex 19 0 32
      vertex 19.5729 0 33.7634
    endloop
  endfacet
  facet normal 0 -1 0
    outer loop
      vertex 15 0 10
      vertex 19 0 32
      vertex 15 0 40
    endloop
  endfacet
  facet normal 0 -1 0
    outer loop
      vertex 29.8876 0 18.1622
      vertex 22.9271 0 29.1468
      vertex 21.0729 0 29.1468
    endloop
  endfacet
  facet normal 0 -1 0
    outer loop
      vertex 25 0 32
      vertex 34.6619 0 26.4316
      vertex 37.275 0 28.3301
    endloop
  endfacet
  facet normal 0 -1 0
    outer loop
      vertex 24.4271 0 30.2366
      vertex 32.5007 0 24.0313
      vertex 34.6619 0 26.4316
    endloop
  endfacet
  facet normal 0 -1 0
    outer loop
      vertex 24.4271 0 30.2366
      vertex 30.8857 0 21.2341
      vertex 32.5007 0 24.0313
    endloop
  endfacet
  facet normal 0 -1 0
    outer loop
      vertex 15 0 10
      vertex 21.0729 0 29.1468
      vertex 19.5729 0 30.2366
    endloop
  endfacet
  facet normal 0 -1 0
    outer loop
      vertex 22.9271 0 29.1468
      vertex 29.8876 0 18.1622
      vertex 30.8857 0 21.2341
    endloop
  endfacet
  facet normal 0 -1 -0
    outer loop
      vertex 21.0729 0 29.1468
      vertex 15 0 10
      vertex 29.8876 0 18.1622
    endloop
  endfacet
  facet normal 0 -1 0
    outer loop
      vertex 29.8876 0 18.1622
      vertex 15 0 10
      vertex 29.6625 0 16.3541
    endloop
  endfacet
  facet normal 0 -1 -0
    outer loop
      vertex 19 0 32
      vertex 15 0 10
      vertex 19.5729 0 30.2366
    endloop
  endfacet
  facet normal 0 -1 0
    outer loop
      vertex 29.6625 0 16.3541
      vertex 15 0 10
      vertex 29.55 0 15.2833
    endloop
  endfacet
  facet normal 0 -1 0
    outer loop
      vertex 29.55 0 0
      vertex 15 0 10
      vertex 0 0 0
    endloop
  endfacet
  facet normal 0 -1 0
    outer loop
      vertex 15 0 10
      vertex 29.55 0 0
      vertex 29.55 0 15.2833
    endloop
  endfacet
  facet normal 0 -1 0
    outer loop
      vertex 15 0 40
      vertex 22.9271 0 34.8532
      vertex 75 0 40
    endloop
  endfacet
  facet normal 0 -1 0
    outer loop
      vertex 67.073 0 34.8532
      vertex 75 0 40
      vertex 22.9271 0 34.8532
    endloop
  endfacet
  facet normal 0 -1 0
    outer loop
      vertex 68.927 0 34.8532
      vertex 75 0 40
      vertex 67.073 0 34.8532
    endloop
  endfacet
  facet normal 0 -1 0
    outer loop
      vertex 70.427 0 33.7634
      vertex 75 0 40
      vertex 68.927 0 34.8532
    endloop
  endfacet
  facet normal 0 -1 0
    outer loop
      vertex 71 0 32
      vertex 75 0 40
      vertex 70.427 0 33.7634
    endloop
  endfacet
  facet normal 0 -1 0
    outer loop
      vertex 75 0 10
      vertex 71 0 32
      vertex 70.427 0 30.2366
    endloop
  endfacet
  facet normal 0 -1 0
    outer loop
      vertex 59.1143 0 21.2341
      vertex 65.573 0 30.2366
      vertex 57.4993 0 24.0313
    endloop
  endfacet
  facet normal 0 -1 -0
    outer loop
      vertex 65.573 0 30.2366
      vertex 59.1143 0 21.2341
      vertex 67.073 0 29.1468
    endloop
  endfacet
  facet normal 0 -1 0
    outer loop
      vertex 60.1124 0 18.1622
      vertex 67.073 0 29.1468
      vertex 59.1143 0 21.2341
    endloop
  endfacet
  facet normal 0 -1 -0
    outer loop
      vertex 67.073 0 29.1468
      vertex 60.1124 0 18.1622
      vertex 68.927 0 29.1468
    endloop
  endfacet
  facet normal 0 -1 0
    outer loop
      vertex 75 0 10
      vertex 68.927 0 29.1468
      vertex 60.1124 0 18.1622
    endloop
  endfacet
  facet normal 0 -1 0
    outer loop
      vertex 75 0 10
      vertex 60.1124 0 18.1622
      vertex 60.3375 0 16.3541
    endloop
  endfacet
  facet normal 0 -1 0
    outer loop
      vertex 75 0 10
      vertex 60.3375 0 16.3541
      vertex 60.45 0 15.2833
    endloop
  endfacet
  facet normal 0 -1 0
    outer loop
      vertex 71 0 32
      vertex 75 0 10
      vertex 75 0 40
    endloop
  endfacet
  facet normal 0 -1 0
    outer loop
      vertex 68.927 0 29.1468
      vertex 75 0 10
      vertex 70.427 0 30.2366
    endloop
  endfacet
  facet normal 0 -1 0
    outer loop
      vertex 60.45 0 0
      vertex 75 0 10
      vertex 60.45 0 15.2833
    endloop
  endfacet
  facet normal 0 -1 0
    outer loop
      vertex 90 0 0
      vertex 75 0 10
      vertex 60.45 0 0
    endloop
  endfacet
  facet normal 0 -1 0
    outer loop
      vertex 75 0 10
      vertex 90 0 0
      vertex 90 0 10
    endloop
  endfacet
  facet normal 0 -1 0
    outer loop
      vertex 49.7743 0 29.6438
      vertex 65.573 0 33.7634
      vertex 46.615 0 30.3154
    endloop
  endfacet
  facet normal 0 -1 0
    outer loop
      vertex 52.725 0 28.3301
      vertex 65.573 0 33.7634
      vertex 49.7743 0 29.6438
    endloop
  endfacet
  facet normal 0 -1 0
    outer loop
      vertex 65.573 0 33.7634
      vertex 52.725 0 28.3301
      vertex 65 0 32
    endloop
  endfacet
  facet normal 0 -1 0
    outer loop
      vertex 55.3381 0 26.4316
      vertex 65 0 32
      vertex 52.725 0 28.3301
    endloop
  endfacet
  facet normal 0 -1 0
    outer loop
      vertex 57.4993 0 24.0313
      vertex 65.573 0 30.2366
      vertex 55.3381 0 26.4316
    endloop
  endfacet
  facet normal 0 -1 -0
    outer loop
      vertex 65 0 32
      vertex 55.3381 0 26.4316
      vertex 65.573 0 30.2366
    endloop
  endfacet
  facet normal 0 1 0
    outer loop
      vertex 90 15 10
      vertex 90 15 0
      vertex 75 15 10
    endloop
  endfacet
  facet normal 0 1 0
    outer loop
      vertex 46.615 15 30.3154
      vertex 67.073 15 34.8532
      vertex 65.573 15 33.7634
    endloop
  endfacet
  facet normal 0 1 0
    outer loop
      vertex 67.073 15 34.8532
      vertex 46.615 15 30.3154
      vertex 22.9271 15 34.8532
    endloop
  endfacet
  facet normal 0 1 0
    outer loop
      vertex 52.725 15 28.3301
      vertex 65.573 15 33.7634
      vertex 65 15 32
    endloop
  endfacet
  facet normal 0 1 -0
    outer loop
      vertex 43.385 15 30.3154
      vertex 22.9271 15 34.8532
      vertex 46.615 15 30.3154
    endloop
  endfacet
  facet normal 0 1 0
    outer loop
      vertex 22.9271 15 34.8532
      vertex 43.385 15 30.3154
      vertex 24.4271 15 33.7634
    endloop
  endfacet
  facet normal 0 1 0
    outer loop
      vertex 55.3381 15 26.4316
      vertex 65 15 32
      vertex 65.573 15 30.2366
    endloop
  endfacet
  facet normal 0 1 0
    outer loop
      vertex 65.573 15 33.7634
      vertex 49.7743 15 29.6438
      vertex 46.615 15 30.3154
    endloop
  endfacet
  facet normal 0 1 0
    outer loop
      vertex 59.1143 15 21.2341
      vertex 65.573 15 30.2366
      vertex 67.073 15 29.1468
    endloop
  endfacet
  facet normal 0 1 0
    outer loop
      vertex 65.573 15 33.7634
      vertex 52.725 15 28.3301
      vertex 49.7743 15 29.6438
    endloop
  endfacet
  facet normal 0 1 0
    outer loop
      vertex 67.073 15 34.8532
      vertex 75 15 40
      vertex 68.927 15 34.8532
    endloop
  endfacet
  facet normal 0 1 0
    outer loop
      vertex 75 15 40
      vertex 70.427 15 33.7634
      vertex 68.927 15 34.8532
    endloop
  endfacet
  facet normal 0 1 0
    outer loop
      vertex 75 15 40
      vertex 71 15 32
      vertex 70.427 15 33.7634
    endloop
  endfacet
  facet normal 0 1 -0
    outer loop
      vertex 75 15 10
      vertex 71 15 32
      vertex 75 15 40
    endloop
  endfacet
  facet normal 0 1 0
    outer loop
      vertex 60.1124 15 18.1622
      vertex 67.073 15 29.1468
      vertex 68.927 15 29.1468
    endloop
  endfacet
  facet normal 0 1 0
    outer loop
      vertex 65 15 32
      vertex 55.3381 15 26.4316
      vertex 52.725 15 28.3301
    endloop
  endfacet
  facet normal 0 1 0
    outer loop
      vertex 65.573 15 30.2366
      vertex 57.4993 15 24.0313
      vertex 55.3381 15 26.4316
    endloop
  endfacet
  facet normal 0 1 0
    outer loop
      vertex 65.573 15 30.2366
      vertex 59.1143 15 21.2341
      vertex 57.4993 15 24.0313
    endloop
  endfacet
  facet normal 0 1 0
    outer loop
      vertex 75 15 10
      vertex 68.927 15 29.1468
      vertex 70.427 15 30.2366
    endloop
  endfacet
  facet normal 0 1 0
    outer loop
      vertex 67.073 15 29.1468
      vertex 60.1124 15 18.1622
      vertex 59.1143 15 21.2341
    endloop
  endfacet
  facet normal 0 1 0
    outer loop
      vertex 68.927 15 29.1468
      vertex 75 15 10
      vertex 60.1124 15 18.1622
    endloop
  endfacet
  facet normal 0 1 0
    outer loop
      vertex 71 15 32
      vertex 75 15 10
      vertex 70.427 15 30.2366
    endloop
  endfacet
  facet normal 0 1 0
    outer loop
      vertex 60.1124 15 18.1622
      vertex 75 15 10
      vertex 60.45 15 15.45
    endloop
  endfacet
  facet normal 0 1 0
    outer loop
      vertex 60.45 15 0
      vertex 75 15 10
      vertex 90 15 0
    endloop
  endfacet
  facet normal 0 1 0
    outer loop
      vertex 75 15 10
      vertex 60.45 15 0
      vertex 60.45 15 15.45
    endloop
  endfacet
  facet normal 0 1 0
    outer loop
      vertex 75 15 40
      vertex 67.073 15 34.8532
      vertex 15 15 40
    endloop
  endfacet
  facet normal 0 1 -0
    outer loop
      vertex 22.9271 15 34.8532
      vertex 15 15 40
      vertex 67.073 15 34.8532
    endloop
  endfacet
  facet normal 0 1 -0
    outer loop
      vertex 21.0729 15 34.8532
      vertex 15 15 40
      vertex 22.9271 15 34.8532
    endloop
  endfacet
  facet normal 0 1 -0
    outer loop
      vertex 19.5729 15 33.7634
      vertex 15 15 40
      vertex 21.0729 15 34.8532
    endloop
  endfacet
  facet normal 0 1 -0
    outer loop
      vertex 19 15 32
      vertex 15 15 40
      vertex 19.5729 15 33.7634
    endloop
  endfacet
  facet normal 0 1 0
    outer loop
      vertex 15 15 10
      vertex 19 15 32
      vertex 19.5729 15 30.2366
    endloop
  endfacet
  facet normal 0 1 -0
    outer loop
      vertex 30.8857 15 21.2341
      vertex 24.4271 15 30.2366
      vertex 32.5007 15 24.0313
    endloop
  endfacet
  facet normal 0 1 0
    outer loop
      vertex 24.4271 15 30.2366
      vertex 30.8857 15 21.2341
      vertex 22.9271 15 29.1468
    endloop
  endfacet
  facet normal 0 1 -0
    outer loop
      vertex 29.8876 15 18.1622
      vertex 22.9271 15 29.1468
      vertex 30.8857 15 21.2341
    endloop
  endfacet
  facet normal 0 1 0
    outer loop
      vertex 22.9271 15 29.1468
      vertex 29.8876 15 18.1622
      vertex 21.0729 15 29.1468
    endloop
  endfacet
  facet normal 0 1 0
    outer loop
      vertex 15 15 10
      vertex 21.0729 15 29.1468
      vertex 29.8876 15 18.1622
    endloop
  endfacet
  facet normal 0 1 0
    outer loop
      vertex 15 15 10
      vertex 29.8876 15 18.1622
      vertex 29.55 15 15.45
    endloop
  endfacet
  facet normal 0 1 0
    outer loop
      vertex 19 15 32
      vertex 15 15 10
      vertex 15 15 40
    endloop
  endfacet
  facet normal 0 1 0
    outer loop
      vertex 21.0729 15 29.1468
      vertex 15 15 10
      vertex 19.5729 15 30.2366
    endloop
  endfacet
  facet normal 0 1 -0
    outer loop
      vertex 29.55 15 0
      vertex 15 15 10
      vertex 29.55 15 15.45
    endloop
  endfacet
  facet normal 0 1 0
    outer loop
      vertex 0 15 0
      vertex 15 15 10
      vertex 29.55 15 0
    endloop
  endfacet
  facet normal 0 1 0
    outer loop
      vertex 15 15 10
      vertex 0 15 0
      vertex 0 15 10
    endloop
  endfacet
  facet normal 0 1 -0
    outer loop
      vertex 40.2257 15 29.6438
      vertex 24.4271 15 33.7634
      vertex 43.385 15 30.3154
    endloop
  endfacet
  facet normal 0 1 -0
    outer loop
      vertex 37.275 15 28.3301
      vertex 24.4271 15 33.7634
      vertex 40.2257 15 29.6438
    endloop
  endfacet
  facet normal 0 1 0
    outer loop
      vertex 24.4271 15 33.7634
      vertex 37.275 15 28.3301
      vertex 25 15 32
    endloop
  endfacet
  facet normal 0 1 -0
    outer loop
      vertex 34.6619 15 26.4316
      vertex 25 15 32
      vertex 37.275 15 28.3301
    endloop
  endfacet
  facet normal 0 1 -0
    outer loop
      vertex 32.5007 15 24.0313
      vertex 24.4271 15 30.2366
      vertex 34.6619 15 26.4316
    endloop
  endfacet
  facet normal 0 1 0
    outer loop
      vertex 25 15 32
      vertex 34.6619 15 26.4316
      vertex 24.4271 15 30.2366
    endloop
  endfacet
  facet normal -0 0 1
    outer loop
      vertex 15 15 40
      vertex 75 0 40
      vertex 75 15 40
    endloop
  endfacet
  facet normal 0 0 1
    outer loop
      vertex 75 0 40
      vertex 15 15 40
      vertex 15 0 40
    endloop
  endfacet
  facet normal 0 0 1
    outer loop
      vertex 15 15 10
      vertex 9 7.5 10
      vertex 15 0 10
    endloop
  endfacet
  facet normal 0 0 1
    outer loop
      vertex 15 15 10
      vertex 8.42705 9.26336 10
      vertex 9 7.5 10
    endloop
  endfacet
  facet normal 0 0 1
    outer loop
      vertex 15 15 10
      vertex 6.92705 10.3532 10
      vertex 8.42705 9.26336 10
    endloop
  endfacet
  facet normal -0 0 1
    outer loop
      vertex 0 15 10
      vertex 6.92705 10.3532 10
      vertex 15 15 10
    endloop
  endfacet
  facet normal 0 0 1
    outer loop
      vertex 3.57295 9.26336 10
      vertex 0 15 10
      vertex 3 7.5 10
    endloop
  endfacet
  facet normal 0 0 1
    outer loop
      vertex 5.07295 10.3532 10
      vertex 0 15 10
      vertex 3.57295 9.26336 10
    endloop
  endfacet
  facet normal 0 0 1
    outer loop
      vertex 6.92705 10.3532 10
      vertex 0 15 10
      vertex 5.07295 10.3532 10
    endloop
  endfacet
  facet normal -0 0 1
    outer loop
      vertex 8.42705 5.73664 10
      vertex 15 0 10
      vertex 9 7.5 10
    endloop
  endfacet
  facet normal -0 0 1
    outer loop
      vertex 6.92705 4.64683 10
      vertex 15 0 10
      vertex 8.42705 5.73664 10
    endloop
  endfacet
  facet normal 0 0 1
    outer loop
      vertex 0 0 10
      vertex 6.92705 4.64683 10
      vertex 5.07295 4.64683 10
    endloop
  endfacet
  facet normal 0 0 1
    outer loop
      vertex 0 0 10
      vertex 3 7.5 10
      vertex 0 15 10
    endloop
  endfacet
  facet normal 0 0 1
    outer loop
      vertex 6.92705 4.64683 10
      vertex 0 0 10
      vertex 15 0 10
    endloop
  endfacet
  facet normal 0 0 1
    outer loop
      vertex 3.57295 5.73664 10
      vertex 0 0 10
      vertex 5.07295 4.64683 10
    endloop
  endfacet
  facet normal 0 0 1
    outer loop
      vertex 3 7.5 10
      vertex 0 0 10
      vertex 3.57295 5.73664 10
    endloop
  endfacet
  facet normal -1 0 0
    outer loop
      vertex 15 0 10
      vertex 15 15 40
      vertex 15 15 10
    endloop
  endfacet
  facet normal -1 -0 0
    outer loop
      vertex 15 15 40
      vertex 15 0 10
      vertex 15 0 40
    endloop
  endfacet
  facet normal 0 0 1
    outer loop
      vertex 90 15 10
      vertex 87 7.5 10
      vertex 90 0 10
    endloop
  endfacet
  facet normal 0 0 1
    outer loop
      vertex 90 15 10
      vertex 86.427 9.26336 10
      vertex 87 7.5 10
    endloop
  endfacet
  facet normal 0 0 1
    outer loop
      vertex 90 15 10
      vertex 84.927 10.3532 10
      vertex 86.427 9.26336 10
    endloop
  endfacet
  facet normal 0 0 1
    outer loop
      vertex 90 15 10
      vertex 83.073 10.3532 10
      vertex 84.927 10.3532 10
    endloop
  endfacet
  facet normal 0 0 1
    outer loop
      vertex 81.573 9.26336 10
      vertex 75 15 10
      vertex 81 7.5 10
    endloop
  endfacet
  facet normal 0 0 1
    outer loop
      vertex 83.073 10.3532 10
      vertex 75 15 10
      vertex 81.573 9.26336 10
    endloop
  endfacet
  facet normal -0 0 1
    outer loop
      vertex 75 15 10
      vertex 83.073 10.3532 10
      vertex 90 15 10
    endloop
  endfacet
  facet normal -0 0 1
    outer loop
      vertex 86.427 5.73664 10
      vertex 90 0 10
      vertex 87 7.5 10
    endloop
  endfacet
  facet normal -0 0 1
    outer loop
      vertex 84.927 4.64683 10
      vertex 90 0 10
      vertex 86.427 5.73664 10
    endloop
  endfacet
  facet normal -0 0 1
    outer loop
      vertex 83.073 4.64683 10
      vertex 90 0 10
      vertex 84.927 4.64683 10
    endloop
  endfacet
  facet normal 0 0 1
    outer loop
      vertex 75 0 10
      vertex 81 7.5 10
      vertex 75 15 10
    endloop
  endfacet
  facet normal 0 0 1
    outer loop
      vertex 83.073 4.64683 10
      vertex 75 0 10
      vertex 90 0 10
    endloop
  endfacet
  facet normal 0 0 1
    outer loop
      vertex 81.573 5.73664 10
      vertex 75 0 10
      vertex 83.073 4.64683 10
    endloop
  endfacet
  facet normal 0 0 1
    outer loop
      vertex 81 7.5 10
      vertex 75 0 10
      vertex 81.573 5.73664 10
    endloop
  endfacet
  facet normal 1 -0 0
    outer loop
      vertex 75 0 40
      vertex 75 15 10
      vertex 75 15 40
    endloop
  endfacet
  facet normal 1 0 0
    outer loop
      vertex 75 15 10
      vertex 75 0 40
      vertex 75 0 10
    endloop
  endfacet
  facet normal -0.951056 -0.309017 0
    outer loop
      vertex 9 7.5 0
      vertex 8.42705 9.26336 10
      vertex 8.42705 9.26336 0
    endloop
  endfacet
  facet normal -0.951056 -0.309017 0
    outer loop
      vertex 8.42705 9.26336 10
      vertex 9 7.5 0
      vertex 9 7.5 10
    endloop
  endfacet
  facet normal 0 -1 0
    outer loop
      vertex 5.07295 10.3532 0
      vertex 6.92705 10.3532 10
      vertex 5.07295 10.3532 10
    endloop
  endfacet
  facet normal 0 -1 -0
    outer loop
      vertex 6.92705 10.3532 10
      vertex 5.07295 10.3532 0
      vertex 6.92705 10.3532 0
    endloop
  endfacet
  facet normal -0.587785 -0.809017 0
    outer loop
      vertex 6.92705 10.3532 0
      vertex 8.42705 9.26336 10
      vertex 6.92705 10.3532 10
    endloop
  endfacet
  facet normal -0.587785 -0.809017 -0
    outer loop
      vertex 8.42705 9.26336 10
      vertex 6.92705 10.3532 0
      vertex 8.42705 9.26336 0
    endloop
  endfacet
  facet normal 0.951057 0.309017 0
    outer loop
      vertex 3.57295 5.73664 10
      vertex 3 7.5 0
      vertex 3 7.5 10
    endloop
  endfacet
  facet normal 0.951057 0.309017 0
    outer loop
      vertex 3 7.5 0
      vertex 3.57295 5.73664 10
      vertex 3.57295 5.73664 0
    endloop
  endfacet
  facet normal 0.587785 -0.809017 0
    outer loop
      vertex 3.57295 9.26336 0
      vertex 5.07295 10.3532 10
      vertex 3.57295 9.26336 10
    endloop
  endfacet
  facet normal 0.587785 -0.809017 0
    outer loop
      vertex 5.07295 10.3532 10
      vertex 3.57295 9.26336 0
      vertex 5.07295 10.3532 0
    endloop
  endfacet
  facet normal -0.951056 0.309017 0
    outer loop
      vertex 8.42705 5.73664 0
      vertex 9 7.5 10
      vertex 9 7.5 0
    endloop
  endfacet
  facet normal -0.951056 0.309017 0
    outer loop
      vertex 9 7.5 10
      vertex 8.42705 5.73664 0
      vertex 8.42705 5.73664 10
    endloop
  endfacet
  facet normal -0.587785 0.809017 0
    outer loop
      vertex 8.42705 5.73664 0
      vertex 6.92705 4.64683 10
      vertex 8.42705 5.73664 10
    endloop
  endfacet
  facet normal -0.587785 0.809017 0
    outer loop
      vertex 6.92705 4.64683 10
      vertex 8.42705 5.73664 0
      vertex 6.92705 4.64683 0
    endloop
  endfacet
  facet normal 0.587785 0.809017 -0
    outer loop
      vertex 5.07295 4.64683 0
      vertex 3.57295 5.73664 10
      vertex 5.07295 4.64683 10
    endloop
  endfacet
  facet normal 0.587785 0.809017 0
    outer loop
      vertex 3.57295 5.73664 10
      vertex 5.07295 4.64683 0
      vertex 3.57295 5.73664 0
    endloop
  endfacet
  facet normal 0.951057 -0.309017 0
    outer loop
      vertex 3 7.5 10
      vertex 3.57295 9.26336 0
      vertex 3.57295 9.26336 10
    endloop
  endfacet
  facet normal 0.951057 -0.309017 0
    outer loop
      vertex 3.57295 9.26336 0
      vertex 3 7.5 10
      vertex 3 7.5 0
    endloop
  endfacet
  facet normal 0 1 -0
    outer loop
      vertex 6.92705 4.64683 0
      vertex 5.07295 4.64683 10
      vertex 6.92705 4.64683 10
    endloop
  endfacet
  facet normal 0 1 0
    outer loop
      vertex 5.07295 4.64683 10
      vertex 6.92705 4.64683 0
      vertex 5.07295 4.64683 0
    endloop
  endfacet
  facet normal -0.951056 -0.309019 0
    outer loop
      vertex 87 7.5 0
      vertex 86.427 9.26336 10
      vertex 86.427 9.26336 0
    endloop
  endfacet
  facet normal -0.951056 -0.309019 0
    outer loop
      vertex 86.427 9.26336 10
      vertex 87 7.5 0
      vertex 87 7.5 10
    endloop
  endfacet
  facet normal 0 -1 0
    outer loop
      vertex 83.073 10.3532 0
      vertex 84.927 10.3532 10
      vertex 83.073 10.3532 10
    endloop
  endfacet
  facet normal 0 -1 -0
    outer loop
      vertex 84.927 10.3532 10
      vertex 83.073 10.3532 0
      vertex 84.927 10.3532 0
    endloop
  endfacet
  facet normal -0.587785 -0.809017 0
    outer loop
      vertex 84.927 10.3532 0
      vertex 86.427 9.26336 10
      vertex 84.927 10.3532 10
    endloop
  endfacet
  facet normal -0.587785 -0.809017 -0
    outer loop
      vertex 86.427 9.26336 10
      vertex 84.927 10.3532 0
      vertex 86.427 9.26336 0
    endloop
  endfacet
  facet normal 0.951056 0.309019 0
    outer loop
      vertex 81.573 5.73664 10
      vertex 81 7.5 0
      vertex 81 7.5 10
    endloop
  endfacet
  facet normal 0.951056 0.309019 0
    outer loop
      vertex 81 7.5 0
      vertex 81.573 5.73664 10
      vertex 81.573 5.73664 0
    endloop
  endfacet
  facet normal 0.587785 -0.809017 0
    outer loop
      vertex 81.573 9.26336 0
      vertex 83.073 10.3532 10
      vertex 81.573 9.26336 10
    endloop
  endfacet
  facet normal 0.587785 -0.809017 0
    outer loop
      vertex 83.073 10.3532 10
      vertex 81.573 9.26336 0
      vertex 83.073 10.3532 0
    endloop
  endfacet
  facet normal -0.951056 0.309019 0
    outer loop
      vertex 86.427 5.73664 0
      vertex 87 7.5 10
      vertex 87 7.5 0
    endloop
  endfacet
  facet normal -0.951056 0.309019 0
    outer loop
      vertex 87 7.5 10
      vertex 86.427 5.73664 0
      vertex 86.427 5.73664 10
    endloop
  endfacet
  facet normal -0.587785 0.809017 0
    outer loop
      vertex 86.427 5.73664 0
      vertex 84.927 4.64683 10
      vertex 86.427 5.73664 10
    endloop
  endfacet
  facet normal -0.587785 0.809017 0
    outer loop
      vertex 84.927 4.64683 10
      vertex 86.427 5.73664 0
      vertex 84.927 4.64683 0
    endloop
  endfacet
  facet normal 0.587785 0.809017 -0
    outer loop
      vertex 83.073 4.64683 0
      vertex 81.573 5.73664 10
      vertex 83.073 4.64683 10
    endloop
  endfacet
  facet normal 0.587785 0.809017 0
    outer loop
      vertex 81.573 5.73664 10
      vertex 83.073 4.64683 0
      vertex 81.573 5.73664 0
    endloop
  endfacet
  facet normal 0.951056 -0.309019 0
    outer loop
      vertex 81 7.5 10
      vertex 81.573 9.26336 0
      vertex 81.573 9.26336 10
    endloop
  endfacet
  facet normal 0.951056 -0.309019 0
    outer loop
      vertex 81.573 9.26336 0
      vertex 81 7.5 10
      vertex 81 7.5 0
    endloop
  endfacet
  facet normal 0 1 -0
    outer loop
      vertex 84.927 4.64683 0
      vertex 83.073 4.64683 10
      vertex 84.927 4.64683 10
    endloop
  endfacet
  facet normal 0 1 0
    outer loop
      vertex 83.073 4.64683 10
      vertex 84.927 4.64683 0
      vertex 83.073 4.64683 0
    endloop
  endfacet
  facet normal -0.951057 0 -0.309017
    outer loop
      vertex 25 0 32
      vertex 24.4271 15 33.7634
      vertex 25 15 32
    endloop
  endfacet
  facet normal -0.951057 -0 -0.309017
    outer loop
      vertex 24.4271 15 33.7634
      vertex 25 0 32
      vertex 24.4271 0 33.7634
    endloop
  endfacet
  facet normal -0.587785 0 -0.809017
    outer loop
      vertex 22.9271 0 34.8532
      vertex 24.4271 15 33.7634
      vertex 24.4271 0 33.7634
    endloop
  endfacet
  facet normal -0.587785 0 -0.809017
    outer loop
      vertex 24.4271 15 33.7634
      vertex 22.9271 0 34.8532
      vertex 22.9271 15 34.8532
    endloop
  endfacet
  facet normal 0 0 -1
    outer loop
      vertex 21.0729 0 34.8532
      vertex 22.9271 15 34.8532
      vertex 22.9271 0 34.8532
    endloop
  endfacet
  facet normal -0 0 -1
    outer loop
      vertex 22.9271 15 34.8532
      vertex 21.0729 0 34.8532
      vertex 21.0729 15 34.8532
    endloop
  endfacet
  facet normal 0.587786 0 0.809017
    outer loop
      vertex 19.5729 15 30.2366
      vertex 21.0729 0 29.1468
      vertex 21.0729 15 29.1468
    endloop
  endfacet
  facet normal 0.587786 0 0.809017
    outer loop
      vertex 21.0729 0 29.1468
      vertex 19.5729 15 30.2366
      vertex 19.5729 0 30.2366
    endloop
  endfacet
  facet normal 0.587785 0 -0.809017
    outer loop
      vertex 19.5729 0 33.7634
      vertex 21.0729 15 34.8532
      vertex 21.0729 0 34.8532
    endloop
  endfacet
  facet normal 0.587785 0 -0.809017
    outer loop
      vertex 21.0729 15 34.8532
      vertex 19.5729 0 33.7634
      vertex 19.5729 15 33.7634
    endloop
  endfacet
  facet normal -0 0 1
    outer loop
      vertex 21.0729 15 29.1468
      vertex 22.9271 0 29.1468
      vertex 22.9271 15 29.1468
    endloop
  endfacet
  facet normal 0 0 1
    outer loop
      vertex 22.9271 0 29.1468
      vertex 21.0729 15 29.1468
      vertex 21.0729 0 29.1468
    endloop
  endfacet
  facet normal 0.951057 0 -0.309017
    outer loop
      vertex 19.5729 0 33.7634
      vertex 19 15 32
      vertex 19.5729 15 33.7634
    endloop
  endfacet
  facet normal 0.951057 0 -0.309017
    outer loop
      vertex 19 15 32
      vertex 19.5729 0 33.7634
      vertex 19 0 32
    endloop
  endfacet
  facet normal 0.951057 -0 0.309017
    outer loop
      vertex 19 0 32
      vertex 19.5729 15 30.2366
      vertex 19 15 32
    endloop
  endfacet
  facet normal 0.951057 0 0.309017
    outer loop
      vertex 19.5729 15 30.2366
      vertex 19 0 32
      vertex 19.5729 0 30.2366
    endloop
  endfacet
  facet normal -0.587786 0 0.809017
    outer loop
      vertex 22.9271 15 29.1468
      vertex 24.4271 0 30.2366
      vertex 24.4271 15 30.2366
    endloop
  endfacet
  facet normal -0.587786 0 0.809017
    outer loop
      vertex 24.4271 0 30.2366
      vertex 22.9271 15 29.1468
      vertex 22.9271 0 29.1468
    endloop
  endfacet
  facet normal -0.951057 0 0.309017
    outer loop
      vertex 24.4271 0 30.2366
      vertex 25 15 32
      vertex 24.4271 15 30.2366
    endloop
  endfacet
  facet normal -0.951057 0 0.309017
    outer loop
      vertex 25 15 32
      vertex 24.4271 0 30.2366
      vertex 25 0 32
    endloop
  endfacet
  facet normal -0.951056 0 -0.309019
    outer loop
      vertex 71 0 32
      vertex 70.427 15 33.7634
      vertex 71 15 32
    endloop
  endfacet
  facet normal -0.951056 -0 -0.309019
    outer loop
      vertex 70.427 15 33.7634
      vertex 71 0 32
      vertex 70.427 0 33.7634
    endloop
  endfacet
  facet normal -0.587785 0 -0.809017
    outer loop
      vertex 68.927 0 34.8532
      vertex 70.427 15 33.7634
      vertex 70.427 0 33.7634
    endloop
  endfacet
  facet normal -0.587785 0 -0.809017
    outer loop
      vertex 70.427 15 33.7634
      vertex 68.927 0 34.8532
      vertex 68.927 15 34.8532
    endloop
  endfacet
  facet normal 0 0 -1
    outer loop
      vertex 67.073 0 34.8532
      vertex 68.927 15 34.8532
      vertex 68.927 0 34.8532
    endloop
  endfacet
  facet normal -0 0 -1
    outer loop
      vertex 68.927 15 34.8532
      vertex 67.073 0 34.8532
      vertex 67.073 15 34.8532
    endloop
  endfacet
  facet normal 0.587786 0 0.809017
    outer loop
      vertex 65.573 15 30.2366
      vertex 67.073 0 29.1468
      vertex 67.073 15 29.1468
    endloop
  endfacet
  facet normal 0.587786 0 0.809017
    outer loop
      vertex 67.073 0 29.1468
      vertex 65.573 15 30.2366
      vertex 65.573 0 30.2366
    endloop
  endfacet
  facet normal 0.587785 0 -0.809017
    outer loop
      vertex 65.573 0 33.7634
      vertex 67.073 15 34.8532
      vertex 67.073 0 34.8532
    endloop
  endfacet
  facet normal 0.587785 0 -0.809017
    outer loop
      vertex 67.073 15 34.8532
      vertex 65.573 0 33.7634
      vertex 65.573 15 33.7634
    endloop
  endfacet
  facet normal -0 0 1
    outer loop
      vertex 67.073 15 29.1468
      vertex 68.927 0 29.1468
      vertex 68.927 15 29.1468
    endloop
  endfacet
  facet normal 0 0 1
    outer loop
      vertex 68.927 0 29.1468
      vertex 67.073 15 29.1468
      vertex 67.073 0 29.1468
    endloop
  endfacet
  facet normal 0.951056 0 -0.309019
    outer loop
      vertex 65.573 0 33.7634
      vertex 65 15 32
      vertex 65.573 15 33.7634
    endloop
  endfacet
  facet normal 0.951056 0 -0.309019
    outer loop
      vertex 65 15 32
      vertex 65.573 0 33.7634
      vertex 65 0 32
    endloop
  endfacet
  facet normal 0.951056 -0 0.309019
    outer loop
      vertex 65 0 32
      vertex 65.573 15 30.2366
      vertex 65 15 32
    endloop
  endfacet
  facet normal 0.951056 0 0.309019
    outer loop
      vertex 65.573 15 30.2366
      vertex 65 0 32
      vertex 65.573 0 30.2366
    endloop
  endfacet
  facet normal -0.587786 0 0.809017
    outer loop
      vertex 68.927 15 29.1468
      vertex 70.427 0 30.2366
      vertex 70.427 15 30.2366
    endloop
  endfacet
  facet normal -0.587786 0 0.809017
    outer loop
      vertex 70.427 0 30.2366
      vertex 68.927 15 29.1468
      vertex 68.927 0 29.1468
    endloop
  endfacet
  facet normal -0.951056 0 0.309019
    outer loop
      vertex 70.427 0 30.2366
      vertex 71 15 32
      vertex 70.427 15 30.2366
    endloop
  endfacet
  facet normal -0.951056 0 0.309019
    outer loop
      vertex 71 15 32
      vertex 70.427 0 30.2366
      vertex 71 0 32
    endloop
  endfacet
  facet normal -0.992341 8.41218e-008 -0.123527
    outer loop
      vertex 60.3375 0 16.3541
      vertex 60.1124 15 18.1622
      vertex 60.45 15 15.45
    endloop
  endfacet
  facet normal -0.992341 -0 -0.123526
    outer loop
      vertex 60.1124 15 18.1622
      vertex 60.3375 0 16.3541
      vertex 60.1124 0 18.1622
    endloop
  endfacet
  facet normal 0.743145 0 -0.669131
    outer loop
      vertex 34.6619 0 26.4316
      vertex 32.5007 15 24.0313
      vertex 34.6619 15 26.4316
    endloop
  endfacet
  facet normal 0.743145 0 -0.669131
    outer loop
      vertex 32.5007 15 24.0313
      vertex 34.6619 0 26.4316
      vertex 32.5007 0 24.0313
    endloop
  endfacet
  facet normal -0.951056 0 -0.309017
    outer loop
      vertex 60.1124 0 18.1622
      vertex 59.1143 15 21.2341
      vertex 60.1124 15 18.1622
    endloop
  endfacet
  facet normal -0.951056 -0 -0.309017
    outer loop
      vertex 59.1143 15 21.2341
      vertex 60.1124 0 18.1622
      vertex 59.1143 0 21.2341
    endloop
  endfacet
  facet normal 1 -0 0
    outer loop
      vertex 29.55 0 15.2833
      vertex 29.55 15 0
      vertex 29.55 15 15.45
    endloop
  endfacet
  facet normal 1 0 0
    outer loop
      vertex 29.55 15 0
      vertex 29.55 0 15.2833
      vertex 29.55 0 0
    endloop
  endfacet
  facet normal 0.406736 0 -0.913546
    outer loop
      vertex 37.275 0 28.3301
      vertex 40.2257 15 29.6438
      vertex 40.2257 0 29.6438
    endloop
  endfacet
  facet normal 0.406736 0 -0.913546
    outer loop
      vertex 40.2257 15 29.6438
      vertex 37.275 0 28.3301
      vertex 37.275 15 28.3301
    endloop
  endfacet
  facet normal 0.994521 0.00116142 -0.104528
    outer loop
      vertex 29.55 15 15.45
      vertex 29.6625 0 16.3541
      vertex 29.55 0 15.2833
    endloop
  endfacet
  facet normal 0.992341 0 -0.123527
    outer loop
      vertex 29.6625 0 16.3541
      vertex 29.8876 15 18.1622
      vertex 29.8876 0 18.1622
    endloop
  endfacet
  facet normal 0.992341 -4.20609e-008 -0.123527
    outer loop
      vertex 29.8876 15 18.1622
      vertex 29.6625 0 16.3541
      vertex 29.55 15 15.45
    endloop
  endfacet
  facet normal -0.866025 0 -0.5
    outer loop
      vertex 59.1143 0 21.2341
      vertex 57.4993 15 24.0313
      vertex 59.1143 15 21.2341
    endloop
  endfacet
  facet normal -0.866025 -0 -0.5
    outer loop
      vertex 57.4993 15 24.0313
      vertex 59.1143 0 21.2341
      vertex 57.4993 0 24.0313
    endloop
  endfacet
  facet normal -0.207912 0 -0.978148
    outer loop
      vertex 46.615 0 30.3154
      vertex 49.7743 15 29.6438
      vertex 49.7743 0 29.6438
    endloop
  endfacet
  facet normal -0.207912 0 -0.978148
    outer loop
      vertex 49.7743 15 29.6438
      vertex 46.615 0 30.3154
      vertex 46.615 15 30.3154
    endloop
  endfacet
  facet normal -1 0 0
    outer loop
      vertex 60.45 0 15.2833
      vertex 60.45 15 0
      vertex 60.45 0 0
    endloop
  endfacet
  facet normal -1 0 0
    outer loop
      vertex 60.45 15 0
      vertex 60.45 0 15.2833
      vertex 60.45 15 15.45
    endloop
  endfacet
  facet normal -0.994521 0.00116144 -0.10453
    outer loop
      vertex 60.45 15 15.45
      vertex 60.45 0 15.2833
      vertex 60.3375 0 16.3541
    endloop
  endfacet
  facet normal 0 0 -1
    outer loop
      vertex 43.385 0 30.3154
      vertex 46.615 15 30.3154
      vertex 46.615 0 30.3154
    endloop
  endfacet
  facet normal -0 0 -1
    outer loop
      vertex 46.615 15 30.3154
      vertex 43.385 0 30.3154
      vertex 43.385 15 30.3154
    endloop
  endfacet
  facet normal -0.587786 0 -0.809017
    outer loop
      vertex 52.725 0 28.3301
      vertex 55.3381 15 26.4316
      vertex 55.3381 0 26.4316
    endloop
  endfacet
  facet normal -0.587786 0 -0.809017
    outer loop
      vertex 55.3381 15 26.4316
      vertex 52.725 0 28.3301
      vertex 52.725 15 28.3301
    endloop
  endfacet
  facet normal 0.866025 0 -0.5
    outer loop
      vertex 32.5007 0 24.0313
      vertex 30.8857 15 21.2341
      vertex 32.5007 15 24.0313
    endloop
  endfacet
  facet normal 0.866025 0 -0.5
    outer loop
      vertex 30.8857 15 21.2341
      vertex 32.5007 0 24.0313
      vertex 30.8857 0 21.2341
    endloop
  endfacet
  facet normal 0.951056 0 -0.309017
    outer loop
      vertex 30.8857 0 21.2341
      vertex 29.8876 15 18.1622
      vertex 30.8857 15 21.2341
    endloop
  endfacet
  facet normal 0.951056 0 -0.309017
    outer loop
      vertex 29.8876 15 18.1622
      vertex 30.8857 0 21.2341
      vertex 29.8876 0 18.1622
    endloop
  endfacet
  facet normal 0.587786 0 -0.809017
    outer loop
      vertex 34.6619 0 26.4316
      vertex 37.275 15 28.3301
      vertex 37.275 0 28.3301
    endloop
  endfacet
  facet normal 0.587786 0 -0.809017
    outer loop
      vertex 37.275 15 28.3301
      vertex 34.6619 0 26.4316
      vertex 34.6619 15 26.4316
    endloop
  endfacet
  facet normal 0.207912 0 -0.978148
    outer loop
      vertex 40.2257 0 29.6438
      vertex 43.385 15 30.3154
      vertex 43.385 0 30.3154
    endloop
  endfacet
  facet normal 0.207912 0 -0.978148
    outer loop
      vertex 43.385 15 30.3154
      vertex 40.2257 0 29.6438
      vertex 40.2257 15 29.6438
    endloop
  endfacet
  facet normal -0.406736 0 -0.913546
    outer loop
      vertex 49.7743 0 29.6438
      vertex 52.725 15 28.3301
      vertex 52.725 0 28.3301
    endloop
  endfacet
  facet normal -0.406736 0 -0.913546
    outer loop
      vertex 52.725 15 28.3301
      vertex 49.7743 0 29.6438
      vertex 49.7743 15 29.6438
    endloop
  endfacet
  facet normal -0.743145 0 -0.669131
    outer loop
      vertex 57.4993 0 24.0313
      vertex 55.3381 15 26.4316
      vertex 57.4993 15 24.0313
    endloop
  endfacet
  facet normal -0.743145 -0 -0.669131
    outer loop
      vertex 55.3381 15 26.4316
      vertex 57.4993 0 24.0313
      vertex 55.3381 0 26.4316
    endloop
  endfacet
endsolid OpenSCAD_Model
