solid OpenSCAD_Model
  facet normal 0 0 -1
    outer loop
      vertex 90 0 0
      vertex 86 3 0
      vertex 90 6 0
    endloop
  endfacet
  facet normal 0 0 -1
    outer loop
      vertex 90 0 0
      vertex 85.247 1.43634 0
      vertex 86 3 0
    endloop
  endfacet
  facet normal 0 0 -1
    outer loop
      vertex 90 0 0
      vertex 83.555 1.05014 0
      vertex 85.247 1.43634 0
    endloop
  endfacet
  facet normal -0 0 -1
    outer loop
      vertex 82.1981 2.13223 0
      vertex 48.27 0 0
      vertex 82.1981 3.86777 0
    endloop
  endfacet
  facet normal -0 0 -1
    outer loop
      vertex 83.555 1.05014 0
      vertex 48.27 0 0
      vertex 82.1981 2.13223 0
    endloop
  endfacet
  facet normal 0 0 -1
    outer loop
      vertex 48.27 0 0
      vertex 83.555 1.05014 0
      vertex 90 0 0
    endloop
  endfacet
  facet normal 0 0 -1
    outer loop
      vertex 85.247 4.56366 0
      vertex 90 6 0
      vertex 86 3 0
    endloop
  endfacet
  facet normal 0 0 -1
    outer loop
      vertex 83.555 4.94986 0
      vertex 90 6 0
      vertex 85.247 4.56366 0
    endloop
  endfacet
  facet normal 0 0 -1
    outer loop
      vertex 48.27 6 0
      vertex 82.1981 3.86777 0
      vertex 48.27 0 0
    endloop
  endfacet
  facet normal 0 0 -1
    outer loop
      vertex 82.1981 3.86777 0
      vertex 48.27 6 0
      vertex 83.555 4.94986 0
    endloop
  endfacet
  facet normal 0 0 -1
    outer loop
      vertex 83.555 4.94986 0
      vertex 48.27 6 0
      vertex 90 6 0
    endloop
  endfacet
  facet normal 0 0 -1
    outer loop
      vertex 41.7742 0 0
      vertex 8 3 0
      vertex 41.73 6 0
    endloop
  endfacet
  facet normal 0 0 -1
    outer loop
      vertex 41.7742 0 0
      vertex 7.24698 1.43634 0
      vertex 8 3 0
    endloop
  endfacet
  facet normal 0 0 -1
    outer loop
      vertex 41.7742 0 0
      vertex 5.55496 1.05014 0
      vertex 7.24698 1.43634 0
    endloop
  endfacet
  facet normal -0 0 -1
    outer loop
      vertex 4.19806 2.13223 0
      vertex 0 0 0
      vertex 4.19806 3.86777 0
    endloop
  endfacet
  facet normal -0 0 -1
    outer loop
      vertex 5.55496 1.05014 0
      vertex 0 0 0
      vertex 4.19806 2.13223 0
    endloop
  endfacet
  facet normal 0 0 -1
    outer loop
      vertex 0 0 0
      vertex 5.55496 1.05014 0
      vertex 41.7742 0 0
    endloop
  endfacet
  facet normal 0 0 -1
    outer loop
      vertex 7.24698 4.56366 0
      vertex 41.73 6 0
      vertex 8 3 0
    endloop
  endfacet
  facet normal 0 0 -1
    outer loop
      vertex 5.55496 4.94986 0
      vertex 41.73 6 0
      vertex 7.24698 4.56366 0
    endloop
  endfacet
  facet normal 0 0 -1
    outer loop
      vertex 5.55496 4.94986 0
      vertex 0 6 0
      vertex 41.73 6 0
    endloop
  endfacet
  facet normal 0 0 -1
    outer loop
      vertex 4.19806 3.86777 0
      vertex 0 6 0
      vertex 5.55496 4.94986 0
    endloop
  endfacet
  facet normal 0 0 -1
    outer loop
      vertex 0 6 0
      vertex 4.19806 3.86777 0
      vertex 0 0 0
    endloop
  endfacet
  facet normal 1 -0 0
    outer loop
      vertex 90 0 10
      vertex 90 6 0
      vertex 90 6 10
    endloop
  endfacet
  facet normal 1 0 0
    outer loop
      vertex 90 6 0
      vertex 90 0 10
      vertex 90 0 0
    endloop
  endfacet
  facet normal -1 0 0
    outer loop
      vertex 0 0 0
      vertex 0 6 10
      vertex 0 6 0
    endloop
  endfacet
  facet normal -1 -0 0
    outer loop
      vertex 0 6 10
      vertex 0 0 0
      vertex 0 0 10
    endloop
  endfacet
  facet normal 0 -1 0
    outer loop
      vertex 0 0 0
      vertex 33.46 0 10
      vertex 0 0 10
    endloop
  endfacet
  facet normal 0 -1 0
    outer loop
      vertex 33.46 0 10
      vertex 44.5346 0 6.00672
      vertex 56.54 0 10
    endloop
  endfacet
  facet normal 0 -1 0
    outer loop
      vertex 46.3584 0 5.7445
      vertex 56.54 0 10
      vertex 44.5346 0 6.00672
    endloop
  endfacet
  facet normal 0 -1 0
    outer loop
      vertex 33.46 0 10
      vertex 42.8586 0 5.2413
      vertex 44.5346 0 6.00672
    endloop
  endfacet
  facet normal 0 -1 0
    outer loop
      vertex 33.46 0 10
      vertex 41.8625 0 3.69127
      vertex 42.8586 0 5.2413
    endloop
  endfacet
  facet normal 0 -1 0
    outer loop
      vertex 33.46 0 10
      vertex 41.7742 0 3.41042
      vertex 41.8625 0 3.69127
    endloop
  endfacet
  facet normal 0 -1 0
    outer loop
      vertex 41.7742 0 0
      vertex 33.46 0 10
      vertex 0 0 0
    endloop
  endfacet
  facet normal 0 -1 0
    outer loop
      vertex 33.46 0 10
      vertex 41.7742 0 0
      vertex 41.7742 0 3.41042
    endloop
  endfacet
  facet normal 0 -1 0
    outer loop
      vertex 47.7509 0 4.5379
      vertex 56.54 0 10
      vertex 46.3584 0 5.7445
    endloop
  endfacet
  facet normal 0 -1 0
    outer loop
      vertex 48.097 0 3.69263
      vertex 56.54 0 10
      vertex 47.7509 0 4.5379
    endloop
  endfacet
  facet normal 0 -1 0
    outer loop
      vertex 48.27 0 3.10333
      vertex 56.54 0 10
      vertex 48.097 0 3.69263
    endloop
  endfacet
  facet normal 0 -1 0
    outer loop
      vertex 48.27 0 0
      vertex 56.54 0 10
      vertex 48.27 0 3.10333
    endloop
  endfacet
  facet normal 0 -1 -0
    outer loop
      vertex 56.54 0 10
      vertex 48.27 0 0
      vertex 90 0 0
    endloop
  endfacet
  facet normal 0 -1 0
    outer loop
      vertex 56.54 0 10
      vertex 90 0 0
      vertex 90 0 10
    endloop
  endfacet
  facet normal 0 -1 0
    outer loop
      vertex 40.8871 0 33.7634
      vertex 50.6129 0 34.8532
      vertex 39.3871 0 34.8532
    endloop
  endfacet
  facet normal 0 -1 0
    outer loop
      vertex 40.8871 0 33.7634
      vertex 49.1129 0 33.7634
      vertex 50.6129 0 34.8532
    endloop
  endfacet
  facet normal 0 -1 0
    outer loop
      vertex 41.46 0 32
      vertex 49.1129 0 33.7634
      vertex 40.8871 0 33.7634
    endloop
  endfacet
  facet normal 0 -1 0
    outer loop
      vertex 41.46 0 32
      vertex 48.54 0 32
      vertex 49.1129 0 33.7634
    endloop
  endfacet
  facet normal 0 -1 0
    outer loop
      vertex 40.8871 0 30.2366
      vertex 48.54 0 32
      vertex 41.46 0 32
    endloop
  endfacet
  facet normal 0 -1 0
    outer loop
      vertex 40.8871 0 30.2366
      vertex 49.1129 0 30.2366
      vertex 48.54 0 32
    endloop
  endfacet
  facet normal 0 -1 0
    outer loop
      vertex 39.3871 0 29.1468
      vertex 49.1129 0 30.2366
      vertex 40.8871 0 30.2366
    endloop
  endfacet
  facet normal 0 -1 -0
    outer loop
      vertex 49.1129 0 30.2366
      vertex 39.3871 0 29.1468
      vertex 50.6129 0 29.1468
    endloop
  endfacet
  facet normal 0 -1 0
    outer loop
      vertex 39.3871 0 34.8532
      vertex 33.46 0 40
      vertex 37.5329 0 34.8532
    endloop
  endfacet
  facet normal 0 -1 0
    outer loop
      vertex 33.46 0 40
      vertex 36.0329 0 33.7634
      vertex 37.5329 0 34.8532
    endloop
  endfacet
  facet normal 0 -1 0
    outer loop
      vertex 33.46 0 40
      vertex 35.46 0 32
      vertex 36.0329 0 33.7634
    endloop
  endfacet
  facet normal 0 -1 0
    outer loop
      vertex 33.46 0 10
      vertex 39.3871 0 29.1468
      vertex 37.5329 0 29.1468
    endloop
  endfacet
  facet normal 0 -1 -0
    outer loop
      vertex 39.3871 0 29.1468
      vertex 33.46 0 10
      vertex 50.6129 0 29.1468
    endloop
  endfacet
  facet normal 0 -1 0
    outer loop
      vertex 56.54 0 10
      vertex 50.6129 0 29.1468
      vertex 33.46 0 10
    endloop
  endfacet
  facet normal 0 -1 -0
    outer loop
      vertex 36.0329 0 30.2366
      vertex 33.46 0 10
      vertex 37.5329 0 29.1468
    endloop
  endfacet
  facet normal 0 -1 -0
    outer loop
      vertex 35.46 0 32
      vertex 33.46 0 10
      vertex 36.0329 0 30.2366
    endloop
  endfacet
  facet normal 0 -1 0
    outer loop
      vertex 33.46 0 10
      vertex 35.46 0 32
      vertex 33.46 0 40
    endloop
  endfacet
  facet normal 0 -1 0
    outer loop
      vertex 33.46 0 40
      vertex 39.3871 0 34.8532
      vertex 56.54 0 40
    endloop
  endfacet
  facet normal 0 -1 0
    outer loop
      vertex 50.6129 0 34.8532
      vertex 56.54 0 40
      vertex 39.3871 0 34.8532
    endloop
  endfacet
  facet normal 0 -1 0
    outer loop
      vertex 52.467 0 34.8532
      vertex 56.54 0 40
      vertex 50.6129 0 34.8532
    endloop
  endfacet
  facet normal 0 -1 0
    outer loop
      vertex 53.967 0 33.7634
      vertex 56.54 0 40
      vertex 52.467 0 34.8532
    endloop
  endfacet
  facet normal 0 -1 0
    outer loop
      vertex 54.54 0 32
      vertex 56.54 0 40
      vertex 53.967 0 33.7634
    endloop
  endfacet
  facet normal 0 -1 0
    outer loop
      vertex 50.6129 0 29.1468
      vertex 56.54 0 10
      vertex 52.467 0 29.1468
    endloop
  endfacet
  facet normal 0 -1 0
    outer loop
      vertex 54.54 0 32
      vertex 56.54 0 10
      vertex 56.54 0 40
    endloop
  endfacet
  facet normal 0 -1 0
    outer loop
      vertex 53.967 0 30.2366
      vertex 56.54 0 10
      vertex 54.54 0 32
    endloop
  endfacet
  facet normal 0 -1 0
    outer loop
      vertex 52.467 0 29.1468
      vertex 56.54 0 10
      vertex 53.967 0 30.2366
    endloop
  endfacet
  facet normal 0 1 -0
    outer loop
      vertex 90 6 0
      vertex 56.54 6 10
      vertex 90 6 10
    endloop
  endfacet
  facet normal -0 1 0
    outer loop
      vertex 44.5346 6 6.00672
      vertex 56.54 6 10
      vertex 46.3584 6 5.7445
    endloop
  endfacet
  facet normal 0 1 -0
    outer loop
      vertex 42.8586 6 5.2413
      vertex 33.46 6 10
      vertex 44.5346 6 6.00672
    endloop
  endfacet
  facet normal 0 1 0
    outer loop
      vertex 56.54 6 10
      vertex 44.5346 6 6.00672
      vertex 33.46 6 10
    endloop
  endfacet
  facet normal 0 1 0
    outer loop
      vertex 56.54 6 10
      vertex 47.7509 6 4.5379
      vertex 46.3584 6 5.7445
    endloop
  endfacet
  facet normal 0 1 0
    outer loop
      vertex 56.54 6 10
      vertex 48.27 6 3.27
      vertex 47.7509 6 4.5379
    endloop
  endfacet
  facet normal 0 1 0
    outer loop
      vertex 48.27 6 0
      vertex 56.54 6 10
      vertex 90 6 0
    endloop
  endfacet
  facet normal 0 1 0
    outer loop
      vertex 56.54 6 10
      vertex 48.27 6 0
      vertex 48.27 6 3.27
    endloop
  endfacet
  facet normal 0 1 -0
    outer loop
      vertex 41.8625 6 3.69127
      vertex 33.46 6 10
      vertex 42.8586 6 5.2413
    endloop
  endfacet
  facet normal 0 1 -0
    outer loop
      vertex 41.73 6 3.27
      vertex 33.46 6 10
      vertex 41.8625 6 3.69127
    endloop
  endfacet
  facet normal 0 1 -0
    outer loop
      vertex 41.73 6 0
      vertex 33.46 6 10
      vertex 41.73 6 3.27
    endloop
  endfacet
  facet normal 0 1 0
    outer loop
      vertex 33.46 6 10
      vertex 41.73 6 0
      vertex 0 6 0
    endloop
  endfacet
  facet normal 0 1 0
    outer loop
      vertex 33.46 6 10
      vertex 0 6 0
      vertex 0 6 10
    endloop
  endfacet
  facet normal 0 1 -0
    outer loop
      vertex 49.1129 6 33.7634
      vertex 39.3871 6 34.8532
      vertex 50.6129 6 34.8532
    endloop
  endfacet
  facet normal 0 1 0
    outer loop
      vertex 49.1129 6 33.7634
      vertex 40.8871 6 33.7634
      vertex 39.3871 6 34.8532
    endloop
  endfacet
  facet normal 0 1 -0
    outer loop
      vertex 48.54 6 32
      vertex 40.8871 6 33.7634
      vertex 49.1129 6 33.7634
    endloop
  endfacet
  facet normal 0 1 0
    outer loop
      vertex 48.54 6 32
      vertex 41.46 6 32
      vertex 40.8871 6 33.7634
    endloop
  endfacet
  facet normal 0 1 0
    outer loop
      vertex 49.1129 6 30.2366
      vertex 41.46 6 32
      vertex 48.54 6 32
    endloop
  endfacet
  facet normal 0 1 0
    outer loop
      vertex 41.46 6 32
      vertex 49.1129 6 30.2366
      vertex 40.8871 6 30.2366
    endloop
  endfacet
  facet normal 0 1 0
    outer loop
      vertex 50.6129 6 34.8532
      vertex 56.54 6 40
      vertex 52.467 6 34.8532
    endloop
  endfacet
  facet normal 0 1 0
    outer loop
      vertex 56.54 6 40
      vertex 53.967 6 33.7634
      vertex 52.467 6 34.8532
    endloop
  endfacet
  facet normal 0 1 0
    outer loop
      vertex 56.54 6 40
      vertex 54.54 6 32
      vertex 53.967 6 33.7634
    endloop
  endfacet
  facet normal 0 1 0
    outer loop
      vertex 56.54 6 10
      vertex 49.1129 6 30.2366
      vertex 53.967 6 30.2366
    endloop
  endfacet
  facet normal 0 1 0
    outer loop
      vertex 49.1129 6 30.2366
      vertex 56.54 6 10
      vertex 40.8871 6 30.2366
    endloop
  endfacet
  facet normal 0 1 0
    outer loop
      vertex 33.46 6 10
      vertex 40.8871 6 30.2366
      vertex 56.54 6 10
    endloop
  endfacet
  facet normal 0 1 0
    outer loop
      vertex 54.54 6 32
      vertex 56.54 6 10
      vertex 53.967 6 30.2366
    endloop
  endfacet
  facet normal 0 1 -0
    outer loop
      vertex 56.54 6 10
      vertex 54.54 6 32
      vertex 56.54 6 40
    endloop
  endfacet
  facet normal 0 1 0
    outer loop
      vertex 56.54 6 40
      vertex 50.6129 6 34.8532
      vertex 33.46 6 40
    endloop
  endfacet
  facet normal 0 1 -0
    outer loop
      vertex 39.3871 6 34.8532
      vertex 33.46 6 40
      vertex 50.6129 6 34.8532
    endloop
  endfacet
  facet normal 0 1 -0
    outer loop
      vertex 37.5329 6 34.8532
      vertex 33.46 6 40
      vertex 39.3871 6 34.8532
    endloop
  endfacet
  facet normal 0 1 -0
    outer loop
      vertex 36.0329 6 33.7634
      vertex 33.46 6 40
      vertex 37.5329 6 34.8532
    endloop
  endfacet
  facet normal 0 1 -0
    outer loop
      vertex 35.46 6 32
      vertex 33.46 6 40
      vertex 36.0329 6 33.7634
    endloop
  endfacet
  facet normal 0 1 0
    outer loop
      vertex 35.46 6 32
      vertex 33.46 6 10
      vertex 33.46 6 40
    endloop
  endfacet
  facet normal 0 1 0
    outer loop
      vertex 36.0329 6 30.2366
      vertex 33.46 6 10
      vertex 35.46 6 32
    endloop
  endfacet
  facet normal 0 1 0
    outer loop
      vertex 40.8871 6 30.2366
      vertex 33.46 6 10
      vertex 36.0329 6 30.2366
    endloop
  endfacet
  facet normal -0 0 1
    outer loop
      vertex 33.46 6 40
      vertex 56.54 0 40
      vertex 56.54 6 40
    endloop
  endfacet
  facet normal 0 0 1
    outer loop
      vertex 56.54 0 40
      vertex 33.46 6 40
      vertex 33.46 0 40
    endloop
  endfacet
  facet normal 0 0 1
    outer loop
      vertex 33.46 6 10
      vertex 8 3 10
      vertex 33.46 0 10
    endloop
  endfacet
  facet normal 0 0 1
    outer loop
      vertex 33.46 6 10
      vertex 7.24698 4.56366 10
      vertex 8 3 10
    endloop
  endfacet
  facet normal 0 0 1
    outer loop
      vertex 33.46 6 10
      vertex 5.55496 4.94986 10
      vertex 7.24698 4.56366 10
    endloop
  endfacet
  facet normal 0 0 1
    outer loop
      vertex 4.19806 3.86777 10
      vertex 0 6 10
      vertex 4.19806 2.13223 10
    endloop
  endfacet
  facet normal 0 0 1
    outer loop
      vertex 5.55496 4.94986 10
      vertex 0 6 10
      vertex 4.19806 3.86777 10
    endloop
  endfacet
  facet normal -0 0 1
    outer loop
      vertex 0 6 10
      vertex 5.55496 4.94986 10
      vertex 33.46 6 10
    endloop
  endfacet
  facet normal -0 0 1
    outer loop
      vertex 7.24698 1.43634 10
      vertex 33.46 0 10
      vertex 8 3 10
    endloop
  endfacet
  facet normal -0 0 1
    outer loop
      vertex 5.55496 1.05014 10
      vertex 33.46 0 10
      vertex 7.24698 1.43634 10
    endloop
  endfacet
  facet normal 0 0 1
    outer loop
      vertex 5.55496 1.05014 10
      vertex 0 0 10
      vertex 33.46 0 10
    endloop
  endfacet
  facet normal 0 0 1
    outer loop
      vertex 4.19806 2.13223 10
      vertex 0 0 10
      vertex 5.55496 1.05014 10
    endloop
  endfacet
  facet normal 0 0 1
    outer loop
      vertex 0 0 10
      vertex 4.19806 2.13223 10
      vertex 0 6 10
    endloop
  endfacet
  facet normal -1 0 0
    outer loop
      vertex 33.46 0 10
      vertex 33.46 6 40
      vertex 33.46 6 10
    endloop
  endfacet
  facet normal -1 -0 0
    outer loop
      vertex 33.46 6 40
      vertex 33.46 0 10
      vertex 33.46 0 40
    endloop
  endfacet
  facet normal 0 0 1
    outer loop
      vertex 90 6 10
      vertex 86 3 10
      vertex 90 0 10
    endloop
  endfacet
  facet normal 0 0 1
    outer loop
      vertex 90 6 10
      vertex 85.247 4.56366 10
      vertex 86 3 10
    endloop
  endfacet
  facet normal 0 0 1
    outer loop
      vertex 90 6 10
      vertex 83.555 4.94986 10
      vertex 85.247 4.56366 10
    endloop
  endfacet
  facet normal 0 0 1
    outer loop
      vertex 82.1981 3.86777 10
      vertex 56.54 6 10
      vertex 82.1981 2.13223 10
    endloop
  endfacet
  facet normal 0 0 1
    outer loop
      vertex 83.555 4.94986 10
      vertex 56.54 6 10
      vertex 82.1981 3.86777 10
    endloop
  endfacet
  facet normal -0 0 1
    outer loop
      vertex 56.54 6 10
      vertex 83.555 4.94986 10
      vertex 90 6 10
    endloop
  endfacet
  facet normal -0 0 1
    outer loop
      vertex 85.247 1.43634 10
      vertex 90 0 10
      vertex 86 3 10
    endloop
  endfacet
  facet normal -0 0 1
    outer loop
      vertex 83.555 1.05014 10
      vertex 90 0 10
      vertex 85.247 1.43634 10
    endloop
  endfacet
  facet normal 0 0 1
    outer loop
      vertex 56.54 0 10
      vertex 82.1981 2.13223 10
      vertex 56.54 6 10
    endloop
  endfacet
  facet normal 0 0 1
    outer loop
      vertex 83.555 1.05014 10
      vertex 56.54 0 10
      vertex 90 0 10
    endloop
  endfacet
  facet normal 0 0 1
    outer loop
      vertex 82.1981 2.13223 10
      vertex 56.54 0 10
      vertex 83.555 1.05014 10
    endloop
  endfacet
  facet normal 1 -0 0
    outer loop
      vertex 56.54 0 40
      vertex 56.54 6 10
      vertex 56.54 6 40
    endloop
  endfacet
  facet normal 1 0 0
    outer loop
      vertex 56.54 6 10
      vertex 56.54 0 40
      vertex 56.54 0 10
    endloop
  endfacet
  facet normal -0.900969 -0.433884 0
    outer loop
      vertex 8 3 0
      vertex 7.24698 4.56366 10
      vertex 7.24698 4.56366 0
    endloop
  endfacet
  facet normal -0.900969 -0.433884 0
    outer loop
      vertex 7.24698 4.56366 10
      vertex 8 3 0
      vertex 8 3 10
    endloop
  endfacet
  facet normal 1 -0 0
    outer loop
      vertex 4.19806 2.13223 10
      vertex 4.19806 3.86777 0
      vertex 4.19806 3.86777 10
    endloop
  endfacet
  facet normal 1 0 0
    outer loop
      vertex 4.19806 3.86777 0
      vertex 4.19806 2.13223 10
      vertex 4.19806 2.13223 0
    endloop
  endfacet
  facet normal -0.222521 -0.974928 0
    outer loop
      vertex 5.55496 4.94986 0
      vertex 7.24698 4.56366 10
      vertex 5.55496 4.94986 10
    endloop
  endfacet
  facet normal -0.222521 -0.974928 -0
    outer loop
      vertex 7.24698 4.56366 10
      vertex 5.55496 4.94986 0
      vertex 7.24698 4.56366 0
    endloop
  endfacet
  facet normal 0.62349 -0.781831 0
    outer loop
      vertex 4.19806 3.86777 0
      vertex 5.55496 4.94986 10
      vertex 4.19806 3.86777 10
    endloop
  endfacet
  facet normal 0.62349 -0.781831 0
    outer loop
      vertex 5.55496 4.94986 10
      vertex 4.19806 3.86777 0
      vertex 5.55496 4.94986 0
    endloop
  endfacet
  facet normal -0.900969 0.433884 0
    outer loop
      vertex 7.24698 1.43634 0
      vertex 8 3 10
      vertex 8 3 0
    endloop
  endfacet
  facet normal -0.900969 0.433884 0
    outer loop
      vertex 8 3 10
      vertex 7.24698 1.43634 0
      vertex 7.24698 1.43634 10
    endloop
  endfacet
  facet normal -0.222521 0.974928 0
    outer loop
      vertex 7.24698 1.43634 0
      vertex 5.55496 1.05014 10
      vertex 7.24698 1.43634 10
    endloop
  endfacet
  facet normal -0.222521 0.974928 0
    outer loop
      vertex 5.55496 1.05014 10
      vertex 7.24698 1.43634 0
      vertex 5.55496 1.05014 0
    endloop
  endfacet
  facet normal 0.62349 0.781831 -0
    outer loop
      vertex 5.55496 1.05014 0
      vertex 4.19806 2.13223 10
      vertex 5.55496 1.05014 10
    endloop
  endfacet
  facet normal 0.62349 0.781831 0
    outer loop
      vertex 4.19806 2.13223 10
      vertex 5.55496 1.05014 0
      vertex 4.19806 2.13223 0
    endloop
  endfacet
  facet normal -0.900969 -0.433884 0
    outer loop
      vertex 86 3 0
      vertex 85.247 4.56366 10
      vertex 85.247 4.56366 0
    endloop
  endfacet
  facet normal -0.900969 -0.433884 0
    outer loop
      vertex 85.247 4.56366 10
      vertex 86 3 0
      vertex 86 3 10
    endloop
  endfacet
  facet normal 1 -0 0
    outer loop
      vertex 82.1981 2.13223 10
      vertex 82.1981 3.86777 0
      vertex 82.1981 3.86777 10
    endloop
  endfacet
  facet normal 1 0 0
    outer loop
      vertex 82.1981 3.86777 0
      vertex 82.1981 2.13223 10
      vertex 82.1981 2.13223 0
    endloop
  endfacet
  facet normal -0.222521 -0.974928 0
    outer loop
      vertex 83.555 4.94986 0
      vertex 85.247 4.56366 10
      vertex 83.555 4.94986 10
    endloop
  endfacet
  facet normal -0.222521 -0.974928 -0
    outer loop
      vertex 85.247 4.56366 10
      vertex 83.555 4.94986 0
      vertex 85.247 4.56366 0
    endloop
  endfacet
  facet normal 0.62349 -0.781831 0
    outer loop
      vertex 82.1981 3.86777 0
      vertex 83.555 4.94986 10
      vertex 82.1981 3.86777 10
    endloop
  endfacet
  facet normal 0.62349 -0.781831 0
    outer loop
      vertex 83.555 4.94986 10
      vertex 82.1981 3.86777 0
      vertex 83.555 4.94986 0
    endloop
  endfacet
  facet normal -0.900969 0.433884 0
    outer loop
      vertex 85.247 1.43634 0
      vertex 86 3 10
      vertex 86 3 0
    endloop
  endfacet
  facet normal -0.900969 0.433884 0
    outer loop
      vertex 86 3 10
      vertex 85.247 1.43634 0
      vertex 85.247 1.43634 10
    endloop
  endfacet
  facet normal -0.222521 0.974928 0
    outer loop
      vertex 85.247 1.43634 0
      vertex 83.555 1.05014 10
      vertex 85.247 1.43634 10
    endloop
  endfacet
  facet normal -0.222521 0.974928 0
    outer loop
      vertex 83.555 1.05014 10
      vertex 85.247 1.43634 0
      vertex 83.555 1.05014 0
    endloop
  endfacet
  facet normal 0.62349 0.781831 -0
    outer loop
      vertex 83.555 1.05014 0
      vertex 82.1981 2.13223 10
      vertex 83.555 1.05014 10
    endloop
  endfacet
  facet normal 0.62349 0.781831 0
    outer loop
      vertex 82.1981 2.13223 10
      vertex 83.555 1.05014 0
      vertex 82.1981 2.13223 0
    endloop
  endfacet
  facet normal -0.951057 0 -0.309017
    outer loop
      vertex 41.46 0 32
      vertex 40.8871 6 33.7634
      vertex 41.46 6 32
    endloop
  endfacet
  facet normal -0.951057 -0 -0.309017
    outer loop
      vertex 40.8871 6 33.7634
      vertex 41.46 0 32
      vertex 40.8871 0 33.7634
    endloop
  endfacet
  facet normal -0.587785 0 -0.809017
    outer loop
      vertex 39.3871 0 34.8532
      vertex 40.8871 6 33.7634
      vertex 40.8871 0 33.7634
    endloop
  endfacet
  facet normal -0.587785 0 -0.809017
    outer loop
      vertex 40.8871 6 33.7634
      vertex 39.3871 0 34.8532
      vertex 39.3871 6 34.8532
    endloop
  endfacet
  facet normal 0.951057 0 -0.309017
    outer loop
      vertex 36.0329 0 33.7634
      vertex 35.46 6 32
      vertex 36.0329 6 33.7634
    endloop
  endfacet
  facet normal 0.951057 0 -0.309017
    outer loop
      vertex 35.46 6 32
      vertex 36.0329 0 33.7634
      vertex 35.46 0 32
    endloop
  endfacet
  facet normal 0 0 -1
    outer loop
      vertex 37.5329 0 34.8532
      vertex 39.3871 6 34.8532
      vertex 39.3871 0 34.8532
    endloop
  endfacet
  facet normal -0 0 -1
    outer loop
      vertex 39.3871 6 34.8532
      vertex 37.5329 0 34.8532
      vertex 37.5329 6 34.8532
    endloop
  endfacet
  facet normal -0.587786 0 0.809017
    outer loop
      vertex 39.3871 6 29.1468
      vertex 40.8871 0 30.2366
      vertex 40.8871 6 30.2366
    endloop
  endfacet
  facet normal -0.587786 0 0.809017
    outer loop
      vertex 40.8871 0 30.2366
      vertex 39.3871 6 29.1468
      vertex 39.3871 0 29.1468
    endloop
  endfacet
  facet normal 0.587785 0 -0.809017
    outer loop
      vertex 36.0329 0 33.7634
      vertex 37.5329 6 34.8532
      vertex 37.5329 0 34.8532
    endloop
  endfacet
  facet normal 0.587785 0 -0.809017
    outer loop
      vertex 37.5329 6 34.8532
      vertex 36.0329 0 33.7634
      vertex 36.0329 6 33.7634
    endloop
  endfacet
  facet normal -0.951057 0 0.309017
    outer loop
      vertex 40.8871 0 30.2366
      vertex 41.46 6 32
      vertex 40.8871 6 30.2366
    endloop
  endfacet
  facet normal -0.951057 0 0.309017
    outer loop
      vertex 41.46 6 32
      vertex 40.8871 0 30.2366
      vertex 41.46 0 32
    endloop
  endfacet
  facet normal 0.951057 -0 0.309017
    outer loop
      vertex 35.46 0 32
      vertex 36.0329 6 30.2366
      vertex 35.46 6 32
    endloop
  endfacet
  facet normal 0.951057 0 0.309017
    outer loop
      vertex 36.0329 6 30.2366
      vertex 35.46 0 32
      vertex 36.0329 0 30.2366
    endloop
  endfacet
  facet normal 0.587786 0 0.809017
    outer loop
      vertex 36.0329 6 30.2366
      vertex 37.5329 0 29.1468
      vertex 37.5329 6 29.1468
    endloop
  endfacet
  facet normal 0.587786 0 0.809017
    outer loop
      vertex 37.5329 0 29.1468
      vertex 36.0329 6 30.2366
      vertex 36.0329 0 30.2366
    endloop
  endfacet
  facet normal 0 -1 8.75079e-007
    outer loop
      vertex 37.5329 6 29.1468
      vertex 40.8871 6 30.2366
      vertex 36.0329 6 30.2366
    endloop
  endfacet
  facet normal 0 -1 8.75079e-007
    outer loop
      vertex 40.8871 6 30.2366
      vertex 37.5329 6 29.1468
      vertex 39.3871 6 29.1468
    endloop
  endfacet
  facet normal -0 0 1
    outer loop
      vertex 37.5329 6 29.1468
      vertex 39.3871 0 29.1468
      vertex 39.3871 6 29.1468
    endloop
  endfacet
  facet normal 0 0 1
    outer loop
      vertex 39.3871 0 29.1468
      vertex 37.5329 6 29.1468
      vertex 37.5329 0 29.1468
    endloop
  endfacet
  facet normal -0.951056 0 -0.309019
    outer loop
      vertex 54.54 0 32
      vertex 53.967 6 33.7634
      vertex 54.54 6 32
    endloop
  endfacet
  facet normal -0.951056 -0 -0.309019
    outer loop
      vertex 53.967 6 33.7634
      vertex 54.54 0 32
      vertex 53.967 0 33.7634
    endloop
  endfacet
  facet normal -0.587785 0 -0.809017
    outer loop
      vertex 52.467 0 34.8532
      vertex 53.967 6 33.7634
      vertex 53.967 0 33.7634
    endloop
  endfacet
  facet normal -0.587785 0 -0.809017
    outer loop
      vertex 53.967 6 33.7634
      vertex 52.467 0 34.8532
      vertex 52.467 6 34.8532
    endloop
  endfacet
  facet normal 0 -1 8.75079e-007
    outer loop
      vertex 50.6129 6 29.1468
      vertex 53.967 6 30.2366
      vertex 49.1129 6 30.2366
    endloop
  endfacet
  facet normal 0 -1 8.75079e-007
    outer loop
      vertex 53.967 6 30.2366
      vertex 50.6129 6 29.1468
      vertex 52.467 6 29.1468
    endloop
  endfacet
  facet normal 0 0 -1
    outer loop
      vertex 50.6129 0 34.8532
      vertex 52.467 6 34.8532
      vertex 52.467 0 34.8532
    endloop
  endfacet
  facet normal -0 0 -1
    outer loop
      vertex 52.467 6 34.8532
      vertex 50.6129 0 34.8532
      vertex 50.6129 6 34.8532
    endloop
  endfacet
  facet normal 0.587786 0 0.809017
    outer loop
      vertex 49.1129 6 30.2366
      vertex 50.6129 0 29.1468
      vertex 50.6129 6 29.1468
    endloop
  endfacet
  facet normal 0.587786 0 0.809017
    outer loop
      vertex 50.6129 0 29.1468
      vertex 49.1129 6 30.2366
      vertex 49.1129 0 30.2366
    endloop
  endfacet
  facet normal 0.587785 0 -0.809017
    outer loop
      vertex 49.1129 0 33.7634
      vertex 50.6129 6 34.8532
      vertex 50.6129 0 34.8532
    endloop
  endfacet
  facet normal 0.587785 0 -0.809017
    outer loop
      vertex 50.6129 6 34.8532
      vertex 49.1129 0 33.7634
      vertex 49.1129 6 33.7634
    endloop
  endfacet
  facet normal -0 0 1
    outer loop
      vertex 50.6129 6 29.1468
      vertex 52.467 0 29.1468
      vertex 52.467 6 29.1468
    endloop
  endfacet
  facet normal 0 0 1
    outer loop
      vertex 52.467 0 29.1468
      vertex 50.6129 6 29.1468
      vertex 50.6129 0 29.1468
    endloop
  endfacet
  facet normal 0.951057 0 -0.309017
    outer loop
      vertex 49.1129 0 33.7634
      vertex 48.54 6 32
      vertex 49.1129 6 33.7634
    endloop
  endfacet
  facet normal 0.951057 0 -0.309017
    outer loop
      vertex 48.54 6 32
      vertex 49.1129 0 33.7634
      vertex 48.54 0 32
    endloop
  endfacet
  facet normal 0.951057 -0 0.309017
    outer loop
      vertex 48.54 0 32
      vertex 49.1129 6 30.2366
      vertex 48.54 6 32
    endloop
  endfacet
  facet normal 0.951057 0 0.309017
    outer loop
      vertex 49.1129 6 30.2366
      vertex 48.54 0 32
      vertex 49.1129 0 30.2366
    endloop
  endfacet
  facet normal -0.587786 0 0.809017
    outer loop
      vertex 52.467 6 29.1468
      vertex 53.967 0 30.2366
      vertex 53.967 6 30.2366
    endloop
  endfacet
  facet normal -0.587786 0 0.809017
    outer loop
      vertex 53.967 0 30.2366
      vertex 52.467 6 29.1468
      vertex 52.467 0 29.1468
    endloop
  endfacet
  facet normal -0.951056 0 0.309019
    outer loop
      vertex 53.967 0 30.2366
      vertex 54.54 6 32
      vertex 53.967 6 30.2366
    endloop
  endfacet
  facet normal -0.951056 0 0.309019
    outer loop
      vertex 54.54 6 32
      vertex 53.967 0 30.2366
      vertex 54.54 0 32
    endloop
  endfacet
  facet normal -0.925441 1.91108e-007 -0.378893
    outer loop
      vertex 48.097 0 3.69263
      vertex 47.7509 6 4.5379
      vertex 48.27 6 3.27
    endloop
  endfacet
  facet normal -0.925441 -0 -0.378892
    outer loop
      vertex 47.7509 6 4.5379
      vertex 48.097 0 3.69263
      vertex 47.7509 0 4.5379
    endloop
  endfacet
  facet normal 0.999973 0.00735835 -0
    outer loop
      vertex 41.7742 0 0
      vertex 41.73 6 3.27
      vertex 41.7742 0 3.41042
    endloop
  endfacet
  facet normal 0.999973 0.00735835 0
    outer loop
      vertex 41.73 6 3.27
      vertex 41.7742 0 0
      vertex 41.73 6 0
    endloop
  endfacet
  facet normal 0.953954 0 -0.299954
    outer loop
      vertex 41.7742 0 3.41042
      vertex 41.8625 6 3.69127
      vertex 41.8625 0 3.69127
    endloop
  endfacet
  facet normal 0.953955 -2.02169e-007 -0.29995
    outer loop
      vertex 41.8625 6 3.69127
      vertex 41.7742 0 3.41042
      vertex 41.73 6 3.27
    endloop
  endfacet
  facet normal -1 0 0
    outer loop
      vertex 48.27 0 3.10333
      vertex 48.27 6 0
      vertex 48.27 0 0
    endloop
  endfacet
  facet normal -1 0 0
    outer loop
      vertex 48.27 6 0
      vertex 48.27 0 3.10333
      vertex 48.27 6 3.27
    endloop
  endfacet
  facet normal -0.959463 0.00782571 -0.281725
    outer loop
      vertex 48.27 6 3.27
      vertex 48.27 0 3.10333
      vertex 48.097 0 3.69263
    endloop
  endfacet
  facet normal -0.65486 0 -0.75575
    outer loop
      vertex 46.3584 0 5.7445
      vertex 47.7509 6 4.5379
      vertex 47.7509 0 4.5379
    endloop
  endfacet
  facet normal -0.65486 0 -0.75575
    outer loop
      vertex 47.7509 6 4.5379
      vertex 46.3584 0 5.7445
      vertex 46.3584 6 5.7445
    endloop
  endfacet
  facet normal -0.142315 0 -0.989821
    outer loop
      vertex 44.5346 0 6.00672
      vertex 46.3584 6 5.7445
      vertex 46.3584 0 5.7445
    endloop
  endfacet
  facet normal -0.142315 0 -0.989821
    outer loop
      vertex 46.3584 6 5.7445
      vertex 44.5346 0 6.00672
      vertex 44.5346 6 6.00672
    endloop
  endfacet
  facet normal 0.841254 0 -0.540641
    outer loop
      vertex 42.8586 0 5.2413
      vertex 41.8625 6 3.69127
      vertex 42.8586 6 5.2413
    endloop
  endfacet
  facet normal 0.841254 0 -0.540641
    outer loop
      vertex 41.8625 6 3.69127
      vertex 42.8586 0 5.2413
      vertex 41.8625 0 3.69127
    endloop
  endfacet
  facet normal 0.415415 0 -0.909632
    outer loop
      vertex 42.8586 0 5.2413
      vertex 44.5346 6 6.00672
      vertex 44.5346 0 6.00672
    endloop
  endfacet
  facet normal 0.415415 0 -0.909632
    outer loop
      vertex 44.5346 6 6.00672
      vertex 42.8586 0 5.2413
      vertex 42.8586 6 5.2413
    endloop
  endfacet
endsolid OpenSCAD_Model
