solid OpenSCAD_Model
  facet normal 0 0 1
    outer loop
      vertex 84.7 6.3 5.5
      vertex 90 6.3 5.5
      vertex 89.6917 8.24681 5.5
    endloop
  endfacet
  facet normal 0 0 1
    outer loop
      vertex 84.7 6.3 5.5
      vertex 89.6917 8.24681 5.5
      vertex 88.7968 10.003 5.5
    endloop
  endfacet
  facet normal 0 0 1
    outer loop
      vertex 90 6.3 5.5
      vertex 84.7 6.3 5.5
      vertex 89.6917 4.35319 5.5
    endloop
  endfacet
  facet normal 0 0 1
    outer loop
      vertex 84.009 7.25106 5.5
      vertex 88.7968 10.003 5.5
      vertex 87.403 11.3968 5.5
    endloop
  endfacet
  facet normal 0 0 1
    outer loop
      vertex 89.6917 4.35319 5.5
      vertex 84.7 6.3 5.5
      vertex 88.7968 2.59695 5.5
    endloop
  endfacet
  facet normal 0 0 1
    outer loop
      vertex 84.009 7.25106 5.5
      vertex 87.403 11.3968 5.5
      vertex 85.6468 12.2917 5.5
    endloop
  endfacet
  facet normal -0 0 1
    outer loop
      vertex 84.009 5.34894 5.5
      vertex 88.7968 2.59695 5.5
      vertex 84.7 6.3 5.5
    endloop
  endfacet
  facet normal 0 0 1
    outer loop
      vertex 88.7968 2.59695 5.5
      vertex 84.009 5.34894 5.5
      vertex 87.403 1.20319 5.5
    endloop
  endfacet
  facet normal 0 0 1
    outer loop
      vertex 88.7968 10.003 5.5
      vertex 84.009 7.25106 5.5
      vertex 84.7 6.3 5.5
    endloop
  endfacet
  facet normal 0 0 1
    outer loop
      vertex 83.7 12.6 5.5
      vertex 84.009 7.25106 5.5
      vertex 85.6468 12.2917 5.5
    endloop
  endfacet
  facet normal 0 0 1
    outer loop
      vertex 83.7 12.6 5.5
      vertex 82.891 6.88778 5.5
      vertex 84.009 7.25106 5.5
    endloop
  endfacet
  facet normal 0 0 1
    outer loop
      vertex 82.891 6.88778 5.5
      vertex 8.3 6.3 5.5
      vertex 82.891 5.71221 5.5
    endloop
  endfacet
  facet normal 0 0 1
    outer loop
      vertex 83.7 12.6 5.5
      vertex 8.3 6.3 5.5
      vertex 82.891 6.88778 5.5
    endloop
  endfacet
  facet normal -0 0 1
    outer loop
      vertex 6.3 12.6 5.5
      vertex 8.3 6.3 5.5
      vertex 83.7 12.6 5.5
    endloop
  endfacet
  facet normal 0 0 1
    outer loop
      vertex 8.3 6.3 5.5
      vertex 6.3 12.6 5.5
      vertex 7.54698 7.86366 5.5
    endloop
  endfacet
  facet normal 0 0 1
    outer loop
      vertex 6.3 12.6 5.5
      vertex 5.85496 8.24986 5.5
      vertex 7.54698 7.86366 5.5
    endloop
  endfacet
  facet normal -0 0 1
    outer loop
      vertex 4.35319 12.2917 5.5
      vertex 5.85496 8.24986 5.5
      vertex 6.3 12.6 5.5
    endloop
  endfacet
  facet normal 0 0 1
    outer loop
      vertex 5.85496 8.24986 5.5
      vertex 2.59695 11.3968 5.5
      vertex 4.49806 7.16777 5.5
    endloop
  endfacet
  facet normal -0 0 1
    outer loop
      vertex 2.59695 11.3968 5.5
      vertex 5.85496 8.24986 5.5
      vertex 4.35319 12.2917 5.5
    endloop
  endfacet
  facet normal 0 0 1
    outer loop
      vertex 87.403 1.20319 5.5
      vertex 84.009 5.34894 5.5
      vertex 85.6468 0.308344 5.5
    endloop
  endfacet
  facet normal 0 0 1
    outer loop
      vertex 84.009 5.34894 5.5
      vertex 83.7 0 5.5
      vertex 85.6468 0.308344 5.5
    endloop
  endfacet
  facet normal 0 0 1
    outer loop
      vertex 82.891 5.71221 5.5
      vertex 83.7 0 5.5
      vertex 84.009 5.34894 5.5
    endloop
  endfacet
  facet normal 0 0 1
    outer loop
      vertex 8.3 6.3 5.5
      vertex 83.7 0 5.5
      vertex 82.891 5.71221 5.5
    endloop
  endfacet
  facet normal 0 0 1
    outer loop
      vertex 6.3 0 5.5
      vertex 8.3 6.3 5.5
      vertex 7.54698 4.73634 5.5
    endloop
  endfacet
  facet normal 0 0 1
    outer loop
      vertex 8.3 6.3 5.5
      vertex 6.3 0 5.5
      vertex 83.7 0 5.5
    endloop
  endfacet
  facet normal -0 0 1
    outer loop
      vertex 5.85496 4.35014 5.5
      vertex 6.3 0 5.5
      vertex 7.54698 4.73634 5.5
    endloop
  endfacet
  facet normal 0 0 1
    outer loop
      vertex 2.59695 1.20319 5.5
      vertex 5.85496 4.35014 5.5
      vertex 4.49806 5.43223 5.5
    endloop
  endfacet
  facet normal 0 0 1
    outer loop
      vertex 5.85496 4.35014 5.5
      vertex 4.35319 0.308344 5.5
      vertex 6.3 0 5.5
    endloop
  endfacet
  facet normal -0 0 1
    outer loop
      vertex 1.20319 10.003 5.5
      vertex 4.49806 7.16777 5.5
      vertex 2.59695 11.3968 5.5
    endloop
  endfacet
  facet normal -0 0 1
    outer loop
      vertex 0.308344 8.24681 5.5
      vertex 4.49806 7.16777 5.5
      vertex 1.20319 10.003 5.5
    endloop
  endfacet
  facet normal 0 0 1
    outer loop
      vertex 5.85496 4.35014 5.5
      vertex 2.59695 1.20319 5.5
      vertex 4.35319 0.308344 5.5
    endloop
  endfacet
  facet normal 0 0 1
    outer loop
      vertex 0 6.3 5.5
      vertex 4.49806 7.16777 5.5
      vertex 0.308344 8.24681 5.5
    endloop
  endfacet
  facet normal 0 0 1
    outer loop
      vertex 4.49806 5.43223 5.5
      vertex 1.20319 2.59695 5.5
      vertex 2.59695 1.20319 5.5
    endloop
  endfacet
  facet normal 0 0 1
    outer loop
      vertex 4.49806 7.16777 5.5
      vertex 0 6.3 5.5
      vertex 4.49806 5.43223 5.5
    endloop
  endfacet
  facet normal 0 0 1
    outer loop
      vertex 4.49806 5.43223 5.5
      vertex 0.308344 4.35319 5.5
      vertex 1.20319 2.59695 5.5
    endloop
  endfacet
  facet normal 0 0 1
    outer loop
      vertex 4.49806 5.43223 5.5
      vertex 0 6.3 5.5
      vertex 0.308344 4.35319 5.5
    endloop
  endfacet
  facet normal 0 0 -1
    outer loop
      vertex 84.7 6.3 0
      vertex 90 6.3 0
      vertex 89.6917 4.35319 0
    endloop
  endfacet
  facet normal 0 0 -1
    outer loop
      vertex 84.7 6.3 0
      vertex 89.6917 4.35319 0
      vertex 88.7968 2.59695 0
    endloop
  endfacet
  facet normal 0 0 -1
    outer loop
      vertex 90 6.3 0
      vertex 84.7 6.3 0
      vertex 89.6917 8.24681 0
    endloop
  endfacet
  facet normal 0 0 -1
    outer loop
      vertex 84.009 5.34894 0
      vertex 88.7968 2.59695 0
      vertex 87.403 1.20319 0
    endloop
  endfacet
  facet normal -0 0 -1
    outer loop
      vertex 89.6917 8.24681 0
      vertex 84.7 6.3 0
      vertex 88.7968 10.003 0
    endloop
  endfacet
  facet normal 0 0 -1
    outer loop
      vertex 84.009 5.34894 0
      vertex 87.403 1.20319 0
      vertex 85.6468 0.308344 0
    endloop
  endfacet
  facet normal 0 0 -1
    outer loop
      vertex 84.009 7.25106 0
      vertex 88.7968 10.003 0
      vertex 84.7 6.3 0
    endloop
  endfacet
  facet normal -0 0 -1
    outer loop
      vertex 88.7968 10.003 0
      vertex 84.009 7.25106 0
      vertex 87.403 11.3968 0
    endloop
  endfacet
  facet normal 0 0 -1
    outer loop
      vertex 88.7968 2.59695 0
      vertex 84.009 5.34894 0
      vertex 84.7 6.3 0
    endloop
  endfacet
  facet normal 0 0 -1
    outer loop
      vertex 83.7 0 0
      vertex 84.009 5.34894 0
      vertex 85.6468 0.308344 0
    endloop
  endfacet
  facet normal 0 0 -1
    outer loop
      vertex 83.7 0 0
      vertex 82.891 5.71221 0
      vertex 84.009 5.34894 0
    endloop
  endfacet
  facet normal 0 0 -1
    outer loop
      vertex 82.891 5.71221 0
      vertex 8.3 6.3 0
      vertex 82.891 6.88778 0
    endloop
  endfacet
  facet normal 0 0 -1
    outer loop
      vertex 83.7 0 0
      vertex 8.3 6.3 0
      vertex 82.891 5.71221 0
    endloop
  endfacet
  facet normal 0 0 -1
    outer loop
      vertex 6.3 0 0
      vertex 8.3 6.3 0
      vertex 83.7 0 0
    endloop
  endfacet
  facet normal 0 0 -1
    outer loop
      vertex 8.3 6.3 0
      vertex 6.3 0 0
      vertex 7.54698 4.73634 0
    endloop
  endfacet
  facet normal 0 0 -1
    outer loop
      vertex 6.3 0 0
      vertex 5.85496 4.35014 0
      vertex 7.54698 4.73634 0
    endloop
  endfacet
  facet normal 0 0 -1
    outer loop
      vertex 4.35319 0.308344 0
      vertex 5.85496 4.35014 0
      vertex 6.3 0 0
    endloop
  endfacet
  facet normal -0 0 -1
    outer loop
      vertex 5.85496 4.35014 0
      vertex 2.59695 1.20319 0
      vertex 4.49806 5.43223 0
    endloop
  endfacet
  facet normal 0 0 -1
    outer loop
      vertex 2.59695 1.20319 0
      vertex 5.85496 4.35014 0
      vertex 4.35319 0.308344 0
    endloop
  endfacet
  facet normal -0 0 -1
    outer loop
      vertex 87.403 11.3968 0
      vertex 84.009 7.25106 0
      vertex 85.6468 12.2917 0
    endloop
  endfacet
  facet normal 0 0 -1
    outer loop
      vertex 84.009 7.25106 0
      vertex 83.7 12.6 0
      vertex 85.6468 12.2917 0
    endloop
  endfacet
  facet normal 0 0 -1
    outer loop
      vertex 82.891 6.88778 0
      vertex 83.7 12.6 0
      vertex 84.009 7.25106 0
    endloop
  endfacet
  facet normal 0 0 -1
    outer loop
      vertex 8.3 6.3 0
      vertex 83.7 12.6 0
      vertex 82.891 6.88778 0
    endloop
  endfacet
  facet normal 0 0 -1
    outer loop
      vertex 6.3 12.6 0
      vertex 8.3 6.3 0
      vertex 7.54698 7.86366 0
    endloop
  endfacet
  facet normal 0 0 -1
    outer loop
      vertex 8.3 6.3 0
      vertex 6.3 12.6 0
      vertex 83.7 12.6 0
    endloop
  endfacet
  facet normal 0 0 -1
    outer loop
      vertex 5.85496 8.24986 0
      vertex 6.3 12.6 0
      vertex 7.54698 7.86366 0
    endloop
  endfacet
  facet normal 0 0 -1
    outer loop
      vertex 2.59695 11.3968 0
      vertex 5.85496 8.24986 0
      vertex 4.49806 7.16777 0
    endloop
  endfacet
  facet normal 0 0 -1
    outer loop
      vertex 5.85496 8.24986 0
      vertex 4.35319 12.2917 0
      vertex 6.3 12.6 0
    endloop
  endfacet
  facet normal 0 0 -1
    outer loop
      vertex 1.20319 2.59695 0
      vertex 4.49806 5.43223 0
      vertex 2.59695 1.20319 0
    endloop
  endfacet
  facet normal 0 0 -1
    outer loop
      vertex 0.308344 4.35319 0
      vertex 4.49806 5.43223 0
      vertex 1.20319 2.59695 0
    endloop
  endfacet
  facet normal 0 0 -1
    outer loop
      vertex 5.85496 8.24986 0
      vertex 2.59695 11.3968 0
      vertex 4.35319 12.2917 0
    endloop
  endfacet
  facet normal 0 0 -1
    outer loop
      vertex 0 6.3 0
      vertex 4.49806 5.43223 0
      vertex 0.308344 4.35319 0
    endloop
  endfacet
  facet normal 0 0 -1
    outer loop
      vertex 4.49806 7.16777 0
      vertex 1.20319 10.003 0
      vertex 2.59695 11.3968 0
    endloop
  endfacet
  facet normal 0 0 -1
    outer loop
      vertex 4.49806 5.43223 0
      vertex 0 6.3 0
      vertex 4.49806 7.16777 0
    endloop
  endfacet
  facet normal 0 0 -1
    outer loop
      vertex 4.49806 7.16777 0
      vertex 0.308344 8.24681 0
      vertex 1.20319 10.003 0
    endloop
  endfacet
  facet normal -0 0 -1
    outer loop
      vertex 4.49806 7.16777 0
      vertex 0 6.3 0
      vertex 0.308344 8.24681 0
    endloop
  endfacet
  facet normal 0 -1 0
    outer loop
      vertex 6.3 0 0
      vertex 83.7 0 5.5
      vertex 6.3 0 5.5
    endloop
  endfacet
  facet normal 0 -1 -0
    outer loop
      vertex 83.7 0 5.5
      vertex 6.3 0 0
      vertex 83.7 0 0
    endloop
  endfacet
  facet normal 0 1 -0
    outer loop
      vertex 83.7 12.6 0
      vertex 6.3 12.6 5.5
      vertex 83.7 12.6 5.5
    endloop
  endfacet
  facet normal 0 1 0
    outer loop
      vertex 6.3 12.6 5.5
      vertex 83.7 12.6 0
      vertex 6.3 12.6 0
    endloop
  endfacet
  facet normal -0.987688 0.156434 0
    outer loop
      vertex 0 6.3 0
      vertex 0.308344 8.24681 5.5
      vertex 0.308344 8.24681 0
    endloop
  endfacet
  facet normal -0.987688 0.156434 0
    outer loop
      vertex 0.308344 8.24681 5.5
      vertex 0 6.3 0
      vertex 0 6.3 5.5
    endloop
  endfacet
  facet normal -0.156434 0.987688 0
    outer loop
      vertex 6.3 12.6 0
      vertex 4.35319 12.2917 5.5
      vertex 6.3 12.6 5.5
    endloop
  endfacet
  facet normal -0.156434 0.987688 0
    outer loop
      vertex 4.35319 12.2917 5.5
      vertex 6.3 12.6 0
      vertex 4.35319 12.2917 0
    endloop
  endfacet
  facet normal -0.45399 0.891007 0
    outer loop
      vertex 4.35319 12.2917 0
      vertex 2.59695 11.3968 5.5
      vertex 4.35319 12.2917 5.5
    endloop
  endfacet
  facet normal -0.45399 0.891007 0
    outer loop
      vertex 2.59695 11.3968 5.5
      vertex 4.35319 12.2917 0
      vertex 2.59695 11.3968 0
    endloop
  endfacet
  facet normal -0.891007 0.45399 0
    outer loop
      vertex 0.308344 8.24681 0
      vertex 1.20319 10.003 5.5
      vertex 1.20319 10.003 0
    endloop
  endfacet
  facet normal -0.891007 0.45399 0
    outer loop
      vertex 1.20319 10.003 5.5
      vertex 0.308344 8.24681 0
      vertex 0.308344 8.24681 5.5
    endloop
  endfacet
  facet normal -0.707107 0.707107 0
    outer loop
      vertex 1.20319 10.003 0
      vertex 2.59695 11.3968 5.5
      vertex 2.59695 11.3968 0
    endloop
  endfacet
  facet normal -0.707107 0.707107 0
    outer loop
      vertex 2.59695 11.3968 5.5
      vertex 1.20319 10.003 0
      vertex 1.20319 10.003 5.5
    endloop
  endfacet
  facet normal -0.987688 -0.156434 0
    outer loop
      vertex 0.308344 4.35319 0
      vertex 0 6.3 5.5
      vertex 0 6.3 0
    endloop
  endfacet
  facet normal -0.987688 -0.156434 0
    outer loop
      vertex 0 6.3 5.5
      vertex 0.308344 4.35319 0
      vertex 0.308344 4.35319 5.5
    endloop
  endfacet
  facet normal -0.707107 -0.707107 0
    outer loop
      vertex 2.59695 1.20319 0
      vertex 1.20319 2.59695 5.5
      vertex 1.20319 2.59695 0
    endloop
  endfacet
  facet normal -0.707107 -0.707107 0
    outer loop
      vertex 1.20319 2.59695 5.5
      vertex 2.59695 1.20319 0
      vertex 2.59695 1.20319 5.5
    endloop
  endfacet
  facet normal -0.45399 -0.891007 0
    outer loop
      vertex 2.59695 1.20319 0
      vertex 4.35319 0.308344 5.5
      vertex 2.59695 1.20319 5.5
    endloop
  endfacet
  facet normal -0.45399 -0.891007 -0
    outer loop
      vertex 4.35319 0.308344 5.5
      vertex 2.59695 1.20319 0
      vertex 4.35319 0.308344 0
    endloop
  endfacet
  facet normal -0.156434 -0.987688 0
    outer loop
      vertex 4.35319 0.308344 0
      vertex 6.3 0 5.5
      vertex 4.35319 0.308344 5.5
    endloop
  endfacet
  facet normal -0.156434 -0.987688 -0
    outer loop
      vertex 6.3 0 5.5
      vertex 4.35319 0.308344 0
      vertex 6.3 0 0
    endloop
  endfacet
  facet normal -0.891007 -0.45399 0
    outer loop
      vertex 1.20319 2.59695 0
      vertex 0.308344 4.35319 5.5
      vertex 0.308344 4.35319 0
    endloop
  endfacet
  facet normal -0.891007 -0.45399 0
    outer loop
      vertex 0.308344 4.35319 5.5
      vertex 1.20319 2.59695 0
      vertex 1.20319 2.59695 5.5
    endloop
  endfacet
  facet normal 0.987688 0.156434 0
    outer loop
      vertex 90 6.3 5.5
      vertex 89.6917 8.24681 0
      vertex 89.6917 8.24681 5.5
    endloop
  endfacet
  facet normal 0.987688 0.156434 0
    outer loop
      vertex 89.6917 8.24681 0
      vertex 90 6.3 5.5
      vertex 90 6.3 0
    endloop
  endfacet
  facet normal 0.156434 -0.987688 0
    outer loop
      vertex 83.7 0 0
      vertex 85.6468 0.308344 5.5
      vertex 83.7 0 5.5
    endloop
  endfacet
  facet normal 0.156434 -0.987688 0
    outer loop
      vertex 85.6468 0.308344 5.5
      vertex 83.7 0 0
      vertex 85.6468 0.308344 0
    endloop
  endfacet
  facet normal 0.45399 -0.891007 0
    outer loop
      vertex 85.6468 0.308344 0
      vertex 87.403 1.20319 5.5
      vertex 85.6468 0.308344 5.5
    endloop
  endfacet
  facet normal 0.45399 -0.891007 0
    outer loop
      vertex 87.403 1.20319 5.5
      vertex 85.6468 0.308344 0
      vertex 87.403 1.20319 0
    endloop
  endfacet
  facet normal 0.707107 0.707107 -0
    outer loop
      vertex 88.7968 10.003 0
      vertex 87.403 11.3968 5.5
      vertex 88.7968 10.003 5.5
    endloop
  endfacet
  facet normal 0.707107 0.707107 0
    outer loop
      vertex 87.403 11.3968 5.5
      vertex 88.7968 10.003 0
      vertex 87.403 11.3968 0
    endloop
  endfacet
  facet normal 0.891006 0.453991 0
    outer loop
      vertex 89.6917 8.24681 5.5
      vertex 88.7968 10.003 0
      vertex 88.7968 10.003 5.5
    endloop
  endfacet
  facet normal 0.891006 0.453991 0
    outer loop
      vertex 88.7968 10.003 0
      vertex 89.6917 8.24681 5.5
      vertex 89.6917 8.24681 0
    endloop
  endfacet
  facet normal 0.45399 0.891007 -0
    outer loop
      vertex 87.403 11.3968 0
      vertex 85.6468 12.2917 5.5
      vertex 87.403 11.3968 5.5
    endloop
  endfacet
  facet normal 0.45399 0.891007 0
    outer loop
      vertex 85.6468 12.2917 5.5
      vertex 87.403 11.3968 0
      vertex 85.6468 12.2917 0
    endloop
  endfacet
  facet normal 0.156434 0.987688 -0
    outer loop
      vertex 85.6468 12.2917 0
      vertex 83.7 12.6 5.5
      vertex 85.6468 12.2917 5.5
    endloop
  endfacet
  facet normal 0.156434 0.987688 0
    outer loop
      vertex 83.7 12.6 5.5
      vertex 85.6468 12.2917 0
      vertex 83.7 12.6 0
    endloop
  endfacet
  facet normal 0.707107 -0.707107 0
    outer loop
      vertex 87.403 1.20319 0
      vertex 88.7968 2.59695 5.5
      vertex 87.403 1.20319 5.5
    endloop
  endfacet
  facet normal 0.707107 -0.707107 0
    outer loop
      vertex 88.7968 2.59695 5.5
      vertex 87.403 1.20319 0
      vertex 88.7968 2.59695 0
    endloop
  endfacet
  facet normal 0.891006 -0.453992 0
    outer loop
      vertex 88.7968 2.59695 5.5
      vertex 89.6917 4.35319 0
      vertex 89.6917 4.35319 5.5
    endloop
  endfacet
  facet normal 0.891006 -0.453992 0
    outer loop
      vertex 89.6917 4.35319 0
      vertex 88.7968 2.59695 5.5
      vertex 88.7968 2.59695 0
    endloop
  endfacet
  facet normal 0.987688 -0.156434 0
    outer loop
      vertex 89.6917 4.35319 5.5
      vertex 90 6.3 0
      vertex 90 6.3 5.5
    endloop
  endfacet
  facet normal 0.987688 -0.156434 0
    outer loop
      vertex 90 6.3 0
      vertex 89.6917 4.35319 5.5
      vertex 89.6917 4.35319 0
    endloop
  endfacet
  facet normal -0.900969 -0.433884 0
    outer loop
      vertex 8.3 6.3 0
      vertex 7.54698 7.86366 5.5
      vertex 7.54698 7.86366 0
    endloop
  endfacet
  facet normal -0.900969 -0.433884 0
    outer loop
      vertex 7.54698 7.86366 5.5
      vertex 8.3 6.3 0
      vertex 8.3 6.3 5.5
    endloop
  endfacet
  facet normal 1 -0 0
    outer loop
      vertex 4.49806 5.43223 5.5
      vertex 4.49806 7.16777 0
      vertex 4.49806 7.16777 5.5
    endloop
  endfacet
  facet normal 1 0 0
    outer loop
      vertex 4.49806 7.16777 0
      vertex 4.49806 5.43223 5.5
      vertex 4.49806 5.43223 0
    endloop
  endfacet
  facet normal -0.222521 -0.974928 0
    outer loop
      vertex 5.85496 8.24986 0
      vertex 7.54698 7.86366 5.5
      vertex 5.85496 8.24986 5.5
    endloop
  endfacet
  facet normal -0.222521 -0.974928 -0
    outer loop
      vertex 7.54698 7.86366 5.5
      vertex 5.85496 8.24986 0
      vertex 7.54698 7.86366 0
    endloop
  endfacet
  facet normal 0.62349 -0.781831 0
    outer loop
      vertex 4.49806 7.16777 0
      vertex 5.85496 8.24986 5.5
      vertex 4.49806 7.16777 5.5
    endloop
  endfacet
  facet normal 0.62349 -0.781831 0
    outer loop
      vertex 5.85496 8.24986 5.5
      vertex 4.49806 7.16777 0
      vertex 5.85496 8.24986 0
    endloop
  endfacet
  facet normal -0.900969 0.433884 0
    outer loop
      vertex 7.54698 4.73634 0
      vertex 8.3 6.3 5.5
      vertex 8.3 6.3 0
    endloop
  endfacet
  facet normal -0.900969 0.433884 0
    outer loop
      vertex 8.3 6.3 5.5
      vertex 7.54698 4.73634 0
      vertex 7.54698 4.73634 5.5
    endloop
  endfacet
  facet normal -0.222521 0.974928 0
    outer loop
      vertex 7.54698 4.73634 0
      vertex 5.85496 4.35014 5.5
      vertex 7.54698 4.73634 5.5
    endloop
  endfacet
  facet normal -0.222521 0.974928 0
    outer loop
      vertex 5.85496 4.35014 5.5
      vertex 7.54698 4.73634 0
      vertex 5.85496 4.35014 0
    endloop
  endfacet
  facet normal 0.62349 0.781831 -0
    outer loop
      vertex 5.85496 4.35014 0
      vertex 4.49806 5.43223 5.5
      vertex 5.85496 4.35014 5.5
    endloop
  endfacet
  facet normal 0.62349 0.781831 0
    outer loop
      vertex 4.49806 5.43223 5.5
      vertex 5.85496 4.35014 0
      vertex 4.49806 5.43223 0
    endloop
  endfacet
  facet normal -0.809019 -0.587783 0
    outer loop
      vertex 84.7 6.3 0
      vertex 84.009 7.25106 5.5
      vertex 84.009 7.25106 0
    endloop
  endfacet
  facet normal -0.809019 -0.587783 0
    outer loop
      vertex 84.009 7.25106 5.5
      vertex 84.7 6.3 0
      vertex 84.7 6.3 5.5
    endloop
  endfacet
  facet normal 1 -0 0
    outer loop
      vertex 82.891 5.71221 5.5
      vertex 82.891 6.88778 0
      vertex 82.891 6.88778 5.5
    endloop
  endfacet
  facet normal 1 0 0
    outer loop
      vertex 82.891 6.88778 0
      vertex 82.891 5.71221 5.5
      vertex 82.891 5.71221 0
    endloop
  endfacet
  facet normal 0.309017 -0.951057 0
    outer loop
      vertex 82.891 6.88778 0
      vertex 84.009 7.25106 5.5
      vertex 82.891 6.88778 5.5
    endloop
  endfacet
  facet normal 0.309017 -0.951057 0
    outer loop
      vertex 84.009 7.25106 5.5
      vertex 82.891 6.88778 0
      vertex 84.009 7.25106 0
    endloop
  endfacet
  facet normal 0.309017 0.951056 -0
    outer loop
      vertex 84.009 5.34894 0
      vertex 82.891 5.71221 5.5
      vertex 84.009 5.34894 5.5
    endloop
  endfacet
  facet normal 0.309017 0.951056 0
    outer loop
      vertex 82.891 5.71221 5.5
      vertex 84.009 5.34894 0
      vertex 82.891 5.71221 0
    endloop
  endfacet
  facet normal -0.809019 0.587783 0
    outer loop
      vertex 84.009 5.34894 0
      vertex 84.7 6.3 5.5
      vertex 84.7 6.3 0
    endloop
  endfacet
  facet normal -0.809019 0.587783 0
    outer loop
      vertex 84.7 6.3 5.5
      vertex 84.009 5.34894 0
      vertex 84.009 5.34894 5.5
    endloop
  endfacet
endsolid OpenSCAD_Model
