solid OpenSCAD_Model
  facet normal 0 0 -1
    outer loop
      vertex 90 0 0
      vertex 86 2.5 0
      vertex 90 20 0
    endloop
  endfacet
  facet normal 0 0 -1
    outer loop
      vertex 90 0 0
      vertex 82 2.5 0
      vertex 86 2.5 0
    endloop
  endfacet
  facet normal -0 0 -1
    outer loop
      vertex 82 2.5 0
      vertex 60.45 0 0
      vertex 82 17.5 0
    endloop
  endfacet
  facet normal 0 0 -1
    outer loop
      vertex 60.45 0 0
      vertex 82 2.5 0
      vertex 90 0 0
    endloop
  endfacet
  facet normal 0 0 -1
    outer loop
      vertex 86 17.5 0
      vertex 90 20 0
      vertex 86 2.5 0
    endloop
  endfacet
  facet normal 0 0 -1
    outer loop
      vertex 82 17.5 0
      vertex 90 20 0
      vertex 86 17.5 0
    endloop
  endfacet
  facet normal 0 0 -1
    outer loop
      vertex 82 17.5 0
      vertex 60.45 20 0
      vertex 90 20 0
    endloop
  endfacet
  facet normal 0 0 -1
    outer loop
      vertex 60.45 20 0
      vertex 82 17.5 0
      vertex 60.45 0 0
    endloop
  endfacet
  facet normal 0 0 -1
    outer loop
      vertex 29.55 0 0
      vertex 8 2.5 0
      vertex 29.55 20 0
    endloop
  endfacet
  facet normal 0 0 -1
    outer loop
      vertex 0 0 0
      vertex 8 2.5 0
      vertex 29.55 0 0
    endloop
  endfacet
  facet normal -0 0 -1
    outer loop
      vertex 4 2.5 0
      vertex 0 0 0
      vertex 4 17.5 0
    endloop
  endfacet
  facet normal -0 0 -1
    outer loop
      vertex 8 2.5 0
      vertex 0 0 0
      vertex 4 2.5 0
    endloop
  endfacet
  facet normal 0 0 -1
    outer loop
      vertex 8 17.5 0
      vertex 29.55 20 0
      vertex 8 2.5 0
    endloop
  endfacet
  facet normal 0 0 -1
    outer loop
      vertex 0 20 0
      vertex 8 17.5 0
      vertex 4 17.5 0
    endloop
  endfacet
  facet normal 0 0 -1
    outer loop
      vertex 8 17.5 0
      vertex 0 20 0
      vertex 29.55 20 0
    endloop
  endfacet
  facet normal 0 0 -1
    outer loop
      vertex 0 20 0
      vertex 4 17.5 0
      vertex 0 0 0
    endloop
  endfacet
  facet normal 1 -0 0
    outer loop
      vertex 90 0 10
      vertex 90 20 0
      vertex 90 20 10
    endloop
  endfacet
  facet normal 1 0 0
    outer loop
      vertex 90 20 0
      vertex 90 0 10
      vertex 90 0 0
    endloop
  endfacet
  facet normal -1 0 0
    outer loop
      vertex 0 0 0
      vertex 0 20 10
      vertex 0 20 0
    endloop
  endfacet
  facet normal -1 -0 0
    outer loop
      vertex 0 20 10
      vertex 0 0 0
      vertex 0 0 10
    endloop
  endfacet
  facet normal 0 -1 0
    outer loop
      vertex 0 0 10
      vertex 0 0 0
      vertex 15 0 10
    endloop
  endfacet
  facet normal 0 -1 0
    outer loop
      vertex 15 0 40
      vertex 43.385 0 32.8154
      vertex 75 0 40
    endloop
  endfacet
  facet normal 0 -1 0
    outer loop
      vertex 46.615 0 32.8154
      vertex 75 0 40
      vertex 43.385 0 32.8154
    endloop
  endfacet
  facet normal 0 -1 0
    outer loop
      vertex 49.7743 0 32.1438
      vertex 75 0 40
      vertex 46.615 0 32.8154
    endloop
  endfacet
  facet normal 0 -1 0
    outer loop
      vertex 23.7678 0 33.7678
      vertex 40.2257 0 32.1438
      vertex 43.385 0 32.8154
    endloop
  endfacet
  facet normal 0 -1 0
    outer loop
      vertex 34.6619 0 28.9316
      vertex 23.7678 0 33.7678
      vertex 24.5 0 32
    endloop
  endfacet
  facet normal 0 -1 0
    outer loop
      vertex 23.7678 0 33.7678
      vertex 37.275 0 30.8301
      vertex 40.2257 0 32.1438
    endloop
  endfacet
  facet normal 0 -1 0
    outer loop
      vertex 32.5007 0 26.5313
      vertex 24.5 0 32
      vertex 23.7678 0 30.2322
    endloop
  endfacet
  facet normal 0 -1 0
    outer loop
      vertex 30.8857 0 23.7341
      vertex 23.7678 0 30.2322
      vertex 22 0 29.5
    endloop
  endfacet
  facet normal 0 -1 0
    outer loop
      vertex 23.7678 0 33.7678
      vertex 34.6619 0 28.9316
      vertex 37.275 0 30.8301
    endloop
  endfacet
  facet normal 0 -1 0
    outer loop
      vertex 23.7678 0 33.7678
      vertex 15 0 40
      vertex 22 0 34.5
    endloop
  endfacet
  facet normal 0 -1 0
    outer loop
      vertex 15 0 40
      vertex 20.2322 0 33.7678
      vertex 22 0 34.5
    endloop
  endfacet
  facet normal 0 -1 0
    outer loop
      vertex 15 0 40
      vertex 19.5 0 32
      vertex 20.2322 0 33.7678
    endloop
  endfacet
  facet normal 0 -1 0
    outer loop
      vertex 15 0 10
      vertex 19.5 0 32
      vertex 15 0 40
    endloop
  endfacet
  facet normal 0 -1 0
    outer loop
      vertex 24.5 0 32
      vertex 32.5007 0 26.5313
      vertex 34.6619 0 28.9316
    endloop
  endfacet
  facet normal 0 -1 0
    outer loop
      vertex 23.7678 0 30.2322
      vertex 30.8857 0 23.7341
      vertex 32.5007 0 26.5313
    endloop
  endfacet
  facet normal 0 -1 0
    outer loop
      vertex 15 0 10
      vertex 22 0 29.5
      vertex 20.2322 0 30.2322
    endloop
  endfacet
  facet normal 0 -1 0
    outer loop
      vertex 22 0 29.5
      vertex 29.8876 0 20.6622
      vertex 30.8857 0 23.7341
    endloop
  endfacet
  facet normal 0 -1 0
    outer loop
      vertex 22 0 29.5
      vertex 29.55 0 17.45
      vertex 29.8876 0 20.6622
    endloop
  endfacet
  facet normal 0 -1 -0
    outer loop
      vertex 19.5 0 32
      vertex 15 0 10
      vertex 20.2322 0 30.2322
    endloop
  endfacet
  facet normal 0 -1 -0
    outer loop
      vertex 22 0 29.5
      vertex 15 0 10
      vertex 29.55 0 17.45
    endloop
  endfacet
  facet normal 0 -1 0
    outer loop
      vertex 29.55 0 0
      vertex 15 0 10
      vertex 0 0 0
    endloop
  endfacet
  facet normal 0 -1 0
    outer loop
      vertex 15 0 10
      vertex 29.55 0 0
      vertex 29.55 0 17.45
    endloop
  endfacet
  facet normal 0 -1 0
    outer loop
      vertex 43.385 0 32.8154
      vertex 15 0 40
      vertex 23.7678 0 33.7678
    endloop
  endfacet
  facet normal 0 -1 0
    outer loop
      vertex 69.7678 0 33.7678
      vertex 75 0 40
      vertex 68 0 34.5
    endloop
  endfacet
  facet normal 0 -1 0
    outer loop
      vertex 70.5 0 32
      vertex 75 0 40
      vertex 69.7678 0 33.7678
    endloop
  endfacet
  facet normal 0 -1 0
    outer loop
      vertex 75 0 10
      vertex 70.5 0 32
      vertex 69.7678 0 30.2322
    endloop
  endfacet
  facet normal 0 -1 0
    outer loop
      vertex 59.1143 0 23.7341
      vertex 66.2322 0 30.2322
      vertex 57.4993 0 26.5313
    endloop
  endfacet
  facet normal 0 -1 -0
    outer loop
      vertex 66.2322 0 30.2322
      vertex 59.1143 0 23.7341
      vertex 68 0 29.5
    endloop
  endfacet
  facet normal 0 -1 0
    outer loop
      vertex 60.1124 0 20.6622
      vertex 68 0 29.5
      vertex 59.1143 0 23.7341
    endloop
  endfacet
  facet normal 0 -1 0
    outer loop
      vertex 60.45 0 17.45
      vertex 68 0 29.5
      vertex 60.1124 0 20.6622
    endloop
  endfacet
  facet normal 0 -1 0
    outer loop
      vertex 75 0 10
      vertex 68 0 29.5
      vertex 60.45 0 17.45
    endloop
  endfacet
  facet normal 0 -1 0
    outer loop
      vertex 70.5 0 32
      vertex 75 0 10
      vertex 75 0 40
    endloop
  endfacet
  facet normal 0 -1 0
    outer loop
      vertex 68 0 29.5
      vertex 75 0 10
      vertex 69.7678 0 30.2322
    endloop
  endfacet
  facet normal 0 -1 0
    outer loop
      vertex 60.45 0 0
      vertex 75 0 10
      vertex 60.45 0 17.45
    endloop
  endfacet
  facet normal 0 -1 0
    outer loop
      vertex 90 0 0
      vertex 75 0 10
      vertex 60.45 0 0
    endloop
  endfacet
  facet normal 0 -1 0
    outer loop
      vertex 75 0 10
      vertex 90 0 0
      vertex 90 0 10
    endloop
  endfacet
  facet normal 0 -1 0
    outer loop
      vertex 75 0 40
      vertex 66.2322 0 33.7678
      vertex 68 0 34.5
    endloop
  endfacet
  facet normal 0 -1 0
    outer loop
      vertex 75 0 40
      vertex 49.7743 0 32.1438
      vertex 66.2322 0 33.7678
    endloop
  endfacet
  facet normal 0 -1 0
    outer loop
      vertex 52.725 0 30.8301
      vertex 66.2322 0 33.7678
      vertex 49.7743 0 32.1438
    endloop
  endfacet
  facet normal 0 -1 0
    outer loop
      vertex 55.3381 0 28.9316
      vertex 66.2322 0 33.7678
      vertex 52.725 0 30.8301
    endloop
  endfacet
  facet normal 0 -1 0
    outer loop
      vertex 66.2322 0 33.7678
      vertex 55.3381 0 28.9316
      vertex 65.5 0 32
    endloop
  endfacet
  facet normal 0 -1 0
    outer loop
      vertex 57.4993 0 26.5313
      vertex 65.5 0 32
      vertex 55.3381 0 28.9316
    endloop
  endfacet
  facet normal 0 -1 -0
    outer loop
      vertex 65.5 0 32
      vertex 57.4993 0 26.5313
      vertex 66.2322 0 30.2322
    endloop
  endfacet
  facet normal 0 1 0
    outer loop
      vertex 90 20 10
      vertex 90 20 0
      vertex 75 20 10
    endloop
  endfacet
  facet normal 0 1 0
    outer loop
      vertex 75 20 40
      vertex 46.615 20 32.8154
      vertex 15 20 40
    endloop
  endfacet
  facet normal 0 1 -0
    outer loop
      vertex 43.385 20 32.8154
      vertex 15 20 40
      vertex 46.615 20 32.8154
    endloop
  endfacet
  facet normal 0 1 -0
    outer loop
      vertex 40.2257 20 32.1438
      vertex 15 20 40
      vertex 43.385 20 32.8154
    endloop
  endfacet
  facet normal 0 1 0
    outer loop
      vertex 66.2322 20 33.7678
      vertex 49.7743 20 32.1438
      vertex 46.615 20 32.8154
    endloop
  endfacet
  facet normal 0 1 0
    outer loop
      vertex 55.3381 20 28.9316
      vertex 66.2322 20 33.7678
      vertex 65.5 20 32
    endloop
  endfacet
  facet normal 0 1 0
    outer loop
      vertex 66.2322 20 33.7678
      vertex 52.725 20 30.8301
      vertex 49.7743 20 32.1438
    endloop
  endfacet
  facet normal 0 1 0
    outer loop
      vertex 57.4993 20 26.5313
      vertex 65.5 20 32
      vertex 66.2322 20 30.2322
    endloop
  endfacet
  facet normal 0 1 0
    outer loop
      vertex 59.1143 20 23.7341
      vertex 66.2322 20 30.2322
      vertex 68 20 29.5
    endloop
  endfacet
  facet normal 0 1 0
    outer loop
      vertex 66.2322 20 33.7678
      vertex 55.3381 20 28.9316
      vertex 52.725 20 30.8301
    endloop
  endfacet
  facet normal 0 1 0
    outer loop
      vertex 66.2322 20 33.7678
      vertex 75 20 40
      vertex 68 20 34.5
    endloop
  endfacet
  facet normal 0 1 0
    outer loop
      vertex 75 20 40
      vertex 69.7678 20 33.7678
      vertex 68 20 34.5
    endloop
  endfacet
  facet normal 0 1 0
    outer loop
      vertex 75 20 40
      vertex 70.5 20 32
      vertex 69.7678 20 33.7678
    endloop
  endfacet
  facet normal 0 1 -0
    outer loop
      vertex 75 20 10
      vertex 70.5 20 32
      vertex 75 20 40
    endloop
  endfacet
  facet normal 0 1 0
    outer loop
      vertex 65.5 20 32
      vertex 57.4993 20 26.5313
      vertex 55.3381 20 28.9316
    endloop
  endfacet
  facet normal 0 1 0
    outer loop
      vertex 66.2322 20 30.2322
      vertex 59.1143 20 23.7341
      vertex 57.4993 20 26.5313
    endloop
  endfacet
  facet normal 0 1 0
    outer loop
      vertex 75 20 10
      vertex 68 20 29.5
      vertex 69.7678 20 30.2322
    endloop
  endfacet
  facet normal 0 1 0
    outer loop
      vertex 68 20 29.5
      vertex 60.1124 20 20.6622
      vertex 59.1143 20 23.7341
    endloop
  endfacet
  facet normal 0 1 0
    outer loop
      vertex 68 20 29.5
      vertex 60.45 20 17.45
      vertex 60.1124 20 20.6622
    endloop
  endfacet
  facet normal 0 1 0
    outer loop
      vertex 70.5 20 32
      vertex 75 20 10
      vertex 69.7678 20 30.2322
    endloop
  endfacet
  facet normal 0 1 0
    outer loop
      vertex 68 20 29.5
      vertex 75 20 10
      vertex 60.45 20 17.45
    endloop
  endfacet
  facet normal 0 1 0
    outer loop
      vertex 60.45 20 0
      vertex 75 20 10
      vertex 90 20 0
    endloop
  endfacet
  facet normal 0 1 0
    outer loop
      vertex 75 20 10
      vertex 60.45 20 0
      vertex 60.45 20 17.45
    endloop
  endfacet
  facet normal 0 1 0
    outer loop
      vertex 46.615 20 32.8154
      vertex 75 20 40
      vertex 66.2322 20 33.7678
    endloop
  endfacet
  facet normal 0 1 -0
    outer loop
      vertex 20.2322 20 33.7678
      vertex 15 20 40
      vertex 22 20 34.5
    endloop
  endfacet
  facet normal 0 1 -0
    outer loop
      vertex 19.5 20 32
      vertex 15 20 40
      vertex 20.2322 20 33.7678
    endloop
  endfacet
  facet normal 0 1 0
    outer loop
      vertex 15 20 10
      vertex 19.5 20 32
      vertex 20.2322 20 30.2322
    endloop
  endfacet
  facet normal 0 1 -0
    outer loop
      vertex 30.8857 20 23.7341
      vertex 23.7678 20 30.2322
      vertex 32.5007 20 26.5313
    endloop
  endfacet
  facet normal 0 1 0
    outer loop
      vertex 23.7678 20 30.2322
      vertex 30.8857 20 23.7341
      vertex 22 20 29.5
    endloop
  endfacet
  facet normal 0 1 -0
    outer loop
      vertex 29.8876 20 20.6622
      vertex 22 20 29.5
      vertex 30.8857 20 23.7341
    endloop
  endfacet
  facet normal 0 1 -0
    outer loop
      vertex 29.55 20 17.45
      vertex 22 20 29.5
      vertex 29.8876 20 20.6622
    endloop
  endfacet
  facet normal 0 1 0
    outer loop
      vertex 15 20 10
      vertex 22 20 29.5
      vertex 29.55 20 17.45
    endloop
  endfacet
  facet normal 0 1 0
    outer loop
      vertex 19.5 20 32
      vertex 15 20 10
      vertex 15 20 40
    endloop
  endfacet
  facet normal 0 1 0
    outer loop
      vertex 22 20 29.5
      vertex 15 20 10
      vertex 20.2322 20 30.2322
    endloop
  endfacet
  facet normal 0 1 -0
    outer loop
      vertex 29.55 20 0
      vertex 15 20 10
      vertex 29.55 20 17.45
    endloop
  endfacet
  facet normal 0 1 0
    outer loop
      vertex 0 20 0
      vertex 15 20 10
      vertex 29.55 20 0
    endloop
  endfacet
  facet normal 0 1 0
    outer loop
      vertex 15 20 10
      vertex 0 20 0
      vertex 0 20 10
    endloop
  endfacet
  facet normal 0 1 0
    outer loop
      vertex 15 20 40
      vertex 23.7678 20 33.7678
      vertex 22 20 34.5
    endloop
  endfacet
  facet normal 0 1 0
    outer loop
      vertex 15 20 40
      vertex 40.2257 20 32.1438
      vertex 23.7678 20 33.7678
    endloop
  endfacet
  facet normal 0 1 -0
    outer loop
      vertex 37.275 20 30.8301
      vertex 23.7678 20 33.7678
      vertex 40.2257 20 32.1438
    endloop
  endfacet
  facet normal 0 1 -0
    outer loop
      vertex 34.6619 20 28.9316
      vertex 23.7678 20 33.7678
      vertex 37.275 20 30.8301
    endloop
  endfacet
  facet normal 0 1 0
    outer loop
      vertex 23.7678 20 33.7678
      vertex 34.6619 20 28.9316
      vertex 24.5 20 32
    endloop
  endfacet
  facet normal 0 1 -0
    outer loop
      vertex 32.5007 20 26.5313
      vertex 24.5 20 32
      vertex 34.6619 20 28.9316
    endloop
  endfacet
  facet normal 0 1 0
    outer loop
      vertex 24.5 20 32
      vertex 32.5007 20 26.5313
      vertex 23.7678 20 30.2322
    endloop
  endfacet
  facet normal -0 0 1
    outer loop
      vertex 15 20 40
      vertex 75 0 40
      vertex 75 20 40
    endloop
  endfacet
  facet normal 0 0 1
    outer loop
      vertex 75 0 40
      vertex 15 20 40
      vertex 15 0 40
    endloop
  endfacet
  facet normal 0 0 1
    outer loop
      vertex 15 20 10
      vertex 8 17.5 10
      vertex 15 0 10
    endloop
  endfacet
  facet normal -0 0 1
    outer loop
      vertex 0 20 10
      vertex 8 17.5 10
      vertex 15 20 10
    endloop
  endfacet
  facet normal 0 0 1
    outer loop
      vertex 4 17.5 10
      vertex 0 20 10
      vertex 4 2.5 10
    endloop
  endfacet
  facet normal 0 0 1
    outer loop
      vertex 8 17.5 10
      vertex 0 20 10
      vertex 4 17.5 10
    endloop
  endfacet
  facet normal -0 0 1
    outer loop
      vertex 8 2.5 10
      vertex 15 0 10
      vertex 8 17.5 10
    endloop
  endfacet
  facet normal 0 0 1
    outer loop
      vertex 0 0 10
      vertex 8 2.5 10
      vertex 4 2.5 10
    endloop
  endfacet
  facet normal 0 0 1
    outer loop
      vertex 8 2.5 10
      vertex 0 0 10
      vertex 15 0 10
    endloop
  endfacet
  facet normal 0 0 1
    outer loop
      vertex 0 0 10
      vertex 4 2.5 10
      vertex 0 20 10
    endloop
  endfacet
  facet normal -1 0 0
    outer loop
      vertex 15 0 10
      vertex 15 20 40
      vertex 15 20 10
    endloop
  endfacet
  facet normal -1 -0 0
    outer loop
      vertex 15 20 40
      vertex 15 0 10
      vertex 15 0 40
    endloop
  endfacet
  facet normal 0 0 1
    outer loop
      vertex 90 20 10
      vertex 86 17.5 10
      vertex 90 0 10
    endloop
  endfacet
  facet normal 0 0 1
    outer loop
      vertex 90 20 10
      vertex 82 17.5 10
      vertex 86 17.5 10
    endloop
  endfacet
  facet normal 0 0 1
    outer loop
      vertex 82 17.5 10
      vertex 75 20 10
      vertex 82 2.5 10
    endloop
  endfacet
  facet normal -0 0 1
    outer loop
      vertex 75 20 10
      vertex 82 17.5 10
      vertex 90 20 10
    endloop
  endfacet
  facet normal -0 0 1
    outer loop
      vertex 86 2.5 10
      vertex 90 0 10
      vertex 86 17.5 10
    endloop
  endfacet
  facet normal -0 0 1
    outer loop
      vertex 82 2.5 10
      vertex 90 0 10
      vertex 86 2.5 10
    endloop
  endfacet
  facet normal 0 0 1
    outer loop
      vertex 82 2.5 10
      vertex 75 0 10
      vertex 90 0 10
    endloop
  endfacet
  facet normal 0 0 1
    outer loop
      vertex 75 0 10
      vertex 82 2.5 10
      vertex 75 20 10
    endloop
  endfacet
  facet normal 1 -0 0
    outer loop
      vertex 75 0 40
      vertex 75 20 10
      vertex 75 20 40
    endloop
  endfacet
  facet normal 1 0 0
    outer loop
      vertex 75 20 10
      vertex 75 0 40
      vertex 75 0 10
    endloop
  endfacet
  facet normal 1 -0 0
    outer loop
      vertex 4 2.5 10
      vertex 4 17.5 0
      vertex 4 17.5 10
    endloop
  endfacet
  facet normal 1 0 0
    outer loop
      vertex 4 17.5 0
      vertex 4 2.5 10
      vertex 4 2.5 0
    endloop
  endfacet
  facet normal -1 0 0
    outer loop
      vertex 8 2.5 0
      vertex 8 17.5 10
      vertex 8 17.5 0
    endloop
  endfacet
  facet normal -1 -0 0
    outer loop
      vertex 8 17.5 10
      vertex 8 2.5 0
      vertex 8 2.5 10
    endloop
  endfacet
  facet normal 0 -1 0
    outer loop
      vertex 4 17.5 0
      vertex 8 17.5 10
      vertex 4 17.5 10
    endloop
  endfacet
  facet normal 0 -1 -0
    outer loop
      vertex 8 17.5 10
      vertex 4 17.5 0
      vertex 8 17.5 0
    endloop
  endfacet
  facet normal 0 1 -0
    outer loop
      vertex 8 2.5 0
      vertex 4 2.5 10
      vertex 8 2.5 10
    endloop
  endfacet
  facet normal 0 1 0
    outer loop
      vertex 4 2.5 10
      vertex 8 2.5 0
      vertex 4 2.5 0
    endloop
  endfacet
  facet normal 1 -0 0
    outer loop
      vertex 82 2.5 10
      vertex 82 17.5 0
      vertex 82 17.5 10
    endloop
  endfacet
  facet normal 1 0 0
    outer loop
      vertex 82 17.5 0
      vertex 82 2.5 10
      vertex 82 2.5 0
    endloop
  endfacet
  facet normal -1 0 0
    outer loop
      vertex 86 2.5 0
      vertex 86 17.5 10
      vertex 86 17.5 0
    endloop
  endfacet
  facet normal -1 -0 0
    outer loop
      vertex 86 17.5 10
      vertex 86 2.5 0
      vertex 86 2.5 10
    endloop
  endfacet
  facet normal 0 -1 0
    outer loop
      vertex 82 17.5 0
      vertex 86 17.5 10
      vertex 82 17.5 10
    endloop
  endfacet
  facet normal 0 -1 -0
    outer loop
      vertex 86 17.5 10
      vertex 82 17.5 0
      vertex 86 17.5 0
    endloop
  endfacet
  facet normal 0 1 -0
    outer loop
      vertex 86 2.5 0
      vertex 82 2.5 10
      vertex 86 2.5 10
    endloop
  endfacet
  facet normal 0 1 0
    outer loop
      vertex 82 2.5 10
      vertex 86 2.5 0
      vertex 82 2.5 0
    endloop
  endfacet
  facet normal -0.92388 0 -0.382683
    outer loop
      vertex 24.5 0 32
      vertex 23.7678 20 33.7678
      vertex 24.5 20 32
    endloop
  endfacet
  facet normal -0.92388 -0 -0.382683
    outer loop
      vertex 23.7678 20 33.7678
      vertex 24.5 0 32
      vertex 23.7678 0 33.7678
    endloop
  endfacet
  facet normal -0.382683 0 -0.92388
    outer loop
      vertex 22 0 34.5
      vertex 23.7678 20 33.7678
      vertex 23.7678 0 33.7678
    endloop
  endfacet
  facet normal -0.382683 0 -0.92388
    outer loop
      vertex 23.7678 20 33.7678
      vertex 22 0 34.5
      vertex 22 20 34.5
    endloop
  endfacet
  facet normal 0.382682 0 -0.92388
    outer loop
      vertex 20.2322 0 33.7678
      vertex 22 20 34.5
      vertex 22 0 34.5
    endloop
  endfacet
  facet normal 0.382682 0 -0.92388
    outer loop
      vertex 22 20 34.5
      vertex 20.2322 0 33.7678
      vertex 20.2322 20 33.7678
    endloop
  endfacet
  facet normal -0.92388 0 0.382683
    outer loop
      vertex 23.7678 0 30.2322
      vertex 24.5 20 32
      vertex 23.7678 20 30.2322
    endloop
  endfacet
  facet normal -0.92388 0 0.382683
    outer loop
      vertex 24.5 20 32
      vertex 23.7678 0 30.2322
      vertex 24.5 0 32
    endloop
  endfacet
  facet normal 0.382682 0 0.92388
    outer loop
      vertex 20.2322 20 30.2322
      vertex 22 0 29.5
      vertex 22 20 29.5
    endloop
  endfacet
  facet normal 0.382682 0 0.92388
    outer loop
      vertex 22 0 29.5
      vertex 20.2322 20 30.2322
      vertex 20.2322 0 30.2322
    endloop
  endfacet
  facet normal 0.92388 0 -0.382682
    outer loop
      vertex 20.2322 0 33.7678
      vertex 19.5 20 32
      vertex 20.2322 20 33.7678
    endloop
  endfacet
  facet normal 0.92388 0 -0.382682
    outer loop
      vertex 19.5 20 32
      vertex 20.2322 0 33.7678
      vertex 19.5 0 32
    endloop
  endfacet
  facet normal 0.92388 -0 0.382682
    outer loop
      vertex 19.5 0 32
      vertex 20.2322 20 30.2322
      vertex 19.5 20 32
    endloop
  endfacet
  facet normal 0.92388 0 0.382682
    outer loop
      vertex 20.2322 20 30.2322
      vertex 19.5 0 32
      vertex 20.2322 0 30.2322
    endloop
  endfacet
  facet normal -0.382683 0 0.92388
    outer loop
      vertex 22 20 29.5
      vertex 23.7678 0 30.2322
      vertex 23.7678 20 30.2322
    endloop
  endfacet
  facet normal -0.382683 0 0.92388
    outer loop
      vertex 23.7678 0 30.2322
      vertex 22 20 29.5
      vertex 22 0 29.5
    endloop
  endfacet
  facet normal -0.92388 0 -0.382682
    outer loop
      vertex 70.5 0 32
      vertex 69.7678 20 33.7678
      vertex 70.5 20 32
    endloop
  endfacet
  facet normal -0.92388 -0 -0.382682
    outer loop
      vertex 69.7678 20 33.7678
      vertex 70.5 0 32
      vertex 69.7678 0 33.7678
    endloop
  endfacet
  facet normal -0.382682 0 -0.92388
    outer loop
      vertex 68 0 34.5
      vertex 69.7678 20 33.7678
      vertex 69.7678 0 33.7678
    endloop
  endfacet
  facet normal -0.382682 0 -0.92388
    outer loop
      vertex 69.7678 20 33.7678
      vertex 68 0 34.5
      vertex 68 20 34.5
    endloop
  endfacet
  facet normal 0.382682 0 -0.92388
    outer loop
      vertex 66.2322 0 33.7678
      vertex 68 20 34.5
      vertex 68 0 34.5
    endloop
  endfacet
  facet normal 0.382682 0 -0.92388
    outer loop
      vertex 68 20 34.5
      vertex 66.2322 0 33.7678
      vertex 66.2322 20 33.7678
    endloop
  endfacet
  facet normal -0.92388 0 0.382682
    outer loop
      vertex 69.7678 0 30.2322
      vertex 70.5 20 32
      vertex 69.7678 20 30.2322
    endloop
  endfacet
  facet normal -0.92388 0 0.382682
    outer loop
      vertex 70.5 20 32
      vertex 69.7678 0 30.2322
      vertex 70.5 0 32
    endloop
  endfacet
  facet normal 0.382682 0 0.92388
    outer loop
      vertex 66.2322 20 30.2322
      vertex 68 0 29.5
      vertex 68 20 29.5
    endloop
  endfacet
  facet normal 0.382682 0 0.92388
    outer loop
      vertex 68 0 29.5
      vertex 66.2322 20 30.2322
      vertex 66.2322 0 30.2322
    endloop
  endfacet
  facet normal 0.92388 0 -0.382682
    outer loop
      vertex 66.2322 0 33.7678
      vertex 65.5 20 32
      vertex 66.2322 20 33.7678
    endloop
  endfacet
  facet normal 0.92388 0 -0.382682
    outer loop
      vertex 65.5 20 32
      vertex 66.2322 0 33.7678
      vertex 65.5 0 32
    endloop
  endfacet
  facet normal 0.92388 -0 0.382682
    outer loop
      vertex 65.5 0 32
      vertex 66.2322 20 30.2322
      vertex 65.5 20 32
    endloop
  endfacet
  facet normal 0.92388 0 0.382682
    outer loop
      vertex 66.2322 20 30.2322
      vertex 65.5 0 32
      vertex 66.2322 0 30.2322
    endloop
  endfacet
  facet normal -0.382682 0 0.92388
    outer loop
      vertex 68 20 29.5
      vertex 69.7678 0 30.2322
      vertex 69.7678 20 30.2322
    endloop
  endfacet
  facet normal -0.382682 0 0.92388
    outer loop
      vertex 69.7678 0 30.2322
      vertex 68 20 29.5
      vertex 68 0 29.5
    endloop
  endfacet
  facet normal -0.994522 0 -0.104529
    outer loop
      vertex 60.45 0 17.45
      vertex 60.1124 20 20.6622
      vertex 60.45 20 17.45
    endloop
  endfacet
  facet normal -0.994522 -0 -0.104529
    outer loop
      vertex 60.1124 20 20.6622
      vertex 60.45 0 17.45
      vertex 60.1124 0 20.6622
    endloop
  endfacet
  facet normal 0.587786 0 -0.809017
    outer loop
      vertex 34.6619 0 28.9316
      vertex 37.275 20 30.8301
      vertex 37.275 0 30.8301
    endloop
  endfacet
  facet normal 0.587786 0 -0.809017
    outer loop
      vertex 37.275 20 30.8301
      vertex 34.6619 0 28.9316
      vertex 34.6619 20 28.9316
    endloop
  endfacet
  facet normal 0.994522 0 -0.104529
    outer loop
      vertex 29.8876 0 20.6622
      vertex 29.55 20 17.45
      vertex 29.8876 20 20.6622
    endloop
  endfacet
  facet normal 0.994522 0 -0.104529
    outer loop
      vertex 29.55 20 17.45
      vertex 29.8876 0 20.6622
      vertex 29.55 0 17.45
    endloop
  endfacet
  facet normal 1 -0 0
    outer loop
      vertex 29.55 0 17.45
      vertex 29.55 20 0
      vertex 29.55 20 17.45
    endloop
  endfacet
  facet normal 1 0 0
    outer loop
      vertex 29.55 20 0
      vertex 29.55 0 17.45
      vertex 29.55 0 0
    endloop
  endfacet
  facet normal -1 0 0
    outer loop
      vertex 60.45 0 0
      vertex 60.45 20 17.45
      vertex 60.45 20 0
    endloop
  endfacet
  facet normal -1 -0 0
    outer loop
      vertex 60.45 20 17.45
      vertex 60.45 0 0
      vertex 60.45 0 17.45
    endloop
  endfacet
  facet normal -0.207911 0 -0.978148
    outer loop
      vertex 46.615 0 32.8154
      vertex 49.7743 20 32.1438
      vertex 49.7743 0 32.1438
    endloop
  endfacet
  facet normal -0.207911 0 -0.978148
    outer loop
      vertex 49.7743 20 32.1438
      vertex 46.615 0 32.8154
      vertex 46.615 20 32.8154
    endloop
  endfacet
  facet normal -0.743145 0 -0.669131
    outer loop
      vertex 57.4993 0 26.5313
      vertex 55.3381 20 28.9316
      vertex 57.4993 20 26.5313
    endloop
  endfacet
  facet normal -0.743145 -0 -0.669131
    outer loop
      vertex 55.3381 20 28.9316
      vertex 57.4993 0 26.5313
      vertex 55.3381 0 28.9316
    endloop
  endfacet
  facet normal 0.743145 0 -0.669131
    outer loop
      vertex 34.6619 0 28.9316
      vertex 32.5007 20 26.5313
      vertex 34.6619 20 28.9316
    endloop
  endfacet
  facet normal 0.743145 0 -0.669131
    outer loop
      vertex 32.5007 20 26.5313
      vertex 34.6619 0 28.9316
      vertex 32.5007 0 26.5313
    endloop
  endfacet
  facet normal 0.951056 0 -0.309017
    outer loop
      vertex 30.8857 0 23.7341
      vertex 29.8876 20 20.6622
      vertex 30.8857 20 23.7341
    endloop
  endfacet
  facet normal 0.951056 0 -0.309017
    outer loop
      vertex 29.8876 20 20.6622
      vertex 30.8857 0 23.7341
      vertex 29.8876 0 20.6622
    endloop
  endfacet
  facet normal 0 0 -1
    outer loop
      vertex 43.385 0 32.8154
      vertex 46.615 20 32.8154
      vertex 46.615 0 32.8154
    endloop
  endfacet
  facet normal -0 0 -1
    outer loop
      vertex 46.615 20 32.8154
      vertex 43.385 0 32.8154
      vertex 43.385 20 32.8154
    endloop
  endfacet
  facet normal -0.406736 0 -0.913546
    outer loop
      vertex 49.7743 0 32.1438
      vertex 52.725 20 30.8301
      vertex 52.725 0 30.8301
    endloop
  endfacet
  facet normal -0.406736 0 -0.913546
    outer loop
      vertex 52.725 20 30.8301
      vertex 49.7743 0 32.1438
      vertex 49.7743 20 32.1438
    endloop
  endfacet
  facet normal 0.866025 0 -0.5
    outer loop
      vertex 32.5007 0 26.5313
      vertex 30.8857 20 23.7341
      vertex 32.5007 20 26.5313
    endloop
  endfacet
  facet normal 0.866025 0 -0.5
    outer loop
      vertex 30.8857 20 23.7341
      vertex 32.5007 0 26.5313
      vertex 30.8857 0 23.7341
    endloop
  endfacet
  facet normal 0.207911 0 -0.978148
    outer loop
      vertex 40.2257 0 32.1438
      vertex 43.385 20 32.8154
      vertex 43.385 0 32.8154
    endloop
  endfacet
  facet normal 0.207911 0 -0.978148
    outer loop
      vertex 43.385 20 32.8154
      vertex 40.2257 0 32.1438
      vertex 40.2257 20 32.1438
    endloop
  endfacet
  facet normal 0.406736 0 -0.913546
    outer loop
      vertex 37.275 0 30.8301
      vertex 40.2257 20 32.1438
      vertex 40.2257 0 32.1438
    endloop
  endfacet
  facet normal 0.406736 0 -0.913546
    outer loop
      vertex 40.2257 20 32.1438
      vertex 37.275 0 30.8301
      vertex 37.275 20 30.8301
    endloop
  endfacet
  facet normal -0.587786 0 -0.809017
    outer loop
      vertex 52.725 0 30.8301
      vertex 55.3381 20 28.9316
      vertex 55.3381 0 28.9316
    endloop
  endfacet
  facet normal -0.587786 0 -0.809017
    outer loop
      vertex 55.3381 20 28.9316
      vertex 52.725 0 30.8301
      vertex 52.725 20 30.8301
    endloop
  endfacet
  facet normal -0.866025 0 -0.5
    outer loop
      vertex 59.1143 0 23.7341
      vertex 57.4993 20 26.5313
      vertex 59.1143 20 23.7341
    endloop
  endfacet
  facet normal -0.866025 -0 -0.5
    outer loop
      vertex 57.4993 20 26.5313
      vertex 59.1143 0 23.7341
      vertex 57.4993 0 26.5313
    endloop
  endfacet
  facet normal -0.951056 0 -0.309017
    outer loop
      vertex 60.1124 0 20.6622
      vertex 59.1143 20 23.7341
      vertex 60.1124 20 20.6622
    endloop
  endfacet
  facet normal -0.951056 -0 -0.309017
    outer loop
      vertex 59.1143 20 23.7341
      vertex 60.1124 0 20.6622
      vertex 59.1143 0 23.7341
    endloop
  endfacet
endsolid OpenSCAD_Model
