solid OpenSCAD_Model
  facet normal 0 0 -1
    outer loop
      vertex 90 0 0
      vertex 87 5 0
      vertex 90 10 0
    endloop
  endfacet
  facet normal 0 0 -1
    outer loop
      vertex 90 0 0
      vertex 86.427 3.23664 0
      vertex 87 5 0
    endloop
  endfacet
  facet normal 0 0 -1
    outer loop
      vertex 90 0 0
      vertex 84.927 2.14683 0
      vertex 86.427 3.23664 0
    endloop
  endfacet
  facet normal 0 0 -1
    outer loop
      vertex 90 0 0
      vertex 83.073 2.14683 0
      vertex 84.927 2.14683 0
    endloop
  endfacet
  facet normal -0 0 -1
    outer loop
      vertex 81.573 3.23664 0
      vertex 60.45 0 0
      vertex 81 5 0
    endloop
  endfacet
  facet normal -0 0 -1
    outer loop
      vertex 83.073 2.14683 0
      vertex 60.45 0 0
      vertex 81.573 3.23664 0
    endloop
  endfacet
  facet normal 0 0 -1
    outer loop
      vertex 60.45 0 0
      vertex 83.073 2.14683 0
      vertex 90 0 0
    endloop
  endfacet
  facet normal 0 0 -1
    outer loop
      vertex 86.427 6.76336 0
      vertex 90 10 0
      vertex 87 5 0
    endloop
  endfacet
  facet normal 0 0 -1
    outer loop
      vertex 84.927 7.85317 0
      vertex 90 10 0
      vertex 86.427 6.76336 0
    endloop
  endfacet
  facet normal 0 0 -1
    outer loop
      vertex 83.073 7.85317 0
      vertex 90 10 0
      vertex 84.927 7.85317 0
    endloop
  endfacet
  facet normal 0 0 -1
    outer loop
      vertex 60.45 10 0
      vertex 81 5 0
      vertex 60.45 0 0
    endloop
  endfacet
  facet normal 0 0 -1
    outer loop
      vertex 81 5 0
      vertex 60.45 10 0
      vertex 81.573 6.76336 0
    endloop
  endfacet
  facet normal 0 0 -1
    outer loop
      vertex 83.073 7.85317 0
      vertex 60.45 10 0
      vertex 90 10 0
    endloop
  endfacet
  facet normal 0 0 -1
    outer loop
      vertex 81.573 6.76336 0
      vertex 60.45 10 0
      vertex 83.073 7.85317 0
    endloop
  endfacet
  facet normal 0 0 -1
    outer loop
      vertex 29.55 0 0
      vertex 9 5 0
      vertex 29.55 10 0
    endloop
  endfacet
  facet normal 0 0 -1
    outer loop
      vertex 29.55 0 0
      vertex 8.42705 3.23664 0
      vertex 9 5 0
    endloop
  endfacet
  facet normal 0 0 -1
    outer loop
      vertex 29.55 0 0
      vertex 6.92705 2.14683 0
      vertex 8.42705 3.23664 0
    endloop
  endfacet
  facet normal 0 0 -1
    outer loop
      vertex 0 0 0
      vertex 6.92705 2.14683 0
      vertex 29.55 0 0
    endloop
  endfacet
  facet normal -0 0 -1
    outer loop
      vertex 3.57295 3.23664 0
      vertex 0 0 0
      vertex 3 5 0
    endloop
  endfacet
  facet normal -0 0 -1
    outer loop
      vertex 5.07295 2.14683 0
      vertex 0 0 0
      vertex 3.57295 3.23664 0
    endloop
  endfacet
  facet normal -0 0 -1
    outer loop
      vertex 6.92705 2.14683 0
      vertex 0 0 0
      vertex 5.07295 2.14683 0
    endloop
  endfacet
  facet normal 0 0 -1
    outer loop
      vertex 8.42705 6.76336 0
      vertex 29.55 10 0
      vertex 9 5 0
    endloop
  endfacet
  facet normal 0 0 -1
    outer loop
      vertex 6.92705 7.85317 0
      vertex 29.55 10 0
      vertex 8.42705 6.76336 0
    endloop
  endfacet
  facet normal 0 0 -1
    outer loop
      vertex 0 10 0
      vertex 6.92705 7.85317 0
      vertex 5.07295 7.85317 0
    endloop
  endfacet
  facet normal 0 0 -1
    outer loop
      vertex 0 10 0
      vertex 3 5 0
      vertex 0 0 0
    endloop
  endfacet
  facet normal 0 0 -1
    outer loop
      vertex 6.92705 7.85317 0
      vertex 0 10 0
      vertex 29.55 10 0
    endloop
  endfacet
  facet normal 0 0 -1
    outer loop
      vertex 3.57295 6.76336 0
      vertex 0 10 0
      vertex 5.07295 7.85317 0
    endloop
  endfacet
  facet normal 0 0 -1
    outer loop
      vertex 3 5 0
      vertex 0 10 0
      vertex 3.57295 6.76336 0
    endloop
  endfacet
  facet normal 1 -0 0
    outer loop
      vertex 90 0 10
      vertex 90 10 0
      vertex 90 10 10
    endloop
  endfacet
  facet normal 1 0 0
    outer loop
      vertex 90 10 0
      vertex 90 0 10
      vertex 90 0 0
    endloop
  endfacet
  facet normal -1 0 0
    outer loop
      vertex 0 0 0
      vertex 0 10 10
      vertex 0 10 0
    endloop
  endfacet
  facet normal -1 -0 0
    outer loop
      vertex 0 10 10
      vertex 0 0 0
      vertex 0 0 10
    endloop
  endfacet
  facet normal 0 -1 0
    outer loop
      vertex 0 0 10
      vertex 0 0 0
      vertex 15 0 10
    endloop
  endfacet
  facet normal 0 -1 0
    outer loop
      vertex 43.385 0 30.3154
      vertex 22.9271 0 34.8532
      vertex 24.4271 0 33.7634
    endloop
  endfacet
  facet normal 0 -1 0
    outer loop
      vertex 22.9271 0 34.8532
      vertex 43.385 0 30.3154
      vertex 67.073 0 34.8532
    endloop
  endfacet
  facet normal 0 -1 0
    outer loop
      vertex 37.275 0 28.3301
      vertex 24.4271 0 33.7634
      vertex 25 0 32
    endloop
  endfacet
  facet normal 0 -1 0
    outer loop
      vertex 46.615 0 30.3154
      vertex 67.073 0 34.8532
      vertex 43.385 0 30.3154
    endloop
  endfacet
  facet normal 0 -1 0
    outer loop
      vertex 67.073 0 34.8532
      vertex 46.615 0 30.3154
      vertex 65.573 0 33.7634
    endloop
  endfacet
  facet normal 0 -1 0
    outer loop
      vertex 34.6619 0 26.4316
      vertex 25 0 32
      vertex 24.4271 0 30.2366
    endloop
  endfacet
  facet normal 0 -1 0
    outer loop
      vertex 24.4271 0 33.7634
      vertex 40.2257 0 29.6438
      vertex 43.385 0 30.3154
    endloop
  endfacet
  facet normal 0 -1 0
    outer loop
      vertex 30.8857 0 21.2341
      vertex 24.4271 0 30.2366
      vertex 22.9271 0 29.1468
    endloop
  endfacet
  facet normal 0 -1 0
    outer loop
      vertex 24.4271 0 33.7634
      vertex 37.275 0 28.3301
      vertex 40.2257 0 29.6438
    endloop
  endfacet
  facet normal 0 -1 0
    outer loop
      vertex 22.9271 0 34.8532
      vertex 15 0 40
      vertex 21.0729 0 34.8532
    endloop
  endfacet
  facet normal 0 -1 0
    outer loop
      vertex 15 0 40
      vertex 19.5729 0 33.7634
      vertex 21.0729 0 34.8532
    endloop
  endfacet
  facet normal 0 -1 0
    outer loop
      vertex 15 0 40
      vertex 19 0 32
      vertex 19.5729 0 33.7634
    endloop
  endfacet
  facet normal 0 -1 0
    outer loop
      vertex 15 0 10
      vertex 19 0 32
      vertex 15 0 40
    endloop
  endfacet
  facet normal 0 -1 0
    outer loop
      vertex 29.8876 0 18.1622
      vertex 22.9271 0 29.1468
      vertex 21.0729 0 29.1468
    endloop
  endfacet
  facet normal 0 -1 0
    outer loop
      vertex 25 0 32
      vertex 34.6619 0 26.4316
      vertex 37.275 0 28.3301
    endloop
  endfacet
  facet normal 0 -1 0
    outer loop
      vertex 24.4271 0 30.2366
      vertex 32.5007 0 24.0313
      vertex 34.6619 0 26.4316
    endloop
  endfacet
  facet normal 0 -1 0
    outer loop
      vertex 24.4271 0 30.2366
      vertex 30.8857 0 21.2341
      vertex 32.5007 0 24.0313
    endloop
  endfacet
  facet normal 0 -1 0
    outer loop
      vertex 15 0 10
      vertex 21.0729 0 29.1468
      vertex 19.5729 0 30.2366
    endloop
  endfacet
  facet normal 0 -1 0
    outer loop
      vertex 22.9271 0 29.1468
      vertex 29.8876 0 18.1622
      vertex 30.8857 0 21.2341
    endloop
  endfacet
  facet normal 0 -1 -0
    outer loop
      vertex 21.0729 0 29.1468
      vertex 15 0 10
      vertex 29.8876 0 18.1622
    endloop
  endfacet
  facet normal 0 -1 0
    outer loop
      vertex 29.8876 0 18.1622
      vertex 15 0 10
      vertex 29.6625 0 16.3541
    endloop
  endfacet
  facet normal 0 -1 -0
    outer loop
      vertex 19 0 32
      vertex 15 0 10
      vertex 19.5729 0 30.2366
    endloop
  endfacet
  facet normal 0 -1 0
    outer loop
      vertex 29.6625 0 16.3541
      vertex 15 0 10
      vertex 29.55 0 15.2833
    endloop
  endfacet
  facet normal 0 -1 0
    outer loop
      vertex 29.55 0 0
      vertex 15 0 10
      vertex 0 0 0
    endloop
  endfacet
  facet normal 0 -1 0
    outer loop
      vertex 15 0 10
      vertex 29.55 0 0
      vertex 29.55 0 15.2833
    endloop
  endfacet
  facet normal 0 -1 0
    outer loop
      vertex 15 0 40
      vertex 22.9271 0 34.8532
      vertex 75 0 40
    endloop
  endfacet
  facet normal 0 -1 0
    outer loop
      vertex 67.073 0 34.8532
      vertex 75 0 40
      vertex 22.9271 0 34.8532
    endloop
  endfacet
  facet normal 0 -1 0
    outer loop
      vertex 68.927 0 34.8532
      vertex 75 0 40
      vertex 67.073 0 34.8532
    endloop
  endfacet
  facet normal 0 -1 0
    outer loop
      vertex 70.427 0 33.7634
      vertex 75 0 40
      vertex 68.927 0 34.8532
    endloop
  endfacet
  facet normal 0 -1 0
    outer loop
      vertex 71 0 32
      vertex 75 0 40
      vertex 70.427 0 33.7634
    endloop
  endfacet
  facet normal 0 -1 0
    outer loop
      vertex 75 0 10
      vertex 71 0 32
      vertex 70.427 0 30.2366
    endloop
  endfacet
  facet normal 0 -1 0
    outer loop
      vertex 59.1143 0 21.2341
      vertex 65.573 0 30.2366
      vertex 57.4993 0 24.0313
    endloop
  endfacet
  facet normal 0 -1 -0
    outer loop
      vertex 65.573 0 30.2366
      vertex 59.1143 0 21.2341
      vertex 67.073 0 29.1468
    endloop
  endfacet
  facet normal 0 -1 0
    outer loop
      vertex 60.1124 0 18.1622
      vertex 67.073 0 29.1468
      vertex 59.1143 0 21.2341
    endloop
  endfacet
  facet normal 0 -1 -0
    outer loop
      vertex 67.073 0 29.1468
      vertex 60.1124 0 18.1622
      vertex 68.927 0 29.1468
    endloop
  endfacet
  facet normal 0 -1 0
    outer loop
      vertex 75 0 10
      vertex 68.927 0 29.1468
      vertex 60.1124 0 18.1622
    endloop
  endfacet
  facet normal 0 -1 0
    outer loop
      vertex 75 0 10
      vertex 60.1124 0 18.1622
      vertex 60.3375 0 16.3541
    endloop
  endfacet
  facet normal 0 -1 0
    outer loop
      vertex 75 0 10
      vertex 60.3375 0 16.3541
      vertex 60.45 0 15.2833
    endloop
  endfacet
  facet normal 0 -1 0
    outer loop
      vertex 71 0 32
      vertex 75 0 10
      vertex 75 0 40
    endloop
  endfacet
  facet normal 0 -1 0
    outer loop
      vertex 68.927 0 29.1468
      vertex 75 0 10
      vertex 70.427 0 30.2366
    endloop
  endfacet
  facet normal 0 -1 0
    outer loop
      vertex 60.45 0 0
      vertex 75 0 10
      vertex 60.45 0 15.2833
    endloop
  endfacet
  facet normal 0 -1 0
    outer loop
      vertex 90 0 0
      vertex 75 0 10
      vertex 60.45 0 0
    endloop
  endfacet
  facet normal 0 -1 0
    outer loop
      vertex 75 0 10
      vertex 90 0 0
      vertex 90 0 10
    endloop
  endfacet
  facet normal 0 -1 0
    outer loop
      vertex 49.7743 0 29.6438
      vertex 65.573 0 33.7634
      vertex 46.615 0 30.3154
    endloop
  endfacet
  facet normal 0 -1 0
    outer loop
      vertex 52.725 0 28.3301
      vertex 65.573 0 33.7634
      vertex 49.7743 0 29.6438
    endloop
  endfacet
  facet normal 0 -1 0
    outer loop
      vertex 65.573 0 33.7634
      vertex 52.725 0 28.3301
      vertex 65 0 32
    endloop
  endfacet
  facet normal 0 -1 0
    outer loop
      vertex 55.3381 0 26.4316
      vertex 65 0 32
      vertex 52.725 0 28.3301
    endloop
  endfacet
  facet normal 0 -1 0
    outer loop
      vertex 57.4993 0 24.0313
      vertex 65.573 0 30.2366
      vertex 55.3381 0 26.4316
    endloop
  endfacet
  facet normal 0 -1 -0
    outer loop
      vertex 65 0 32
      vertex 55.3381 0 26.4316
      vertex 65.573 0 30.2366
    endloop
  endfacet
  facet normal 0 1 0
    outer loop
      vertex 90 10 10
      vertex 90 10 0
      vertex 75 10 10
    endloop
  endfacet
  facet normal 0 1 0
    outer loop
      vertex 46.615 10 30.3154
      vertex 67.073 10 34.8532
      vertex 65.573 10 33.7634
    endloop
  endfacet
  facet normal 0 1 0
    outer loop
      vertex 67.073 10 34.8532
      vertex 46.615 10 30.3154
      vertex 22.9271 10 34.8532
    endloop
  endfacet
  facet normal 0 1 0
    outer loop
      vertex 52.725 10 28.3301
      vertex 65.573 10 33.7634
      vertex 65 10 32
    endloop
  endfacet
  facet normal 0 1 -0
    outer loop
      vertex 43.385 10 30.3154
      vertex 22.9271 10 34.8532
      vertex 46.615 10 30.3154
    endloop
  endfacet
  facet normal 0 1 0
    outer loop
      vertex 22.9271 10 34.8532
      vertex 43.385 10 30.3154
      vertex 24.4271 10 33.7634
    endloop
  endfacet
  facet normal 0 1 0
    outer loop
      vertex 55.3381 10 26.4316
      vertex 65 10 32
      vertex 65.573 10 30.2366
    endloop
  endfacet
  facet normal 0 1 0
    outer loop
      vertex 65.573 10 33.7634
      vertex 49.7743 10 29.6438
      vertex 46.615 10 30.3154
    endloop
  endfacet
  facet normal 0 1 0
    outer loop
      vertex 59.1143 10 21.2341
      vertex 65.573 10 30.2366
      vertex 67.073 10 29.1468
    endloop
  endfacet
  facet normal 0 1 0
    outer loop
      vertex 65.573 10 33.7634
      vertex 52.725 10 28.3301
      vertex 49.7743 10 29.6438
    endloop
  endfacet
  facet normal 0 1 0
    outer loop
      vertex 67.073 10 34.8532
      vertex 75 10 40
      vertex 68.927 10 34.8532
    endloop
  endfacet
  facet normal 0 1 0
    outer loop
      vertex 75 10 40
      vertex 70.427 10 33.7634
      vertex 68.927 10 34.8532
    endloop
  endfacet
  facet normal 0 1 0
    outer loop
      vertex 75 10 40
      vertex 71 10 32
      vertex 70.427 10 33.7634
    endloop
  endfacet
  facet normal 0 1 -0
    outer loop
      vertex 75 10 10
      vertex 71 10 32
      vertex 75 10 40
    endloop
  endfacet
  facet normal 0 1 0
    outer loop
      vertex 60.1124 10 18.1622
      vertex 67.073 10 29.1468
      vertex 68.927 10 29.1468
    endloop
  endfacet
  facet normal 0 1 0
    outer loop
      vertex 65 10 32
      vertex 55.3381 10 26.4316
      vertex 52.725 10 28.3301
    endloop
  endfacet
  facet normal 0 1 0
    outer loop
      vertex 65.573 10 30.2366
      vertex 57.4993 10 24.0313
      vertex 55.3381 10 26.4316
    endloop
  endfacet
  facet normal 0 1 0
    outer loop
      vertex 65.573 10 30.2366
      vertex 59.1143 10 21.2341
      vertex 57.4993 10 24.0313
    endloop
  endfacet
  facet normal 0 1 0
    outer loop
      vertex 75 10 10
      vertex 68.927 10 29.1468
      vertex 70.427 10 30.2366
    endloop
  endfacet
  facet normal 0 1 0
    outer loop
      vertex 67.073 10 29.1468
      vertex 60.1124 10 18.1622
      vertex 59.1143 10 21.2341
    endloop
  endfacet
  facet normal 0 1 0
    outer loop
      vertex 68.927 10 29.1468
      vertex 75 10 10
      vertex 60.1124 10 18.1622
    endloop
  endfacet
  facet normal 0 1 0
    outer loop
      vertex 71 10 32
      vertex 75 10 10
      vertex 70.427 10 30.2366
    endloop
  endfacet
  facet normal 0 1 0
    outer loop
      vertex 60.1124 10 18.1622
      vertex 75 10 10
      vertex 60.45 10 15.45
    endloop
  endfacet
  facet normal 0 1 0
    outer loop
      vertex 60.45 10 0
      vertex 75 10 10
      vertex 90 10 0
    endloop
  endfacet
  facet normal 0 1 0
    outer loop
      vertex 75 10 10
      vertex 60.45 10 0
      vertex 60.45 10 15.45
    endloop
  endfacet
  facet normal 0 1 0
    outer loop
      vertex 75 10 40
      vertex 67.073 10 34.8532
      vertex 15 10 40
    endloop
  endfacet
  facet normal 0 1 -0
    outer loop
      vertex 22.9271 10 34.8532
      vertex 15 10 40
      vertex 67.073 10 34.8532
    endloop
  endfacet
  facet normal 0 1 -0
    outer loop
      vertex 21.0729 10 34.8532
      vertex 15 10 40
      vertex 22.9271 10 34.8532
    endloop
  endfacet
  facet normal 0 1 -0
    outer loop
      vertex 19.5729 10 33.7634
      vertex 15 10 40
      vertex 21.0729 10 34.8532
    endloop
  endfacet
  facet normal 0 1 -0
    outer loop
      vertex 19 10 32
      vertex 15 10 40
      vertex 19.5729 10 33.7634
    endloop
  endfacet
  facet normal 0 1 0
    outer loop
      vertex 15 10 10
      vertex 19 10 32
      vertex 19.5729 10 30.2366
    endloop
  endfacet
  facet normal 0 1 -0
    outer loop
      vertex 30.8857 10 21.2341
      vertex 24.4271 10 30.2366
      vertex 32.5007 10 24.0313
    endloop
  endfacet
  facet normal 0 1 0
    outer loop
      vertex 24.4271 10 30.2366
      vertex 30.8857 10 21.2341
      vertex 22.9271 10 29.1468
    endloop
  endfacet
  facet normal 0 1 -0
    outer loop
      vertex 29.8876 10 18.1622
      vertex 22.9271 10 29.1468
      vertex 30.8857 10 21.2341
    endloop
  endfacet
  facet normal 0 1 0
    outer loop
      vertex 22.9271 10 29.1468
      vertex 29.8876 10 18.1622
      vertex 21.0729 10 29.1468
    endloop
  endfacet
  facet normal 0 1 0
    outer loop
      vertex 15 10 10
      vertex 21.0729 10 29.1468
      vertex 29.8876 10 18.1622
    endloop
  endfacet
  facet normal 0 1 0
    outer loop
      vertex 15 10 10
      vertex 29.8876 10 18.1622
      vertex 29.55 10 15.45
    endloop
  endfacet
  facet normal 0 1 0
    outer loop
      vertex 19 10 32
      vertex 15 10 10
      vertex 15 10 40
    endloop
  endfacet
  facet normal 0 1 0
    outer loop
      vertex 21.0729 10 29.1468
      vertex 15 10 10
      vertex 19.5729 10 30.2366
    endloop
  endfacet
  facet normal 0 1 -0
    outer loop
      vertex 29.55 10 0
      vertex 15 10 10
      vertex 29.55 10 15.45
    endloop
  endfacet
  facet normal 0 1 0
    outer loop
      vertex 0 10 0
      vertex 15 10 10
      vertex 29.55 10 0
    endloop
  endfacet
  facet normal 0 1 0
    outer loop
      vertex 15 10 10
      vertex 0 10 0
      vertex 0 10 10
    endloop
  endfacet
  facet normal 0 1 -0
    outer loop
      vertex 40.2257 10 29.6438
      vertex 24.4271 10 33.7634
      vertex 43.385 10 30.3154
    endloop
  endfacet
  facet normal 0 1 -0
    outer loop
      vertex 37.275 10 28.3301
      vertex 24.4271 10 33.7634
      vertex 40.2257 10 29.6438
    endloop
  endfacet
  facet normal 0 1 0
    outer loop
      vertex 24.4271 10 33.7634
      vertex 37.275 10 28.3301
      vertex 25 10 32
    endloop
  endfacet
  facet normal 0 1 -0
    outer loop
      vertex 34.6619 10 26.4316
      vertex 25 10 32
      vertex 37.275 10 28.3301
    endloop
  endfacet
  facet normal 0 1 -0
    outer loop
      vertex 32.5007 10 24.0313
      vertex 24.4271 10 30.2366
      vertex 34.6619 10 26.4316
    endloop
  endfacet
  facet normal 0 1 0
    outer loop
      vertex 25 10 32
      vertex 34.6619 10 26.4316
      vertex 24.4271 10 30.2366
    endloop
  endfacet
  facet normal -0 0 1
    outer loop
      vertex 15 10 40
      vertex 75 0 40
      vertex 75 10 40
    endloop
  endfacet
  facet normal 0 0 1
    outer loop
      vertex 75 0 40
      vertex 15 10 40
      vertex 15 0 40
    endloop
  endfacet
  facet normal 0 0 1
    outer loop
      vertex 15 10 10
      vertex 9 5 10
      vertex 15 0 10
    endloop
  endfacet
  facet normal 0 0 1
    outer loop
      vertex 15 10 10
      vertex 8.42705 6.76336 10
      vertex 9 5 10
    endloop
  endfacet
  facet normal 0 0 1
    outer loop
      vertex 15 10 10
      vertex 6.92705 7.85317 10
      vertex 8.42705 6.76336 10
    endloop
  endfacet
  facet normal -0 0 1
    outer loop
      vertex 0 10 10
      vertex 6.92705 7.85317 10
      vertex 15 10 10
    endloop
  endfacet
  facet normal 0 0 1
    outer loop
      vertex 3.57295 6.76336 10
      vertex 0 10 10
      vertex 3 5 10
    endloop
  endfacet
  facet normal 0 0 1
    outer loop
      vertex 5.07295 7.85317 10
      vertex 0 10 10
      vertex 3.57295 6.76336 10
    endloop
  endfacet
  facet normal 0 0 1
    outer loop
      vertex 6.92705 7.85317 10
      vertex 0 10 10
      vertex 5.07295 7.85317 10
    endloop
  endfacet
  facet normal -0 0 1
    outer loop
      vertex 8.42705 3.23664 10
      vertex 15 0 10
      vertex 9 5 10
    endloop
  endfacet
  facet normal -0 0 1
    outer loop
      vertex 6.92705 2.14683 10
      vertex 15 0 10
      vertex 8.42705 3.23664 10
    endloop
  endfacet
  facet normal 0 0 1
    outer loop
      vertex 0 0 10
      vertex 6.92705 2.14683 10
      vertex 5.07295 2.14683 10
    endloop
  endfacet
  facet normal 0 0 1
    outer loop
      vertex 0 0 10
      vertex 3 5 10
      vertex 0 10 10
    endloop
  endfacet
  facet normal 0 0 1
    outer loop
      vertex 6.92705 2.14683 10
      vertex 0 0 10
      vertex 15 0 10
    endloop
  endfacet
  facet normal 0 0 1
    outer loop
      vertex 3.57295 3.23664 10
      vertex 0 0 10
      vertex 5.07295 2.14683 10
    endloop
  endfacet
  facet normal 0 0 1
    outer loop
      vertex 3 5 10
      vertex 0 0 10
      vertex 3.57295 3.23664 10
    endloop
  endfacet
  facet normal -1 0 0
    outer loop
      vertex 15 0 10
      vertex 15 10 40
      vertex 15 10 10
    endloop
  endfacet
  facet normal -1 -0 0
    outer loop
      vertex 15 10 40
      vertex 15 0 10
      vertex 15 0 40
    endloop
  endfacet
  facet normal 0 0 1
    outer loop
      vertex 90 10 10
      vertex 87 5 10
      vertex 90 0 10
    endloop
  endfacet
  facet normal 0 0 1
    outer loop
      vertex 90 10 10
      vertex 86.427 6.76336 10
      vertex 87 5 10
    endloop
  endfacet
  facet normal 0 0 1
    outer loop
      vertex 90 10 10
      vertex 84.927 7.85317 10
      vertex 86.427 6.76336 10
    endloop
  endfacet
  facet normal 0 0 1
    outer loop
      vertex 90 10 10
      vertex 83.073 7.85317 10
      vertex 84.927 7.85317 10
    endloop
  endfacet
  facet normal 0 0 1
    outer loop
      vertex 81.573 6.76336 10
      vertex 75 10 10
      vertex 81 5 10
    endloop
  endfacet
  facet normal 0 0 1
    outer loop
      vertex 83.073 7.85317 10
      vertex 75 10 10
      vertex 81.573 6.76336 10
    endloop
  endfacet
  facet normal -0 0 1
    outer loop
      vertex 75 10 10
      vertex 83.073 7.85317 10
      vertex 90 10 10
    endloop
  endfacet
  facet normal -0 0 1
    outer loop
      vertex 86.427 3.23664 10
      vertex 90 0 10
      vertex 87 5 10
    endloop
  endfacet
  facet normal -0 0 1
    outer loop
      vertex 84.927 2.14683 10
      vertex 90 0 10
      vertex 86.427 3.23664 10
    endloop
  endfacet
  facet normal -0 0 1
    outer loop
      vertex 83.073 2.14683 10
      vertex 90 0 10
      vertex 84.927 2.14683 10
    endloop
  endfacet
  facet normal 0 0 1
    outer loop
      vertex 75 0 10
      vertex 81 5 10
      vertex 75 10 10
    endloop
  endfacet
  facet normal 0 0 1
    outer loop
      vertex 83.073 2.14683 10
      vertex 75 0 10
      vertex 90 0 10
    endloop
  endfacet
  facet normal 0 0 1
    outer loop
      vertex 81.573 3.23664 10
      vertex 75 0 10
      vertex 83.073 2.14683 10
    endloop
  endfacet
  facet normal 0 0 1
    outer loop
      vertex 81 5 10
      vertex 75 0 10
      vertex 81.573 3.23664 10
    endloop
  endfacet
  facet normal 1 -0 0
    outer loop
      vertex 75 0 40
      vertex 75 10 10
      vertex 75 10 40
    endloop
  endfacet
  facet normal 1 0 0
    outer loop
      vertex 75 10 10
      vertex 75 0 40
      vertex 75 0 10
    endloop
  endfacet
  facet normal -0.951056 -0.309017 0
    outer loop
      vertex 9 5 0
      vertex 8.42705 6.76336 10
      vertex 8.42705 6.76336 0
    endloop
  endfacet
  facet normal -0.951056 -0.309017 0
    outer loop
      vertex 8.42705 6.76336 10
      vertex 9 5 0
      vertex 9 5 10
    endloop
  endfacet
  facet normal 0 -1 0
    outer loop
      vertex 5.07295 7.85317 0
      vertex 6.92705 7.85317 10
      vertex 5.07295 7.85317 10
    endloop
  endfacet
  facet normal 0 -1 -0
    outer loop
      vertex 6.92705 7.85317 10
      vertex 5.07295 7.85317 0
      vertex 6.92705 7.85317 0
    endloop
  endfacet
  facet normal -0.587785 -0.809017 0
    outer loop
      vertex 6.92705 7.85317 0
      vertex 8.42705 6.76336 10
      vertex 6.92705 7.85317 10
    endloop
  endfacet
  facet normal -0.587785 -0.809017 -0
    outer loop
      vertex 8.42705 6.76336 10
      vertex 6.92705 7.85317 0
      vertex 8.42705 6.76336 0
    endloop
  endfacet
  facet normal 0.951057 0.309017 0
    outer loop
      vertex 3.57295 3.23664 10
      vertex 3 5 0
      vertex 3 5 10
    endloop
  endfacet
  facet normal 0.951057 0.309017 0
    outer loop
      vertex 3 5 0
      vertex 3.57295 3.23664 10
      vertex 3.57295 3.23664 0
    endloop
  endfacet
  facet normal 0.587785 -0.809017 0
    outer loop
      vertex 3.57295 6.76336 0
      vertex 5.07295 7.85317 10
      vertex 3.57295 6.76336 10
    endloop
  endfacet
  facet normal 0.587785 -0.809017 0
    outer loop
      vertex 5.07295 7.85317 10
      vertex 3.57295 6.76336 0
      vertex 5.07295 7.85317 0
    endloop
  endfacet
  facet normal -0.951056 0.309017 0
    outer loop
      vertex 8.42705 3.23664 0
      vertex 9 5 10
      vertex 9 5 0
    endloop
  endfacet
  facet normal -0.951056 0.309017 0
    outer loop
      vertex 9 5 10
      vertex 8.42705 3.23664 0
      vertex 8.42705 3.23664 10
    endloop
  endfacet
  facet normal -0.587785 0.809017 0
    outer loop
      vertex 8.42705 3.23664 0
      vertex 6.92705 2.14683 10
      vertex 8.42705 3.23664 10
    endloop
  endfacet
  facet normal -0.587785 0.809017 0
    outer loop
      vertex 6.92705 2.14683 10
      vertex 8.42705 3.23664 0
      vertex 6.92705 2.14683 0
    endloop
  endfacet
  facet normal 0.587785 0.809017 -0
    outer loop
      vertex 5.07295 2.14683 0
      vertex 3.57295 3.23664 10
      vertex 5.07295 2.14683 10
    endloop
  endfacet
  facet normal 0.587785 0.809017 0
    outer loop
      vertex 3.57295 3.23664 10
      vertex 5.07295 2.14683 0
      vertex 3.57295 3.23664 0
    endloop
  endfacet
  facet normal 0.951057 -0.309017 0
    outer loop
      vertex 3 5 10
      vertex 3.57295 6.76336 0
      vertex 3.57295 6.76336 10
    endloop
  endfacet
  facet normal 0.951057 -0.309017 0
    outer loop
      vertex 3.57295 6.76336 0
      vertex 3 5 10
      vertex 3 5 0
    endloop
  endfacet
  facet normal 0 1 -0
    outer loop
      vertex 6.92705 2.14683 0
      vertex 5.07295 2.14683 10
      vertex 6.92705 2.14683 10
    endloop
  endfacet
  facet normal 0 1 0
    outer loop
      vertex 5.07295 2.14683 10
      vertex 6.92705 2.14683 0
      vertex 5.07295 2.14683 0
    endloop
  endfacet
  facet normal -0.951056 -0.309019 0
    outer loop
      vertex 87 5 0
      vertex 86.427 6.76336 10
      vertex 86.427 6.76336 0
    endloop
  endfacet
  facet normal -0.951056 -0.309019 0
    outer loop
      vertex 86.427 6.76336 10
      vertex 87 5 0
      vertex 87 5 10
    endloop
  endfacet
  facet normal 0 -1 0
    outer loop
      vertex 83.073 7.85317 0
      vertex 84.927 7.85317 10
      vertex 83.073 7.85317 10
    endloop
  endfacet
  facet normal 0 -1 -0
    outer loop
      vertex 84.927 7.85317 10
      vertex 83.073 7.85317 0
      vertex 84.927 7.85317 0
    endloop
  endfacet
  facet normal -0.587785 -0.809017 0
    outer loop
      vertex 84.927 7.85317 0
      vertex 86.427 6.76336 10
      vertex 84.927 7.85317 10
    endloop
  endfacet
  facet normal -0.587785 -0.809017 -0
    outer loop
      vertex 86.427 6.76336 10
      vertex 84.927 7.85317 0
      vertex 86.427 6.76336 0
    endloop
  endfacet
  facet normal 0.951056 0.309019 0
    outer loop
      vertex 81.573 3.23664 10
      vertex 81 5 0
      vertex 81 5 10
    endloop
  endfacet
  facet normal 0.951056 0.309019 0
    outer loop
      vertex 81 5 0
      vertex 81.573 3.23664 10
      vertex 81.573 3.23664 0
    endloop
  endfacet
  facet normal 0.587785 -0.809017 0
    outer loop
      vertex 81.573 6.76336 0
      vertex 83.073 7.85317 10
      vertex 81.573 6.76336 10
    endloop
  endfacet
  facet normal 0.587785 -0.809017 0
    outer loop
      vertex 83.073 7.85317 10
      vertex 81.573 6.76336 0
      vertex 83.073 7.85317 0
    endloop
  endfacet
  facet normal -0.951056 0.309019 0
    outer loop
      vertex 86.427 3.23664 0
      vertex 87 5 10
      vertex 87 5 0
    endloop
  endfacet
  facet normal -0.951056 0.309019 0
    outer loop
      vertex 87 5 10
      vertex 86.427 3.23664 0
      vertex 86.427 3.23664 10
    endloop
  endfacet
  facet normal -0.587785 0.809017 0
    outer loop
      vertex 86.427 3.23664 0
      vertex 84.927 2.14683 10
      vertex 86.427 3.23664 10
    endloop
  endfacet
  facet normal -0.587785 0.809017 0
    outer loop
      vertex 84.927 2.14683 10
      vertex 86.427 3.23664 0
      vertex 84.927 2.14683 0
    endloop
  endfacet
  facet normal 0.587785 0.809017 -0
    outer loop
      vertex 83.073 2.14683 0
      vertex 81.573 3.23664 10
      vertex 83.073 2.14683 10
    endloop
  endfacet
  facet normal 0.587785 0.809017 0
    outer loop
      vertex 81.573 3.23664 10
      vertex 83.073 2.14683 0
      vertex 81.573 3.23664 0
    endloop
  endfacet
  facet normal 0.951056 -0.309019 0
    outer loop
      vertex 81 5 10
      vertex 81.573 6.76336 0
      vertex 81.573 6.76336 10
    endloop
  endfacet
  facet normal 0.951056 -0.309019 0
    outer loop
      vertex 81.573 6.76336 0
      vertex 81 5 10
      vertex 81 5 0
    endloop
  endfacet
  facet normal 0 1 -0
    outer loop
      vertex 84.927 2.14683 0
      vertex 83.073 2.14683 10
      vertex 84.927 2.14683 10
    endloop
  endfacet
  facet normal 0 1 0
    outer loop
      vertex 83.073 2.14683 10
      vertex 84.927 2.14683 0
      vertex 83.073 2.14683 0
    endloop
  endfacet
  facet normal -0.951057 0 -0.309017
    outer loop
      vertex 25 0 32
      vertex 24.4271 10 33.7634
      vertex 25 10 32
    endloop
  endfacet
  facet normal -0.951057 -0 -0.309017
    outer loop
      vertex 24.4271 10 33.7634
      vertex 25 0 32
      vertex 24.4271 0 33.7634
    endloop
  endfacet
  facet normal -0.587785 0 -0.809017
    outer loop
      vertex 22.9271 0 34.8532
      vertex 24.4271 10 33.7634
      vertex 24.4271 0 33.7634
    endloop
  endfacet
  facet normal -0.587785 0 -0.809017
    outer loop
      vertex 24.4271 10 33.7634
      vertex 22.9271 0 34.8532
      vertex 22.9271 10 34.8532
    endloop
  endfacet
  facet normal 0 0 -1
    outer loop
      vertex 21.0729 0 34.8532
      vertex 22.9271 10 34.8532
      vertex 22.9271 0 34.8532
    endloop
  endfacet
  facet normal -0 0 -1
    outer loop
      vertex 22.9271 10 34.8532
      vertex 21.0729 0 34.8532
      vertex 21.0729 10 34.8532
    endloop
  endfacet
  facet normal 0.951057 -0 0.309017
    outer loop
      vertex 19 0 32
      vertex 19.5729 10 30.2366
      vertex 19 10 32
    endloop
  endfacet
  facet normal 0.951057 0 0.309017
    outer loop
      vertex 19.5729 10 30.2366
      vertex 19 0 32
      vertex 19.5729 0 30.2366
    endloop
  endfacet
  facet normal -0.951057 0 0.309017
    outer loop
      vertex 24.4271 0 30.2366
      vertex 25 10 32
      vertex 24.4271 10 30.2366
    endloop
  endfacet
  facet normal -0.951057 0 0.309017
    outer loop
      vertex 25 10 32
      vertex 24.4271 0 30.2366
      vertex 25 0 32
    endloop
  endfacet
  facet normal 0.587786 0 0.809017
    outer loop
      vertex 19.5729 10 30.2366
      vertex 21.0729 0 29.1468
      vertex 21.0729 10 29.1468
    endloop
  endfacet
  facet normal 0.587786 0 0.809017
    outer loop
      vertex 21.0729 0 29.1468
      vertex 19.5729 10 30.2366
      vertex 19.5729 0 30.2366
    endloop
  endfacet
  facet normal 0.587785 0 -0.809017
    outer loop
      vertex 19.5729 0 33.7634
      vertex 21.0729 10 34.8532
      vertex 21.0729 0 34.8532
    endloop
  endfacet
  facet normal 0.587785 0 -0.809017
    outer loop
      vertex 21.0729 10 34.8532
      vertex 19.5729 0 33.7634
      vertex 19.5729 10 33.7634
    endloop
  endfacet
  facet normal -0 0 1
    outer loop
      vertex 21.0729 10 29.1468
      vertex 22.9271 0 29.1468
      vertex 22.9271 10 29.1468
    endloop
  endfacet
  facet normal 0 0 1
    outer loop
      vertex 22.9271 0 29.1468
      vertex 21.0729 10 29.1468
      vertex 21.0729 0 29.1468
    endloop
  endfacet
  facet normal 0.951057 0 -0.309017
    outer loop
      vertex 19.5729 0 33.7634
      vertex 19 10 32
      vertex 19.5729 10 33.7634
    endloop
  endfacet
  facet normal 0.951057 0 -0.309017
    outer loop
      vertex 19 10 32
      vertex 19.5729 0 33.7634
      vertex 19 0 32
    endloop
  endfacet
  facet normal -0.587786 0 0.809017
    outer loop
      vertex 22.9271 10 29.1468
      vertex 24.4271 0 30.2366
      vertex 24.4271 10 30.2366
    endloop
  endfacet
  facet normal -0.587786 0 0.809017
    outer loop
      vertex 24.4271 0 30.2366
      vertex 22.9271 10 29.1468
      vertex 22.9271 0 29.1468
    endloop
  endfacet
  facet normal -0.951056 0 -0.309019
    outer loop
      vertex 71 0 32
      vertex 70.427 10 33.7634
      vertex 71 10 32
    endloop
  endfacet
  facet normal -0.951056 -0 -0.309019
    outer loop
      vertex 70.427 10 33.7634
      vertex 71 0 32
      vertex 70.427 0 33.7634
    endloop
  endfacet
  facet normal -0.587785 0 -0.809017
    outer loop
      vertex 68.927 0 34.8532
      vertex 70.427 10 33.7634
      vertex 70.427 0 33.7634
    endloop
  endfacet
  facet normal -0.587785 0 -0.809017
    outer loop
      vertex 70.427 10 33.7634
      vertex 68.927 0 34.8532
      vertex 68.927 10 34.8532
    endloop
  endfacet
  facet normal 0 0 -1
    outer loop
      vertex 67.073 0 34.8532
      vertex 68.927 10 34.8532
      vertex 68.927 0 34.8532
    endloop
  endfacet
  facet normal -0 0 -1
    outer loop
      vertex 68.927 10 34.8532
      vertex 67.073 0 34.8532
      vertex 67.073 10 34.8532
    endloop
  endfacet
  facet normal 0.951056 -0 0.309019
    outer loop
      vertex 65 0 32
      vertex 65.573 10 30.2366
      vertex 65 10 32
    endloop
  endfacet
  facet normal 0.951056 0 0.309019
    outer loop
      vertex 65.573 10 30.2366
      vertex 65 0 32
      vertex 65.573 0 30.2366
    endloop
  endfacet
  facet normal -0.951056 0 0.309019
    outer loop
      vertex 70.427 0 30.2366
      vertex 71 10 32
      vertex 70.427 10 30.2366
    endloop
  endfacet
  facet normal -0.951056 0 0.309019
    outer loop
      vertex 71 10 32
      vertex 70.427 0 30.2366
      vertex 71 0 32
    endloop
  endfacet
  facet normal -0.587786 0 0.809017
    outer loop
      vertex 68.927 10 29.1468
      vertex 70.427 0 30.2366
      vertex 70.427 10 30.2366
    endloop
  endfacet
  facet normal -0.587786 0 0.809017
    outer loop
      vertex 70.427 0 30.2366
      vertex 68.927 10 29.1468
      vertex 68.927 0 29.1468
    endloop
  endfacet
  facet normal 0.587786 0 0.809017
    outer loop
      vertex 65.573 10 30.2366
      vertex 67.073 0 29.1468
      vertex 67.073 10 29.1468
    endloop
  endfacet
  facet normal 0.587786 0 0.809017
    outer loop
      vertex 67.073 0 29.1468
      vertex 65.573 10 30.2366
      vertex 65.573 0 30.2366
    endloop
  endfacet
  facet normal 0.587785 0 -0.809017
    outer loop
      vertex 65.573 0 33.7634
      vertex 67.073 10 34.8532
      vertex 67.073 0 34.8532
    endloop
  endfacet
  facet normal 0.587785 0 -0.809017
    outer loop
      vertex 67.073 10 34.8532
      vertex 65.573 0 33.7634
      vertex 65.573 10 33.7634
    endloop
  endfacet
  facet normal -0 0 1
    outer loop
      vertex 67.073 10 29.1468
      vertex 68.927 0 29.1468
      vertex 68.927 10 29.1468
    endloop
  endfacet
  facet normal 0 0 1
    outer loop
      vertex 68.927 0 29.1468
      vertex 67.073 10 29.1468
      vertex 67.073 0 29.1468
    endloop
  endfacet
  facet normal 0.951056 0 -0.309019
    outer loop
      vertex 65.573 0 33.7634
      vertex 65 10 32
      vertex 65.573 10 33.7634
    endloop
  endfacet
  facet normal 0.951056 0 -0.309019
    outer loop
      vertex 65 10 32
      vertex 65.573 0 33.7634
      vertex 65 0 32
    endloop
  endfacet
  facet normal -0.992341 1.26183e-007 -0.123527
    outer loop
      vertex 60.3375 0 16.3541
      vertex 60.1124 10 18.1622
      vertex 60.45 10 15.45
    endloop
  endfacet
  facet normal -0.992341 -0 -0.123526
    outer loop
      vertex 60.1124 10 18.1622
      vertex 60.3375 0 16.3541
      vertex 60.1124 0 18.1622
    endloop
  endfacet
  facet normal -1 0 0
    outer loop
      vertex 60.45 0 15.2833
      vertex 60.45 10 0
      vertex 60.45 0 0
    endloop
  endfacet
  facet normal -1 0 0
    outer loop
      vertex 60.45 10 0
      vertex 60.45 0 15.2833
      vertex 60.45 10 15.45
    endloop
  endfacet
  facet normal -0.743145 0 -0.669131
    outer loop
      vertex 57.4993 0 24.0313
      vertex 55.3381 10 26.4316
      vertex 57.4993 10 24.0313
    endloop
  endfacet
  facet normal -0.743145 -0 -0.669131
    outer loop
      vertex 55.3381 10 26.4316
      vertex 57.4993 0 24.0313
      vertex 55.3381 0 26.4316
    endloop
  endfacet
  facet normal 0.587786 0 -0.809017
    outer loop
      vertex 34.6619 0 26.4316
      vertex 37.275 10 28.3301
      vertex 37.275 0 28.3301
    endloop
  endfacet
  facet normal 0.587786 0 -0.809017
    outer loop
      vertex 37.275 10 28.3301
      vertex 34.6619 0 26.4316
      vertex 34.6619 10 26.4316
    endloop
  endfacet
  facet normal 0 0 -1
    outer loop
      vertex 43.385 0 30.3154
      vertex 46.615 10 30.3154
      vertex 46.615 0 30.3154
    endloop
  endfacet
  facet normal -0 0 -1
    outer loop
      vertex 46.615 10 30.3154
      vertex 43.385 0 30.3154
      vertex 43.385 10 30.3154
    endloop
  endfacet
  facet normal 1 -0 0
    outer loop
      vertex 29.55 0 15.2833
      vertex 29.55 10 0
      vertex 29.55 10 15.45
    endloop
  endfacet
  facet normal 1 0 0
    outer loop
      vertex 29.55 10 0
      vertex 29.55 0 15.2833
      vertex 29.55 0 0
    endloop
  endfacet
  facet normal -0.406736 0 -0.913546
    outer loop
      vertex 49.7743 0 29.6438
      vertex 52.725 10 28.3301
      vertex 52.725 0 28.3301
    endloop
  endfacet
  facet normal -0.406736 0 -0.913546
    outer loop
      vertex 52.725 10 28.3301
      vertex 49.7743 0 29.6438
      vertex 49.7743 10 29.6438
    endloop
  endfacet
  facet normal 0.951056 0 -0.309017
    outer loop
      vertex 30.8857 0 21.2341
      vertex 29.8876 10 18.1622
      vertex 30.8857 10 21.2341
    endloop
  endfacet
  facet normal 0.951056 0 -0.309017
    outer loop
      vertex 29.8876 10 18.1622
      vertex 30.8857 0 21.2341
      vertex 29.8876 0 18.1622
    endloop
  endfacet
  facet normal 0.866025 0 -0.5
    outer loop
      vertex 32.5007 0 24.0313
      vertex 30.8857 10 21.2341
      vertex 32.5007 10 24.0313
    endloop
  endfacet
  facet normal 0.866025 0 -0.5
    outer loop
      vertex 30.8857 10 21.2341
      vertex 32.5007 0 24.0313
      vertex 30.8857 0 21.2341
    endloop
  endfacet
  facet normal -0.207912 0 -0.978148
    outer loop
      vertex 46.615 0 30.3154
      vertex 49.7743 10 29.6438
      vertex 49.7743 0 29.6438
    endloop
  endfacet
  facet normal -0.207912 0 -0.978148
    outer loop
      vertex 49.7743 10 29.6438
      vertex 46.615 0 30.3154
      vertex 46.615 10 30.3154
    endloop
  endfacet
  facet normal 0.99452 0.00174213 -0.104528
    outer loop
      vertex 29.55 10 15.45
      vertex 29.6625 0 16.3541
      vertex 29.55 0 15.2833
    endloop
  endfacet
  facet normal -0.587786 0 -0.809017
    outer loop
      vertex 52.725 0 28.3301
      vertex 55.3381 10 26.4316
      vertex 55.3381 0 26.4316
    endloop
  endfacet
  facet normal -0.587786 0 -0.809017
    outer loop
      vertex 55.3381 10 26.4316
      vertex 52.725 0 28.3301
      vertex 52.725 10 28.3301
    endloop
  endfacet
  facet normal -0.866025 0 -0.5
    outer loop
      vertex 59.1143 0 21.2341
      vertex 57.4993 10 24.0313
      vertex 59.1143 10 21.2341
    endloop
  endfacet
  facet normal -0.866025 -0 -0.5
    outer loop
      vertex 57.4993 10 24.0313
      vertex 59.1143 0 21.2341
      vertex 57.4993 0 24.0313
    endloop
  endfacet
  facet normal 0.743145 0 -0.669131
    outer loop
      vertex 34.6619 0 26.4316
      vertex 32.5007 10 24.0313
      vertex 34.6619 10 26.4316
    endloop
  endfacet
  facet normal 0.743145 0 -0.669131
    outer loop
      vertex 32.5007 10 24.0313
      vertex 34.6619 0 26.4316
      vertex 32.5007 0 24.0313
    endloop
  endfacet
  facet normal 0.207912 0 -0.978148
    outer loop
      vertex 40.2257 0 29.6438
      vertex 43.385 10 30.3154
      vertex 43.385 0 30.3154
    endloop
  endfacet
  facet normal 0.207912 0 -0.978148
    outer loop
      vertex 43.385 10 30.3154
      vertex 40.2257 0 29.6438
      vertex 40.2257 10 29.6438
    endloop
  endfacet
  facet normal 0.992341 0 -0.123527
    outer loop
      vertex 29.6625 0 16.3541
      vertex 29.8876 10 18.1622
      vertex 29.8876 0 18.1622
    endloop
  endfacet
  facet normal 0.992341 -6.30914e-008 -0.123527
    outer loop
      vertex 29.8876 10 18.1622
      vertex 29.6625 0 16.3541
      vertex 29.55 10 15.45
    endloop
  endfacet
  facet normal -0.99452 0.00174216 -0.10453
    outer loop
      vertex 60.45 10 15.45
      vertex 60.45 0 15.2833
      vertex 60.3375 0 16.3541
    endloop
  endfacet
  facet normal -0.951056 0 -0.309017
    outer loop
      vertex 60.1124 0 18.1622
      vertex 59.1143 10 21.2341
      vertex 60.1124 10 18.1622
    endloop
  endfacet
  facet normal -0.951056 -0 -0.309017
    outer loop
      vertex 59.1143 10 21.2341
      vertex 60.1124 0 18.1622
      vertex 59.1143 0 21.2341
    endloop
  endfacet
  facet normal 0.406736 0 -0.913546
    outer loop
      vertex 37.275 0 28.3301
      vertex 40.2257 10 29.6438
      vertex 40.2257 0 29.6438
    endloop
  endfacet
  facet normal 0.406736 0 -0.913546
    outer loop
      vertex 40.2257 10 29.6438
      vertex 37.275 0 28.3301
      vertex 37.275 10 28.3301
    endloop
  endfacet
endsolid OpenSCAD_Model
